<svg width="166" height="113" viewBox="0 0 166 113" fill="none" xmlns="http://www.w3.org/2000/svg">
<path d="M103 67.6241C103 68.9635 102.913 70.2812 102.739 71.5771C100.796 87.1278 87.4762 99.2482 71.4747 99.2482H50.6406C47.3514 99.2482 44.6573 101.87 44.5573 105.168L44.3197 113L24.925 98.5404C17.8253 97.0049 11.594 93.0519 7.14314 87.5961C2.17897 81.5259 -0.581352 73.5953 0.103302 65.0494C1.42735 48.5224 15.6141 36 32.1426 36H71.4747C80.1376 36 88.019 39.55 93.74 45.289C95.998 47.5541 97.9195 50.1676 99.4067 53.0317C101.708 57.3985 103 62.3643 103 67.6241Z" fill="#E5DFD8"/>
<path d="M122.105 2.5C143.255 2.5 161.468 18.5744 163.17 39.8867C164.048 50.878 160.504 61.0857 154.141 68.8936L154.142 68.8945C148.552 75.7682 140.764 80.7926 131.868 82.8535L108.943 100.002L105.093 102.882L104.947 98.0752L104.661 88.6162C104.581 85.9692 102.43 83.8906 99.8359 83.8906H74.7549C54.1995 83.8906 37.1262 68.2816 34.6348 48.2783L34.6357 48.2773C34.4137 46.6074 34.3018 44.9131 34.3018 43.1953C34.3018 36.4302 35.9586 30.0344 38.9141 24.4082C40.8218 20.7258 43.2839 17.3675 46.1758 14.457H46.1768C53.509 7.07802 63.6262 2.5 74.7549 2.5H122.105Z" fill="#99C9FF" stroke="#FAF9F7" stroke-width="5"/>
<path fill-rule="evenodd" clip-rule="evenodd" d="M70.7076 29.0677C71.6397 29.1877 71.7402 28.8008 72.6892 29.1355C73.5875 29.5475 73.7326 29.3267 74.5654 29.9499C75.3346 30.6166 74.9795 30.9636 75.5642 31.6749C76.0901 32.4212 76.5289 32.1622 76.9682 33.0129C77.3619 33.8719 77.2317 33.9225 77.5171 34.7905C77.7682 35.6697 77.42 35.7455 77.5931 36.6037C77.7077 37.4675 78.2651 37.413 78.3138 38.3245C78.323 39.2298 78.2015 39.23 78.1374 40.1189C78.0557 41.0101 77.595 40.9508 77.4469 41.7964C77.288 42.6425 77.4762 42.6886 77.252 43.531C76.9985 44.3622 77.0165 44.3683 76.7123 45.182C76.368 45.9804 76.0715 45.8451 75.6897 46.6024C75.2884 47.3464 75.8362 47.6624 75.3663 48.408C74.8961 49.1496 74.7037 49.0165 74.1921 49.7141C73.6606 50.4025 73.6001 50.346 73.0421 50.9922C72.4623 51.6123 72.6801 51.8256 72.0659 52.4272C71.7359 52.7403 71.4574 52.7525 71.1748 52.7732C71.4154 53.076 71.4513 53.218 71.8844 53.6056C72.4466 54.0771 72.2951 54.2802 72.9121 54.7077C73.5449 55.1155 73.8518 54.5772 74.4687 54.891C75.095 55.1837 74.914 55.6515 75.611 55.8834C76.311 56.0901 76.3579 55.8877 77.0533 56C77.7523 56.0923 77.7461 56.2747 78.4772 56.2758C79.2171 56.2392 79.1414 55.4959 79.8152 55.3943C80.4925 55.2646 80.5932 55.6816 81.2993 55.4825C81.9959 55.2617 82.0883 55.5126 82.7896 55.2321C83.4832 54.9292 83.3096 54.5469 83.9549 54.2105C84.1249 54.1157 84.2588 54.0616 84.3753 54.0249C84.0046 53.7823 83.7335 53.773 83.3132 53.1867C82.8063 52.3705 82.8137 52.3626 82.4286 51.4786C82.1113 50.5595 82.6351 50.4156 82.4643 49.5419C82.3711 48.6554 82.2071 48.6692 82.2303 47.744C82.3097 46.8236 82.3829 46.832 82.6169 45.9376C82.9194 45.07 82.3192 44.7899 82.8809 43.8708C83.5321 42.9968 83.942 43.3796 84.7332 42.763C85.587 42.2493 85.4433 41.8837 86.497 41.5965C87.0338 41.4971 87.3174 41.5409 87.5891 41.5954C87.8702 41.6573 88.1388 41.7168 88.6631 41.8324C89.1973 41.9666 89.497 41.9977 89.8231 42.0277C90.1391 42.0748 90.4958 42.138 90.9432 42.572C91.3844 43.0145 91.4654 43.3341 91.5431 43.6215C91.6062 43.9169 91.6699 44.197 91.8458 44.6925C92.1438 45.6895 92.0647 45.7057 92.1339 46.6822C92.1194 47.6386 92.4684 47.7008 92.2716 48.6669C92.0354 49.6045 91.6696 49.4862 91.3302 50.3328C90.94 51.1522 91.3314 51.3732 90.8266 52.1725C90.2953 52.9442 90.1678 52.8459 89.5765 53.5362C89.0997 54.0448 88.785 53.9555 88.375 54.1423C88.4636 54.1954 88.5701 54.2564 88.7084 54.3298C89.3581 54.6504 89.4325 54.4834 90.105 54.7391C90.7894 54.9794 90.8323 54.8441 91.5312 55.0253C92.2199 55.1898 92.2903 55.2494 93.0441 55.4104C93.8134 55.5652 93.7713 55.7795 94.5282 55.9083C95.2744 56.0192 95.2252 56.4212 95.9805 56.4833C96.188 56.4927 96.3381 56.4875 96.4619 56.4757C96.832 56.308 97.1846 56.0201 97.5529 55.9513C97.8169 55.8855 98.0011 55.9219 98.1666 55.9816C98.3064 55.8704 98.4728 55.7587 98.7896 55.6893C99.5225 55.5091 99.5659 55.6654 100.291 55.4476C100.671 55.3229 100.878 55.3438 101.094 55.3475C101.314 55.1952 101.442 55.0477 101.885 54.8573C102.536 54.5159 102.659 54.7049 103.272 54.3674C103.355 54.2383 103.426 54.0741 103.511 53.9397C103.658 53.7266 103.826 53.6076 104.327 53.7092C104.356 53.7151 104.414 53.7524 104.489 53.8066C104.56 53.7665 104.64 53.7189 104.73 53.6605C105.331 53.2744 105.155 52.9193 105.608 52.5277C105.405 52.2882 105.265 52.1409 104.97 51.6485C104.54 50.8835 104.622 50.8309 104.258 50.0501C103.913 49.2614 103.683 49.3525 103.385 48.5338C103.108 47.712 103.087 47.717 102.858 46.8847C102.646 46.0499 102.603 46.0588 102.433 45.2176C102.281 44.3764 102.153 44.3959 102.036 43.549C101.934 42.7023 102.206 42.6735 102.136 41.8374C102.077 41.0001 102.363 40.9839 102.33 40.1569C102.308 39.3299 102.315 39.3294 102.313 38.5052C102.322 37.6799 101.755 37.6877 101.791 36.8124C101.846 35.9344 102.272 35.9726 102.389 35.1058C102.54 34.2324 102.333 34.1892 102.593 33.2852C102.912 32.3861 102.782 32.3299 103.282 31.429C103.87 30.5537 104.053 30.6791 104.834 29.9798C105.703 29.361 105.879 29.6357 106.82 29.3139C107.795 29.086 107.816 29.1946 108.768 29.223C109.7 29.343 109.801 28.9561 110.75 29.2909C111.648 29.7028 111.793 29.4818 112.626 30.1049C113.395 30.7716 113.04 31.119 113.625 31.8303C114.15 32.5765 114.589 32.3174 115.029 33.1682C115.422 34.0272 115.292 34.0776 115.577 34.9454C115.829 35.8248 115.48 35.9007 115.653 36.759C115.768 37.6228 116.325 37.5681 116.374 38.4795C116.383 39.385 116.262 39.3851 116.198 40.2743C116.116 41.1654 115.655 41.1059 115.507 41.9513C115.348 42.7975 115.537 42.8435 115.312 43.6859C115.059 44.5173 115.077 44.5234 114.773 45.3369C114.428 46.1354 114.132 46.0003 113.75 46.7577C113.349 47.5017 113.897 47.8174 113.427 48.5629C112.956 49.3048 112.764 49.1717 112.252 49.8694C111.721 50.5578 111.66 50.5011 111.102 51.1472C110.523 51.7673 110.741 51.9809 110.126 52.5826C109.796 52.8956 109.518 52.9078 109.235 52.9286C109.476 53.2312 109.512 53.373 109.945 53.7606C110.507 54.232 110.355 54.4352 110.972 54.8627C111.605 55.2706 111.912 54.7321 112.529 55.046C113.155 55.3386 112.974 55.8068 113.671 56.0387C114.371 56.2455 114.418 56.0431 115.114 56.1554C115.813 56.2476 115.806 56.43 116.538 56.4312C117.277 56.3945 117.202 55.6508 117.876 55.5493C118.553 55.4196 118.654 55.8366 119.36 55.6375C120.056 55.4167 120.149 55.6679 120.85 55.3874C121.544 55.0845 121.37 54.7019 122.015 54.3655C122.185 54.2708 122.319 54.2165 122.435 54.1799C122.065 53.9375 121.794 53.9278 121.374 53.3417C120.867 52.5255 120.874 52.5176 120.489 51.6336C120.172 50.7146 120.695 50.5709 120.525 49.6972C120.431 48.8106 120.267 48.8246 120.291 47.8993C120.37 46.9788 120.443 46.9874 120.677 46.093C120.98 45.2252 120.38 44.9452 120.941 44.0262C121.593 43.1521 122.002 43.5346 122.794 42.918C123.647 42.4043 123.504 42.039 124.557 41.7519C125.094 41.6525 125.378 41.6962 125.649 41.7507C125.931 41.8127 126.199 41.8718 126.723 41.9874C127.258 42.1215 127.557 42.153 127.883 42.183C128.199 42.2301 128.556 42.2933 129.004 42.7273C129.445 43.1699 129.526 43.4895 129.603 43.7769C129.666 44.0722 129.73 44.3521 129.906 44.8475C130.204 45.8445 130.125 45.8609 130.194 46.8375C130.18 47.7939 130.529 47.8559 130.332 48.8219C130.096 49.7596 129.73 49.6415 129.391 50.4882C129 51.3075 129.392 51.5282 128.887 52.3275C128.356 53.0993 128.228 53.0012 127.637 53.6915C127.16 54.2002 126.845 54.1103 126.435 54.2972C126.524 54.3505 126.63 54.4113 126.769 54.4848C127.418 54.8054 127.493 54.6383 128.165 54.8941C128.85 55.1344 128.893 54.9991 129.592 55.1803C130.28 55.3447 130.351 55.4047 131.104 55.5658C131.874 55.7205 131.832 55.9345 132.589 56.0633C133.335 56.1742 133.286 56.5766 134.041 56.6387C134.787 56.6724 134.792 56.5312 135.498 56.4849C136.19 56.4043 136.103 56.0083 136.85 55.8446C137.583 55.6644 137.626 55.8207 138.351 55.603C139.063 55.3698 139.165 55.6481 139.864 55.364C140.545 55.0596 140.55 55.0575 141.174 54.6973C141.339 54.5916 141.438 54.3059 141.571 54.0947C141.719 53.8816 141.886 53.763 142.387 53.8645C142.482 53.8842 142.913 54.2415 143.129 54.4672C143.314 54.6601 143.381 54.7997 143.42 54.9156C143.434 54.959 143.446 55.0004 143.458 55.0395C143.695 56.1456 142.707 56.1838 142.245 56.4576C141.462 56.9103 141.366 56.7097 140.584 57.061C139.799 57.3805 139.977 57.8787 139.153 58.1489C138.33 58.3966 138.311 58.3229 137.486 58.526C136.667 58.7041 136.649 58.6461 135.711 58.7557C134.797 58.8176 134.796 59.1033 133.887 59.0637C132.995 58.991 133.037 58.6692 132.198 58.5451C131.372 58.4051 131.289 58.8299 130.48 58.6675C129.667 58.4936 129.843 57.953 128.993 57.753C128.159 57.5382 128.21 57.362 127.404 57.0817C126.61 56.7806 126.317 57.4855 125.491 57.0813C124.798 56.7145 124.925 56.2639 124.53 55.8354C124.043 56.2659 124.217 56.7063 123.513 57.1017C122.718 57.5151 122.408 56.8502 121.634 57.1895C120.847 57.5063 120.993 57.9088 120.152 58.1784C119.3 58.4203 119.223 58.1061 118.371 58.2712C117.513 58.4018 117.579 59.0357 116.644 59.0837C115.702 59.0869 115.734 58.3147 114.872 58.208C114.013 58.0758 113.885 58.6451 112.994 58.3913C112.119 58.1039 112.246 57.7622 111.448 57.3932C110.665 56.9986 110.484 57.314 109.723 56.8266C108.986 56.3195 108.832 56.5204 108.134 55.9379C107.454 55.3334 108.019 54.736 107.446 54.1235C107.371 54.1869 107.284 54.259 107.179 54.3429C106.495 54.822 106.726 55.1546 106.011 55.6168C105.296 56.0774 105.247 55.997 104.51 56.415C103.775 56.8384 103.76 56.813 103.006 57.2052C102.306 57.5093 102.208 57.4818 101.627 57.6897C101.506 57.8046 101.347 57.9101 101.093 57.9935C100.859 58.064 100.689 58.1078 100.548 58.1401C100.371 58.219 100.174 58.2974 99.8072 58.4086C98.9864 58.658 99.0103 58.7702 98.1651 58.9767C97.4852 59.1064 96.7817 59.0308 96.0891 58.9099C96.0105 58.9125 95.9238 58.913 95.8267 58.9088C95.4468 58.8778 95.2369 58.8003 95.0557 58.7135C94.8931 58.6831 94.7319 58.655 94.5731 58.6311C94.5463 58.6278 94.5166 58.6176 94.501 58.516C94.4987 58.5012 94.4975 58.485 94.496 58.468C94.3959 58.438 94.2794 58.4111 94.1377 58.3902C93.3121 58.2501 93.2282 58.6749 92.4196 58.5125C91.6066 58.3386 91.783 57.7981 90.9328 57.598C90.0985 57.3833 90.1492 57.207 89.344 56.9268C88.5498 56.6256 88.2562 57.3306 87.431 56.9264C86.7376 56.5595 86.8645 56.1086 86.4697 55.6801C85.9821 56.1106 86.1567 56.5513 85.4525 56.9467C84.6579 57.36 84.348 56.6949 83.5732 57.0342C82.7866 57.351 82.9324 57.7539 82.0914 58.0234C81.2396 58.2654 81.1622 57.9507 80.3104 58.1159C79.4528 58.2465 79.5182 58.8807 78.5839 58.9287C77.6421 58.932 77.6736 58.1597 76.8121 58.053C75.9528 57.9208 75.8245 58.4898 74.9336 58.236C74.0583 57.9486 74.1858 57.6073 73.3881 57.2382C72.6049 56.8436 72.4234 57.1587 71.6631 56.6713C70.9259 56.1642 70.7717 56.3653 70.0739 55.7829C69.3936 55.1785 69.9589 54.581 69.3857 53.9685C69.3107 54.0319 69.224 54.104 69.1191 54.1879C68.4347 54.6671 68.6658 54.9996 67.9503 55.4618C67.2357 55.9224 67.1869 55.8417 66.4493 56.2597C65.7148 56.6831 65.6992 56.6576 64.946 57.0499C64.1632 57.39 64.1322 57.3153 63.3376 57.6191C62.5422 57.9227 62.57 58.004 61.7469 58.2536C60.9261 58.5031 60.9499 58.6152 60.1047 58.8217C58.9183 59.0481 57.6596 58.6489 56.5128 58.4757C56.4859 58.4724 56.4562 58.4623 56.4407 58.3606C56.4265 58.2682 56.4284 58.1295 56.4311 58.0027C56.4384 57.652 56.4474 57.2894 56.4786 56.9632C56.6406 55.1607 57.4033 56.3487 57.6697 56.4074C58.3327 56.6066 58.8913 55.9082 59.4925 55.7959C60.1962 55.6207 60.3326 56.1725 61.0603 55.9501C61.7852 55.731 61.7871 55.7361 62.4983 55.4637C63.211 55.1937 63.1306 55.0003 63.8248 54.7023C64.497 54.3498 64.6068 54.5635 65.2736 54.1783C65.942 53.8001 66.0183 53.9259 66.6699 53.5051C67.271 53.119 67.0949 52.7639 67.5476 52.3724C67.3448 52.1329 67.205 51.9858 66.91 51.4936C66.4791 50.7284 66.5619 50.6756 66.1977 49.8948C65.8525 49.1061 65.6224 49.1972 65.325 48.3784C65.0473 47.5567 65.0267 47.5617 64.7972 46.7294C64.5859 45.8947 64.5422 45.9036 64.3729 45.0627C64.2204 44.2214 64.0927 44.2409 63.9759 43.394C63.8737 42.5472 64.1459 42.5185 64.0753 41.6824C64.0168 40.845 64.3028 40.8287 64.2701 40.0015C64.2475 39.1747 64.255 39.1742 64.2529 38.3502C64.2612 37.5249 63.6948 37.5328 63.7308 36.6574C63.7853 35.7793 64.2117 35.8173 64.3288 34.9504C64.4793 34.0772 64.2727 34.0341 64.5329 33.1303C64.8513 32.231 64.7216 32.1749 65.2215 31.2741C65.8092 30.3987 65.9924 30.5241 66.7735 29.8249C67.6427 29.2059 67.8189 29.4804 68.7593 29.1586C69.7342 28.9306 69.7556 29.0392 70.7076 29.0677ZM126.047 44.7842C125.681 44.7185 125.665 44.0706 125.064 44.1512C124.486 44.3076 124.525 44.4364 124.043 44.7216C123.603 45.0643 123.759 45.2404 123.429 45.6833C123.126 46.177 123.286 46.2583 123.096 46.8095C122.942 47.3901 123.016 47.41 122.962 48.0186C122.942 48.623 122.327 48.6724 122.396 49.3823C122.532 50.0789 123.06 49.9374 123.259 50.5311C123.512 51.1061 123.193 51.2745 123.551 51.8557C123.85 52.2714 124.051 52.2723 124.323 52.4453C124.794 52.0938 125.118 52.3714 125.59 51.8733C126.055 51.3294 126.235 51.4679 126.649 50.8679C127.041 50.2538 126.719 50.0728 127.015 49.4621C127.265 48.8352 127.502 48.9129 127.673 48.2357C127.816 47.5628 127.549 47.5406 127.565 46.9196C127.525 46.3206 127.947 46.2441 127.767 45.6246C127.527 45.0415 126.983 45.3465 126.732 45.0615C126.429 44.7951 126.402 44.9044 126.047 44.7842ZM87.9868 44.6288C87.6205 44.5632 87.6044 43.9153 87.0041 43.9959C86.4261 44.1522 86.4642 44.2815 85.9826 44.5667C85.5426 44.9093 85.6986 45.0851 85.3688 45.528C85.0651 46.0218 85.2258 46.1033 85.0359 46.6546C84.8816 47.2351 84.9555 47.2549 84.902 47.8636C84.8815 48.4679 84.2666 48.5172 84.3354 49.2269C84.4713 49.9236 84.9992 49.7823 85.1989 50.3762C85.4518 50.9511 85.1325 51.1195 85.4908 51.7007C85.7893 52.1164 85.9906 52.1173 86.2622 52.2903C86.7339 51.9387 87.058 52.2161 87.5292 51.718C87.9951 51.1742 88.1745 51.3128 88.5887 50.713C88.9805 50.0989 88.6585 49.9177 88.9547 49.3071C89.205 48.6802 89.4412 48.7577 89.6125 48.0804C89.756 47.4074 89.489 47.3856 89.5047 46.7647C89.4649 46.1655 89.8863 46.0889 89.7069 45.4693C89.4668 44.8862 88.9225 45.1914 88.6712 44.9061C88.3688 44.6397 88.3412 44.7491 87.9868 44.6288ZM108.577 31.7862C108.058 31.7634 108.011 31.2513 107.424 31.383C106.878 31.5668 106.856 31.5169 106.363 31.8621C105.899 32.2743 106.352 32.6594 106.056 33.098C105.787 33.5811 105.083 33.2884 104.843 33.9688C104.64 34.6674 104.941 34.7369 104.817 35.4483C104.716 36.1794 105.042 36.2113 104.996 36.9478C104.964 37.691 105.131 37.7068 105.123 38.4833C105.125 39.2583 104.379 39.2688 104.4 40.0579C104.43 40.8456 105.191 40.8046 105.243 41.5658C105.307 42.3265 105.23 42.3343 105.32 43.0902C105.423 43.8406 105.134 43.8867 105.269 44.6392C105.419 45.3862 105.516 45.3642 105.699 46.0945C105.898 46.817 105.553 46.923 105.797 47.6473C106.055 48.3617 106.004 48.3826 106.307 49.0796C106.627 49.7681 106.541 49.8082 106.911 50.4701C107.154 50.8762 107.321 50.9794 107.516 51.1464C107.603 50.8925 107.627 50.6465 107.95 50.3397C108.488 49.8147 108.717 50.036 109.241 49.4789C109.736 48.9032 109.899 49.036 110.363 48.4333C110.814 47.8202 110.655 47.7075 111.057 47.0746C111.459 46.442 111.624 46.5353 111.987 45.8667C112.331 45.1871 112.208 45.1305 112.508 44.4401C112.771 43.7321 112.435 43.6138 112.647 42.9149C112.834 42.2105 113.081 42.2682 113.217 41.5386C113.348 40.8083 112.988 40.7583 113.056 40.0487C113.11 39.3364 113.247 39.3395 113.243 38.6179C113.205 37.903 113.517 37.8727 113.42 37.1403C113.275 36.4209 113.166 36.4404 112.971 35.7533C112.751 35.0799 113.057 34.9599 112.754 34.2964C112.425 33.6559 112.437 33.6459 112.032 33.0658C111.589 32.524 111.587 32.521 111.07 32.0712C110.524 31.6571 110.178 32.241 109.673 32.0037C109.135 31.8132 109.115 31.8572 108.577 31.7862ZM70.5162 31.6312C69.9978 31.6085 69.9505 31.0963 69.3639 31.228C68.8181 31.4118 68.7959 31.3617 68.3028 31.7068C67.8387 32.1189 68.2917 32.5041 67.9956 32.9427C67.7269 33.4257 67.0228 33.1335 66.7831 33.8138C66.5801 34.5123 66.8804 34.5819 66.7562 35.2933C66.6556 36.0243 66.9817 36.0561 66.9353 36.7924C66.9034 37.5358 67.071 37.5517 67.0627 38.3283C67.0645 39.1033 66.3183 39.1137 66.3392 39.903C66.3702 40.6907 67.1309 40.6496 67.1831 41.4109C67.2471 42.1714 67.1697 42.1792 67.2599 42.9349C67.363 43.6852 67.0736 43.7314 67.2088 44.4838C67.3587 45.2309 67.4554 45.209 67.6388 45.9392C67.8374 46.6617 67.4932 46.7677 67.7363 47.4919C67.995 48.2064 67.9438 48.2274 68.2468 48.9243C68.567 49.6128 68.481 49.6529 68.851 50.3148C69.0935 50.7208 69.2607 50.8241 69.4559 50.9911C69.5427 50.7371 69.5664 50.4911 69.8894 50.1844C70.428 49.6594 70.6564 49.8806 71.1802 49.3236C71.6755 48.748 71.8389 48.8809 72.3029 48.2783C72.7536 47.6652 72.595 47.5522 72.9965 46.9192C73.399 46.2867 73.5637 46.38 73.9271 45.7113C74.2705 45.0319 74.1473 44.9754 74.4476 44.2851C74.7103 43.5771 74.3746 43.4588 74.5868 42.76C74.7737 42.0555 75.021 42.1131 75.1565 41.3836C75.2877 40.6533 74.9279 40.603 74.9954 39.8934C75.0493 39.1812 75.1863 39.1843 75.1826 38.463C75.1443 37.748 75.4569 37.7176 75.3598 36.9854C75.2143 36.2659 75.1062 36.2851 74.9102 35.5979C74.6909 34.9247 74.9965 34.8048 74.6935 34.1414C74.3648 33.5009 74.3765 33.4907 73.9716 32.9105C73.529 32.3687 73.5264 32.3657 73.0099 31.9158C72.4639 31.5019 72.1175 32.086 71.6129 31.8487C71.0749 31.6582 71.0547 31.7022 70.5162 31.6312Z" fill="black"/>
</svg>
