<svg width="600" height="600" viewBox="0 0 600 600" fill="none" xmlns="http://www.w3.org/2000/svg">
<path d="M424.18 315.288C424.18 319.46 423.91 323.564 423.368 327.601C417.312 376.038 375.796 413.79 325.922 413.79H260.986C250.734 413.79 242.338 421.955 242.026 432.228L241.285 456.624L180.836 411.585C158.707 406.802 139.286 394.49 125.413 377.496C109.941 358.589 101.337 333.887 103.471 307.268C107.598 255.791 151.815 216.786 203.331 216.786H325.922C352.923 216.786 377.487 227.844 395.319 245.719C402.356 252.775 408.345 260.915 412.981 269.836C420.154 283.438 424.18 298.905 424.18 315.288Z" fill="#99C9FF"/>
<path d="M426.425 314.908C428.775 310.322 426.349 305.963 425.984 303.014C425.232 297.543 425.189 297.544 424.016 292.15C422.658 286.81 423.43 286.573 421.638 281.301C419.68 276.099 420.091 275.917 417.722 270.854C415.196 265.891 414.289 266.389 411.44 261.664C408.437 257.028 408.106 257.254 404.773 252.887C401.301 248.638 402.115 247.909 398.276 243.883C394.308 240.003 394.706 239.561 390.443 235.945C386.06 232.488 386.153 232.35 381.516 229.226C379.179 227.685 377.921 227.062 376.663 226.45C375.412 225.822 374.167 225.196 371.676 223.945C366.664 221.5 366.474 221.919 361.321 219.874C356.095 218.015 356.151 217.822 350.787 216.354C345.378 215.091 345.456 214.66 339.938 213.802C337.169 213.431 335.762 213.465 334.358 213.579C332.954 213.686 331.566 213.694 328.797 213.662C323.254 213.517 323.383 212.649 317.979 212.617C312.616 212.617 312.616 214.083 307.253 214.083C301.889 214.083 301.889 212.325 296.525 212.325C291.162 212.325 291.162 212.522 285.799 212.522C280.436 212.522 280.436 212.999 275.073 212.999C269.711 212.999 269.711 213.63 264.349 213.63C258.986 213.63 258.986 213.991 253.622 213.991C248.258 213.991 248.258 212.271 242.893 212.271C237.529 212.271 237.529 212.54 232.164 212.54C226.8 212.54 226.8 214.202 221.437 214.202C216.072 214.202 216.072 213.064 210.708 213.064C205.308 213.125 205.429 213.623 199.885 213.924C194.376 214.207 194.305 213.388 188.802 214.233C183.28 214.961 183.483 216.012 178.136 217.298C175.446 217.874 174.101 218.162 172.74 218.454C171.388 218.752 170.029 219.052 167.405 219.94C162.211 221.821 161.796 220.87 156.63 223.072C151.694 225.746 152.343 226.932 147.611 229.765C145.321 231.318 144.084 231.958 142.84 232.604C141.595 233.246 140.312 233.851 138.191 235.667C133.898 239.232 134.522 239.946 130.642 243.856C126.672 247.679 126.224 247.268 122.626 251.51C120.789 253.597 119.757 254.552 118.745 255.546C117.711 256.518 116.667 257.504 115.058 259.812C112.046 264.575 113.924 265.675 111.197 270.443C109.006 275.5 108.288 275.195 106.338 280.389C105.448 283.018 105.129 284.375 104.813 285.725C104.646 286.398 104.479 287.07 104.272 287.907C104.123 288.761 103.92 289.778 103.608 291.122C102.382 296.491 100.856 296.202 100.197 301.775C99.4479 307.338 101.093 307.465 100.882 312.948C100.848 318.442 100.145 318.471 100.533 324.002C100.752 326.764 100.861 328.146 100.971 329.533C101.064 330.922 101.154 332.317 101.712 335.044C102.874 340.485 103.287 340.386 104.853 345.694C106.622 350.949 107.183 350.741 109.327 355.806C110.449 358.319 111.01 359.576 111.573 360.835C112.153 362.085 112.678 363.37 114.088 365.742C116.918 370.472 116.794 370.562 119.983 375.071C123.331 379.449 122.55 380.098 126.263 384.264C130.075 388.334 130.288 388.125 134.375 391.889C138.618 395.466 138.105 396.128 142.646 399.416C147.263 402.58 147.163 402.753 152.022 405.559C154.491 406.902 155.973 407.086 157.456 407.206C158.925 407.363 160.382 407.477 162.915 408.543C168.006 410.577 167.334 412.5 172.71 414.165C174.492 414.672 175.693 414.985 176.767 415.154C177.301 415.245 177.797 415.329 178.31 415.417C178.508 415.445 178.958 415.535 178.966 415.518C178.949 415.495 178.987 415.487 179.021 415.479L179.09 415.472L179.133 415.479C179.242 415.554 179.358 415.633 179.482 415.718C179.974 416.074 180.588 416.517 181.327 417.051C185.63 420.257 186.155 419.549 190.458 422.755C194.761 425.961 195.245 425.308 199.548 428.514C203.851 431.72 202.62 433.38 206.924 436.586C211.228 439.792 212.178 438.51 216.482 441.717C219.318 443.9 222.154 446.083 224.99 448.267C227.142 449.87 228.014 450.947 228.885 452.024C229.321 452.562 229.757 453.1 230.353 453.705C230.651 454.007 230.989 454.325 231.387 454.668C231.736 454.946 232.106 455.239 232.499 455.551C232.96 455.9 233.448 456.271 233.969 456.666C239.648 460.832 241.446 462.151 245.329 465C245.355 463.957 245.412 461.707 245.496 458.416C245.654 453.21 245.291 450.371 244.912 448.056C244.51 446.499 244.098 445.288 244.181 442.557C244.291 438.997 244.402 435.437 244.512 431.877C244.652 429.53 245.083 428.414 245.434 427.309C245.878 426.236 246.263 425.111 247.598 423.192C248.979 421.295 250.097 420.738 251.079 420.171C252.137 419.686 253.12 419.155 255.151 418.302C257.201 417.483 258.31 417.343 259.395 417.064C259.968 417.001 260.464 416.91 261.254 416.86C262.091 416.826 263.097 416.804 264.437 416.804C269.797 416.804 269.797 417.669 275.158 417.669C280.518 417.669 280.518 418.088 285.877 418.088C291.237 418.088 291.238 417.121 296.597 417.121C301.958 417.121 301.958 417.755 307.319 417.755C312.681 417.755 312.681 416.76 318.043 416.76C323.439 416.7 323.333 416.561 328.842 416.291C334.332 415.993 334.398 416.762 339.878 415.914C345.375 415.192 345.246 414.529 350.597 413.25C353.29 412.662 354.633 412.357 355.972 412.01C357.319 411.693 358.673 411.374 361.295 410.483C366.421 408.427 366.761 409.174 371.833 406.833C374.278 405.478 375.349 404.525 376.406 403.58C377.463 402.632 378.54 401.752 380.791 400.152C385.344 397.048 385.917 397.831 390.198 394.263C394.561 390.789 393.6 389.729 397.569 385.938C401.427 382.027 401.538 382.113 405.201 377.978C408.372 373.464 409.032 373.92 411.988 369.214C414.761 364.396 414.581 364.292 416.899 359.268C419.332 354.296 419.27 354.269 421.184 349.074C422.196 346.497 422.914 345.276 423.596 344.022C424.308 342.78 425.025 341.519 425.754 338.805C426.406 336.468 426.247 333.966 426.382 331.556C426.49 329.126 426.63 326.77 427.149 324.398C427.618 322.769 431.058 316.358 426.153 315.432C425.273 315.268 424.293 315.282 423.346 315.296C423.003 315.302 422.628 315.313 422.377 315.417C422.101 315.531 422.072 315.717 422.062 315.884C421.832 319.487 421.139 323.056 420.287 326.541C419.268 330.034 418.448 333.483 417.631 336.913C416.956 339.402 416.717 340.673 416.476 341.949C416.348 342.587 416.22 343.225 416.061 344.019C415.829 344.794 415.502 345.708 415.055 346.924C414.153 349.353 413.758 350.589 413.361 351.828C412.919 353.048 412.362 354.222 411.258 356.573C409.091 361.3 408.578 361.02 406.009 365.509C403.253 369.885 403.07 369.767 400.098 374.001C397.802 376.576 395.444 379.087 393.023 381.534C389.298 385.092 390.14 386.023 386.044 389.272C382.043 392.619 382.096 392.694 377.779 395.644C375.647 397.168 374.23 397.35 372.88 397.595C371.524 397.835 370.189 398.062 367.952 399.311C363.299 401.429 363.648 402.252 358.846 404.161C356.398 404.987 355.16 405.36 353.925 405.732C353.309 405.921 352.692 406.111 351.922 406.348C351.137 406.528 350.194 406.744 348.937 407.033C343.92 408.241 343.824 407.749 338.745 408.409C333.694 409.205 333.809 410.645 328.588 410.938C323.382 411.195 323.268 410.093 317.939 410.15C314.364 410.175 310.788 410.2 307.213 410.226C301.849 410.226 301.849 410.804 296.484 410.804C291.122 410.804 291.122 409.538 285.759 409.538C280.396 409.538 280.396 409.16 275.033 409.16C269.671 409.16 269.671 410.656 264.309 410.656C262.968 410.656 261.963 410.6 261.124 410.516C260.151 410.45 259.362 410.396 258.569 410.343C256.985 410.369 255.27 410.274 252.234 411.491C249.233 412.771 247.919 413.771 246.538 414.652C245.268 415.665 243.852 416.617 241.914 419.309C240.029 422.047 239.83 423.82 239.563 425.41C239.44 427.06 239.224 428.631 239.056 431.733C238.854 437.215 237.575 437.097 237.403 442.496C237.362 443.84 237.374 444.849 237.413 445.691C237.44 446.11 237.464 446.489 237.488 446.849C237.519 447.138 237.544 447.722 237.59 447.635C237.755 447.835 237.914 448.235 237.896 448.844C237.887 449.142 237.948 449.474 238.041 449.9C237.845 450.136 237.693 450.77 236.176 449.64C235.37 449.019 234.765 448.553 234.26 448.164C233.608 447.637 233.086 447.214 232.563 446.792C231.524 445.939 230.485 445.087 228.333 443.484C224.027 440.276 224.565 439.55 220.26 436.342C215.955 433.135 216.317 432.647 212.012 429.44C207.707 426.232 207.512 426.495 203.206 423.287C198.901 420.08 198.578 420.516 194.273 417.309C189.968 414.101 190.665 413.161 186.359 409.954C185.094 409.011 184.475 408.699 182.699 407.591C182.131 407.52 181.595 407.452 181.077 407.387C180.55 407.326 180.499 407.382 180.195 407.379C179.705 407.398 179.227 407.416 178.713 407.435C177.669 407.467 176.473 407.306 174.679 406.797C169.722 405.25 169.725 405.225 164.91 403.283C162.514 402.277 161.425 401.532 160.351 400.784C159.26 400.067 158.213 399.285 155.946 398.062C151.488 395.467 151.869 394.848 147.664 391.95C143.529 388.944 143.33 389.186 139.412 385.863C135.638 382.382 135.533 382.481 132.024 378.72C128.61 374.873 128.587 374.884 125.474 370.784C122.509 366.587 121.952 366.943 119.299 362.487C116.772 357.963 117.024 357.827 114.865 353.137C112.866 348.378 112.619 348.466 110.984 343.55C109.524 338.591 108.43 338.864 107.344 333.728C106.814 331.155 107.219 329.759 107.596 328.399C107.948 327.039 108.357 325.704 108.143 323.155C107.796 318.053 107.138 318.068 107.172 312.904C107.376 307.754 106.438 307.677 107.142 302.511C107.739 297.325 108.941 297.555 110.066 292.543C110.588 290.02 110.622 288.693 110.697 287.355C110.742 286.011 110.793 284.645 111.629 282.162C113.505 277.262 115.652 278.2 117.668 273.522C120.25 269.125 118.59 268.151 121.417 263.762C122.913 261.627 123.837 260.684 124.755 259.751C125.215 259.285 125.668 258.816 126.201 258.208C126.789 257.642 127.458 256.938 128.293 255.953C131.617 252.01 130.705 251.168 134.483 247.534C138.172 243.8 139.63 245.465 143.545 242.189C145.483 240.513 146.365 239.552 147.203 238.498C148.046 237.454 148.906 236.398 151.058 234.932C155.536 232.298 155.432 232.092 160.028 229.633C162.416 228.579 163.747 228.358 165.062 228.144C166.391 227.962 167.638 227.617 170.099 226.863C175.002 225.301 175.036 225.394 180.04 224.292C182.53 223.7 183.711 223.105 184.908 222.507C186.118 221.984 187.359 221.54 189.926 221.165C195.06 220.362 195.165 221.58 200.279 221.302C202.816 221.153 204.14 220.895 205.5 220.68C206.84 220.442 208.18 220.205 210.861 220.205C214.433 220.263 218.007 220.32 221.582 220.378C226.943 220.378 226.943 221.37 232.304 221.37C237.666 221.37 237.666 220.061 243.029 220.061C248.392 220.061 248.392 220.632 253.754 220.632C259.116 220.632 259.116 219.576 264.477 219.576C269.837 219.576 269.837 221.107 275.198 221.107C280.558 221.107 280.558 219.368 285.917 219.368C291.278 219.368 291.278 219.584 296.638 219.584C301.998 219.584 301.998 219.236 307.359 219.236C312.721 219.236 312.721 220.709 318.083 220.709C323.394 220.741 323.562 220.669 328.693 220.813C331.266 220.837 332.558 220.773 333.871 220.596C335.184 220.414 336.501 220.324 339.081 220.665C344.213 221.468 344.253 221.29 349.325 222.475C354.363 223.863 353.846 225.529 358.65 227.243C363.388 229.125 364.207 227.273 368.918 229.577C371.258 230.748 372.324 231.525 373.381 232.303C374.453 233.056 375.508 233.824 377.68 235.257C382.002 238.173 381.072 239.455 385.081 242.616C388.974 245.927 389.766 245.063 393.479 248.695C397.058 252.455 396.413 253.034 399.656 257.009C402.769 261.088 403.426 260.631 406.246 264.986C408.917 269.423 408.705 269.551 411.055 274.175C413.244 278.857 413.048 278.946 414.861 283.77C416.515 288.64 417.884 288.24 419.177 293.327C420.288 298.449 419.752 298.551 420.458 303.707C420.871 307.049 419.575 310.801 422.123 313.978L422.431 314.342C422.729 314.672 423.126 315.022 423.851 315.181C424.698 315.367 426.21 315.333 426.425 314.908Z" fill="black"/>
<path d="M425.153 309.74L362.831 325.734L414.75 268.032C421.934 281.655 425.696 305.697 425.153 309.74Z" fill="black"/>
<path d="M427.018 309.896C429.09 308.796 427.29 307.777 427.274 307.184C427.202 306.431 427.131 305.677 427.059 304.923C426.927 303.816 427.601 303.728 427.45 302.617C427.293 301.511 427.663 301.456 427.499 300.348C427.319 299.246 426.457 299.387 426.279 298.294C426.091 297.203 425.753 297.265 425.556 296.18C425.359 295.096 426.239 294.924 426.014 293.837C425.79 292.752 426.271 292.65 426.038 291.562C425.793 290.477 425.921 290.448 425.675 289.363C425.433 288.276 425.138 288.346 424.871 287.267C424.6 286.187 424.24 286.28 423.96 285.207C423.666 284.135 423.829 284.091 423.534 283.018C423.242 281.945 423.581 281.845 423.256 280.774C422.93 279.703 422.314 279.895 421.985 278.832C421.629 277.775 422.396 277.519 422.035 276.451C421.678 275.382 420.527 275.794 420.131 274.752C419.724 273.684 421.13 273.234 420.666 272.058C419.798 270.152 419.667 270.255 418.825 268.4C417.98 266.521 417.732 266.975 416.891 265.246C416.463 264.372 416.2 264.132 415.952 263.925C415.828 263.82 415.707 263.721 415.568 263.55L415.46 263.406C415.409 263.451 415.348 263.546 415.288 263.615C415.166 263.755 415.033 263.907 414.881 264.082C413.662 265.381 413.663 265.821 412.517 267.048C411.398 268.268 410.856 266.747 409.383 268.379C408.682 269.158 408.306 269.659 408.071 270.004C407.931 270.243 407.79 270.483 407.427 270.887C406.7 271.695 407.726 272.623 406.999 273.431C406.272 274.239 405.57 273.604 404.842 274.412C404.115 275.22 404.548 275.611 403.821 276.42C403.093 277.228 402.692 276.865 401.965 277.673C401.238 278.481 401.846 279.031 401.118 279.839C400.391 280.647 400.022 280.313 399.295 281.121C398.568 281.929 397.761 281.2 397.034 282.008C396.307 282.816 397.185 283.61 396.458 284.418C395.73 285.226 395.319 284.854 394.592 285.662C393.865 286.47 394.569 287.107 393.842 287.915C393.115 288.723 392.661 288.313 391.934 289.121C391.207 289.929 390.492 289.283 389.765 290.091C389.038 290.899 390.283 292.025 389.556 292.833C388.829 293.641 388.499 293.342 387.772 294.15C387.045 294.958 387.369 295.252 386.642 296.06C385.916 296.868 385.06 296.094 384.333 296.902C383.606 297.71 384.624 298.631 383.897 299.439C383.17 300.247 382.733 299.852 382.006 300.66C381.279 301.467 381.043 301.254 380.316 302.062C379.589 302.87 379.846 303.102 379.119 303.91C378.392 304.718 378.766 305.057 378.039 305.865C377.312 306.673 377.143 306.52 376.416 307.328C375.689 308.136 375.589 308.045 374.862 308.853C374.135 309.661 373.526 309.11 372.799 309.918C372.072 310.726 372.233 310.872 371.506 311.68C370.779 312.488 370.285 312.041 369.558 312.849C369.194 313.253 368.979 313.424 368.764 313.596C368.571 313.744 368.035 314.273 367.357 315.026C365.868 316.681 367.741 317.166 366.674 318.353C365.604 319.541 363.128 319.769 361.645 321.418C360.199 323.024 360.867 322.824 359.511 324.331C358.124 325.873 359.751 325.161 358.544 326.503C357.296 327.89 359.052 326.951 357.971 328.153C357.464 328.717 356.111 329.659 354.637 330.699C353.769 331.395 352.896 332.124 354.009 331.839C356.126 331.296 359.317 329.103 360.961 328.681C362.655 328.246 362.393 328.459 364.137 328.011C365.827 327.578 364.327 329.142 366.422 328.605C368.49 328.016 368.506 328.011 370.573 327.423C372.652 326.889 372.994 325.252 374.541 324.855C375.381 324.635 376.221 324.415 377.061 324.195C377.765 324.027 378.469 323.859 379.173 323.691C380.224 323.421 380.405 324.126 381.456 323.856C382.507 323.586 382.433 323.295 383.484 323.026C384.535 322.756 384.714 323.455 385.765 323.185C386.815 322.915 386.902 323.254 387.953 322.984C389.004 322.714 388.804 321.933 389.855 321.663C390.906 321.393 391.037 321.905 392.088 321.636C393.14 321.366 392.935 320.563 393.986 320.293C395.038 320.024 394.969 319.753 396.02 319.484C397.071 319.214 397.187 319.667 398.238 319.398C399.289 319.128 399.173 318.674 400.224 318.405C401.276 318.135 401.384 318.559 402.435 318.289C403.487 318.019 403.67 318.737 404.722 318.467C405.773 318.197 405.516 317.19 406.567 316.92C407.619 316.65 407.79 317.322 408.842 317.052C409.893 316.783 409.647 315.818 410.698 315.548C411.75 315.278 411.833 315.604 412.885 315.334C413.936 315.064 414.053 315.521 415.104 315.252C416.156 314.982 416.055 314.588 417.106 314.318C417.808 314.143 418.51 313.968 419.213 313.792C420.264 313.522 420.564 314.696 421.615 314.427C422.522 314.194 423.091 312.629 424.134 312.928C424.512 313.037 426.363 315.307 425.534 311.343C425.36 310.628 425.167 309.833 424.98 309.064C424.908 308.787 424.828 308.484 424.756 308.287C424.676 308.07 424.633 308.057 424.597 308.057C423.071 308.09 421.325 307.311 419.887 307.68C418.835 307.95 418.916 308.269 417.864 308.539C416.812 308.809 416.859 308.993 415.806 309.263C414.754 309.533 414.693 309.294 413.641 309.564C412.94 309.745 412.239 309.927 411.539 310.108C410.487 310.378 410.433 310.166 409.381 310.436C408.329 310.706 408.541 311.538 407.489 311.808C406.437 312.078 406.487 312.272 405.435 312.542C404.383 312.812 404.013 311.362 402.96 311.632C401.908 311.902 402.074 312.55 401.022 312.82C399.97 313.09 399.933 312.945 398.881 313.215C397.829 313.485 397.707 313.004 396.655 313.274C395.603 313.544 395.947 314.892 394.895 315.162C393.843 315.432 393.655 314.693 392.603 314.962C391.908 315.162 391.212 315.363 390.515 315.563C389.464 315.833 389.583 316.3 388.531 316.569C387.479 316.839 387.219 315.818 386.167 316.088C385.116 316.358 385.038 316.052 383.986 316.322C382.935 316.592 383.243 317.8 382.192 318.07C381.14 318.339 380.955 317.615 379.904 317.885C378.852 318.155 378.778 317.867 377.726 318.136C376.674 318.406 376.959 319.519 375.907 319.789C374.963 320.031 374.208 319.097 374.295 319.075C374.244 319.088 374.109 319.714 373.855 319.779C373.662 319.829 372.959 320.942 372.446 321.073C371.962 321.197 372.239 320.91 371.829 321.015C371.379 321.131 372.783 319.993 372.6 320.04C372.365 320.1 373.584 319.264 373.528 319.278C373.491 319.288 373.27 319.418 373.033 319.551C372.854 319.651 372.692 319.733 372.744 319.675C372.836 319.573 371.665 320.198 371.867 319.973C372.085 319.731 374.218 318.818 374.218 318.818C374.188 318.851 371.874 319.538 372.153 319.228C372.324 319.048 372.495 318.869 372.665 318.689C372.923 318.403 373.628 318.591 373.727 318.482C373.77 318.434 374.442 318.618 375.139 317.843C375.866 317.035 375.654 316.844 376.382 316.036C377.109 315.228 377.039 315.165 377.766 314.357C378.241 313.81 378.716 313.262 379.191 312.715C379.918 311.907 379.513 311.54 380.24 310.732C380.967 309.924 381.141 310.082 381.869 309.274C382.595 308.466 382.433 308.319 383.16 307.511C383.887 306.703 383.191 306.074 383.918 305.267C384.646 304.458 386.043 305.722 386.77 304.914C387.497 304.106 387.089 303.737 387.816 302.929C388.543 302.122 387.953 301.588 388.68 300.78C389.407 299.972 390.034 300.539 390.76 299.731C391.488 298.923 390.525 298.053 391.252 297.245C391.979 296.437 393.291 297.623 394.018 296.815C394.745 296.007 393.688 295.051 394.415 294.244C395.142 293.436 395.681 293.923 396.408 293.116C397.135 292.308 396.425 291.666 397.152 290.858C397.879 290.05 399.105 291.158 399.832 290.35C400.558 289.542 399.594 288.671 400.321 287.863C401.048 287.055 400.889 286.911 401.615 286.103C402.342 285.296 403.175 286.048 403.901 285.24C404.628 284.432 404.887 284.666 405.614 283.858C406.341 283.05 405.594 282.375 406.321 281.567C407.048 280.76 407.677 281.328 408.403 280.52C409.13 279.712 408.544 279.182 409.271 278.375C409.997 277.567 410.104 277.664 410.831 276.856C411.558 276.049 412.17 276.602 412.897 275.794C413.26 275.39 413.24 275.006 413.22 274.621C413.078 274.372 412.925 274.134 413.046 274C413.275 273.745 413.452 274.259 413.564 274.135C413.665 274.023 413.668 272.706 413.984 272.354C414.149 272.094 414.079 272.944 414.001 273.486C413.932 273.906 413.879 274.23 413.817 274.613C413.817 274.613 414.686 272.95 414.9 273.456C415.094 273.911 414.948 274.027 415.117 274.421C415.472 275.357 415.755 275.29 416.126 276.271C416.505 277.264 415.353 277.677 415.685 278.674C415.901 279.341 416.117 280.009 416.333 280.676C416.644 281.685 417.446 281.435 417.757 282.454C418.066 283.473 418.222 283.427 418.502 284.458C418.786 285.491 417.385 285.875 417.665 286.892C417.931 287.915 419.552 287.499 419.815 288.541C420.072 289.582 419.655 289.682 419.887 290.726C420.124 291.771 418.848 292.059 419.082 293.092C419.302 294.128 420.258 293.927 420.474 294.973C420.691 296.02 419.992 296.156 420.182 297.2C420.371 298.243 421.04 298.124 421.22 299.174C421.391 300.224 421.199 300.255 421.369 301.303C421.524 302.349 421.346 302.373 421.494 303.417C421.636 304.456 422.807 304.308 422.933 305.364C423.045 306.414 422.552 306.446 422.643 307.473C422.661 308.139 421.432 308.759 423.477 309.304L423.726 309.39C423.967 309.471 424.288 309.572 424.884 309.682C425.579 309.811 426.827 309.981 427.018 309.896Z" fill="black"/>
<path d="M345.949 300.653L357.46 305.091L364.543 324.62L321.156 337.047L300.79 313.968L310.53 276.686L314.957 273.135L330.896 276.686L336.208 295.327L345.949 300.653Z" fill="#FFEDE0"/>
<path d="M364.465 324.183C363.279 322.5 362.975 324.3 362.487 324.421C361.896 324.572 361.305 324.723 360.713 324.874C359.825 325.093 359.671 324.466 358.783 324.685C357.894 324.904 357.808 324.556 356.92 324.775C356.031 324.994 356.234 325.821 355.346 326.04C354.458 326.259 354.536 326.575 353.648 326.794C352.759 327.013 352.551 326.164 351.663 326.383C350.775 326.602 350.662 326.143 349.774 326.362C348.886 326.581 348.855 326.457 347.967 326.676C347.078 326.895 347.146 327.17 346.257 327.389C345.369 327.608 345.457 327.967 344.569 328.186C343.681 328.405 343.642 328.245 342.753 328.464C341.865 328.683 341.781 328.34 340.893 328.559C340.005 328.778 340.155 329.391 339.267 329.61C338.379 329.829 338.191 329.064 337.303 329.283C336.415 329.502 336.698 330.656 335.81 330.874C334.922 331.093 334.583 329.711 333.695 329.93C332.807 330.149 332.845 330.303 331.957 330.522C331.069 330.741 331.162 331.117 330.274 331.336C329.386 331.555 329.508 332.05 328.62 332.269C327.732 332.488 327.802 332.772 326.914 332.991C326.025 333.21 325.694 331.858 324.805 332.077C323.917 332.296 323.969 332.507 323.081 332.726C322.193 332.945 322.514 334.252 321.626 334.471C320.738 334.69 320.518 333.796 319.63 334.015C318.742 334.234 318.877 334.785 317.989 335.004C317.101 335.223 316.975 334.711 316.088 334.93C315.199 335.149 315.39 335.924 314.501 336.143C313.613 336.362 313.498 335.891 312.61 336.11C311.722 336.329 311.47 335.301 310.582 335.52C309.694 335.739 309.968 336.858 309.08 337.076C308.192 337.295 308.063 336.771 307.175 336.99C306.287 337.209 306.508 338.106 305.62 338.325C304.732 338.544 304.59 337.966 303.702 338.185C302.814 338.404 302.591 337.494 301.703 337.713C300.815 337.931 301.204 339.518 300.316 339.737C299.428 339.956 299.325 339.535 298.437 339.754C297.582 339.965 297.576 340.405 296.837 340.587C296.401 340.695 296.438 339.53 296.348 339.552C296.266 339.572 295.592 341.114 295.098 341.236C294.631 341.351 295.191 340.622 294.901 340.694C294.754 340.73 294.768 340.656 294.812 340.571C294.951 340.379 295.09 340.21 295.125 340.087C295.189 339.863 294.752 340.167 294.845 339.841C294.93 339.544 294.36 339.757 294.487 339.309C294.612 338.872 294.84 338.88 294.946 338.51C295.189 337.659 295.322 337.674 295.572 336.8C295.824 335.918 296.589 336.138 296.841 335.257C297.093 334.376 296.89 334.318 297.142 333.436C297.394 332.555 298.016 332.734 298.267 331.853C298.519 330.972 298.686 331.02 298.938 330.139C299.19 329.258 297.587 328.798 297.839 327.917C298.091 327.036 299.667 327.488 299.918 326.607C300.17 325.726 299.832 325.629 300.083 324.747C300.335 323.866 299.65 323.67 299.902 322.789C300.154 321.908 299.522 321.727 299.773 320.846C300.025 319.965 301.631 320.426 301.883 319.545C302.134 318.664 300.894 318.308 301.145 317.427C301.397 316.545 301.529 316.583 301.781 315.702C302.032 314.821 303.097 315.127 303.349 314.246C303.601 313.365 303.495 313.335 303.747 312.454C303.998 311.573 302.6 311.172 302.852 310.291C303.015 309.702 303.179 309.114 303.342 308.525C303.521 307.942 303.701 307.357 303.88 306.773C304.132 305.892 304.81 306.087 305.062 305.206C305.314 304.325 305.034 304.244 305.285 303.363C305.537 302.483 306.209 302.676 306.461 301.795C306.712 300.914 307.038 301.008 307.29 300.127C307.541 299.246 306.79 299.03 307.041 298.15C307.293 297.269 307.785 297.41 308.037 296.529C308.289 295.648 307.517 295.427 307.768 294.546C308.02 293.664 307.76 293.59 308.012 292.709C308.263 291.828 308.7 291.953 308.952 291.072C309.203 290.191 308.767 290.066 309.018 289.185C309.27 288.304 309.678 288.421 309.929 287.54C310.181 286.659 310.872 286.857 311.124 285.976C311.375 285.095 310.406 284.817 310.658 283.936C310.91 283.055 311.556 283.24 311.808 282.359C312.06 281.478 311.132 281.212 311.383 280.331C311.635 279.449 311.948 279.539 312.2 278.658C312.452 277.777 312.892 277.903 313.144 277.022C313.395 276.141 313.016 276.032 313.268 275.151C313.44 274.565 313.613 273.979 313.785 273.393C314.036 272.512 315.166 272.836 315.418 271.955C315.635 271.196 314.571 270.066 315.3 269.453C315.565 269.23 318.329 268.942 314.599 267.715C313.916 267.512 313.155 267.285 312.419 267.066C312.151 266.997 311.856 266.921 311.66 266.87C311.44 266.827 311.409 266.852 311.394 266.878C310.725 267.992 309.269 268.891 308.925 270.096C308.673 270.977 308.98 271.066 308.728 271.947C308.476 272.829 308.653 272.88 308.401 273.762C308.149 274.644 307.919 274.577 307.667 275.459L307.167 277.223C306.916 278.104 306.712 278.046 306.46 278.927C306.208 279.809 307.009 280.039 306.757 280.92C306.505 281.802 306.692 281.856 306.44 282.737C306.188 283.619 304.793 283.218 304.541 284.1C304.289 284.981 304.913 285.16 304.661 286.042C304.409 286.923 304.269 286.883 304.017 287.765C303.765 288.646 303.304 288.513 303.052 289.395C302.8 290.276 304.097 290.649 303.845 291.53C303.593 292.412 302.882 292.208 302.63 293.089C302.408 293.977 302.407 293.98 302.185 294.868C301.933 295.749 302.382 295.878 302.13 296.76C301.878 297.641 300.896 297.359 300.644 298.24C300.392 299.121 300.099 299.037 299.847 299.918C299.595 300.799 300.757 301.133 300.505 302.014C300.254 302.895 299.556 302.695 299.305 303.576C299.053 304.457 298.776 304.378 298.524 305.259C298.272 306.141 299.343 306.448 299.091 307.329C298.839 308.211 297.821 307.918 297.569 308.8C297.317 309.681 297.851 309.834 297.599 310.716C297.347 311.597 298.189 311.839 297.937 312.72C297.686 313.602 297.49 313.546 297.239 314.427C296.987 315.308 296.285 315.107 296.033 315.988C295.781 316.869 295.309 316.734 295.057 317.615C294.805 318.496 295.06 318.57 294.808 319.451C294.556 320.332 294.979 320.453 294.727 321.335C294.475 322.216 293.566 321.955 293.314 322.836C293.062 323.718 294.238 324.055 293.986 324.936C293.812 325.522 293.638 326.108 293.463 326.693C293.212 327.575 292.605 327.401 292.353 328.282C292.101 329.163 291.52 328.996 291.269 329.877C291.017 330.759 291.283 330.835 291.031 331.716C290.779 332.598 290.867 332.623 290.615 333.504C290.46 334.095 290.304 334.685 290.148 335.277C289.891 336.178 290.419 336.26 290.142 337.23C289.704 338.764 289.468 338.758 289.009 340.363C288.551 341.967 288.8 341.873 288.36 343.411C287.909 344.99 289.092 344.161 288.721 345.461C288.528 346.136 287.751 347.089 286.958 348.151C286.694 348.674 286.565 349.151 287.436 348.936C289.231 348.493 289.748 347.814 291.378 347.413C293.055 346.999 293.439 346.107 294.877 345.752C296.314 345.398 296.294 346.25 297.984 345.833C299.051 345.57 298.621 344.376 299.549 344.147C300.437 343.928 300.847 345.6 301.735 345.381C302.622 345.162 302.292 343.815 303.179 343.596C304.067 343.377 304.235 344.064 305.123 343.845C306.011 343.626 305.789 342.722 306.677 342.503C307.565 342.284 307.948 343.846 308.836 343.627C309.724 343.408 309.422 342.18 310.31 341.961C311.197 341.742 311.148 341.539 312.035 341.32C312.923 341.101 313.183 342.161 314.071 341.943C314.958 341.724 315.039 342.053 315.927 341.834C316.815 341.615 316.582 340.664 317.47 340.445C318.357 340.226 318.554 341.027 319.441 340.808C320.329 340.589 320.146 339.842 321.033 339.624C321.92 339.405 321.954 339.541 322.841 339.322C323.729 339.103 323.92 339.883 324.808 339.664C325.696 339.446 325.443 338.416 326.331 338.197C327.219 337.978 327.329 338.427 328.217 338.208C329.105 337.99 328.901 337.159 329.788 336.941C330.676 336.722 330.971 337.925 331.859 337.707C332.746 337.488 332.41 336.12 333.298 335.901C334.185 335.682 334.227 335.852 335.114 335.634C336.002 335.415 335.935 335.141 336.822 334.922C337.71 334.703 337.994 335.861 338.882 335.643C339.476 335.505 340.069 335.367 340.664 335.23C341.551 335.011 341.356 334.214 342.243 333.995C343.131 333.776 343.095 333.629 343.982 333.411C344.87 333.192 345.207 334.566 346.095 334.347C346.983 334.128 346.593 332.538 347.48 332.319C348.368 332.1 348.471 332.517 349.358 332.298C350.246 332.079 350.55 333.316 351.437 333.098C352.325 332.879 352.097 331.949 352.985 331.73C353.873 331.511 354.038 332.185 354.926 331.966C355.814 331.747 355.659 331.114 356.546 330.895C357.434 330.676 357.479 330.86 358.367 330.641C359.255 330.422 359.295 330.587 360.183 330.368C361.071 330.149 360.793 329.018 361.681 328.799C362.569 328.58 362.679 329.029 363.567 328.81C364.133 328.671 365.072 329.719 365.134 327.602L365.137 327.348C365.137 327.104 365.12 326.78 365.007 326.204C364.874 325.531 364.576 324.341 364.465 324.183Z" fill="black"/>
<path d="M493.818 195.657C500.032 187.836 493.703 170.327 479.1 155.688C464.496 141.049 447.031 134.704 439.23 140.933L439.153 140.856L313.07 267.252C311.213 269.114 312.014 272.289 314.532 273.042L330.04 277.679L335.818 297.102C336.138 298.176 336.955 299.03 338.013 299.395L358.89 306.6L362.232 320.257C362.876 322.889 366.141 323.803 368.052 321.888L493.894 195.734L493.818 195.657Z" fill="#FFDA75"/>
<path d="M492.529 194.52C489.345 194.998 488.761 197.954 487.536 199.182C486.051 200.678 484.566 202.174 483.081 203.67C480.849 205.907 480.394 205.451 478.162 207.688C475.93 209.926 475.677 209.672 473.444 211.91C471.213 214.147 471.813 214.749 469.582 216.986C467.351 219.223 467.58 219.453 465.349 221.69C463.118 223.926 462.502 223.308 460.271 225.544C458.039 227.781 457.706 227.447 455.474 229.684C453.958 231.145 452.44 232.606 450.921 234.068C448.69 236.305 448.889 236.505 446.658 238.742C444.426 240.979 444.687 241.24 442.456 243.477C440.225 245.714 440.108 245.597 437.877 247.834C435.646 250.071 435.397 249.821 433.166 252.058C430.935 254.295 431.38 254.741 429.149 256.978C426.918 259.215 426.362 258.658 424.131 260.894C421.9 263.13 422.738 263.97 420.508 266.206C418.277 268.443 417.272 267.436 415.041 269.672C412.811 271.908 412.923 272.02 410.693 274.256C408.462 276.492 408.736 276.766 406.505 279.002C404.275 281.238 404.635 281.598 402.405 283.834C400.174 286.07 400.38 286.277 398.15 288.513C395.919 290.75 394.936 289.765 392.705 292.002C390.474 294.239 390.627 294.392 388.396 296.629C386.165 298.865 387.115 299.817 384.885 302.054C382.653 304.29 382.004 303.639 379.773 305.875C377.542 308.112 377.942 308.513 375.711 310.749C373.48 312.986 373.109 312.613 370.878 314.849C368.647 317.086 369.209 317.65 366.979 319.887C366.41 320.507 366.077 320.394 365.781 320.304C365.505 320.173 365.269 320.031 364.95 319.703C364.784 319.517 364.803 319.288 364.877 319.141C364.92 318.05 365.265 317.045 364.732 314.864C363.98 311.793 362.864 312.067 362.113 308.996C362.029 308.618 361.956 308.287 361.89 307.99C361.789 307.487 361.7 307.043 361.619 306.637C361.483 305.792 361.373 305.105 361.264 304.428C360.607 304.138 359.965 303.854 359.184 303.508C358.784 303.35 358.348 303.178 357.854 302.982C357.56 302.873 357.23 302.751 356.853 302.611C353.87 301.582 353.57 302.455 350.587 301.426C347.605 300.396 347.798 299.834 344.815 298.804C343.324 298.29 342.654 297.811 341.985 297.332C341.65 297.092 341.315 296.852 340.877 296.608C340.659 296.486 340.414 296.363 340.131 296.239C339.902 296.147 339.648 296.045 339.358 295.929C339.377 295.941 338.973 296.255 338.487 296.167C337.941 295.677 337.346 294.948 336.927 293.542C336.026 290.511 336.439 290.387 335.538 287.357C334.636 284.326 334.229 284.448 333.328 281.418C332.977 280.239 332.946 279.565 332.92 278.776C332.811 277.706 332.759 276.693 332.485 275.227C331.761 274.908 330.774 274.546 329.43 274.144C329.171 274.072 328.929 274.005 328.699 273.941C328.529 273.906 328.369 273.873 328.216 273.841C327.911 273.788 327.636 273.76 327.382 273.75C326.874 273.728 326.448 273.775 326.023 273.822C325.172 273.916 324.321 274.011 322.809 273.559C319.786 272.655 319.95 272.105 316.927 271.201C316.171 270.974 315.514 270.761 315.521 270.728C315.374 270.651 315.29 270.544 315.221 270.443C315.102 270.224 315.013 270.002 314.998 269.583C315.033 269.151 315.124 268.981 315.269 268.712C315.767 268.093 316.265 267.475 317.38 266.357C319.611 264.121 319.264 263.773 321.495 261.537C323.725 259.301 323.882 259.458 326.112 257.222C327.629 255.764 329.147 254.304 330.665 252.844C332.896 250.609 333.459 251.173 335.689 248.938C337.92 246.701 337.771 246.552 340.002 244.315C342.232 242.08 342.689 242.538 344.92 240.303C347.149 238.067 347.273 238.191 349.502 235.955C351.732 233.72 350.554 232.538 352.784 230.303C355.014 228.067 356.173 229.228 358.404 226.992C360.634 224.756 360.385 224.507 362.616 222.271C364.846 220.036 364.342 219.531 366.572 217.295C368.801 215.06 368.336 214.594 370.566 212.359C372.796 210.124 373.977 211.308 376.207 209.072C378.437 206.837 377.525 205.922 379.755 203.686C381.273 202.229 382.793 200.77 384.313 199.311C386.543 197.076 387.326 197.861 389.556 195.626C391.016 194.11 392.476 192.594 393.937 191.078C396.167 188.843 395.138 187.812 397.368 185.577L401.818 181.097C403.313 179.615 404.808 178.133 406.303 176.651C408.534 174.415 409.033 174.915 411.263 172.679C413.493 170.444 413.287 170.237 415.517 168.002C417.746 165.767 418.241 166.263 420.47 164.028C422.699 161.793 422.939 162.033 425.168 159.798C427.397 157.564 426.844 157.009 429.074 154.775C431.303 152.54 431.665 152.903 433.895 150.668C436.125 148.432 435.557 147.863 437.787 145.627C439.313 144.097 439.706 143.524 440.703 142.411H437.602C437.62 142.426 437.651 142.454 437.683 142.483L439.204 143.831L440.592 142.647C440.755 142.508 441.179 142.222 441.782 141.807C442.375 141.575 442.825 141.418 443.2 141.301C443.605 141.239 443.944 141.236 444.269 141.215C444.905 141.138 445.594 141.236 446.921 141.15C448.291 141.2 448.991 141.113 449.718 141.14C450.44 141.116 451.177 141.107 452.605 141.485C455.452 142.291 455.312 142.717 458.058 143.835C460.773 145.106 460.445 145.746 463.033 147.205C465.564 148.782 466.138 147.908 468.627 149.69C471.059 151.545 470.682 152.023 472.968 154.016C475.268 155.99 475.875 155.351 478.093 157.492C480.225 159.719 479.991 159.933 481.982 162.261C483.891 164.654 483.59 164.896 485.323 167.38C487.03 169.876 487.37 169.669 488.884 172.298C490.342 174.948 490.314 174.972 491.496 177.72C492.088 179.101 492.003 179.913 491.952 180.692C491.924 181.473 491.818 182.234 492.131 183.591C492.611 185.836 494.139 188.26 493.178 190.413C493.009 190.802 492.144 191.475 491.673 192.004C491.256 192.595 491.155 193.143 492.605 194.6C493.124 195.108 493.743 195.605 494.35 196.075C494.569 196.245 494.81 196.429 495.009 196.495C495.228 196.567 495.32 196.47 495.391 196.377C498.736 192.424 499.736 186.77 498.728 182.148C498.339 180.44 498.03 179.627 497.669 178.849C497.338 178.057 497.012 177.276 496.359 175.715C495.749 174.137 495.303 173.429 494.907 172.693C494.514 171.954 494.106 171.229 493.285 169.793C491.633 166.934 491.833 166.801 489.969 164.08C488.079 161.379 488.018 161.428 485.969 158.864C483.838 156.371 483.984 156.237 481.714 153.864C479.349 151.581 478.837 152.127 476.374 150.009C473.916 147.877 473.753 148.072 471.167 146.108C468.527 144.222 469.304 143.031 466.457 141.266C463.532 139.616 463.232 140.195 460.206 138.786C457.09 137.519 457.148 137.354 453.835 136.422C452.154 135.969 451.305 135.74 450.436 135.506C449.585 135.226 448.669 135.055 446.81 135C444.899 135.105 443.975 135.516 443.106 136.103C442.234 136.607 441.44 137.194 439.72 137.997C438.781 138.585 438.089 138.98 437.767 139.092L440.89 139.269C440.865 139.233 440.84 139.199 440.826 139.179L439.654 137.543L437.48 139.179C436.242 140.111 435.516 140.333 433.968 141.885C432.495 143.39 431.023 144.895 429.55 146.4C427.319 148.637 427.649 148.968 425.418 151.204C423.188 153.44 422.465 152.716 420.235 154.952C418.004 157.188 417.788 156.971 415.558 159.207C413.328 161.443 414.182 162.299 411.952 164.535C409.722 166.771 409.209 166.257 406.978 168.493C404.747 170.73 404.543 170.526 402.312 172.763C400.081 174.999 400.868 175.789 398.637 178.025C396.406 180.261 395.658 179.511 393.427 181.747C391.196 183.984 391.588 184.377 389.358 186.614C387.127 188.85 387.746 189.471 385.515 191.707C383.284 193.944 383.141 193.8 380.91 196.036C378.679 198.273 378.162 197.755 375.931 199.991C373.701 202.228 373.353 201.879 371.123 204.115C368.891 206.352 369.079 206.54 366.848 208.777C364.617 211.013 364.928 211.324 362.697 213.56C360.466 215.797 359.797 215.126 357.566 217.363C355.336 219.599 356.201 220.466 353.97 222.702C352.479 224.188 350.987 225.674 349.495 227.16C347.264 229.396 346.818 228.949 344.587 231.185C342.357 233.421 341.929 232.993 339.699 235.229C337.468 237.465 337.664 237.661 335.433 239.898C333.968 241.409 332.503 242.922 331.036 244.434C329.559 245.934 328.081 247.433 326.603 248.933C324.372 251.169 324.747 251.545 322.516 253.781C320.286 256.017 320.125 255.855 317.894 258.092C315.664 260.327 315.814 260.478 313.584 262.714C312.454 263.847 312.107 264.518 311.641 265.307C310.961 266.378 310.185 267.45 310.129 269.806C310.29 272.119 310.816 273.331 311.484 274.561C311.845 275.17 312.339 275.732 313.144 276.236C314.218 276.78 314.429 276.932 315.267 277.191C318.289 278.095 318.442 277.582 321.464 278.486C322.975 278.938 323.786 278.978 324.597 279.018C325.002 279.039 325.407 279.059 325.9 279.13C326.147 279.177 326.415 279.226 326.716 279.283C326.951 279.343 327.211 279.409 327.51 279.485C327.794 279.57 327.961 279.681 327.955 279.769C327.941 280.135 327.815 280.304 327.741 280.545C327.794 281.215 327.897 281.95 328.228 283.061C329.13 286.092 330.337 285.731 331.238 288.762C332.14 291.792 330.494 292.284 331.396 295.314C331.809 296.704 332.276 297.287 332.806 297.989C333.715 299.359 334.641 300.531 337.226 301.609C340.334 302.683 340.013 303.319 343.023 304.359C346.006 305.388 346.308 304.507 349.291 305.537C352.273 306.566 351.751 308.087 354.734 309.116C355.101 309.243 355.429 309.336 355.727 309.403C355.801 309.393 355.789 309.338 355.846 309.297C355.933 309.205 356.08 309.092 356.274 308.994C356.425 308.938 356.59 308.932 356.737 309.02C356.816 309.088 356.865 309.078 356.951 309.278C357.06 309.573 357.163 309.908 357.258 310.298C358.009 313.368 358.211 313.318 358.963 316.388C359.232 317.49 359.269 318.23 359.24 318.871C359.216 319.185 359.193 319.485 359.17 319.789C359.164 320.176 359.075 320.211 359.178 320.964C359.319 321.879 359.644 323.114 360.815 324.283C362.973 326.249 364.644 326.334 366.061 326.409C366.794 326.386 367.551 326.304 368.426 325.947C368.863 325.774 369.336 325.536 369.818 325.181C370.061 325.005 370.315 324.812 370.566 324.577C370.761 324.386 370.967 324.183 371.187 323.967C373.417 321.731 372.727 321.038 374.957 318.802C377.187 316.567 377.768 317.15 379.998 314.914C382.228 312.679 381.685 312.136 383.915 309.901C385.433 308.445 386.952 306.988 388.473 305.53C390.703 303.295 391.269 303.863 393.499 301.627C395.729 299.392 394.981 298.642 397.212 296.406C399.442 294.17 399.768 294.498 401.999 292.261C404.229 290.026 403.625 289.422 405.855 287.186C408.084 284.951 408.959 285.828 411.188 283.593C413.417 281.358 412.424 280.362 414.653 278.128C416.882 275.893 417.006 276.017 419.235 273.782C421.465 271.547 421.266 271.347 423.495 269.112C425.725 266.877 426.567 267.72 428.797 265.485C430.29 264 431.783 262.516 433.276 261.031C435.506 258.796 434.926 258.215 437.156 255.98C439.385 253.745 439.279 253.638 441.508 251.404C443.739 249.168 444.737 250.169 446.967 247.933C449.198 245.697 448.042 244.539 450.273 242.303C452.503 240.067 452.806 240.371 455.036 238.135C457.266 235.899 458.165 236.8 460.395 234.564C462.626 232.329 461.95 231.652 464.181 229.416C466.411 227.18 466.901 227.671 469.131 225.435C471.362 223.199 470.901 222.738 473.131 220.502C475.362 218.266 475.495 218.4 477.726 216.165C479.956 213.929 480.075 214.049 482.306 211.813C484.536 209.578 483.714 208.753 485.944 206.518C488.174 204.282 488.501 204.608 490.731 202.372C492.155 200.946 494.645 200.207 494.583 197.383L494.565 197.054C494.542 196.783 494.48 196.465 494.23 196.071L494.228 195.398L494.051 195.513C493.593 195.844 492.944 196.493 492.745 196.885L492.744 194.58C492.658 194.534 492.583 194.512 492.529 194.52Z" fill="black"/>
<path d="M300.027 307.764L291.099 344.154L327.398 335.203" fill="black"/>
<path d="M326.934 333.437C326.128 331.661 326.19 333.371 325.956 333.429C325.673 333.504 325.39 333.579 325.107 333.654C324.681 333.759 324.527 333.132 324.101 333.237C323.675 333.342 323.589 332.994 323.163 333.099C322.737 333.204 322.94 334.031 322.513 334.136C322.087 334.241 322.165 334.557 321.739 334.662C321.313 334.767 321.105 333.918 320.679 334.023C320.253 334.128 320.14 333.669 319.714 333.775C319.288 333.88 319.257 333.755 318.831 333.86C318.405 333.965 318.472 334.24 318.046 334.345C317.62 334.45 317.708 334.809 317.282 334.914C316.856 335.019 316.817 334.859 316.391 334.964C315.965 335.069 315.881 334.727 315.455 334.832C315.029 334.937 315.179 335.55 314.753 335.655C314.327 335.76 314.139 334.995 313.713 335.1C313.288 335.205 313.571 336.358 313.145 336.464C312.719 336.569 312.379 335.186 311.953 335.291C311.528 335.396 311.565 335.55 311.14 335.655C310.714 335.76 310.806 336.136 310.38 336.241C309.954 336.346 310.076 336.842 309.65 336.947C309.224 337.052 309.294 337.336 308.868 337.441C308.442 337.546 308.11 336.194 307.684 336.299C307.258 336.404 307.309 336.615 306.884 336.72C306.458 336.825 306.778 338.132 306.353 338.237C305.926 338.342 305.707 337.448 305.281 337.553C304.855 337.658 304.99 338.209 304.564 338.314C304.138 338.419 304.013 337.907 303.587 338.012C303.161 338.117 303.351 338.892 302.925 338.997C302.499 339.102 302.383 338.632 301.957 338.737C301.531 338.842 301.279 337.814 300.853 337.919C300.427 338.024 300.702 339.142 300.276 339.248C299.85 339.352 299.721 338.828 299.295 338.933C298.869 339.038 299.089 339.935 298.664 340.041C298.238 340.146 298.096 339.568 297.67 339.673C297.244 339.778 297.02 338.867 296.594 338.972C296.125 339.088 296.663 340.637 296.409 340.7C296.211 340.749 296.215 340.302 296.081 340.335C295.947 340.368 295.847 340.831 295.65 340.88C295.441 340.931 295.957 339.648 295.914 339.659C295.886 339.666 295.659 340.066 295.393 340.475C295.131 340.884 294.831 341.302 294.721 341.329C294.497 341.384 295.02 340.664 294.881 340.698C294.727 340.736 295.08 340.33 294.971 340.357C294.916 340.371 294.781 340.488 294.636 340.608C294.528 340.692 294.419 340.769 294.438 340.69C294.473 340.546 293.832 341.105 293.885 340.888C293.937 340.676 294.214 340.474 294.258 340.295C294.304 340.11 294.462 340.02 294.502 339.854C294.547 339.672 295.457 339.307 295.473 339.243C295.491 339.17 295.262 339.218 295.287 339.113C295.315 339.001 295.982 338.998 295.986 338.981C295.997 338.938 296.135 339.104 296.253 338.625C296.357 338.198 294.739 337.799 294.844 337.372C294.948 336.945 296.54 337.337 296.645 336.91C296.75 336.483 296.408 336.399 296.512 335.972C296.617 335.545 295.925 335.375 296.03 334.948C296.135 334.521 295.496 334.364 295.601 333.937C295.706 333.51 297.328 333.91 297.433 333.483C297.538 333.056 296.284 332.747 296.389 332.32C296.494 331.893 296.627 331.926 296.732 331.499C296.836 331.072 297.912 331.338 298.017 330.911C298.122 330.484 298.015 330.458 298.12 330.031C298.224 329.604 296.812 329.256 296.917 328.829C296.982 328.544 297.048 328.258 297.113 327.973C297.235 327.551 297.236 327.549 297.357 327.127C297.462 326.7 298.148 326.869 298.252 326.442C298.357 326.016 298.074 325.946 298.179 325.519C298.284 325.092 298.963 325.26 299.067 324.833C299.172 324.406 299.501 324.487 299.606 324.061C299.71 323.634 298.951 323.447 299.056 323.02C299.161 322.593 299.658 322.716 299.763 322.289C299.867 321.862 299.088 321.67 299.192 321.243C299.297 320.816 299.034 320.751 299.139 320.324C299.244 319.897 299.685 320.006 299.789 319.579C299.894 319.153 299.453 319.044 299.558 318.617C299.663 318.19 300.075 318.292 300.179 317.865C300.284 317.438 300.982 317.61 301.087 317.183C301.191 316.756 300.212 316.515 300.317 316.088C300.422 315.661 301.075 315.822 301.18 315.395C301.284 314.968 300.347 314.737 300.452 314.31C300.556 313.883 300.873 313.961 300.978 313.534C301.082 313.107 301.527 313.217 301.632 312.79C301.736 312.363 301.354 312.269 301.458 311.842C301.533 311.558 301.607 311.275 301.681 310.991C301.786 310.564 302.927 310.846 303.032 310.419C303.122 310.051 301.918 309.362 302.526 309.122C302.746 309.034 305.369 309.167 301.577 308.158C300.885 307.984 300.116 307.79 299.371 307.603C299.101 307.54 298.805 307.471 298.607 307.425C298.388 307.381 298.352 307.402 298.352 307.402C297.881 307.907 296.617 308.22 296.474 308.804C296.369 309.231 296.679 309.308 296.574 309.735C296.469 310.162 296.648 310.206 296.543 310.634C296.439 311.061 296.206 311.003 296.101 311.431C296.033 311.716 295.964 312.001 295.896 312.286C295.791 312.713 295.585 312.662 295.48 313.089C295.376 313.516 296.184 313.716 296.079 314.143C295.975 314.57 296.163 314.616 296.059 315.044C295.954 315.471 294.544 315.123 294.439 315.55C294.334 315.977 294.964 316.133 294.86 316.56C294.755 316.987 294.614 316.952 294.509 317.379C294.404 317.806 293.937 317.691 293.833 318.118C293.728 318.545 295.038 318.869 294.933 319.296C294.828 319.723 294.11 319.545 294.005 319.972C293.9 320.399 293.959 320.414 293.854 320.841C293.749 321.268 294.203 321.38 294.098 321.807C293.993 322.234 293.001 321.989 292.896 322.416C292.791 322.843 292.495 322.77 292.39 323.197C292.285 323.624 293.459 323.913 293.354 324.34C293.249 324.767 292.545 324.593 292.44 325.02C292.336 325.447 292.056 325.378 291.951 325.805C291.846 326.233 292.927 326.499 292.823 326.926C292.718 327.353 291.689 327.1 291.585 327.527C291.48 327.954 292.019 328.087 291.914 328.514C291.809 328.941 292.66 329.15 292.555 329.577C292.45 330.005 292.253 329.956 292.148 330.383C292.044 330.81 291.334 330.635 291.229 331.062C291.125 331.489 290.648 331.372 290.543 331.799C290.438 332.226 290.695 332.289 290.591 332.716C290.486 333.143 290.912 333.248 290.808 333.675C290.703 334.102 289.784 333.876 289.679 334.303C289.575 334.73 290.763 335.023 290.658 335.45C290.582 335.733 290.505 336.016 290.429 336.299C290.324 336.726 289.711 336.575 289.606 337.002C289.515 337.375 288.894 337.367 288.687 338.213C288.476 339.072 288.762 339.07 288.561 339.888C288.359 340.712 288.458 340.69 288.259 341.501C288.082 342.3 288.081 342.304 287.905 343.103C287.704 343.92 288.341 343.555 288.16 344.293C287.977 345.037 287.69 345.246 287.5 346.023C287.309 346.8 287.588 346.557 287.405 347.302C287.315 347.671 287.564 347.571 287.826 347.436C288.324 347.073 288.796 346.712 289.122 346.631C289.735 346.48 287.655 348.882 288.539 348.664C289.399 348.452 289.886 347.781 290.667 347.588C291.472 347.39 292 346.461 292.69 346.291C293.379 346.121 293.004 347.061 293.815 346.861C294.634 346.659 294.924 345.287 295.556 345.132C296.18 344.978 296.173 346.752 297.051 346.535C297.924 346.32 297.673 344.954 298.055 344.86C298.481 344.755 298.649 345.441 299.075 345.337C299.501 345.231 299.279 344.327 299.705 344.222C300.131 344.117 300.514 345.679 300.94 345.574C301.366 345.469 301.064 344.24 301.49 344.135C301.916 344.031 301.866 343.828 302.292 343.723C302.718 343.618 302.978 344.678 303.404 344.573C303.83 344.468 303.91 344.797 304.336 344.692C304.762 344.587 304.529 343.636 304.955 343.531C305.38 343.426 305.577 344.227 306.003 344.122C306.428 344.017 306.245 343.27 306.671 343.165C307.097 343.06 307.13 343.197 307.556 343.092C307.982 342.987 308.173 343.766 308.599 343.661C309.024 343.556 308.772 342.527 309.198 342.422C309.624 342.317 309.734 342.766 310.16 342.661C310.586 342.556 310.382 341.726 310.808 341.621C311.233 341.516 311.529 342.72 311.954 342.615C312.38 342.51 312.044 341.142 312.47 341.037C312.896 340.932 312.937 341.102 313.363 340.997C313.789 340.892 313.722 340.618 314.147 340.513C314.573 340.408 314.857 341.567 315.283 341.462C315.569 341.4 315.855 341.338 316.141 341.277C316.567 341.172 316.371 340.374 316.797 340.27C317.223 340.165 317.187 340.018 317.612 339.913C318.038 339.808 318.375 341.182 318.801 341.077C319.227 340.972 318.837 339.382 319.263 339.277C319.689 339.172 319.791 339.589 320.217 339.484C320.643 339.379 320.946 340.616 321.372 340.511C321.798 340.406 321.57 339.477 321.996 339.372C322.422 339.267 322.587 339.941 323.013 339.836C323.439 339.731 323.283 339.097 323.709 338.992C324.135 338.887 324.18 339.071 324.606 338.966C325.032 338.861 325.072 339.026 325.498 338.921C325.924 338.816 325.647 337.684 326.072 337.579C326.498 337.474 326.608 337.923 327.034 337.818C327.306 337.752 327.91 338.882 327.687 336.836L327.658 336.59C327.629 336.353 327.581 336.037 327.454 335.464C327.306 334.795 327.01 333.604 326.934 333.437Z" fill="black"/>
<path d="M464.071 140.732C462.066 140.029 462.62 141.845 462.184 142.282C461.388 143.079 461.399 143.09 460.604 143.887C459.81 144.683 459.354 144.227 458.559 145.023C457.765 145.82 457.511 145.566 456.717 146.363C455.922 147.16 456.523 147.762 455.728 148.558C454.934 149.355 455.164 149.585 454.369 150.381C453.575 151.178 452.958 150.559 452.164 151.356C451.369 152.152 451.036 151.818 450.241 152.615C449.447 153.411 449.357 153.321 448.562 154.117C447.767 154.914 447.967 155.114 447.172 155.91C446.378 156.707 446.639 156.968 445.844 157.765C445.05 158.561 444.934 158.445 444.139 159.241C443.345 160.037 443.096 159.788 442.302 160.584C441.507 161.381 441.952 161.827 441.158 162.624C440.364 163.42 439.808 162.863 439.013 163.659C438.219 164.455 439.057 165.295 438.263 166.091C437.469 166.887 436.464 165.881 435.67 166.677C434.876 167.473 434.988 167.586 434.194 168.382C433.4 169.178 433.673 169.451 432.878 170.248C432.084 171.044 432.445 171.405 431.651 172.201C430.856 172.997 431.063 173.204 430.268 174C429.474 174.796 428.491 173.811 427.697 174.608C426.903 175.404 427.056 175.558 426.261 176.354C425.467 177.15 426.417 178.102 425.623 178.899C424.828 179.695 424.179 179.044 423.384 179.84C422.59 180.636 422.99 181.037 422.196 181.834C421.401 182.63 421.03 182.257 420.236 183.054C419.441 183.85 420.004 184.414 419.21 185.21C418.415 186.007 418.073 185.664 417.279 186.46C416.485 187.257 415.738 186.508 414.944 187.305C414.15 188.101 414.962 188.915 414.168 189.711C413.374 190.508 412.993 190.126 412.198 190.922C411.404 191.718 412.056 192.372 411.262 193.168C410.467 193.964 410.048 193.543 409.253 194.339C408.459 195.136 407.798 194.472 407.003 195.269C406.209 196.065 407.361 197.22 406.567 198.016C405.773 198.812 405.468 198.506 404.673 199.302C403.879 200.099 404.18 200.4 403.385 201.196C402.591 201.992 401.8 201.198 401.005 201.994C400.211 202.791 401.153 203.735 400.359 204.531C399.565 205.328 399.16 204.922 398.366 205.718C397.572 206.514 397.354 206.295 396.56 207.091C395.765 207.887 396.003 208.125 395.209 208.922C394.415 209.718 394.761 210.065 393.967 210.862C393.173 211.658 393.016 211.501 392.222 212.297C391.428 213.093 391.335 212.999 390.541 213.795C389.747 214.592 389.184 214.027 388.389 214.823C387.595 215.619 387.744 215.769 386.95 216.565C386.156 217.361 385.699 216.902 384.905 217.698C384.111 218.494 383.988 218.371 383.194 219.167C382.4 219.963 383.578 221.144 382.784 221.94C381.99 222.736 380.831 221.574 380.037 222.371C379.243 223.167 379.492 223.416 378.697 224.212C377.903 225.008 378.407 225.513 377.613 226.309C376.819 227.105 377.284 227.571 376.49 228.367C375.697 229.163 374.515 227.979 373.721 228.775C372.927 229.571 373.839 230.485 373.045 231.281C372.251 232.078 372.155 231.981 371.36 232.777C370.566 233.573 369.783 232.787 368.989 233.583C368.195 234.379 368.273 234.457 367.479 235.253C366.685 236.048 367.714 237.079 366.92 237.875C366.126 238.671 366.135 238.681 365.342 239.476C364.547 240.272 364.522 240.247 363.728 241.043C362.934 241.839 362.435 241.339 361.641 242.135C360.847 242.931 361.053 243.138 360.259 243.933C359.465 244.729 358.971 244.233 358.177 245.029C357.383 245.825 357.144 245.585 356.35 246.38C355.556 247.176 356.109 247.73 355.315 248.526C354.521 249.322 354.159 248.959 353.365 249.755C352.571 250.551 353.139 251.12 352.345 251.916C351.551 252.712 351.742 252.904 350.948 253.7C350.154 254.496 349.833 254.174 349.039 254.97C348.246 255.766 348.567 256.087 347.773 256.883C346.979 257.679 346.679 257.379 345.885 258.175C345.091 258.971 344.583 258.461 343.788 259.258C342.994 260.054 343.707 260.768 342.913 261.564C342.119 262.36 341.644 261.884 340.849 262.68C340.055 263.476 340.738 264.16 339.944 264.956C339.15 265.752 338.919 265.521 338.125 266.317C337.331 267.113 337.007 266.789 336.213 267.585C335.419 268.381 335.698 268.661 334.904 269.457C334.11 270.253 334.1 270.243 333.306 271.039C332.512 271.835 331.681 271.002 330.887 271.798C330.202 272.484 330.458 274.118 329.397 274.427C329.012 274.539 326.287 273.615 328.931 276.525C329.412 277.054 329.975 277.615 330.52 278.157C330.717 278.353 330.933 278.567 331.092 278.694C331.267 278.835 331.311 278.823 331.342 278.804C332.669 277.952 334.58 277.67 335.666 276.581C336.461 275.784 336.235 275.558 337.029 274.761C337.824 273.965 337.694 273.834 338.489 273.037C339.283 272.241 339.453 272.41 340.247 271.614C340.777 271.083 341.305 270.551 341.833 270.018C342.627 269.222 342.777 269.372 343.571 268.576C344.366 267.779 343.777 267.189 344.572 266.392C345.366 265.596 345.229 265.458 346.023 264.662C346.818 263.865 347.844 264.894 348.639 264.098C349.434 263.301 348.975 262.841 349.769 262.045C350.564 261.248 350.666 261.351 351.461 260.555C352.255 259.759 352.595 260.099 353.39 259.303C354.184 258.507 353.23 257.55 354.025 256.754C354.819 255.957 355.342 256.482 356.137 255.686C356.931 254.89 356.888 254.847 357.682 254.05C358.476 253.254 358.146 252.923 358.94 252.127C359.735 251.331 360.457 252.055 361.252 251.259C362.046 250.463 362.262 250.679 363.056 249.883C363.85 249.087 362.995 248.231 363.789 247.435C364.584 246.638 365.096 247.153 365.891 246.356C366.685 245.56 366.889 245.764 367.683 244.968C368.478 244.171 367.69 243.382 368.485 242.586C369.279 241.789 370.028 242.54 370.822 241.744C371.616 240.948 371.224 240.554 372.018 239.758C372.812 238.961 372.193 238.341 372.988 237.544C373.782 236.748 373.925 236.892 374.72 236.096C375.514 235.299 376.031 235.817 376.825 235.021C377.619 234.225 377.967 234.573 378.761 233.777C379.555 232.98 379.368 232.792 380.162 231.996C380.956 231.2 380.646 230.888 381.44 230.092C382.234 229.296 382.903 229.967 383.698 229.17C384.492 228.374 383.627 227.507 384.421 226.711C385.215 225.915 385.229 225.929 386.024 225.133C386.818 224.336 387.264 224.784 388.059 223.988C388.853 223.191 389.28 223.62 390.074 222.824C390.868 222.027 390.673 221.831 391.467 221.035C392.261 220.239 392.197 220.174 392.991 219.378C393.785 218.582 393.758 218.555 394.552 217.759C395.347 216.963 394.971 216.587 395.766 215.791C396.56 214.994 396.721 215.156 397.515 214.36C398.31 213.564 398.159 213.413 398.953 212.617C399.747 211.821 399.104 211.176 399.898 210.38C400.692 209.584 401.986 210.88 402.78 210.084C403.574 209.288 403.197 208.91 403.991 208.114C404.785 207.318 404.238 206.77 405.032 205.974C405.827 205.178 406.407 205.759 407.201 204.963C407.995 204.167 407.105 203.274 407.899 202.478C408.693 201.682 409.907 202.899 410.701 202.103C411.495 201.307 410.517 200.327 411.31 199.531C412.104 198.735 412.604 199.235 413.398 198.439C414.192 197.643 413.535 196.984 414.329 196.188C415.123 195.392 416.257 196.529 417.052 195.733C417.846 194.937 416.953 194.043 417.747 193.247C418.541 192.451 418.394 192.303 419.188 191.507C419.982 190.711 420.752 191.483 421.546 190.688C422.34 189.891 422.579 190.131 423.373 189.335C424.167 188.539 423.477 187.847 424.271 187.05C425.065 186.255 425.646 186.837 426.44 186.042C427.234 185.246 426.692 184.702 427.485 183.906C428.279 183.11 428.378 183.21 429.172 182.414C429.966 181.618 430.533 182.186 431.326 181.39C432.12 180.594 431.373 179.844 432.167 179.048C432.961 178.252 433.287 178.579 434.081 177.783C434.875 176.987 434.272 176.383 435.066 175.587C435.86 174.791 436.734 175.668 437.528 174.872C438.322 174.076 437.328 173.08 438.122 172.285C438.916 171.489 439.039 171.613 439.833 170.817C440.627 170.021 440.428 169.822 441.222 169.026C442.016 168.23 442.857 169.073 443.651 168.277C444.445 167.481 444.464 167.499 445.258 166.703C446.051 165.907 445.473 165.327 446.266 164.531C447.06 163.735 446.954 163.629 447.747 162.833C448.542 162.037 449.54 163.038 450.334 162.242C451.128 161.445 449.973 160.287 450.767 159.491C451.561 158.695 451.864 158.999 452.658 158.203C453.452 157.407 454.351 158.308 455.145 157.512C455.939 156.716 455.264 156.039 456.058 155.243C456.852 154.447 457.342 154.937 458.136 154.141C458.93 153.345 458.47 152.884 459.264 152.088C460.058 151.292 460.192 151.426 460.986 150.63C461.78 149.834 461.9 149.954 462.694 149.158C463.488 148.362 462.666 147.538 463.46 146.742C464.254 145.945 464.58 146.272 465.374 145.476C465.881 144.968 467.332 145.271 466.384 143.337C466.348 143.264 466.308 143.187 466.266 143.107C466.148 142.889 465.976 142.612 465.586 142.173C465.131 141.661 464.259 140.798 464.071 140.732Z" fill="black"/>
<path d="M487.744 171.879C485.739 171.176 486.292 172.991 485.856 173.428C485.061 174.226 485.072 174.237 484.277 175.034C483.482 175.83 483.026 175.374 482.232 176.17C481.437 176.967 481.184 176.713 480.389 177.51C479.594 178.307 480.195 178.909 479.4 179.705C478.606 180.501 478.836 180.732 478.042 181.528C477.247 182.324 476.63 181.706 475.836 182.502C475.042 183.299 474.708 182.965 473.914 183.762C473.119 184.558 473.029 184.467 472.234 185.264C471.44 186.06 471.64 186.26 470.845 187.057C470.05 187.854 470.311 188.115 469.517 188.911C468.722 189.708 468.606 189.591 467.812 190.388C467.017 191.184 466.768 190.935 465.974 191.731C465.18 192.527 465.625 192.974 464.83 193.77C464.036 194.567 463.48 194.009 462.686 194.806C461.892 195.602 462.729 196.442 461.935 197.238C461.141 198.034 460.137 197.027 459.342 197.824C458.548 198.62 458.66 198.732 457.866 199.528C457.072 200.325 457.345 200.598 456.551 201.394C455.757 202.19 456.117 202.551 455.323 203.347C454.529 204.143 454.735 204.35 453.941 205.146C453.146 205.943 452.164 204.958 451.369 205.754C450.575 206.551 450.728 206.705 449.934 207.501C449.14 208.297 450.089 209.249 449.295 210.045C448.501 210.842 447.851 210.19 447.056 210.987C446.262 211.783 446.662 212.184 445.868 212.98C445.074 213.777 444.702 213.404 443.908 214.2C443.114 214.997 443.676 215.561 442.882 216.357C442.088 217.153 441.746 216.811 440.952 217.607C440.157 218.403 439.411 217.655 438.616 218.451C437.822 219.247 438.634 220.062 437.84 220.858C437.046 221.654 436.665 221.273 435.871 222.069C435.077 222.865 435.728 223.518 434.934 224.315C434.14 225.111 433.72 224.69 432.926 225.486C432.132 226.282 431.47 225.619 430.676 226.415C429.882 227.212 431.034 228.367 430.24 229.163C429.445 229.959 429.14 229.653 428.346 230.449C427.552 231.245 427.852 231.546 427.058 232.343C426.264 233.139 425.472 232.345 424.678 233.141C423.884 233.937 424.826 234.882 424.032 235.678C423.237 236.474 422.833 236.068 422.038 236.865C421.244 237.661 421.026 237.442 420.232 238.238C419.438 239.034 419.676 239.272 418.882 240.068C418.087 240.865 418.434 241.212 417.639 242.008C416.845 242.804 416.689 242.647 415.895 243.444C415.101 244.239 415.008 244.146 414.214 244.942C413.419 245.738 412.856 245.173 412.062 245.969C411.268 246.766 411.417 246.915 410.623 247.711C409.828 248.508 409.371 248.049 408.577 248.845C407.783 249.641 407.66 249.517 406.866 250.313C406.072 251.109 407.251 252.291 406.457 253.087C405.662 253.883 404.503 252.721 403.709 253.517C402.915 254.313 403.164 254.563 402.37 255.359C401.576 256.155 402.08 256.66 401.286 257.456C400.492 258.252 400.957 258.718 400.163 259.514C399.369 260.31 398.187 259.125 397.393 259.921C396.599 260.717 397.512 261.632 396.718 262.428C395.924 263.224 395.827 263.127 395.033 263.923C394.239 264.719 393.455 263.934 392.661 264.73C391.868 265.526 391.945 265.604 391.151 266.399C390.357 267.195 391.386 268.226 390.592 269.022C389.798 269.818 389.808 269.827 389.014 270.623C388.22 271.419 388.195 271.394 387.401 272.19C386.606 272.986 386.107 272.486 385.313 273.282C384.519 274.078 384.725 274.284 383.931 275.08C383.137 275.876 382.643 275.38 381.849 276.176C381.056 276.972 380.816 276.732 380.022 277.527C379.229 278.323 379.781 278.877 378.988 279.673C378.194 280.469 377.832 280.105 377.038 280.901C376.244 281.697 376.812 282.267 376.018 283.063C375.224 283.859 375.415 284.05 374.62 284.847C373.827 285.642 373.506 285.321 372.712 286.117C371.918 286.912 372.239 287.234 371.445 288.03C370.651 288.826 370.351 288.525 369.557 289.321C368.763 290.117 368.255 289.608 367.461 290.404C366.667 291.2 367.38 291.915 366.586 292.711C365.792 293.507 365.316 293.03 364.522 293.826C363.728 294.622 364.41 295.307 363.616 296.103C362.822 296.899 362.592 296.668 361.797 297.464C361.003 298.26 360.68 297.936 359.886 298.732C359.092 299.528 359.37 299.807 358.576 300.603C357.782 301.399 357.772 301.389 356.978 302.185C356.184 302.982 355.354 302.149 354.56 302.944C353.875 303.631 354.131 305.264 353.069 305.573C352.684 305.685 349.959 304.761 352.604 307.672C353.084 308.201 353.647 308.762 354.192 309.303C354.389 309.499 354.606 309.713 354.765 309.841C354.94 309.982 354.984 309.97 355.015 309.95C356.341 309.098 358.252 308.816 359.338 307.727C360.133 306.931 359.907 306.705 360.702 305.908C361.497 305.111 361.366 304.98 362.161 304.184C362.956 303.387 363.125 303.557 363.919 302.76C364.449 302.229 364.978 301.698 365.506 301.165C366.3 300.369 366.45 300.519 367.244 299.722C368.038 298.926 367.45 298.336 368.244 297.539C369.039 296.743 368.901 296.605 369.696 295.808C370.49 295.012 371.517 296.041 372.311 295.244C373.106 294.448 372.647 293.988 373.442 293.191C374.236 292.395 374.339 292.498 375.133 291.702C375.928 290.905 376.267 291.246 377.062 290.45C377.856 289.653 376.902 288.697 377.697 287.9C378.491 287.104 379.015 287.629 379.809 286.832C380.603 286.036 380.56 285.993 381.354 285.197C382.149 284.401 381.818 284.07 382.613 283.273C383.407 282.477 384.13 283.202 384.924 282.406C385.718 281.61 385.934 281.826 386.728 281.03C387.522 280.234 386.668 279.377 387.462 278.581C388.256 277.785 388.769 278.299 389.563 277.503C390.358 276.707 390.561 276.911 391.356 276.114C392.15 275.318 391.362 274.529 392.157 273.732C392.951 272.936 393.7 273.687 394.494 272.891C395.289 272.094 394.896 271.701 395.691 270.904C396.485 270.108 395.866 269.487 396.66 268.691C397.454 267.895 397.598 268.039 398.392 267.243C399.187 266.446 399.703 266.964 400.497 266.168C401.291 265.371 401.639 265.72 402.433 264.923C403.227 264.127 403.04 263.939 403.835 263.143C404.629 262.347 404.318 262.035 405.112 261.239C405.907 260.443 406.576 261.113 407.37 260.317C408.164 259.521 407.299 258.654 408.093 257.857C408.888 257.061 408.902 257.075 409.696 256.279C410.49 255.483 410.937 255.93 411.731 255.134C412.525 254.338 412.952 254.767 413.746 253.97C414.541 253.174 414.345 252.978 415.139 252.182C415.933 251.385 415.869 251.321 416.663 250.525C417.457 249.729 417.431 249.702 418.225 248.906C419.019 248.11 418.644 247.733 419.438 246.937C420.232 246.141 420.394 246.303 421.188 245.507C421.982 244.711 421.831 244.56 422.625 243.764C423.419 242.968 422.776 242.323 423.57 241.527C424.365 240.73 425.658 242.027 426.452 241.231C427.247 240.435 426.869 240.056 427.663 239.26C428.457 238.464 427.911 237.917 428.705 237.121C429.499 236.325 430.079 236.906 430.873 236.11C431.667 235.314 430.777 234.421 431.571 233.625C432.365 232.829 433.579 234.046 434.373 233.25C435.167 232.454 434.189 231.473 434.983 230.677C435.777 229.881 436.276 230.382 437.07 229.586C437.864 228.789 437.207 228.131 438.002 227.335C438.796 226.539 439.93 227.676 440.724 226.88C441.518 226.084 440.626 225.189 441.42 224.393C442.214 223.598 442.066 223.45 442.86 222.654C443.654 221.858 444.424 222.63 445.218 221.834C446.012 221.038 446.252 221.278 447.046 220.482C447.84 219.686 447.149 218.993 447.943 218.197C448.737 217.401 449.319 217.984 450.113 217.188C450.906 216.392 450.364 215.849 451.158 215.053C451.952 214.257 452.051 214.356 452.844 213.561C453.638 212.765 454.205 213.333 454.999 212.537C455.793 211.741 455.045 210.991 455.839 210.195C456.633 209.399 456.96 209.726 457.754 208.93C458.548 208.134 457.945 207.529 458.738 206.734C459.532 205.938 460.407 206.814 461.201 206.019C461.994 205.223 461.001 204.227 461.794 203.431C462.588 202.636 462.712 202.759 463.505 201.964C464.299 201.168 464.1 200.968 464.894 200.173C465.688 199.377 466.53 200.22 467.324 199.424C468.118 198.628 468.136 198.646 468.93 197.85C469.724 197.054 469.145 196.474 469.939 195.678C470.733 194.882 470.626 194.775 471.42 193.98C472.214 193.184 473.212 194.184 474.006 193.388C474.801 192.592 473.645 191.434 474.439 190.638C475.234 189.842 475.537 190.146 476.331 189.349C477.125 188.553 478.023 189.454 478.817 188.658C479.612 187.862 478.936 187.186 479.731 186.39C480.525 185.593 481.014 186.084 481.808 185.288C482.603 184.492 482.142 184.03 482.936 183.234C483.73 182.438 483.864 182.572 484.658 181.777C485.452 180.98 485.572 181.101 486.366 180.305C487.16 179.509 486.338 178.684 487.132 177.888C487.926 177.092 488.252 177.419 489.047 176.623C489.554 176.115 491.005 176.418 490.056 174.483C490.02 174.41 489.981 174.334 489.938 174.254C489.821 174.036 489.649 173.758 489.259 173.32C488.803 172.807 487.931 171.945 487.744 171.879Z" fill="black"/>
<path d="M289.924 340.793C288.647 340.535 288.221 340.837 287.845 341.38C287.506 341.918 287.254 342.645 286.835 342.914C285.246 343.831 285.232 343.836 283.5 344.611C281.719 345.334 281.461 344.625 279.647 345.219C277.803 345.773 277.692 345.376 275.826 345.834C273.924 346.251 274.147 347.259 272.384 347.464C270.587 347.582 270.574 347.941 268.675 347.855C266.752 347.697 266.877 346.673 264.977 346.391C263.05 346.063 263.158 345.518 261.199 345.124C259.28 344.714 259.101 344.562 257.348 344.143C255.568 343.682 255.459 344.026 253.717 343.415C252.004 342.763 251.815 343.189 250.161 342.373C248.544 341.513 248.613 341.371 247.138 340.367C245.707 339.311 245.943 339.006 244.714 337.836C243.561 336.62 242.986 337.096 241.969 335.68C241.057 334.2 241.87 333.771 241.226 332.308C240.718 330.796 239.374 331.156 239.028 329.382C238.853 327.575 240.419 327.45 240.47 325.911C240.607 324.361 240.419 324.311 240.812 322.833C241.295 321.429 240.886 321.222 241.659 319.965C242.499 318.837 242.101 318.389 243.222 317.517C244.448 316.791 244.35 316.463 245.822 316.065C247.351 315.859 247.391 317.509 248.324 317.676C249.226 317.982 249.296 317.704 250.066 318.382C250.706 319.108 252.092 318.331 252.703 319.816C253.16 321.393 252.087 321.588 252.188 323.113C252.148 324.694 252.828 324.75 252.463 326.463C252.027 328.187 251.426 327.989 250.788 329.586C250.034 331.14 250.854 331.601 249.856 333.165C248.802 334.692 248.345 334.339 247.159 335.724C245.884 337.071 245.033 336.19 243.705 337.366C242.339 338.506 243.141 339.575 241.589 340.661C240.008 341.703 239.682 341.164 238.059 342.069C236.416 342.925 236.859 343.899 235.093 344.67C233.307 345.384 233.072 344.745 231.299 345.307C229.501 345.814 229.245 344.752 227.52 345.083C225.805 345.341 225.998 347.234 224.114 347.327C222.253 347.325 222.268 346.86 220.489 346.625C218.718 346.339 218.599 346.855 216.817 346.328C215.042 345.738 215.503 344.547 213.909 343.802C212.338 343.003 211.557 344.373 209.946 343.334C208.375 342.246 208.761 341.729 207.33 340.529C205.93 339.275 206.163 339.029 204.884 337.675C203.647 336.281 203.328 336.543 202.186 335.027C201.093 333.486 200.598 333.81 199.608 332.151C198.665 330.466 198.885 330.364 198.069 328.612C197.298 326.837 197.428 326.784 196.77 324.965C196.151 323.121 197.027 322.851 196.521 321.012C196.054 319.153 195.808 319.209 195.427 317.307C195.083 315.391 195.819 315.274 195.557 313.364C195.327 311.439 195.524 311.42 195.361 309.483C195.228 307.545 193.291 307.65 193.213 305.644C193.159 303.635 195.06 303.609 195.055 301.635C195.076 299.658 194.649 299.618 194.731 297.726C194.849 295.851 194.018 295.77 194.274 293.909C194.59 292.097 193.826 291.921 194.343 290.142C194.953 288.41 196.745 289.155 197.429 287.925C198.184 286.808 197.03 285.828 198.211 284.778C199.467 283.9 199.523 284.027 200.913 283.559C202.407 283.224 202.527 284.528 203.847 284.586C205.218 284.766 205.269 284.655 206.638 285.139C207.923 285.744 208.805 284.256 210.196 285.311C211.511 286.456 211.516 286.464 212.643 287.843C213.674 289.32 213.644 289.345 214.481 290.976C215.253 292.665 214.474 292.971 215.033 294.685C215.532 296.434 215.807 296.385 216.177 298.216C216.425 300.081 215.629 300.158 215.726 301.978C215.736 303.815 215.387 303.807 215.25 305.62C215.078 307.427 215.994 307.554 215.66 309.414C215.315 311.271 214.685 311.124 214.209 312.918C213.669 314.697 214.524 314.998 213.855 316.8C213.091 318.558 213.404 318.702 212.53 320.432C211.605 322.134 211.186 321.897 210.161 323.507C209.139 325.118 209.543 325.406 208.396 326.967C207.214 328.501 206.798 328.162 205.537 329.628C204.203 331.046 203.622 330.483 202.251 331.82C200.862 333.139 201.656 334.02 200.156 335.295C198.671 336.584 198.137 335.914 196.629 337.125C195.042 338.228 195.718 339.205 194.054 340.273C192.395 341.345 192.201 341.024 190.499 341.987C188.802 342.968 188.523 342.423 186.811 343.321C185.044 344.08 185.249 344.573 183.434 345.26C181.624 345.954 181.619 345.94 179.773 346.498C177.921 347.064 177.574 345.659 175.782 346.105C174.252 346.391 172.829 348.17 171.141 347.662C170.463 347.513 168.521 344.488 168.109 349.077C168.03 349.907 168.007 350.83 167.988 351.723C167.982 352.046 167.976 352.4 168.012 352.635C168.052 352.894 168.128 352.92 168.196 352.928C171.116 353.369 174.32 354.385 177.341 353.808C179.493 353.283 179.431 352.997 181.521 352.362C183.617 351.727 183.546 351.52 185.571 350.747C187.594 349.973 187.673 350.164 189.666 349.298C191.583 348.299 191.623 348.364 193.493 347.286C195.371 346.222 195.495 346.427 197.314 345.254C199.136 344.078 198.547 343.231 200.289 342.012C201.955 340.68 201.862 340.562 203.468 339.17C205.08 337.797 206.201 339.039 207.792 337.529C209.356 335.998 208.801 335.455 210.277 333.876C211.698 332.231 211.852 332.375 213.205 330.622C214.507 328.846 214.997 329.185 216.195 327.296C217.391 325.398 215.996 324.595 217.017 322.7C217.99 320.772 218.744 321.117 219.621 319.084C220.395 317.012 220.35 316.997 220.995 314.88C221.566 312.736 221.087 312.619 221.491 310.465C221.868 308.312 223.041 308.463 223.249 306.195C223.412 303.931 223.722 303.931 223.698 301.625C223.574 299.305 222.155 299.445 221.863 297.245C221.422 295.06 222.31 294.867 221.67 292.629C220.944 290.419 221.275 290.291 220.272 288.104C219.154 285.938 218.037 286.597 216.698 284.697C215.209 282.887 216.114 282.003 214.156 280.305C212.035 278.719 211.666 279.281 209.379 278.233C206.963 277.38 206.707 278.365 204.334 278.06C201.91 277.987 201.856 277.711 199.374 278.291C196.98 279.111 196.531 278.411 194.318 279.987C192.329 281.767 191.863 281.448 190.367 283.676C189.095 285.97 189.425 286.113 188.614 288.402C187.952 290.703 188.478 290.813 188.095 293.036C187.797 295.243 186.711 295.146 186.572 297.382C186.48 299.61 187.923 299.59 187.902 301.691C187.907 303.789 187.887 303.79 187.945 305.896C188.028 308.002 187.3 308.042 187.449 310.175C187.629 312.303 186.936 312.376 187.196 314.532C187.494 316.688 187.818 316.638 188.206 318.78C188.637 320.921 188.749 320.898 189.287 323.024C189.871 325.143 189.924 325.13 190.631 327.222C191.388 329.306 191.974 329.074 192.853 331.082C193.78 333.07 193.569 333.204 194.665 335.152C195.817 337.074 196.045 336.925 197.335 338.735C198.683 340.517 199.516 339.826 200.955 341.438C202.437 343.002 200.983 344.528 202.72 346.072C204.497 347.555 204.889 347.043 206.766 348.334C208.702 349.575 209.164 348.773 211.158 349.777C213.189 350.717 212.864 351.586 215.093 352.317C217.361 352.964 217.687 351.515 219.875 351.851C222.068 352.123 221.988 354.089 224.385 354.081C226.764 353.958 226.597 352.344 228.781 352.012C230.95 351.591 231.146 352.392 233.315 351.776C235.456 351.09 235.085 350.065 237.088 349.258C239.06 348.394 239.849 350.087 241.872 349.035C243.856 347.92 243.101 346.666 244.923 345.461C246.724 344.195 246.582 344.003 248.266 342.593C249.902 341.134 250.786 342.044 252.371 340.353C253.877 338.595 254.201 338.846 255.554 336.881C256.839 334.846 255.842 334.283 256.836 332.197C257.7 330.042 258.631 330.343 259.232 327.956C259.733 325.496 258.845 325.339 258.882 322.904C258.706 320.417 258.907 320.376 258.149 317.838C257.701 316.576 257.538 315.863 257.378 315.111C257.18 314.38 256.974 313.566 255.85 312.44C254.711 311.335 253.803 311.174 252.999 311.054C252.169 310.978 251.406 310.898 250.046 310.556C248.711 310.262 248.027 310.111 247.311 309.953C246.62 309.815 245.898 309.703 244.531 309.956C241.849 310.687 242.215 311.618 240.041 312.925C238.026 314.495 236.983 313.521 235.325 315.746C233.895 318.086 235.423 318.799 234.653 321.008C234.057 323.285 233.871 323.263 233.668 325.607C233.609 327.963 234.027 327.927 234.264 330.184C234.699 332.408 233.366 332.774 234.173 335.114C235.154 337.365 235.135 337.384 236.426 339.462C237.854 341.454 238.605 340.831 240.185 342.492C241.854 344.075 241.989 343.916 243.8 345.248C245.642 346.496 244.837 347.887 246.909 348.983C249.01 350.012 249.757 348.217 251.779 348.984C253.829 349.697 253.7 350.146 255.824 350.693C257.988 351.202 257.539 352.578 259.609 353.021C261.668 353.435 261.881 352.353 263.983 352.71C266.119 353.026 266.011 353.845 268.283 354.03C270.596 354.13 270.599 353.403 272.927 353.246C275.314 352.967 275.359 353.115 277.445 352.661C279.545 352.144 279.594 352.331 281.69 351.701C283.787 351.013 283.332 349.744 285.332 348.931C287.324 348.037 287.566 348.548 289.561 347.395C290.737 346.698 293.254 346.601 292.648 343.784C292.618 343.685 292.587 343.58 292.554 343.469C292.453 343.174 292.281 342.819 291.811 342.327C291.262 341.753 290.165 340.843 289.924 340.793Z" fill="black"/>
</svg>
