<svg width="104" height="104" viewBox="0 0 104 104" fill="none" xmlns="http://www.w3.org/2000/svg">
<path d="M93.917 91.3514C93.917 91.6406 94.0194 91.9393 93.9967 92.2232C93.9732 92.5111 93.9685 92.8132 93.9223 93.0943C93.8755 93.3789 93.6357 93.629 93.566 93.9055C93.4957 94.1846 93.3015 94.4199 93.2097 94.6896C93.1166 94.962 93.1923 95.2965 93.0778 95.5581C92.9626 95.8211 92.8059 96.0678 92.6706 96.3193C92.5353 96.5708 92.3926 96.8244 92.2373 97.0637C92.0819 97.3031 91.8267 97.4717 91.6519 97.6975C91.4771 97.9234 91.5019 98.3293 91.309 98.5397C91.1161 98.7501 90.6004 98.6354 90.3908 98.8296C90.1811 99.0238 90.1999 99.4816 89.9749 99.6583C89.7498 99.8349 89.4799 99.9604 89.2415 100.117C89.0031 100.275 88.7888 100.487 88.5376 100.624C88.2878 100.76 87.8745 100.552 87.6127 100.668C87.3528 100.783 87.2343 101.259 86.9644 101.352C86.6965 101.444 86.4092 101.529 86.1319 101.599C85.8573 101.668 85.5646 101.724 85.282 101.771C85.0027 101.817 84.6792 101.515 84.3932 101.538C84.1119 101.561 83.8414 101.602 83.554 101.602C83.118 101.602 83.118 101.803 82.682 101.803C82.246 101.803 82.2454 101.914 81.8093 101.914C81.3733 101.914 81.3733 101.998 80.9367 101.998C80.5 101.998 80.5007 101.811 80.0647 101.811C79.6287 101.811 79.6287 101.956 79.1927 101.956C78.7567 101.956 78.7567 101.947 78.3213 101.947C77.886 101.947 77.886 101.595 77.45 101.595C77.014 101.595 77.0147 101.602 76.5793 101.602C76.144 101.602 76.144 101.767 75.7087 101.767C75.2733 101.767 75.2733 101.994 74.8373 101.994C74.4013 101.994 74.402 101.705 73.966 101.705C73.53 101.705 73.53 101.699 73.0946 101.699C72.6593 101.699 72.6586 101.975 72.2226 101.975C71.7866 101.975 71.7866 101.943 71.35 101.943C70.9133 101.943 70.9133 101.908 70.4766 101.908C70.0399 101.908 70.0399 101.691 69.6039 101.691C69.1679 101.691 69.1679 101.761 68.7313 101.761C68.2946 101.761 68.2953 101.614 67.8593 101.614C67.4233 101.614 67.4233 101.691 66.9873 101.691C66.5512 101.691 66.5512 101.997 66.1159 101.997C65.6806 101.997 65.6799 101.527 65.2439 101.527C64.8079 101.527 64.8079 101.885 64.3719 101.885C63.9359 101.885 63.9359 101.778 63.4999 101.778C63.0639 101.778 63.0632 101.62 62.6272 101.62C62.1912 101.62 62.1905 101.815 61.7539 101.815C61.3172 101.815 61.3172 101.891 60.8812 101.891C60.4452 101.891 60.4452 101.989 60.0085 101.989C59.5719 101.989 59.5725 101.797 59.1365 101.797C58.7005 101.797 58.7005 101.624 58.2645 101.624C57.8285 101.624 57.8285 101.606 57.3925 101.606C56.9565 101.606 56.9565 101.951 56.5198 101.951C56.0832 101.951 56.0832 101.691 55.6465 101.691C55.2098 101.691 55.2098 101.638 54.7731 101.638C54.3365 101.638 54.3371 101.847 53.9011 101.847C53.4651 101.847 53.4658 101.521 53.0305 101.521C52.5951 101.521 52.5951 101.595 52.1605 101.595C51.7258 101.595 51.7258 101.55 51.2905 101.55C50.8551 101.55 50.8558 101.818 50.4211 101.818C49.9865 101.818 49.9865 101.907 49.5511 101.907C49.1158 101.907 49.1158 101.732 48.6805 101.732C48.2451 101.732 48.2445 101.83 47.8091 101.83C47.3738 101.83 47.3725 101.758 46.9365 101.758C46.5005 101.758 46.4991 101.928 46.0618 101.928C45.6244 101.928 45.6251 101.922 45.1884 101.922C44.7518 101.922 44.7524 101.57 44.3164 101.57C43.8804 101.57 43.8804 101.558 43.4451 101.558C43.0098 101.558 43.0091 101.543 42.5731 101.543C42.1371 101.543 42.1371 101.84 41.7004 101.84C41.2637 101.84 41.2637 101.766 40.8264 101.766C40.389 101.766 40.389 101.98 39.9517 101.98C39.5144 101.98 39.515 101.769 39.0784 101.769C38.6417 101.769 38.6417 101.819 38.2057 101.819C37.7697 101.819 37.769 101.805 37.3323 101.805C36.8957 101.805 36.895 101.76 36.4577 101.76C36.0203 101.76 36.0203 101.951 35.583 101.951C35.1456 101.951 35.1463 101.962 34.709 101.962C34.2716 101.962 34.2716 101.898 33.8349 101.898C33.3983 101.898 33.3976 101.57 32.9596 101.57C32.5216 101.57 32.5222 101.936 32.0849 101.936C31.6476 101.936 31.6469 101.958 31.2095 101.958C30.7722 101.958 30.7722 101.658 30.3349 101.658C29.8975 101.658 29.8975 101.852 29.4595 101.852C29.0215 101.852 29.0228 101.884 28.5862 101.884C28.1495 101.884 28.1495 101.782 27.7128 101.782C27.2761 101.782 27.2748 101.755 26.8368 101.755C26.3988 101.755 26.3994 101.586 25.9621 101.586C25.5248 101.586 25.5241 101.908 25.0861 101.908C24.6481 101.908 24.6474 101.783 24.2094 101.783C23.7714 101.783 23.7714 101.73 23.334 101.73C22.8967 101.73 22.8953 101.997 22.456 101.997C22.0166 101.997 22.0166 101.568 21.5766 101.568C21.1366 101.568 21.1373 101.887 20.6972 101.887C20.3992 101.887 20.0918 101.88 19.8005 101.853C19.5044 101.826 19.1984 101.789 18.9104 101.735C18.6184 101.68 18.319 101.606 18.037 101.525C17.7517 101.444 17.4999 101.24 17.226 101.133C16.95 101.025 16.6225 101.015 16.3593 100.883C16.0948 100.75 15.9052 100.467 15.6547 100.311C15.4043 100.155 15.1819 99.9577 14.9468 99.779C14.7117 99.6003 14.4097 99.4971 14.192 99.2969C13.9744 99.0966 13.9864 98.6739 13.7875 98.4547C13.5886 98.2356 13.2698 98.1324 13.0923 97.8951C12.9148 97.6577 12.805 97.3827 12.6496 97.1298C12.4942 96.877 12.2846 96.6639 12.1527 96.3976C12.0214 96.1326 11.6992 95.9438 11.5927 95.6653C11.4869 95.3895 11.3831 95.0929 11.3021 94.8056C11.2217 94.5218 11.4508 94.159 11.3965 93.865C11.3429 93.5751 11.0282 93.3168 11.0014 93.0188C10.9746 92.7255 11.3188 92.414 11.3188 92.114C11.3188 91.8139 11.0978 91.5132 11.1239 91.2206C11.1507 90.9225 11.2726 90.6393 11.3262 90.3494C11.3804 90.0554 11.5727 89.806 11.6524 89.5221C11.7334 89.2349 11.7997 88.9598 11.9055 88.684C12.0127 88.4062 11.7796 87.9726 11.9109 87.7077C12.0428 87.4413 12.3904 87.2822 12.5451 87.0307C12.6998 86.7792 12.8043 86.4832 12.9825 86.2465C13.1606 86.0099 13.3455 85.7664 13.5444 85.5466C13.7433 85.3268 14.0166 85.1738 14.2342 84.9742C14.4519 84.7746 14.5838 84.4543 14.8189 84.275C15.054 84.0956 15.3601 83.9985 15.6112 83.8414C15.8624 83.6843 16.1135 83.5124 16.3781 83.3796C16.6413 83.2474 16.9065 83.0869 17.1824 82.979C17.4564 82.8725 17.7544 82.7902 18.0397 82.7087C18.3217 82.6278 18.6626 82.7808 18.9546 82.7262C19.2426 82.6723 19.5399 82.7808 19.836 82.7532C20.1273 82.7262 20.3999 82.2387 20.6979 82.2387C20.9055 82.2387 21.0475 82.4093 21.2551 82.4228C21.3482 82.1477 21.6074 81.9879 21.7199 81.7229C21.8331 81.4559 21.8298 81.1376 21.961 80.8814C22.0937 80.6238 22.3361 80.4317 22.4861 80.1862C22.6368 79.9395 22.6335 79.5875 22.8009 79.3535C22.9683 79.1196 23.0614 78.8081 23.2456 78.5869C23.4298 78.3657 23.9515 78.4487 24.1518 78.2417C24.352 78.0347 24.3534 77.6234 24.5684 77.4319C24.7834 77.2404 25.1102 77.1844 25.3386 77.0091C25.567 76.8338 25.8141 76.6976 26.0552 76.5398C26.2963 76.3821 26.4838 76.144 26.7357 76.0045C26.9875 75.8649 27.1757 75.5871 27.4369 75.4664C27.6981 75.3457 27.968 75.2176 28.2379 75.1165C28.5065 75.016 28.8594 75.1603 29.136 75.0801C29.4113 74.9998 29.6423 74.7315 29.925 74.6721C30.2049 74.6135 30.5056 74.631 30.7916 74.5932C31.0749 74.5555 31.3582 74.4092 31.6469 74.3923C31.9322 74.3761 32.2369 74.5568 32.5263 74.5622C32.6642 74.3006 32.6669 73.95 32.8169 73.6965C32.9669 73.4429 33.1022 73.1685 33.265 72.9224C33.4277 72.6763 33.9314 72.6716 34.1055 72.4342C34.2796 72.1969 34.4169 71.9414 34.6025 71.7128C34.788 71.4842 34.8148 71.1208 35.011 70.9016C35.2072 70.6825 35.3251 70.3798 35.5321 70.1707C35.739 69.9617 36.163 69.9793 36.38 69.7803C36.597 69.5814 36.7677 69.3367 36.9941 69.1486C37.2205 68.9604 37.4261 68.7501 37.6618 68.5734C37.8976 68.3968 38.2378 68.3806 38.4816 68.2154C38.7254 68.0502 38.8413 67.6935 39.0931 67.5404C39.3449 67.3874 39.574 67.1918 39.8325 67.0516C40.091 66.9114 40.3509 66.7657 40.6161 66.6383C40.8813 66.5108 41.1251 66.322 41.3963 66.2081C41.6676 66.0941 41.9897 66.1022 42.267 66.0018C42.5423 65.902 42.8075 65.757 43.0888 65.6707C43.3687 65.5851 43.6547 65.4988 43.94 65.4266C44.224 65.3552 44.4892 65.1603 44.7785 65.103C45.0652 65.0457 45.3733 65.0423 45.6646 64.9985C45.9539 64.9553 46.262 65.0045 46.5554 64.9755C46.846 64.9472 47.1381 64.8002 47.4327 64.7854C47.7247 64.7712 48.0288 64.9317 48.3242 64.9317C48.6142 64.9317 48.8914 65.2257 49.1788 65.2392C49.4688 65.2533 49.7862 64.8414 50.0722 64.869C50.3609 64.8967 50.6489 64.9877 50.9328 65.0295C51.2195 65.0713 51.4693 65.3343 51.7513 65.3895C52.0352 65.4455 52.3808 65.2331 52.6601 65.3019C52.9414 65.3713 53.1323 65.7772 53.4082 65.8602C53.6855 65.9438 53.9674 65.9923 54.2387 66.0888C54.5099 66.1852 54.7818 66.2755 55.0484 66.3848C55.315 66.494 55.5125 66.7489 55.7737 66.8716C56.0349 66.9943 56.2881 67.1103 56.5433 67.2458C56.7984 67.3813 57.2579 67.1487 57.5057 67.2957C57.7535 67.4427 57.8593 67.829 58.1004 67.9882C58.3415 68.1473 58.5331 68.3705 58.7661 68.5417C58.9992 68.713 59.3629 68.7103 59.5879 68.8923C59.813 69.0744 59.8451 69.481 60.0614 69.6738C60.2778 69.8666 60.691 69.8417 60.8973 70.0447C61.1036 70.2476 61.1913 70.5686 61.3875 70.781C61.5838 70.9933 61.7519 71.2266 61.9381 71.4485C62.1242 71.6703 62.4223 71.6885 62.5978 71.9198C62.8951 71.8409 63.1175 71.7553 63.4215 71.6959C63.7229 71.6373 64.0786 71.9049 64.386 71.8658C64.6907 71.8267 64.9693 71.4936 65.2794 71.4741C65.5855 71.4545 65.9036 71.6035 66.2144 71.6035C66.5044 71.6035 66.8011 71.464 67.087 71.4808C67.3764 71.4977 67.6282 71.8975 67.9128 71.9312C68.2008 71.9656 68.5009 71.8436 68.7828 71.8948C69.0681 71.9461 69.3407 72.025 69.62 72.0924C69.9013 72.1605 70.2683 71.9238 70.5429 72.0081C70.8195 72.0931 71.064 72.3021 71.3332 72.4032C71.6038 72.5044 71.7873 72.8226 72.0498 72.9393C72.3124 73.0559 72.5722 73.1705 72.8281 73.3034C73.0839 73.4362 73.4221 73.42 73.67 73.567C73.9178 73.714 74.0196 74.0902 74.2587 74.2521C74.4978 74.4139 74.696 74.6128 74.9244 74.7888C75.1528 74.9648 75.6638 74.7921 75.8814 74.9816C76.0991 75.1711 76.2223 75.4792 76.4286 75.6815C76.6349 75.8838 76.8753 76.0618 77.0702 76.2755C77.2651 76.4893 77.4252 76.7414 77.6067 76.9666C77.7882 77.1918 77.9081 77.4683 78.0762 77.7043C78.2443 77.9403 78.3883 78.1918 78.5423 78.4372C78.6964 78.6826 78.7192 79.0002 78.8585 79.2544C78.9978 79.5086 79.4137 79.6192 79.5376 79.8815C79.6615 80.1438 79.8236 80.4007 79.9321 80.6704C80.0399 80.9387 79.9434 81.2826 80.0359 81.5584C80.3158 81.4552 80.5422 81.1666 80.8329 81.0884C81.1202 81.0109 81.4718 81.1754 81.7692 81.1235C82.0618 81.0722 82.3585 81.0486 82.6599 81.023C82.956 80.9974 83.252 80.9886 83.5547 80.9886C83.842 80.9886 84.1247 80.99 84.4066 81.0136C84.6926 81.0372 84.9525 81.1983 85.2317 81.2448C85.5144 81.292 85.8734 80.9785 86.148 81.048C86.4252 81.1188 86.6416 81.4242 86.9101 81.5166C87.1807 81.6103 87.4486 81.706 87.7085 81.8213C87.9703 81.9373 88.1491 82.2057 88.399 82.3419C88.6488 82.4781 88.9294 82.5489 89.1672 82.7053C89.4049 82.8617 89.8088 82.7983 90.0331 82.9743C90.2575 83.1503 90.2106 83.6513 90.4202 83.8455C90.6299 84.0397 91.0572 84.0107 91.2501 84.2217C91.4429 84.4328 91.4503 84.8029 91.6251 85.0295C91.7999 85.256 91.8723 85.5392 92.029 85.7793C92.1857 86.0193 92.4101 86.2013 92.546 86.4542C92.6813 86.7057 92.9472 86.8904 93.0617 87.1534C93.1756 87.415 93.4508 87.6267 93.5439 87.8991C93.6357 88.1688 93.7228 88.4622 93.7931 88.7413C93.8621 89.0177 93.9377 89.3144 93.9846 89.599C94.0308 89.8801 93.6899 90.2152 93.7134 90.5038C93.7361 90.787 93.919 91.0621 93.919 91.352L93.917 91.3514Z" fill="#7A2900"/>
<path d="M52.7579 4.59665C52.4666 4.43887 52.1431 4.4173 51.8343 4.36066C51.5142 4.302 51.1733 3.99184 50.8578 4.03499C50.539 4.07882 50.2839 4.45236 49.9939 4.5926C49.7072 4.7315 49.3435 4.78949 49.1085 5.01604C48.8814 5.2345 48.8412 5.61411 48.6845 5.90674C48.4749 6.29849 48.5144 6.32007 48.3054 6.71181C48.0965 7.10356 48.0489 7.07861 47.8393 7.47103C47.6297 7.86345 47.6658 7.88233 47.4569 8.27408C47.2479 8.66583 47.2539 8.66718 47.0457 9.0569C46.8374 9.44662 46.8856 9.47427 46.6766 9.86467C46.4677 10.2551 46.1408 10.0804 45.9312 10.4729C45.7216 10.8653 45.9151 10.9691 45.7055 11.3609C45.4959 11.7526 45.3264 11.6609 45.1175 12.052C44.9085 12.443 45.1463 12.5739 44.936 12.967C44.7257 13.36 44.433 13.2002 44.2234 13.5927C44.0137 13.9851 44.2367 14.1065 44.0264 14.4989C43.8161 14.8913 43.9809 14.9817 43.7713 15.3747C43.5616 15.7678 43.3734 15.6654 43.1638 16.0584C42.9542 16.4515 43.127 16.5453 42.9167 16.939C42.7064 17.3328 42.4713 17.206 42.2603 17.6005C42.0494 17.9949 42.3514 18.2984 41.9094 18.2471C41.4674 18.1959 41.5477 18.0462 41.4319 17.6146C41.316 17.1831 41.7413 17.0678 41.6254 16.637C41.5096 16.2061 41.2872 16.2654 41.1713 15.8339C41.0555 15.4024 41.1492 15.3768 41.0334 14.9452C40.9175 14.5137 40.9664 14.5002 40.8505 14.0687C40.7347 13.6372 40.7702 13.6284 40.655 13.1976C40.5398 12.7667 40.2337 12.8496 40.1185 12.4188C40.0033 11.9879 40.2759 11.9124 40.16 11.4802C40.0442 11.048 40.0388 11.05 39.9229 10.6185C39.8071 10.187 39.7267 10.2085 39.6108 9.77634C39.495 9.34414 39.5854 9.31919 39.4695 8.88699C39.3536 8.45478 39.2324 8.48782 39.1166 8.05629C39.0007 7.62477 39.1949 7.57082 39.079 7.13727C38.9632 6.70372 38.8487 6.73474 38.7321 6.30119C38.6156 5.86764 38.5004 5.89865 38.3839 5.4651C38.2975 5.14348 38.1535 4.86703 37.982 4.60272C37.8045 4.32829 37.5761 4.12601 37.3283 3.92508C37.0779 3.72213 36.8448 3.50771 36.5441 3.39174C36.2467 3.27712 35.9446 3.0209 35.6198 3.00471C35.3064 2.98853 34.9534 3.10855 34.634 3.19553C34.3145 3.28251 33.9944 3.42613 33.7311 3.59874C33.4586 3.77742 33.0982 3.9352 32.8987 4.18467C32.6971 4.43685 32.5403 4.79421 32.4258 5.09628C32.312 5.39565 32.6053 5.78807 32.5892 6.11509C32.5732 6.43065 32.2838 6.77857 32.3696 7.10019C32.4854 7.53172 32.8344 7.43665 32.9502 7.86885C33.0661 8.30105 32.8491 8.35904 32.9643 8.78989C33.0795 9.22075 32.9295 9.26255 33.0453 9.69408C33.1612 10.1256 33.4445 10.0487 33.5597 10.4796C33.6749 10.9104 33.3829 10.9907 33.4987 11.4222C33.6146 11.8537 33.9803 11.7533 34.0955 12.1841C34.2107 12.615 33.9736 12.679 34.0895 13.1099C34.2053 13.5408 34.3547 13.501 34.4705 13.9332C34.5864 14.3654 34.2482 14.4564 34.3641 14.8873C34.4799 15.3181 34.7351 15.25 34.851 15.6815C34.9668 16.1131 34.7404 16.1751 34.8563 16.608C34.9722 17.0408 35.2796 16.9559 35.3955 17.3881C35.5113 17.8203 35.5187 17.8189 35.6346 18.2518C35.7504 18.6847 35.4028 18.7798 35.5194 19.2133C35.6359 19.6469 36.3023 19.7197 35.9473 19.9921C35.5957 20.2618 35.5395 19.8741 35.1637 19.6401C34.788 19.4062 34.8777 19.2585 34.5014 19.0245C34.125 18.7906 34.0607 18.8957 33.6843 18.6618C33.3079 18.4278 33.2121 18.5876 32.8377 18.3543C32.4633 18.121 32.6328 17.8439 32.2577 17.6099C31.8827 17.376 31.8532 17.4205 31.4761 17.1858C31.0991 16.9512 31.1674 16.8426 30.791 16.6086C30.4146 16.3747 30.3791 16.4327 30.0034 16.1987C29.6276 15.9647 29.6196 15.9748 29.2425 15.7395C28.8655 15.5042 28.7771 15.6492 28.4007 15.4145C28.0243 15.1799 28.1026 15.0511 27.7256 14.8165C27.3485 14.5818 27.3947 14.5056 27.0176 14.2703C26.6406 14.035 26.5381 14.2029 26.161 13.9682C25.784 13.7336 25.8 13.7059 25.4223 13.4706C25.0446 13.2353 24.9488 13.389 24.5704 13.153C24.192 12.9171 24.3286 12.6945 23.9502 12.4586C23.6689 12.2832 23.3126 12.3183 23.0079 12.2435C22.6918 12.1653 22.4091 12.2118 22.0917 12.2361C21.7709 12.2603 21.4373 12.1437 21.14 12.2657C20.8453 12.3871 20.7214 12.7438 20.4736 12.9548C20.2338 13.1591 19.848 13.211 19.6739 13.4942C19.4998 13.7774 19.5306 14.1253 19.4556 14.4321C19.3779 14.7497 18.9894 15.0605 19.0135 15.3801C19.0376 15.7031 19.2379 16.047 19.3591 16.347C19.4797 16.6437 19.6712 16.9498 19.8808 17.1993C20.0838 17.4407 20.485 17.4616 20.7662 17.6369C21.1366 17.8682 20.9524 18.1682 21.3228 18.3988C21.6932 18.6294 21.7427 18.5512 22.1138 18.7825C22.4848 19.0137 22.6174 18.798 22.9885 19.0293C23.3595 19.2605 23.3488 19.2781 23.7191 19.5093C24.0895 19.7406 24.06 19.7898 24.4311 20.0211C24.8021 20.2524 24.845 20.1836 25.2167 20.4149C25.5884 20.6461 25.6165 20.5996 25.9876 20.8309C26.3586 21.0622 26.2829 21.1815 26.6526 21.4114C27.0223 21.6413 26.9701 21.7277 27.3405 21.9583C27.7108 22.1888 27.7162 22.1841 28.0879 22.4154C28.4596 22.6467 28.5205 22.5462 28.8916 22.7775C29.2626 23.0088 29.2579 23.0168 29.6283 23.2481C29.9987 23.4794 29.8446 23.7329 30.217 23.9649C30.5894 24.1968 30.791 23.8678 31.1627 24.099C31.5344 24.3303 31.5397 24.3222 31.9121 24.5542C32.2845 24.7861 32.3213 24.7227 32.6917 24.9533C33.0641 25.1853 33.0313 25.2385 33.4036 25.4712C33.776 25.7038 33.6166 25.964 33.9897 26.196C34.3627 26.4279 34.5094 26.1919 34.8838 26.4252C35.2582 26.6585 35.0941 26.9249 35.4678 27.1582C35.7277 27.32 36.0351 27.4973 36.315 27.5728C36.6057 27.6511 36.9593 27.5964 37.2533 27.587C37.5507 27.5769 37.9057 27.6059 38.1876 27.5108C38.4676 27.4164 38.6511 27.0611 38.8962 26.8871C39.1353 26.7179 39.3449 26.4482 39.5331 26.2088C39.9383 26.2702 40.3308 26.1265 40.7514 26.0119L40.7594 26.0409C41.17 25.9297 41.5953 25.9587 41.9101 25.7105C42.1913 25.8218 42.4606 26.0139 42.7506 26.0389C43.048 26.0645 43.3868 26.0261 43.6748 25.9667C43.9648 25.9067 44.2441 25.72 44.506 25.579C44.7645 25.4395 45.0036 25.2379 45.2152 25.0241C45.4195 24.8185 45.6506 24.5953 45.7952 24.3256C46.0015 23.9392 45.9178 23.8941 46.1248 23.507C46.3317 23.12 46.3746 23.1436 46.5815 22.7559C46.7885 22.3682 46.9151 22.4377 47.122 22.0506C47.329 21.6636 46.978 21.4741 47.185 21.0871C47.3919 20.7001 47.7248 20.8808 47.9317 20.4938C48.1387 20.1067 47.7871 19.9159 47.994 19.5282C48.201 19.1405 48.2847 19.1864 48.4916 18.7993C48.6986 18.4123 48.9116 18.5296 49.1172 18.1446C49.3228 17.7596 49.1192 17.6484 49.3255 17.262C49.5317 16.8757 49.8157 17.028 50.0233 16.6403C50.231 16.2526 50.0059 16.1319 50.2129 15.7456C50.4198 15.3592 50.4928 15.3983 50.6998 15.012C50.9067 14.6256 50.9295 14.6358 51.1364 14.2481C51.3434 13.8604 51.1378 13.7491 51.3447 13.3614C51.5517 12.9737 51.5879 12.9926 51.7955 12.6049C52.0031 12.2172 51.9696 12.1983 52.1772 11.8099C52.3848 11.4215 52.7505 11.6204 52.9581 11.2327C53.1658 10.845 53.1209 10.8201 53.3285 10.4317C53.5361 10.0433 53.3754 9.95502 53.5837 9.56529C53.792 9.17557 53.9286 9.24974 54.1369 8.86002C54.2936 8.56671 54.228 8.17968 54.2842 7.86885C54.3425 7.54655 54.2461 7.24583 54.2032 6.92825C54.1597 6.6073 54.2273 6.26478 54.088 5.97282C53.95 5.68424 53.806 5.36666 53.581 5.12999C53.364 4.90142 53.0506 4.75443 52.7592 4.59665H52.7579Z" fill="#3BA36F"/>
<path d="M64.2681 83.4005C64.0183 83.7477 64.0317 83.7228 63.6198 83.8333C63.2079 83.9439 63.2092 83.9487 62.798 84.0592C62.3868 84.1698 62.3801 84.1516 61.9668 84.2629C61.5536 84.3741 61.5837 84.4847 61.1719 84.5953C60.76 84.7058 60.6608 84.3357 60.2476 84.4463C59.8344 84.5568 59.8993 84.8023 59.4861 84.9135C59.0729 85.0248 59.1117 85.1684 58.6985 85.279C58.2853 85.3896 58.1768 84.9823 57.7635 85.0935C57.3503 85.2048 57.43 85.5109 57.0154 85.6228C56.6009 85.7348 56.5714 85.6228 56.1568 85.7341C55.7034 85.8555 55.6451 85.6343 55.1917 85.7557C54.8173 85.8561 54.8722 86.0638 54.4979 86.165C54.1235 86.2661 54.171 86.4468 53.796 86.5479C53.4209 86.6491 53.37 86.461 52.9936 86.5628C52.6172 86.6646 52.6822 86.9066 52.3058 87.0085C51.8437 87.1332 51.8309 87.0846 51.3688 87.2094C50.9067 87.3341 50.8531 87.1318 50.391 87.2559C49.9597 87.3719 49.9536 87.349 49.5223 87.4649C49.091 87.5809 49.0207 88.036 48.6289 87.8216C48.1621 87.5654 48.3764 87.2916 48.1427 86.8109C47.9491 86.4124 48.0609 86.3578 47.8681 85.9593C47.6752 85.5608 47.5828 85.6053 47.3892 85.2068C47.1956 84.8083 47.1032 84.8528 46.909 84.4537C46.7148 84.0545 46.7891 84.0188 46.5955 83.6203C46.402 83.2218 46.2466 83.2973 46.0524 82.8982C45.8582 82.499 46.2051 82.327 46.0109 81.9265C45.8166 81.526 45.6566 81.6049 45.4617 81.2044C45.2648 80.7992 45.4938 80.6859 45.2969 80.2807C45.1 79.8754 45.0692 79.8896 44.8723 79.4837C44.6754 79.0778 44.6674 79.0838 44.4705 78.68C44.2735 78.2761 43.9621 78.4278 43.7645 78.0219C43.567 77.616 43.6199 77.591 43.423 77.1865C43.2261 76.7819 43.3908 76.7003 43.1939 76.2951C42.997 75.8899 42.9153 75.9283 42.7177 75.5224C42.5202 75.1165 42.4492 75.1515 42.2523 74.7463C42.0554 74.3411 41.9924 74.3707 41.7948 73.9648C41.5973 73.5589 41.9281 73.3951 41.7299 72.9885C41.5316 72.5819 41.3602 72.6676 41.1626 72.261C40.965 71.8544 40.8505 71.9104 40.6529 71.5038C40.4553 71.0972 40.6502 70.9994 40.452 70.5915C40.2537 70.1836 40.0843 70.2672 39.8861 69.8592C39.6945 69.4648 39.9845 69.3225 39.793 68.9281C39.6014 68.5336 39.3864 68.6395 39.1949 68.2451C39.0033 67.8506 38.939 67.883 38.7475 67.4892C38.5559 67.0954 38.6444 67.0516 38.4528 66.6572C38.2613 66.2627 38.3262 66.2304 38.1347 65.8359C37.9431 65.4415 37.9592 65.4334 37.7683 65.0396C37.5775 64.6458 37.4957 64.6876 37.3049 64.2952C37.114 63.9028 36.8883 64.0134 36.6974 63.6203C36.5065 63.2272 36.5226 63.2171 36.3311 62.822C36.1395 62.4268 36.4054 62.2974 36.2139 61.9029C36.0223 61.5085 36.1442 61.4492 35.9533 61.0547C35.7624 60.6603 35.7169 60.6812 35.5247 60.2861C35.3325 59.8909 35.3579 59.8788 35.1664 59.4844C34.9748 59.0899 34.8442 59.1533 34.652 58.7582C34.4598 58.3631 34.5455 58.3206 34.3533 57.9248C34.1611 57.529 33.9367 57.6402 33.7445 57.2451C33.5523 56.85 33.561 56.8453 33.3688 56.4495C33.1766 56.0537 33.0533 56.113 32.8611 55.7159C32.6689 55.3188 32.4332 55.2001 32.608 54.7949C32.7781 54.4011 33.0788 54.6836 33.4907 54.573C33.9026 54.4624 33.9387 54.5959 34.3513 54.4847C34.7639 54.3734 34.7464 54.3175 35.157 54.2069C35.5676 54.0963 35.5287 53.9426 35.9413 53.8313C36.3538 53.7201 36.3632 53.7599 36.7744 53.6486C37.1857 53.5374 37.1803 53.5158 37.5915 53.4052C38.0027 53.2946 38.0309 53.3924 38.4434 53.2811C38.856 53.1699 38.9109 53.3769 39.3228 53.2656C39.7347 53.1544 39.6737 52.9224 40.0863 52.8112C40.4989 52.6999 40.5484 52.884 40.9617 52.7727C41.3749 52.6615 41.3615 52.6143 41.7741 52.503C42.1866 52.3918 42.1317 52.1828 42.5449 52.0715C42.9582 51.9603 42.9434 51.8996 43.358 51.7883C43.7726 51.6771 43.867 52.0331 44.2816 51.9212C44.589 51.8375 44.666 51.3089 44.8964 51.1147C45.1342 50.9145 45.2601 50.7365 45.3907 50.4573C45.5206 50.1802 45.9312 49.9725 45.9312 49.657C45.9312 49.4769 45.9526 49.2416 45.905 49.0549C45.8307 48.7764 45.388 48.6786 45.2232 48.4629C45.0525 48.2397 44.9212 48.0462 44.6828 47.9066C44.4443 47.767 44.232 47.5978 43.9548 47.5607C43.6869 47.525 43.4451 47.651 43.1685 47.7259C42.7566 47.8371 42.7271 47.7259 42.3159 47.8371C41.9047 47.9484 41.9053 47.9504 41.4941 48.061C41.0829 48.1716 41.0588 48.0826 40.6469 48.1932C40.235 48.3037 40.306 48.5633 39.8961 48.6732C39.4862 48.7831 39.4675 48.7197 39.0556 48.831C38.6437 48.9423 38.6658 49.0205 38.2552 49.131C37.8447 49.2416 37.8099 49.1108 37.3986 49.2214C36.9874 49.332 36.9841 49.3232 36.5715 49.4345C36.1589 49.5457 36.1415 49.4756 35.7303 49.5868C35.3191 49.6981 35.3506 49.8201 34.9387 49.9314C34.5268 50.0427 34.4819 49.8754 34.0693 49.9867C33.6568 50.0979 33.6307 49.9961 33.2188 50.1074C32.8069 50.2186 32.8765 50.4823 32.464 50.5935C32.0514 50.7048 32.0507 50.7081 31.6375 50.8194C31.2243 50.9307 31.1352 51.2118 30.7287 51.0756C30.4145 50.9704 30.5552 50.6636 30.4092 50.3643C30.2632 50.0649 30.3703 50.0116 30.2217 49.7136C30.0857 49.4554 29.7997 49.2713 29.6758 49.0083C29.5519 48.7454 29.349 48.508 29.2358 48.2403C29.1226 47.9727 29.0844 47.6645 28.9833 47.3921C28.8822 47.1197 28.9103 46.7961 28.8206 46.5196C28.7308 46.2432 28.6471 45.9627 28.5687 45.6829C28.4904 45.403 28.2218 45.1657 28.1555 44.8825C28.0892 44.5993 28.3383 44.2447 28.2841 43.9588C28.2298 43.6729 27.9901 43.418 27.9479 43.1301C27.9057 42.8422 27.7416 42.5617 27.7121 42.2724C27.6827 41.9832 27.9412 41.6656 27.9244 41.375C27.9077 41.0844 27.6646 40.7992 27.6599 40.5086C27.6552 40.218 27.6639 39.9186 27.6719 39.6273C27.68 39.336 27.7074 39.0387 27.7282 38.7487C27.749 38.4588 27.7972 38.1642 27.8313 37.8749C27.8655 37.5856 28.2727 37.3517 28.3196 37.0644C28.3665 36.7772 28.0524 36.4246 28.112 36.1393C28.1716 35.8541 28.5272 35.6397 28.5995 35.3579C28.6719 35.076 28.7516 34.8043 28.8366 34.5258C28.9217 34.2474 29.0489 33.9932 29.1467 33.7187C29.2445 33.4443 29.2378 33.1382 29.3483 32.8685C29.4588 32.5988 29.6638 32.3803 29.787 32.116C29.9102 31.8517 29.8406 31.4977 29.9759 31.2395C30.1112 30.9812 30.152 30.6677 30.2993 30.4155C30.446 30.1654 30.5405 29.8714 30.6992 29.6266C30.8472 29.4001 31.3609 29.4271 31.5176 29.2072C31.6743 28.9874 31.5009 28.5182 31.6663 28.3051C31.8317 28.092 32.3032 28.1305 32.478 27.9255C32.6528 27.7205 32.6147 27.3234 32.7982 27.1265C32.9817 26.9296 33.3011 26.8635 33.4934 26.6761C33.6856 26.4886 33.7023 26.1023 33.9032 25.9236C34.1323 25.7193 34.6018 25.8063 34.8409 25.6168C35.0813 25.426 35.0793 24.9048 35.3298 24.7301C35.5803 24.5555 35.8997 24.4631 36.1603 24.3054C36.4208 24.1476 36.8367 24.2656 37.108 24.1247C37.404 23.9675 37.6672 23.7619 37.9739 23.627C38.2807 23.4922 38.5995 23.4126 38.9156 23.3007C39.2317 23.1888 39.4447 22.7404 39.7689 22.6534C39.7829 22.6467 39.8378 22.7842 39.8512 22.7842C39.8787 22.7775 39.9222 22.8341 39.9497 22.8274C40.2779 22.7404 40.6522 22.9049 40.9838 22.8436C41.3166 22.7815 41.6086 22.4956 41.9435 22.4592C42.2784 22.4228 42.6206 22.4869 42.9582 22.4754C43.1229 22.4687 43.2917 22.5705 43.4571 22.5705C43.717 22.5705 43.9849 22.2435 44.2448 22.2576C44.5046 22.2718 44.7651 22.3507 45.0243 22.3783C45.2835 22.406 45.4978 22.7465 45.755 22.7869C46.0122 22.8274 46.331 22.5111 46.5862 22.5644C46.8989 22.6285 47.1755 22.8698 47.485 22.9521C47.7944 23.0344 48.0683 23.2218 48.3737 23.3209C48.6791 23.42 49.0877 23.2252 49.387 23.3405C49.6864 23.4558 49.8485 23.9048 50.1418 24.0356C50.4352 24.1665 50.8578 24.0181 51.1444 24.1638C51.4003 24.2939 51.6374 24.4705 51.8852 24.6121C52.1343 24.7544 52.4069 24.8684 52.648 25.0214C52.8905 25.1752 52.9092 25.664 53.143 25.8278C53.3767 25.9917 53.6406 26.1016 53.867 26.2762C54.0933 26.4509 54.4537 26.4556 54.672 26.641C54.8903 26.8264 55.1261 26.9977 55.335 27.1925C55.544 27.3874 55.8501 27.4939 56.0503 27.6982C56.2506 27.9025 56.341 28.2222 56.5319 28.4352C56.7227 28.6483 57.0081 28.7892 57.1896 29.011C57.3711 29.2329 57.4387 29.5525 57.6102 29.7817C57.7816 30.011 58.0341 30.189 58.1955 30.4256C58.3569 30.6623 58.4272 30.9651 58.5786 31.2091C58.73 31.4532 58.667 31.8207 58.8077 32.0708C58.9483 32.321 59.1398 32.3163 59.2691 32.5725C58.9095 32.8173 58.9041 32.6392 58.4842 32.7525C58.0642 32.8658 58.1038 33.0148 57.6838 33.1281C57.2639 33.2414 57.219 33.0708 56.7998 33.1834C56.3805 33.296 56.41 33.4106 55.99 33.5232C55.5701 33.6358 55.6244 33.8327 55.2064 33.9446C54.7885 34.0565 54.7343 33.8624 54.3143 33.9756C53.8944 34.0889 53.9795 34.4045 53.5602 34.5177C53.141 34.631 53.1262 34.5751 52.7076 34.6877C52.289 34.8003 52.2047 34.4894 51.7841 34.6027C51.3635 34.716 51.4545 35.0551 51.0346 35.1677C50.6147 35.2803 50.5343 34.981 50.1144 35.0936C49.6945 35.2062 49.7306 35.3451 49.3094 35.4583C48.8881 35.5716 48.8928 35.5844 48.4722 35.6977C48.0516 35.811 47.9886 35.5736 47.5673 35.6869C47.1461 35.8002 47.2131 36.0551 46.7911 36.169C46.3692 36.283 46.3317 36.1414 45.9097 36.2546C45.6003 36.3383 45.3639 36.5999 45.1348 36.7947C44.8971 36.9963 44.7959 37.2809 44.6667 37.5614C44.5381 37.8398 44.5448 38.1008 44.5448 38.4163C44.5448 38.5964 44.4946 38.7548 44.5421 38.9348C44.6165 39.214 44.5682 39.5491 44.733 39.7649C44.9038 39.9887 45.2969 39.9287 45.536 40.0676C45.7751 40.2065 45.9626 40.2544 46.2413 40.2915C46.5092 40.3272 46.7516 40.5207 47.0289 40.4459C47.4615 40.3292 47.491 40.4405 47.923 40.3238C48.355 40.2072 48.3416 40.1539 48.7749 40.0373C49.2082 39.9206 49.1613 39.7473 49.594 39.6307C50.0266 39.514 50.0628 39.6482 50.4955 39.5316C50.9281 39.4149 50.9074 39.3381 51.3407 39.2214C51.774 39.1048 51.7666 39.0791 52.1993 38.9618C52.6319 38.8445 52.6962 39.0906 53.1282 38.9739C53.5602 38.8573 53.5756 38.9153 54.0076 38.7993C54.4396 38.6833 54.4295 38.6395 54.8629 38.5222C55.2962 38.4049 55.2359 38.1817 55.6686 38.065C56.1012 37.9484 56.1079 37.9713 56.5412 37.8547C56.9746 37.738 56.9424 37.6146 57.3757 37.498C57.8091 37.3813 57.8117 37.3915 58.2444 37.2748C58.6771 37.1582 58.6884 37.1946 59.1224 37.0772C59.5564 36.9599 59.5383 36.8891 59.973 36.7725C60.4077 36.6558 60.4552 36.5554 60.9046 36.5844C60.9837 36.8797 61.204 37.2937 61.2696 37.5937C61.3353 37.8938 61.3199 38.2141 61.3714 38.5168C61.423 38.8195 61.2576 39.152 61.2951 39.4567C61.3326 39.7615 61.3172 40.0636 61.342 40.3697C61.3667 40.6758 61.6748 40.9597 61.6862 41.2671C61.713 41.7189 61.3788 41.7405 61.4089 42.1922C61.4391 42.644 61.5991 42.6332 61.63 43.0849C61.6608 43.5367 61.5918 43.5407 61.6226 43.9925C61.6534 44.4442 61.5737 44.4496 61.6045 44.9014C61.6353 45.3532 62.0305 45.3262 62.0613 45.7779C62.0921 46.2297 61.8302 46.2479 61.8603 46.6997C61.8905 47.1514 61.8376 47.1541 61.8677 47.6052C61.8979 48.0563 62.2046 48.0354 62.2354 48.4858C62.2662 48.9362 61.9541 48.9591 61.9849 49.4115C62.0157 49.864 61.94 49.868 61.9709 50.3198C62.0017 50.7715 62.299 50.7513 62.3298 51.2037C62.3606 51.6562 62.228 51.6656 62.2588 52.118C62.2897 52.5705 62.3265 52.5678 62.3573 53.0195C62.3881 53.4713 62.285 53.4794 62.3151 53.9325C62.3452 54.3856 62.6714 54.364 62.7022 54.8178C62.733 55.2716 62.9212 55.4469 62.6687 55.8238C62.4323 56.1764 62.1885 56.0436 61.78 56.1535C61.3714 56.2634 61.2589 55.8406 60.8497 55.9505C60.4405 56.0605 60.5322 56.3969 60.125 56.5061C59.7178 56.6154 59.6817 56.4873 59.2725 56.5972C58.8632 56.7071 58.8385 56.61 58.4306 56.7206C58.0227 56.8311 58.0683 57.0024 57.6604 57.1123C57.2525 57.2222 57.2257 57.1278 56.8165 57.2384C56.4073 57.349 56.3952 57.3004 55.986 57.411C55.5768 57.5216 55.6585 57.8277 55.2486 57.9383C54.8388 58.0489 54.7946 57.8823 54.3847 57.9929C53.9748 58.1035 53.9768 58.1075 53.5676 58.2174C53.1584 58.3273 53.1738 58.3873 52.7639 58.4972C52.354 58.6071 52.3118 58.4521 51.9006 58.5626C51.4894 58.6732 51.4887 58.6705 51.0781 58.7811C50.7687 58.8647 50.5424 59.1 50.3126 59.2929C50.0742 59.4938 49.6549 59.6084 49.5243 59.8882C49.3951 60.166 49.746 60.5632 49.746 60.8794C49.746 61.0594 49.4038 61.2833 49.452 61.4701C49.5263 61.7499 49.9724 61.8247 50.1365 62.0405C50.3066 62.2643 50.3079 62.6419 50.5464 62.7808C50.7848 62.9197 51.0976 62.8307 51.3755 62.8678C51.6434 62.9035 51.8437 62.7822 52.1209 62.7067C52.5301 62.5961 52.6346 62.9878 53.0438 62.8773C53.4531 62.7667 53.4685 62.8314 53.8763 62.7215C54.2842 62.6116 54.1791 62.2091 54.5883 62.0992C54.9975 61.9892 55.0846 62.3176 55.4931 62.2077C55.9016 62.0978 55.8628 61.9501 56.2713 61.8402C56.6799 61.7303 56.7274 61.9023 57.1373 61.7917C57.5472 61.6811 57.4668 61.3817 57.876 61.2712C58.2853 61.1606 58.3214 61.2948 58.7313 61.1842C59.1412 61.0736 59.1974 61.2826 59.6073 61.172C60.0172 61.0615 59.965 60.8659 60.3749 60.7553C60.7847 60.6448 60.7566 60.5389 61.1672 60.4283C61.5777 60.3177 61.5637 60.2618 61.9749 60.1505C62.3861 60.0393 62.5971 59.6684 62.9427 59.9186C63.2903 60.1708 62.7658 60.5059 62.7946 60.936C62.8234 61.3662 63.086 61.3487 63.1154 61.7795C63.1449 62.2104 63.1141 62.2104 63.1429 62.6392C63.1717 63.0681 63.0666 63.0768 63.0954 63.5077C63.1242 63.9385 63.0806 63.9406 63.1094 64.3701C63.1382 64.7996 63.0391 64.8063 63.0679 65.2365C63.0967 65.6667 63.2206 65.6593 63.2494 66.0908C63.2782 66.5223 63.4108 66.5122 63.4396 66.9431C63.4684 67.3739 63.1302 67.3975 63.159 67.8284C63.1878 68.2592 63.524 68.237 63.5535 68.6685C63.5829 69.1 63.3706 69.1142 63.4001 69.545C63.4296 69.9759 63.4851 69.9732 63.5139 70.4054C63.5427 70.8376 63.4758 70.843 63.5046 71.2752C63.5334 71.7074 63.5736 71.7054 63.603 72.1376C63.6332 72.5819 63.4684 72.5934 63.4985 73.0377C63.5287 73.4821 63.5039 73.4834 63.534 73.9271C63.5642 74.3707 63.8997 74.3485 63.9299 74.7935C63.96 75.2385 63.7751 75.252 63.8053 75.6977C63.8354 76.1434 63.9332 76.1366 63.9633 76.5823C63.9948 77.0496 63.7798 77.0637 63.8106 77.5303C63.8414 77.9969 63.9305 77.9915 63.9613 78.4581C63.9895 78.8789 64.2808 78.8586 64.3096 79.2794C64.3384 79.7001 63.9453 79.7278 63.9741 80.1485C64.0029 80.5692 64.3049 80.5483 64.3337 80.9691C64.3625 81.3898 64.0363 81.4127 64.0651 81.8342C64.0939 82.2556 64.402 82.2252 64.4737 82.6426C64.5393 83.0242 64.5145 83.0573 64.2681 83.4005Z" fill="#FF8547"/>
<path d="M75.5044 88.4251C75.5044 88.7191 75.126 88.9928 75.1012 89.2807C75.0757 89.5734 75.4702 89.9206 75.4206 90.2051C75.3704 90.4937 75.2807 90.7924 75.2063 91.0716C75.1313 91.3541 74.9974 91.6346 74.8989 91.907C74.7998 92.1814 74.4823 92.3702 74.3604 92.6325C74.2379 92.8968 74.1213 93.1604 73.9767 93.4113C73.832 93.6621 73.7764 93.9763 73.6103 94.2143C73.4442 94.4523 73.0511 94.511 72.8656 94.7335C72.6801 94.956 72.597 95.2614 72.3927 95.4671C72.1885 95.6727 71.8998 95.7732 71.6781 95.96C71.4564 96.1467 71.2542 96.3376 71.0171 96.5048C70.78 96.672 70.5396 96.8082 70.2891 96.9538C70.0386 97.0995 69.9482 97.5566 69.6856 97.6807C69.4244 97.8034 69.1117 97.8398 68.8391 97.9403C68.5685 98.0394 68.2035 97.8304 67.9222 97.9059C67.6449 97.9807 67.4427 98.4096 67.1567 98.4601C66.874 98.51 66.5686 98.5161 66.278 98.5417C65.9927 98.5667 65.6906 98.3617 65.3986 98.3617C65.0905 98.3617 64.7757 98.5195 64.475 98.4918C64.169 98.4635 63.8548 98.4318 63.5575 98.3759C63.2554 98.3199 62.9192 98.3509 62.6279 98.268C62.3332 98.1837 62.0506 98.0104 61.7679 97.9005C61.4826 97.7893 61.2127 97.6153 60.9408 97.4798C60.6669 97.3429 60.5423 96.9451 60.2831 96.7846C60.0239 96.6241 59.6442 96.6484 59.401 96.4643C59.1579 96.2803 59.0481 95.9377 58.8224 95.7314C58.5967 95.5251 58.1058 95.5804 57.8995 95.3545C57.6932 95.1286 57.6698 94.6822 57.4849 94.4382C57.3831 94.7092 57.1072 94.9405 56.9833 95.1994C56.8587 95.4604 57.0288 95.8777 56.8828 96.1252C56.7368 96.3726 56.489 96.5668 56.3222 96.8008C56.1555 97.0348 55.84 97.15 55.6545 97.3692C55.469 97.5883 55.2868 97.7987 55.0825 98.001C54.8783 98.2033 54.7236 98.4514 54.5025 98.6355C54.2815 98.8195 54.0652 99.005 53.8294 99.1695C53.5937 99.334 53.2796 99.3569 53.0304 99.4999C52.7813 99.6428 52.5221 99.7278 52.2616 99.8491C52.0024 99.9698 51.8222 100.261 51.5517 100.36C51.2838 100.457 51.0219 100.584 50.7433 100.658C50.468 100.732 50.1713 100.711 49.888 100.761C49.6081 100.81 49.3127 100.668 49.0247 100.693C48.7414 100.717 48.4748 101.054 48.1855 101.054C47.8935 101.054 47.5901 101.113 47.3041 101.089C47.0135 101.064 46.7302 100.922 46.4475 100.872C46.1609 100.821 45.9298 100.543 45.6519 100.468C45.3713 100.393 45.0705 100.413 44.8 100.314C44.5274 100.215 44.165 100.317 43.9038 100.194C43.6413 100.071 43.5422 99.6286 43.2924 99.4837C43.0426 99.3387 42.7157 99.3225 42.4793 99.1553C42.2429 98.9881 41.896 98.9497 41.6749 98.7629C41.4539 98.5761 41.2563 98.3394 41.0521 98.1338C40.8478 97.9281 40.8512 97.5283 40.665 97.3051C40.4788 97.0819 40.3067 96.8621 40.1406 96.6235C39.9745 96.3848 39.7508 96.1919 39.6061 95.9397C39.4614 95.6876 39.217 95.486 39.0944 95.2217C38.9725 94.9587 39.0897 94.598 38.9906 94.3235C38.8922 94.0511 38.6082 93.8408 38.5332 93.5576C38.4588 93.2778 38.6142 92.9507 38.564 92.6622C38.5144 92.3776 38.2331 92.1248 38.2083 91.8321C38.1836 91.5449 38.0228 91.2469 38.0228 90.9529C38.0228 90.6589 38.2981 90.371 38.3229 90.0838C38.3477 89.7911 38.4193 89.512 38.4689 89.2275C38.5191 88.9389 38.6798 88.6874 38.7542 88.4082C38.8292 88.1257 38.9531 87.8776 39.0516 87.6052C39.1507 87.3308 39.1085 87.0112 39.2304 86.7482C39.3529 86.4839 39.4447 86.2074 39.5894 85.9559C39.734 85.7044 39.9879 85.5285 40.154 85.2904C40.32 85.0524 40.3053 84.6748 40.4915 84.4523C40.6777 84.2298 41.0782 84.2082 41.2825 84.0019C41.4867 83.7956 41.6207 83.5279 41.8424 83.3405C42.0641 83.153 42.1451 82.7741 42.3822 82.6069C42.6193 82.4396 43.0452 82.5705 43.2957 82.4241C43.5462 82.2778 43.798 82.1693 44.0606 82.0459C44.3218 81.9232 44.4396 81.4451 44.7122 81.3453C44.9828 81.2462 45.2969 81.23 45.5782 81.1545C45.8562 81.0797 46.1816 81.1977 46.4683 81.1471C46.7509 81.0972 47.0376 81.1053 47.3282 81.0803C47.6136 81.0554 47.8948 81.1464 48.1869 81.1464C48.4949 81.1464 48.8017 80.9374 49.1031 80.965C49.4091 80.9934 49.6697 81.2752 49.967 81.3305C50.2684 81.3865 50.6207 81.1848 50.912 81.2678C51.2067 81.3521 51.5014 81.4498 51.7841 81.5604C52.0694 81.6717 52.2622 81.9812 52.5342 82.1174C52.8081 82.2542 53.1423 82.2664 53.4008 82.4275C53.6593 82.5887 53.9212 82.7505 54.1643 82.9346C54.4074 83.1186 54.5722 83.3964 54.7979 83.6021C55.0236 83.8077 55.2915 83.9662 55.4971 84.1921C55.7027 84.4179 55.9184 84.7868 56.1026 85.0315C56.2044 84.7605 56.3651 84.3849 56.489 84.1253C56.6136 83.8644 56.4843 83.4591 56.6296 83.211C56.775 82.9629 57.284 82.948 57.4501 82.7134C57.6162 82.4788 57.6624 82.1585 57.8479 81.9393C58.0334 81.7202 58.1955 81.4761 58.3998 81.2739C58.6041 81.0716 58.9175 80.9967 59.1385 80.8127C59.3595 80.6286 59.5243 80.3818 59.76 80.2173C59.9958 80.0528 60.1411 79.7352 60.3909 79.5922C60.6407 79.4493 61.0607 79.6482 61.3212 79.5268C61.5804 79.4061 61.8202 79.2807 62.0907 79.1823C62.3593 79.0852 62.587 78.889 62.8656 78.8148C63.1409 78.7413 63.4108 78.6577 63.6948 78.6078C63.9754 78.5586 64.246 78.4109 64.534 78.386C64.8173 78.3617 65.1093 78.4797 65.3986 78.4797C65.6906 78.4797 65.9806 78.4143 66.2666 78.4392C66.5573 78.4649 66.8747 78.332 67.1573 78.3819C67.444 78.4325 67.6556 78.8249 67.9336 78.8998C68.2142 78.9753 68.5002 78.9969 68.7708 79.0967C69.0433 79.1971 69.2972 79.3198 69.5584 79.4426C69.8209 79.5666 70.1973 79.4756 70.4471 79.6212C70.6969 79.7669 70.8061 80.1424 71.0425 80.309C71.279 80.4755 71.4604 80.6987 71.6815 80.8855C71.9025 81.0722 72.1496 81.2159 72.3539 81.4215C72.5582 81.6272 72.6613 81.9083 72.8475 82.1315C73.0337 82.3547 73.4442 82.3965 73.6103 82.6352C73.7764 82.8739 73.9231 83.1321 74.0684 83.385C74.2138 83.6378 74.3102 83.9183 74.4328 84.1826C74.5547 84.4456 74.696 84.7059 74.7951 84.9803C74.8936 85.2527 74.6993 85.6114 74.7743 85.8939C74.8487 86.1737 74.9599 86.4279 75.0101 86.7165C75.0597 87.001 75.4166 87.2465 75.4414 87.5384C75.4662 87.8263 75.5064 88.1291 75.5064 88.4231L75.5044 88.4251Z" fill="#7A2900"/>
</svg>
