<svg width="104" height="104" viewBox="0 0 104 104" fill="none" xmlns="http://www.w3.org/2000/svg">
<g clip-path="url(#clip0_2973_8436)">
<path d="M75.2307 17.9966C75.0314 17.8193 74.9982 17.4537 74.7984 17.283C74.5955 17.1099 74.3461 16.9911 74.1432 16.8246C73.9367 16.6557 73.6312 16.6128 73.4247 16.4512C73.2152 16.2865 72.976 16.1658 72.7665 16.0078C72.5534 15.8479 72.4936 15.4824 72.2804 15.3292C72.0643 15.1735 71.7618 15.141 71.5456 14.992C71.3264 14.8406 71.007 14.8442 70.7884 14.6994C70.5662 14.5522 70.5022 14.165 70.2812 14.025C70.0554 13.8826 69.6949 13.9635 69.4703 13.8278C69.2414 13.6896 69.1116 13.3916 68.8846 13.2607C68.6533 13.1274 68.4589 12.929 68.23 12.8023C67.9957 12.6732 67.7778 12.5139 67.5459 12.3921C67.3092 12.2678 66.9994 12.2877 66.7658 12.1707C66.526 12.0507 66.2561 12.0024 66.0206 11.8902C65.7779 11.775 65.5388 11.664 65.3009 11.5566C65.0563 11.4462 64.8698 11.2122 64.6307 11.1096C64.3837 11.0041 64.1071 10.9799 63.8662 10.8828C63.6168 10.7815 63.4279 10.536 63.1857 10.4437C62.9333 10.3472 62.6417 10.3653 62.3983 10.2778C62.1435 10.1861 61.9056 10.0594 61.6611 9.97678C61.4032 9.88991 61.1678 9.75238 60.9232 9.67516C60.663 9.59313 60.3906 9.57382 60.1467 9.50204C59.8828 9.42483 59.6153 9.39527 59.3714 9.32952C59.1021 9.25653 58.8835 9.03454 58.6402 8.97422C58.3666 8.90606 58.0822 8.95069 57.8437 8.89701C57.5593 8.83307 57.2405 9.07134 57.0111 9.02549C56.6977 8.96336 56.4731 8.7468 56.2732 8.71242C56.0999 8.68226 55.8125 8.79265 55.4635 8.74258C55.2352 8.7094 55.0028 8.45062 54.7057 8.41443C54.4629 8.38547 54.1979 8.34988 53.9123 8.32153C53.6629 8.2968 53.3918 8.33661 53.1122 8.31429C52.8592 8.29439 52.6068 8.06878 52.3297 8.05189C52.0742 8.03621 51.7977 8.23165 51.5236 8.22019C51.2663 8.20933 51.0055 8.02354 50.7332 8.0169C50.4741 8.01087 50.206 8.00122 49.9343 7.99941C49.6747 7.9976 49.4066 8.04405 49.1355 8.04767C48.8746 8.05068 48.6156 8.3342 48.3451 8.34204C48.0836 8.34988 47.8131 8.18762 47.5432 8.20028C47.2817 8.21295 47.0082 8.10678 46.7389 8.12428C46.4774 8.14177 46.2383 8.49828 45.9696 8.5212C45.7082 8.54352 45.4268 8.36979 45.1587 8.39693C44.8972 8.42408 44.6503 8.5966 44.3834 8.62918C44.1219 8.66115 43.8315 8.48621 43.5658 8.52361C43.305 8.56041 43.0375 8.5785 42.7724 8.62073C42.5122 8.66235 42.2978 8.98206 42.0339 9.02972C41.7749 9.07616 41.4597 8.83487 41.197 8.88796C40.9386 8.93984 40.6705 8.96758 40.4097 9.02549C40.1518 9.0828 39.8976 9.17268 39.638 9.23602C39.3814 9.29815 39.0927 9.25472 38.8337 9.32288C38.5783 9.39044 38.3223 9.47791 38.0644 9.55211C37.8102 9.6251 37.588 9.81994 37.332 9.89956C37.079 9.97798 36.9069 10.3067 36.6527 10.3918C36.4015 10.4756 36.0247 10.2018 35.7723 10.2923C35.523 10.3815 35.3792 10.7622 35.1293 10.8581C34.8817 10.9528 34.5182 10.7616 34.2706 10.8635C34.0255 10.9636 33.7749 11.0662 33.5291 11.173C33.2864 11.2785 33.0896 11.4987 32.8468 11.6109C32.6065 11.7225 32.4688 12.0501 32.2285 12.1683C31.9906 12.2853 31.7606 12.4114 31.5233 12.535C31.2884 12.6575 31.0746 12.8125 30.8397 12.9422C30.6079 13.0701 30.1683 12.8348 29.937 12.9694C29.7082 13.1027 29.6744 13.566 29.4461 13.7059C29.2203 13.8446 28.9981 13.984 28.7729 14.1294C28.55 14.2735 28.1449 14.1457 27.9239 14.2965C27.7047 14.4455 27.4795 14.5951 27.2621 14.7513C27.0465 14.9057 26.9427 15.217 26.7289 15.378C26.5176 15.5373 26.3564 15.7623 26.1468 15.9288C25.9391 16.0935 25.6427 16.1508 25.4368 16.3221C25.2333 16.4916 25.0684 16.71 24.8668 16.8861C24.6669 17.0604 24.5467 17.3234 24.3487 17.505C24.153 17.6842 23.9357 17.8386 23.7418 18.0244C23.5528 18.2053 23.4502 18.469 23.266 18.6541C23.0819 18.8393 22.763 18.8912 22.5831 19.0806C22.4032 19.27 22.091 19.34 21.9153 19.533C21.7396 19.7261 21.7516 20.088 21.5802 20.2853C21.4087 20.4825 21.0083 20.4879 20.8417 20.6894C20.675 20.8909 20.5066 21.0972 20.3441 21.3017C20.1817 21.5062 20.3496 21.967 20.192 22.1752C20.0344 22.3833 19.8231 22.5485 19.6703 22.7603C19.5175 22.972 19.18 23.0541 19.0314 23.2694C18.8829 23.4848 18.8418 23.7725 18.6981 23.9909C18.5544 24.2092 18.491 24.4771 18.3528 24.699C18.2145 24.921 17.8733 25.0194 17.7393 25.2438C17.6052 25.4681 17.665 25.8054 17.5364 26.0328C17.4078 26.2602 17.0708 26.3736 16.9471 26.6034C16.8233 26.8332 16.8692 27.1536 16.7502 27.3864C16.6313 27.6192 16.659 27.9221 16.5455 28.1573C16.432 28.3926 16.2702 28.6013 16.1609 28.839C16.0516 29.0766 15.6688 29.1925 15.5649 29.4319C15.4611 29.6714 15.5269 29.9845 15.4285 30.2264C15.33 30.4683 15.2835 30.7301 15.1893 30.9738C15.0951 31.2175 14.9285 31.4334 14.8403 31.6795C14.7522 31.9257 14.4931 32.1139 14.4098 32.3618C14.3265 32.6097 14.2172 32.8528 14.1393 33.1025C14.0614 33.3523 14.1139 33.6436 14.0403 33.8946C13.9666 34.1455 13.9974 34.426 13.9292 34.6782C13.8609 34.9303 13.9159 35.2126 13.8531 35.466C13.7903 35.7193 13.4129 35.8991 13.3549 36.1542C13.297 36.4094 13.277 36.6754 13.2251 36.9312C13.1732 37.187 13.4159 37.5 13.3688 37.757C13.3217 38.014 12.951 38.2155 12.9093 38.473C12.8677 38.7306 12.9123 39.0045 12.8761 39.2633C12.8399 39.522 13.0198 39.8086 12.9878 40.068C12.9558 40.3273 12.8574 40.5771 12.8308 40.8371C12.8043 41.0971 12.6612 41.3462 12.64 41.6068C12.6189 41.8674 12.6992 42.1352 12.6835 42.3958C12.6678 42.6564 12.4818 42.9097 12.4716 43.1709C12.4613 43.4321 12.4305 43.6951 12.4251 43.9563C12.4196 44.2175 12.4148 44.4823 12.4148 44.7435C12.4148 45.0047 12.7596 45.2623 12.765 45.5235C12.7704 45.7847 12.413 46.0574 12.4239 46.3186C12.4347 46.5798 12.6781 46.8301 12.6944 47.0907C12.7107 47.3513 12.5754 47.6239 12.5971 47.8839C12.6189 48.1439 12.8175 48.3888 12.8447 48.6482C12.8719 48.9076 12.8308 49.1748 12.8628 49.4342C12.8948 49.6936 12.7964 49.9717 12.8338 50.2305C12.8713 50.4892 13.1822 50.7046 13.2257 50.9628C13.2692 51.221 13.2613 51.4846 13.3103 51.7415C13.3592 51.9985 13.3181 52.2718 13.3725 52.5275C13.4268 52.7833 13.6895 52.9902 13.7492 53.2448C13.809 53.4993 13.8036 53.766 13.8682 54.0187C13.9328 54.2715 13.9594 54.5326 14.03 54.7842C14.1007 55.0357 13.9425 55.3548 14.0179 55.6046C14.0934 55.8543 14.4629 56.0124 14.5445 56.2603C14.626 56.5082 14.7624 56.7338 14.8494 56.9805C14.9363 57.2272 14.8446 57.5355 14.9369 57.7804C15.0293 58.0253 14.9146 58.3523 15.0124 58.5948C15.1102 58.8372 15.353 59.0224 15.4562 59.2625C15.5595 59.5026 15.5118 59.8127 15.6205 60.0503C15.7292 60.288 16.2255 60.3435 16.3396 60.5788C16.4537 60.814 16.4507 61.1036 16.5703 61.3364C16.6898 61.5692 16.5787 61.9245 16.7037 62.1538C16.8311 62.3872 17.0244 62.5869 17.156 62.8155C17.2888 63.0459 17.659 63.1346 17.796 63.3602C17.9343 63.5876 18.0092 63.8494 18.1517 64.072C18.2954 64.2958 18.4053 64.5389 18.5532 64.7573C18.7018 64.9775 18.8473 65.1982 19 65.4136C19.154 65.6301 19.1516 65.9613 19.3092 66.173C19.468 66.386 19.6564 66.5802 19.8194 66.7877C19.9831 66.997 20.2228 67.1472 20.39 67.3517C20.5591 67.5574 20.7517 67.7426 20.9244 67.9429C21.0983 68.1444 21.239 68.3748 21.4165 68.5709C21.5947 68.7681 21.8525 68.8918 22.0342 69.0836C22.2172 69.2766 22.4762 69.3918 22.6622 69.5794C22.8494 69.7683 22.876 70.1169 23.0662 70.3003C23.2576 70.4849 23.5239 70.5898 23.7183 70.769C23.9139 70.9494 24.2231 70.9982 24.4211 71.1732C24.6204 71.3487 24.6983 71.6606 24.9 71.8313C25.1028 72.0026 25.3951 72.0623 25.6004 72.2288C25.8075 72.3959 26.0001 72.5732 26.2096 72.7349C26.4198 72.8972 26.5876 73.1113 26.8002 73.2682C27.0139 73.4256 27.0906 73.7737 27.3068 73.9263C27.5242 74.0795 27.814 74.129 28.0332 74.2767C28.2536 74.4251 28.4685 74.582 28.6907 74.7249C28.9142 74.8691 29.2312 74.8619 29.4564 75C29.6828 75.1394 29.7474 75.5471 29.9751 75.681C30.2045 75.8156 30.5553 75.7402 30.786 75.8693C31.0179 75.9989 31.1507 76.3114 31.3838 76.4357C31.6187 76.5611 32.0105 76.3826 32.246 76.502C32.4833 76.6227 32.6741 76.8284 32.912 76.9436C33.1518 77.0594 33.4042 77.1415 33.6439 77.2512C33.886 77.3622 34.1155 77.4955 34.3576 77.6005C34.6021 77.7067 34.8286 77.849 35.0731 77.9492C35.3195 78.0505 35.6298 77.9829 35.8756 78.0783C36.1238 78.1748 36.3689 78.264 36.6171 78.3545C36.8677 78.4456 36.9975 78.8709 37.2469 78.9559C37.4986 79.0422 37.7728 79.0645 38.024 79.1448C38.2776 79.2256 38.565 79.1942 38.8174 79.269C39.0728 79.345 39.3475 79.3444 39.6011 79.4138C39.8584 79.4844 40.1337 79.4663 40.3891 79.5308C40.6482 79.596 40.8378 79.9368 41.0938 79.9953C41.354 80.055 41.5992 80.1901 41.8564 80.2432C42.1185 80.2975 42.424 80.1238 42.6824 80.1714C42.9457 80.2197 43.1872 80.3777 43.4463 80.4188C43.7107 80.4604 43.9909 80.3717 44.2506 80.4067C44.5162 80.4423 44.7777 80.47 45.0385 80.4984C45.3048 80.5273 45.5784 80.4133 45.8392 80.4344C46.1067 80.4562 46.3585 80.5865 46.6193 80.6003C46.8874 80.6148 47.1489 80.6528 47.4097 80.6588C47.6778 80.6649 47.9399 80.6794 48.2001 80.6769C48.4688 80.6745 48.7297 80.645 48.9887 80.6335C49.2568 80.6214 49.5128 80.619 49.7628 80.5985C50.0303 80.5762 50.3002 80.6757 50.5478 80.6444C50.8153 80.6106 51.093 80.68 51.3376 80.6371C51.6045 80.5901 51.8768 80.581 52.1177 80.5249C52.384 80.4634 52.5271 79.9893 52.7632 79.9187C53.0259 79.8403 53.3664 80.0532 53.5934 79.9676C53.8537 79.8692 54.0191 79.596 54.2353 79.4928C54.4913 79.3704 54.8017 79.4005 55.001 79.2799C55.2558 79.1255 55.4894 78.9879 55.6609 78.8522C55.9538 78.6212 56.0311 78.3141 56.1241 78.2122C56.3088 78.0089 56.4453 77.7875 56.5914 77.574C56.7454 77.349 57.005 77.1927 57.1198 76.9575C57.2381 76.7156 57.4186 76.4839 57.4996 76.2324C57.5811 75.979 57.4549 75.6654 57.5038 75.403C57.5521 75.143 57.7 74.892 57.7199 74.6248C57.7393 74.3618 57.8649 74.0879 57.8612 73.8189C57.8576 73.5553 57.4857 73.3056 57.4639 73.0377C57.4428 72.7747 57.5968 72.4948 57.5623 72.2288C57.5285 71.967 57.4543 71.7082 57.4108 71.4446C57.3679 71.1828 57.3244 70.9204 57.2755 70.658C57.2266 70.3956 57.0811 70.1537 57.0304 69.8919C56.9797 69.6301 57.0896 69.3376 57.04 69.0764C56.9905 68.8134 57.0093 68.5407 56.9646 68.2795C56.9193 68.0153 56.6373 67.7891 56.6017 67.5273C56.5648 67.2613 56.4731 66.9958 56.4495 66.734C56.4254 66.4656 56.6675 66.1821 56.6615 65.9191C56.6554 65.6494 56.4078 65.3732 56.4254 65.1108C56.4429 64.8429 56.6439 64.589 56.691 64.3296C56.7387 64.0672 56.6941 63.7722 56.7774 63.5201C56.8601 63.2691 56.906 62.9742 57.028 62.7353C57.1463 62.503 57.63 62.4904 57.7906 62.2702C57.9518 62.05 58.0333 61.8039 58.2199 61.6199C58.4113 61.4311 58.453 61.0625 58.6698 60.9093C58.8865 60.7561 59.2422 60.8237 59.4819 60.7024C59.7162 60.5842 59.8448 60.1897 60.1002 60.0986C60.346 60.0111 60.6412 60.0075 60.9045 59.9424C61.1575 59.8802 61.4552 59.9882 61.7233 59.9436C61.9805 59.9013 62.2311 59.7596 62.5016 59.7312C62.7612 59.7041 63.0438 59.923 63.3149 59.9074C63.5764 59.8923 63.8378 59.9315 64.1084 59.9255C64.3704 59.9194 64.6319 59.7541 64.9024 59.7547C65.165 59.7547 65.4331 59.6552 65.703 59.6606C65.9657 59.6655 66.235 59.5877 66.5037 59.5961C66.767 59.6039 67.0218 59.949 67.2899 59.9586C67.5537 59.9683 67.8309 59.6872 68.099 59.6968C68.3635 59.7065 68.6298 59.7198 68.8978 59.7288C69.1629 59.7379 69.4256 59.8621 69.6937 59.8694C69.9594 59.8766 70.2275 59.8048 70.4956 59.809C70.7612 59.8133 71.0275 59.8416 71.2956 59.8416C71.5619 59.8416 71.8276 59.7934 72.0951 59.7885C72.3614 59.7837 72.6282 59.8217 72.8957 59.8108C73.1632 59.8 73.4277 59.7801 73.6946 59.7626C73.9615 59.7451 74.2247 59.7137 74.491 59.6884C74.7573 59.6631 75.0188 59.6214 75.2838 59.5877C75.5489 59.5539 75.8273 59.6172 76.0905 59.5738C76.3538 59.5304 76.5977 59.3838 76.8598 59.3301C77.1219 59.2764 77.3459 59.0864 77.6049 59.0212C77.864 58.9561 78.1713 59.084 78.4273 59.0068C78.6821 58.9301 78.9225 58.8077 79.1748 58.7178C79.4248 58.6285 79.734 58.6798 79.9816 58.5761C80.2267 58.4735 80.368 58.1387 80.6101 58.0217C80.8486 57.9065 81.1566 57.9246 81.3915 57.7943C81.6233 57.6658 81.7598 57.3787 81.9874 57.2351C82.2109 57.0939 82.392 56.9033 82.6112 56.7465C82.8261 56.5927 83.0628 56.4786 83.2736 56.3091C83.4795 56.1439 83.6824 55.9822 83.8834 55.8006C84.0302 55.6685 84.195 55.452 84.4365 55.2064C84.6068 55.0339 84.7704 54.8258 84.9715 54.5984C85.14 54.4078 85.3042 54.2015 85.486 53.9729C85.6478 53.769 86.0415 53.7261 86.2075 53.4927C86.3603 53.2779 86.5245 53.0523 86.6773 52.8129C86.8198 52.5885 86.9931 52.3659 87.1314 52.1198C87.2624 51.8869 87.1241 51.5057 87.2479 51.2535C87.3638 51.0171 87.7436 50.9037 87.8463 50.663C87.9496 50.4211 87.8541 50.1002 87.9441 49.8547C88.0341 49.6091 88.3221 49.427 88.3994 49.176C88.4767 48.9251 88.5673 48.6711 88.6319 48.4166C88.6965 48.162 88.7478 47.8978 88.7997 47.6408C88.8517 47.3838 88.8311 47.1094 88.871 46.8494C88.9108 46.5894 88.9126 46.324 88.9404 46.0622C88.9682 45.8004 88.8788 45.532 88.8945 45.2696C88.9102 45.0084 89.0944 44.7526 89.0992 44.4896C89.1041 44.2284 88.8305 43.9678 88.8251 43.7042C88.8197 43.443 88.941 43.1794 88.9253 42.917C88.9096 42.6564 88.7212 42.4121 88.6965 42.1503C88.6717 41.8903 88.845 41.6104 88.8106 41.3492C88.7768 41.0904 88.5612 40.86 88.5183 40.6C88.4761 40.3424 88.6548 40.0456 88.6041 39.7869C88.554 39.5305 88.5679 39.2566 88.5093 38.9997C88.4513 38.7451 88.1778 38.5406 88.112 38.286C88.0468 38.0327 87.952 37.7902 87.8795 37.5368C87.8076 37.2853 87.9127 36.9813 87.8336 36.7297C87.7551 36.4806 87.76 36.2001 87.6748 35.951C87.5903 35.7036 87.1718 35.5746 87.0807 35.3272C86.9901 35.0817 86.9231 34.8314 86.8264 34.5865C86.7304 34.3434 86.6664 34.0894 86.5644 33.8469C86.4623 33.6044 86.6568 33.2353 86.5499 32.9952C86.443 32.7551 86.286 32.5355 86.1743 32.2978C86.0626 32.0602 85.9443 31.8237 85.8277 31.5885C85.7112 31.3532 85.396 31.2187 85.2752 30.9858C85.1545 30.753 85.1708 30.4478 85.0458 30.2167C84.9208 29.9857 84.6171 29.8548 84.4879 29.6262C84.3586 29.3975 84.2101 29.1834 84.0767 28.9572C83.9432 28.731 83.7808 28.5259 83.6437 28.3021C83.5066 28.0783 83.6751 27.6633 83.5344 27.4419C83.3937 27.2205 83.1178 27.0842 82.9729 26.8652C82.828 26.6462 82.8225 26.3308 82.6746 26.1148C82.5267 25.8989 82.337 25.7058 82.1849 25.4917C82.0327 25.2775 81.7079 25.1858 81.5527 24.9747C81.3975 24.7636 81.2695 24.5301 81.1107 24.322C80.9519 24.1139 80.7496 23.9372 80.5878 23.7309C80.426 23.5246 80.2605 23.3207 80.0951 23.1174C79.929 22.9129 79.8004 22.6794 79.6319 22.4792C79.4623 22.2777 79.3572 22.0219 79.1857 21.8247C79.0124 21.6256 78.6538 21.5936 78.4793 21.4C78.3023 21.2034 78.3301 20.8227 78.1514 20.6315C77.9714 20.4385 77.6411 20.3896 77.4594 20.202C77.2764 20.0126 77.1001 19.8202 76.916 19.6362C76.7294 19.4498 76.5416 19.2688 76.3538 19.0885C76.1636 18.9057 75.945 18.7591 75.7542 18.5824C75.5604 18.4032 75.4257 18.1649 75.2313 17.9924L75.2307 17.9966ZM46.2637 67.2462C46.2063 67.5104 45.8929 67.6817 45.806 67.917C45.7124 68.1703 45.6756 68.4122 45.5506 68.6306C45.4177 68.8628 45.4014 69.1596 45.236 69.352C45.0639 69.5529 44.8997 69.7761 44.6956 69.9329C44.4891 70.0916 44.1401 70.0047 43.9046 70.1175C43.6733 70.2285 43.497 70.4493 43.241 70.5156C42.9952 70.5796 42.7573 70.8028 42.4916 70.8245C42.2398 70.845 41.9748 70.5567 41.7079 70.5392C41.4561 70.5229 41.165 70.7449 40.9018 70.6942C40.6542 70.6465 40.4447 70.398 40.1893 70.319C39.9477 70.2448 39.7382 70.0868 39.4906 69.9842C39.2564 69.8871 39.048 69.7496 38.8101 69.6277C38.5843 69.5119 38.2854 69.5264 38.0578 69.3876C37.8404 69.2555 37.5808 69.1747 37.3622 69.0209C37.1502 68.8725 36.9395 68.715 36.7354 68.5528C36.5325 68.3917 36.4245 68.1184 36.23 67.9453C36.0356 67.7722 35.791 67.6576 35.6069 67.4736C35.4227 67.2896 35.3623 66.9958 35.1878 66.8028C35.0133 66.6098 34.7579 66.494 34.5937 66.2925C34.4294 66.091 34.3051 65.8624 34.1517 65.6531C33.9983 65.4437 33.8993 65.2013 33.7568 64.9853C33.6131 64.7675 33.4271 64.5835 33.2961 64.361C33.1638 64.136 32.9996 63.9327 32.8806 63.7034C32.7599 63.4718 32.7925 63.1732 32.6856 62.9386C32.5769 62.7003 32.3795 62.5103 32.2859 62.2702C32.1905 62.0259 31.8209 61.8775 31.7424 61.6326C31.6615 61.3822 31.7539 61.077 31.6911 60.8279C31.6265 60.5727 31.4176 60.3429 31.3729 60.0907C31.327 59.8314 31.5142 59.537 31.4894 59.283C31.4641 59.0206 31.4556 58.7643 31.4544 58.5085C31.4526 58.2449 31.4001 57.9831 31.4242 57.7291C31.4496 57.4673 31.6917 57.2514 31.7461 57.0016C31.8034 56.7368 31.6724 56.4388 31.7587 56.2036C31.8517 55.9502 32.1174 55.797 32.2418 55.5786C32.374 55.3464 32.5117 55.16 32.6772 54.967C32.8492 54.7661 32.9869 54.5725 33.191 54.4156C33.3975 54.257 33.4796 53.8818 33.7145 53.7684C33.9458 53.6574 34.2652 53.7237 34.5206 53.6574C34.7664 53.5934 35.0327 53.6712 35.2983 53.6489C35.5501 53.6278 35.8146 53.2888 36.0815 53.3063C36.3333 53.3226 36.5808 53.5548 36.8441 53.6055C37.0917 53.6531 37.3882 53.579 37.6442 53.6574C37.8857 53.7316 38.0644 54.0199 38.3114 54.1219C38.5457 54.2184 38.7685 54.3456 39.0064 54.4675C39.2322 54.5833 39.6005 54.4693 39.8288 54.608C40.0462 54.7402 40.1053 55.1323 40.3239 55.2855C40.5359 55.4345 40.7218 55.6088 40.9259 55.7711C41.1288 55.9327 41.3426 56.0733 41.5364 56.247C41.7302 56.4207 41.8353 56.6753 42.0194 56.8593C42.2036 57.0433 42.3872 57.2122 42.5617 57.4052C42.7362 57.5982 42.9946 57.7104 43.1582 57.9119C43.3219 58.1134 43.6896 58.1634 43.843 58.3722C43.9963 58.5809 43.8321 59.014 43.9746 59.2305C44.1183 59.4483 44.5156 59.5056 44.6473 59.7288C44.7801 59.9538 44.6328 60.3308 44.7523 60.5601C44.8731 60.7923 44.98 61.0179 45.0868 61.2532C45.1955 61.4914 45.4045 61.6778 45.498 61.9179C45.5934 62.1622 45.9044 62.3305 45.9835 62.5754C46.0644 62.8258 46.1478 63.0839 46.2106 63.3331C46.2752 63.5882 46.3681 63.8488 46.4128 64.101C46.4587 64.3604 46.0771 64.6746 46.1019 64.9292C46.1272 65.1916 46.5209 65.4299 46.5227 65.685C46.5245 65.9486 46.5119 66.2255 46.4877 66.4795C46.4623 66.7413 46.3174 66.9958 46.2631 67.2456L46.2637 67.2462Z" fill="#7A2900"/>
<path d="M41.6089 21.6829C41.7755 21.891 41.8637 22.1426 41.9953 22.3658C42.13 22.5944 42.3099 22.7928 42.4083 23.0329C42.5086 23.2778 42.6384 23.5155 42.7018 23.7683C42.7658 24.024 42.5545 24.316 42.581 24.576C42.6076 24.8378 42.8352 25.0791 42.825 25.3409C42.8147 25.6027 42.5726 25.8265 42.5249 26.0846C42.4772 26.3428 42.4337 26.5732 42.3498 26.8224C42.2664 27.0697 42.2526 27.3267 42.1336 27.5619C42.0159 27.7942 41.8021 27.9468 41.6499 28.1627C41.5008 28.3757 41.3607 28.5627 41.179 28.7557C41.0014 28.9439 40.9942 29.3101 40.7865 29.4766C40.5788 29.643 40.2503 29.6213 40.0269 29.7528C39.798 29.8874 39.6302 30.1172 39.3892 30.2155C39.1441 30.3156 38.8887 30.3717 38.6357 30.4345C38.3797 30.4984 38.1279 30.5666 37.8676 30.5931C37.6056 30.6197 37.3405 30.7162 37.0784 30.7053C36.8164 30.6945 36.5459 30.6492 36.2874 30.6016C36.029 30.5539 35.7669 30.4833 35.5176 30.3995C35.27 30.3162 35.1384 29.9754 34.9029 29.8566C34.6704 29.739 34.4059 29.7094 34.1898 29.5574C33.9766 29.4084 33.6294 29.4138 33.4362 29.2323C33.2478 29.0549 33.1445 28.778 32.9785 28.5699C32.8124 28.3618 32.7478 28.0922 32.6162 27.8696C32.4816 27.641 32.1241 27.5167 32.0257 27.276C31.9254 27.0311 32.0547 26.7017 31.9912 26.449C31.9272 26.1932 31.8035 25.9483 31.7769 25.6883C31.7503 25.4265 31.9828 25.1683 31.9931 24.9065C32.0033 24.6447 32.0106 24.4083 32.0583 24.1501C32.106 23.8919 31.8614 23.5614 31.9454 23.3122C32.0287 23.0649 32.0909 22.7802 32.2098 22.5455C32.3276 22.3133 32.7533 22.2578 32.9048 22.0418C33.054 21.8289 32.9712 21.4205 33.1536 21.2275C33.3311 21.0393 33.601 20.9174 33.8093 20.7509C34.0177 20.5844 34.3407 20.5941 34.5641 20.4626C34.793 20.3281 34.9693 20.1091 35.2102 20.0108C35.4554 19.9106 35.7138 19.8588 35.9668 19.796C36.2228 19.7321 36.4969 19.8684 36.7572 19.8419C37.0193 19.8153 37.2638 19.5385 37.5259 19.5493C37.7879 19.5602 38.0747 19.5035 38.3332 19.5511C38.5916 19.5988 38.8482 19.7255 39.0976 19.8093C39.3452 19.8926 39.5625 20.0747 39.798 20.1936C40.0305 20.3112 40.3203 20.3576 40.5365 20.509C40.7496 20.658 40.7382 21.0773 40.9314 21.2589C41.1198 21.4362 41.4422 21.4748 41.6089 21.6829Z" fill="#FFCE47"/>
<path d="M30.2914 35.4358C30.4581 35.6439 30.437 35.9763 30.568 36.1995C30.7026 36.4281 31.0855 36.5379 31.1839 36.7786C31.2841 37.0235 31.4019 37.2919 31.4653 37.5447C31.5293 37.8004 31.4592 38.1021 31.4858 38.362C31.5124 38.6238 31.3101 38.8911 31.2998 39.1529C31.2896 39.4147 31.362 39.6783 31.3143 39.9365C31.2666 40.1946 31.4121 40.5174 31.3282 40.7665C31.2449 41.0138 31.0806 41.2581 30.9617 41.4934C30.8439 41.7256 30.6163 41.9126 30.4641 42.1286C30.315 42.3415 30.1846 42.5882 30.0028 42.7813C29.8253 42.9695 29.5119 43.0213 29.3036 43.1878C29.0953 43.3543 28.9214 43.5564 28.698 43.6873C28.4691 43.8218 28.2137 43.8894 27.9728 43.9877C27.7276 44.0878 27.5422 44.3943 27.2886 44.4576C27.0326 44.5216 26.7404 44.4944 26.4801 44.5209C26.2181 44.5475 25.9415 44.5372 25.6795 44.5264C25.4174 44.5155 25.1324 44.5451 24.8746 44.4974C24.6167 44.4498 24.3619 44.3213 24.1126 44.2374C23.865 44.1542 23.5739 44.1216 23.3385 44.0028C23.106 43.8851 23.0251 43.5021 22.8089 43.3501C22.5958 43.2011 22.417 43.034 22.2238 42.8524C22.0354 42.6751 21.8585 42.5056 21.6924 42.2975C21.5264 42.0894 21.1979 41.9989 21.0663 41.7757C20.9316 41.5471 21.0168 41.2141 20.9184 40.974C20.8181 40.7291 20.5156 40.5535 20.4522 40.3008C20.3882 40.045 20.2874 39.7772 20.2608 39.5172C20.2342 39.2554 20.3634 38.9761 20.3743 38.7149C20.3852 38.4537 20.3061 38.169 20.3538 37.9108C20.4015 37.6526 20.5844 37.4192 20.6684 37.1701C20.7517 36.9227 20.6792 36.5904 20.7982 36.3551C20.9159 36.1229 21.1013 35.8967 21.2535 35.6807C21.4026 35.4678 21.8186 35.4672 22.0004 35.2741C22.1779 35.0859 22.3609 34.9309 22.5692 34.765C22.7775 34.5991 22.818 34.1992 23.0414 34.0677C23.2702 33.9332 23.6041 34.005 23.8445 33.9066C24.0896 33.8065 24.3474 33.8017 24.6004 33.7383C24.8565 33.6744 25.0865 33.5574 25.3462 33.5308C25.6082 33.5043 25.8673 33.3239 26.1293 33.3342C26.3914 33.3444 26.6323 33.5628 26.8907 33.6105C27.1492 33.6581 27.4287 33.6062 27.6781 33.6901C27.9257 33.7733 28.2348 33.7528 28.4703 33.8716C28.7028 33.9893 28.9479 34.1383 29.1641 34.2903C29.3773 34.4393 29.5433 34.6794 29.7365 34.8609C29.9249 35.0383 30.1248 35.2289 30.2914 35.437V35.4358Z" fill="#8EE07E"/>
<path d="M59.9529 18.9178C60.1195 19.1259 60.259 19.3231 60.39 19.5463C60.5247 19.7749 60.8646 19.8962 60.9631 20.1369C61.0633 20.3818 61.2064 20.6315 61.2692 20.8843C61.3332 21.14 61.2384 21.4362 61.265 21.6962C61.2915 21.958 61.2915 22.2222 61.2813 22.484C61.271 22.7458 61.3724 23.0329 61.3247 23.2905C61.277 23.5481 61.0349 23.764 60.951 24.0132C60.8677 24.2605 60.6255 24.4264 60.5066 24.661C60.3888 24.8933 60.5742 25.3089 60.4226 25.5249C60.2735 25.7378 59.8381 25.7221 59.6558 25.9151C59.4783 26.1033 59.285 26.2427 59.0767 26.4086C58.8684 26.5745 58.7223 26.7868 58.4989 26.9183C58.27 27.0528 58.145 27.3979 57.9047 27.4962C57.6596 27.5963 57.3106 27.3665 57.0576 27.4298C56.8015 27.4938 56.5836 27.6796 56.3233 27.7061C56.0613 27.7326 55.807 27.6675 55.545 27.6566C55.2829 27.6458 55.0022 27.805 54.7443 27.7574C54.4865 27.7097 54.2927 27.4292 54.0433 27.3454C53.7957 27.2621 53.5059 27.2995 53.2704 27.1807C53.0379 27.0631 52.8918 26.8145 52.675 26.6625C52.4619 26.5135 52.0368 26.6119 51.8436 26.4297C51.6552 26.2523 51.5362 25.9743 51.3696 25.7661C51.2029 25.558 51.0417 25.3318 50.9101 25.1086C50.7754 24.88 50.9554 24.506 50.8569 24.2659C50.7567 24.021 50.4234 23.8666 50.3606 23.6132C50.2966 23.3575 50.4137 23.0746 50.3872 22.8152C50.3606 22.5534 50.1481 22.2988 50.1583 22.037C50.1686 21.7752 50.2622 21.5122 50.3099 21.254C50.3576 20.9959 50.6462 20.8125 50.7301 20.5633C50.8135 20.316 50.6728 19.9836 50.7917 19.749C50.9095 19.5168 51.1824 19.3786 51.334 19.1621C51.4831 18.9491 51.442 18.5727 51.6238 18.3791C51.8013 18.1909 52.0332 18.0244 52.2409 17.8585C52.4486 17.6926 52.8145 17.7614 53.0379 17.6299C53.2668 17.4954 53.4811 17.3795 53.7215 17.2812C53.9666 17.1811 54.1798 17.0303 54.4328 16.9675C54.6888 16.9036 54.9231 16.6949 55.1833 16.6683C55.4454 16.6418 55.711 16.9512 55.9731 16.9621C56.2352 16.973 56.5262 16.6846 56.784 16.7323C57.0419 16.7799 57.2453 17.0472 57.4947 17.131C57.7423 17.2142 57.9675 17.321 58.2024 17.4399C58.4349 17.5575 58.6408 17.6944 58.8569 17.8458C59.0701 17.9948 59.2838 18.1251 59.4771 18.3073C59.6655 18.4846 59.785 18.7096 59.9511 18.9178H59.9529Z" fill="#FF5C5C"/>
<path d="M76.186 28.313C76.3526 28.5211 76.4202 28.8064 76.5519 29.0296C76.6865 29.2582 76.9764 29.4259 77.0754 29.6666C77.1756 29.9115 77.1883 30.2089 77.2517 30.4622C77.3157 30.718 77.0464 31.0275 77.073 31.2868C77.0995 31.5486 77.3091 31.7923 77.2982 32.0535C77.2873 32.3147 77.0887 32.547 77.041 32.8052C76.9933 33.0633 77.0349 33.3294 76.951 33.5785C76.8677 33.8258 76.6304 33.9917 76.5114 34.2264C76.3937 34.4586 76.4504 34.7819 76.2983 34.9979C76.1491 35.2108 75.8834 35.3218 75.7017 35.5148C75.5242 35.703 75.4952 36.0571 75.2869 36.2236C75.0785 36.3901 74.831 36.5168 74.6076 36.6483C74.3787 36.7828 74.0472 36.6935 73.8063 36.7919C73.5611 36.892 73.3794 37.1556 73.1264 37.2189C72.8704 37.2829 72.592 37.1984 72.3318 37.225C72.0697 37.2515 71.8131 37.4228 71.551 37.4126C71.289 37.4023 71.068 37.0941 70.8095 37.0464C70.5511 36.9988 70.2492 37.1677 69.9998 37.0838C69.7523 37.0006 69.6086 36.6923 69.3731 36.5735C69.1406 36.4559 68.7904 36.5476 68.5736 36.3955C68.3605 36.2465 68.323 35.8912 68.1298 35.7097C67.9414 35.5323 67.7337 35.3972 67.567 35.1891C67.4004 34.981 67.1311 34.8573 66.9994 34.6341C66.8648 34.4055 66.9656 34.078 66.8672 33.8373C66.767 33.5924 66.5031 33.4198 66.4397 33.1671C66.3757 32.9113 66.1692 32.6712 66.1426 32.4119C66.1161 32.1501 66.0653 31.8653 66.0762 31.6035C66.0871 31.3417 66.5176 31.127 66.5653 30.8694C66.613 30.6118 66.3606 30.2831 66.4445 30.034C66.5279 29.7866 66.8992 29.6624 67.0182 29.4271C67.1359 29.1949 67.2742 29.0036 67.4257 28.7877C67.5749 28.5748 67.4203 28.1103 67.6027 27.9172C67.7802 27.729 68.0024 27.5402 68.2107 27.3737C68.419 27.2072 68.7614 27.2175 68.9848 27.086C69.2137 26.9515 69.39 26.6921 69.6303 26.5938C69.8754 26.4936 70.158 26.4544 70.411 26.3911C70.667 26.3271 70.9551 26.4273 71.2153 26.4007C71.4774 26.3742 71.7286 26.4773 71.99 26.4882C72.2515 26.4991 72.4912 26.5232 72.7496 26.5708C73.0081 26.6185 73.3432 26.373 73.5925 26.4568C73.8401 26.5401 73.9742 26.9081 74.2097 27.0269C74.4421 27.1445 74.6486 27.2748 74.8654 27.4268C75.0785 27.5758 75.3195 27.6747 75.5127 27.8563C75.7011 28.0337 76.0199 28.1042 76.1866 28.3124L76.186 28.313Z" fill="#C285FF"/>
<path d="M64.8365 89.3603C64.7163 89.607 64.6034 89.8725 64.4639 90.1035C64.3226 90.3381 63.8462 90.3466 63.6868 90.5638C63.525 90.7839 63.6204 91.2062 63.4411 91.4083C63.2599 91.6128 62.9164 91.6622 62.7189 91.8468C62.5196 92.0332 62.3687 92.2697 62.1543 92.4356C61.9394 92.6026 61.7298 92.78 61.5016 92.926C61.2734 93.072 60.9461 93.0394 60.7052 93.1642C60.4642 93.2891 60.303 93.575 60.0518 93.6776C59.8006 93.7801 59.5676 93.9575 59.3079 94.0371C59.0163 94.1264 58.7005 93.8555 58.4125 93.8326C58.1148 93.8091 57.7833 93.9786 57.5182 93.8501C57.2531 93.7216 57.0841 93.4466 56.8812 93.2276C56.6843 93.0153 56.3438 92.8578 56.2333 92.5737C56.1349 92.3203 56.1192 92.0284 56.0443 91.7678C55.9694 91.5072 56.1433 91.1911 56.092 90.9239C56.0407 90.6566 56.0225 90.4027 55.996 90.1318C55.9694 89.861 55.7889 89.6095 55.7877 89.3368C55.7865 89.0666 55.6772 88.7867 55.7007 88.5152C55.7243 88.2462 55.8076 87.9765 55.8559 87.7075C55.9036 87.4421 55.9863 87.1785 56.0594 86.9149C56.1312 86.6549 56.3999 86.4636 56.4965 86.2073C56.5919 85.9557 56.409 85.5823 56.5292 85.3356C56.6493 85.0889 57.0261 84.9833 57.165 84.7523C57.3063 84.5176 57.2755 84.1738 57.4349 83.9566C57.5967 83.7359 57.9505 83.6774 58.1299 83.4753C58.311 83.2708 58.4209 83.012 58.6184 82.8274C58.8176 82.641 58.9022 82.3165 59.1159 82.15C59.3309 81.9829 59.5368 81.7778 59.765 81.6318C59.9933 81.4858 60.3682 81.5793 60.6086 81.4545C60.8489 81.3296 60.9769 80.9423 61.2281 80.8398C61.4793 80.7372 61.8156 80.8416 62.0758 80.762C62.3675 80.6733 62.6573 80.7348 62.9459 80.7578C63.2436 80.7813 63.6053 80.6335 63.8704 80.762C64.1355 80.8905 64.162 81.3411 64.3643 81.56C64.5605 81.7724 64.7169 81.9455 64.828 82.2296C64.9265 82.4824 65.1601 82.6826 65.2356 82.9438C65.3111 83.205 65.5049 83.4433 65.5556 83.7105C65.6064 83.9778 65.3902 84.2824 65.4168 84.5532C65.4433 84.8241 65.4548 85.0823 65.4566 85.3543C65.4584 85.6246 65.7591 85.9105 65.7356 86.1825C65.7126 86.4516 65.3129 86.6724 65.2646 86.9414C65.2169 87.2068 65.2791 87.4879 65.206 87.7515C65.1342 88.0115 65.1118 88.2866 65.0146 88.543C64.9192 88.7945 64.9561 89.1136 64.8365 89.3603Z" fill="#CCC6C0"/>
<path d="M63.0691 82.4824L63.2315 82.147C63.4942 82.2743 63.6892 82.6422 63.9633 82.6591C64.2477 82.6766 64.5527 82.524 64.8184 82.4341C65.084 82.3442 65.241 82.0746 65.4554 81.8876C65.6625 81.7072 65.8448 81.5371 65.9753 81.2765C66.1522 80.9218 66.2277 80.9592 66.4046 80.6039C66.5815 80.2486 66.4414 80.1793 66.6189 79.824C66.7965 79.4687 66.7916 79.4663 66.9686 79.111C67.1455 78.7557 67.2034 78.784 67.381 78.4287C67.5585 78.0734 67.6466 78.1168 67.8242 77.7609C68.0017 77.405 67.9256 77.3676 68.1031 77.0117C68.2806 76.6558 68.3996 76.7156 68.5765 76.3603C68.7534 76.005 68.5862 75.9217 68.7631 75.5664C68.94 75.2111 68.9527 75.2178 69.1296 74.8625C69.3065 74.5072 69.228 74.4685 69.405 74.1132C69.5819 73.7579 69.7491 73.8412 69.9261 73.4865C70.103 73.1318 69.9713 73.0661 70.1483 72.7108C70.3252 72.3555 70.6488 72.5171 70.8257 72.1618C71.0027 71.8065 71.0202 71.8156 71.1977 71.4603C71.3752 71.105 71.0715 70.9542 71.249 70.5989C71.4265 70.2436 71.4809 70.2707 71.6578 69.9154C71.8347 69.5601 71.8873 69.5861 72.0648 69.2302C72.2423 68.8743 72.3323 68.9195 72.5098 68.5636C72.6873 68.2077 72.444 68.0864 72.6215 67.7311C72.799 67.3758 73.1305 67.5411 73.308 67.1852C73.4856 66.8293 73.3829 66.7787 73.5604 66.4234C73.738 66.0681 73.6957 66.0476 73.8732 65.6923C74.0507 65.337 73.8581 65.241 74.0357 64.8863C74.2132 64.5317 74.2192 64.5341 74.3961 64.1788C74.5731 63.8235 74.6002 63.8367 74.7777 63.4814C74.9553 63.1261 75.0821 63.1889 75.259 62.8336C75.4359 62.4783 75.5023 62.5109 75.6792 62.155C75.8562 61.7991 75.887 61.8141 76.0645 61.4582C76.242 61.1023 76.0584 61.0112 76.236 60.6553C76.4135 60.2994 76.3912 60.2886 76.5687 59.9333C76.7462 59.578 76.9014 59.6552 77.0789 59.2999C77.2564 58.9446 77.3917 59.0122 77.5692 58.6569C77.7467 58.3016 77.5118 58.1845 77.6894 57.8292C77.8669 57.4739 77.946 57.5132 78.1235 57.1573C78.301 56.8014 78.4689 56.8852 78.6464 56.5299C78.8239 56.1746 78.6325 56.0787 78.81 55.7228C78.9876 55.3669 78.9906 55.3693 79.1675 55.014C79.3444 54.6587 79.4332 54.7033 79.6101 54.348C79.787 53.9927 79.8661 54.0326 80.043 53.6785C80.22 53.3244 79.877 53.1537 80.0539 52.799C80.2308 52.4443 80.5207 52.589 80.6976 52.2344C80.8745 51.8797 80.5798 51.7331 80.7568 51.379C80.9337 51.0249 81.0363 51.0756 81.2133 50.7209C81.3902 50.3662 81.4995 50.4199 81.6764 50.0646C81.8533 49.7093 81.6691 49.617 81.8467 49.2611C82.0242 48.9052 82.0145 48.8997 82.192 48.5432C82.3696 48.1867 82.657 48.3303 82.8345 47.975C83.012 47.6197 82.8279 47.528 83.0054 47.1727C83.1829 46.8174 83.3333 46.8928 83.5108 46.5375C83.6883 46.1822 83.7239 46.2003 83.9015 45.845C84.079 45.4897 84.0572 45.4789 84.2348 45.123C84.4123 44.7671 84.463 44.7924 84.6405 44.4359C84.818 44.0794 84.7408 44.0408 84.9189 43.6843C85.097 43.3278 85.0487 43.3048 85.2262 42.9489C85.4038 42.593 85.5197 42.6509 85.6972 42.2956C85.8747 41.9403 85.8294 41.9174 86.007 41.5615C86.1845 41.2056 85.923 41.0747 86.1006 40.7182C86.2781 40.3617 86.3499 40.3973 86.5275 40.0408C86.705 39.6843 86.7599 39.712 86.9375 39.3561C87.115 39.0002 87.3251 39.104 87.5026 38.7481C87.6802 38.3922 87.3921 38.248 87.5703 37.8909C87.7484 37.5338 87.6952 37.5085 87.8728 37.152C88.0503 36.7955 88.0895 36.8142 88.2671 36.4577C88.4446 36.1011 88.4428 36.1018 88.6197 35.7465C88.7966 35.3912 88.7453 35.3634 88.9234 35.0069C89.1015 34.6504 89.3938 34.797 89.5713 34.4405C89.7488 34.084 89.5967 34.0086 89.7742 33.6527C89.9517 33.2968 90.096 33.3667 90.2742 33.0096C90.4523 32.6525 90.3949 32.6248 90.5724 32.2677C90.75 31.9106 90.8888 31.9793 91.067 31.6222C91.2451 31.2651 90.9474 31.1161 91.1255 30.759C91.3037 30.4019 91.3302 30.4152 91.5084 30.0581C91.6865 29.701 91.9546 29.8337 92.1327 29.4766C92.3108 29.1194 92.059 28.9922 92.2378 28.6338C92.4165 28.2755 92.5705 28.3515 92.7486 27.9926C92.8585 27.7658 92.9473 27.5082 92.9926 27.2718C93.0396 27.0275 92.7915 26.7747 92.7734 26.5322C92.7552 26.2861 92.7293 26.0816 92.649 25.85C92.5687 25.6183 92.5216 25.4012 92.3833 25.1967C92.2468 24.9952 92.1231 24.8022 91.9347 24.6393C91.7523 24.4819 91.643 24.1827 91.416 24.0723L91.3894 24.1266C91.1624 24.0168 90.8719 24.132 90.6352 24.0868C90.3907 24.0397 90.1782 24.0252 89.9348 24.0427C89.6885 24.0608 89.4252 23.9498 89.1933 24.0301C88.9615 24.1103 88.7024 24.1809 88.4977 24.319C88.296 24.4553 88.2616 24.7793 88.0986 24.9675C87.941 25.1496 87.5521 25.1961 87.4422 25.4229C87.272 25.7812 87.3511 25.8186 87.1814 26.1775C87.0117 26.5364 87.0057 26.5334 86.836 26.8917C86.6663 27.2501 86.5589 27.2 86.3892 27.5589C86.2195 27.9178 86.525 28.062 86.3554 28.4209C86.1857 28.7798 86.0619 28.7219 85.8922 29.0814C85.7226 29.441 85.6773 29.4192 85.5076 29.7788C85.3379 30.1383 85.4315 30.1817 85.2619 30.5412C85.0922 30.9008 85.2425 30.9707 85.0729 31.3297C84.9032 31.6886 84.8754 31.6753 84.7057 32.0342C84.5361 32.3931 84.3736 32.3165 84.2046 32.6754C84.0355 33.0344 84.1339 33.0808 83.9643 33.4391C83.7946 33.7974 83.6146 33.713 83.445 34.0713C83.2753 34.4296 83.448 34.5111 83.2783 34.87C83.1086 35.2289 83.0772 35.2138 82.9076 35.5727C82.7379 35.9316 82.7053 35.9166 82.5362 36.2755C82.3671 36.6344 82.157 36.5361 81.9879 36.895C81.8189 37.2539 82.1166 37.3945 81.9469 37.754C81.7772 38.1135 81.7669 38.1087 81.5973 38.4682C81.4276 38.8277 81.3473 38.7897 81.1776 39.1492C81.0079 39.5088 81.1637 39.5817 80.9941 39.9413C80.8244 40.3008 80.572 40.1813 80.4029 40.5409C80.2339 40.9004 80.4657 41.009 80.296 41.3685C80.1264 41.728 79.8402 41.5923 79.6705 41.9512C79.5008 42.3101 79.717 42.4121 79.5479 42.771C79.3788 43.1299 79.1524 43.0237 78.9827 43.3827C78.8131 43.7416 79.1174 43.8851 78.9477 44.2447C78.778 44.6042 78.5069 44.4763 78.3373 44.8358C78.1676 45.1953 78.4532 45.3299 78.2835 45.69C78.1138 46.0501 78.0837 46.0356 77.914 46.3952C77.7443 46.7547 77.7123 46.7396 77.5426 47.0985C77.373 47.4574 77.344 47.4442 77.1743 47.8031C77.0046 48.162 76.7595 48.0468 76.5904 48.4063C76.4213 48.7658 76.5445 48.8237 76.3748 49.1832C76.2052 49.5428 76.0898 49.4885 75.9202 49.8474C75.7505 50.2063 76.0385 50.3426 75.8688 50.7022C75.6992 51.0617 75.7179 51.0707 75.5482 51.4303C75.3785 51.7898 75.0972 51.6571 74.9281 52.016C74.759 52.3749 74.9818 52.4799 74.8128 52.8382C74.6437 53.1965 74.6268 53.1886 74.4577 53.547C74.2887 53.9053 74.317 53.9186 74.148 54.2769C73.9789 54.6352 73.9336 54.6141 73.7645 54.9718C73.5955 55.3295 73.424 55.2493 73.2549 55.6076C73.0858 55.9659 73.1994 56.0196 73.0303 56.3785C72.8612 56.7374 73.0061 56.8056 72.8365 57.1645C72.6668 57.5234 72.4458 57.4197 72.2761 57.7792C72.1064 58.1387 72.3341 58.2467 72.1644 58.6068C71.9947 58.9669 71.9712 58.9555 71.8015 59.315C71.6318 59.6745 71.3342 59.534 71.1651 59.8929C70.996 60.2518 71.2273 60.361 71.0582 60.7199C70.8892 61.0788 70.7696 61.0227 70.5999 61.3816C70.4302 61.7405 70.5438 61.7942 70.3747 62.1538C70.2056 62.5133 70.2237 62.5223 70.0541 62.8824C69.8844 63.2426 69.8427 63.2233 69.6725 63.5834C69.5022 63.9435 69.35 63.8711 69.1803 64.2306C69.0107 64.5902 69.2039 64.6813 69.0342 65.0408C68.8645 65.4003 68.7033 65.3249 68.5337 65.6844C68.364 66.0439 68.4793 66.0988 68.309 66.4596C68.1388 66.8203 68.1388 66.8197 67.9685 67.1798C67.7982 67.5399 67.5712 67.4326 67.4015 67.7927C67.2318 68.1528 67.2928 68.1818 67.1225 68.5419C66.9522 68.902 66.8973 68.8761 66.727 69.2368C66.5567 69.5975 66.8182 69.72 66.6485 70.0801C66.4789 70.4402 66.2126 70.3154 66.0423 70.6761C65.872 71.0368 65.8799 71.038 65.7102 71.3969C65.5405 71.7559 65.6196 71.7951 65.4499 72.1558C65.2803 72.5165 65.4336 72.5877 65.264 72.9478C65.0943 73.3079 64.9186 73.2247 64.7489 73.5848C64.5792 73.9449 64.7079 74.0065 64.5376 74.3678C64.3673 74.7291 64.3256 74.7086 64.1554 75.0688C63.9851 75.4289 64.1119 75.4892 63.9416 75.8505C63.7713 76.2119 63.6856 76.1714 63.5147 76.5328C63.3438 76.8941 63.4386 76.9375 63.2683 77.2989C63.0981 77.6602 62.8155 77.5275 62.6452 77.8888C62.4749 78.2502 62.7895 78.3998 62.6186 78.7623C62.4478 79.1248 62.458 79.1297 62.2865 79.4916C62.1622 79.7552 61.7365 79.9531 61.7226 80.2275C61.7081 80.5116 61.8011 80.8633 61.8947 81.1275C61.9883 81.3917 62.3246 81.5558 62.5142 81.7682C62.6971 81.9726 62.8046 82.3581 63.0673 82.4848L63.0691 82.4824Z" fill="#F5580A"/>
<mask id="mask0_2973_8436" style="mask-type:luminance" maskUnits="userSpaceOnUse" x="61" y="24" width="32" height="59">
<path d="M63.0691 82.4824L63.2315 82.147C63.4942 82.2743 63.6892 82.6422 63.9633 82.6591C64.2477 82.6766 64.5527 82.524 64.8184 82.4341C65.084 82.3442 65.241 82.0746 65.4554 81.8876C65.6625 81.7072 65.8448 81.5371 65.9753 81.2765C66.1522 80.9218 66.2277 80.9592 66.4046 80.6039C66.5815 80.2486 66.4414 80.1793 66.6189 79.824C66.7965 79.4687 66.7916 79.4663 66.9686 79.111C67.1455 78.7557 67.2034 78.784 67.381 78.4287C67.5585 78.0734 67.6466 78.1168 67.8242 77.7609C68.0017 77.405 67.9256 77.3676 68.1031 77.0117C68.2806 76.6558 68.3996 76.7156 68.5765 76.3603C68.7534 76.005 68.5862 75.9217 68.7631 75.5664C68.94 75.2111 68.9527 75.2178 69.1296 74.8625C69.3065 74.5072 69.228 74.4685 69.405 74.1132C69.5819 73.7579 69.7491 73.8412 69.9261 73.4865C70.103 73.1318 69.9713 73.0661 70.1483 72.7108C70.3252 72.3555 70.6488 72.5171 70.8257 72.1618C71.0027 71.8065 71.0202 71.8156 71.1977 71.4603C71.3752 71.105 71.0715 70.9542 71.249 70.5989C71.4265 70.2436 71.4809 70.2707 71.6578 69.9154C71.8347 69.5601 71.8873 69.5861 72.0648 69.2302C72.2423 68.8743 72.3323 68.9195 72.5098 68.5636C72.6873 68.2077 72.444 68.0864 72.6215 67.7311C72.799 67.3758 73.1305 67.5411 73.308 67.1852C73.4856 66.8293 73.3829 66.7787 73.5604 66.4234C73.738 66.0681 73.6957 66.0476 73.8732 65.6923C74.0507 65.337 73.8581 65.241 74.0357 64.8863C74.2132 64.5317 74.2192 64.5341 74.3961 64.1788C74.5731 63.8235 74.6002 63.8367 74.7777 63.4814C74.9553 63.1261 75.0821 63.1889 75.259 62.8336C75.4359 62.4783 75.5023 62.5109 75.6792 62.155C75.8562 61.7991 75.887 61.8141 76.0645 61.4582C76.242 61.1023 76.0584 61.0112 76.236 60.6553C76.4135 60.2994 76.3912 60.2886 76.5687 59.9333C76.7462 59.578 76.9014 59.6552 77.0789 59.2999C77.2564 58.9446 77.3917 59.0122 77.5692 58.6569C77.7467 58.3016 77.5118 58.1845 77.6894 57.8292C77.8669 57.4739 77.946 57.5132 78.1235 57.1573C78.301 56.8014 78.4689 56.8852 78.6464 56.5299C78.8239 56.1746 78.6325 56.0787 78.81 55.7228C78.9876 55.3669 78.9906 55.3693 79.1675 55.014C79.3444 54.6587 79.4332 54.7033 79.6101 54.348C79.787 53.9927 79.8661 54.0326 80.043 53.6785C80.22 53.3244 79.877 53.1537 80.0539 52.799C80.2308 52.4443 80.5207 52.589 80.6976 52.2344C80.8745 51.8797 80.5798 51.7331 80.7568 51.379C80.9337 51.0249 81.0363 51.0756 81.2133 50.7209C81.3902 50.3662 81.4995 50.4199 81.6764 50.0646C81.8533 49.7093 81.6691 49.617 81.8467 49.2611C82.0242 48.9052 82.0145 48.8997 82.192 48.5432C82.3696 48.1867 82.657 48.3303 82.8345 47.975C83.012 47.6197 82.8279 47.528 83.0054 47.1727C83.1829 46.8174 83.3333 46.8928 83.5108 46.5375C83.6883 46.1822 83.7239 46.2003 83.9015 45.845C84.079 45.4897 84.0572 45.4789 84.2348 45.123C84.4123 44.7671 84.463 44.7924 84.6405 44.4359C84.818 44.0794 84.7408 44.0408 84.9189 43.6843C85.097 43.3278 85.0487 43.3048 85.2262 42.9489C85.4038 42.593 85.5197 42.6509 85.6972 42.2956C85.8747 41.9403 85.8294 41.9174 86.007 41.5615C86.1845 41.2056 85.923 41.0747 86.1006 40.7182C86.2781 40.3617 86.3499 40.3973 86.5275 40.0408C86.705 39.6843 86.7599 39.712 86.9375 39.3561C87.115 39.0002 87.3251 39.104 87.5026 38.7481C87.6802 38.3922 87.3921 38.248 87.5703 37.8909C87.7484 37.5338 87.6952 37.5085 87.8728 37.152C88.0503 36.7955 88.0895 36.8142 88.2671 36.4577C88.4446 36.1011 88.4428 36.1018 88.6197 35.7465C88.7966 35.3912 88.7453 35.3634 88.9234 35.0069C89.1015 34.6504 89.3938 34.797 89.5713 34.4405C89.7488 34.084 89.5967 34.0086 89.7742 33.6527C89.9517 33.2968 90.096 33.3667 90.2742 33.0096C90.4523 32.6525 90.3949 32.6248 90.5724 32.2677C90.75 31.9106 90.8888 31.9793 91.067 31.6222C91.2451 31.2651 90.9474 31.1161 91.1255 30.759C91.3037 30.4019 91.3302 30.4152 91.5084 30.0581C91.6865 29.701 91.9546 29.8337 92.1327 29.4766C92.3108 29.1194 92.059 28.9922 92.2378 28.6338C92.4165 28.2755 92.5705 28.3515 92.7486 27.9926C92.8585 27.7658 92.9473 27.5082 92.9926 27.2718C93.0396 27.0275 92.7915 26.7747 92.7734 26.5322C92.7552 26.2861 92.7293 26.0816 92.649 25.85C92.5687 25.6183 92.5216 25.4012 92.3833 25.1967C92.2468 24.9952 92.1231 24.8022 91.9347 24.6393C91.7523 24.4819 91.643 24.1827 91.416 24.0723L91.3894 24.1266C91.1624 24.0168 90.8719 24.132 90.6352 24.0868C90.3907 24.0397 90.1782 24.0252 89.9348 24.0427C89.6885 24.0608 89.4252 23.9498 89.1933 24.0301C88.9615 24.1103 88.7024 24.1809 88.4977 24.319C88.296 24.4553 88.2616 24.7793 88.0986 24.9675C87.941 25.1496 87.5521 25.1961 87.4422 25.4229C87.272 25.7812 87.3511 25.8186 87.1814 26.1775C87.0117 26.5364 87.0057 26.5334 86.836 26.8917C86.6663 27.2501 86.5589 27.2 86.3892 27.5589C86.2195 27.9178 86.525 28.062 86.3554 28.4209C86.1857 28.7798 86.0619 28.7219 85.8922 29.0814C85.7226 29.441 85.6773 29.4192 85.5076 29.7788C85.3379 30.1383 85.4315 30.1817 85.2619 30.5412C85.0922 30.9008 85.2425 30.9707 85.0729 31.3297C84.9032 31.6886 84.8754 31.6753 84.7057 32.0342C84.5361 32.3931 84.3736 32.3165 84.2046 32.6754C84.0355 33.0344 84.1339 33.0808 83.9643 33.4391C83.7946 33.7974 83.6146 33.713 83.445 34.0713C83.2753 34.4296 83.448 34.5111 83.2783 34.87C83.1086 35.2289 83.0772 35.2138 82.9076 35.5727C82.7379 35.9316 82.7053 35.9166 82.5362 36.2755C82.3671 36.6344 82.157 36.5361 81.9879 36.895C81.8189 37.2539 82.1166 37.3945 81.9469 37.754C81.7772 38.1135 81.7669 38.1087 81.5973 38.4682C81.4276 38.8277 81.3473 38.7897 81.1776 39.1492C81.0079 39.5088 81.1637 39.5817 80.9941 39.9413C80.8244 40.3008 80.572 40.1813 80.4029 40.5409C80.2339 40.9004 80.4657 41.009 80.296 41.3685C80.1264 41.728 79.8402 41.5923 79.6705 41.9512C79.5008 42.3101 79.717 42.4121 79.5479 42.771C79.3788 43.1299 79.1524 43.0237 78.9827 43.3827C78.8131 43.7416 79.1174 43.8851 78.9477 44.2447C78.778 44.6042 78.5069 44.4763 78.3373 44.8358C78.1676 45.1953 78.4532 45.3299 78.2835 45.69C78.1138 46.0501 78.0837 46.0356 77.914 46.3952C77.7443 46.7547 77.7123 46.7396 77.5426 47.0985C77.373 47.4574 77.344 47.4442 77.1743 47.8031C77.0046 48.162 76.7595 48.0468 76.5904 48.4063C76.4213 48.7658 76.5445 48.8237 76.3748 49.1832C76.2052 49.5428 76.0898 49.4885 75.9202 49.8474C75.7505 50.2063 76.0385 50.3426 75.8688 50.7022C75.6992 51.0617 75.7179 51.0707 75.5482 51.4303C75.3785 51.7898 75.0972 51.6571 74.9281 52.016C74.759 52.3749 74.9818 52.4799 74.8128 52.8382C74.6437 53.1965 74.6268 53.1886 74.4577 53.547C74.2887 53.9053 74.317 53.9186 74.148 54.2769C73.9789 54.6352 73.9336 54.6141 73.7645 54.9718C73.5955 55.3295 73.424 55.2493 73.2549 55.6076C73.0858 55.9659 73.1994 56.0196 73.0303 56.3785C72.8612 56.7374 73.0061 56.8056 72.8365 57.1645C72.6668 57.5234 72.4458 57.4197 72.2761 57.7792C72.1064 58.1387 72.3341 58.2467 72.1644 58.6068C71.9947 58.9669 71.9712 58.9555 71.8015 59.315C71.6318 59.6745 71.3342 59.534 71.1651 59.8929C70.996 60.2518 71.2273 60.361 71.0582 60.7199C70.8892 61.0788 70.7696 61.0227 70.5999 61.3816C70.4302 61.7405 70.5438 61.7942 70.3747 62.1538C70.2056 62.5133 70.2237 62.5223 70.0541 62.8824C69.8844 63.2426 69.8427 63.2233 69.6725 63.5834C69.5022 63.9435 69.35 63.8711 69.1803 64.2306C69.0107 64.5902 69.2039 64.6813 69.0342 65.0408C68.8645 65.4003 68.7033 65.3249 68.5337 65.6844C68.364 66.0439 68.4793 66.0988 68.309 66.4596C68.1388 66.8203 68.1388 66.8197 67.9685 67.1798C67.7982 67.5399 67.5712 67.4326 67.4015 67.7927C67.2318 68.1528 67.2928 68.1818 67.1225 68.5419C66.9522 68.902 66.8973 68.8761 66.727 69.2368C66.5567 69.5975 66.8182 69.72 66.6485 70.0801C66.4789 70.4402 66.2126 70.3154 66.0423 70.6761C65.872 71.0368 65.8799 71.038 65.7102 71.3969C65.5405 71.7559 65.6196 71.7951 65.4499 72.1558C65.2803 72.5165 65.4336 72.5877 65.264 72.9478C65.0943 73.3079 64.9186 73.2247 64.7489 73.5848C64.5792 73.9449 64.7079 74.0065 64.5376 74.3678C64.3673 74.7291 64.3256 74.7086 64.1554 75.0688C63.9851 75.4289 64.1119 75.4892 63.9416 75.8505C63.7713 76.2119 63.6856 76.1714 63.5147 76.5328C63.3438 76.8941 63.4386 76.9375 63.2683 77.2989C63.0981 77.6602 62.8155 77.5275 62.6452 77.8888C62.4749 78.2502 62.7895 78.3998 62.6186 78.7623C62.4478 79.1248 62.458 79.1297 62.2865 79.4916C62.1622 79.7552 61.7365 79.9531 61.7226 80.2275C61.7081 80.5116 61.8011 80.8633 61.8947 81.1275C61.9883 81.3917 62.3246 81.5558 62.5142 81.7682C62.6971 81.9726 62.8046 82.3581 63.0673 82.4848L63.0691 82.4824Z" fill="white"/>
</mask>
<g mask="url(#mask0_2973_8436)">
<path d="M65.0127 88.1575C64.6275 88.2842 64.6746 87.9385 64.3099 87.7618C63.9452 87.585 63.9126 87.6538 63.5485 87.4777C63.1844 87.3015 63.2484 87.1688 62.8849 86.9927C62.5214 86.8165 62.4344 86.9915 62.0691 86.8147C61.7038 86.638 61.7159 86.6145 61.3512 86.4377C60.9865 86.261 61.0318 86.1669 60.6664 85.9895C60.3011 85.8122 60.1864 86.0486 59.8205 85.8713C59.4546 85.6939 59.4661 85.6728 59.1007 85.4961C58.7354 85.3193 58.8979 84.9839 58.5319 84.8066C58.166 84.6292 58.0459 84.8754 57.6787 84.698C57.3116 84.5207 57.0991 84.6624 56.9572 84.2806C56.8213 83.915 57.1256 83.9096 57.2959 83.5591C57.4662 83.2087 57.3726 83.1634 57.5429 82.8129C57.7132 82.4625 57.8822 82.5445 58.0525 82.1934C58.2228 81.8424 58.0616 81.7639 58.2318 81.4129C58.4021 81.0618 58.6147 81.1643 58.7849 80.8133C58.9552 80.4622 59.0337 80.5002 59.204 80.1491C59.3743 79.798 59.2094 79.7178 59.3797 79.3667C59.55 79.0156 59.4268 78.9553 59.5977 78.6042C59.7686 78.2532 60.0656 78.3973 60.2365 78.0463C60.4074 77.6952 60.1918 77.5926 60.3615 77.2434C60.5312 76.8941 60.437 76.8471 60.6067 76.4972C60.7763 76.1473 60.7123 76.1141 60.8832 75.7625C61.0541 75.4108 61.129 75.4476 61.2992 75.0971C61.4695 74.7466 61.5009 74.7611 61.6712 74.41C61.8415 74.059 61.932 74.1018 62.1029 73.7495C62.2738 73.3972 62.3517 73.4358 62.522 73.0842C62.6923 72.7325 62.5546 72.6649 62.7255 72.3132C62.8963 71.9616 62.996 72.0092 63.1669 71.6563C63.3377 71.3034 63.4434 71.3553 63.6143 71.0036C63.7852 70.652 63.6409 70.5808 63.8117 70.2285C63.9826 69.8762 63.8896 69.8298 64.0611 69.4763C64.2326 69.1228 64.0949 68.8797 64.4681 68.7566C64.8533 68.63 64.924 68.8338 65.2887 69.0106C65.6534 69.1873 65.5743 69.349 65.9384 69.5251C66.3025 69.7013 66.3055 69.6952 66.6696 69.8714C67.0337 70.0475 67.0228 70.0729 67.3882 70.2496C67.7535 70.4264 67.7275 70.4776 68.0922 70.6544C68.4569 70.8311 68.4611 70.8233 68.8265 71C69.1918 71.1768 69.2703 71.0163 69.6356 71.1931C70.0009 71.3698 70.0353 71.2992 70.4 71.476C70.7647 71.6527 70.6283 71.9362 70.9936 72.113C71.3589 72.2897 71.4247 72.1576 71.7912 72.3356C72.1577 72.5135 72.2429 72.3687 72.3848 72.75C72.5206 73.1155 72.5381 73.1421 72.3679 73.4925C72.1976 73.843 72.0243 73.7592 71.854 74.1096C71.6837 74.4601 71.8148 74.524 71.6445 74.8745C71.4742 75.225 71.2604 75.1224 71.0902 75.4735C70.9199 75.8246 70.9857 75.8566 70.8148 76.2076C70.644 76.5587 70.6071 76.5406 70.4368 76.8917C70.2666 77.2428 70.1241 77.174 69.9538 77.5251C69.7835 77.8762 69.8668 77.9172 69.696 78.2689C69.5251 78.6205 69.7249 78.7165 69.5541 79.0675C69.3832 79.4186 69.1628 79.31 68.9931 79.6599C68.8234 80.0098 68.818 80.0073 68.6477 80.3578C68.4774 80.7083 68.6755 80.8054 68.5046 81.1577C68.3337 81.51 68.3452 81.5142 68.1749 81.8653C68.0047 82.2163 67.7601 82.0981 67.5898 82.4486C67.4196 82.7991 67.393 82.7882 67.2221 83.1405C67.0512 83.4928 67.2638 83.5947 67.0929 83.9464C66.922 84.2981 66.9081 84.2914 66.7372 84.6437C66.5664 84.996 66.5839 85.0044 66.4124 85.3573C66.2409 85.7102 66.1793 85.6788 66.0084 86.0311C65.8376 86.3834 65.7476 86.34 65.5767 86.6929C65.4058 87.0457 65.6166 87.1181 65.523 87.5C65.4233 87.9054 65.3835 88.035 65.0097 88.1581L65.0127 88.1575Z" fill="#7A7671"/>
</g>
<path d="M30.3337 90.8159C30.4249 90.4546 30.7087 90.6283 31.0402 90.4564C31.3717 90.2845 31.3041 90.1584 31.6344 89.9877C31.9659 89.8158 32.1035 90.0812 32.4356 89.9093C32.7677 89.7373 32.6337 89.4792 32.9664 89.3072C33.2991 89.1353 33.3637 89.2584 33.697 89.0859C34.0303 88.9133 33.9633 88.8023 34.3141 88.9351C34.706 89.0834 34.6341 89.107 34.8274 89.4792C35.0206 89.8513 35.0997 89.8103 35.2935 90.1825C35.4873 90.5547 35.3974 90.6005 35.59 90.9727C35.7826 91.3449 35.7349 91.3703 35.9281 91.7425C36.1213 92.1146 36.3079 92.0193 36.5017 92.3927C36.6956 92.7661 36.4148 92.9115 36.6086 93.2849C36.7336 93.5256 36.6865 93.7295 36.675 93.9822C36.663 94.2428 36.6636 94.4371 36.5235 94.6566C36.387 94.8696 36.3653 95.2405 36.1244 95.3654C35.7898 95.5385 35.7862 95.5319 35.4517 95.705C35.1172 95.8781 34.9741 95.6025 34.6396 95.7756C34.3986 95.9005 34.2296 95.9741 33.9766 95.962C33.7157 95.9499 33.4162 96.0706 33.1964 95.9306C32.9833 95.7943 32.8511 95.5361 32.7261 95.2954C32.5328 94.9232 32.4713 94.9558 32.278 94.5836C32.0848 94.2114 31.984 94.2633 31.7907 93.8911C31.5975 93.5189 31.6108 93.5123 31.4182 93.1407C31.2256 92.7691 31.4031 92.6756 31.2099 92.3035C31.0167 91.9313 31.1217 91.8408 30.8488 91.5205C30.5445 91.1634 30.2317 91.2231 30.3349 90.8153L30.3337 90.8159Z" fill="#3BA36F"/>
<path d="M35.5097 89.1637C35.1764 89.3362 35.1673 89.3193 34.834 89.4918C34.5007 89.6643 34.5997 89.8538 34.267 90.0257C33.9343 90.1976 33.8159 89.9714 33.4826 90.1439C33.1493 90.3164 33.3039 90.6114 32.9724 90.7833C32.6391 90.9558 32.5582 90.8008 32.2249 90.9733C31.8916 91.1459 31.9719 91.3027 31.638 91.4758C31.3041 91.6489 31.2268 91.5024 30.8916 91.6761C30.5565 91.8498 30.4684 91.6791 30.1333 91.8528C29.8839 91.9819 29.7227 92.3161 29.4606 92.3764C29.1901 92.4386 28.8948 92.3463 28.6237 92.3384C28.3484 92.3306 28.1243 92.143 27.8617 92.067C27.599 91.991 27.3901 91.8939 27.1528 91.7545C26.9191 91.617 26.5079 91.7063 26.3123 91.5096C26.1227 91.3196 25.8757 91.1079 25.7332 90.8666C25.5315 90.5239 25.7429 90.3997 25.5412 90.057C25.3395 89.7144 25.2447 89.7705 25.0431 89.4279C24.8414 89.0853 25.0853 88.9423 24.8836 88.6003C24.682 88.2582 24.4948 88.368 24.2937 88.026C24.0926 87.684 23.9157 87.7877 23.714 87.4451C23.5124 87.1025 23.7768 86.9468 23.5752 86.6042C23.3735 86.2616 23.3361 86.2833 23.1338 85.94C22.9315 85.5968 22.9858 85.5648 22.783 85.221C22.5801 84.8772 22.4901 84.9303 22.2872 84.5858C22.0843 84.2414 22.1109 84.2269 21.9086 83.8837C21.7064 83.5404 21.6925 83.5489 21.4902 83.2056C21.2879 82.8624 21.1545 82.9414 20.9522 82.5982C20.7499 82.255 20.9365 82.1458 20.7342 81.8025C20.5319 81.4593 20.3115 81.589 20.1092 81.2458C19.907 80.9025 20.0507 80.8175 19.8484 80.4736C19.6461 80.1298 19.6733 80.1129 19.471 79.7691C19.2687 79.4252 19.1486 79.4958 18.9457 79.1526C18.7428 78.8093 18.7808 78.787 18.5786 78.4438C18.3763 78.1006 18.4989 78.0282 18.2966 77.6843C18.0943 77.3405 17.9693 77.4135 17.7664 77.069C17.5635 76.7246 17.6722 76.6613 17.4694 76.3174C17.2665 75.9736 17.0509 76.1009 16.848 75.757C16.6451 75.4132 16.9368 75.2419 16.7345 74.8974C16.5322 74.553 16.5389 74.5488 16.336 74.2043C16.1331 73.8599 15.8396 74.033 15.6368 73.6892C15.4339 73.3454 15.4592 73.3321 15.2576 72.9894C15.0559 72.6468 15.0879 72.6275 14.8856 72.2843C14.6833 71.941 14.7709 71.888 14.568 71.5429C14.3651 71.1979 14.2709 71.2546 14.068 70.9107C13.8652 70.5669 14.0723 70.4451 13.87 70.1012C13.6677 69.7574 13.6466 69.7676 13.4437 69.4226C13.2408 69.0775 13.0899 69.1668 12.887 68.8224C12.6841 68.4779 12.6171 68.5166 12.4136 68.1721C12.2101 67.8277 12.3272 67.7583 12.1237 67.4127C11.9203 67.067 11.9003 67.0797 11.6974 66.7346C11.4946 66.3896 11.6473 66.2991 11.4438 65.9541C11.2404 65.609 11.2989 65.5728 11.0948 65.2266C10.8907 64.8803 10.8714 64.8918 10.6673 64.5455C10.5363 64.3235 10.3745 64.1528 10.3014 63.9176C10.2259 63.6739 10.0176 63.4585 10.0007 63.2106C9.98381 62.9585 10.1704 62.7178 10.2114 62.4711C10.2531 62.2231 10.0665 61.8986 10.1637 61.6664C10.2604 61.4353 10.5755 61.3062 10.7241 61.1011C10.8702 60.9003 10.9922 60.6728 11.1854 60.507C11.3726 60.3465 11.6642 60.3549 11.8931 60.2361C12.2342 60.0594 12.1207 59.8404 12.4613 59.6643C12.8018 59.4881 12.8302 59.5376 13.1726 59.3602C13.5149 59.1829 13.6188 59.3844 13.9606 59.2076C14.3023 59.0309 14.2444 58.9187 14.5861 58.7413C14.9279 58.564 14.8433 58.3993 15.1863 58.2213C15.5293 58.0434 15.5685 58.1206 15.9109 57.9433C16.2533 57.7659 16.3613 57.9734 16.7043 57.7961C17.0473 57.6187 16.9591 57.4486 17.3027 57.2707C17.6463 57.0927 17.7103 57.2182 18.0526 57.0402C18.395 56.8623 18.3431 56.7603 18.686 56.5824C19.029 56.4044 19.1033 56.5444 19.4475 56.3658C19.7916 56.1873 19.6371 55.8899 19.9812 55.7113C20.2101 55.5925 20.4842 55.5171 20.7233 55.4568C20.9709 55.3946 21.2493 55.3422 21.498 55.3391C21.751 55.3355 22.0385 55.3446 22.283 55.3989C22.5288 55.4531 22.7799 55.5943 23.0064 55.7041C23.2322 55.8127 23.5299 55.8826 23.7267 56.0419C23.92 56.1981 24.0196 56.4985 24.1748 56.7006C24.3251 56.8961 24.3698 57.1669 24.4761 57.4016C24.6403 57.7641 24.8106 57.6869 24.9748 58.0488C25.1391 58.4108 24.9712 58.4868 25.1348 58.8487C25.2985 59.2106 25.2604 59.2275 25.4241 59.5895C25.5877 59.9514 25.6728 59.9128 25.8365 60.2747C26.0001 60.6366 26.1788 60.5558 26.3431 60.9177C26.5073 61.2797 26.2821 61.3816 26.4463 61.7436C26.6106 62.1055 26.7253 62.0542 26.8895 62.4168C27.0538 62.7793 26.9596 62.8221 27.1244 63.1853C27.2893 63.5484 27.1468 63.6136 27.311 63.9773C27.4752 64.341 27.57 64.2976 27.7343 64.6607C27.8985 65.0239 27.9535 64.9986 28.1177 65.3617C28.2819 65.7248 28.2204 65.752 28.3846 66.1145C28.5488 66.4771 28.7565 66.3836 28.9208 66.7461C29.085 67.1086 28.8852 67.1991 29.0494 67.5623C29.2136 67.9254 29.3718 67.8542 29.5367 68.218C29.7015 68.5817 29.7329 68.5678 29.8972 68.9316C30.0614 69.2953 29.8102 69.4081 29.9751 69.7719C30.1399 70.1356 30.4352 70.0011 30.5994 70.3642C30.7636 70.7274 30.5765 70.8118 30.7413 71.1756C30.9061 71.5393 30.7902 71.5918 30.955 71.9555C31.1199 72.3193 31.3916 72.1968 31.5559 72.5606C31.7201 72.9243 31.6513 72.9551 31.8161 73.3188C31.9809 73.6826 32.0389 73.6566 32.2031 74.0204C32.3674 74.3841 32.2696 74.4287 32.4344 74.7931C32.5992 75.1574 32.7091 75.1074 32.8734 75.4711C33.0376 75.8349 32.9428 75.8783 33.1077 76.2426C33.2725 76.607 33.0268 76.7162 33.191 77.0787C33.3552 77.4412 33.4543 77.3984 33.6191 77.7628C33.7839 78.1271 34.0176 78.0203 34.1819 78.3841C34.3461 78.7478 34.2235 78.8033 34.3878 79.1665C34.552 79.5296 34.4566 79.5742 34.622 79.9392C34.7875 80.3041 34.7694 80.3108 34.9342 80.6751C35.0991 81.0395 35.2398 80.9761 35.4046 81.3405C35.5694 81.7048 35.6467 81.6704 35.8116 82.0354C35.9764 82.4003 35.7874 82.4854 35.9523 82.8497C36.1171 83.2141 36.0724 83.2352 36.2379 83.6001C36.4033 83.9651 36.5313 83.9084 36.6968 84.2745C36.8622 84.6407 37.015 84.5719 37.1804 84.9375C37.2964 85.1933 37.0784 85.5546 37.1243 85.8194C37.172 86.0927 37.2052 86.3364 37.1834 86.6066C37.1611 86.8805 37.1092 87.1236 37.0198 87.3817C36.9304 87.6399 36.8737 87.8981 36.7215 88.1273C36.5712 88.3535 36.3315 88.4784 36.1249 88.6636C35.9245 88.8428 35.7584 89.0364 35.5091 89.1649L35.5097 89.1637Z" fill="#BCEBB2"/>
<mask id="mask1_2973_8436" style="mask-type:luminance" maskUnits="userSpaceOnUse" x="9" y="55" width="29" height="38">
<path d="M35.5097 89.1637C35.1764 89.3362 35.1673 89.3193 34.834 89.4918C34.5007 89.6643 34.5997 89.8538 34.267 90.0257C33.9343 90.1976 33.8159 89.9714 33.4826 90.1439C33.1493 90.3164 33.3039 90.6114 32.9724 90.7833C32.6391 90.9558 32.5582 90.8008 32.2249 90.9733C31.8916 91.1459 31.9719 91.3027 31.638 91.4758C31.3041 91.6489 31.2268 91.5024 30.8916 91.6761C30.5565 91.8498 30.4684 91.6791 30.1333 91.8528C29.8839 91.9819 29.7227 92.3161 29.4606 92.3764C29.1901 92.4386 28.8948 92.3463 28.6237 92.3384C28.3484 92.3306 28.1243 92.143 27.8617 92.067C27.599 91.991 27.3901 91.8939 27.1528 91.7545C26.9191 91.617 26.5079 91.7063 26.3123 91.5096C26.1227 91.3196 25.8757 91.1079 25.7332 90.8666C25.5315 90.5239 25.7429 90.3997 25.5412 90.057C25.3395 89.7144 25.2447 89.7705 25.0431 89.4279C24.8414 89.0853 25.0853 88.9423 24.8836 88.6003C24.682 88.2582 24.4948 88.368 24.2937 88.026C24.0926 87.684 23.9157 87.7877 23.714 87.4451C23.5124 87.1025 23.7768 86.9468 23.5752 86.6042C23.3735 86.2616 23.3361 86.2833 23.1338 85.94C22.9315 85.5968 22.9858 85.5648 22.783 85.221C22.5801 84.8772 22.4901 84.9303 22.2872 84.5858C22.0843 84.2414 22.1109 84.2269 21.9086 83.8837C21.7064 83.5404 21.6925 83.5489 21.4902 83.2056C21.2879 82.8624 21.1545 82.9414 20.9522 82.5982C20.7499 82.255 20.9365 82.1458 20.7342 81.8025C20.5319 81.4593 20.3115 81.589 20.1092 81.2458C19.907 80.9025 20.0507 80.8175 19.8484 80.4736C19.6461 80.1298 19.6733 80.1129 19.471 79.7691C19.2687 79.4252 19.1486 79.4958 18.9457 79.1526C18.7428 78.8093 18.7808 78.787 18.5786 78.4438C18.3763 78.1006 18.4989 78.0282 18.2966 77.6843C18.0943 77.3405 17.9693 77.4135 17.7664 77.069C17.5635 76.7246 17.6722 76.6613 17.4694 76.3174C17.2665 75.9736 17.0509 76.1009 16.848 75.757C16.6451 75.4132 16.9368 75.2419 16.7345 74.8974C16.5322 74.553 16.5389 74.5488 16.336 74.2043C16.1331 73.8599 15.8396 74.033 15.6368 73.6892C15.4339 73.3454 15.4592 73.3321 15.2576 72.9894C15.0559 72.6468 15.0879 72.6275 14.8856 72.2843C14.6833 71.941 14.7709 71.888 14.568 71.5429C14.3651 71.1979 14.2709 71.2546 14.068 70.9107C13.8652 70.5669 14.0723 70.4451 13.87 70.1012C13.6677 69.7574 13.6466 69.7676 13.4437 69.4226C13.2408 69.0775 13.0899 69.1668 12.887 68.8224C12.6841 68.4779 12.6171 68.5166 12.4136 68.1721C12.2101 67.8277 12.3272 67.7583 12.1237 67.4127C11.9203 67.067 11.9003 67.0797 11.6974 66.7346C11.4946 66.3896 11.6473 66.2991 11.4438 65.9541C11.2404 65.609 11.2989 65.5728 11.0948 65.2266C10.8907 64.8803 10.8714 64.8918 10.6673 64.5455C10.5363 64.3235 10.3745 64.1528 10.3014 63.9176C10.2259 63.6739 10.0176 63.4585 10.0007 63.2106C9.98381 62.9585 10.1704 62.7178 10.2114 62.4711C10.2531 62.2231 10.0665 61.8986 10.1637 61.6664C10.2604 61.4353 10.5755 61.3062 10.7241 61.1011C10.8702 60.9003 10.9922 60.6728 11.1854 60.507C11.3726 60.3465 11.6642 60.3549 11.8931 60.2361C12.2342 60.0594 12.1207 59.8404 12.4613 59.6643C12.8018 59.4881 12.8302 59.5376 13.1726 59.3602C13.5149 59.1829 13.6188 59.3844 13.9606 59.2076C14.3023 59.0309 14.2444 58.9187 14.5861 58.7413C14.9279 58.564 14.8433 58.3993 15.1863 58.2213C15.5293 58.0434 15.5685 58.1206 15.9109 57.9433C16.2533 57.7659 16.3613 57.9734 16.7043 57.7961C17.0473 57.6187 16.9591 57.4486 17.3027 57.2707C17.6463 57.0927 17.7103 57.2182 18.0526 57.0402C18.395 56.8623 18.3431 56.7603 18.686 56.5824C19.029 56.4044 19.1033 56.5444 19.4475 56.3658C19.7916 56.1873 19.6371 55.8899 19.9812 55.7113C20.2101 55.5925 20.4842 55.5171 20.7233 55.4568C20.9709 55.3946 21.2493 55.3422 21.498 55.3391C21.751 55.3355 22.0385 55.3446 22.283 55.3989C22.5288 55.4531 22.7799 55.5943 23.0064 55.7041C23.2322 55.8127 23.5299 55.8826 23.7267 56.0419C23.92 56.1981 24.0196 56.4985 24.1748 56.7006C24.3251 56.8961 24.3698 57.1669 24.4761 57.4016C24.6403 57.7641 24.8106 57.6869 24.9748 58.0488C25.1391 58.4108 24.9712 58.4868 25.1348 58.8487C25.2985 59.2106 25.2604 59.2275 25.4241 59.5895C25.5877 59.9514 25.6728 59.9128 25.8365 60.2747C26.0001 60.6366 26.1788 60.5558 26.3431 60.9177C26.5073 61.2797 26.2821 61.3816 26.4463 61.7436C26.6106 62.1055 26.7253 62.0542 26.8895 62.4168C27.0538 62.7793 26.9596 62.8221 27.1244 63.1853C27.2893 63.5484 27.1468 63.6136 27.311 63.9773C27.4752 64.341 27.57 64.2976 27.7343 64.6607C27.8985 65.0239 27.9535 64.9986 28.1177 65.3617C28.2819 65.7248 28.2204 65.752 28.3846 66.1145C28.5488 66.4771 28.7565 66.3836 28.9208 66.7461C29.085 67.1086 28.8852 67.1991 29.0494 67.5623C29.2136 67.9254 29.3718 67.8542 29.5367 68.218C29.7015 68.5817 29.7329 68.5678 29.8972 68.9316C30.0614 69.2953 29.8102 69.4081 29.9751 69.7719C30.1399 70.1356 30.4352 70.0011 30.5994 70.3642C30.7636 70.7274 30.5765 70.8118 30.7413 71.1756C30.9061 71.5393 30.7902 71.5918 30.955 71.9555C31.1199 72.3193 31.3916 72.1968 31.5559 72.5606C31.7201 72.9243 31.6513 72.9551 31.8161 73.3188C31.9809 73.6826 32.0389 73.6566 32.2031 74.0204C32.3674 74.3841 32.2696 74.4287 32.4344 74.7931C32.5992 75.1574 32.7091 75.1074 32.8734 75.4711C33.0376 75.8349 32.9428 75.8783 33.1077 76.2426C33.2725 76.607 33.0268 76.7162 33.191 77.0787C33.3552 77.4412 33.4543 77.3984 33.6191 77.7628C33.7839 78.1271 34.0176 78.0203 34.1819 78.3841C34.3461 78.7478 34.2235 78.8033 34.3878 79.1665C34.552 79.5296 34.4566 79.5742 34.622 79.9392C34.7875 80.3041 34.7694 80.3108 34.9342 80.6751C35.0991 81.0395 35.2398 80.9761 35.4046 81.3405C35.5694 81.7048 35.6467 81.6704 35.8116 82.0354C35.9764 82.4003 35.7874 82.4854 35.9523 82.8497C36.1171 83.2141 36.0724 83.2352 36.2379 83.6001C36.4033 83.9651 36.5313 83.9084 36.6968 84.2745C36.8622 84.6407 37.015 84.5719 37.1804 84.9375C37.2964 85.1933 37.0784 85.5546 37.1243 85.8194C37.172 86.0927 37.2052 86.3364 37.1834 86.6066C37.1611 86.8805 37.1092 87.1236 37.0198 87.3817C36.9304 87.6399 36.8737 87.8981 36.7215 88.1273C36.5712 88.3535 36.3315 88.4784 36.1249 88.6636C35.9245 88.8428 35.7584 89.0364 35.5091 89.1649L35.5097 89.1637Z" fill="white"/>
</mask>
<g mask="url(#mask1_2973_8436)">
<path d="M22.3658 87.0126C22.7208 86.8286 22.8706 87.1163 23.2256 86.9323C23.5807 86.7484 23.5976 86.7809 23.9532 86.5969C24.3089 86.413 24.1513 86.1114 24.5063 85.9274C24.8614 85.7434 25.034 86.0758 25.3891 85.8918C25.7441 85.7078 25.6149 85.4581 25.9706 85.2735C26.3262 85.0889 26.4609 85.3501 26.8159 85.1661C27.171 84.9821 26.9868 84.6304 27.3406 84.4477C27.6945 84.2649 27.8388 84.5418 28.1932 84.3584C28.5477 84.175 28.468 84.0176 28.8236 83.833C29.1793 83.6484 29.1467 83.5869 29.5017 83.4029C29.8568 83.2189 29.8241 83.1562 30.1792 82.9722C30.5342 82.7882 30.7196 83.1423 31.0759 82.9577C31.4321 82.7731 31.2576 82.4383 31.6133 82.2543C31.9689 82.0704 31.9798 82.0903 32.336 81.9057C32.6923 81.7211 32.8475 82.0203 33.2043 81.8357C33.5612 81.6511 33.4773 81.4913 33.8335 81.3067C34.1898 81.1221 34.1288 81.0033 34.485 80.8187C34.8413 80.6341 34.9325 80.8072 35.2899 80.622C35.6474 80.4368 35.5858 80.318 35.9432 80.1328C36.1775 80.0116 36.468 79.9187 36.7137 79.9301C36.9673 79.9416 37.2638 80.0411 37.4776 80.1774C37.6847 80.3096 37.9703 80.4972 38.0916 80.7306C38.3036 81.139 38.0753 81.2572 38.2873 81.665C38.4992 82.0728 38.693 81.9726 38.905 82.381C39.0263 82.6151 38.812 82.9275 38.8005 83.1731C38.789 83.4264 38.8162 83.6599 38.6798 83.874C38.5475 84.0809 38.3471 84.1937 38.1134 84.315C37.7583 84.4989 37.8984 84.7692 37.5428 84.9532C37.1871 85.1371 37.0247 84.8229 36.669 85.0069C36.3134 85.1908 36.3339 85.2282 35.9789 85.4122C35.6238 85.5962 35.6462 85.6396 35.2911 85.8236C34.9361 86.0076 34.892 85.9244 34.5364 86.1083C34.1807 86.2923 34.3129 86.5469 33.9579 86.7309C33.6028 86.9148 33.5527 86.8153 33.1995 86.9981C32.8463 87.1809 32.74 86.9782 32.3855 87.1616C32.0311 87.3449 32.1175 87.5151 31.7618 87.6996C31.4062 87.8842 31.4291 87.9265 31.0741 88.1104C30.719 88.2944 30.7184 88.2938 30.3634 88.4772C30.0083 88.6606 29.986 88.6214 29.6303 88.806C29.2747 88.9905 29.2258 88.8964 28.8701 89.0804C28.5145 89.2644 28.6014 89.4339 28.2458 89.6179C27.8901 89.8019 27.9276 89.8767 27.5713 90.0613C27.215 90.2458 27.1124 90.0474 26.7567 90.232C26.4011 90.4166 26.3498 90.32 25.9935 90.5046C25.6373 90.6892 25.6342 90.6868 25.2768 90.872C24.9193 91.0572 25.0069 91.2261 24.6494 91.4113C24.4151 91.5325 24.1609 91.4644 23.9152 91.4529C23.6616 91.4414 23.4732 91.369 23.2594 91.2327C23.0523 91.1006 22.9799 90.9263 22.8585 90.6922C22.6465 90.2838 22.2921 90.4678 22.0802 90.0595C21.8682 89.6511 22.1695 89.4954 21.9576 89.0871C21.8362 88.853 21.5391 88.6545 21.5506 88.409C21.5621 88.1557 21.9383 88.0212 22.0747 87.8076C22.207 87.6007 22.1315 87.1338 22.3658 87.0126Z" fill="#3BA36F"/>
</g>
</g>
<defs>
<clipPath id="clip0_2973_8436">
<rect width="83" height="88" fill="white" transform="translate(10 8)"/>
</clipPath>
</defs>
</svg>
