<svg width="104" height="104" viewBox="0 0 104 104" fill="none" xmlns="http://www.w3.org/2000/svg">
<path d="M93.6189 71.821C93.1853 71.821 93.1853 71.9627 92.751 71.9627C92.3167 71.9627 92.3167 71.9461 91.8824 71.9461C91.4481 71.9461 91.4481 72.0732 91.0138 72.0732C90.5796 72.0732 90.5796 72.2102 90.1453 72.2102C89.711 72.2102 89.7116 72.0156 89.2787 72.0156C88.8457 72.0156 88.8451 72.0904 88.4121 72.0904C87.9791 72.0904 87.9771 71.864 87.5422 71.864C87.1073 71.864 87.1079 72.0196 86.6743 72.0196C86.2407 72.0196 86.2393 71.8879 85.8051 71.8879C85.3708 71.8879 85.3701 72.146 84.9345 72.146C84.4989 72.146 84.5002 71.919 84.0653 71.919C83.6303 71.919 83.6297 71.772 83.1941 71.772C82.7585 71.772 82.7578 72.1897 82.3216 72.1897C81.8853 72.1897 81.9176 71.9488 81.4998 71.8217C81.3779 71.7846 81.4233 71.8323 81.4833 71.7191C81.679 71.3504 81.7443 71.3855 81.9453 71.0201C82.1463 70.6548 82.0606 70.6058 82.2622 70.2391C82.4639 69.8724 82.4402 69.8598 82.6412 69.4938C82.8422 69.1278 83.1743 69.3111 83.376 68.9451C83.5776 68.5791 83.287 68.4196 83.488 68.0542C83.6897 67.6875 83.836 67.7683 84.0376 67.4016C84.2393 67.0349 84.3744 67.109 84.5767 66.7417C84.779 66.3743 84.5299 66.2346 84.7329 65.866C84.9358 65.4973 85.181 65.6072 85.3365 65.2167C85.3365 64.938 84.9655 64.6918 84.8423 64.4462C84.7236 64.2106 84.7724 63.8426 84.5602 63.6526C84.3651 63.4779 84.1655 63.2005 83.9091 63.0781C83.6719 62.9642 83.2811 63.2475 83.0049 63.188C82.7466 63.1324 82.5114 63.1588 82.2293 63.1588C81.7858 63.1588 81.7858 62.6962 81.3416 62.6962C80.8974 62.6962 80.8968 63.141 80.452 63.141C80.0071 63.141 80.0065 63.0066 79.561 63.0066C79.1155 63.0066 79.1155 63.1257 78.67 63.1257C78.3847 63.1257 78.1501 63.1515 77.8884 63.2085C77.6077 63.2694 77.2096 62.9755 76.9704 63.092C76.7114 63.2184 76.4307 63.411 76.2356 63.5904C76.0234 63.785 75.8804 64.1086 75.7658 64.3502C75.5964 64.711 75.7875 64.8016 75.6188 65.163C75.4501 65.5244 75.5107 65.5536 75.3414 65.9156C75.172 66.2777 75.0909 66.2406 74.9216 66.6033C74.7522 66.966 74.8056 66.9958 74.6237 67.3526C74.4214 67.7491 74.1736 67.6154 73.9588 68.0059C73.7439 68.3964 73.908 68.4877 73.6932 68.8782C73.4784 69.2688 73.6042 69.3376 73.3894 69.7275C73.1746 70.1173 72.8925 69.9611 72.6777 70.3516C72.4628 70.7421 72.6493 70.8467 72.4338 71.2386C72.2183 71.6304 72.2157 71.5702 71.8341 71.8012C71.4658 72.0249 71.5178 72.1943 71.0868 72.1943C70.6558 72.1943 70.6558 71.8654 70.2255 71.8654C69.7952 71.8654 69.7945 71.9488 69.3635 71.9488C68.9325 71.9488 68.9319 72.2089 68.5009 72.2089C68.0699 72.2089 68.0699 71.8667 67.6389 71.8667C67.2079 71.8667 67.2079 71.8515 66.7769 71.8515C66.3459 71.8515 66.3459 71.9057 65.9156 71.9057C65.4853 71.9057 65.4846 72.007 65.0543 72.007C64.624 72.007 64.6233 71.8687 64.193 71.8687C63.7626 71.8687 63.762 71.8018 63.331 71.8018C62.9 71.8018 62.9 71.958 62.4683 71.958C62.0367 71.958 62.0367 72.009 61.6057 72.009C61.1747 72.009 61.1747 71.9018 60.7437 71.9018C60.3127 71.9018 60.3134 72.0507 59.8837 72.0507C59.4541 72.0507 59.4541 71.9084 59.0244 71.9084C58.5947 71.9084 58.5947 72.2003 58.1657 72.2003C57.7367 72.2003 57.736 71.8415 57.307 71.8415C56.878 71.8415 56.8773 71.966 56.4477 71.966C56.018 71.966 56.018 72.0196 55.5877 72.0196C55.1573 72.0196 55.1573 72.058 54.727 72.058C54.2967 72.058 54.296 72.144 53.865 72.144C53.434 72.144 53.4334 72.0037 53.0011 72.0037C52.5688 72.0037 52.5701 71.9382 52.1391 71.9382C51.7081 71.9382 51.7088 71.9057 51.2778 71.9057C50.8468 71.9057 50.8474 71.7959 50.4171 71.7959C49.9868 71.7959 49.9868 72.1129 49.5564 72.1129C49.1261 72.1129 49.1254 72.0037 48.6945 72.0037C48.2635 72.0037 48.2628 72.2089 47.8312 72.2089C47.3995 72.2089 47.3995 71.8574 46.9672 71.8574C46.5349 71.8574 46.5362 72.0957 46.1046 72.0957C45.6729 72.0957 45.6736 71.7555 45.2426 71.7555C44.8116 71.7555 44.8116 71.7641 44.3799 71.7641C43.9483 71.7641 43.9483 71.9369 43.516 71.9369C43.0837 71.9369 43.0843 72.1619 42.652 72.1619C42.2197 72.1619 42.2204 72.1579 41.7887 72.1579C41.3571 72.1579 41.3571 72.1923 40.9254 72.1923C40.4938 72.1923 40.4931 71.9269 40.0608 71.9269C39.6285 71.9269 39.6292 72.1281 39.1975 72.1281C38.7659 72.1281 38.7652 72.0759 38.3329 72.0759C37.9006 72.0759 37.9006 72.0633 37.469 72.0633C37.0373 72.0633 37.0366 72.0573 36.6043 72.0573C36.172 72.0573 36.1733 71.7919 35.7417 71.7919C35.3101 71.7919 35.3107 72.189 34.8791 72.189C34.4474 72.189 34.4461 71.8799 34.0138 71.8799C33.5815 71.8799 33.5815 72.1698 33.1498 72.1698C32.7182 72.1698 32.7175 71.8932 32.2846 71.8932C31.8516 71.8932 31.8516 72.1215 31.4186 72.1215C30.9857 72.1215 30.9863 71.829 30.554 71.829C30.1217 71.829 30.1204 71.8415 29.6874 71.8415C29.2544 71.8415 29.2531 71.9865 28.8188 71.9865C28.3846 71.9865 28.3483 72.1784 27.9331 72.0514C27.8112 72.0143 27.9318 71.8382 27.9918 71.7251C28.1875 71.3564 28.4445 71.498 28.6455 71.1327C28.8465 70.7673 28.8373 70.76 29.0389 70.394C29.2406 70.028 29.2729 70.0458 29.4739 69.6798C29.6749 69.3138 29.6479 69.2979 29.8495 68.9312C30.0512 68.5645 29.9161 68.4917 30.1171 68.1263C30.3187 67.7596 30.3761 67.7914 30.5777 67.4241C30.7794 67.0567 30.5817 66.9462 30.7833 66.5788C30.985 66.2115 31.0759 66.2605 31.2789 65.8918C31.4819 65.5231 31.53 65.5476 31.6862 65.1564C31.6862 64.8778 31.526 64.6633 31.4021 64.4177C31.2835 64.1821 31.1926 63.9359 30.9804 63.7459C30.7853 63.5712 30.5046 63.5454 30.2476 63.4223C30.0103 63.3084 29.812 63.1112 29.5352 63.0516C29.2769 62.996 29.0126 62.7815 28.7305 62.7815C28.287 62.7815 28.287 63.037 27.8429 63.037C27.3987 63.037 27.398 63.1112 26.9532 63.1112C26.5084 63.1112 26.5077 62.8484 26.0622 62.8484C25.6167 62.8484 25.6167 62.7458 25.1712 62.7458C24.8859 62.7458 24.6414 63.1085 24.3804 63.1654C24.0997 63.2263 23.7656 63.0887 23.5264 63.2052C23.2674 63.3316 23.0769 63.5705 22.8819 63.7499C22.6697 63.9445 22.4311 64.1325 22.3158 64.3741C22.1464 64.7348 22.1761 64.7494 22.0074 65.1108C21.8386 65.4721 21.869 65.4867 21.6996 65.8488C21.5302 66.2108 21.72 66.3008 21.5507 66.6642C21.3813 67.0276 21.0399 66.8588 20.8574 67.2156C20.6551 67.612 20.916 67.7504 20.7012 68.1402C20.4864 68.5301 20.3124 68.4341 20.0976 68.8246C19.8827 69.2152 19.9723 69.2641 19.7575 69.654C19.5427 70.0438 19.6389 70.0981 19.4241 70.4886C19.2092 70.8791 18.9186 70.719 18.7031 71.1108C18.4876 71.5027 18.9239 71.9137 18.5436 72.1473C18.1851 72.3678 18.0283 71.9852 17.6078 71.9852C17.1874 71.9852 17.188 71.9097 16.7683 71.9097C16.3485 71.9097 16.3478 72.1526 15.928 72.1526C15.5082 72.1526 15.5076 71.958 15.0865 71.958C14.6654 71.958 14.666 71.9481 14.2462 71.9481C13.8265 71.9481 13.8251 71.9541 13.4047 71.9541C12.9842 71.9541 12.9829 71.8899 12.5605 71.8899C12.1381 71.8899 12.1387 72.1215 11.7163 72.1215C11.4488 72.1215 11.1423 71.8263 10.8985 71.8859C10.6388 71.9494 10.3812 72.1275 10.1604 72.2486C9.9258 72.377 9.87242 72.7404 9.69712 72.9204C9.51194 73.1111 9.37355 73.2798 9.27207 73.5135C9.1172 73.8742 9.06184 73.8504 8.90764 74.2118C8.75343 74.5732 8.53925 74.4812 8.38438 74.8432C8.22952 75.2053 8.32112 75.2457 8.16559 75.6084C8.01007 75.9711 8.0417 75.983 7.87563 76.3404C7.70297 76.7111 7.66805 76.6919 7.48418 77.0573C7.30032 77.4226 7.17379 77.3598 6.98927 77.7264C6.80475 78.0931 7.0723 78.2281 6.88778 78.5942C6.70326 78.9602 6.81134 79.0158 6.62682 79.3818C6.44229 79.7479 6.23998 79.6433 6.05612 80.0086C5.87159 80.3753 5.99483 80.4382 5.81031 80.8049C5.62579 81.1716 5.42545 81.071 5.24093 81.4383C5.0564 81.8057 5.36548 81.9639 5.1803 82.3326C4.99512 82.7012 4.85079 82.6152 4.7157 83.005C4.7157 83.3373 4.86991 83.5187 5.02807 83.802C5.18162 84.0766 5.31473 84.303 5.58295 84.5036C5.83205 84.6902 5.99746 85.0887 6.3184 85.1886C6.61561 85.2813 6.97938 85.1734 7.31614 85.1734C7.74581 85.1734 7.74581 85.2833 8.17548 85.2833C8.60515 85.2833 8.60515 85.1966 9.03548 85.1966C9.46581 85.1966 9.46581 85.1529 9.89549 85.1529C10.3252 85.1529 10.3258 85.088 10.7561 85.088C11.1865 85.088 11.1865 85.2118 11.6175 85.2118C12.0485 85.2118 12.0485 85.2667 12.4788 85.2667C12.9091 85.2667 12.9098 85.0622 13.3408 85.0622C13.7718 85.0622 13.7718 85.2455 14.2027 85.2455C14.6337 85.2455 14.6331 85.0986 15.0641 85.0986C15.4951 85.0986 15.4944 85.2819 15.9247 85.2819C16.3551 85.2819 16.3551 85.0715 16.7854 85.0715C17.2157 85.0715 17.2157 85.3786 17.6454 85.3786C18.0751 85.3786 18.0751 84.9682 18.5054 84.9682C18.9357 84.9682 18.9351 85.2985 19.3654 85.2985C19.7957 85.2985 19.7951 84.9682 20.2254 84.9682C20.6557 84.9682 20.6551 84.9775 21.0847 84.9775C21.5144 84.9775 21.5144 85.0562 21.9447 85.0562C22.3751 85.0562 22.3744 85.1575 22.8048 85.1575C23.2351 85.1575 23.2344 85.223 23.6648 85.223C24.0951 85.223 24.0951 85.2508 24.5248 85.2508C24.9544 85.2508 24.9551 85.3951 25.3854 85.3951C25.8158 85.3951 25.8158 85.3402 26.2461 85.3402C26.6764 85.3402 26.6764 85.0463 27.1074 85.0463C27.5384 85.0463 27.5384 85.2714 27.9694 85.2714C28.4004 85.2714 28.4004 85.2978 28.832 85.2978C29.2637 85.2978 29.263 85.2581 29.694 85.2581C30.125 85.2581 30.125 85.4117 30.556 85.4117C30.987 85.4117 30.9863 85.2032 31.4173 85.2032C31.8483 85.2032 31.8476 85.2316 32.278 85.2316C32.7083 85.2316 32.7083 85.1238 33.1386 85.1238C33.569 85.1238 33.569 85.1595 33.9993 85.1595C34.4296 85.1595 34.4296 85.0026 34.8599 85.0026C35.2903 85.0026 35.2903 85.233 35.7206 85.233C36.1509 85.233 36.1509 85.3548 36.5813 85.3548C37.0116 85.3548 37.0116 85.143 37.4426 85.143C37.8736 85.143 37.8736 85.2853 38.3039 85.2853C38.7342 85.2853 38.7349 85.1992 39.1659 85.1992C39.5969 85.1992 39.5975 85.3495 40.0285 85.3495C40.4595 85.3495 40.4595 85.1707 40.8912 85.1707C41.3228 85.1707 41.3222 85.4176 41.7531 85.4176C42.1841 85.4176 42.1841 85.0265 42.6145 85.0265C43.0448 85.0265 43.0455 85.1284 43.4758 85.1284C43.9061 85.1284 43.9061 85.3991 44.3371 85.3991C44.7681 85.3991 44.7674 85.0615 45.1984 85.0615C45.6294 85.0615 45.6294 85.1721 46.0598 85.1721C46.4901 85.1721 46.4907 85.0132 46.9217 85.0132C47.3527 85.0132 47.3527 85.0165 47.7844 85.0165C48.216 85.0165 48.216 85.178 48.6477 85.178C49.0793 85.178 49.0787 85.1198 49.5103 85.1198C49.942 85.1198 49.9413 85.3965 50.3723 85.3965C50.8033 85.3965 50.8033 85.1065 51.2343 85.1065C51.6653 85.1065 51.6653 85.1813 52.0963 85.1813C52.5272 85.1813 52.5272 85.1013 52.9582 85.1013C53.3892 85.1013 53.3892 85.1099 53.8202 85.1099C54.2512 85.1099 54.2519 85.1992 54.6828 85.1992C55.1138 85.1992 55.1145 85.1224 55.5461 85.1224C55.9778 85.1224 55.9771 85.2177 56.4088 85.2177C56.8404 85.2177 56.8391 85.2283 57.2694 85.2283C57.6998 85.2283 57.6991 85.1681 58.1294 85.1681C58.5598 85.1681 58.5591 85.3111 58.9888 85.3111C59.4185 85.3111 59.4185 85.3971 59.8481 85.3971C60.2778 85.3971 60.2778 85.3548 60.7075 85.3548C61.1372 85.3548 61.1378 85.3071 61.5675 85.3071C61.9972 85.3071 61.9978 85.0926 62.4288 85.0926C62.8598 85.0926 62.8598 85.1165 63.2914 85.1165C63.7231 85.1165 63.7237 84.9596 64.1554 84.9596C64.587 84.9596 64.5864 85.2919 65.018 85.2919C65.4497 85.2919 65.449 85.1112 65.8794 85.1112C66.3097 85.1112 66.3097 85.3501 66.7407 85.3501C67.1717 85.3501 67.171 85.3885 67.602 85.3885C68.033 85.3885 68.033 85.3415 68.464 85.3415C68.895 85.3415 68.8956 85.2416 69.3273 85.2416C69.7589 85.2416 69.7596 85.0073 70.1912 85.0073C70.6229 85.0073 70.6229 85.0979 71.0539 85.0979C71.4849 85.0979 71.4849 85.045 71.9165 85.045C72.3482 85.045 72.3482 85.3872 72.7791 85.3872C73.2101 85.3872 73.2115 85.3018 73.6431 85.3018C74.0748 85.3018 74.0754 85.1926 74.5071 85.1926C74.9387 85.1926 74.9387 85.0728 75.3704 85.0728C75.802 85.0728 75.802 85.1277 76.2343 85.1277C76.6666 85.1277 76.6666 85.229 77.0989 85.229C77.5312 85.229 77.5306 85.4024 77.9629 85.4024C78.3952 85.4024 78.3952 85.3276 78.8275 85.3276C79.2598 85.3276 79.2598 85.1317 79.6921 85.1317C80.1244 85.1317 80.1244 85.4249 80.5567 85.4249C80.989 85.4249 80.9884 85.2197 81.4194 85.2197C81.8504 85.2197 81.851 85.2436 82.282 85.2436C82.713 85.2436 82.715 85.3706 83.1479 85.3706C83.5809 85.3706 83.5803 85.0165 84.0126 85.0165C84.4449 85.0165 84.4455 85.0966 84.8778 85.0966C85.3101 85.0966 85.3108 85.0159 85.7444 85.0159C86.1781 85.0159 86.1767 85.415 86.6097 85.415C87.0427 85.415 87.0433 85.3885 87.477 85.3885C87.9106 85.3885 87.9112 85.2621 88.3455 85.2621C88.7798 85.2621 88.7798 85.3779 89.2141 85.3779C89.4817 85.3779 89.7413 85.1714 89.9858 85.1118C90.2454 85.0483 90.3957 84.7782 90.6165 84.6571C90.8511 84.5287 91.1325 84.5228 91.3084 84.3421C91.4936 84.1514 91.6445 83.9476 91.7467 83.7133C91.9015 83.3519 92.0643 83.4227 92.2185 83.0613C92.3727 82.6999 92.4149 82.7178 92.5698 82.3557C92.7246 81.9937 92.7358 81.9976 92.8907 81.6349C93.0456 81.2722 92.9685 81.2437 93.1352 80.8863C93.3078 80.5157 92.9783 80.3535 93.1622 79.9881C93.3461 79.6228 93.7098 79.8054 93.8937 79.4388C94.0776 79.0721 93.8687 78.9668 94.0532 78.6008C94.2377 78.2348 94.2331 78.2321 94.4176 77.8654C94.6021 77.4987 94.8638 77.6338 95.0476 77.2691C95.2321 76.9024 95.1168 76.8435 95.3013 76.4768C95.4859 76.1101 95.4964 76.1141 95.6809 75.7467C95.8654 75.3794 95.5557 75.2205 95.7416 74.8525C95.9274 74.4845 95.9643 74.5341 96.0994 74.1443C96.0994 73.812 96.3933 73.4844 96.2351 73.2011C96.0816 72.9264 95.7172 72.7516 95.4483 72.5511C95.1992 72.3644 94.8631 72.3294 94.5422 72.2294C94.245 72.1368 93.9517 71.823 93.6149 71.823L93.6189 71.821Z" fill="#E5DFD8"/>
<path d="M32.4011 48.1683C32.4011 48.6012 32.0947 48.6012 32.0947 49.0347C32.0947 49.4682 32.0894 49.4676 32.0894 49.8998C32.0894 50.332 32.0571 50.3327 32.0571 50.7655C32.0571 51.1984 32.0973 51.1991 32.0973 51.6326C32.0973 52.0662 32.0545 52.0655 32.0545 52.4984C32.0545 52.9313 32.3833 52.9319 32.3833 53.3655C32.3833 53.799 32.3543 53.799 32.3543 54.2319C32.3543 54.6648 32.3807 54.6654 32.3807 55.099C32.3807 55.5325 32.2383 55.5312 32.2383 55.9641C32.2383 56.3969 32.1916 56.3963 32.1916 56.8291C32.1916 57.262 32.0822 57.2634 32.0822 57.6969C32.0822 58.1304 32.1579 58.1298 32.1579 58.5633C32.1579 58.9968 32.4018 58.9968 32.4018 59.431C32.4018 59.8653 32.3359 59.8653 32.3359 60.2995C32.3359 60.7337 32.1764 60.733 32.1764 61.1665C32.1764 61.6001 32.1949 61.6014 32.1949 62.0356C32.1949 62.4698 32.1092 62.4711 32.1092 62.906C32.1092 63.3409 32.4426 63.3415 32.4426 63.7764C32.4426 64.0444 32.3563 64.3615 32.2785 64.6031C32.1975 64.8533 31.9154 65.0413 31.7639 65.2498C31.611 65.4602 31.5055 65.7674 31.296 65.9209C31.0884 66.0725 30.7431 66.0103 30.4933 66.0917C30.2528 66.1704 30.0109 66.4054 29.7447 66.4054C29.2886 66.4054 29.2886 66.32 28.8333 66.32C28.3779 66.32 28.3779 66.322 27.9232 66.322C27.4685 66.322 27.4671 66.2572 27.0105 66.2572C26.5538 66.2572 26.5538 66.1559 26.0964 66.1559C25.6391 66.1559 25.6397 66.4213 25.1824 66.4213C24.9148 66.4213 24.6136 66.3558 24.3725 66.2777C24.1227 66.1963 23.9803 65.8746 23.7721 65.7237C23.5619 65.5708 23.1889 65.5529 23.0353 65.3424C22.8838 65.1339 23.0182 64.76 22.9371 64.5091C22.8587 64.2668 22.7085 64.0458 22.7085 63.7777C22.7085 63.3448 22.7829 63.3448 22.7829 62.9113C22.7829 62.4777 22.5753 62.4784 22.5753 62.0462C22.5753 61.614 22.4982 61.6133 22.4982 61.1804C22.4982 60.7476 22.9114 60.7469 22.9114 60.3134C22.9114 59.8798 22.9167 59.8805 22.9167 59.4476C22.9167 59.0147 22.6604 59.0141 22.6604 58.5805C22.6604 58.147 22.7579 58.147 22.7579 57.7141C22.7579 57.2812 22.489 57.2806 22.489 56.847C22.489 56.4135 22.8429 56.4148 22.8429 55.9819C22.8429 55.549 22.6505 55.5497 22.6505 55.1168C22.6505 54.684 22.6274 54.6826 22.6274 54.2491C22.6274 53.8155 22.8818 53.8162 22.8818 53.3827C22.8818 52.9491 22.6926 52.9491 22.6926 52.5149C22.6926 52.0807 22.9095 52.0807 22.9095 51.6465C22.9095 51.2123 22.8897 51.213 22.8897 50.7794C22.8897 50.3459 22.9174 50.3446 22.9174 49.9104C22.9174 49.4762 22.6597 49.4749 22.6597 49.04C22.6597 48.6051 22.7085 48.6045 22.7085 48.1696" fill="#7A2900"/>
<path d="M76.167 48.1683C76.167 48.67 76.0069 48.67 76.0069 49.171C76.0069 49.6721 76.4208 49.6734 76.4208 50.1758C76.4208 50.6782 76.3397 50.6782 76.3397 51.1806C76.3397 51.6478 76.397 51.6479 76.397 52.1158C76.397 52.5838 76.2369 52.5844 76.2369 53.053C76.2369 53.5217 76.3562 53.5223 76.3562 53.9916C76.3562 54.4609 76.3753 54.4609 76.3753 54.9302C76.3753 55.371 75.9746 55.371 75.9746 55.8118C75.9746 56.2526 76.2422 56.2526 76.2422 56.6935C76.2422 57.1343 76.1749 57.1356 76.1749 57.5784C76.1749 58.0212 76.028 58.0199 76.028 58.4614C76.028 58.9029 76.1888 58.9035 76.1888 59.3457C76.1888 59.7878 75.9983 59.7885 75.9983 60.2313C75.9983 60.6741 76.0636 60.6734 76.0636 61.1156C76.0636 61.5577 76.08 61.5584 76.08 62.0018C76.08 62.4453 76.2725 62.446 76.2725 62.8894C76.2725 63.3329 76.1763 63.3336 76.1763 63.777C76.1763 64.0451 76.4267 64.239 76.5051 64.4806C76.5862 64.7308 76.4181 65.0949 76.569 65.3034C76.7219 65.5139 76.9427 65.7078 77.1522 65.8613C77.3598 66.0129 77.7157 65.8435 77.9655 65.9242C78.206 66.003 78.3932 66.1446 78.6601 66.1446C79.1174 66.1446 79.1174 66.4888 79.5748 66.4888C80.0321 66.4888 80.0314 66.3631 80.4881 66.3631C80.9448 66.3631 80.9455 66.2347 81.4035 66.2347C81.8615 66.2347 81.8622 66.4028 82.3202 66.4028C82.7782 66.4028 82.7788 66.2426 83.2369 66.2426C83.5038 66.2426 83.77 66.2452 84.0112 66.1665C84.2609 66.0851 84.489 65.9441 84.6972 65.7925C84.9074 65.6396 85.2066 65.5344 85.3595 65.3239C85.5117 65.1154 85.5678 64.8136 85.6495 64.5627C85.7286 64.3211 85.7299 64.0444 85.7299 63.7764C85.7299 63.3435 85.8142 63.3435 85.8142 62.91C85.8142 62.4764 85.749 62.4771 85.749 62.0449C85.749 61.6127 85.8248 61.612 85.8248 61.1791C85.8248 60.7462 85.5276 60.7456 85.5276 60.312C85.5276 59.8785 85.8406 59.8792 85.8406 59.4463C85.8406 59.0134 85.6884 59.0127 85.6884 58.5792C85.6884 58.1457 85.8485 58.1457 85.8485 57.7128C85.8485 57.2799 85.83 57.2792 85.83 56.8457C85.83 56.4122 85.5223 56.4135 85.5223 55.9806C85.5223 55.5477 85.8182 55.5484 85.8182 55.1155C85.8182 54.6826 85.9256 54.6813 85.9256 54.2478C85.9256 53.8142 85.7727 53.8149 85.7727 53.3813C85.7727 52.9478 85.8643 52.9478 85.8643 52.5136C85.8643 52.0794 85.6238 52.0794 85.6238 51.6452C85.6238 51.211 85.5631 51.2117 85.5631 50.7781C85.5631 50.3446 85.4999 50.3433 85.4999 49.9091C85.4999 49.4749 85.8716 49.4735 85.8716 49.0387C85.8716 48.6038 85.8604 48.6031 85.8604 48.1683" fill="#7A2900"/>
<path d="M70.122 96.2383C69.695 96.2383 69.695 95.8061 69.2679 95.8061C68.8409 95.8061 68.8402 95.8497 68.4132 95.8497C67.9862 95.8497 67.9849 95.9901 67.5572 95.9901C67.1295 95.9901 67.1288 96.0423 66.6998 96.0423C66.2708 96.0423 66.2721 95.9887 65.8437 95.9887C65.4154 95.9887 65.416 95.8378 64.9883 95.8378C64.5607 95.8378 64.5607 96.2217 64.133 96.2217C63.7053 96.2217 63.7046 96.0026 63.2756 96.0026C62.8466 96.0026 62.8472 96.131 62.4189 96.131C61.9905 96.131 61.9905 96.1125 61.5628 96.1125C61.1351 96.1125 61.1345 95.8716 60.7061 95.8716C60.2778 95.8716 60.2771 96.2422 59.8481 96.2422C59.4191 96.2422 59.4198 96.0735 58.9914 96.0735C58.563 96.0735 58.5624 95.9801 58.1334 95.9801C57.7044 95.9801 57.705 95.9007 57.276 95.9007C56.847 95.9007 56.847 96.2264 56.4186 96.2264C55.9903 96.2264 55.9909 96.2211 55.5633 96.2211C55.1356 96.2211 55.1356 95.7849 54.7072 95.7849C54.2788 95.7849 54.2782 95.8795 53.8485 95.8795C53.4188 95.8795 53.4202 95.9179 52.9912 95.9179C52.5621 95.9179 52.5621 95.9239 52.1331 95.9239C51.7041 95.9239 51.7035 95.8676 51.2738 95.8676C50.8441 95.8676 50.8448 95.7941 50.4158 95.7941C49.9867 95.7941 49.9854 95.9768 49.5558 95.9768C49.1261 95.9768 49.1248 96.1747 48.6944 96.1747C48.2641 96.1747 48.2634 96.0059 47.8331 96.0059C47.5392 96.0059 47.3402 95.7822 47.093 95.6664C46.8347 95.5459 46.6166 95.4652 46.4367 95.2501C46.2568 95.0349 46.1236 94.8304 46.0485 94.5551C45.9767 94.291 46.0993 94.0692 46.1487 93.778C46.2205 93.3551 46.0604 93.3279 46.1322 92.905C46.204 92.482 46.2541 92.4906 46.326 92.0677C46.3978 91.6447 46.4571 91.6547 46.5283 91.2317C46.5994 90.8088 46.3747 90.7704 46.4466 90.3474C46.5184 89.9245 46.7372 89.9615 46.809 89.5379C46.8808 89.1143 46.6344 89.0726 46.7056 88.649C46.7767 88.2254 46.9435 88.2545 47.0153 87.8322C47.0871 87.4099 47.1827 87.4265 47.2538 87.0042C47.325 86.5819 46.9949 86.5256 47.066 86.104C47.1372 85.6824 47.1926 85.6917 47.2644 85.27C47.3362 84.8484 47.2973 84.8418 47.3692 84.4202C47.441 83.9985 47.615 84.0283 47.6862 83.6067C47.7573 83.1851 47.8661 83.2029 47.9379 82.7813C48.0097 82.3597 47.7461 82.314 47.8173 81.8911C47.8885 81.4681 48.1086 81.5052 48.1804 81.0822C48.2522 80.6593 47.9175 80.601 47.9893 80.1768C48.0611 79.7525 48.2648 79.7882 48.3366 79.3653C48.4084 78.9423 48.5844 78.9728 48.6562 78.5498C48.728 78.1269 48.7801 78.1362 48.8513 77.7139C48.9224 77.2916 48.7498 77.2618 48.8216 76.8388C48.8935 76.4159 48.6885 76.3808 48.7597 75.9579C48.8308 75.5349 49.1307 75.5852 49.2025 75.1616C49.2744 74.738 48.9304 74.6791 49.0022 74.2548C49.074 73.8305 49.1386 73.8425 49.2104 73.4188C49.2823 72.9952 49.4503 73.0243 49.5215 72.6014C49.5927 72.1784 49.7561 72.2056 49.8279 71.7826C49.8998 71.3597 49.6645 71.3186 49.7363 70.8944C49.8082 70.4701 49.9077 70.4873 49.9795 70.0637C50.0513 69.6401 49.824 69.601 49.8958 69.1774C49.9676 68.7538 50.3499 68.8187 50.4217 68.3951C50.4935 67.9715 50.2213 67.9245 50.2932 67.4995C50.365 67.0746 50.4784 67.0951 50.5502 66.6708C50.622 66.2466 50.564 66.2366 50.6359 65.8124C50.7077 65.3881 50.7334 65.3927 50.8052 64.9684C50.8771 64.5442 50.769 64.5256 50.8408 64.1014C50.9126 63.6771 51.0049 63.6936 51.0767 63.2707C51.1486 62.8477 51.2389 62.863 51.3107 62.4394C51.3825 62.0157 51.2019 61.984 51.2738 61.559C51.3456 61.1341 51.2665 61.1215 51.3384 60.6972C51.4102 60.273 51.4768 60.2842 51.5486 59.8593C51.6204 59.4344 51.8458 59.4727 51.9176 59.0472C51.9895 58.6216 51.7147 58.5759 51.7865 58.1509C51.8583 57.726 51.9928 57.7485 52.0646 57.3229C52.1364 56.8973 52.2669 56.9192 52.3387 56.4929C52.4106 56.0666 52.4778 56.0779 52.5503 55.6516C52.603 55.3425 52.377 54.8997 52.5529 54.6608C52.7335 54.4159 53.1836 54.4232 53.4538 54.2855C53.7174 54.1518 53.977 54.163 54.2894 54.163C54.7151 54.163 54.7151 54.1571 55.1408 54.1571C55.5665 54.1571 55.5659 54.1816 55.9903 54.1816C56.4147 54.1816 56.4153 53.8698 56.8397 53.8698C57.2641 53.8698 57.2661 54.2074 57.6918 54.2074C58.1176 54.2074 58.1176 53.8427 58.5426 53.8427C58.9677 53.8427 58.9683 53.932 59.3947 53.932C59.8211 53.932 59.8211 53.8089 60.2475 53.8089C60.6738 53.8089 60.6732 54.0968 61.0996 54.0968C61.5259 54.0968 61.5266 53.9406 61.9536 53.9406C62.3807 53.9406 62.3813 53.7725 62.809 53.7725C63.2367 53.7725 63.2367 54.2219 63.6644 54.2219C63.9768 54.2219 64.2252 54.173 64.4895 54.3073C64.7603 54.445 64.9356 54.6284 65.1155 54.8733C65.2915 55.1122 65.6131 55.2975 65.6651 55.6073C65.737 56.0302 65.8319 56.0137 65.9031 56.4366C65.9742 56.8596 65.7627 56.896 65.8339 57.3183C65.905 57.7406 65.9465 57.734 66.0184 58.1569C66.0902 58.5799 66.2069 58.56 66.2787 58.9829C66.3505 59.4059 66.3327 59.4092 66.4046 59.8328C66.4764 60.2564 66.1528 60.3114 66.2246 60.735C66.2965 61.1586 66.3841 61.1427 66.4553 61.565C66.5265 61.9873 66.8751 61.9277 66.9463 62.35C67.0174 62.7723 66.6642 62.8325 66.736 63.2541C66.8079 63.6758 67.0049 63.642 67.0761 64.0636C67.1473 64.4853 66.9944 64.5117 67.0655 64.9334C67.1367 65.355 67.0846 65.3643 67.1558 65.7859C67.227 66.2075 67.5453 66.1539 67.6165 66.5755C67.6876 66.9972 67.6145 67.0104 67.6863 67.4333C67.7582 67.8563 67.43 67.9125 67.5018 68.3355C67.5736 68.7584 67.917 68.7009 67.9888 69.1245C68.0606 69.5481 68.1226 69.5368 68.1944 69.9604C68.2662 70.3841 68.0613 70.4185 68.1331 70.8408C68.205 71.2631 68.0066 71.2975 68.0784 71.7198C68.1503 72.142 68.3776 72.1037 68.4488 72.5259C68.52 72.9482 68.2952 72.9873 68.3671 73.4102C68.4389 73.8332 68.8079 73.771 68.8798 74.1946C68.9516 74.6182 68.5707 74.6837 68.6425 75.108C68.7144 75.5323 69.034 75.4767 69.1058 75.9003C69.1776 76.3239 69.0834 76.3398 69.1552 76.7627C69.2271 77.1857 69.0959 77.2082 69.1678 77.6318C69.2396 78.0554 69.3674 78.0342 69.4393 78.4578C69.5111 78.8814 69.4663 78.8894 69.5381 79.3137C69.61 79.7379 69.6245 79.7346 69.6963 80.1582C69.7681 80.5818 69.8953 80.5607 69.9671 80.9843C70.039 81.4079 69.7932 81.4509 69.865 81.8752C69.9368 82.2995 70.1095 82.2697 70.1813 82.6933C70.2531 83.1169 70.4153 83.0898 70.4871 83.5147C70.5589 83.9396 70.1615 84.0065 70.2334 84.4308C70.3052 84.855 70.5721 84.8094 70.6439 85.2336C70.7158 85.6579 70.6308 85.6718 70.7026 86.0948C70.7744 86.5177 70.6518 86.5389 70.7237 86.9625C70.7955 87.3861 71.0894 87.3371 71.1613 87.7621C71.2331 88.187 71.0552 88.2168 71.127 88.6404C71.1988 89.064 71.214 89.0627 71.2865 89.487C71.359 89.9112 71.6041 89.8702 71.6759 90.2951C71.7478 90.7201 71.4723 90.7671 71.5441 91.1913C71.616 91.6156 71.8361 91.5792 71.9079 92.0048C71.9797 92.4304 71.6937 92.48 71.7662 92.9063C71.8387 93.3326 72.0107 93.3028 72.0832 93.729C72.1326 94.0196 72.0957 94.3221 72.0239 94.5862C71.9488 94.8622 71.6298 94.9774 71.4492 95.1918C71.2687 95.4063 71.2707 95.8742 71.013 95.9947C70.7659 96.1099 70.4139 96.2343 70.1207 96.2343L70.122 96.2383Z" fill="#F5580A"/>
<mask id="mask0_2973_8450" style="mask-type:luminance" maskUnits="userSpaceOnUse" x="46" y="53" width="27" height="44">
<path d="M70.122 96.2383C69.695 96.2383 69.695 95.8061 69.2679 95.8061C68.8409 95.8061 68.8402 95.8497 68.4132 95.8497C67.9862 95.8497 67.9849 95.9901 67.5572 95.9901C67.1295 95.9901 67.1288 96.0423 66.6998 96.0423C66.2708 96.0423 66.2721 95.9887 65.8437 95.9887C65.4154 95.9887 65.416 95.8378 64.9883 95.8378C64.5607 95.8378 64.5607 96.2217 64.133 96.2217C63.7053 96.2217 63.7046 96.0026 63.2756 96.0026C62.8466 96.0026 62.8472 96.131 62.4189 96.131C61.9905 96.131 61.9905 96.1125 61.5628 96.1125C61.1351 96.1125 61.1345 95.8716 60.7061 95.8716C60.2778 95.8716 60.2771 96.2422 59.8481 96.2422C59.4191 96.2422 59.4198 96.0735 58.9914 96.0735C58.563 96.0735 58.5624 95.9801 58.1334 95.9801C57.7044 95.9801 57.705 95.9007 57.276 95.9007C56.847 95.9007 56.847 96.2264 56.4186 96.2264C55.9903 96.2264 55.9909 96.2211 55.5633 96.2211C55.1356 96.2211 55.1356 95.7849 54.7072 95.7849C54.2788 95.7849 54.2782 95.8795 53.8485 95.8795C53.4188 95.8795 53.4202 95.9179 52.9912 95.9179C52.5621 95.9179 52.5621 95.9239 52.1331 95.9239C51.7041 95.9239 51.7035 95.8676 51.2738 95.8676C50.8441 95.8676 50.8448 95.7941 50.4158 95.7941C49.9867 95.7941 49.9854 95.9768 49.5558 95.9768C49.1261 95.9768 49.1248 96.1747 48.6944 96.1747C48.2641 96.1747 48.2634 96.0059 47.8331 96.0059C47.5392 96.0059 47.3402 95.7822 47.093 95.6664C46.8347 95.5459 46.6166 95.4652 46.4367 95.2501C46.2568 95.0349 46.1236 94.8304 46.0485 94.5551C45.9767 94.291 46.0993 94.0692 46.1487 93.778C46.2205 93.3551 46.0604 93.3279 46.1322 92.905C46.204 92.482 46.2541 92.4906 46.326 92.0677C46.3978 91.6447 46.4571 91.6547 46.5283 91.2317C46.5994 90.8088 46.3747 90.7704 46.4466 90.3474C46.5184 89.9245 46.7372 89.9615 46.809 89.5379C46.8808 89.1143 46.6344 89.0726 46.7056 88.649C46.7767 88.2254 46.9435 88.2545 47.0153 87.8322C47.0871 87.4099 47.1827 87.4265 47.2538 87.0042C47.325 86.5819 46.9949 86.5256 47.066 86.104C47.1372 85.6824 47.1926 85.6917 47.2644 85.27C47.3362 84.8484 47.2973 84.8418 47.3692 84.4202C47.441 83.9985 47.615 84.0283 47.6862 83.6067C47.7573 83.1851 47.8661 83.2029 47.9379 82.7813C48.0097 82.3597 47.7461 82.314 47.8173 81.8911C47.8885 81.4681 48.1086 81.5052 48.1804 81.0822C48.2522 80.6593 47.9175 80.601 47.9893 80.1768C48.0611 79.7525 48.2648 79.7882 48.3366 79.3653C48.4084 78.9423 48.5844 78.9728 48.6562 78.5498C48.728 78.1269 48.7801 78.1362 48.8513 77.7139C48.9224 77.2916 48.7498 77.2618 48.8216 76.8388C48.8935 76.4159 48.6885 76.3808 48.7597 75.9579C48.8308 75.5349 49.1307 75.5852 49.2025 75.1616C49.2744 74.738 48.9304 74.6791 49.0022 74.2548C49.074 73.8305 49.1386 73.8425 49.2104 73.4188C49.2823 72.9952 49.4503 73.0243 49.5215 72.6014C49.5927 72.1784 49.7561 72.2056 49.8279 71.7826C49.8998 71.3597 49.6645 71.3186 49.7363 70.8944C49.8082 70.4701 49.9077 70.4873 49.9795 70.0637C50.0513 69.6401 49.824 69.601 49.8958 69.1774C49.9676 68.7538 50.3499 68.8187 50.4217 68.3951C50.4935 67.9715 50.2213 67.9245 50.2932 67.4995C50.365 67.0746 50.4784 67.0951 50.5502 66.6708C50.622 66.2466 50.564 66.2366 50.6359 65.8124C50.7077 65.3881 50.7334 65.3927 50.8052 64.9684C50.8771 64.5442 50.769 64.5256 50.8408 64.1014C50.9126 63.6771 51.0049 63.6936 51.0767 63.2707C51.1486 62.8477 51.2389 62.863 51.3107 62.4394C51.3825 62.0157 51.2019 61.984 51.2738 61.559C51.3456 61.1341 51.2665 61.1215 51.3384 60.6972C51.4102 60.273 51.4768 60.2842 51.5486 59.8593C51.6204 59.4344 51.8458 59.4727 51.9176 59.0472C51.9895 58.6216 51.7147 58.5759 51.7865 58.1509C51.8583 57.726 51.9928 57.7485 52.0646 57.3229C52.1364 56.8973 52.2669 56.9192 52.3387 56.4929C52.4106 56.0666 52.4778 56.0779 52.5503 55.6516C52.603 55.3425 52.377 54.8997 52.5529 54.6608C52.7335 54.4159 53.1836 54.4232 53.4538 54.2855C53.7174 54.1518 53.977 54.163 54.2894 54.163C54.7151 54.163 54.7151 54.1571 55.1408 54.1571C55.5665 54.1571 55.5659 54.1816 55.9903 54.1816C56.4147 54.1816 56.4153 53.8698 56.8397 53.8698C57.2641 53.8698 57.2661 54.2074 57.6918 54.2074C58.1176 54.2074 58.1176 53.8427 58.5426 53.8427C58.9677 53.8427 58.9683 53.932 59.3947 53.932C59.8211 53.932 59.8211 53.8089 60.2475 53.8089C60.6738 53.8089 60.6732 54.0968 61.0996 54.0968C61.5259 54.0968 61.5266 53.9406 61.9536 53.9406C62.3807 53.9406 62.3813 53.7725 62.809 53.7725C63.2367 53.7725 63.2367 54.2219 63.6644 54.2219C63.9768 54.2219 64.2252 54.173 64.4895 54.3073C64.7603 54.445 64.9356 54.6284 65.1155 54.8733C65.2915 55.1122 65.6131 55.2975 65.6651 55.6073C65.737 56.0302 65.8319 56.0137 65.9031 56.4366C65.9742 56.8596 65.7627 56.896 65.8339 57.3183C65.905 57.7406 65.9465 57.734 66.0184 58.1569C66.0902 58.5799 66.2069 58.56 66.2787 58.9829C66.3505 59.4059 66.3327 59.4092 66.4046 59.8328C66.4764 60.2564 66.1528 60.3114 66.2246 60.735C66.2965 61.1586 66.3841 61.1427 66.4553 61.565C66.5265 61.9873 66.8751 61.9277 66.9463 62.35C67.0174 62.7723 66.6642 62.8325 66.736 63.2541C66.8079 63.6758 67.0049 63.642 67.0761 64.0636C67.1473 64.4853 66.9944 64.5117 67.0655 64.9334C67.1367 65.355 67.0846 65.3643 67.1558 65.7859C67.227 66.2075 67.5453 66.1539 67.6165 66.5755C67.6876 66.9972 67.6145 67.0104 67.6863 67.4333C67.7582 67.8563 67.43 67.9125 67.5018 68.3355C67.5736 68.7584 67.917 68.7009 67.9888 69.1245C68.0606 69.5481 68.1226 69.5368 68.1944 69.9604C68.2662 70.3841 68.0613 70.4185 68.1331 70.8408C68.205 71.2631 68.0066 71.2975 68.0784 71.7198C68.1503 72.142 68.3776 72.1037 68.4488 72.5259C68.52 72.9482 68.2952 72.9873 68.3671 73.4102C68.4389 73.8332 68.8079 73.771 68.8798 74.1946C68.9516 74.6182 68.5707 74.6837 68.6425 75.108C68.7144 75.5323 69.034 75.4767 69.1058 75.9003C69.1776 76.3239 69.0834 76.3398 69.1552 76.7627C69.2271 77.1857 69.0959 77.2082 69.1678 77.6318C69.2396 78.0554 69.3674 78.0342 69.4393 78.4578C69.5111 78.8814 69.4663 78.8894 69.5381 79.3137C69.61 79.7379 69.6245 79.7346 69.6963 80.1582C69.7681 80.5818 69.8953 80.5607 69.9671 80.9843C70.039 81.4079 69.7932 81.4509 69.865 81.8752C69.9368 82.2995 70.1095 82.2697 70.1813 82.6933C70.2531 83.1169 70.4153 83.0898 70.4871 83.5147C70.5589 83.9396 70.1615 84.0065 70.2334 84.4308C70.3052 84.855 70.5721 84.8094 70.6439 85.2336C70.7158 85.6579 70.6308 85.6718 70.7026 86.0948C70.7744 86.5177 70.6518 86.5389 70.7237 86.9625C70.7955 87.3861 71.0894 87.3371 71.1613 87.7621C71.2331 88.187 71.0552 88.2168 71.127 88.6404C71.1988 89.064 71.214 89.0627 71.2865 89.487C71.359 89.9112 71.6041 89.8702 71.6759 90.2951C71.7478 90.7201 71.4723 90.7671 71.5441 91.1913C71.616 91.6156 71.8361 91.5792 71.9079 92.0048C71.9797 92.4304 71.6937 92.48 71.7662 92.9063C71.8387 93.3326 72.0107 93.3028 72.0832 93.729C72.1326 94.0196 72.0957 94.3221 72.0239 94.5862C71.9488 94.8622 71.6298 94.9774 71.4492 95.1918C71.2687 95.4063 71.2707 95.8742 71.013 95.9947C70.7659 96.1099 70.4139 96.2343 70.1207 96.2343L70.122 96.2383Z" fill="white"/>
</mask>
<g mask="url(#mask0_2973_8450)">
<path d="M70.0799 69.2946C69.7649 69.5951 69.5105 69.1774 69.0762 69.1774C68.6419 69.1774 68.6426 69.1774 68.2089 69.1774C67.7753 69.1774 67.776 69.0993 67.343 69.0993C66.91 69.0993 66.91 69.229 66.4771 69.229C66.0441 69.229 66.0441 68.9861 65.6111 68.9861C65.1782 68.9861 65.1782 69.2549 64.7445 69.2549C64.3109 69.2549 64.3109 68.9352 63.8766 68.9352C63.4423 68.9352 63.4423 69.0609 63.0081 69.0609C62.5738 69.0609 62.5744 69.2946 62.1408 69.2946C61.7072 69.2946 61.7072 69.0914 61.2742 69.0914C60.8413 69.0914 60.8406 69.2694 60.407 69.2694C59.9733 69.2694 59.9727 69.3297 59.5384 69.3297C59.1041 69.3297 59.1041 69.237 58.6698 69.237C58.2355 69.237 58.2362 69.0384 57.8019 69.0384C57.3676 69.0384 57.3676 69.0735 56.9333 69.0735C56.4991 69.0735 56.4984 68.9729 56.0641 68.9729C55.6298 68.9729 55.6298 69.0325 55.1955 69.0325C54.7613 69.0325 54.7606 69.2734 54.3263 69.2734C53.892 69.2734 53.892 69.2019 53.4571 69.2019C53.0221 69.2019 53.0221 68.9603 52.5879 68.9603C52.1536 68.9603 52.1542 69.1834 51.7206 69.1834C51.287 69.1834 51.287 69.1821 50.8534 69.1821C50.4197 69.1821 50.4184 69.2099 49.9828 69.2099C49.5472 69.2099 49.5485 69.3641 49.1142 69.3641C48.68 69.3641 48.6793 69.231 48.2444 69.231C47.8094 69.231 47.8088 68.9279 47.3731 68.9279C46.9375 68.9279 46.9382 69.0603 46.5033 69.0603C46.0683 69.0603 46.0677 69.2641 45.6314 69.2641C45.1951 69.2641 45.1951 69.3819 44.7582 69.3819C44.3213 69.3819 44.1111 69.5514 43.7928 69.2509C43.4936 68.9683 43.9437 68.7406 43.9437 68.3282C43.9437 67.9159 44.0491 67.9152 44.0491 67.5028C44.0491 67.0905 44.0656 67.0898 44.0656 66.6761C44.0656 66.2624 44.1091 66.2638 44.1091 65.8507C44.1091 65.4377 43.9641 65.4377 43.9641 65.024C43.9641 64.6104 43.7855 64.6097 43.7855 64.1954C43.7855 63.781 43.4323 63.4898 43.7315 63.2045C44.0465 62.904 44.3193 63.4792 44.7536 63.4792C45.1879 63.4792 45.1872 63.2919 45.6209 63.2919C46.0545 63.2919 46.0538 63.4103 46.4868 63.4103C46.9198 63.4103 46.9198 63.36 47.3527 63.36C47.7857 63.36 47.7857 63.268 48.2187 63.268C48.6516 63.268 48.6516 63.2032 49.0852 63.2032C49.5189 63.2032 49.5189 63.3706 49.9532 63.3706C50.3874 63.3706 50.3874 63.4792 50.8217 63.4792C51.256 63.4792 51.2554 63.509 51.689 63.509C52.1226 63.509 52.1226 63.3872 52.5556 63.3872C52.9885 63.3872 52.9892 63.4984 53.4228 63.4984C53.8564 63.4984 53.8571 63.2608 54.2914 63.2608C54.7257 63.2608 54.7257 63.176 55.16 63.176C55.5942 63.176 55.5936 63.1985 56.0279 63.1985C56.4622 63.1985 56.4622 63.4759 56.8964 63.4759C57.3307 63.4759 57.3314 63.2416 57.7657 63.2416C58.2 63.2416 58.2 63.3766 58.6342 63.3766C59.0685 63.3766 59.0692 63.268 59.5035 63.268C59.9378 63.268 59.9378 63.2641 60.3727 63.2641C60.8076 63.2641 60.8076 63.4309 61.2419 63.4309C61.6762 63.4309 61.6756 63.5076 62.1092 63.5076C62.5428 63.5076 62.5428 63.5857 62.9764 63.5857C63.4101 63.5857 63.4114 63.4964 63.847 63.4964C64.2826 63.4964 64.2813 63.3236 64.7155 63.3236H65.5854C66.0204 63.3236 66.021 63.1899 66.4566 63.1899C66.8922 63.1899 66.8916 63.4017 67.3265 63.4017C67.7615 63.4017 67.7621 63.511 68.1984 63.511C68.6347 63.511 68.6347 63.1416 69.0716 63.1416C69.5085 63.1416 69.5157 63.1833 69.834 63.4832C70.1332 63.7658 70.1596 63.777 70.1596 64.1894C70.1596 64.6018 70.0976 64.6024 70.0976 65.0148C70.0976 65.4271 70.0495 65.4278 70.0495 65.8415C70.0495 66.2552 69.8037 66.2538 69.8037 66.6669C69.8037 67.0799 69.8571 67.0799 69.8571 67.4936C69.8571 67.9072 69.6627 67.9728 69.7774 68.3706C69.9217 68.8749 70.3797 69.0086 70.0805 69.2939V69.2952L70.0799 69.2946Z" fill="#FFCE47"/>
<path d="M75.9595 82.7462C75.6425 83.0474 75.4909 82.5967 75.054 82.5967C74.6171 82.5967 74.6184 82.8488 74.1834 82.8488C73.7485 82.8488 73.7485 82.5781 73.3135 82.5781C72.8786 82.5781 72.8786 82.8601 72.4443 82.8601C72.01 82.8601 72.0094 82.9461 71.5751 82.9461C71.1408 82.9461 71.1401 82.7476 70.7052 82.7476C70.2703 82.7476 70.2703 82.553 69.8347 82.553C69.3991 82.553 69.3991 82.7681 68.9635 82.7681C68.5278 82.7681 68.5272 82.5053 68.0909 82.5053C67.6547 82.5053 67.654 82.8475 67.2164 82.8475C66.7788 82.8475 66.7802 82.8938 66.3439 82.8938C65.9076 82.8938 65.9083 82.5371 65.472 82.5371C65.0358 82.5371 65.0364 82.8032 64.6008 82.8032C64.1652 82.8032 64.1652 82.5338 63.7296 82.5338C63.294 82.5338 63.2934 82.8091 62.8578 82.8091C62.4222 82.8091 62.4208 82.4861 61.9839 82.4861C61.547 82.4861 61.547 82.4987 61.1094 82.4987C60.6718 82.4987 60.6732 82.87 60.2362 82.87C59.7993 82.87 59.8 82.8866 59.3637 82.8866C58.9275 82.8866 58.9274 82.9362 58.4905 82.9362C58.0536 82.9362 58.0536 82.8237 57.616 82.8237C57.1785 82.8237 57.1791 82.786 56.7415 82.786C56.3039 82.786 56.3046 82.8151 55.8677 82.8151C55.4308 82.8151 55.4308 82.596 54.9938 82.596C54.5569 82.596 54.5563 82.6562 54.1187 82.6562C53.6811 82.6562 53.6818 82.6992 53.2448 82.6992C52.8079 82.6992 52.8073 82.731 52.3697 82.731C51.9321 82.731 51.9321 82.7529 51.4952 82.7529C51.0583 82.7529 51.0576 82.4775 50.62 82.4775C50.1824 82.4775 50.1838 82.8468 49.7468 82.8468C49.3099 82.8468 49.3106 82.8098 48.8737 82.8098C48.4367 82.8098 48.4354 82.7535 47.9978 82.7535C47.5603 82.7535 47.5603 82.8826 47.1233 82.8826C46.6864 82.8826 46.6858 82.8905 46.2475 82.8905C45.8093 82.8905 45.8093 82.5854 45.371 82.5854C44.9328 82.5854 44.9335 82.5159 44.4959 82.5159C44.0583 82.5159 44.057 82.59 43.6181 82.59C43.1792 82.59 43.1785 82.9302 42.739 82.9302C42.2994 82.9302 42.1841 83.011 41.8632 82.7092C41.5633 82.4279 41.7781 82.3001 41.7781 81.8878C41.7781 81.4754 41.9824 81.4747 41.9824 81.0624C41.9824 80.65 42.0879 80.6494 42.0879 80.2357C42.0879 79.822 42.0404 79.8233 42.0404 79.4103C42.0404 78.9973 41.8407 78.9973 41.8407 78.5836C41.8407 78.1699 41.7808 78.1692 41.7808 77.7549C41.7808 77.3406 41.4908 77.1367 41.7907 76.8521C42.1076 76.5509 42.2968 76.7349 42.733 76.7349C43.1693 76.7349 43.1686 77.0593 43.6036 77.0593C44.0385 77.0593 44.0385 77.0573 44.4735 77.0573C44.9084 77.0573 44.9084 77.1519 45.3427 77.1519C45.777 77.1519 45.7776 76.8369 46.2119 76.8369C46.6462 76.8369 46.6469 77.0851 47.0818 77.0851C47.5168 77.0851 47.5168 77.0407 47.9524 77.0407C48.388 77.0407 48.388 77.1427 48.8236 77.1427C49.2592 77.1427 49.2598 77.138 49.6961 77.138C50.1324 77.138 50.133 76.8057 50.5706 76.8057C51.0082 76.8057 51.0069 76.6906 51.4431 76.6906C51.8794 76.6906 51.8787 76.8872 52.315 76.8872C52.7512 76.8872 52.7506 76.7548 53.1862 76.7548C53.6218 76.7548 53.6218 76.8256 54.0574 76.8256C54.493 76.8256 54.4937 76.8494 54.9293 76.8494C55.3649 76.8494 55.3662 76.7263 55.8031 76.7263C56.24 76.7263 56.24 77.0195 56.6776 77.0195C57.1152 77.0195 57.1139 76.909 57.5508 76.909C57.9877 76.909 57.987 76.9481 58.4233 76.9481C58.8596 76.9481 58.8596 76.9183 59.2965 76.9183C59.7334 76.9183 59.7334 76.8144 60.171 76.8144C60.6086 76.8144 60.6079 76.7343 61.0455 76.7343C61.4831 76.7343 61.4824 76.8402 61.9193 76.8402C62.3563 76.8402 62.3563 76.7409 62.7932 76.7409C63.2301 76.7409 63.2308 76.7985 63.6683 76.7985C64.1059 76.7985 64.1053 76.8772 64.5422 76.8772C64.9791 76.8772 64.9798 77.1433 65.4173 77.1433C65.8549 77.1433 65.8549 76.9315 66.2918 76.9315C66.7288 76.9315 66.7294 76.7157 67.167 76.7157C67.6046 76.7157 67.6033 77.1374 68.0402 77.1374C68.4771 77.1374 68.4764 76.9527 68.9134 76.9527C69.3503 76.9527 69.3516 76.7568 69.7892 76.7568C70.2268 76.7568 70.2268 76.9163 70.6637 76.9163C71.1006 76.9163 71.1013 76.727 71.5395 76.727C71.9777 76.727 71.9777 77.0646 72.416 77.0646C72.8542 77.0646 72.8536 76.7806 73.2911 76.7806C73.7287 76.7806 73.73 76.8607 74.1689 76.8607C74.6078 76.8607 74.6085 76.7832 75.048 76.7832C75.4876 76.7832 75.4988 76.7402 75.8197 77.0414C76.1196 77.3227 76.1427 77.3386 76.1427 77.7503C76.1427 78.162 75.8758 78.1633 75.8758 78.5756C75.8758 78.988 76.0062 78.9887 76.0062 79.4024C76.0062 79.816 75.9146 79.8147 75.9146 80.2277C75.9146 80.6408 75.8626 80.6408 75.8626 81.0544C75.8626 81.4681 75.6543 81.5224 75.7499 81.9255C75.856 82.3762 76.2593 82.4616 75.9595 82.7462Z" fill="#FFCE47"/>
</g>
<path d="M73.2622 99.7264C72.8312 99.7264 72.8312 99.923 72.4002 99.923C71.9693 99.923 71.9686 99.9416 71.5376 99.9416C71.1066 99.9416 71.1053 99.8112 70.673 99.8112C70.2407 99.8112 70.24 99.9045 69.8071 99.9045C69.3741 99.9045 69.3747 99.5795 68.9424 99.5795C68.5101 99.5795 68.5108 99.7834 68.0791 99.7834C67.6475 99.7834 67.6475 99.688 67.2158 99.688C66.7842 99.688 66.7842 99.6953 66.3525 99.6953C65.9209 99.6953 65.9209 99.745 65.4886 99.745C65.0563 99.745 65.0563 99.5464 64.6233 99.5464C64.1903 99.5464 64.1903 99.6781 63.7574 99.6781C63.3244 99.6781 63.3251 99.8085 62.8928 99.8085C62.4605 99.8085 62.4605 99.837 62.0288 99.837C61.5972 99.837 61.5965 99.5755 61.1642 99.5755C60.7319 99.5755 60.7312 99.8582 60.2983 99.8582C59.8653 99.8582 59.8653 99.6298 59.4323 99.6298C58.9994 99.6298 59 99.7602 58.5671 99.7602C58.1341 99.7602 58.1341 99.5848 57.7011 99.5848C57.2681 99.5848 57.2675 99.8515 56.8345 99.8515C56.4016 99.8515 56.4016 99.7741 55.9686 99.7741C55.5356 99.7741 55.535 99.792 55.102 99.792C54.669 99.792 54.669 99.7264 54.2354 99.7264C53.8018 99.7264 53.8018 99.5874 53.3688 99.5874C52.9358 99.5874 52.9365 99.9521 52.5042 99.9521C52.0719 99.9521 52.0719 99.8893 51.6396 99.8893C51.2073 99.8893 51.206 99.7761 50.7717 99.7761C50.3374 99.7761 50.3387 99.9925 49.9057 99.9925C49.4728 99.9925 49.4721 99.9799 49.0385 99.9799C48.6049 99.9799 48.6042 99.9932 48.1699 99.9932C47.7356 99.9932 47.7363 99.6311 47.3027 99.6311C46.869 99.6311 46.8684 99.602 46.4334 99.602C45.9985 99.602 45.9985 99.5974 45.5629 99.5974C45.1273 99.5974 45.1279 99.788 44.6923 99.788C44.3767 99.788 44.0788 99.6966 43.7941 99.604C43.4989 99.508 43.1127 99.5299 42.8676 99.3505C42.6191 99.1691 42.5895 98.7435 42.4089 98.494C42.2303 98.2471 41.823 98.0916 41.7275 97.7957C41.6352 97.5098 41.6121 97.145 41.6121 96.828C41.6121 96.3693 41.568 96.3693 41.568 95.9106C41.568 95.4519 41.6108 95.4519 41.6108 94.9932C41.6108 94.6762 41.9779 94.4233 42.0708 94.1374C42.1664 93.8409 42.0728 93.4583 42.252 93.2114C42.4326 92.9619 42.6072 92.6342 42.8557 92.4529C43.1015 92.2735 43.4995 92.3112 43.7948 92.2146C44.0795 92.1219 44.378 91.9154 44.6937 91.9154C45.1246 91.9154 45.1246 91.9472 45.5556 91.9472C45.9866 91.9472 45.9873 92.1987 46.4183 92.1987C46.8493 92.1987 46.8506 91.9545 47.2829 91.9545C47.7152 91.9545 47.7159 92.0306 48.1488 92.0306C48.5818 92.0306 48.5811 91.8618 49.0134 91.8618C49.4457 91.8618 49.4451 92.2391 49.8767 92.2391C50.3084 92.2391 50.3084 92.2305 50.74 92.2305C51.1717 92.2305 51.1717 92.1378 51.6033 92.1378C52.035 92.1378 52.035 91.9505 52.4673 91.9505C52.8996 91.9505 52.8996 92.018 53.3326 92.018C53.7655 92.018 53.7655 91.8506 54.1985 91.8506C54.6315 91.8506 54.6308 92.155 55.0631 92.155C55.4954 92.155 55.4954 91.977 55.9271 91.977C56.3587 91.977 56.3594 91.9922 56.7917 91.9922C57.224 91.9922 57.2247 92.108 57.6576 92.108C58.0906 92.108 58.0906 92.1564 58.5236 92.1564C58.9565 92.1564 58.9559 91.9426 59.3888 91.9426C59.8218 91.9426 59.8218 91.9439 60.2548 91.9439C60.6877 91.9439 60.6884 92.2543 61.1214 92.2543C61.5543 92.2543 61.5543 92.1292 61.9873 92.1292C62.4203 92.1292 62.4209 92.2669 62.8539 92.2669C63.2868 92.2669 63.2869 91.9631 63.7205 91.9631C64.1541 91.9631 64.1541 92.2001 64.5871 92.2001C65.02 92.2001 65.0194 92.0213 65.4517 92.0213C65.884 92.0213 65.884 92.165 66.3163 92.165C66.7486 92.165 66.7499 91.887 67.1842 91.887C67.6185 91.887 67.6172 91.8473 68.0501 91.8473C68.4831 91.8473 68.4838 92.1809 68.9174 92.1809C69.351 92.1809 69.3517 91.8545 69.786 91.8545C70.2202 91.8545 70.2196 92.0465 70.6532 92.0465C71.0868 92.0465 71.0875 92.1074 71.5224 92.1074C71.9574 92.1074 71.9574 92.1484 72.393 92.1484C72.8286 92.1484 72.8279 92.0994 73.2635 92.0994C73.5792 92.0994 73.8323 92.2616 74.117 92.3549C74.4122 92.4509 74.8063 92.3404 75.0521 92.5197C75.3005 92.7011 75.3341 93.1002 75.5147 93.3498C75.6933 93.5966 76.0432 93.7575 76.1388 94.054C76.231 94.3399 76.152 94.6755 76.152 94.9926C76.152 95.4513 76.1052 95.4513 76.1052 95.91C76.1052 96.3687 75.9984 96.3687 75.9984 96.8273C75.9984 97.1444 76.146 97.4522 76.0538 97.7381C75.9582 98.0346 75.8277 98.3219 75.6491 98.5681C75.4686 98.8177 75.1555 98.9183 74.9071 99.0996C74.6613 99.279 74.4642 99.5312 74.169 99.6272C73.8843 99.7198 73.5785 99.7245 73.2629 99.7245L73.2622 99.7264Z" fill="#F5580A"/>
<path d="M94.3958 45.6299C93.9681 45.6299 93.9681 45.5359 93.5404 45.5359C93.1127 45.5359 93.1127 45.4406 92.6843 45.4406C92.256 45.4406 92.256 45.4327 91.8283 45.4327C91.4006 45.4327 91.3999 45.5584 90.9716 45.5584C90.5432 45.5584 90.5432 45.4029 90.1149 45.4029C89.6865 45.4029 89.6859 45.6412 89.2575 45.6412C88.8292 45.6412 88.8285 45.4254 88.3995 45.4254C87.9705 45.4254 87.9705 45.7398 87.5408 45.7398C87.1111 45.7398 87.1118 45.3168 86.6828 45.3168C86.2538 45.3168 86.2538 45.3585 85.8254 45.3585C85.3971 45.3585 85.3971 45.6736 84.968 45.6736C84.539 45.6736 84.5397 45.52 84.1113 45.52C83.683 45.52 83.683 45.3903 83.2546 45.3903C82.8263 45.3903 82.8263 45.3929 82.3986 45.3929C81.9709 45.3929 81.9702 45.34 81.5425 45.34C81.1148 45.34 81.1148 45.7133 80.6865 45.7133C80.2581 45.7133 80.2588 45.3215 79.8304 45.3215C79.4021 45.3215 79.4027 45.7027 78.9744 45.7027C78.546 45.7027 78.546 45.757 78.1183 45.757C77.6906 45.757 77.69 45.5803 77.2623 45.5803C76.8346 45.5803 76.8339 45.432 76.4056 45.432C75.9772 45.432 75.9772 45.61 75.5489 45.61C75.1205 45.61 75.1205 45.7034 74.6915 45.7034C74.2625 45.7034 74.2625 45.3268 73.8341 45.3268C73.4058 45.3268 73.4051 45.3625 72.9761 45.3625C72.5471 45.3625 72.5464 45.3049 72.1174 45.3049C71.6884 45.3049 71.6884 45.4532 71.2587 45.4532C70.8291 45.4532 70.8297 45.4988 70.4007 45.4988C69.9717 45.4988 69.9717 45.5544 69.5433 45.5544C69.115 45.5544 69.115 45.3876 68.686 45.3876C68.257 45.3876 68.2576 45.3155 67.8286 45.3155C67.3996 45.3155 67.4003 45.3843 66.9719 45.3843C66.5436 45.3843 66.5436 45.4744 66.1152 45.4744C65.6868 45.4744 65.6868 45.7219 65.2585 45.7219C64.8301 45.7219 64.8301 45.5928 64.4011 45.5928C63.9721 45.5928 63.9721 45.6061 63.5438 45.6061H62.6857C62.2567 45.6061 62.2567 45.5657 61.8277 45.5657C61.3987 45.5657 61.398 45.5856 60.969 45.5856C60.54 45.5856 60.5394 45.5769 60.1103 45.5769C59.6813 45.5769 59.6813 45.7338 59.2523 45.7338C58.8233 45.7338 58.8233 45.3069 58.3943 45.3069C57.9653 45.3069 57.9653 45.7087 57.5369 45.7087C57.1086 45.7087 57.1079 45.3016 56.6796 45.3016C56.2512 45.3016 56.2505 45.5981 55.8222 45.5981C55.3938 45.5981 55.3932 45.5769 54.9642 45.5769C54.5351 45.5769 54.5351 45.5882 54.1061 45.5882C53.6771 45.5882 53.6771 45.5147 53.2475 45.5147C52.8178 45.5147 52.8178 45.6749 52.3881 45.6749C51.9584 45.6749 51.9584 45.4909 51.5294 45.4909C51.1004 45.4909 51.1004 45.5405 50.6707 45.5405C50.2411 45.5405 50.2417 45.6537 49.8127 45.6537C49.3837 45.6537 49.3837 45.6087 48.9547 45.6087C48.5257 45.6087 48.5257 45.3373 48.0967 45.3373C47.6676 45.3373 47.6676 45.7312 47.238 45.7312C46.8083 45.7312 46.8083 45.5591 46.3786 45.5591C45.949 45.5591 45.949 45.6484 45.5193 45.6484C45.0896 45.6484 45.0903 45.4366 44.6619 45.4366C44.2336 45.4366 44.2336 45.6431 43.8052 45.6431C43.3769 45.6431 43.3775 45.6239 42.9492 45.6239C42.5208 45.6239 42.5215 45.2837 42.0938 45.2837C41.6661 45.2837 41.6661 45.5452 41.2384 45.5452C40.8107 45.5452 40.8107 45.3076 40.3823 45.3076C39.954 45.3076 39.954 45.5889 39.5256 45.5889C39.0973 45.5889 39.0966 45.4042 38.6683 45.4042C38.2399 45.4042 38.2386 45.5882 37.8096 45.5882C37.3806 45.5882 37.3792 45.6822 36.9489 45.6822C36.5186 45.6822 36.5192 45.7424 36.0902 45.7424C35.6612 45.7424 35.6612 45.297 35.2322 45.297C34.8032 45.297 34.8032 45.4121 34.3748 45.4121C33.9465 45.4121 33.9458 45.3407 33.5175 45.3407C33.0891 45.3407 33.0885 45.4843 32.6594 45.4843C32.2304 45.4843 32.2298 45.5796 31.8001 45.5796C31.3704 45.5796 31.3698 45.3056 30.9394 45.3056C30.5091 45.3056 30.5098 45.6365 30.0801 45.6365C29.6504 45.6365 29.6504 45.4035 29.2214 45.4035C28.7924 45.4035 28.7917 45.5319 28.3621 45.5319C27.9324 45.5319 27.9317 45.4505 27.5014 45.4505C27.0711 45.4505 27.0711 45.2923 26.6407 45.2923C26.2104 45.2923 26.2111 45.4313 25.7814 45.4313C25.3517 45.4313 25.3511 45.4333 24.9214 45.4333C24.4917 45.4333 24.4911 45.571 24.0601 45.571C23.6291 45.571 23.6297 45.6392 23.2001 45.6392C22.7704 45.6392 22.7697 45.7073 22.3388 45.7073C21.9078 45.7073 21.9084 45.7126 21.4781 45.7126C21.0478 45.7126 21.0478 45.3307 20.6168 45.3307C20.1858 45.3307 20.1871 45.5531 19.7574 45.5531C19.3278 45.5531 19.3278 45.5769 18.8981 45.5769C18.4684 45.5769 18.4671 45.4148 18.0361 45.4148C17.6051 45.4148 17.6058 45.3201 17.1754 45.3201C16.7451 45.3201 16.7445 45.3982 16.3135 45.3982C15.8825 45.3982 15.8818 45.4479 15.4508 45.4479C15.0198 45.4479 15.0198 45.6134 14.5895 45.6134C14.1592 45.6134 14.1579 45.3612 13.7262 45.3612C13.2946 45.3612 13.2939 45.7034 12.8616 45.7034C12.4293 45.7034 12.4293 45.5015 11.997 45.5015C11.6642 45.5015 11.3571 45.4313 11.0678 45.3102C10.7679 45.1851 10.3646 45.1507 10.1386 44.9237C9.91254 44.6966 9.79788 44.3253 9.67332 44.0241C9.55338 43.7336 9.56459 43.3914 9.56459 43.0571C9.56459 42.6256 9.73593 42.6256 9.73593 42.194C9.73593 41.7625 9.65289 41.7625 9.65289 41.3309C9.65289 40.8994 9.37677 40.8994 9.37677 40.4678C9.37677 40.0362 9.64696 40.0362 9.64696 39.6047C9.64696 39.1731 9.59754 39.1731 9.59754 38.7409C9.59754 38.3087 9.51648 38.3087 9.51648 37.8765C9.51648 37.4443 9.60676 37.4436 9.60676 37.0107C9.60676 36.5778 9.66146 36.5772 9.66146 36.143C9.66146 35.7088 9.46574 35.7101 9.46574 35.2766C9.46574 34.843 9.5033 34.8437 9.5033 34.4115C9.5033 33.9793 9.43344 33.9793 9.43344 33.5464C9.43344 33.1135 9.77547 33.1142 9.77547 32.6813C9.77547 32.2484 9.76031 32.2484 9.76031 31.8155C9.76031 31.3826 9.74186 31.382 9.74186 30.9484C9.74186 30.5149 9.72143 30.5142 9.72143 30.0807C9.72143 29.6472 9.57908 29.6472 9.57908 29.2143C9.57908 28.7814 9.71484 28.7814 9.71484 28.3485C9.71484 27.9157 9.44597 27.915 9.44597 27.4821C9.44597 27.0492 9.36952 27.0479 9.36952 26.6144C9.36952 26.1808 9.39588 26.1808 9.39588 25.7466C9.39588 25.3124 9.48551 25.3131 9.48551 24.8795C9.48551 24.446 9.52241 24.446 9.52241 24.0118C9.52241 23.5776 9.7445 23.5776 9.7445 23.1434C9.7445 22.7092 9.58765 22.7099 9.58765 22.2757C9.58765 21.8415 9.59886 21.8415 9.59886 21.4073C9.59886 20.9731 9.64762 20.9731 9.64762 20.5395C9.64762 20.106 9.52307 20.1053 9.52307 19.6711C9.52307 19.2369 9.54745 19.2376 9.54745 18.8047C9.54745 18.3718 9.49935 18.3712 9.49935 17.9383C9.49935 17.5054 9.48287 17.5034 9.48287 17.0692C9.48287 16.635 9.64037 16.635 9.64037 16.2015C9.64037 15.7679 9.74845 15.7666 9.74845 15.3324C9.74845 14.8982 9.57315 14.8975 9.57315 14.462C9.57315 14.0265 9.67266 14.0278 9.67266 13.5929C9.67266 13.1581 9.3313 13.1574 9.3313 12.7219C9.3313 12.2864 9.5402 12.2857 9.5402 11.8495C9.5402 11.4133 9.39786 11.4133 9.39786 10.9771C9.39786 10.6429 9.54679 10.298 9.66673 10.0075C9.79128 9.7063 10.103 9.52892 10.329 9.30189C10.5551 9.07486 10.8384 9.01992 11.1383 8.89549C11.4276 8.77502 11.6642 8.40701 11.997 8.40701C12.4247 8.40701 12.4247 8.45731 12.8524 8.45731C13.2801 8.45731 13.2801 8.61617 13.7084 8.61617C14.1368 8.61617 14.1368 8.45268 14.5645 8.45268C14.9922 8.45268 14.9928 8.38252 15.4212 8.38252C15.8495 8.38252 15.8495 8.64198 16.2779 8.64198C16.7062 8.64198 16.7069 8.40833 17.1352 8.40833C17.5636 8.40833 17.5643 8.38914 17.9933 8.38914C18.4223 8.38914 18.4223 8.5791 18.852 8.5791C19.2816 8.5791 19.281 8.67839 19.71 8.67839C20.139 8.67839 20.139 8.28257 20.5673 8.28257C20.9957 8.28257 20.9957 8.66316 21.4247 8.66316C21.8537 8.66316 21.8531 8.74193 22.2814 8.74193C22.7098 8.74193 22.7098 8.45599 23.1381 8.45599C23.5665 8.45599 23.5665 8.72141 23.9942 8.72141C24.4219 8.72141 24.4225 8.3342 24.8502 8.3342C25.2779 8.3342 25.2779 8.46393 25.7063 8.46393C26.1346 8.46393 26.134 8.61683 26.5623 8.61683C26.9907 8.61683 26.99 8.72472 27.4184 8.72472C27.8467 8.72472 27.8467 8.28125 28.2744 8.28125C28.7021 8.28125 28.7028 8.46393 29.1305 8.46393C29.5582 8.46393 29.5588 8.46592 29.9872 8.46592C30.4155 8.46592 30.4155 8.44474 30.8439 8.44474C31.2722 8.44474 31.2722 8.45268 31.7013 8.45268C32.1303 8.45268 32.1303 8.55792 32.5586 8.55792C32.987 8.55792 32.9876 8.30309 33.4166 8.30309C33.8457 8.30309 33.8463 8.48313 34.2753 8.48313C34.7043 8.48313 34.7043 8.36068 35.134 8.36068C35.5637 8.36068 35.563 8.39907 35.992 8.39907C36.4211 8.39907 36.4211 8.73597 36.8494 8.73597C37.2778 8.73597 37.2778 8.46128 37.7068 8.46128C38.1358 8.46128 38.1351 8.46857 38.5641 8.46857C38.9932 8.46857 38.9925 8.69559 39.4208 8.69559C39.8492 8.69559 39.8492 8.31765 40.2776 8.31765C40.7059 8.31765 40.7059 8.65059 41.1343 8.65059C41.5626 8.65059 41.5626 8.46393 41.9916 8.46393C42.4206 8.46393 42.4206 8.48842 42.849 8.48842C43.2774 8.48842 43.278 8.7267 43.707 8.7267C44.136 8.7267 44.136 8.70486 44.565 8.70486C44.9941 8.70486 44.9947 8.67177 45.4237 8.67177C45.8527 8.67177 45.8534 8.60822 46.2824 8.60822C46.7114 8.60822 46.7114 8.36465 47.1404 8.36465C47.5695 8.36465 47.5695 8.71082 47.9985 8.71082C48.4275 8.71082 48.4275 8.67574 48.8558 8.67574C49.2842 8.67574 49.2848 8.29383 49.7132 8.29383C50.1416 8.29383 50.1422 8.34347 50.5706 8.34347C50.9989 8.34347 50.9996 8.49769 51.4286 8.49769C51.8576 8.49769 51.8576 8.45069 52.2866 8.45069C52.7156 8.45069 52.7156 8.43547 53.1453 8.43547C53.575 8.43547 53.575 8.4123 54.0046 8.4123C54.4343 8.4123 54.4343 8.52284 54.8633 8.52284C55.2923 8.52284 55.2923 8.46724 55.722 8.46724C56.1517 8.46724 56.151 8.43282 56.58 8.43282C57.0091 8.43282 57.0091 8.69096 57.4381 8.69096C57.8671 8.69096 57.8671 8.74391 58.2961 8.74391C58.7251 8.74391 58.7251 8.33817 59.1548 8.33817C59.5845 8.33817 59.5845 8.68831 60.0141 8.68831C60.4438 8.68831 60.4438 8.57712 60.8735 8.57712C61.3031 8.57712 61.3025 8.32891 61.7308 8.32891C62.1592 8.32891 62.1592 8.58572 62.5875 8.58572C63.0159 8.58572 63.0152 8.60094 63.4436 8.60094C63.8719 8.60094 63.8713 8.70354 64.299 8.70354C64.7267 8.70354 64.7267 8.32758 65.1544 8.32758C65.5821 8.32758 65.5821 8.4176 66.0104 8.4176C66.4388 8.4176 66.4388 8.72737 66.8671 8.72737C67.2955 8.72737 67.2961 8.71148 67.7245 8.71148C68.1528 8.71148 68.1542 8.71016 68.5832 8.71016C69.0122 8.71016 69.0135 8.37193 69.4438 8.37193C69.8742 8.37193 69.8735 8.41363 70.3025 8.41363C70.7315 8.41363 70.7315 8.64662 71.1606 8.64662C71.5896 8.64662 71.5896 8.57645 72.0179 8.57645C72.4463 8.57645 72.4469 8.35273 72.8753 8.35273C73.3036 8.35273 73.3043 8.5235 73.7333 8.5235C74.1623 8.5235 74.163 8.64926 74.5927 8.64926C75.0223 8.64926 75.023 8.57447 75.4533 8.57447C75.8836 8.57447 75.883 8.48511 76.3127 8.48511C76.7423 8.48511 76.7423 8.64992 77.1713 8.64992C77.6003 8.64992 77.601 8.53608 78.0307 8.53608C78.4604 8.53608 78.461 8.58903 78.8913 8.58903C79.3217 8.58903 79.3217 8.53343 79.752 8.53343C80.1823 8.53343 80.1817 8.44275 80.6113 8.44275C81.041 8.44275 81.0417 8.62874 81.4714 8.62874C81.901 8.62874 81.9017 8.32626 82.3327 8.32626C82.7637 8.32626 82.763 8.57314 83.1927 8.57314C83.6224 8.57314 83.623 8.62941 84.054 8.62941C84.485 8.62941 84.4843 8.6539 84.9147 8.6539C85.345 8.6539 85.345 8.61815 85.776 8.61815C86.207 8.61815 86.2057 8.54865 86.6353 8.54865C87.065 8.54865 87.065 8.501 87.4947 8.501C87.9243 8.501 87.9257 8.46261 88.3566 8.46261C88.7876 8.46261 88.787 8.68765 89.2173 8.68765C89.6476 8.68765 89.6483 8.45599 90.0793 8.45599C90.5103 8.45599 90.5109 8.29912 90.9419 8.29912C91.3729 8.29912 91.3729 8.33222 91.8032 8.33222C92.2336 8.33222 92.2349 8.62543 92.6666 8.62543C93.0982 8.62543 93.0989 8.6989 93.5312 8.6989C93.9635 8.6989 93.9635 8.5149 94.3958 8.5149C94.7286 8.5149 95.1187 8.40105 95.408 8.52152C95.7079 8.64661 95.9056 9.00536 96.1316 9.23239C96.3576 9.45942 96.5204 9.73874 96.645 10.0399C96.7649 10.3305 97.014 10.6416 97.014 10.9758C97.014 11.4074 96.6371 11.4074 96.6371 11.8389C96.6371 12.2705 96.6871 12.2705 96.6871 12.702C96.6871 13.1336 97.0166 13.1336 97.0166 13.5651C97.0166 13.9967 96.7036 13.9967 96.7036 14.4283C96.7036 14.8598 96.6331 14.8598 96.6331 15.292C96.6331 15.7242 96.6476 15.7242 96.6476 16.1565C96.6476 16.5887 96.9079 16.5893 96.9079 17.0222C96.9079 17.4551 97.0087 17.4558 97.0087 17.89C97.0087 18.3242 96.7418 18.3228 96.7418 18.7564C96.7418 19.1899 97.0318 19.1893 97.0318 19.6215C97.0318 20.0537 96.6351 20.0537 96.6351 20.4866C96.6351 20.9194 96.817 20.9188 96.817 21.3517C96.817 21.7845 96.9784 21.7845 96.9784 22.2174C96.9784 22.6503 96.8071 22.651 96.8071 23.0845C96.8071 23.518 96.9824 23.5187 96.9824 23.9522C96.9824 24.3858 96.6654 24.3858 96.6654 24.8187C96.6654 25.2515 96.8394 25.2515 96.8394 25.6844C96.8394 26.1173 97.0061 26.118 97.0061 26.5508C97.0061 26.9837 97.0114 26.985 97.0114 27.4186C97.0114 27.8521 96.7418 27.8521 96.7418 28.2863C96.7418 28.7205 97.0522 28.7199 97.0522 29.1534C97.0522 29.5869 96.873 29.5869 96.873 30.0211C96.873 30.4553 96.8848 30.4553 96.8848 30.8895C96.8848 31.3237 96.7708 31.3231 96.7708 31.7573C96.7708 32.1915 96.6417 32.1915 96.6417 32.6257C96.6417 33.0599 96.7998 33.0599 96.7998 33.4934C96.7998 33.927 96.8354 33.9276 96.8354 34.3618C96.8354 34.796 96.7161 34.7954 96.7161 35.2282C96.7161 35.6611 96.757 35.6618 96.757 36.0947C96.757 36.5275 96.6595 36.5295 96.6595 36.9637C96.6595 37.3979 96.7379 37.3979 96.7379 37.8315C96.7379 38.265 97.0239 38.2663 97.0239 38.7005C97.0239 39.1347 96.8664 39.1354 96.8664 39.5709C96.8664 40.0065 96.9165 40.0051 96.9165 40.44C96.9165 40.8749 96.7161 40.8755 96.7161 41.311C96.7161 41.7466 96.8638 41.7472 96.8638 42.1834C96.8638 42.6196 96.6825 42.6196 96.6825 43.0558C96.6825 43.3901 96.7662 43.7011 96.6463 43.9917C96.5217 44.2929 96.5224 44.737 96.2964 44.964C96.0703 45.1911 95.5741 45.06 95.2742 45.1844C94.9849 45.3049 94.7292 45.6312 94.3964 45.6312V45.6299H94.3958Z" fill="#FF8547"/>
<mask id="mask1_2973_8450" style="mask-type:luminance" maskUnits="userSpaceOnUse" x="9" y="8" width="89" height="38">
<path d="M94.3958 45.6299C93.9681 45.6299 93.9681 45.5359 93.5404 45.5359C93.1127 45.5359 93.1127 45.4406 92.6843 45.4406C92.256 45.4406 92.256 45.4327 91.8283 45.4327C91.4006 45.4327 91.3999 45.5584 90.9716 45.5584C90.5432 45.5584 90.5432 45.4029 90.1149 45.4029C89.6865 45.4029 89.6859 45.6412 89.2575 45.6412C88.8292 45.6412 88.8285 45.4254 88.3995 45.4254C87.9705 45.4254 87.9705 45.7398 87.5408 45.7398C87.1111 45.7398 87.1118 45.3168 86.6828 45.3168C86.2538 45.3168 86.2538 45.3585 85.8254 45.3585C85.3971 45.3585 85.3971 45.6736 84.968 45.6736C84.539 45.6736 84.5397 45.52 84.1113 45.52C83.683 45.52 83.683 45.3903 83.2546 45.3903C82.8263 45.3903 82.8263 45.3929 82.3986 45.3929C81.9709 45.3929 81.9702 45.34 81.5425 45.34C81.1148 45.34 81.1148 45.7133 80.6865 45.7133C80.2581 45.7133 80.2588 45.3215 79.8304 45.3215C79.4021 45.3215 79.4027 45.7027 78.9744 45.7027C78.546 45.7027 78.546 45.757 78.1183 45.757C77.6906 45.757 77.69 45.5803 77.2623 45.5803C76.8346 45.5803 76.8339 45.432 76.4056 45.432C75.9772 45.432 75.9772 45.61 75.5489 45.61C75.1205 45.61 75.1205 45.7034 74.6915 45.7034C74.2625 45.7034 74.2625 45.3268 73.8341 45.3268C73.4058 45.3268 73.4051 45.3625 72.9761 45.3625C72.5471 45.3625 72.5464 45.3049 72.1174 45.3049C71.6884 45.3049 71.6884 45.4532 71.2587 45.4532C70.8291 45.4532 70.8297 45.4988 70.4007 45.4988C69.9717 45.4988 69.9717 45.5544 69.5433 45.5544C69.115 45.5544 69.115 45.3876 68.686 45.3876C68.257 45.3876 68.2576 45.3155 67.8286 45.3155C67.3996 45.3155 67.4003 45.3843 66.9719 45.3843C66.5436 45.3843 66.5436 45.4744 66.1152 45.4744C65.6868 45.4744 65.6868 45.7219 65.2585 45.7219C64.8301 45.7219 64.8301 45.5928 64.4011 45.5928C63.9721 45.5928 63.9721 45.6061 63.5438 45.6061H62.6857C62.2567 45.6061 62.2567 45.5657 61.8277 45.5657C61.3987 45.5657 61.398 45.5856 60.969 45.5856C60.54 45.5856 60.5394 45.5769 60.1103 45.5769C59.6813 45.5769 59.6813 45.7338 59.2523 45.7338C58.8233 45.7338 58.8233 45.3069 58.3943 45.3069C57.9653 45.3069 57.9653 45.7087 57.5369 45.7087C57.1086 45.7087 57.1079 45.3016 56.6796 45.3016C56.2512 45.3016 56.2505 45.5981 55.8222 45.5981C55.3938 45.5981 55.3932 45.5769 54.9642 45.5769C54.5351 45.5769 54.5351 45.5882 54.1061 45.5882C53.6771 45.5882 53.6771 45.5147 53.2475 45.5147C52.8178 45.5147 52.8178 45.6749 52.3881 45.6749C51.9584 45.6749 51.9584 45.4909 51.5294 45.4909C51.1004 45.4909 51.1004 45.5405 50.6707 45.5405C50.2411 45.5405 50.2417 45.6537 49.8127 45.6537C49.3837 45.6537 49.3837 45.6087 48.9547 45.6087C48.5257 45.6087 48.5257 45.3373 48.0967 45.3373C47.6676 45.3373 47.6676 45.7312 47.238 45.7312C46.8083 45.7312 46.8083 45.5591 46.3786 45.5591C45.949 45.5591 45.949 45.6484 45.5193 45.6484C45.0896 45.6484 45.0903 45.4366 44.6619 45.4366C44.2336 45.4366 44.2336 45.6431 43.8052 45.6431C43.3769 45.6431 43.3775 45.6239 42.9492 45.6239C42.5208 45.6239 42.5215 45.2837 42.0938 45.2837C41.6661 45.2837 41.6661 45.5452 41.2384 45.5452C40.8107 45.5452 40.8107 45.3076 40.3823 45.3076C39.954 45.3076 39.954 45.5889 39.5256 45.5889C39.0973 45.5889 39.0966 45.4042 38.6683 45.4042C38.2399 45.4042 38.2386 45.5882 37.8096 45.5882C37.3806 45.5882 37.3792 45.6822 36.9489 45.6822C36.5186 45.6822 36.5192 45.7424 36.0902 45.7424C35.6612 45.7424 35.6612 45.297 35.2322 45.297C34.8032 45.297 34.8032 45.4121 34.3748 45.4121C33.9465 45.4121 33.9458 45.3407 33.5175 45.3407C33.0891 45.3407 33.0885 45.4843 32.6594 45.4843C32.2304 45.4843 32.2298 45.5796 31.8001 45.5796C31.3704 45.5796 31.3698 45.3056 30.9394 45.3056C30.5091 45.3056 30.5098 45.6365 30.0801 45.6365C29.6504 45.6365 29.6504 45.4035 29.2214 45.4035C28.7924 45.4035 28.7917 45.5319 28.3621 45.5319C27.9324 45.5319 27.9317 45.4505 27.5014 45.4505C27.0711 45.4505 27.0711 45.2923 26.6407 45.2923C26.2104 45.2923 26.2111 45.4313 25.7814 45.4313C25.3517 45.4313 25.3511 45.4333 24.9214 45.4333C24.4917 45.4333 24.4911 45.571 24.0601 45.571C23.6291 45.571 23.6297 45.6392 23.2001 45.6392C22.7704 45.6392 22.7697 45.7073 22.3388 45.7073C21.9078 45.7073 21.9084 45.7126 21.4781 45.7126C21.0478 45.7126 21.0478 45.3307 20.6168 45.3307C20.1858 45.3307 20.1871 45.5531 19.7574 45.5531C19.3278 45.5531 19.3278 45.5769 18.8981 45.5769C18.4684 45.5769 18.4671 45.4148 18.0361 45.4148C17.6051 45.4148 17.6058 45.3201 17.1754 45.3201C16.7451 45.3201 16.7445 45.3982 16.3135 45.3982C15.8825 45.3982 15.8818 45.4479 15.4508 45.4479C15.0198 45.4479 15.0198 45.6134 14.5895 45.6134C14.1592 45.6134 14.1579 45.3612 13.7262 45.3612C13.2946 45.3612 13.2939 45.7034 12.8616 45.7034C12.4293 45.7034 12.4293 45.5015 11.997 45.5015C11.6642 45.5015 11.3571 45.4313 11.0678 45.3102C10.7679 45.1851 10.3646 45.1507 10.1386 44.9237C9.91254 44.6966 9.79788 44.3253 9.67332 44.0241C9.55338 43.7336 9.56459 43.3914 9.56459 43.0571C9.56459 42.6256 9.73593 42.6256 9.73593 42.194C9.73593 41.7625 9.65289 41.7625 9.65289 41.3309C9.65289 40.8994 9.37677 40.8994 9.37677 40.4678C9.37677 40.0362 9.64696 40.0362 9.64696 39.6047C9.64696 39.1731 9.59754 39.1731 9.59754 38.7409C9.59754 38.3087 9.51648 38.3087 9.51648 37.8765C9.51648 37.4443 9.60676 37.4436 9.60676 37.0107C9.60676 36.5778 9.66146 36.5772 9.66146 36.143C9.66146 35.7088 9.46574 35.7101 9.46574 35.2766C9.46574 34.843 9.5033 34.8437 9.5033 34.4115C9.5033 33.9793 9.43344 33.9793 9.43344 33.5464C9.43344 33.1135 9.77547 33.1142 9.77547 32.6813C9.77547 32.2484 9.76031 32.2484 9.76031 31.8155C9.76031 31.3826 9.74186 31.382 9.74186 30.9484C9.74186 30.5149 9.72143 30.5142 9.72143 30.0807C9.72143 29.6472 9.57908 29.6472 9.57908 29.2143C9.57908 28.7814 9.71484 28.7814 9.71484 28.3485C9.71484 27.9157 9.44597 27.915 9.44597 27.4821C9.44597 27.0492 9.36952 27.0479 9.36952 26.6144C9.36952 26.1808 9.39588 26.1808 9.39588 25.7466C9.39588 25.3124 9.48551 25.3131 9.48551 24.8795C9.48551 24.446 9.52241 24.446 9.52241 24.0118C9.52241 23.5776 9.7445 23.5776 9.7445 23.1434C9.7445 22.7092 9.58765 22.7099 9.58765 22.2757C9.58765 21.8415 9.59886 21.8415 9.59886 21.4073C9.59886 20.9731 9.64762 20.9731 9.64762 20.5395C9.64762 20.106 9.52307 20.1053 9.52307 19.6711C9.52307 19.2369 9.54745 19.2376 9.54745 18.8047C9.54745 18.3718 9.49935 18.3712 9.49935 17.9383C9.49935 17.5054 9.48287 17.5034 9.48287 17.0692C9.48287 16.635 9.64037 16.635 9.64037 16.2015C9.64037 15.7679 9.74845 15.7666 9.74845 15.3324C9.74845 14.8982 9.57315 14.8975 9.57315 14.462C9.57315 14.0265 9.67266 14.0278 9.67266 13.5929C9.67266 13.1581 9.3313 13.1574 9.3313 12.7219C9.3313 12.2864 9.5402 12.2857 9.5402 11.8495C9.5402 11.4133 9.39786 11.4133 9.39786 10.9771C9.39786 10.6429 9.54679 10.298 9.66673 10.0075C9.79128 9.7063 10.103 9.52892 10.329 9.30189C10.5551 9.07486 10.8384 9.01992 11.1383 8.89549C11.4276 8.77502 11.6642 8.40701 11.997 8.40701C12.4247 8.40701 12.4247 8.45731 12.8524 8.45731C13.2801 8.45731 13.2801 8.61617 13.7084 8.61617C14.1368 8.61617 14.1368 8.45268 14.5645 8.45268C14.9922 8.45268 14.9928 8.38252 15.4212 8.38252C15.8495 8.38252 15.8495 8.64198 16.2779 8.64198C16.7062 8.64198 16.7069 8.40833 17.1352 8.40833C17.5636 8.40833 17.5643 8.38914 17.9933 8.38914C18.4223 8.38914 18.4223 8.5791 18.852 8.5791C19.2816 8.5791 19.281 8.67839 19.71 8.67839C20.139 8.67839 20.139 8.28257 20.5673 8.28257C20.9957 8.28257 20.9957 8.66316 21.4247 8.66316C21.8537 8.66316 21.8531 8.74193 22.2814 8.74193C22.7098 8.74193 22.7098 8.45599 23.1381 8.45599C23.5665 8.45599 23.5665 8.72141 23.9942 8.72141C24.4219 8.72141 24.4225 8.3342 24.8502 8.3342C25.2779 8.3342 25.2779 8.46393 25.7063 8.46393C26.1346 8.46393 26.134 8.61683 26.5623 8.61683C26.9907 8.61683 26.99 8.72472 27.4184 8.72472C27.8467 8.72472 27.8467 8.28125 28.2744 8.28125C28.7021 8.28125 28.7028 8.46393 29.1305 8.46393C29.5582 8.46393 29.5588 8.46592 29.9872 8.46592C30.4155 8.46592 30.4155 8.44474 30.8439 8.44474C31.2722 8.44474 31.2722 8.45268 31.7013 8.45268C32.1303 8.45268 32.1303 8.55792 32.5586 8.55792C32.987 8.55792 32.9876 8.30309 33.4166 8.30309C33.8457 8.30309 33.8463 8.48313 34.2753 8.48313C34.7043 8.48313 34.7043 8.36068 35.134 8.36068C35.5637 8.36068 35.563 8.39907 35.992 8.39907C36.4211 8.39907 36.4211 8.73597 36.8494 8.73597C37.2778 8.73597 37.2778 8.46128 37.7068 8.46128C38.1358 8.46128 38.1351 8.46857 38.5641 8.46857C38.9932 8.46857 38.9925 8.69559 39.4208 8.69559C39.8492 8.69559 39.8492 8.31765 40.2776 8.31765C40.7059 8.31765 40.7059 8.65059 41.1343 8.65059C41.5626 8.65059 41.5626 8.46393 41.9916 8.46393C42.4206 8.46393 42.4206 8.48842 42.849 8.48842C43.2774 8.48842 43.278 8.7267 43.707 8.7267C44.136 8.7267 44.136 8.70486 44.565 8.70486C44.9941 8.70486 44.9947 8.67177 45.4237 8.67177C45.8527 8.67177 45.8534 8.60822 46.2824 8.60822C46.7114 8.60822 46.7114 8.36465 47.1404 8.36465C47.5695 8.36465 47.5695 8.71082 47.9985 8.71082C48.4275 8.71082 48.4275 8.67574 48.8558 8.67574C49.2842 8.67574 49.2848 8.29383 49.7132 8.29383C50.1416 8.29383 50.1422 8.34347 50.5706 8.34347C50.9989 8.34347 50.9996 8.49769 51.4286 8.49769C51.8576 8.49769 51.8576 8.45069 52.2866 8.45069C52.7156 8.45069 52.7156 8.43547 53.1453 8.43547C53.575 8.43547 53.575 8.4123 54.0046 8.4123C54.4343 8.4123 54.4343 8.52284 54.8633 8.52284C55.2923 8.52284 55.2923 8.46724 55.722 8.46724C56.1517 8.46724 56.151 8.43282 56.58 8.43282C57.0091 8.43282 57.0091 8.69096 57.4381 8.69096C57.8671 8.69096 57.8671 8.74391 58.2961 8.74391C58.7251 8.74391 58.7251 8.33817 59.1548 8.33817C59.5845 8.33817 59.5845 8.68831 60.0141 8.68831C60.4438 8.68831 60.4438 8.57712 60.8735 8.57712C61.3031 8.57712 61.3025 8.32891 61.7308 8.32891C62.1592 8.32891 62.1592 8.58572 62.5875 8.58572C63.0159 8.58572 63.0152 8.60094 63.4436 8.60094C63.8719 8.60094 63.8713 8.70354 64.299 8.70354C64.7267 8.70354 64.7267 8.32758 65.1544 8.32758C65.5821 8.32758 65.5821 8.4176 66.0104 8.4176C66.4388 8.4176 66.4388 8.72737 66.8671 8.72737C67.2955 8.72737 67.2961 8.71148 67.7245 8.71148C68.1528 8.71148 68.1542 8.71016 68.5832 8.71016C69.0122 8.71016 69.0135 8.37193 69.4438 8.37193C69.8742 8.37193 69.8735 8.41363 70.3025 8.41363C70.7315 8.41363 70.7315 8.64662 71.1606 8.64662C71.5896 8.64662 71.5896 8.57645 72.0179 8.57645C72.4463 8.57645 72.4469 8.35273 72.8753 8.35273C73.3036 8.35273 73.3043 8.5235 73.7333 8.5235C74.1623 8.5235 74.163 8.64926 74.5927 8.64926C75.0223 8.64926 75.023 8.57447 75.4533 8.57447C75.8836 8.57447 75.883 8.48511 76.3127 8.48511C76.7423 8.48511 76.7423 8.64992 77.1713 8.64992C77.6003 8.64992 77.601 8.53608 78.0307 8.53608C78.4604 8.53608 78.461 8.58903 78.8913 8.58903C79.3217 8.58903 79.3217 8.53343 79.752 8.53343C80.1823 8.53343 80.1817 8.44275 80.6113 8.44275C81.041 8.44275 81.0417 8.62874 81.4714 8.62874C81.901 8.62874 81.9017 8.32626 82.3327 8.32626C82.7637 8.32626 82.763 8.57314 83.1927 8.57314C83.6224 8.57314 83.623 8.62941 84.054 8.62941C84.485 8.62941 84.4843 8.6539 84.9147 8.6539C85.345 8.6539 85.345 8.61815 85.776 8.61815C86.207 8.61815 86.2057 8.54865 86.6353 8.54865C87.065 8.54865 87.065 8.501 87.4947 8.501C87.9243 8.501 87.9257 8.46261 88.3566 8.46261C88.7876 8.46261 88.787 8.68765 89.2173 8.68765C89.6476 8.68765 89.6483 8.45599 90.0793 8.45599C90.5103 8.45599 90.5109 8.29912 90.9419 8.29912C91.3729 8.29912 91.3729 8.33222 91.8032 8.33222C92.2336 8.33222 92.2349 8.62543 92.6666 8.62543C93.0982 8.62543 93.0989 8.6989 93.5312 8.6989C93.9635 8.6989 93.9635 8.5149 94.3958 8.5149C94.7286 8.5149 95.1187 8.40105 95.408 8.52152C95.7079 8.64661 95.9056 9.00536 96.1316 9.23239C96.3576 9.45942 96.5204 9.73874 96.645 10.0399C96.7649 10.3305 97.014 10.6416 97.014 10.9758C97.014 11.4074 96.6371 11.4074 96.6371 11.8389C96.6371 12.2705 96.6871 12.2705 96.6871 12.702C96.6871 13.1336 97.0166 13.1336 97.0166 13.5651C97.0166 13.9967 96.7036 13.9967 96.7036 14.4283C96.7036 14.8598 96.6331 14.8598 96.6331 15.292C96.6331 15.7242 96.6476 15.7242 96.6476 16.1565C96.6476 16.5887 96.9079 16.5893 96.9079 17.0222C96.9079 17.4551 97.0087 17.4558 97.0087 17.89C97.0087 18.3242 96.7418 18.3228 96.7418 18.7564C96.7418 19.1899 97.0318 19.1893 97.0318 19.6215C97.0318 20.0537 96.6351 20.0537 96.6351 20.4866C96.6351 20.9194 96.817 20.9188 96.817 21.3517C96.817 21.7845 96.9784 21.7845 96.9784 22.2174C96.9784 22.6503 96.8071 22.651 96.8071 23.0845C96.8071 23.518 96.9824 23.5187 96.9824 23.9522C96.9824 24.3858 96.6654 24.3858 96.6654 24.8187C96.6654 25.2515 96.8394 25.2515 96.8394 25.6844C96.8394 26.1173 97.0061 26.118 97.0061 26.5508C97.0061 26.9837 97.0114 26.985 97.0114 27.4186C97.0114 27.8521 96.7418 27.8521 96.7418 28.2863C96.7418 28.7205 97.0522 28.7199 97.0522 29.1534C97.0522 29.5869 96.873 29.5869 96.873 30.0211C96.873 30.4553 96.8848 30.4553 96.8848 30.8895C96.8848 31.3237 96.7708 31.3231 96.7708 31.7573C96.7708 32.1915 96.6417 32.1915 96.6417 32.6257C96.6417 33.0599 96.7998 33.0599 96.7998 33.4934C96.7998 33.927 96.8354 33.9276 96.8354 34.3618C96.8354 34.796 96.7161 34.7954 96.7161 35.2282C96.7161 35.6611 96.757 35.6618 96.757 36.0947C96.757 36.5275 96.6595 36.5295 96.6595 36.9637C96.6595 37.3979 96.7379 37.3979 96.7379 37.8315C96.7379 38.265 97.0239 38.2663 97.0239 38.7005C97.0239 39.1347 96.8664 39.1354 96.8664 39.5709C96.8664 40.0065 96.9165 40.0051 96.9165 40.44C96.9165 40.8749 96.7161 40.8755 96.7161 41.311C96.7161 41.7466 96.8638 41.7472 96.8638 42.1834C96.8638 42.6196 96.6825 42.6196 96.6825 43.0558C96.6825 43.3901 96.7662 43.7011 96.6463 43.9917C96.5217 44.2929 96.5224 44.737 96.2964 44.964C96.0703 45.1911 95.5741 45.06 95.2742 45.1844C94.9849 45.3049 94.7292 45.6312 94.3964 45.6312V45.6299H94.3958Z" fill="white"/>
</mask>
<g mask="url(#mask1_2973_8450)">
<path d="M74.5881 49.5642C74.5696 50.0037 74.1518 49.9037 73.8302 50.2016C73.5086 50.4994 73.4414 50.426 73.1191 50.7232C72.7969 51.0204 72.756 50.9754 72.4344 51.2732C72.1128 51.5711 72.1919 51.6584 71.8703 51.9563C71.5487 52.2541 71.4084 52.1026 71.0854 52.4004C70.7625 52.6983 70.7474 52.6824 70.4245 52.9816C70.1015 53.2807 70.2057 53.3926 69.8834 53.6911C69.5612 53.9896 69.4419 53.8592 69.1196 54.1571C68.7974 54.4549 68.9971 54.6733 68.6748 54.9719C68.3525 55.2704 68.3677 55.2876 68.0448 55.5861C67.7219 55.8846 67.8049 55.9753 67.4827 56.2745C67.1604 56.5736 67.1123 56.5207 66.79 56.8192C66.4678 57.1177 66.3413 56.9807 66.0183 57.2792C65.6954 57.5777 65.617 57.4924 65.2941 57.7909C64.9712 58.0894 64.9389 58.0523 64.6173 58.3502C64.2957 58.648 64.3899 58.75 64.0684 59.0478C63.7468 59.3457 63.9491 59.5667 63.6268 59.8646C63.3046 60.1624 63.2261 60.079 62.9026 60.3782C62.579 60.6774 62.6508 60.7542 62.3279 61.0527C62.005 61.3512 61.8798 61.2148 61.5575 61.5134C61.2353 61.8119 61.1997 61.7761 60.8761 62.0753C60.5526 62.3745 60.712 62.5479 60.3885 62.8464C60.0649 63.1449 59.9759 63.049 59.6517 63.3481C59.3275 63.6473 59.3255 63.6427 59.0032 63.9405C58.679 64.2404 58.5248 64.0716 58.2006 64.3714C57.8763 64.6712 58.0325 64.842 57.7076 65.1425C57.3827 65.443 57.3827 65.4443 57.0578 65.7455C56.733 66.0467 56.7896 66.3379 56.3474 66.3247C55.9151 66.3121 55.8894 66.1188 55.5968 65.7991C55.3042 65.4794 55.4308 65.3629 55.1382 65.0439C54.8456 64.7249 54.8073 64.7599 54.5154 64.4409C54.2235 64.1219 54.2953 64.055 54.0034 63.7367C53.7114 63.4183 53.7239 63.4057 53.432 63.0873C53.1401 62.769 53.1875 62.7246 52.8956 62.4062C52.6036 62.0879 52.4283 62.25 52.1364 61.931C51.8444 61.612 51.8491 61.6087 51.5571 61.2903C51.2652 60.9719 51.3186 60.9229 51.0266 60.6046C50.7347 60.2862 50.933 60.1029 50.6411 59.7845C50.3492 59.4661 50.1732 59.6289 49.8813 59.3106C49.5893 58.9922 49.4826 59.0908 49.1906 58.7725C48.8987 58.4541 49.2137 58.1622 48.9218 57.8438C48.6298 57.5254 48.4941 57.6505 48.2021 57.3322C47.9102 57.0138 47.868 57.0522 47.5761 56.7338C47.2841 56.4155 47.4014 56.3062 47.1088 55.9872C46.8162 55.6682 46.8044 55.6788 46.5124 55.3604C46.2205 55.042 46.063 55.1863 45.7704 54.8666C45.4778 54.5469 45.4415 54.5807 45.1483 54.261C44.855 53.9413 44.8287 53.9664 44.5361 53.6474C44.2435 53.3284 44.4148 53.1695 44.1222 52.8505C43.8296 52.5315 43.9278 52.4408 43.6352 52.1218C43.3426 51.8027 43.2978 51.8444 43.0059 51.5254C42.7139 51.2064 42.5551 51.3533 42.2625 51.0343C41.9699 50.7152 42.1544 50.5451 41.8625 50.2268C41.5705 49.9084 41.3485 50.1129 41.0565 49.7945C40.7646 49.4762 40.7764 49.4649 40.4838 49.1459C40.1912 48.8268 40.3586 48.6726 40.066 48.3536C39.7734 48.0346 39.5237 48.2656 39.2311 47.9472C38.9385 47.6288 39.1217 47.4587 38.8291 47.1397C38.5365 46.8206 38.3546 46.9888 38.062 46.6697C37.7694 46.3507 38.0211 46.1171 37.7285 45.7974C37.4359 45.4777 37.2 45.6954 36.9074 45.3764C36.6148 45.0574 36.6656 45.0097 36.373 44.6907C36.0804 44.3716 36.2148 44.2472 35.9222 43.9282C35.6296 43.6091 35.5083 43.721 35.2158 43.402C34.9232 43.0829 34.8691 43.1332 34.5765 42.8142C34.2839 42.4952 34.4487 42.3429 34.1561 42.0239C33.8635 41.7049 33.731 41.8273 33.4384 41.5083C33.1471 41.1906 33.2835 41.0648 32.9923 40.7478C32.701 40.4307 32.7458 40.389 32.4545 40.072C32.1632 39.7549 32.1856 39.7344 31.8944 39.4167C31.6031 39.099 31.5497 39.1486 31.2584 38.8309C30.9671 38.5132 30.8017 38.6661 30.5104 38.3484C30.2192 38.0307 30.3365 37.9222 30.0445 37.6038C29.7526 37.2854 29.8205 37.2225 29.5285 36.9048C29.2366 36.5871 29.3302 36.4997 29.0382 36.1807C28.7463 35.8617 28.6863 35.9166 28.3937 35.5976C28.1011 35.2786 28.0108 35.3606 27.7176 35.0409C27.4243 34.7212 27.3446 34.7947 27.0513 34.475C26.7581 34.1553 26.8035 34.1136 26.5109 33.7946C26.2183 33.4756 26.4088 33.2995 26.1162 32.9805C25.8236 32.6614 25.6608 32.813 25.3682 32.494C25.0756 32.1749 25.2226 32.0399 24.9306 31.7209C24.6387 31.4018 24.323 31.6944 24.0304 31.376C23.7378 31.0577 24.0601 30.7598 23.7682 30.4414C23.4762 30.1231 23.2291 30.3508 22.9365 30.0317C22.6439 29.7127 22.7724 29.5936 22.4791 29.2745C22.1859 28.9555 22.0627 29.0687 21.7701 28.749C21.4775 28.4293 21.6857 28.2353 21.3918 27.915C21.0979 27.5946 20.8679 27.8084 20.5746 27.4887C20.2814 27.169 20.5364 26.9341 20.2431 26.6144C19.9499 26.2947 19.8128 26.4224 19.5202 26.1034C19.2276 25.7844 19.3891 25.6348 19.0958 25.3157C18.8025 24.9967 18.7927 25.0053 18.5001 24.6856C18.2075 24.3659 18.1508 24.4169 17.8575 24.0972C17.5643 23.7775 17.532 23.806 17.2387 23.4856C16.9455 23.1652 16.8058 23.2943 16.5125 22.9746C16.2192 22.6549 16.152 22.7171 15.8588 22.3974C15.5655 22.0778 15.6551 21.995 15.3612 21.6753C15.0673 21.3556 14.9915 21.4251 14.6983 21.1048C14.405 20.7844 14.4037 20.7857 14.1098 20.4654C13.8158 20.145 13.9252 20.0444 13.632 19.7241C13.3387 19.4037 13.3473 19.3958 13.054 19.0754C12.7608 18.755 12.9031 18.6233 12.6092 18.3023C12.3153 17.9813 12.1631 18.1243 11.8705 17.8052C11.5779 17.4862 11.4546 17.6 11.162 17.281C10.8694 16.962 10.8338 16.9944 10.5406 16.6747C10.2473 16.355 10.3264 16.2796 10.0318 15.9585C9.73726 15.6375 9.78998 15.5905 9.49672 15.2702C9.20347 14.9498 9.18831 14.9637 8.89505 14.6434C8.6018 14.323 8.62025 14.3038 8.32567 13.9821C8.0311 13.6605 8.03637 13.6571 7.74245 13.3361C7.44853 13.0151 7.50785 12.9595 7.21327 12.6385C6.91869 12.3175 7.00568 12.2394 6.71243 11.9197C6.41785 11.598 6.42378 11.592 6.12921 11.271C5.83463 10.95 5.76477 11.0129 5.46954 10.6905C5.17431 10.3682 4.9799 10.5469 4.68335 10.2239C4.38679 9.9009 3.98216 9.87509 3.99996 9.43691C4.01775 8.99874 4.49948 9.09141 4.82174 8.79355C5.14399 8.4957 5.09852 8.44672 5.42011 8.14887C5.74171 7.85102 5.70283 7.80866 6.02442 7.5108C6.34602 7.21295 6.40401 7.27583 6.72626 6.97798C7.04852 6.68013 7.25479 6.90385 7.57704 6.60534C7.89929 6.30682 7.82351 6.22276 8.14642 5.92425C8.46934 5.62573 8.35533 5.50196 8.67758 5.20411C8.99983 4.90625 9.11055 5.02672 9.4328 4.72887C9.75506 4.43102 9.72738 4.39991 10.0496 4.10205C10.3719 3.8042 10.2882 3.71154 10.6111 3.41302C10.934 3.11451 11.0823 3.27601 11.4052 2.9775C11.7281 2.67898 11.8046 2.76305 12.1268 2.46453C12.4491 2.16602 12.1802 1.87214 12.5025 1.57296C12.8247 1.27379 12.9552 1.41609 13.2781 1.11692C13.601 0.81774 13.4633 0.669476 13.7849 0.372286C14.1065 0.0750955 14.3595 0.351106 14.6811 0.0539156C15.0027 -0.243274 14.8683 -0.390877 15.1899 -0.688728C15.5115 -0.98658 15.5095 -0.991876 15.8331 -1.29105C16.1566 -1.59023 16.1935 -1.54853 16.5158 -1.84704C16.8381 -2.14556 16.8163 -2.17005 17.1392 -2.46856C17.4621 -2.76707 17.3185 -2.92527 17.6427 -3.2251C17.9669 -3.52494 18.0328 -3.45147 18.3557 -3.75065C18.6787 -4.04982 18.8203 -3.89626 19.1439 -4.1961C19.4675 -4.49594 19.4569 -4.50454 19.7792 -4.80306C20.1034 -5.1029 20.1634 -5.03671 20.4876 -5.33654C20.8119 -5.63638 20.7756 -5.67609 21.1005 -5.97659C21.4254 -6.27709 21.4346 -6.26849 21.7602 -6.56965C22.0857 -6.87081 21.8715 -7.38179 22.3144 -7.36922C22.7467 -7.35664 22.6505 -7.00385 22.9431 -6.68482C23.2357 -6.36579 23.0709 -6.21355 23.3635 -5.89452C23.6561 -5.57549 23.7721 -5.68338 24.0647 -5.36434C24.3573 -5.04531 24.3415 -5.03075 24.6334 -4.71238C24.9254 -4.39401 25.0433 -4.50256 25.3353 -4.18353C25.6272 -3.86449 25.4387 -3.69042 25.7313 -3.37204C26.0239 -3.05367 26.217 -3.23238 26.509 -2.91401C26.8009 -2.59564 26.6394 -2.44672 26.9314 -2.12835C27.2233 -1.80998 27.4342 -2.00523 27.7261 -1.68686C28.0181 -1.36849 27.8593 -1.22155 28.1512 -0.903183C28.4431 -0.584812 28.3614 -0.509356 28.6534 -0.190985C28.9453 0.127385 29.1661 -0.0764771 29.458 0.241894C29.75 0.560264 29.5918 0.706542 29.8844 1.02491C30.177 1.34328 30.0821 1.43132 30.374 1.74969C30.666 2.06806 30.9203 1.83375 31.2123 2.15212C31.5042 2.47049 31.3032 2.65714 31.5958 2.97617C31.8884 3.29521 32.0697 3.12709 32.3623 3.44612C32.6549 3.76515 32.6476 3.77243 32.9402 4.09146C33.2328 4.4105 33.0641 4.56737 33.3567 4.8864C33.6493 5.20543 33.7343 5.12733 34.0269 5.44702C34.3195 5.76672 34.1548 5.91895 34.4474 6.23798C34.7399 6.55702 34.9087 6.40081 35.2013 6.71984C35.4939 7.03887 35.4471 7.0819 35.739 7.40093C36.0309 7.71996 35.8893 7.85102 36.1819 8.17005C36.4745 8.48908 36.6135 8.36001 36.9061 8.67839C37.1987 8.99676 37.2771 8.92461 37.5691 9.24298C37.861 9.56135 37.6976 9.71292 37.9902 10.032C38.2828 10.351 38.5385 10.114 38.8311 10.4324C39.1237 10.7508 38.926 10.9341 39.2186 11.2531C39.5112 11.5722 39.4373 11.6404 39.7299 11.9594C40.0225 12.2784 40.037 12.2652 40.3296 12.5842C40.6222 12.9032 40.8628 12.6815 41.156 13.0012C41.4493 13.3209 41.4018 13.3646 41.6944 13.6836C41.987 14.0027 41.7412 14.2303 42.0345 14.5494C42.3277 14.8684 42.4095 14.7923 42.7021 15.1113C42.9947 15.4304 43.1904 15.2497 43.483 15.5687C43.7756 15.8877 43.6181 16.0333 43.9107 16.3524C44.2033 16.6714 44.3146 16.5682 44.6072 16.8872C44.8998 17.2062 44.8807 17.2241 45.1733 17.5431C45.4646 17.8608 45.4758 17.8502 45.7664 18.1673C46.0571 18.4843 46.1421 18.4062 46.4333 18.7239C46.7246 19.0416 46.6126 19.1449 46.9039 19.4619C47.1952 19.779 47.2624 19.7168 47.5537 20.0345C47.8449 20.3522 47.814 20.3807 48.1052 20.6984C48.3965 21.0161 48.3352 21.073 48.6265 21.3914C48.9178 21.7097 48.9073 21.7203 49.1985 22.038C49.4898 22.3557 49.5972 22.2578 49.8898 22.5762C50.1824 22.8945 50.048 23.0196 50.3406 23.3387C50.6332 23.6577 50.5877 23.7007 50.881 24.0204C51.1742 24.3401 51.4181 24.1144 51.7113 24.4341C52.0046 24.7538 51.7535 24.9854 52.0461 25.3045C52.3387 25.6235 52.4955 25.4779 52.7881 25.7969C53.0807 26.116 53.0537 26.1405 53.3463 26.4588C53.6389 26.7772 53.6211 26.7931 53.9137 27.1115C54.2063 27.4298 54.1424 27.4887 54.4343 27.8071C54.7263 28.1255 54.58 28.2612 54.8719 28.5795C55.1639 28.8979 55.471 28.6153 55.7629 28.9336C56.0548 29.252 55.8367 29.4559 56.1293 29.7749C56.4219 30.0939 56.5497 29.9775 56.8423 30.2971C57.1349 30.6168 56.9774 30.7644 57.2707 31.0848C57.564 31.4052 57.8361 31.153 58.1294 31.4727C58.4226 31.7924 58.223 31.977 58.5156 32.2961C58.8082 32.6151 59.0032 32.4344 59.2965 32.7541C59.5897 33.0738 59.3123 33.3293 59.6056 33.649C59.8988 33.9687 60.0754 33.8052 60.368 34.1249C60.6606 34.4446 60.5815 34.5187 60.8755 34.8384C61.1694 35.1581 61.3302 35.0098 61.6241 35.3302C61.918 35.6505 61.92 35.6479 62.2132 35.9676C62.5065 36.2873 62.378 36.4064 62.6713 36.7261C62.9645 37.0458 62.8255 37.1749 63.1187 37.4946C63.412 37.8143 63.3817 37.8434 63.6756 38.1637C63.9695 38.4841 64.1072 38.3564 64.4005 38.6767C64.6937 38.9971 64.6542 39.0335 64.9475 39.3538C65.2407 39.6742 65.2005 39.7119 65.4944 40.0316C65.7884 40.3513 65.9373 40.2143 66.2312 40.5346C66.5251 40.855 66.6358 40.7504 66.9284 41.0701C67.221 41.3898 67.0728 41.5262 67.3654 41.8452C67.658 42.1642 67.7726 42.059 68.0659 42.378C68.3591 42.6971 68.3558 42.703 68.6504 43.0234C68.945 43.3437 68.8211 43.4576 69.115 43.7773C69.4089 44.097 69.5276 43.9877 69.8208 44.3081C70.1141 44.6285 70.1042 44.6404 70.3988 44.9614C70.6933 45.2824 70.7316 45.2467 71.0255 45.567C71.3194 45.8874 71.1039 46.0879 71.3985 46.4096C71.693 46.7313 71.9059 46.5314 72.1992 46.8511C72.4937 47.1728 72.2268 47.4197 72.5214 47.7413C72.816 48.063 73.0084 47.8863 73.3037 48.208C73.5989 48.5297 73.3986 48.7838 73.7683 49.0175C74.2177 49.3008 74.6059 49.1227 74.5874 49.5615L74.5861 49.5629L74.5881 49.5642Z" fill="#7A2900"/>
<path d="M138.997 49.5635C138.979 50.003 138.381 49.7085 138.06 50.0063C137.738 50.3042 138.032 50.6259 137.711 50.923C137.389 51.2202 137.281 51.1031 136.96 51.4009C136.638 51.6988 136.508 51.5578 136.186 51.8557C135.864 52.1535 135.837 52.125 135.514 52.4236C135.192 52.7221 135.353 52.8981 135.03 53.1973C134.707 53.4965 134.575 53.3502 134.252 53.6487C133.929 53.9472 133.927 53.9439 133.605 54.2418C133.282 54.5396 133.392 54.6601 133.07 54.9579C132.747 55.2558 132.735 55.2445 132.412 55.5431C132.09 55.8416 132.181 55.9409 131.858 56.2394C131.535 56.5379 131.502 56.5021 131.18 56.8007C130.858 57.0992 130.75 56.982 130.427 57.2805C130.104 57.579 130.149 57.6293 129.827 57.9279C129.504 58.2264 129.469 58.1867 129.147 58.4845C128.825 58.7824 129.001 58.973 128.679 59.2708C128.358 59.5687 128.189 59.3847 127.867 59.6825C127.544 59.9804 127.5 59.9341 127.176 60.2332C126.852 60.5324 126.992 60.6827 126.669 60.9812C126.346 61.2797 126.219 61.1414 125.896 61.4399C125.573 61.7384 125.625 61.7966 125.301 62.0958C124.978 62.395 124.897 62.3063 124.573 62.6055C124.249 62.9046 124.46 63.135 124.137 63.4342C123.813 63.7333 123.611 63.5103 123.289 63.8081C122.964 64.108 123.032 64.1821 122.709 64.4819C122.385 64.7818 122.489 64.8963 122.164 65.1961C121.84 65.496 121.683 65.3278 121.358 65.6283C121.032 65.9288 121.197 66.3068 120.755 66.2942C120.324 66.2823 120.35 66.0691 120.058 65.7508C119.766 65.4324 119.804 65.3973 119.512 65.0783C119.22 64.7593 119.185 64.7917 118.892 64.4727C118.6 64.1536 118.772 63.9948 118.479 63.6764C118.187 63.358 118.16 63.3819 117.868 63.0628C117.575 62.7438 117.427 62.8808 117.133 62.5618C116.84 62.2427 116.854 62.2302 116.561 61.9105C116.269 61.5908 116.23 61.6259 115.937 61.3062C115.645 60.9865 115.823 60.8217 115.53 60.502C115.237 60.1823 115.245 60.1757 114.952 59.856C114.659 59.5363 114.77 59.4343 114.478 59.1153C114.185 58.7963 114.02 58.9492 113.728 58.6301C113.435 58.3111 113.593 58.1648 113.301 57.8458C113.009 57.5268 112.694 57.818 112.402 57.499C112.11 57.1799 112.267 57.035 111.975 56.7159C111.682 56.3969 111.633 56.4426 111.341 56.1235C111.049 55.8045 111.262 55.6079 110.97 55.2896C110.677 54.9712 110.58 55.0605 110.288 54.7415C109.996 54.4225 109.917 54.4959 109.625 54.1776C109.333 53.8592 109.287 53.9002 108.995 53.5812C108.703 53.2622 108.866 53.1113 108.574 52.7922C108.282 52.4732 108.3 52.456 108.008 52.137C107.715 51.8179 107.612 51.9126 107.32 51.5935C107.027 51.2745 107.067 51.2368 106.774 50.9177C106.481 50.5987 106.426 50.649 106.133 50.3293C105.839 50.0096 105.671 50.1658 105.377 49.8461C105.084 49.5265 105.25 49.3729 104.957 49.0532C104.664 48.7335 104.616 48.7779 104.323 48.4588C104.03 48.1398 103.905 48.255 103.612 47.9359C103.319 47.6169 103.488 47.4607 103.195 47.1417C102.903 46.8226 102.977 46.7544 102.684 46.4354C102.391 46.1164 102.383 46.1243 102.09 45.8053C101.798 45.4863 101.74 45.5392 101.448 45.2202C101.155 44.9011 101.24 44.8224 100.948 44.5033C100.655 44.1843 100.501 44.3266 100.208 44.0076C99.9156 43.6886 99.9604 43.6469 99.6678 43.3272C99.3752 43.0075 99.2856 43.0902 98.993 42.7712C98.7004 42.4521 98.6608 42.4879 98.3676 42.1682C98.0743 41.8485 98.3959 41.5506 98.1027 41.2309C97.8094 40.9112 97.4674 41.2276 97.1741 40.9079C96.8809 40.5882 97.1464 40.3427 96.8538 40.023C96.5612 39.7033 96.4677 39.79 96.1751 39.4703C95.8825 39.1506 96.0446 39.001 95.752 38.6813C95.4594 38.3616 95.1674 38.6323 94.8742 38.3127C94.5809 37.993 94.8122 37.7798 94.5196 37.4608C94.227 37.1418 94.1967 37.1696 93.9035 36.8499C93.6122 36.5322 93.6102 36.5341 93.3183 36.2164C93.0263 35.8987 93.0006 35.9232 92.7093 35.6055C92.4181 35.2878 92.277 35.4182 91.9858 35.1005C91.6945 34.7828 91.9568 34.5399 91.6655 34.2215C91.3742 33.9031 91.3202 33.9534 91.0282 33.6351C90.7363 33.3167 90.528 33.51 90.2361 33.1916C89.9442 32.8732 89.9119 32.903 89.6193 32.5846C89.3267 32.2663 89.5231 32.0842 89.2305 31.7652C88.9379 31.4462 88.9089 31.4726 88.6156 31.153C88.3223 30.8333 88.2466 30.9028 87.9533 30.5831C87.66 30.2634 87.6225 30.2971 87.3292 29.9768C87.036 29.6564 87.1981 29.5075 86.9048 29.1878C86.6116 28.8681 86.5918 28.8873 86.2992 28.5676C86.0066 28.2479 85.9387 28.3114 85.6461 27.9924C85.3535 27.6734 85.2283 27.7892 84.9364 27.4702C84.6444 27.1512 84.6062 27.1862 84.3136 26.8679C84.021 26.5495 84.077 26.4972 83.7844 26.1782C83.4918 25.8591 83.4701 25.879 83.1775 25.5593C82.8849 25.2396 82.902 25.2237 82.6088 24.904C82.3155 24.5843 82.4447 24.4639 82.1514 24.1442C81.8582 23.8245 81.6769 23.9906 81.3824 23.6703C81.0878 23.3499 81.4133 23.0501 81.1201 22.7297C80.8268 22.4093 80.5421 22.6734 80.2489 22.3537C79.9556 22.0341 80.0327 21.9632 79.7395 21.6435C79.4462 21.3238 79.553 21.2252 79.2604 20.9055C78.9678 20.5858 79.0752 20.4852 78.7819 20.1655C78.4887 19.8458 78.1618 20.147 77.8679 19.8266C77.574 19.5063 77.8474 19.2528 77.5529 18.9324C77.2583 18.6121 77.2833 18.5896 76.9901 18.2699C76.6968 17.9502 76.5275 18.1064 76.2335 17.7867C75.9396 17.467 75.9508 17.4564 75.6576 17.136C75.3643 16.8157 75.305 16.8693 75.0111 16.5489C74.7172 16.2286 74.9617 16.0022 74.6677 15.6812C74.3738 15.3602 74.1023 15.6117 73.8091 15.2913C73.5158 14.971 73.4479 15.0325 73.154 14.7122C72.8601 14.3918 73.1244 14.1463 72.8304 13.8259C72.5365 13.5056 72.5629 13.4831 72.2696 13.1634C71.9764 12.8437 71.8208 12.9886 71.5276 12.6689C71.2343 12.3492 71.3641 12.2288 71.0709 11.9091C70.7776 11.5894 70.8376 11.5311 70.543 11.2101C70.2484 10.8891 70.1048 11.0228 69.8109 10.7024C69.517 10.3821 69.4234 10.4681 69.1295 10.1478C68.8355 9.82742 68.7611 9.89427 68.4665 9.57259C68.1719 9.25091 68.3676 9.07021 68.0737 8.74919C67.7798 8.42818 67.7851 8.42156 67.4905 8.10054C67.1959 7.77952 67.1518 7.82188 66.8585 7.50153C66.5633 7.17985 66.5989 7.14675 66.3036 6.82507C66.0084 6.50339 65.8568 6.64239 65.5616 6.32005C65.2664 5.9977 65.5254 5.75611 65.2288 5.43311C64.9323 5.11011 64.413 5.35699 64.4307 4.91749C64.4485 4.478 64.9079 4.72555 65.2295 4.42769C65.5511 4.12984 65.4272 3.99482 65.7488 3.69696C66.0704 3.39911 66.2246 3.56723 66.5462 3.26938C66.8678 2.97153 66.6147 2.69486 66.9369 2.397C67.2592 2.09915 67.3686 2.21763 67.6915 1.91912C68.0144 1.6206 68.1429 1.76026 68.4658 1.46175C68.7888 1.16324 68.6721 1.03681 68.9944 0.738301C69.3166 0.439787 69.287 0.408016 69.6092 0.109502C69.9315 -0.189012 69.8623 -0.264468 70.1845 -0.562982C70.5068 -0.861496 70.4916 -0.878705 70.8145 -1.17722C71.1375 -1.47573 71.2877 -1.31224 71.6106 -1.61076C71.9335 -1.90927 71.8703 -1.97745 72.1932 -2.27596C72.5161 -2.57448 72.6584 -2.41959 72.9807 -2.71811C73.3029 -3.01662 73.2522 -3.07354 73.5751 -3.37206C73.898 -3.67057 73.9125 -3.6527 74.2348 -3.95055C74.557 -4.2484 74.333 -4.49132 74.6546 -4.78917C74.9762 -5.08702 75.2622 -4.77527 75.5844 -5.07312C75.9067 -5.37097 75.6424 -5.66154 75.966 -5.96072C76.2896 -6.2599 76.3924 -6.14671 76.7146 -6.44523C77.0369 -6.74374 77.1825 -6.58555 77.5054 -6.88406C77.8283 -7.18258 77.6754 -7.3507 77.9997 -7.65053C78.3239 -7.95037 78.3331 -7.93846 78.6567 -8.23763C78.9803 -8.53681 79.0521 -8.45871 79.3757 -8.75854C79.6993 -9.05838 79.6722 -9.08486 79.9945 -9.38271C80.3187 -9.68255 80.1428 -9.8745 80.467 -10.1737C80.7912 -10.4728 81.0812 -10.1584 81.4054 -10.4583C81.7297 -10.7581 81.4423 -11.0738 81.7679 -11.375C82.0934 -11.6762 82.1356 -12.0051 82.5778 -11.9932C83.0088 -11.9813 82.8381 -11.4663 83.13 -11.148C83.422 -10.8296 83.4899 -10.8918 83.7825 -10.5735C84.0751 -10.2551 83.8978 -10.0909 84.1904 -9.77256C84.483 -9.45419 84.5186 -9.48663 84.8112 -9.16759C85.1038 -8.84856 85.0497 -8.79892 85.3423 -8.47989C85.6349 -8.16085 85.7338 -8.25153 86.0264 -7.9325C86.319 -7.61347 86.5015 -7.78159 86.7941 -7.46189C87.0867 -7.1422 87.1164 -7.16934 87.409 -6.84964C87.7016 -6.52995 87.552 -6.39161 87.8452 -6.07192C88.1385 -5.75222 88.182 -5.79326 88.4746 -5.47423C88.7672 -5.1552 88.5965 -4.99767 88.8891 -4.67797C89.1817 -4.35828 89.3273 -4.49397 89.6199 -4.17493C89.9125 -3.8559 89.7715 -3.72617 90.0641 -3.40714C90.3567 -3.0881 90.4819 -3.20394 90.7738 -2.88556C91.0658 -2.56719 91.0243 -2.52814 91.3169 -2.20911C91.6095 -1.89008 91.6497 -1.92781 91.9423 -1.60943C92.2349 -1.29106 92.2718 -1.32548 92.5644 -1.00645C92.857 -0.687417 92.6685 -0.513339 92.9604 -0.194968C93.2524 0.123402 93.3782 0.00823303 93.6702 0.326604C93.9621 0.644974 93.8409 0.758158 94.1335 1.07653C94.4261 1.3949 94.5638 1.26782 94.8557 1.58685C95.1477 1.90588 95.1272 1.92508 95.4198 2.24411C95.7124 2.56314 95.8568 2.42944 96.1494 2.74847C96.442 3.0675 96.4927 3.02117 96.786 3.3402C97.0792 3.65924 97.0305 3.70424 97.3237 4.02394C97.617 4.34363 97.6539 4.30922 97.9471 4.62891C98.2404 4.9486 98.0789 5.09753 98.3722 5.41722C98.6654 5.73692 98.6898 5.71441 98.9824 6.03345C99.275 6.35248 99.2994 6.33064 99.592 6.64967C99.8846 6.9687 99.8161 7.03224 100.109 7.35194C100.401 7.67163 100.499 7.58095 100.791 7.89999C101.084 8.21902 101.033 8.26667 101.325 8.58571C101.618 8.90474 101.518 8.99674 101.811 9.31577C102.103 9.63481 102.269 9.48191 102.561 9.80094C102.854 10.12 102.816 10.1557 103.108 10.4747C103.401 10.7938 103.315 10.8732 103.608 11.1929C103.901 11.5126 104.049 11.3756 104.341 11.6953C104.634 12.015 104.615 12.0328 104.908 12.3525C105.201 12.6722 105.014 12.8456 105.307 13.1653C105.6 13.485 105.735 13.3599 106.029 13.6796C106.322 13.9993 106.392 13.9338 106.685 14.2535C106.977 14.5732 106.726 14.8055 107.019 15.1252C107.312 15.4449 107.467 15.3006 107.76 15.6196C108.054 15.9387 108.148 15.8513 108.44 16.171C108.733 16.4907 108.547 16.6621 108.84 16.9818C109.132 17.3015 109.175 17.2625 109.467 17.5822C109.758 17.8999 109.893 17.7754 110.184 18.0931C110.476 18.4109 110.398 18.483 110.689 18.8007C110.98 19.1184 110.802 19.2832 111.094 19.6009C111.385 19.9186 111.677 19.6493 111.968 19.967C112.259 20.2847 112.188 20.3509 112.48 20.6692C112.772 20.9876 112.718 21.0372 113.01 21.3556C113.302 21.674 113.355 21.625 113.647 21.944C113.939 22.2631 113.905 22.2955 114.198 22.6145C114.49 22.9336 114.496 22.9289 114.789 23.248C115.083 23.567 115.033 23.614 115.327 23.9337C115.621 24.2534 115.576 24.2951 115.869 24.6154C116.163 24.9358 116.111 24.9834 116.404 25.3025C116.697 25.6215 116.675 25.6414 116.969 25.9604C117.262 26.2794 117.272 26.2695 117.564 26.5885C117.857 26.9076 118.067 26.713 118.36 27.032C118.652 27.351 118.725 27.2835 119.018 27.6026C119.31 27.9216 119.128 28.0897 119.421 28.4087C119.713 28.7278 119.608 28.8257 119.901 29.1448C120.193 29.4638 120.453 29.2249 120.745 29.5446C121.038 29.8643 120.944 29.9523 121.238 30.272C121.531 30.5917 121.411 30.7042 121.705 31.0252C121.999 31.3462 121.957 31.3833 122.251 31.7036C122.545 32.024 122.494 32.0697 122.788 32.3894C123.081 32.7091 123.211 32.5879 123.505 32.9076C123.798 33.2273 123.855 33.1737 124.149 33.4934C124.442 33.8131 124.27 33.972 124.564 34.2923C124.857 34.6127 124.887 34.5855 125.181 34.9059C125.474 35.2262 125.601 35.1098 125.895 35.4301C126.189 35.7505 126.309 35.6393 126.602 35.9596C126.895 36.28 126.767 36.3991 127.06 36.7188C127.353 37.0385 127.386 37.0094 127.679 37.3297C127.972 37.6501 127.861 37.754 128.155 38.075C128.449 38.3961 128.566 38.2868 128.86 38.6079C129.155 38.9289 129.181 38.9037 129.475 39.2241C129.769 39.5444 129.579 39.7198 129.873 40.0409C130.168 40.3619 130.317 40.2235 130.611 40.5439C130.906 40.8643 131.047 40.7319 131.34 41.0516C131.634 41.3713 131.58 41.4196 131.873 41.7393C132.165 42.059 131.945 42.2642 132.238 42.5839C132.531 42.9035 132.671 42.7771 132.965 43.0981C133.26 43.4192 133.344 43.3404 133.638 43.6614C133.931 43.9824 133.821 44.0844 134.115 44.4047C134.409 44.7251 134.576 44.5722 134.871 44.8939C135.166 45.2155 134.883 45.4763 135.178 45.7973C135.472 46.1184 135.507 46.0873 135.801 46.4089C136.096 46.7306 136.139 46.6876 136.433 47.0079C136.728 47.3296 136.676 47.3779 136.971 47.6996C137.267 48.0213 137.389 47.9088 137.685 48.2311C137.981 48.5535 137.829 48.7487 138.199 48.9824C138.649 49.2663 139.016 49.1207 138.999 49.5602L138.995 49.5615L138.997 49.5635Z" fill="#7A2900"/>
</g>
</svg>
