<svg width="104" height="104" viewBox="0 0 104 104" fill="none" xmlns="http://www.w3.org/2000/svg">
<path d="M64.0452 42.5949C63.7534 42.56 63.263 42.5653 62.9738 42.5173C62.6846 42.4694 62.3815 42.4497 62.0943 42.3885C61.807 42.3274 61.5296 42.1954 61.2463 42.1211C60.963 42.0469 60.7678 41.6664 60.4878 41.579C60.2078 41.4916 59.8476 41.65 59.5715 41.5495C59.2954 41.4489 58.9871 41.4194 58.7157 41.307C58.4442 41.1946 58.2457 40.9121 57.9801 40.7866C57.7146 40.6611 57.5345 40.3766 57.2748 40.2399C57.0152 40.1032 56.5524 40.3306 56.2987 40.1821C56.045 40.0336 55.8695 39.7477 55.623 39.5881C55.3765 39.4284 55.1004 39.3049 54.8618 39.134C54.6232 38.9632 54.447 38.6872 54.2157 38.5059C54.3622 38.0939 54.5962 38.2443 54.8664 37.9007C55.1366 37.557 54.8795 37.3533 55.1504 37.0084C55.4212 36.6634 55.4166 36.5846 55.7788 36.3375C55.997 36.509 56.3164 36.7442 56.5419 36.9046C56.7674 37.0649 56.9863 37.2338 57.2189 37.3823C57.4516 37.5308 57.7073 37.6398 57.9479 37.7772C58.1885 37.9145 58.4554 37.9927 58.7019 38.1175C58.9484 38.2424 59.0956 38.5781 59.3487 38.6905C59.6017 38.8029 59.8443 38.9586 60.1026 39.0585C60.3609 39.1583 60.7008 39.0388 60.9637 39.1255C61.2266 39.2122 61.4803 39.3206 61.7472 39.3942C62.0141 39.4678 62.2297 39.7642 62.4998 39.8246C62.77 39.8851 63.0724 39.8187 63.3452 39.866C63.6179 39.9133 63.6778 39.9133 63.9525 39.9468C64.034 40.3766 64.3226 40.3615 64.2707 40.7958C64.2187 41.2301 63.871 41.213 63.9183 41.6487C63.9722 42.1389 64.2319 42.2013 64.0445 42.5968L64.0452 42.5949ZM68.3211 42.5929C68.1324 42.198 68.3125 42.0902 68.2593 41.6559C68.206 41.2216 68.1686 41.2255 68.1153 40.7905C68.0621 40.3555 67.9924 40.3109 68.0732 39.8805C68.3487 39.8476 68.7615 40.029 69.0336 39.9823C69.3057 39.9357 69.5305 39.6216 69.8 39.5624C70.0695 39.5033 70.3134 39.3555 70.5796 39.2825C70.8458 39.2096 71.16 39.3009 71.4223 39.2149C71.6846 39.1288 72.0099 39.1991 72.2683 39.0999C72.5266 39.0006 72.6206 38.5039 72.873 38.3922C73.1254 38.2805 73.4343 38.3022 73.6808 38.178C73.9273 38.0538 74.1423 37.8784 74.3829 37.7423C74.6234 37.6063 74.9127 37.5577 75.146 37.4092C75.3793 37.2607 75.6883 37.22 75.9137 37.0603C76.1392 36.9006 76.4015 36.4656 76.6191 36.2948C76.9806 36.5412 76.8761 36.7258 77.1462 37.0701C77.4164 37.4145 77.3506 37.467 77.6215 37.812C77.8923 38.157 78.0053 38.107 78.1526 38.5203C77.9219 38.7017 77.6997 38.9382 77.4617 39.1084C77.2238 39.2786 77.0088 39.4935 76.763 39.6525C76.5172 39.8115 76.1412 39.7609 75.8881 39.9081C75.635 40.0553 75.3596 40.1505 75.1 40.2865C74.8403 40.4226 74.6806 40.755 74.4151 40.8792C74.1495 41.0034 73.8675 41.0948 73.5967 41.2065C73.3259 41.3182 72.9716 41.2032 72.6955 41.3024C72.4194 41.4016 72.1874 41.6092 71.9074 41.696C71.6274 41.7827 71.3119 41.7183 71.0279 41.7926C70.7439 41.8668 70.5586 42.3498 70.272 42.4109C69.9854 42.472 69.6482 42.2821 69.3583 42.3307C69.0684 42.3793 68.6109 42.5574 68.3197 42.5922L68.3211 42.5929ZM81.3274 35.455C80.9153 35.3079 80.9672 35.1042 80.6234 34.8341C80.2797 34.564 80.2553 34.5923 79.9109 34.3216C79.5665 34.0509 79.4856 34.0673 79.2391 33.7052C79.4107 33.4871 79.832 33.3241 79.9918 33.0988C80.1515 32.8734 80.089 32.4923 80.2383 32.2597C80.3875 32.0271 80.4558 31.7498 80.5932 31.5099C80.7306 31.2701 81.0172 31.1124 81.1427 30.866C81.2683 30.6196 81.5476 30.4389 81.6607 30.1866C81.7737 29.9343 81.4891 29.5157 81.589 29.2575C81.689 28.9992 81.9223 28.7969 82.0097 28.534C82.0971 28.2712 82.1248 27.9952 82.199 27.7285C82.2733 27.4617 82.4436 27.2225 82.504 26.9524C82.5645 26.6824 82.7538 26.4353 82.8011 26.162C82.8485 25.8886 82.7255 25.3965 82.7591 25.1212C83.189 25.0403 83.2461 25.2447 83.6806 25.2973C84.1151 25.3498 84.1059 25.4333 84.5411 25.4858C84.9762 25.5384 85.0216 25.4234 85.4173 25.6113C85.3818 25.9031 85.3923 26.2277 85.3436 26.5168C85.295 26.8059 85.295 27.1101 85.2332 27.3966C85.1714 27.6831 84.8691 27.9137 84.7948 28.197C84.7205 28.4802 84.5917 28.743 84.5042 29.0229C84.4168 29.3028 84.5384 29.6517 84.4379 29.9277C84.3373 30.2037 84.2025 30.4678 84.0895 30.7392C83.9764 31.0106 83.6438 31.1794 83.5189 31.4449C83.394 31.7104 83.3756 32.0218 83.2383 32.282C83.1009 32.5422 82.832 32.719 82.6828 32.9726C82.5336 33.2262 82.744 33.6993 82.5836 33.9457C82.4232 34.1921 82.0505 34.296 81.8789 34.5351C81.7074 34.7743 81.5095 35.2238 81.3274 35.455ZM51.0296 35.4334C50.8476 35.2021 50.4972 34.8604 50.3263 34.6219C50.1554 34.3834 49.9549 34.156 49.7952 33.9096C49.6355 33.6632 49.5323 33.3741 49.3844 33.1211C49.2365 32.8681 49.3673 32.462 49.2305 32.2018C49.0938 31.9416 48.7277 31.7997 48.6028 31.5336C48.4779 31.2675 48.2807 31.029 48.169 30.7576C48.0572 30.4862 48.1157 30.1458 48.0165 29.8699C47.9172 29.5939 47.9915 29.2654 47.9041 28.9848C47.8167 28.7042 47.3289 28.5386 47.2546 28.2541C47.1804 27.9696 47.2579 27.6437 47.1968 27.3565C47.1357 27.0694 47.0272 26.7875 46.9792 26.4971C46.9312 26.2067 46.9957 25.8991 46.9602 25.6074C46.9562 25.5732 46.9575 25.6692 46.9911 25.6619C47.3118 25.5897 47.2665 25.2999 47.5925 25.2611C47.9185 25.2224 47.9297 25.2881 48.2571 25.2572C48.5844 25.2263 48.5943 25.3176 48.9223 25.294C49.2503 25.2703 49.2779 25.1632 49.5901 25.267C49.623 25.5424 49.7183 25.8302 49.765 26.1022C49.8116 26.3742 49.9201 26.6311 49.9799 26.9012C50.0397 27.1712 49.8734 27.4978 49.9464 27.7646C50.0193 28.0314 50.0529 28.3179 50.1396 28.5807C50.2264 28.8435 50.534 29.0308 50.6333 29.289C50.7325 29.5472 50.8101 29.812 50.9218 30.065C51.0336 30.318 50.9415 30.6728 51.0658 30.9199C51.19 31.1669 51.4326 31.3588 51.5693 31.6C51.706 31.8411 51.7251 32.1611 51.8736 32.3944C52.0222 32.6276 52.5323 32.6198 52.692 32.8458C52.8517 33.0718 52.8136 33.376 52.9852 33.5942C52.7393 33.9556 52.6637 33.8669 52.3199 34.1376C51.9762 34.4083 51.9992 34.4234 51.7244 34.7651C51.4155 35.1495 51.4418 35.2862 51.029 35.434L51.0296 35.4334ZM82.7985 21.1366C83.1272 21.1366 83.1094 21.1623 83.4361 21.1241C83.7628 21.086 83.9718 21.5256 83.9344 21.1991C83.8969 20.8725 83.7878 21.3186 83.4611 21.3515C83.1344 21.3844 83.1705 21.2102 82.8557 21.115C82.8228 20.8403 82.6638 20.7733 82.6171 20.5012C82.5704 20.2292 82.4357 19.9789 82.3765 19.7101C82.3173 19.4414 82.4238 19.1325 82.3515 18.8664C82.2792 18.6003 82.3653 18.2797 82.2792 18.0175C82.1931 17.7553 81.7014 17.637 81.6028 17.3795C81.5042 17.1219 81.5411 16.8157 81.43 16.5634C81.3189 16.311 81.1546 16.0883 81.0303 15.8419C80.9061 15.5955 80.8726 15.3044 80.7372 15.0639C80.6017 14.8234 80.5761 14.5139 80.4282 14.2807C80.2803 14.0474 79.855 14.0027 79.696 13.7767C79.5369 13.5507 79.4311 13.142 79.2608 12.9245C79.508 12.5637 79.6835 12.6925 80.0279 12.4231C80.3723 12.1537 80.3842 12.1668 80.7293 11.8968C81.0744 11.6267 81.0007 11.4631 81.4142 11.3159C81.595 11.5466 81.8907 11.7706 82.0603 12.0091C82.2299 12.2477 82.1957 12.6248 82.3548 12.8706C82.5139 13.1163 82.6204 13.387 82.7676 13.6394C82.9149 13.8917 83.2547 14.0362 83.3901 14.2951C83.5255 14.554 83.63 14.8313 83.7536 15.0968C83.8772 15.3622 83.7779 15.7203 83.8897 15.991C84.0014 16.2618 84.219 16.4839 84.3182 16.7592C84.4175 17.0345 84.3669 17.3519 84.4536 17.6318C84.5404 17.9117 85.0314 18.0746 85.1057 18.3578C85.18 18.641 85.0051 18.986 85.0663 19.2725C85.1274 19.559 85.199 19.8402 85.2477 20.1293C85.2963 20.4184 85.4206 20.7798 85.456 21.0709C85.1773 21.2451 85.0656 20.9297 84.7402 20.9763C84.4149 21.023 84.4319 21.1419 84.1059 21.1846C83.7799 21.2273 83.7812 21.251 83.4532 21.2424C83.0529 21.2319 82.4712 21.1373 82.7998 21.1373L82.7985 21.1366ZM49.621 21.4402C49.1905 21.5204 49.1346 21.3259 48.7001 21.2726C48.2656 21.2194 48.2603 21.2569 47.8252 21.203C47.3901 21.1491 47.325 21.2122 46.9299 21.023C46.9654 20.7312 47.256 20.3784 47.3053 20.0892C47.3546 19.8001 47.1495 19.4644 47.2113 19.1779C47.2731 18.8914 47.2619 18.5813 47.3368 18.2974C47.4117 18.0135 47.6655 17.779 47.7542 17.499C47.8429 17.2191 48.1013 17.0029 48.2025 16.727C48.3037 16.451 48.0165 16.0232 48.1302 15.7525C48.2439 15.4818 48.5036 15.2696 48.6298 15.0041C48.756 14.7387 48.8408 14.4489 48.9788 14.1893C49.1168 13.9298 49.3548 13.7241 49.504 13.4711C49.6532 13.2182 49.9234 13.044 50.0844 12.7983C50.2455 12.5526 50.1409 12.1235 50.3132 11.885C50.4854 11.6464 50.8679 11.4099 51.0507 11.1793C51.4621 11.3271 51.378 11.5367 51.7211 11.8074C52.0642 12.0781 52.0537 12.0933 52.3982 12.3653C52.7426 12.6373 52.8774 12.5302 53.1232 12.8936C52.951 13.1111 52.8307 13.439 52.6703 13.6643C52.5099 13.8897 52.155 13.9843 52.0057 14.2169C51.8565 14.4495 51.6653 14.6664 51.5279 14.9062C51.3905 15.146 51.4569 15.5002 51.3313 15.7466C51.2058 15.993 51.0605 16.2283 50.9468 16.4806C50.8331 16.7329 50.5077 16.9018 50.4071 17.1593C50.3066 17.4169 50.3256 17.7257 50.2382 17.9886C50.1508 18.2514 49.9253 18.4794 49.8504 18.7462C49.7755 19.013 50.1225 19.3862 50.0621 19.6562C50.0016 19.9263 49.7032 20.1451 49.6558 20.4178C49.6085 20.6905 49.6558 21.1655 49.6223 21.4409L49.621 21.4402ZM76.6605 10.3362C76.4429 10.1647 76.0334 9.9446 75.8086 9.78428C75.5838 9.62395 75.3386 9.50436 75.1059 9.3552C74.8732 9.20605 74.6747 9.01155 74.4348 8.87422C74.1949 8.73689 74.0969 8.33016 73.8504 8.20466C73.6039 8.07916 73.2365 8.19743 72.9841 8.08441C72.7317 7.9714 72.4484 7.94446 72.19 7.84392C71.9317 7.74339 71.7345 7.48319 71.4722 7.3958C71.21 7.3084 70.9904 7.05871 70.7236 6.98446C70.4567 6.91021 70.0853 7.25387 69.8151 7.19276C69.545 7.13165 69.3103 6.93124 69.0369 6.88393C68.7634 6.83662 68.3855 6.75449 68.1101 6.72097C68.0292 6.29059 68.2685 6.26365 68.3211 5.82932C68.3736 5.39499 68.511 5.41076 68.5636 4.97577C68.6162 4.54079 68.1732 4.39951 68.3618 4.0033C68.6537 4.03878 69.148 4.04141 69.4372 4.09003C69.7264 4.13865 70.0038 4.27795 70.2904 4.33972C70.577 4.40149 70.8603 4.48822 71.1442 4.56313C71.4282 4.63803 71.7233 4.68337 72.0034 4.77142C72.2834 4.85947 72.5838 4.90087 72.8598 5.0014C73.1359 5.10193 73.3219 5.43244 73.5928 5.54612C73.8636 5.65979 74.1055 5.82209 74.371 5.94759C74.6366 6.07309 74.9988 5.9995 75.2584 6.13749C75.518 6.27547 75.7613 6.445 76.015 6.5935C76.2687 6.742 76.3903 7.09485 76.6361 7.25518C76.882 7.41551 77.1883 7.47596 77.4276 7.64746C77.6668 7.81895 77.7306 7.84918 77.9613 8.03119C77.8141 8.44318 78.0625 8.57394 77.7917 8.91759C77.5209 9.26124 77.2343 9.06543 77.0463 9.46165C76.836 9.90518 77.024 10.0892 76.6611 10.3356L76.6605 10.3362ZM55.7853 10.2784C55.4245 10.0307 55.5217 9.85458 55.2522 9.50962C54.9827 9.16465 54.9525 9.18765 54.6817 8.84203C54.4109 8.4964 54.3221 8.49509 54.1749 8.08179C54.4056 7.90175 54.8592 7.85772 55.0971 7.6882C55.3351 7.51867 55.4258 7.13756 55.6716 6.97921C55.9175 6.82085 56.1265 6.59416 56.3789 6.44697C56.6313 6.29979 56.9757 6.31359 57.2347 6.17823C57.4937 6.04287 57.8283 6.07309 58.0932 5.94956C58.3581 5.82603 58.4554 5.32074 58.7255 5.20969C58.9957 5.09865 59.3283 5.13216 59.6037 5.03294C59.8791 4.93372 60.1427 4.78916 60.4214 4.70308C60.7001 4.61701 61.0136 4.63935 61.2963 4.56575C61.5789 4.49216 61.8918 4.55984 62.1784 4.49873C62.465 4.43762 62.6918 4.06112 62.9803 4.01315C63.2689 3.96518 63.6981 4.05389 63.9887 4.01906C64.1661 4.2957 63.9755 4.40608 64.0268 4.73068C64.0781 5.05528 64.0721 5.05725 64.1116 5.38382C64.151 5.71039 64.178 5.70907 64.2056 6.03695C64.2332 6.36484 64.4126 6.42069 64.3134 6.73412C64.0393 6.76697 63.6311 6.65264 63.3596 6.69863C63.0881 6.74463 62.8009 6.74923 62.5321 6.80902C62.2632 6.86882 62.047 7.15596 61.7821 7.22824C61.5172 7.30052 61.2457 7.35111 60.9841 7.43653C60.7225 7.52195 60.38 7.39448 60.1223 7.49239C59.8647 7.59029 59.6504 7.81238 59.3986 7.92343C59.1469 8.03448 58.8267 8.02068 58.5809 8.14421C58.3351 8.26774 58.2917 8.775 58.0524 8.91036C57.8132 9.04572 57.4516 8.97147 57.2189 9.11866C56.9863 9.26584 56.7661 9.43537 56.5406 9.59438C56.3151 9.75339 56.0036 10.1076 55.7866 10.2771L55.7853 10.2784Z" fill="#FF8547"/>
<path d="M14.0382 15.1618C14.0382 15.4398 14.2131 15.6428 14.3334 15.9083C14.4418 16.1474 14.5661 16.3439 14.7659 16.5706C14.9388 16.7677 15.1274 16.9346 15.3634 17.1199C15.5718 17.2835 15.6276 17.6955 15.882 17.8493C16.1114 17.9879 16.4217 18.0221 16.6859 18.1515C16.9278 18.2705 17.1428 18.4873 17.4116 18.5977C17.6627 18.7008 17.9546 18.7376 18.2273 18.8336C18.485 18.9236 18.7986 18.8664 19.0746 18.9499C19.3376 19.0287 19.6399 18.967 19.9186 19.0392C20.1855 19.1082 20.4491 19.1805 20.7298 19.2436C20.9993 19.304 21.2681 19.3606 21.5501 19.4144C21.8222 19.4663 22.0865 19.5544 22.3684 19.5997C22.6419 19.6438 22.9114 19.7154 23.194 19.7535C23.4695 19.7909 23.7173 20.0748 24.0006 20.1057C24.2766 20.1359 24.5573 20.1819 24.8406 20.2062C25.1187 20.2305 25.4 20.2943 25.684 20.312C25.9614 20.3297 26.2552 20.1234 26.5378 20.1359C26.8178 20.1477 27.0946 20.3672 27.3792 20.3731C27.6599 20.379 27.9458 20.4612 28.2298 20.4612C28.5137 20.4612 28.7905 20.0111 29.0698 20.0051C29.3538 19.9992 29.6351 20.107 29.9145 20.0952C30.1984 20.0833 30.4975 20.3797 30.7756 20.3613C31.0595 20.3429 31.3244 20.0833 31.6018 20.059C31.8851 20.0347 32.1875 20.2128 32.4642 20.1826C32.7475 20.151 33.0354 20.1484 33.3108 20.1109C33.5941 20.0728 33.8229 19.6865 34.097 19.6418C34.379 19.5958 34.6899 19.7436 34.962 19.6917C35.2427 19.6378 35.5004 19.49 35.7692 19.4302C36.0499 19.3678 36.3825 19.5334 36.6494 19.4644C36.9287 19.3921 37.1943 19.2686 37.4579 19.1891C37.7352 19.1056 37.9739 18.9124 38.2322 18.8217C38.5063 18.7258 38.781 18.6456 39.0328 18.5418C39.3023 18.4308 39.5501 18.2875 39.792 18.1686C40.0562 18.0385 40.2114 17.7448 40.4408 17.6062C40.6945 17.4524 40.9844 17.3939 41.1921 17.2296C41.4281 17.0437 41.6042 16.8308 41.7771 16.6337C41.9756 16.407 42.0151 16.1402 42.1235 15.901C42.2431 15.6362 42.4535 15.4365 42.4535 15.1598C42.4535 14.8832 42.3542 14.6309 42.2339 14.3654C42.1255 14.1263 41.9894 13.8943 41.7902 13.6676C41.6174 13.4705 41.4195 13.278 41.1835 13.0927C40.9752 12.9291 40.7931 12.6938 40.5387 12.5394C40.3093 12.4008 40.1055 12.1655 39.8413 12.0354C39.5994 11.9165 39.2201 12.0722 38.9513 11.9618C38.7002 11.8587 38.4918 11.6267 38.2184 11.5308C37.9607 11.4408 37.6294 11.565 37.3527 11.4822C37.0898 11.4033 36.8669 11.176 36.5882 11.1037C36.3214 11.0347 36.1084 10.7055 35.8284 10.6431C35.5589 10.5826 35.2184 10.8277 34.9364 10.7738C34.6643 10.7219 34.402 10.5971 34.12 10.5511C33.8466 10.5071 33.579 10.3855 33.2964 10.3474C33.021 10.3099 32.739 10.2856 32.4557 10.2547C32.1796 10.2245 31.9009 10.1654 31.6176 10.1411C31.3395 10.1168 31.0437 10.2915 30.7598 10.2731C30.4824 10.2554 30.2057 10.1923 29.923 10.1798C29.643 10.168 29.3584 10.3211 29.0738 10.3145C28.7931 10.3086 28.515 10.0024 28.2304 10.0024C27.9458 10.0024 27.6684 10.2298 27.3891 10.2357C27.1051 10.2416 26.8146 9.95643 26.5352 9.9676C26.2512 9.97943 25.9824 10.2416 25.7043 10.2593C25.4204 10.2777 25.1305 10.172 24.8531 10.1956C24.5698 10.2199 24.2957 10.3165 24.019 10.3467C23.7357 10.3783 23.4708 10.513 23.1954 10.5498C22.9121 10.5879 22.6077 10.4492 22.333 10.4939C22.051 10.5399 21.7552 10.5005 21.483 10.5524C21.2024 10.6063 20.921 10.6582 20.6522 10.7186C20.3715 10.7811 20.0935 10.8494 19.8266 10.9191C19.5472 10.9913 19.2692 11.0656 19.0063 11.1444C18.7289 11.2279 18.5106 11.4769 18.2517 11.5676C17.9776 11.6635 17.7048 11.7384 17.453 11.8423C17.1835 11.9533 16.9732 12.1622 16.7313 12.2818C16.467 12.4119 16.0569 12.2608 15.8275 12.3995C15.5737 12.5532 15.512 12.9737 15.3036 13.1374C15.0676 13.3233 14.6995 13.3542 14.5266 13.5513C14.3281 13.778 14.0921 14.0218 13.9837 14.261C13.8641 14.5258 14.0363 14.8845 14.0363 15.1612L14.0382 15.1618Z" fill="#99C9FF"/>
<path d="M9.65005 28.6996C9.65005 28.992 9.60141 29.2719 9.70527 29.5505C9.80321 29.8127 10.0793 29.9632 10.262 30.2096C10.427 30.4323 10.379 30.864 10.6065 31.071C10.8122 31.2583 11.0357 31.4837 11.2887 31.6565C11.5201 31.8142 11.9802 31.617 12.2478 31.7616C12.4956 31.8956 12.6862 32.144 12.9629 32.2656C13.2226 32.3799 13.5223 32.3944 13.8056 32.4962C14.0738 32.5928 14.3308 32.7157 14.6181 32.8011C14.8915 32.8826 15.1025 33.2197 15.3924 33.29C15.6711 33.3577 16.0162 33.1441 16.308 33.2013C16.5907 33.2565 16.8812 33.2433 17.175 33.288C17.4603 33.3314 17.7423 33.3688 18.0374 33.4017C18.3247 33.4332 18.604 33.514 18.8992 33.5357C19.1884 33.5567 19.4757 33.562 19.7714 33.5725C20.062 33.583 20.3486 33.7618 20.645 33.7618C20.9415 33.7618 21.2268 33.5719 21.5166 33.5613C21.8124 33.5508 22.1266 33.9293 22.4152 33.9089C22.7103 33.8873 23.0002 33.7723 23.2874 33.7407C23.5819 33.7079 23.8836 33.7144 24.1689 33.6717C24.4627 33.6271 24.7559 33.5646 25.0385 33.5101C25.3317 33.4529 25.615 33.3485 25.8937 33.2801C26.1849 33.2092 26.3821 32.8261 26.6569 32.7439C26.9448 32.6585 27.2103 32.5672 27.4792 32.4699C27.7625 32.3674 28.099 32.4417 28.3587 32.3274C28.6354 32.2058 28.8852 32.0566 29.133 31.9219C29.4005 31.7767 29.5892 31.5421 29.8199 31.3838C30.0729 31.211 30.4857 31.2603 30.6908 31.073C30.9189 30.8653 30.9603 30.4987 31.1253 30.2753C31.3074 30.0289 31.6926 29.885 31.7899 29.6235C31.8931 29.3455 31.9772 28.99 31.9772 28.6983C31.9772 28.4066 31.924 28.0379 31.8201 27.7593C31.7222 27.4972 31.4435 27.2626 31.2607 27.0162C31.0957 26.7934 30.8617 26.5884 30.6336 26.3808C30.4279 26.1935 30.1623 26.0476 29.9093 25.8742C29.6779 25.7165 29.3315 25.7382 29.064 25.5936C28.8162 25.4596 28.5467 25.3801 28.2699 25.2585C28.0103 25.1442 27.8736 24.7065 27.5909 24.604C27.3227 24.5075 26.9362 24.7545 26.649 24.6691C26.3755 24.5876 26.1435 24.3544 25.8536 24.284C25.5749 24.2164 25.2949 24.1408 25.003 24.0836C24.7204 24.0284 24.4739 23.7144 24.1801 23.6697C23.8948 23.6263 23.5464 24.0271 23.2513 23.9949C22.964 23.9634 22.709 23.5521 22.4139 23.5304C22.1246 23.5093 21.8124 23.8727 21.516 23.8622C21.2254 23.8517 20.9402 23.5238 20.6444 23.5238C20.3486 23.5238 20.062 23.8017 19.7721 23.8123C19.4763 23.8228 19.1779 23.669 18.8893 23.69C18.5942 23.7117 18.3247 23.9417 18.0374 23.9732C17.743 24.0061 17.4156 23.7472 17.1303 23.7906C16.8365 23.8353 16.5749 24.0462 16.2923 24.1014C15.9991 24.1585 15.6902 24.1158 15.4115 24.1835C15.1203 24.2545 14.7988 24.2098 14.5241 24.2919C14.2362 24.3773 14.012 24.6481 13.7438 24.7453C13.4605 24.8478 13.2384 25.0653 12.9787 25.1803C12.702 25.3019 12.305 25.1593 12.0572 25.294C11.7896 25.4392 11.7002 25.8558 11.4689 26.0141C11.2158 26.1869 10.8168 26.1528 10.6111 26.34C10.383 26.5477 10.1154 26.7435 9.9511 26.9662C9.76903 27.2126 9.78612 27.5839 9.68883 27.8454C9.58563 28.1234 9.64874 28.4085 9.64874 28.6996H9.65005Z" fill="#99C9FF"/>
<path d="M71.3092 88.2665C71.3092 88.5254 71.7838 88.6463 72.0263 88.8749C72.2038 89.0431 72.4207 89.1286 72.708 89.2738C72.9387 89.3901 73.1076 89.6779 73.3982 89.7758C73.6506 89.8605 73.9497 89.8198 74.2408 89.8881C74.5044 89.9506 74.7391 90.2141 75.0303 90.2614C75.3004 90.3054 75.6002 90.2009 75.8901 90.2305C76.1655 90.2587 76.4343 90.5117 76.7249 90.5255C77.0036 90.5393 77.2961 90.1792 77.5853 90.1792C77.8745 90.1792 78.1598 90.3987 78.4378 90.3849C78.7277 90.3704 79.0097 90.3231 79.2851 90.2949C79.5756 90.2653 79.8583 90.2364 80.1291 90.1924C80.4203 90.1451 80.6707 89.9696 80.935 89.9072C81.2262 89.8389 81.4543 89.6621 81.7067 89.5773C81.9972 89.4794 82.2555 89.4341 82.4856 89.3178C82.7735 89.1726 83.112 89.193 83.2902 89.0241C83.5307 88.7954 83.8607 88.524 83.8607 88.2665C83.8607 88.0089 83.3644 87.9103 83.1219 87.6817C82.9444 87.5135 82.8642 87.1777 82.577 87.0331C82.3462 86.9168 82.0064 87.0239 81.7152 86.9267C81.4628 86.8419 81.263 86.5338 80.9724 86.4654C80.7089 86.403 80.4479 86.2203 80.1567 86.173C79.8866 86.129 79.5704 86.3373 79.2805 86.3077C79.0051 86.2795 78.7205 86.3445 78.4299 86.3301C78.1512 86.3163 77.8745 86.1027 77.5853 86.1027C77.2961 86.1027 77.0167 86.2552 76.7387 86.269C76.4488 86.2834 76.1622 86.2262 75.8868 86.2545C75.5962 86.2841 75.3241 86.3708 75.0533 86.4148C74.7621 86.4621 74.4249 86.2466 74.1607 86.3084C73.8695 86.3767 73.7163 86.8708 73.4639 86.9556C73.1734 87.0535 72.8066 86.8846 72.5765 87.0009C72.2886 87.1462 72.0954 87.3794 71.9172 87.5483C71.6766 87.7769 71.3092 88.0089 71.3092 88.2665Z" fill="#0E5249"/>
<path d="M58.2227 92.7491C58.2227 93.0165 58.5618 93.1578 58.7551 93.4035C58.9089 93.5987 59.0732 93.7531 59.3348 93.9298C59.5478 94.0731 59.6951 94.3537 59.9711 94.4818C60.2097 94.5928 60.5101 94.5843 60.7915 94.6822C61.0445 94.7702 61.2135 95.1934 61.4974 95.2696C61.7584 95.3393 62.1298 94.9969 62.4144 95.0554C62.6819 95.1106 62.9277 95.2998 63.2137 95.3445C63.4852 95.3872 63.7494 95.5456 64.0353 95.5778C64.3094 95.6087 64.6006 95.5252 64.8866 95.5462C65.1633 95.5666 65.4459 95.5357 65.7325 95.5462C66.0112 95.5561 66.2906 95.771 66.5765 95.771C66.8625 95.771 67.1504 95.8419 67.4277 95.8321C67.7137 95.8222 68.0003 95.7782 68.277 95.7578C68.5636 95.7368 68.8101 95.3426 69.0849 95.3117C69.3714 95.2795 69.6896 95.541 69.9617 95.4983C70.2483 95.4536 70.4849 95.1809 70.7531 95.1257C71.0384 95.0666 71.2954 94.966 71.557 94.8957C71.841 94.8195 72.1184 94.7946 72.3721 94.7058C72.6534 94.6079 72.9479 94.5994 73.1865 94.4877C73.4626 94.3589 73.6026 94.0645 73.8156 93.9206C74.0772 93.7439 74.3579 93.6854 74.5117 93.4896C74.7043 93.2445 74.8982 93.0152 74.8982 92.7491C74.8982 92.4829 74.676 92.274 74.4821 92.0282C74.3283 91.8331 74.0726 91.7556 73.811 91.5788C73.598 91.4356 73.4218 91.2214 73.1464 91.0932C72.9078 90.9822 72.6508 90.8922 72.3695 90.7949C72.1164 90.7069 71.908 90.4263 71.6241 90.3501C71.3631 90.2804 71.1101 90.0872 70.8254 90.0281C70.5579 89.9729 70.2161 90.2614 69.9302 90.2167C69.6587 90.174 69.3951 90.0366 69.1092 90.0044C68.8351 89.9736 68.5386 90.17 68.2527 90.149C67.976 90.1286 67.7183 89.6614 67.4317 89.6516C67.153 89.6417 66.8631 89.8277 66.5772 89.8277C66.2912 89.8277 66.0132 89.9282 65.7358 89.9381C65.4499 89.9479 65.1685 89.9256 64.8918 89.9453C64.6052 89.9663 64.3265 89.9979 64.0518 90.0287C63.7652 90.0609 63.449 89.8573 63.1769 89.9C62.8903 89.9446 62.6267 90.1135 62.3592 90.1694C62.0739 90.2285 61.7912 90.2791 61.529 90.3494C61.245 90.4256 60.9913 90.5768 60.7376 90.6648C60.4562 90.7627 60.2873 91.0735 60.0487 91.1846C59.7726 91.3133 59.327 91.1018 59.1146 91.2457C58.853 91.4224 58.8208 91.8318 58.667 92.0276C58.4744 92.2727 58.2227 92.4823 58.2227 92.7491Z" fill="#0E5249"/>
<path d="M39.5535 97.185C39.5535 97.4689 39.2952 97.8611 39.4733 98.1259C39.6212 98.3454 39.9032 98.5622 40.1602 98.764C40.3732 98.9309 40.6381 99.1122 40.9181 99.2646C41.1606 99.3967 41.513 99.3606 41.8015 99.4802C42.0605 99.5873 42.2893 99.8311 42.5818 99.927C42.8513 100.015 43.2253 99.7791 43.5211 99.8567C43.7965 99.929 44.0752 99.9848 44.3716 100.047C44.6523 100.106 44.9218 100.227 45.2189 100.277C45.5035 100.324 45.7954 100.323 46.0938 100.361C46.3811 100.397 46.64 100.733 46.9391 100.761C47.2283 100.788 47.536 100.648 47.835 100.666C48.1262 100.683 48.424 100.575 48.7231 100.583C49.0156 100.592 49.3061 101.001 49.6046 101.001C49.903 101.001 50.2053 100.99 50.4972 100.982C50.7956 100.972 51.0927 100.884 51.3839 100.867C51.6823 100.848 51.9499 100.492 52.2384 100.464C52.5369 100.436 52.8215 100.381 53.1087 100.344C53.4078 100.305 53.7148 100.399 54 100.351C54.2985 100.301 54.6475 100.537 54.9295 100.478C55.2266 100.415 55.4652 100.115 55.7419 100.042C56.0371 99.9644 56.3039 99.8337 56.5734 99.7456C56.8666 99.6497 57.1368 99.5426 57.3958 99.4355C57.6837 99.3166 57.9203 99.1503 58.1628 99.0182C58.4429 98.8658 58.8287 98.9131 59.041 98.7462C59.298 98.5445 59.2783 98.1318 59.4262 97.9124C59.6037 97.6482 59.6569 97.4675 59.6569 97.1843C59.6569 96.9011 59.8226 96.5719 59.6438 96.3071C59.4959 96.0877 59.227 95.9109 58.97 95.7092C58.7571 95.5423 58.5789 95.2466 58.2989 95.0942C58.0564 94.9621 57.7915 94.7834 57.5029 94.6638C57.2439 94.5567 56.8449 94.7735 56.5524 94.6782C56.2829 94.5902 56.0548 94.326 55.7597 94.2485C55.4843 94.1762 55.1313 94.4082 54.8348 94.3458C54.5542 94.2866 54.2965 94.1033 53.9994 94.0534C53.7148 94.006 53.4144 94.0573 53.1159 94.0192C52.8287 93.9824 52.55 93.8648 52.2509 93.8365C51.9617 93.8096 51.6823 93.6065 51.3839 93.5881C51.0927 93.5704 50.8002 93.3917 50.5011 93.3825C50.2086 93.3739 49.9063 93.6677 49.6072 93.6677C49.3081 93.6677 49.009 93.4613 48.7172 93.4699C48.4187 93.4791 48.1282 93.6394 47.8377 93.6571C47.5393 93.6755 47.252 93.7662 46.9628 93.7932C46.6644 93.8214 46.3719 93.8418 46.0846 93.8792C45.7855 93.918 45.4516 93.6985 45.1663 93.7458C44.8679 93.7958 44.6043 94.0198 44.3223 94.079C44.0252 94.1421 43.759 94.2998 43.4829 94.3727C43.1878 94.4502 42.9275 94.5922 42.658 94.6802C42.3648 94.7761 41.9685 94.5652 41.7088 94.6723C41.4209 94.7913 41.1672 94.989 40.9247 95.1211C40.6446 95.2735 40.5046 95.61 40.2923 95.7769C40.0353 95.9786 39.9209 96.2289 39.773 96.4484C39.5956 96.7126 39.5555 96.9024 39.5555 97.1856L39.5535 97.185Z" fill="#0E5249"/>
<path d="M96.328 79.9708C96.1032 79.6003 96.4352 79.3985 96.2104 79.0279C95.9856 78.6573 95.9402 78.6843 95.7148 78.313C95.4893 77.9418 95.4965 77.9365 95.2711 77.5653C95.0456 77.194 94.8885 77.288 94.663 76.9154C94.4376 76.5429 94.5664 76.4653 94.3403 76.0941C94.1142 75.7228 93.8309 75.895 93.6061 75.5231C93.3813 75.1512 93.3727 75.1571 93.1473 74.7858C92.9218 74.4146 92.9803 74.3791 92.7548 74.0079C92.5294 73.6366 92.4913 73.6596 92.2658 73.2877C92.0404 72.9158 92.3 72.7581 92.0745 72.3855C91.8491 72.013 91.7084 72.0977 91.4823 71.7252C91.2562 71.3526 91.1523 71.4163 90.9262 71.0444C90.7001 70.6725 91.0465 70.4629 90.821 70.0917C90.5956 69.7204 90.5903 69.723 90.3648 69.3511C90.1394 68.9792 90.075 69.0173 89.8495 68.6448C89.624 68.2722 89.3368 68.4463 89.1113 68.0738C88.8859 67.7012 88.8655 67.7137 88.6394 67.3418C88.4133 66.9699 88.5303 66.8989 88.3041 66.5263C88.078 66.1538 88.3324 65.9994 88.1063 65.6268C87.8802 65.2542 87.6777 65.3778 87.4516 65.0052C87.2255 64.6326 87.1834 64.6602 86.9586 64.2896C86.7338 63.9191 86.7272 63.9223 86.5018 63.5511C86.2763 63.1798 86.2336 63.2035 86.0068 62.8303C85.78 62.4571 85.9943 62.3283 85.7689 61.9564C85.5434 61.5845 85.2824 61.7422 85.0563 61.3702C84.8302 60.9983 84.8197 61.0029 84.5929 60.6297C84.3661 60.2565 84.6028 60.1139 84.3767 59.7413C84.1505 59.3688 84.0894 59.4049 83.8633 59.0317C83.6372 58.6585 83.7667 58.579 83.5399 58.2051C83.3131 57.8312 83.3552 57.8062 83.1291 57.433C82.903 57.0598 82.6104 57.2366 82.3837 56.8627C82.1569 56.4888 82.3179 56.3896 82.0912 56.0151C81.8644 55.6405 81.6015 55.7995 81.374 55.4243C81.2242 55.1773 81.1841 54.8829 81.0151 54.6602C80.8409 54.4308 80.5958 54.2882 80.4032 54.0846C80.206 53.8763 80.0719 53.6305 79.8583 53.4485C79.6407 53.2632 79.5256 52.9498 79.2923 52.7921C79.0557 52.6324 78.8828 52.3367 78.633 52.206C78.3806 52.0732 77.9902 52.223 77.7272 52.1199C77.4623 52.0161 77.2553 51.725 76.9825 51.6507C76.7097 51.5765 76.3922 51.658 76.1129 51.6133C75.8335 51.5686 75.5469 51.6067 75.2643 51.5916C74.9816 51.5765 74.7042 51.5653 74.4209 51.5804C74.1376 51.5955 73.8195 51.3623 73.5394 51.4076C73.2594 51.453 73.0057 51.6823 72.7323 51.7572C72.4588 51.8321 72.2202 52.0088 71.956 52.1127C71.693 52.2158 71.4702 52.3867 71.2178 52.5194C70.9687 52.6502 70.5486 52.5115 70.312 52.6712C70.0787 52.8289 69.8795 53.0681 69.6613 53.2533C69.4476 53.4354 69.3806 53.7836 69.1841 53.9919C68.9921 54.1956 68.8869 54.463 68.7134 54.6924C68.5445 54.9151 68.1882 55.011 68.0383 55.2574C67.8195 55.6182 68.0554 55.7614 67.8365 56.1222C67.6177 56.4829 67.6117 56.477 67.3935 56.8364C67.1753 57.1958 67.0261 57.1058 66.8078 57.4659C66.5896 57.826 66.6908 57.8897 66.472 58.2511C66.2531 58.6125 65.9487 58.4272 65.7298 58.7879C65.511 59.1487 65.8699 59.3662 65.651 59.7269C65.4321 60.0876 65.3098 60.0147 65.0903 60.3767C64.8707 60.7388 64.7669 60.6744 64.5473 61.0358C64.3278 61.3972 64.4218 61.4544 64.2022 61.8164C63.9827 62.1785 64.0234 62.2008 63.8046 62.5609C63.585 62.9229 63.4056 62.8145 63.186 63.1766C62.9665 63.5386 62.9007 63.4998 62.6812 63.8625C62.4616 64.2253 62.4847 64.241 62.2645 64.6044C62.0443 64.9678 62.3598 65.1596 62.1396 65.5236C62.1159 65.5624 61.8109 65.5085 61.8306 65.5493C62.0226 65.9383 62.2533 65.8108 62.4787 66.1814C62.7042 66.552 62.7384 66.5336 62.9645 66.9061C63.1906 67.2787 63.1413 67.307 63.3668 67.6789C63.5922 68.0508 63.5055 68.1033 63.7309 68.4746C63.9564 68.8458 64.1201 68.7486 64.3462 69.1212C64.5723 69.4937 64.4494 69.568 64.6755 69.9399C64.9016 70.3118 64.8155 70.365 65.0416 70.7376C65.2677 71.1101 65.3847 71.0398 65.6115 71.413C65.8383 71.7863 65.9336 71.7278 66.1597 72.1003C66.3858 72.4729 66.2991 72.5268 66.5259 72.8994C66.7526 73.2719 66.7638 73.2673 66.9906 73.6412C67.2174 74.0151 67.0504 74.113 67.2653 74.4947C67.2851 74.5867 67.1556 74.6281 67.1556 74.7195C67.1556 74.9494 67.4277 75.23 67.3166 75.4311C67.2082 75.6262 66.9584 75.7524 66.7572 75.8786C66.4384 76.079 66.0072 76.3464 65.6674 76.2649C65.3276 76.1834 65.2599 75.6315 65.066 75.3089C64.8464 74.9462 64.6821 75.0454 64.4625 74.6833C64.243 74.3213 64.1608 74.3699 63.9406 74.0072C63.7204 73.6445 63.7526 73.6241 63.5318 73.2601C63.3109 72.8961 63.3057 72.8994 63.0854 72.536C62.8652 72.1726 63.0736 72.0465 62.8534 71.6831C62.6332 71.3197 62.5313 71.3822 62.3111 71.0195C62.0909 70.6567 62.1047 70.6489 61.8845 70.2862C61.6643 69.9234 61.6045 69.9602 61.385 69.5982C61.1654 69.2361 60.9722 69.3531 60.7526 68.9904C60.5331 68.6277 60.8762 68.4194 60.6567 68.0573C60.4371 67.6953 60.1906 67.8438 59.9704 67.4811C59.7502 67.1184 60.0066 66.9626 59.7864 66.5993C59.5662 66.2359 59.2263 66.4416 59.0055 66.0776C58.7846 65.7135 58.7432 65.7385 58.5223 65.3738C58.3015 65.0092 58.475 64.9047 58.2548 64.5413C58.0346 64.1779 57.9308 64.241 57.7106 63.8777C57.4903 63.5143 57.6724 63.4039 57.4522 63.0405C57.232 62.6772 57.1098 62.7514 56.8896 62.3881C56.6694 62.0247 56.8672 61.9045 56.647 61.5411C56.4268 61.1777 56.112 61.3676 55.8911 61.0036C55.6702 60.6396 55.8635 60.522 55.6426 60.1573C55.4218 59.7926 55.3994 59.8071 55.1786 59.443C54.9577 59.079 54.9649 59.0751 54.7441 58.7117C54.5232 58.3483 54.4174 58.4121 54.1965 58.0481C53.9757 57.684 53.883 57.7399 53.6621 57.3752C53.4413 57.0105 53.4886 56.9823 53.2677 56.6176C53.0469 56.2529 53.2237 56.1465 53.0028 55.7824C52.782 55.4184 52.9424 55.3212 52.7215 54.9565C52.5006 54.5918 52.1339 54.8139 51.9123 54.4492C51.6908 54.0846 51.8946 53.9617 51.6737 53.597C51.4529 53.2323 51.2577 53.3532 51.0375 52.9905C50.8172 52.6278 51.0243 52.5016 50.8041 52.1383C50.5839 51.7749 50.693 51.7066 50.4715 51.3419C50.25 50.9772 50.0383 51.1067 49.8175 50.742C49.5966 50.3773 49.523 50.4227 49.3021 50.0586C49.0813 49.6946 49.2574 49.5862 49.0353 49.2209C48.8131 48.8555 48.6895 48.9317 48.468 48.5671C48.2465 48.2024 48.3135 48.161 48.092 47.7963C47.8705 47.4316 47.8284 47.4586 47.6076 47.0952C47.386 46.7299 47.6227 46.586 47.4012 46.22C47.1796 45.854 46.8083 46.0787 46.5861 45.7127C46.3639 45.3467 46.6163 45.1923 46.3935 44.825C46.1707 44.4577 46.0964 44.503 45.8736 44.1357C45.7224 43.8867 45.4838 43.7053 45.3181 43.4734C45.1485 43.2362 45.0559 42.9503 44.8725 42.7315C44.6851 42.5088 44.3716 42.4155 44.1711 42.2118C43.9673 42.0048 43.9831 41.5692 43.7662 41.3826C43.5466 41.1927 43.3356 40.9745 43.1049 40.805C42.8716 40.6341 42.4055 40.8129 42.1617 40.6631C41.9152 40.5113 41.743 40.255 41.4873 40.1249C41.2296 39.9935 40.9371 39.9672 40.6715 39.8575C40.4047 39.7477 40.1588 39.6196 39.8854 39.5309C39.6119 39.4422 39.4069 39.1051 39.1275 39.0381C38.8481 38.9711 38.5116 39.1932 38.227 39.1491C37.9423 39.1051 37.6636 39.1347 37.3771 39.113C37.0905 39.0913 36.819 39.0795 36.5311 39.0795C36.2432 39.0795 35.9684 39.0355 35.6812 39.0578C35.3939 39.0801 35.1224 39.1222 34.8378 39.1669C34.5532 39.2116 34.2443 39.0953 33.9643 39.1616C33.6842 39.228 33.464 39.4816 33.1899 39.5703C32.9158 39.659 32.509 39.387 32.2427 39.4974C31.9772 39.6071 31.7405 39.8128 31.4835 39.9442C31.2278 40.0743 30.9445 40.1814 30.6987 40.3325C30.4548 40.4824 30.2116 40.6598 29.9783 40.8313C29.7476 41.0001 29.5398 41.2189 29.321 41.4082C29.1047 41.5954 29.1152 42.0219 28.9121 42.2289C28.7123 42.4319 28.5322 42.6349 28.3455 42.857C28.1621 43.0752 27.8374 43.1777 27.6685 43.4142C27.5028 43.6462 27.3654 43.8979 27.2142 44.1475C26.9934 44.5122 27.0808 44.5654 26.86 44.9301C26.6391 45.2948 26.3867 45.1424 26.1652 45.507C25.9436 45.8717 26.1303 45.9847 25.9088 46.3494C25.6873 46.7141 25.4572 46.5741 25.2357 46.9382C25.0142 47.3022 24.9997 47.2936 24.7789 47.6577C24.558 48.0217 24.5449 48.0125 24.3247 48.3752C24.1045 48.7379 24.2162 48.8069 23.996 49.1703C23.7758 49.5336 23.8041 49.552 23.5832 49.916C23.3624 50.2801 23.4038 50.3057 23.1829 50.6704C22.9621 51.035 23.1316 51.1382 22.9108 51.5029C22.6899 51.8676 22.73 51.8912 22.5092 52.2559C22.2883 52.6206 21.984 52.4353 21.7631 52.7986C21.5422 53.162 21.8472 53.3467 21.6264 53.71C21.4055 54.0734 21.2655 53.988 21.0447 54.3513C20.8238 54.7147 20.8126 54.7075 20.5918 55.0708C20.3709 55.4342 20.1422 55.2956 19.922 55.6589C19.7017 56.0223 20.0804 56.2523 19.8595 56.6156C19.6386 56.979 19.3087 56.7792 19.0872 57.1433C18.8656 57.5073 19.191 57.7051 18.9695 58.0697C18.748 58.4344 18.4712 58.2675 18.2497 58.6329C18.0282 58.9982 18.2622 59.1388 18.0407 59.5041C17.8192 59.8695 17.6746 59.7801 17.4537 60.1448C17.2329 60.5095 17.4077 60.6153 17.1868 60.9793C16.966 61.3433 16.7103 61.1882 16.4894 61.5523C16.2686 61.9163 16.4086 62.0017 16.1871 62.3657C15.9656 62.7297 15.8735 62.6745 15.652 63.0399C15.4305 63.4052 15.322 63.3395 15.1005 63.7048C14.879 64.0702 15.0394 64.1668 14.8179 64.5315C14.5964 64.8961 14.6989 64.9579 14.478 65.3226C14.2572 65.6873 13.9975 65.5302 13.7767 65.8949C13.5558 66.2596 13.8201 66.4212 13.5985 66.7866C13.377 67.1519 13.1424 67.0093 12.9202 67.3746C12.698 67.74 12.6428 67.7058 12.4213 68.0705C12.1998 68.4352 12.368 68.5377 12.1465 68.903C11.925 69.2683 11.9579 69.2887 11.7364 69.6547C11.5148 70.0207 11.6233 70.0857 11.4018 70.4511C11.1803 70.8164 11.1757 70.8112 10.9548 71.1752C10.7339 71.5392 10.7386 71.5425 10.5177 71.9065C10.2968 72.2705 10.0319 72.1122 9.80976 72.4782C9.58759 72.8442 9.68947 72.9046 9.46795 73.27C9.24644 73.6353 9.15244 73.5781 8.93092 73.9435C8.70941 74.3088 8.76791 74.3456 8.54573 74.7122C8.32356 75.0789 8.45305 75.1564 8.23154 75.5218C8.01002 75.8871 8.12965 75.9613 7.90748 76.3273C7.6853 76.6933 7.67873 76.6874 7.45787 77.0521C7.30976 77.2965 7.1612 77.5407 7.01221 77.7847C6.78938 78.1521 6.75454 78.131 6.53171 78.4977C6.30888 78.8643 6.28193 78.8499 6.05844 79.2178C5.83495 79.5858 5.62001 79.4557 5.39652 79.8237C5.25257 80.0609 5.12833 80.3395 5.07904 80.5885C5.02645 80.8533 4.98241 81.1707 5.02448 81.4269C5.06786 81.6891 5.36957 81.8862 5.4984 82.1156C5.62724 82.3449 5.6463 82.6971 5.84744 82.8699C6.04464 83.0394 6.29376 83.2779 6.54749 83.3706C6.78609 83.458 7.12658 83.0729 7.40463 83.0729C7.82268 83.0729 7.82268 83.1892 8.2414 83.1892C8.66011 83.1892 8.65945 83.5007 9.07751 83.5007C9.49556 83.5007 9.49556 83.2615 9.91427 83.2615C10.333 83.2615 10.333 83.4685 10.7517 83.4685C11.1704 83.4685 11.1698 83.5007 11.5885 83.5007C12.0072 83.5007 12.0072 83.1524 12.4259 83.1524C12.8446 83.1524 12.8426 83.3515 13.26 83.3515C13.6774 83.3515 13.6787 83.2589 14.0975 83.2589C14.5162 83.2589 14.5155 83.498 14.9336 83.498C15.3516 83.498 15.3516 83.4507 15.7697 83.4507C16.1877 83.4507 16.189 83.3403 16.6084 83.3403C17.0278 83.3403 17.0271 83.3627 17.4458 83.3627C17.8645 83.3627 17.8652 83.3338 18.2839 83.3338C18.7026 83.3338 18.7033 83.1498 19.1233 83.1498C19.5433 83.1498 19.5427 83.2654 19.9614 83.2654C20.3801 83.2654 20.3814 83.2293 20.8008 83.2293C21.2202 83.2293 21.2215 83.113 21.6428 83.113C22.0642 83.113 22.0878 83.4264 22.4809 83.2773C22.3284 83.0158 22.1424 82.7805 22.007 82.5078C21.8716 82.2351 21.7598 81.9513 21.6428 81.6707C21.5265 81.3915 21.4246 81.1036 21.3266 80.8152C21.2294 80.5294 21.2287 80.2133 21.1498 79.9189C21.0716 79.6272 21.111 79.3144 21.0519 79.0148C20.9934 78.7191 20.6509 78.4694 20.6115 78.1665C20.5727 77.8675 20.6851 77.5475 20.6654 77.2427C20.6457 76.9417 20.4149 76.6395 20.4149 76.3333C20.4149 76.0533 20.5819 75.7728 20.5983 75.4968C20.6148 75.2175 20.9086 74.9698 20.9408 74.6952C20.9737 74.4179 20.7094 74.1012 20.7587 73.8291C20.8087 73.5545 20.9428 73.2962 21.0085 73.0268C21.0749 72.7561 21.2261 72.5117 21.3076 72.2469C21.3897 71.9808 21.4693 71.7186 21.5666 71.459C21.6645 71.1982 21.7979 70.9577 21.911 70.7047C22.0241 70.4517 21.9695 70.1147 22.0977 69.8689C22.2259 69.6232 22.4066 69.3998 22.5499 69.1619C22.6932 68.924 22.7116 68.5955 22.8681 68.3668C23.0245 68.1382 23.4366 68.0889 23.6069 67.8694C23.7771 67.65 23.7824 67.2918 23.9651 67.0829C24.1479 66.8739 24.5528 66.872 24.748 66.6748C24.9577 66.4639 25.055 66.113 25.3153 66.0086C25.5841 65.9015 25.9022 65.9711 26.1895 65.9757C26.4767 65.9803 26.7719 65.9731 27.0394 66.0868C27.2977 66.1965 27.6211 66.2931 27.8288 66.504C28.0221 66.7018 28.078 67.0303 28.26 67.2393C28.4421 67.4482 28.5433 67.7143 28.7129 67.9338C28.8825 68.1533 29.035 68.3727 29.1908 68.6021C29.3466 68.8314 29.4919 69.0554 29.6338 69.2933C29.7758 69.5312 29.9027 69.7664 30.0309 70.0122C30.159 70.2579 30.4292 70.4294 30.5416 70.683C30.654 70.9367 30.7342 71.2015 30.8315 71.461C30.9281 71.7192 31.1174 71.9499 31.1996 72.2147C31.2811 72.4782 31.0359 72.8284 31.1016 73.0978C31.1667 73.3652 31.5282 73.567 31.5775 73.841C31.6262 74.1117 31.4401 74.4172 31.473 74.6932C31.5059 74.9665 31.4664 75.2372 31.4829 75.5152C31.4993 75.7898 31.916 76.054 31.916 76.3326C31.916 76.6414 31.7898 76.8399 31.7701 77.1421C31.9141 76.9384 31.8483 76.7354 32.0068 76.5383C32.1632 76.3431 32.3795 76.1874 32.5484 75.9995C32.716 75.8135 33.113 75.847 33.2912 75.6689C33.4884 75.4718 33.5054 75.092 33.7112 74.9087C33.9196 74.7234 34.0832 74.477 34.2995 74.3068C34.5184 74.1347 34.8497 74.111 35.0764 73.954C35.3052 73.7956 35.6266 73.795 35.8626 73.6517C36.0999 73.5072 36.1321 73.0019 36.376 72.8731C36.6218 72.743 36.9445 72.7528 37.1956 72.6385C37.4487 72.5235 37.6886 72.3652 37.9463 72.2666C38.204 72.168 38.5063 72.1759 38.7699 72.0925C39.0335 72.009 39.3352 72.0668 39.6034 71.9992C39.8716 71.9315 40.0747 71.551 40.3462 71.4998C40.6176 71.4485 40.9134 71.4761 41.1882 71.4413C41.4629 71.4065 41.7522 71.4623 42.0282 71.4439C42.3043 71.4255 42.5843 71.4328 42.8611 71.4308C43.1615 71.4275 43.4737 71.4525 43.7353 71.5602C44.0061 71.6719 44.3118 71.8106 44.5155 72.0156C44.7193 72.2206 44.6871 72.5951 44.7982 72.8665C44.9053 73.1287 44.904 73.3692 44.9007 73.6695C44.8981 73.9658 45.113 74.2681 45.0913 74.5637C45.0697 74.8594 45.0092 75.1538 44.9691 75.4475C44.929 75.7412 44.6483 75.9883 44.5898 76.2794C44.5313 76.5705 44.5846 76.8773 44.5076 77.1638C44.4307 77.4503 44.2046 77.6803 44.1093 77.9608C44.014 78.2414 44.3098 78.6679 44.1961 78.9425C44.083 79.2152 43.732 79.3867 43.6005 79.6535C43.4704 79.9183 43.3481 80.1864 43.2002 80.4439C43.053 80.6995 43.0044 81.0209 42.8394 81.2686C42.6764 81.5137 42.3385 81.6365 42.1577 81.8737C41.9789 82.1083 41.8836 82.4086 41.6878 82.634C41.4945 82.8561 41.2855 83.0854 41.0758 83.2983C41.4846 83.4323 41.5109 83.1439 41.9408 83.1439C42.3707 83.1439 42.3714 83.3752 42.8019 83.3752C43.2324 83.3752 43.2325 83.1353 43.663 83.1353C44.0935 83.1353 44.0942 83.4869 44.5247 83.4869C44.9553 83.4869 44.9559 83.3857 45.3871 83.3857C45.8183 83.3857 45.8183 83.1077 46.2495 83.1077C46.6807 83.1077 46.6807 83.2911 47.1113 83.2911C47.5418 83.2911 47.5418 83.2911 47.973 83.2911C48.4042 83.2911 48.4036 83.2286 48.8341 83.2286C49.2647 83.2286 49.2647 83.3725 49.6952 83.3725C50.1257 83.3725 50.1257 83.1675 50.5563 83.1675C50.9868 83.1675 50.9868 83.4553 51.4174 83.4553C51.8479 83.4553 51.8479 83.2214 52.2791 83.2214C52.7103 83.2214 52.7103 83.4843 53.1415 83.4843C53.5727 83.4843 53.5727 83.41 54.0046 83.41C54.4364 83.41 54.4358 83.2247 54.867 83.2247C55.2982 83.2247 55.2982 83.2871 55.7287 83.2871C56.1593 83.2871 56.1593 83.2457 56.5905 83.2457C57.0217 83.2457 57.021 83.3029 57.4522 83.3029C57.8834 83.3029 57.8834 83.2727 58.314 83.2727C58.7445 83.2727 58.7452 83.067 59.1764 83.067C59.6076 83.067 59.6076 83.4849 60.0394 83.4849C60.4713 83.4849 60.4706 83.065 60.9025 83.065C61.3344 83.065 61.3337 83.0631 61.7649 83.0631C62.1961 83.0631 62.1948 83.1518 62.6253 83.1518C63.0559 83.1518 63.0552 83.2155 63.4851 83.2155C63.915 83.2155 63.915 83.458 64.3442 83.458C64.7734 83.458 64.7741 83.3535 65.2033 83.3535C65.6326 83.3535 65.6332 83.3016 66.0624 83.3016C66.4917 83.3016 66.4923 83.0525 66.9222 83.0525C67.3521 83.0525 67.3528 83.3995 67.7833 83.3995C68.2138 83.3995 68.2145 83.4606 68.6457 83.4606C69.0769 83.4606 69.0776 83.408 69.5094 83.408C69.9413 83.408 69.9406 83.4429 70.3718 83.4429C70.803 83.4429 70.8024 83.1314 71.2336 83.1314C71.6648 83.1314 71.6641 83.5171 72.0947 83.5171C72.5252 83.5171 72.5252 83.3049 72.9557 83.3049C73.3863 83.3049 73.3869 83.0847 73.8175 83.0847C74.248 83.0847 74.2494 83.2326 74.6806 83.2326C75.1118 83.2326 75.1124 83.2378 75.5449 83.2378C75.9774 83.2378 75.9761 83.4107 76.408 83.4107C76.8398 83.4107 76.8392 83.1445 77.2704 83.1445C77.7016 83.1445 77.7016 83.251 78.1328 83.251C78.564 83.251 78.5647 83.1603 78.9972 83.1603C79.4297 83.1603 79.429 83.2306 79.8609 83.2306C80.2927 83.2306 80.2927 83.2227 80.7239 83.2227C81.1551 83.2227 81.1558 83.4777 81.5877 83.4777C82.0195 83.4777 82.0202 83.1932 82.4527 83.1932C82.8852 83.1932 82.8845 83.5059 83.3164 83.5059C83.7483 83.5059 83.7489 83.2096 84.1814 83.2096C84.614 83.2096 84.6133 83.2346 85.0458 83.2346C85.4783 83.2346 85.4783 83.4948 85.9102 83.4948C86.342 83.4948 86.3414 83.3548 86.7732 83.3548C87.2051 83.3548 87.2044 83.1307 87.6363 83.1307C88.0682 83.1307 88.0688 83.4613 88.502 83.4613C88.9352 83.4613 88.9339 83.4553 89.3664 83.4553C89.7989 83.4553 89.7989 83.3955 90.2314 83.3955C90.6639 83.3955 90.6646 83.2963 91.0978 83.2963C91.5309 83.2963 91.5303 83.184 91.9628 83.184C92.3953 83.184 92.3966 83.3357 92.8298 83.3357C93.263 83.3357 93.2643 83.3614 93.6981 83.3614C94.1319 83.3614 94.1326 83.4724 94.5664 83.4724C94.8445 83.4724 95.1192 83.276 95.3585 83.1892C95.6122 83.0966 95.8935 82.9987 96.0914 82.8291C96.2925 82.6557 96.4017 82.3751 96.5305 82.1451C96.6593 81.9151 96.8388 81.676 96.8822 81.4138C96.9242 81.1575 96.7349 80.8927 96.6823 80.6279C96.633 80.3789 96.4746 80.2074 96.3313 79.9695L96.328 79.9708Z" fill="#0E5249"/>
<mask id="mask0_2973_8443" style="mask-type:luminance" maskUnits="userSpaceOnUse" x="5" y="39" width="92" height="45">
<path d="M96.328 79.9708C96.1032 79.6003 96.4352 79.3985 96.2104 79.0279C95.9856 78.6573 95.9402 78.6843 95.7148 78.313C95.4893 77.9418 95.4965 77.9365 95.2711 77.5653C95.0456 77.194 94.8885 77.288 94.663 76.9154C94.4376 76.5429 94.5664 76.4653 94.3403 76.0941C94.1142 75.7228 93.8309 75.895 93.6061 75.5231C93.3813 75.1512 93.3727 75.1571 93.1473 74.7858C92.9218 74.4146 92.9803 74.3791 92.7548 74.0079C92.5294 73.6366 92.4913 73.6596 92.2658 73.2877C92.0404 72.9158 92.3 72.7581 92.0745 72.3855C91.8491 72.013 91.7084 72.0977 91.4823 71.7252C91.2562 71.3526 91.1523 71.4163 90.9262 71.0444C90.7001 70.6725 91.0465 70.4629 90.821 70.0917C90.5956 69.7204 90.5903 69.723 90.3648 69.3511C90.1394 68.9792 90.075 69.0173 89.8495 68.6448C89.624 68.2722 89.3368 68.4463 89.1113 68.0738C88.8859 67.7012 88.8655 67.7137 88.6394 67.3418C88.4133 66.9699 88.5303 66.8989 88.3041 66.5263C88.078 66.1538 88.3324 65.9994 88.1063 65.6268C87.8802 65.2542 87.6777 65.3778 87.4516 65.0052C87.2255 64.6326 87.1834 64.6602 86.9586 64.2896C86.7338 63.9191 86.7272 63.9223 86.5018 63.5511C86.2763 63.1798 86.2336 63.2035 86.0068 62.8303C85.78 62.4571 85.9943 62.3283 85.7689 61.9564C85.5434 61.5845 85.2824 61.7422 85.0563 61.3702C84.8302 60.9983 84.8197 61.0029 84.5929 60.6297C84.3661 60.2565 84.6028 60.1139 84.3767 59.7413C84.1505 59.3688 84.0894 59.4049 83.8633 59.0317C83.6372 58.6585 83.7667 58.579 83.5399 58.2051C83.3131 57.8312 83.3552 57.8062 83.1291 57.433C82.903 57.0598 82.6104 57.2366 82.3837 56.8627C82.1569 56.4888 82.3179 56.3896 82.0912 56.0151C81.8644 55.6405 81.6015 55.7995 81.374 55.4243C81.2242 55.1773 81.1841 54.8829 81.0151 54.6602C80.8409 54.4308 80.5958 54.2882 80.4032 54.0846C80.206 53.8763 80.0719 53.6305 79.8583 53.4485C79.6407 53.2632 79.5256 52.9498 79.2923 52.7921C79.0557 52.6324 78.8828 52.3367 78.633 52.206C78.3806 52.0732 77.9902 52.223 77.7272 52.1199C77.4623 52.0161 77.2553 51.725 76.9825 51.6507C76.7097 51.5765 76.3922 51.658 76.1129 51.6133C75.8335 51.5686 75.5469 51.6067 75.2643 51.5916C74.9816 51.5765 74.7042 51.5653 74.4209 51.5804C74.1376 51.5955 73.8195 51.3623 73.5394 51.4076C73.2594 51.453 73.0057 51.6823 72.7323 51.7572C72.4588 51.8321 72.2202 52.0088 71.956 52.1127C71.693 52.2158 71.4702 52.3867 71.2178 52.5194C70.9687 52.6502 70.5486 52.5115 70.312 52.6712C70.0787 52.8289 69.8795 53.0681 69.6613 53.2533C69.4476 53.4354 69.3806 53.7836 69.1841 53.9919C68.9921 54.1956 68.8869 54.463 68.7134 54.6924C68.5445 54.9151 68.1882 55.011 68.0383 55.2574C67.8195 55.6182 68.0554 55.7614 67.8365 56.1222C67.6177 56.4829 67.6117 56.477 67.3935 56.8364C67.1753 57.1958 67.0261 57.1058 66.8078 57.4659C66.5896 57.826 66.6908 57.8897 66.472 58.2511C66.2531 58.6125 65.9487 58.4272 65.7298 58.7879C65.511 59.1487 65.8699 59.3662 65.651 59.7269C65.4321 60.0876 65.3098 60.0147 65.0903 60.3767C64.8707 60.7388 64.7669 60.6744 64.5473 61.0358C64.3278 61.3972 64.4218 61.4544 64.2022 61.8164C63.9827 62.1785 64.0234 62.2008 63.8046 62.5609C63.585 62.9229 63.4056 62.8145 63.186 63.1766C62.9665 63.5386 62.9007 63.4998 62.6812 63.8625C62.4616 64.2253 62.4847 64.241 62.2645 64.6044C62.0443 64.9678 62.3598 65.1596 62.1396 65.5236C62.1159 65.5624 61.8109 65.5085 61.8306 65.5493C62.0226 65.9383 62.2533 65.8108 62.4787 66.1814C62.7042 66.552 62.7384 66.5336 62.9645 66.9061C63.1906 67.2787 63.1413 67.307 63.3668 67.6789C63.5922 68.0508 63.5055 68.1033 63.7309 68.4746C63.9564 68.8458 64.1201 68.7486 64.3462 69.1212C64.5723 69.4937 64.4494 69.568 64.6755 69.9399C64.9016 70.3118 64.8155 70.365 65.0416 70.7376C65.2677 71.1101 65.3847 71.0398 65.6115 71.413C65.8383 71.7863 65.9336 71.7278 66.1597 72.1003C66.3858 72.4729 66.2991 72.5268 66.5259 72.8994C66.7526 73.2719 66.7638 73.2673 66.9906 73.6412C67.2174 74.0151 67.0504 74.113 67.2653 74.4947C67.2851 74.5867 67.1556 74.6281 67.1556 74.7195C67.1556 74.9494 67.4277 75.23 67.3166 75.4311C67.2082 75.6262 66.9584 75.7524 66.7572 75.8786C66.4384 76.079 66.0072 76.3464 65.6674 76.2649C65.3276 76.1834 65.2599 75.6315 65.066 75.3089C64.8464 74.9462 64.6821 75.0454 64.4625 74.6833C64.243 74.3213 64.1608 74.3699 63.9406 74.0072C63.7204 73.6445 63.7526 73.6241 63.5318 73.2601C63.3109 72.8961 63.3057 72.8994 63.0854 72.536C62.8652 72.1726 63.0736 72.0465 62.8534 71.6831C62.6332 71.3197 62.5313 71.3822 62.3111 71.0195C62.0909 70.6567 62.1047 70.6489 61.8845 70.2862C61.6643 69.9234 61.6045 69.9602 61.385 69.5982C61.1654 69.2361 60.9722 69.3531 60.7526 68.9904C60.5331 68.6277 60.8762 68.4194 60.6567 68.0573C60.4371 67.6953 60.1906 67.8438 59.9704 67.4811C59.7502 67.1184 60.0066 66.9626 59.7864 66.5993C59.5662 66.2359 59.2263 66.4416 59.0055 66.0776C58.7846 65.7135 58.7432 65.7385 58.5223 65.3738C58.3015 65.0092 58.475 64.9047 58.2548 64.5413C58.0346 64.1779 57.9308 64.241 57.7106 63.8777C57.4903 63.5143 57.6724 63.4039 57.4522 63.0405C57.232 62.6772 57.1098 62.7514 56.8896 62.3881C56.6694 62.0247 56.8672 61.9045 56.647 61.5411C56.4268 61.1777 56.112 61.3676 55.8911 61.0036C55.6702 60.6396 55.8635 60.522 55.6426 60.1573C55.4218 59.7926 55.3994 59.8071 55.1786 59.443C54.9577 59.079 54.9649 59.0751 54.7441 58.7117C54.5232 58.3483 54.4174 58.4121 54.1965 58.0481C53.9757 57.684 53.883 57.7399 53.6621 57.3752C53.4413 57.0105 53.4886 56.9823 53.2677 56.6176C53.0469 56.2529 53.2237 56.1465 53.0028 55.7824C52.782 55.4184 52.9424 55.3212 52.7215 54.9565C52.5006 54.5918 52.1339 54.8139 51.9123 54.4492C51.6908 54.0846 51.8946 53.9617 51.6737 53.597C51.4529 53.2323 51.2577 53.3532 51.0375 52.9905C50.8172 52.6278 51.0243 52.5016 50.8041 52.1383C50.5839 51.7749 50.693 51.7066 50.4715 51.3419C50.25 50.9772 50.0383 51.1067 49.8175 50.742C49.5966 50.3773 49.523 50.4227 49.3021 50.0586C49.0813 49.6946 49.2574 49.5862 49.0353 49.2209C48.8131 48.8555 48.6895 48.9317 48.468 48.5671C48.2465 48.2024 48.3135 48.161 48.092 47.7963C47.8705 47.4316 47.8284 47.4586 47.6076 47.0952C47.386 46.7299 47.6227 46.586 47.4012 46.22C47.1796 45.854 46.8083 46.0787 46.5861 45.7127C46.3639 45.3467 46.6163 45.1923 46.3935 44.825C46.1707 44.4577 46.0964 44.503 45.8736 44.1357C45.7224 43.8867 45.4838 43.7053 45.3181 43.4734C45.1485 43.2362 45.0559 42.9503 44.8725 42.7315C44.6851 42.5088 44.3716 42.4155 44.1711 42.2118C43.9673 42.0048 43.9831 41.5692 43.7662 41.3826C43.5466 41.1927 43.3356 40.9745 43.1049 40.805C42.8716 40.6341 42.4055 40.8129 42.1617 40.6631C41.9152 40.5113 41.743 40.255 41.4873 40.1249C41.2296 39.9935 40.9371 39.9672 40.6715 39.8575C40.4047 39.7477 40.1588 39.6196 39.8854 39.5309C39.6119 39.4422 39.4069 39.1051 39.1275 39.0381C38.8481 38.9711 38.5116 39.1932 38.227 39.1491C37.9423 39.1051 37.6636 39.1347 37.3771 39.113C37.0905 39.0913 36.819 39.0795 36.5311 39.0795C36.2432 39.0795 35.9684 39.0355 35.6812 39.0578C35.3939 39.0801 35.1224 39.1222 34.8378 39.1669C34.5532 39.2116 34.2443 39.0953 33.9643 39.1616C33.6842 39.228 33.464 39.4816 33.1899 39.5703C32.9158 39.659 32.509 39.387 32.2427 39.4974C31.9772 39.6071 31.7405 39.8128 31.4835 39.9442C31.2278 40.0743 30.9445 40.1814 30.6987 40.3325C30.4548 40.4824 30.2116 40.6598 29.9783 40.8313C29.7476 41.0001 29.5398 41.2189 29.321 41.4082C29.1047 41.5954 29.1152 42.0219 28.9121 42.2289C28.7123 42.4319 28.5322 42.6349 28.3455 42.857C28.1621 43.0752 27.8374 43.1777 27.6685 43.4142C27.5028 43.6462 27.3654 43.8979 27.2142 44.1475C26.9934 44.5122 27.0808 44.5654 26.86 44.9301C26.6391 45.2948 26.3867 45.1424 26.1652 45.507C25.9436 45.8717 26.1303 45.9847 25.9088 46.3494C25.6873 46.7141 25.4572 46.5741 25.2357 46.9382C25.0142 47.3022 24.9997 47.2936 24.7789 47.6577C24.558 48.0217 24.5449 48.0125 24.3247 48.3752C24.1045 48.7379 24.2162 48.8069 23.996 49.1703C23.7758 49.5336 23.8041 49.552 23.5832 49.916C23.3624 50.2801 23.4038 50.3057 23.1829 50.6704C22.9621 51.035 23.1316 51.1382 22.9108 51.5029C22.6899 51.8676 22.73 51.8912 22.5092 52.2559C22.2883 52.6206 21.984 52.4353 21.7631 52.7986C21.5422 53.162 21.8472 53.3467 21.6264 53.71C21.4055 54.0734 21.2655 53.988 21.0447 54.3513C20.8238 54.7147 20.8126 54.7075 20.5918 55.0708C20.3709 55.4342 20.1422 55.2956 19.922 55.6589C19.7017 56.0223 20.0804 56.2523 19.8595 56.6156C19.6386 56.979 19.3087 56.7792 19.0872 57.1433C18.8656 57.5073 19.191 57.7051 18.9695 58.0697C18.748 58.4344 18.4712 58.2675 18.2497 58.6329C18.0282 58.9982 18.2622 59.1388 18.0407 59.5041C17.8192 59.8695 17.6746 59.7801 17.4537 60.1448C17.2329 60.5095 17.4077 60.6153 17.1868 60.9793C16.966 61.3433 16.7103 61.1882 16.4894 61.5523C16.2686 61.9163 16.4086 62.0017 16.1871 62.3657C15.9656 62.7297 15.8735 62.6745 15.652 63.0399C15.4305 63.4052 15.322 63.3395 15.1005 63.7048C14.879 64.0702 15.0394 64.1668 14.8179 64.5315C14.5964 64.8961 14.6989 64.9579 14.478 65.3226C14.2572 65.6873 13.9975 65.5302 13.7767 65.8949C13.5558 66.2596 13.8201 66.4212 13.5985 66.7866C13.377 67.1519 13.1424 67.0093 12.9202 67.3746C12.698 67.74 12.6428 67.7058 12.4213 68.0705C12.1998 68.4352 12.368 68.5377 12.1465 68.903C11.925 69.2683 11.9579 69.2887 11.7364 69.6547C11.5148 70.0207 11.6233 70.0857 11.4018 70.4511C11.1803 70.8164 11.1757 70.8112 10.9548 71.1752C10.7339 71.5392 10.7386 71.5425 10.5177 71.9065C10.2968 72.2705 10.0319 72.1122 9.80976 72.4782C9.58759 72.8442 9.68947 72.9046 9.46795 73.27C9.24644 73.6353 9.15244 73.5781 8.93092 73.9435C8.70941 74.3088 8.76791 74.3456 8.54573 74.7122C8.32356 75.0789 8.45305 75.1564 8.23154 75.5218C8.01002 75.8871 8.12965 75.9613 7.90748 76.3273C7.6853 76.6933 7.67873 76.6874 7.45787 77.0521C7.30976 77.2965 7.1612 77.5407 7.01221 77.7847C6.78938 78.1521 6.75454 78.131 6.53171 78.4977C6.30888 78.8643 6.28193 78.8499 6.05844 79.2178C5.83495 79.5858 5.62001 79.4557 5.39652 79.8237C5.25257 80.0609 5.12833 80.3395 5.07904 80.5885C5.02645 80.8533 4.98241 81.1707 5.02448 81.4269C5.06786 81.6891 5.36957 81.8862 5.4984 82.1156C5.62724 82.3449 5.6463 82.6971 5.84744 82.8699C6.04464 83.0394 6.29376 83.2779 6.54749 83.3706C6.78609 83.458 7.12658 83.0729 7.40463 83.0729C7.82268 83.0729 7.82268 83.1892 8.2414 83.1892C8.66011 83.1892 8.65945 83.5007 9.07751 83.5007C9.49556 83.5007 9.49556 83.2615 9.91427 83.2615C10.333 83.2615 10.333 83.4685 10.7517 83.4685C11.1704 83.4685 11.1698 83.5007 11.5885 83.5007C12.0072 83.5007 12.0072 83.1524 12.4259 83.1524C12.8446 83.1524 12.8426 83.3515 13.26 83.3515C13.6774 83.3515 13.6787 83.2589 14.0975 83.2589C14.5162 83.2589 14.5155 83.498 14.9336 83.498C15.3516 83.498 15.3516 83.4507 15.7697 83.4507C16.1877 83.4507 16.189 83.3403 16.6084 83.3403C17.0278 83.3403 17.0271 83.3627 17.4458 83.3627C17.8645 83.3627 17.8652 83.3338 18.2839 83.3338C18.7026 83.3338 18.7033 83.1498 19.1233 83.1498C19.5433 83.1498 19.5427 83.2654 19.9614 83.2654C20.3801 83.2654 20.3814 83.2293 20.8008 83.2293C21.2202 83.2293 21.2215 83.113 21.6428 83.113C22.0642 83.113 22.0878 83.4264 22.4809 83.2773C22.3284 83.0158 22.1424 82.7805 22.007 82.5078C21.8716 82.2351 21.7598 81.9513 21.6428 81.6707C21.5265 81.3915 21.4246 81.1036 21.3266 80.8152C21.2294 80.5294 21.2287 80.2133 21.1498 79.9189C21.0716 79.6272 21.111 79.3144 21.0519 79.0148C20.9934 78.7191 20.6509 78.4694 20.6115 78.1665C20.5727 77.8675 20.6851 77.5475 20.6654 77.2427C20.6457 76.9417 20.4149 76.6395 20.4149 76.3333C20.4149 76.0533 20.5819 75.7728 20.5983 75.4968C20.6148 75.2175 20.9086 74.9698 20.9408 74.6952C20.9737 74.4179 20.7094 74.1012 20.7587 73.8291C20.8087 73.5545 20.9428 73.2962 21.0085 73.0268C21.0749 72.7561 21.2261 72.5117 21.3076 72.2469C21.3897 71.9808 21.4693 71.7186 21.5666 71.459C21.6645 71.1982 21.7979 70.9577 21.911 70.7047C22.0241 70.4517 21.9695 70.1147 22.0977 69.8689C22.2259 69.6232 22.4066 69.3998 22.5499 69.1619C22.6932 68.924 22.7116 68.5955 22.8681 68.3668C23.0245 68.1382 23.4366 68.0889 23.6069 67.8694C23.7771 67.65 23.7824 67.2918 23.9651 67.0829C24.1479 66.8739 24.5528 66.872 24.748 66.6748C24.9577 66.4639 25.055 66.113 25.3153 66.0086C25.5841 65.9015 25.9022 65.9711 26.1895 65.9757C26.4767 65.9803 26.7719 65.9731 27.0394 66.0868C27.2977 66.1965 27.6211 66.2931 27.8288 66.504C28.0221 66.7018 28.078 67.0303 28.26 67.2393C28.4421 67.4482 28.5433 67.7143 28.7129 67.9338C28.8825 68.1533 29.035 68.3727 29.1908 68.6021C29.3466 68.8314 29.4919 69.0554 29.6338 69.2933C29.7758 69.5312 29.9027 69.7664 30.0309 70.0122C30.159 70.2579 30.4292 70.4294 30.5416 70.683C30.654 70.9367 30.7342 71.2015 30.8315 71.461C30.9281 71.7192 31.1174 71.9499 31.1996 72.2147C31.2811 72.4782 31.0359 72.8284 31.1016 73.0978C31.1667 73.3652 31.5282 73.567 31.5775 73.841C31.6262 74.1117 31.4401 74.4172 31.473 74.6932C31.5059 74.9665 31.4664 75.2372 31.4829 75.5152C31.4993 75.7898 31.916 76.054 31.916 76.3326C31.916 76.6414 31.7898 76.8399 31.7701 77.1421C31.9141 76.9384 31.8483 76.7354 32.0068 76.5383C32.1632 76.3431 32.3795 76.1874 32.5484 75.9995C32.716 75.8135 33.113 75.847 33.2912 75.6689C33.4884 75.4718 33.5054 75.092 33.7112 74.9087C33.9196 74.7234 34.0832 74.477 34.2995 74.3068C34.5184 74.1347 34.8497 74.111 35.0764 73.954C35.3052 73.7956 35.6266 73.795 35.8626 73.6517C36.0999 73.5072 36.1321 73.0019 36.376 72.8731C36.6218 72.743 36.9445 72.7528 37.1956 72.6385C37.4487 72.5235 37.6886 72.3652 37.9463 72.2666C38.204 72.168 38.5063 72.1759 38.7699 72.0925C39.0335 72.009 39.3352 72.0668 39.6034 71.9992C39.8716 71.9315 40.0747 71.551 40.3462 71.4998C40.6176 71.4485 40.9134 71.4761 41.1882 71.4413C41.4629 71.4065 41.7522 71.4623 42.0282 71.4439C42.3043 71.4255 42.5843 71.4328 42.8611 71.4308C43.1615 71.4275 43.4737 71.4525 43.7353 71.5602C44.0061 71.6719 44.3118 71.8106 44.5155 72.0156C44.7193 72.2206 44.6871 72.5951 44.7982 72.8665C44.9053 73.1287 44.904 73.3692 44.9007 73.6695C44.8981 73.9658 45.113 74.2681 45.0913 74.5637C45.0697 74.8594 45.0092 75.1538 44.9691 75.4475C44.929 75.7412 44.6483 75.9883 44.5898 76.2794C44.5313 76.5705 44.5846 76.8773 44.5076 77.1638C44.4307 77.4503 44.2046 77.6803 44.1093 77.9608C44.014 78.2414 44.3098 78.6679 44.1961 78.9425C44.083 79.2152 43.732 79.3867 43.6005 79.6535C43.4704 79.9183 43.3481 80.1864 43.2002 80.4439C43.053 80.6995 43.0044 81.0209 42.8394 81.2686C42.6764 81.5137 42.3385 81.6365 42.1577 81.8737C41.9789 82.1083 41.8836 82.4086 41.6878 82.634C41.4945 82.8561 41.2855 83.0854 41.0758 83.2983C41.4846 83.4323 41.5109 83.1439 41.9408 83.1439C42.3707 83.1439 42.3714 83.3752 42.8019 83.3752C43.2324 83.3752 43.2325 83.1353 43.663 83.1353C44.0935 83.1353 44.0942 83.4869 44.5247 83.4869C44.9553 83.4869 44.9559 83.3857 45.3871 83.3857C45.8183 83.3857 45.8183 83.1077 46.2495 83.1077C46.6807 83.1077 46.6807 83.2911 47.1113 83.2911C47.5418 83.2911 47.5418 83.2911 47.973 83.2911C48.4042 83.2911 48.4036 83.2286 48.8341 83.2286C49.2647 83.2286 49.2647 83.3725 49.6952 83.3725C50.1257 83.3725 50.1257 83.1675 50.5563 83.1675C50.9868 83.1675 50.9868 83.4553 51.4174 83.4553C51.8479 83.4553 51.8479 83.2214 52.2791 83.2214C52.7103 83.2214 52.7103 83.4843 53.1415 83.4843C53.5727 83.4843 53.5727 83.41 54.0046 83.41C54.4364 83.41 54.4358 83.2247 54.867 83.2247C55.2982 83.2247 55.2982 83.2871 55.7287 83.2871C56.1593 83.2871 56.1593 83.2457 56.5905 83.2457C57.0217 83.2457 57.021 83.3029 57.4522 83.3029C57.8834 83.3029 57.8834 83.2727 58.314 83.2727C58.7445 83.2727 58.7452 83.067 59.1764 83.067C59.6076 83.067 59.6076 83.4849 60.0394 83.4849C60.4713 83.4849 60.4706 83.065 60.9025 83.065C61.3344 83.065 61.3337 83.0631 61.7649 83.0631C62.1961 83.0631 62.1948 83.1518 62.6253 83.1518C63.0559 83.1518 63.0552 83.2155 63.4851 83.2155C63.915 83.2155 63.915 83.458 64.3442 83.458C64.7734 83.458 64.7741 83.3535 65.2033 83.3535C65.6326 83.3535 65.6332 83.3016 66.0624 83.3016C66.4917 83.3016 66.4923 83.0525 66.9222 83.0525C67.3521 83.0525 67.3528 83.3995 67.7833 83.3995C68.2138 83.3995 68.2145 83.4606 68.6457 83.4606C69.0769 83.4606 69.0776 83.408 69.5094 83.408C69.9413 83.408 69.9406 83.4429 70.3718 83.4429C70.803 83.4429 70.8024 83.1314 71.2336 83.1314C71.6648 83.1314 71.6641 83.5171 72.0947 83.5171C72.5252 83.5171 72.5252 83.3049 72.9557 83.3049C73.3863 83.3049 73.3869 83.0847 73.8175 83.0847C74.248 83.0847 74.2494 83.2326 74.6806 83.2326C75.1118 83.2326 75.1124 83.2378 75.5449 83.2378C75.9774 83.2378 75.9761 83.4107 76.408 83.4107C76.8398 83.4107 76.8392 83.1445 77.2704 83.1445C77.7016 83.1445 77.7016 83.251 78.1328 83.251C78.564 83.251 78.5647 83.1603 78.9972 83.1603C79.4297 83.1603 79.429 83.2306 79.8609 83.2306C80.2927 83.2306 80.2927 83.2227 80.7239 83.2227C81.1551 83.2227 81.1558 83.4777 81.5877 83.4777C82.0195 83.4777 82.0202 83.1932 82.4527 83.1932C82.8852 83.1932 82.8845 83.5059 83.3164 83.5059C83.7483 83.5059 83.7489 83.2096 84.1814 83.2096C84.614 83.2096 84.6133 83.2346 85.0458 83.2346C85.4783 83.2346 85.4783 83.4948 85.9102 83.4948C86.342 83.4948 86.3414 83.3548 86.7732 83.3548C87.2051 83.3548 87.2044 83.1307 87.6363 83.1307C88.0682 83.1307 88.0688 83.4613 88.502 83.4613C88.9352 83.4613 88.9339 83.4553 89.3664 83.4553C89.7989 83.4553 89.7989 83.3955 90.2314 83.3955C90.6639 83.3955 90.6646 83.2963 91.0978 83.2963C91.5309 83.2963 91.5303 83.184 91.9628 83.184C92.3953 83.184 92.3966 83.3357 92.8298 83.3357C93.263 83.3357 93.2643 83.3614 93.6981 83.3614C94.1319 83.3614 94.1326 83.4724 94.5664 83.4724C94.8445 83.4724 95.1192 83.276 95.3585 83.1892C95.6122 83.0966 95.8935 82.9987 96.0914 82.8291C96.2925 82.6557 96.4017 82.3751 96.5305 82.1451C96.6593 81.9151 96.8388 81.676 96.8822 81.4138C96.9242 81.1575 96.7349 80.8927 96.6823 80.6279C96.633 80.3789 96.4746 80.2074 96.3313 79.9695L96.328 79.9708Z" fill="white"/>
</mask>
<g mask="url(#mask0_2973_8443)">
<path d="M14.5241 57.6913C14.8258 57.9948 14.8501 57.8871 15.2787 57.8871C15.7072 57.8871 15.7066 57.8122 16.1351 57.8122C16.5637 57.8122 16.5631 57.8674 16.9916 57.8674C17.4202 57.8674 17.4195 57.5934 17.8481 57.5934C18.2767 57.5934 18.2767 57.8752 18.7046 57.8752C19.1325 57.8752 19.1332 57.9482 19.5618 57.9482C19.9903 57.9482 19.991 57.8043 20.4196 57.8043C20.8481 57.8043 20.8481 57.6361 21.2767 57.6361C21.7053 57.6361 21.7053 57.5842 22.1338 57.5842C22.5624 57.5842 22.5624 57.6748 22.9903 57.6748C23.4182 57.6748 23.4189 57.9015 23.8468 57.9015C24.2747 57.9015 24.2754 57.937 24.7033 57.937C25.1312 57.937 25.1319 57.6571 25.5604 57.6571C25.989 57.6571 25.989 57.9028 26.4182 57.9028C26.8475 57.9028 26.8475 57.5815 27.276 57.5815C27.7046 57.5815 27.704 57.6269 28.1325 57.6269C28.5611 57.6269 28.5604 57.8522 28.9877 57.8522C29.415 57.8522 29.415 57.8726 29.8422 57.8726C30.2695 57.8726 30.2695 57.6466 30.6967 57.6466C31.124 57.6466 31.124 57.9692 31.5512 57.9692C31.9785 57.9692 31.9785 57.6394 32.4058 57.6394C32.833 57.6394 32.833 57.822 33.2609 57.822C33.6888 57.822 33.6888 58.027 34.1168 58.027C34.5447 58.027 34.5453 57.9935 34.9739 57.9935C35.4025 57.9935 35.4031 57.8141 35.833 57.8141C36.2629 57.8141 36.2616 57.7938 36.6908 57.7938C37.1201 57.7938 37.1194 57.9955 37.5473 57.9955C37.9752 57.9955 37.9752 57.6597 38.4031 57.6597C38.8311 57.6597 38.8311 57.9101 39.2596 57.9101C39.6882 57.9101 39.6882 57.5756 40.1168 57.5756C40.5453 57.5756 40.546 57.7557 40.9752 57.7557C41.4045 57.7557 41.4051 57.845 41.8343 57.845C42.2636 57.845 42.2636 57.6807 42.6921 57.6807C43.1207 57.6807 43.1207 57.8312 43.5493 57.8312C43.9779 57.8312 43.9779 57.7379 44.4071 57.7379C44.8363 57.7379 44.837 58.0152 45.2662 58.0152C45.6954 58.0152 45.6954 57.8976 46.1253 57.8976C46.5552 57.8976 46.5545 57.9653 46.9838 57.9653C47.413 57.9653 47.413 57.822 47.8429 57.822C48.2728 57.822 48.2728 57.8996 48.7027 57.8996C49.1326 57.8996 49.1319 57.8476 49.5618 57.8476C49.9917 57.8476 49.9917 57.8634 50.4216 57.8634C50.8514 57.8634 50.8514 58.0205 51.2807 58.0205C51.7099 58.0205 51.7106 57.8904 52.1404 57.8904C52.5703 57.8904 52.569 57.5684 52.9982 57.5684C53.4275 57.5684 53.4275 57.6413 53.856 57.6413C54.2846 57.6413 54.2866 57.64 54.7165 57.64C55.1464 57.64 55.1464 57.8555 55.5756 57.8555C56.0048 57.8555 56.0055 57.9298 56.436 57.9298C56.8666 57.9298 56.8666 57.8076 57.2971 57.8076C57.7277 57.8076 57.727 57.7642 58.1575 57.7642C58.5881 57.7642 58.5887 57.6012 59.0199 57.6012C59.4511 57.6012 59.4518 57.617 59.8837 57.617C60.3155 57.617 60.4207 58.0757 60.727 57.7721C61.0307 57.4711 60.89 57.3647 60.89 56.9376C60.89 56.5105 60.6862 56.5098 60.6862 56.0821C60.6862 55.6543 60.5896 55.6537 60.5896 55.2252C60.5896 54.7968 60.8328 54.7962 60.8328 54.3678C60.8328 53.9393 60.9636 53.9393 60.9636 53.5116C60.9636 53.0838 60.9406 53.0838 60.9406 52.6554C60.9406 52.227 60.6613 52.227 60.6613 51.7992C60.6613 51.3715 60.8111 51.3702 60.8111 50.9417C60.8111 50.5133 60.9229 50.5127 60.9229 50.0843C60.9229 49.6558 60.913 49.6558 60.913 49.2274C60.913 48.799 60.5278 48.799 60.5278 48.3699C60.5278 47.9409 60.5541 47.9409 60.5541 47.5118C60.5541 47.0827 60.6363 47.0834 60.6363 46.6543C60.6363 46.2252 60.7014 46.2252 60.7014 45.7962C60.7014 45.3671 60.9111 45.3671 60.9111 44.938C60.9111 44.5089 60.9373 44.5089 60.9373 44.0799C60.9373 43.6508 60.8473 43.6515 60.8473 43.2237C60.8473 42.7959 60.7125 42.7953 60.7125 42.3675C60.7125 41.9398 60.5968 41.9378 60.5968 41.5081C60.5968 41.0783 60.7908 41.079 60.7908 40.6506C60.7908 40.2222 60.777 40.2208 60.777 39.7918C60.777 39.3627 60.5495 39.362 60.5495 38.9316C60.5495 38.5013 60.965 38.5026 60.965 38.0728C60.965 37.6431 60.7447 37.6425 60.7447 37.2121C60.7447 36.7817 60.7066 36.781 60.7066 36.35C60.7066 35.9189 61.17 35.6739 60.8664 35.3683C60.5646 35.0647 60.3175 35.5529 59.8896 35.5529C59.4617 35.5529 59.4617 35.4767 59.0331 35.4767C58.6045 35.4767 58.6052 35.5648 58.1766 35.5648C57.748 35.5648 57.7487 35.3243 57.3201 35.3243C56.8915 35.3243 56.8915 35.3401 56.4636 35.3401C56.0357 35.3401 56.0351 35.6509 55.6065 35.6509C55.1779 35.6509 55.1773 35.4472 54.7487 35.4472C54.3201 35.4472 54.3201 35.4347 53.8915 35.4347C53.463 35.4347 53.463 35.4307 53.0344 35.4307C52.6058 35.4307 52.6058 35.3637 52.1779 35.3637C51.75 35.3637 51.7493 35.7133 51.3214 35.7133C50.8935 35.7133 50.8929 35.4984 50.4649 35.4984C50.037 35.4984 50.0364 35.62 49.6078 35.62C49.1792 35.62 49.1792 35.3355 48.75 35.3355C48.3208 35.3355 48.3208 35.2737 47.8922 35.2737C47.4636 35.2737 47.4643 35.4485 47.0357 35.4485C46.6071 35.4485 46.6078 35.4734 46.1805 35.4734C45.7533 35.4734 45.7533 35.6489 45.326 35.6489C44.8988 35.6489 44.8988 35.4458 44.4715 35.4458C44.0442 35.4458 44.0442 35.4603 43.617 35.4603C43.1897 35.4603 43.1897 35.5621 42.7625 35.5621C42.3352 35.5621 42.3352 35.3631 41.9073 35.3631C41.4794 35.3631 41.4794 35.3059 41.0515 35.3059C40.6236 35.3059 40.6229 35.6489 40.1943 35.6489C39.7658 35.6489 39.7651 35.5963 39.3352 35.5963C38.9053 35.5963 38.9066 35.5727 38.4774 35.5727C38.0482 35.5727 38.0488 35.277 37.6209 35.277C37.193 35.277 37.193 35.3907 36.7651 35.3907C36.3372 35.3907 36.3372 35.6397 35.9086 35.6397C35.48 35.6397 35.48 35.7113 35.0515 35.7113C34.6229 35.7113 34.6222 35.3769 34.193 35.3769C33.7638 35.3769 33.7631 35.409 33.3339 35.409C32.9047 35.409 32.9047 35.4458 32.4761 35.4458C32.0475 35.4458 32.0475 35.3565 31.6189 35.3565C31.1904 35.3565 31.1904 35.5937 30.7611 35.5937C30.3319 35.5937 30.3313 35.6173 29.902 35.6173C29.4728 35.6173 29.4728 35.7244 29.0429 35.7244C28.613 35.7244 28.6137 35.57 28.1845 35.57C27.7552 35.57 27.7552 35.6712 27.3253 35.6712C26.8955 35.6712 26.8955 35.6298 26.4656 35.6298C26.0357 35.6298 26.0363 35.4189 25.6065 35.4189C25.1766 35.4189 25.1766 35.4734 24.7467 35.4734C24.3168 35.4734 24.3168 35.6285 23.8876 35.6285C23.4583 35.6285 23.4577 35.6686 23.0278 35.6686C22.5979 35.6686 22.5992 35.4406 22.17 35.4406C21.7408 35.4406 21.7408 35.6088 21.3122 35.6088C20.8836 35.6088 20.8816 35.2566 20.4518 35.2566C20.0219 35.2566 20.0219 35.3348 19.5926 35.3348C19.1634 35.3348 19.1628 35.3788 18.7322 35.3788C18.3017 35.3788 18.3017 35.2658 17.8711 35.2658C17.4406 35.2658 17.4412 35.319 17.0107 35.319C16.5802 35.319 16.5795 35.5063 16.1483 35.5063C15.7171 35.5063 15.7164 35.503 15.2846 35.503C14.8527 35.503 14.6075 35.0647 14.3006 35.3683C13.9969 35.6693 14.3249 35.9176 14.3249 36.3447C14.3249 36.7718 14.5891 36.7725 14.5891 37.2002C14.5891 37.628 14.2539 37.6287 14.2539 38.0571C14.2539 38.4855 14.5793 38.4862 14.5793 38.9146C14.5793 39.343 14.2736 39.343 14.2736 39.7707C14.2736 40.1985 14.5701 40.1985 14.5701 40.6269C14.5701 41.0553 14.2736 41.0553 14.2736 41.4831C14.2736 41.9108 14.3203 41.9122 14.3203 42.3406C14.3203 42.769 14.273 42.7696 14.273 43.1981C14.273 43.6265 14.5418 43.6265 14.5418 44.0549C14.5418 44.4833 14.5674 44.4833 14.5674 44.9124C14.5674 45.3415 14.4077 45.3415 14.4077 45.7705C14.4077 46.1996 14.2447 46.1989 14.2447 46.628C14.2447 47.0571 14.5694 47.0571 14.5694 47.4862C14.5694 47.9152 14.4498 47.9152 14.4498 48.3443C14.4498 48.7734 14.5793 48.7734 14.5793 49.2025C14.5793 49.6315 14.246 49.6309 14.246 50.0586C14.246 50.4864 14.6417 50.487 14.6417 50.9148C14.6417 51.3426 14.4426 51.3445 14.4426 51.7743C14.4426 52.204 14.2473 52.2033 14.2473 52.6318C14.2473 53.0602 14.2841 53.0615 14.2841 53.4906C14.2841 53.9196 14.2506 53.9203 14.2506 54.3507C14.2506 54.7811 14.3893 54.7797 14.3893 55.2095C14.3893 55.6392 14.5937 55.6399 14.5937 56.0702C14.5937 56.5006 14.7114 56.5407 14.6457 56.9665C14.5839 57.3693 14.2197 57.387 14.5234 57.6932L14.5241 57.6913Z" fill="#99C9FF"/>
<path d="M59.3315 62.143C59.6365 62.4479 59.6451 62.4426 60.0756 62.4426C60.5062 62.4426 60.5062 62.2639 60.9374 62.2639C61.3686 62.2639 61.3679 62.0516 61.7984 62.0516C62.229 62.0516 62.229 62.0661 62.6595 62.0661C63.0901 62.0661 63.0901 62.0996 63.5213 62.0996C63.9525 62.0996 63.9525 62.0976 64.383 62.0976C64.8136 62.0976 64.8142 62.0385 65.2454 62.0385C65.6766 62.0385 65.6766 62.3848 66.1078 62.3848C66.539 62.3848 66.539 62.0937 66.9696 62.0937C67.4001 62.0937 67.3995 62.2014 67.8293 62.2014C68.2592 62.2014 68.2592 62.4143 68.6885 62.4143C69.1177 62.4143 69.1177 62.1548 69.5476 62.1548C69.9775 62.1548 69.9768 62.0569 70.4067 62.0569C70.8366 62.0569 70.8359 62.2356 71.2658 62.2356C71.6957 62.2356 71.6957 62.3578 72.1256 62.3578C72.5555 62.3578 72.5561 62.095 72.986 62.095C73.4159 62.095 73.4172 62.3874 73.8478 62.3874C74.2783 62.3874 74.2796 62.2389 74.7115 62.2389C75.1433 62.2389 75.1427 62.3453 75.5739 62.3453C76.0051 62.3453 76.0044 62.3046 76.435 62.3046C76.8655 62.3046 76.8655 62.1601 77.2954 62.1601C77.7253 62.1601 77.7259 62.436 78.1565 62.436C78.587 62.436 78.587 62.2054 79.0182 62.2054C79.4494 62.2054 79.4494 62.0838 79.8813 62.0838C80.3131 62.0838 80.3131 62.2875 80.745 62.2875C81.1769 62.2875 81.1762 62.436 81.6074 62.436C82.0386 62.436 82.0386 62.1456 82.4691 62.1456C82.8997 62.1456 82.9003 62.3361 83.3315 62.3361C83.7627 62.3361 83.7634 62.2218 84.1953 62.2218C84.6271 62.2218 84.6271 62.1114 85.059 62.1114C85.4908 62.1114 85.4902 62.4768 85.922 62.4768C86.3539 62.4768 86.3539 62.3046 86.7858 62.3046C87.2176 62.3046 87.2183 62.3434 87.6501 62.3434C88.082 62.3434 88.082 62.4295 88.5139 62.4295C88.9457 62.4295 88.9464 62.2586 89.3782 62.2586C89.8101 62.2586 89.8101 62.0549 90.2419 62.0549C90.6738 62.0549 90.6738 62.229 91.1063 62.229C91.5388 62.229 91.5375 62.3762 91.9687 62.3762C92.3999 62.3762 92.3999 62.0523 92.8311 62.0523C93.2623 62.0523 93.2636 62.4525 93.6962 62.4525C94.1287 62.4525 94.128 62.21 94.5599 62.21C94.9917 62.21 94.9924 62.0661 95.4249 62.0661C95.8574 62.0661 95.8581 62.4892 96.2912 62.4892C96.7244 62.4892 96.7238 62.2231 97.1563 62.2231C97.5888 62.2231 97.5894 62.1975 98.0233 62.1975C98.4571 62.1975 98.4571 62.0385 98.8916 62.0385C99.3261 62.0385 99.5654 62.6824 99.8743 62.3775C100.179 62.0779 99.802 61.8335 99.802 61.4064C99.802 60.9793 99.8552 60.9786 99.8552 60.5509C99.8552 60.1231 99.7021 60.1225 99.7021 59.694C99.7021 59.2656 99.6009 59.265 99.6009 58.8365C99.6009 58.4081 99.8842 58.4081 99.8842 57.9804C99.8842 57.5526 99.9295 57.5526 99.9295 57.1242C99.9295 56.6958 99.7691 56.6958 99.7691 56.268C99.7691 55.8403 99.827 55.8389 99.827 55.4105C99.827 54.9821 99.7422 54.9815 99.7422 54.553C99.7422 54.1246 99.9124 54.1246 99.9124 53.6962C99.9124 53.2678 99.8802 53.2678 99.8802 52.8387C99.8802 52.4097 99.733 52.4097 99.733 51.9806C99.733 51.5515 99.6975 51.5522 99.6975 51.1231C99.6975 50.694 99.8112 50.694 99.8112 50.265C99.8112 49.8359 99.9788 49.8359 99.9788 49.4068C99.9788 48.9777 99.7481 48.9777 99.7481 48.5487C99.7481 48.1196 99.5726 48.1202 99.5726 47.6925C99.5726 47.2647 99.7888 47.2641 99.7888 46.8363C99.7888 46.4086 99.9499 46.4066 99.9499 45.9768C99.9499 45.5471 99.5851 45.5478 99.5851 45.1194C99.5851 44.6909 99.9473 44.6896 99.9473 44.2606C99.9473 43.8315 99.8362 43.8308 99.8362 43.4004C99.8362 42.9701 99.5246 42.9714 99.5246 42.5416C99.5246 42.1119 99.7461 42.1113 99.7461 41.6809C99.7461 41.2505 99.8592 41.2498 99.8592 40.8188C99.8592 40.3877 100.087 40.2392 99.7823 39.9343C99.4773 39.6295 99.3287 39.7228 98.8975 39.7228C98.4663 39.7228 98.467 40.0507 98.0358 40.0507C97.6046 40.0507 97.6052 39.7438 97.1747 39.7438C96.7441 39.7438 96.7441 39.9061 96.3136 39.9061C95.8831 39.9061 95.8831 40.0966 95.4519 40.0966C95.0207 40.0966 95.0207 40.1295 94.5901 40.1295C94.1596 40.1295 94.1589 40.0382 93.7277 40.0382C93.2965 40.0382 93.2965 39.9823 92.8653 39.9823C92.4341 39.9823 92.4341 39.7727 92.0036 39.7727C91.573 39.7727 91.5737 39.9606 91.1438 39.9606C90.7139 39.9606 90.7139 39.7267 90.2847 39.7267C89.8554 39.7267 89.8554 39.8936 89.4255 39.8936C88.9957 39.8936 88.9963 39.9922 88.5664 39.9922C88.1366 39.9922 88.1372 39.9547 87.7073 39.9547C87.2774 39.9547 87.2774 39.9744 86.8475 39.9744C86.4177 39.9744 86.417 39.8325 85.9871 39.8325C85.5572 39.8325 85.5559 39.8608 85.1254 39.8608C84.6948 39.8608 84.6935 40.0487 84.2617 40.0487C83.8298 40.0487 83.8305 39.9041 83.3993 39.9041C82.9681 39.9041 82.9687 39.9757 82.5382 39.9757C82.1076 39.9757 82.1076 39.9146 81.6777 39.9146C81.2478 39.9146 81.2472 40.1118 80.8166 40.1118C80.3861 40.1118 80.3861 40.1689 79.9549 40.1689C79.5237 40.1689 79.5237 39.7642 79.0918 39.7642C78.66 39.7642 78.66 39.8325 78.2281 39.8325C77.7963 39.8325 77.7969 39.7819 77.3657 39.7819C76.9345 39.7819 76.9345 40.0756 76.504 40.0756C76.0734 40.0756 76.0728 40.1249 75.6416 40.1249C75.2104 40.1249 75.2097 39.8075 74.7779 39.8075C74.346 39.8075 74.346 40.1006 73.9141 40.1006C73.4823 40.1006 73.4829 39.8029 73.0511 39.8029C72.6192 39.8029 72.6192 39.7951 72.1874 39.7951C71.7555 39.7951 71.7548 39.7563 71.323 39.7563C70.8911 39.7563 70.8911 40.1098 70.4593 40.1098C70.0274 40.1098 70.0268 40.1065 69.5949 40.1065C69.163 40.1065 69.163 39.8253 68.7312 39.8253C68.2993 39.8253 68.2993 39.7471 67.8668 39.7471C67.4343 39.7471 67.4356 39.7799 67.0044 39.7799C66.5732 39.7799 66.5732 40.1742 66.142 40.1742C65.7108 40.1742 65.7095 39.8476 65.277 39.8476C64.8445 39.8476 64.8451 40.0599 64.4133 40.0599C63.9814 40.0599 63.9807 40.0513 63.5482 40.0513C63.1157 40.0513 63.1151 39.732 62.6819 39.732C62.2487 39.732 62.2494 40.1827 61.8168 40.1827C61.3843 40.1827 61.3837 40.0073 60.9498 40.0073C60.516 40.0073 60.516 40.0112 60.0815 40.0112C59.647 40.0112 59.4985 39.6288 59.1889 39.933C58.8845 40.2327 59.2533 40.3851 59.2533 40.8129C59.2533 41.2406 59.342 41.2406 59.342 41.6684C59.342 42.0961 59.2224 42.0968 59.2224 42.5252C59.2224 42.9536 59.3289 42.9543 59.3289 43.3827C59.3289 43.8111 59.1823 43.8111 59.1823 44.2389C59.1823 44.6666 59.2323 44.6666 59.2323 45.095C59.2323 45.5235 59.2908 45.5235 59.2908 45.9512C59.2908 46.379 59.2559 46.3803 59.2559 46.8087C59.2559 47.2371 59.0686 47.2378 59.0686 47.6662C59.0686 48.0946 59.0186 48.0946 59.0186 48.523C59.0186 48.9514 59.4071 48.9514 59.4071 49.3805C59.4071 49.8096 59.0278 49.8096 59.0278 50.2387C59.0278 50.6677 59.2546 50.6671 59.2546 51.0962C59.2546 51.5252 59.0147 51.5252 59.0147 51.9543C59.0147 52.3834 59.3808 52.3834 59.3808 52.8124C59.3808 53.2415 59.2126 53.2415 59.2126 53.6706C59.2126 54.0997 59.3933 54.099 59.3933 54.5268C59.3933 54.9545 59.4196 54.9552 59.4196 55.3829C59.4196 55.8107 59.2211 55.8127 59.2211 56.2424C59.2211 56.6721 59.1961 56.6715 59.1961 57.0999C59.1961 57.5283 59.4117 57.5296 59.4117 57.9587C59.4117 58.3878 59.4196 58.3884 59.4196 58.8188C59.4196 59.2492 59.2914 59.2479 59.2914 59.6776C59.2914 60.1073 58.9799 60.108 58.9799 60.5384C58.9799 60.9688 59.5077 61.0075 59.4466 61.434C59.39 61.8295 59.0265 61.8401 59.3315 62.1449V62.143Z" fill="#99C9FF"/>
</g>
<path d="M53.9954 23.2984C53.9954 23.5908 54.2406 23.8648 54.261 24.1526C54.2814 24.4444 53.8574 24.7808 53.8981 25.0666C53.9396 25.3557 54 25.656 54.0612 25.9379C54.123 26.2231 54.6232 26.3946 54.7047 26.6719C54.7868 26.9511 54.6633 27.2895 54.7645 27.5602C54.8664 27.8329 54.8237 28.1713 54.9439 28.4342C55.0649 28.6983 55.523 28.7923 55.6617 29.0466C55.8004 29.3008 55.8681 29.5867 56.0246 29.8305C56.181 30.0742 56.2553 30.3719 56.4295 30.6038C56.6037 30.8358 56.7581 31.0861 56.9481 31.3049C57.1381 31.5237 57.2031 31.8733 57.4082 32.0783C57.6133 32.2833 57.8723 32.4522 58.0918 32.6421C58.3114 32.832 58.5888 32.9654 58.8215 33.1395C59.0542 33.3136 59.2454 33.564 59.49 33.721C59.7345 33.8781 60.1453 33.7591 60.4004 33.8984C60.6554 34.0377 60.7632 34.4773 61.0274 34.5989C61.2904 34.7191 61.6532 34.6238 61.926 34.7257C62.1968 34.8269 62.4203 35.095 62.7003 35.1771C62.9777 35.2586 63.2656 35.3617 63.5509 35.4235C63.8329 35.4846 64.176 35.2435 64.4646 35.2849C64.7498 35.3256 65.0154 35.6068 65.3072 35.6272C65.5945 35.6476 65.8968 35.6482 66.1894 35.6482C66.4819 35.6482 66.7658 35.3847 67.0537 35.3644C67.3456 35.344 67.6493 35.4662 67.9352 35.4255C68.2244 35.3841 68.5044 35.2855 68.7864 35.2244C69.0717 35.1626 69.3635 35.1232 69.6409 35.0417C69.9203 34.9596 70.1037 34.6114 70.3752 34.5108C70.6479 34.409 70.9543 34.4201 71.2178 34.2999C71.4821 34.179 71.6734 33.9379 71.9271 33.7992C72.1808 33.6606 72.4707 33.6014 72.7139 33.4444C72.9571 33.2873 73.3213 33.3025 73.5533 33.129C73.7853 32.9555 73.8603 32.5882 74.0792 32.3983C74.298 32.2084 74.6609 32.1756 74.866 31.9699C75.071 31.7642 75.3668 31.6302 75.5568 31.4107C75.7468 31.1913 75.612 30.7103 75.7862 30.4783C75.9604 30.2464 76.1839 30.0631 76.341 29.8186C76.4981 29.5742 76.7308 29.3823 76.8708 29.1274C77.0108 28.8724 77.2349 28.6595 77.3565 28.3954C77.4768 28.1326 77.6839 27.894 77.7858 27.622C77.887 27.3513 77.9764 27.0622 78.0586 26.7829C78.1401 26.5056 78.2393 26.2178 78.3011 25.9327C78.3622 25.6508 78.1342 25.3111 78.1756 25.0226C78.2163 24.7374 78.1532 24.4477 78.1736 24.1566C78.194 23.8694 78.1578 23.5915 78.1578 23.2991C78.1578 23.0067 78.5055 22.7071 78.4852 22.4193C78.4648 22.1275 78.3241 21.845 78.2834 21.5591C78.242 21.27 78.002 21.0236 77.9409 20.7411C77.8791 20.4559 78.0277 20.1228 77.9462 19.8455C77.864 19.5662 77.6872 19.3178 77.5866 19.0471C77.4847 18.7744 77.3901 18.5011 77.2698 18.2383C77.1488 17.9741 77.1133 17.664 76.974 17.4103C76.8346 17.1567 76.5014 17.0167 76.3449 16.7736C76.1885 16.5305 76.013 16.3084 75.8395 16.0765C75.6659 15.8445 75.5069 15.6106 75.3169 15.3918C75.1269 15.173 74.9462 14.9548 74.7411 14.7498C74.536 14.5448 74.2619 14.4285 74.0423 14.2386C73.8228 14.0487 73.7235 13.7222 73.4909 13.548C73.2582 13.3739 73.0689 13.1354 72.8243 12.9783C72.5798 12.8213 72.3728 12.5854 72.1177 12.4461C71.8627 12.3068 71.5603 12.2431 71.2954 12.1222C71.0325 12.0019 70.7091 12.0203 70.4363 11.9185C70.1655 11.8173 69.938 11.5748 69.6587 11.4927C69.3813 11.4112 69.0434 11.5623 68.7588 11.5006C68.4768 11.4395 68.2369 11.1273 67.9483 11.0866C67.6631 11.0459 67.3508 11.1904 67.0596 11.1694C66.7724 11.149 66.4838 11.0754 66.1913 11.0754C65.8988 11.0754 65.6135 11.1924 65.3256 11.2128C65.0338 11.2331 64.7413 11.2009 64.4553 11.2417C64.1661 11.2831 63.8835 11.3448 63.6008 11.406C63.3156 11.4677 63.0336 11.5308 62.7562 11.6123C62.4768 11.6944 62.1896 11.7522 61.9181 11.8534C61.6453 11.9553 61.4744 12.2832 61.2115 12.4034C60.9472 12.5243 60.5778 12.4225 60.3234 12.5611C60.0691 12.6997 59.8725 12.9383 59.6293 13.0953C59.3861 13.2523 59.1528 13.4199 58.9214 13.5934C58.69 13.7668 58.4994 13.9843 58.2805 14.1742C58.0616 14.3641 57.7454 14.4476 57.5404 14.6526C57.3353 14.8576 57.0618 15.0087 56.8719 15.2275C56.6819 15.4463 56.5524 15.7243 56.3782 15.9562C56.204 16.1882 56.02 16.4195 55.8629 16.6639C55.7058 16.9083 55.4981 17.1311 55.3587 17.386C55.2194 17.641 55.3193 18.0155 55.1983 18.2803C55.078 18.5431 54.89 18.7738 54.7882 19.0465C54.6869 19.3172 54.7783 19.6438 54.6961 19.9237C54.6146 20.201 54.2189 20.3961 54.1571 20.6813C54.096 20.9632 54.1427 21.2713 54.1013 21.5598C54.0605 21.845 54.2446 22.1505 54.2242 22.4423C54.2038 22.7294 53.9974 23.006 53.9974 23.2984H53.9954Z" fill="#FFCE47"/>
</svg>
