<svg width="104" height="104" viewBox="0 0 104 104" fill="none" xmlns="http://www.w3.org/2000/svg">
<g clip-path="url(#clip0_2973_8564)">
<path d="M98.4757 96.0261C98.4757 96.3087 98.5075 96.495 98.3417 96.7701C98.2049 96.9964 98.2916 97.4517 98.0472 97.6712C97.8475 97.8514 97.4623 97.8514 97.1936 98.0269C96.9635 98.1773 96.7265 98.3514 96.4476 98.4978C96.2006 98.6272 95.8567 98.5764 95.5731 98.7031C95.3159 98.8176 95.2353 99.3955 94.9483 99.5073C94.6843 99.6103 94.2166 99.195 93.9275 99.2952C93.6581 99.3887 93.5335 99.9497 93.2432 100.041C92.9704 100.127 92.6908 100.24 92.4004 100.324C92.1249 100.404 91.8142 100.404 91.5231 100.482C91.2449 100.556 90.9186 100.477 90.6262 100.549C90.346 100.618 90.0901 100.821 89.7977 100.889C89.5161 100.954 89.1262 100.555 88.8324 100.618C88.5494 100.68 88.28 100.815 87.9863 100.875C87.702 100.933 87.4217 101.025 87.1279 101.081C86.8423 101.136 86.5309 101.055 86.2364 101.109C85.9501 101.16 85.747 101.705 85.4532 101.755C85.1662 101.804 84.8217 101.531 84.5272 101.579C84.2395 101.625 83.9593 101.734 83.6648 101.78C83.3765 101.824 83.0671 101.742 82.7727 101.784C82.4836 101.826 82.1953 101.881 81.9001 101.922C81.6111 101.962 81.3268 102.053 81.0317 102.092C80.7426 102.13 80.4962 102.518 80.2018 102.554C79.9127 102.59 79.6257 102.682 79.3313 102.717C79.0415 102.751 78.7146 102.491 78.4201 102.524C78.1297 102.556 77.8576 102.78 77.5625 102.812C77.2714 102.843 76.9898 102.99 76.6947 103.02C76.4036 103.049 76.0963 102.951 75.8012 102.979C75.5094 103.007 75.1743 102.577 74.8785 102.603C74.5868 102.629 74.3025 102.756 74.0067 102.781C73.7142 102.806 73.453 103.226 73.1571 103.25C72.8647 103.274 72.5425 102.94 72.246 102.962C71.9529 102.984 71.674 103.211 71.3775 103.232C71.0844 103.253 70.7676 102.942 70.4712 102.962C70.1794 102.981 69.9147 103.448 69.6196 103.466C69.3272 103.484 69.0226 103.333 68.7274 103.35C68.4343 103.367 68.15 103.564 67.8542 103.579C67.5611 103.595 67.2504 103.292 66.9546 103.307C66.6608 103.321 66.365 103.303 66.0692 103.317C65.7754 103.331 65.4898 103.562 65.1933 103.574C64.8988 103.586 64.601 103.534 64.3045 103.545C64.0114 103.556 63.723 103.738 63.4272 103.748C63.1334 103.757 62.8356 103.689 62.5398 103.697C62.2453 103.706 61.957 103.981 61.6605 103.989C61.366 103.997 61.0682 103.98 60.7717 103.987C60.4752 103.994 60.1679 103.379 59.8714 103.384C59.5769 103.39 59.2859 103.617 58.9894 103.621C58.6929 103.625 58.3971 103.52 58.0999 103.523C57.8027 103.526 57.511 103.946 57.2132 103.949C56.9173 103.951 56.6202 103.991 56.3223 103.992C56.0245 103.993 55.726 103.913 55.4268 103.913C55.1303 103.913 54.8338 103.805 54.538 103.804C54.2422 103.804 53.9471 103.451 53.6519 103.449C53.3548 103.447 53.0542 104.003 52.7591 104C52.4619 103.997 52.1729 103.468 51.8777 103.463C51.5806 103.459 51.2868 103.394 50.9917 103.388C50.6945 103.383 50.3899 103.836 50.0948 103.829C49.7976 103.822 49.4984 103.926 49.2033 103.918C48.9061 103.911 48.6103 103.873 48.3158 103.864C48.0187 103.855 47.7195 103.928 47.425 103.918C47.1278 103.908 46.8496 103.404 46.5545 103.393C46.258 103.382 45.9649 103.313 45.6705 103.301C45.374 103.289 45.0714 103.445 44.7769 103.432C44.4804 103.418 44.1691 103.732 43.8746 103.718C43.5781 103.703 43.2999 103.341 43.0055 103.325C42.709 103.31 42.4037 103.466 42.1099 103.449C41.8134 103.432 41.5291 103.23 41.2353 103.212C40.9388 103.194 40.6302 103.385 40.3364 103.366C40.0399 103.346 39.74 103.385 39.4469 103.364C39.1504 103.343 38.8485 103.404 38.5554 103.383C38.2589 103.36 37.9679 103.28 37.6748 103.256C37.3783 103.232 37.1163 102.821 36.8232 102.796C36.5274 102.771 36.2181 102.924 35.9256 102.898C35.6298 102.871 35.355 102.64 35.0632 102.612C34.7674 102.584 34.4297 103.003 34.1379 102.974C33.8421 102.944 33.5368 103.012 33.2457 102.982C32.9499 102.951 32.6988 102.53 32.4077 102.497C32.1126 102.464 31.833 102.316 31.5426 102.282C31.2475 102.247 30.9632 102.154 30.6728 102.118C30.3777 102.081 30.0988 101.953 29.8097 101.915C29.5153 101.877 29.2025 102.001 28.9135 101.961C28.619 101.921 28.3036 102.051 28.0152 102.009C27.7208 101.967 27.4148 102.02 27.1271 101.976C26.8333 101.931 26.5281 101.968 26.241 101.921C25.9473 101.874 25.7225 101.431 25.4355 101.382C25.1417 101.332 24.7925 101.617 24.5068 101.566C24.213 101.512 23.9294 101.419 23.6444 101.364C23.3506 101.307 23.0514 101.295 22.7671 101.237C22.474 101.177 22.2804 100.669 21.9975 100.608C21.7044 100.544 21.3686 100.71 21.0864 100.645C20.7939 100.577 20.5096 100.506 20.2294 100.436C19.9376 100.364 19.6337 100.369 19.3555 100.295C19.0644 100.217 18.7334 100.305 18.4579 100.225C18.1675 100.141 17.9448 99.8555 17.672 99.7695C17.3816 99.678 17.1102 99.5649 16.8408 99.4707C16.5517 99.3698 16.3283 99.1387 16.0637 99.0357C15.778 98.9239 15.4463 98.9687 15.1898 98.8542C14.9068 98.7281 14.718 98.4592 14.4723 98.3298C14.1954 98.1841 13.7588 98.3501 13.53 98.2003C13.2626 98.0255 13.2396 97.575 13.0406 97.3948C12.7983 97.1752 12.5431 97.0506 12.407 96.825C12.2432 96.5519 11.837 96.3066 11.837 96.0261C11.837 95.7436 11.9291 95.3059 12.0956 95.0309C12.2324 94.8046 12.8653 94.9394 13.109 94.7192C13.3086 94.539 13.4054 94.2253 13.6749 94.0498C13.905 93.8994 14.1825 93.8093 14.4614 93.6629C14.7085 93.5335 14.9265 93.3214 15.2108 93.1948C15.468 93.0802 15.8159 93.1683 16.1029 93.0565C16.3669 92.9536 16.4664 92.3702 16.7555 92.2699C17.0249 92.1764 17.4046 92.377 17.695 92.2855C17.9678 92.1995 18.3151 92.3472 18.6062 92.2631C18.8817 92.1832 19.1666 92.1324 19.4584 92.0545C19.7366 91.9799 19.9546 91.6574 20.2463 91.5849C20.5266 91.5158 20.7303 91.0931 21.0234 91.0253C21.305 90.9603 21.7017 91.3783 21.9948 91.3153C22.2777 91.2536 22.5167 90.9589 22.8098 90.8993C23.0941 90.8417 23.3858 90.7943 23.6796 90.738C23.9653 90.6832 24.3132 90.9487 24.607 90.8959C24.8933 90.8444 25.1417 90.5626 25.4355 90.5117C25.7225 90.463 26.0549 90.675 26.3494 90.6276C26.637 90.5808 26.8381 89.9643 27.1332 89.9189C27.4216 89.8749 27.7167 89.843 28.0118 89.8003C28.3009 89.7583 28.5933 89.7075 28.8884 89.6669C29.1775 89.6269 29.4747 89.6079 29.7698 89.5693C30.0588 89.5314 30.3885 89.7902 30.6823 89.7536C30.9713 89.7177 31.2549 89.612 31.5494 89.5774C31.8391 89.5436 32.1126 89.3362 32.407 89.303C32.6974 89.2705 33.0325 89.631 33.3276 89.5991C33.6187 89.5679 33.8732 89.1709 34.169 89.1411C34.4601 89.112 34.7613 89.156 35.0571 89.1282C35.3489 89.1004 35.6332 88.9643 35.929 88.9378C36.2208 88.9114 36.5206 88.9446 36.8164 88.9195C37.1089 88.8945 37.4101 88.9527 37.7059 88.929C37.9983 88.9053 38.3199 89.2387 38.6164 89.2163C38.9095 89.1939 39.1674 88.6743 39.4638 88.6533C39.7569 88.6323 40.0751 88.9561 40.3716 88.9365C40.6633 88.9175 40.9355 88.5557 41.2306 88.5374C41.523 88.5191 41.8385 88.8613 42.1336 88.8443C42.4267 88.8274 42.6941 88.3199 42.9899 88.3043C43.283 88.2888 43.6086 88.8789 43.9044 88.864C44.1982 88.8498 44.4784 88.5388 44.7742 88.5259C45.068 88.5124 45.3557 88.3098 45.6522 88.2976C45.9466 88.2854 46.2499 88.4642 46.5464 88.4534C46.8395 88.4426 47.1319 88.3741 47.4277 88.364C47.7215 88.3545 48.0132 88.2319 48.3091 88.223C48.6035 88.2142 48.8959 88.074 49.1924 88.0665C49.4869 88.0591 49.784 88.0503 50.0805 88.0435C50.377 88.0367 50.6843 88.6397 50.9808 88.6343C51.2753 88.6289 51.5623 88.1058 51.8581 88.1018C52.1539 88.0977 52.449 87.9913 52.7462 87.9879C53.0434 87.9846 53.3426 88.326 53.6404 88.324C53.9362 88.322 54.232 88.0062 54.5292 88.0049C54.8264 88.0035 55.1256 88.0049 55.4248 88.0049C55.7212 88.0049 56.0164 88.6296 56.3122 88.6309C56.608 88.6323 56.9045 88.5598 57.1996 88.5618C57.4968 88.5638 57.7967 88.0875 58.0918 88.0909C58.389 88.0943 58.6841 88.2149 58.9792 88.219C59.2764 88.223 59.5681 88.4629 59.8633 88.4683C60.1604 88.4737 60.4562 88.4697 60.7507 88.4758C61.0479 88.4825 61.3477 88.3172 61.6422 88.3247C61.9394 88.3321 62.2291 88.5455 62.5242 88.5544C62.8214 88.5632 63.1246 88.3206 63.4198 88.3301C63.7169 88.3403 64.0141 88.3247 64.3085 88.3355C64.605 88.3464 64.9042 88.2955 65.1987 88.3077C65.4952 88.3199 65.791 88.3579 66.0854 88.3707C66.3819 88.3843 66.6716 88.5401 66.9661 88.5544C67.2626 88.5693 67.5476 88.7854 67.842 88.801C68.1385 88.8166 68.4452 88.6221 68.7396 88.639C69.0361 88.656 69.3251 88.7752 69.6189 88.7935C69.9154 88.8118 70.2024 88.9494 70.4962 88.969C70.7927 88.9886 71.0966 88.8728 71.3897 88.8938C71.6862 88.9148 72.0003 88.6743 72.2934 88.6966C72.5899 88.719 72.8478 89.2129 73.1409 89.2366C73.4374 89.2603 73.7291 89.2962 74.0222 89.3206C74.318 89.3457 74.6551 88.8836 74.9476 88.9101C75.2434 88.9365 75.5439 88.9121 75.8357 88.9399C76.1315 88.9683 76.3664 89.5971 76.6581 89.6262C76.9539 89.656 77.2741 89.4162 77.5652 89.4473C77.861 89.4785 78.1893 89.1906 78.4804 89.2231C78.7755 89.2563 79.0551 89.4196 79.3455 89.4534C79.6406 89.488 79.908 89.736 80.1977 89.7719C80.4928 89.8085 80.8333 89.4744 81.1224 89.5124C81.4168 89.551 81.6923 89.7238 81.9814 89.7637C82.2758 89.8044 82.5134 90.2238 82.8018 90.2658C83.0962 90.3085 83.3711 90.4447 83.6588 90.4894C83.9525 90.5348 84.2978 90.2285 84.5848 90.2753C84.8786 90.3227 85.1412 90.5361 85.4282 90.5856C85.722 90.6357 86.0408 90.5212 86.3271 90.5727C86.6209 90.6262 86.9221 90.6215 87.2071 90.6764C87.5009 90.7326 87.752 90.9813 88.0363 91.0395C88.3294 91.0992 88.6896 90.8248 88.9725 90.8857C89.2656 90.9494 89.5682 90.9637 89.8498 91.0287C90.1422 91.0964 90.3358 91.5592 90.6161 91.629C90.9078 91.7015 91.1589 91.8953 91.4365 91.9698C91.7275 92.0477 92.003 92.1358 92.2786 92.2157C92.5689 92.2997 92.9277 92.1202 93.2005 92.2069C93.4909 92.2984 93.6703 92.6839 93.9397 92.7781C94.2287 92.879 94.5042 92.9549 94.7689 93.0586C95.0546 93.1704 95.3314 93.2435 95.588 93.358C95.8709 93.4841 96.2351 93.3939 96.4815 93.5234C96.7584 93.669 96.868 94.043 97.0968 94.1928C97.3642 94.3676 97.7081 94.3696 97.9071 94.5491C98.1494 94.7687 98.1758 95.081 98.3119 95.3066C98.4757 95.5797 98.473 95.747 98.473 96.0275L98.4757 96.0261Z" fill="#E5DFD8"/>
<g clip-path="url(#clip1_2973_8564)">
<path d="M71.8444 21.197C71.7366 20.9943 71.4725 20.8324 71.322 20.5679C71.1989 20.3525 71.2952 19.9783 71.1389 19.7374C70.9992 19.5232 70.8334 19.2995 70.6637 19.0751C70.5074 18.8686 70.1005 18.8578 69.9161 18.6512C69.742 18.4562 69.6393 18.1968 69.4383 18.0081C69.247 17.8283 69.1494 17.5275 68.9312 17.3598C68.7227 17.1992 68.5364 16.9736 68.3023 16.8289C68.0784 16.6906 67.7327 16.7492 67.4846 16.63C67.2403 16.5115 67.0802 16.1685 66.8205 16.0736C66.5654 15.9805 66.1891 16.2565 65.9231 16.1845C65.6609 16.1131 65.4051 16.0589 65.1347 16.0066C64.8668 15.955 64.6301 15.7351 64.3577 15.7C64.0854 15.665 63.8188 15.5585 63.5457 15.5394C63.2727 15.5203 62.9959 15.3756 62.7229 15.3705C62.4467 15.3654 62.1731 15.7555 61.9013 15.7638C61.6239 15.7721 61.3375 15.5197 61.0676 15.5394C60.7895 15.5598 60.5095 15.5643 60.2429 15.5955C59.9635 15.6287 59.7077 15.7944 59.4449 15.8377C59.1649 15.8836 58.9065 15.9862 58.6495 16.0417C58.3676 16.1022 58.0384 15.9276 57.7903 15.9958C57.6034 16.0487 57.3508 16.136 57.0229 16.2151C56.792 16.2705 56.5873 16.6122 56.2926 16.6593C56.047 16.6989 55.7427 16.3891 55.4557 16.412C55.2018 16.4324 54.9505 16.6338 54.6667 16.6338C54.3828 16.6338 54.1117 16.6938 53.8585 16.6734C53.5708 16.6504 53.3335 16.412 53.0873 16.3719C52.792 16.3241 52.5011 16.4337 52.2696 16.3776C51.9423 16.2986 51.7369 16.0219 51.5507 15.969C51.3032 15.9008 51.0098 15.9046 50.7285 15.8447C50.4721 15.7899 50.201 15.7077 49.9216 15.6618C49.6588 15.6185 49.3756 15.6153 49.0968 15.5828C48.8302 15.5509 48.5482 15.5592 48.2701 15.5381C48.0003 15.5184 47.7177 15.6338 47.4409 15.6261C47.1692 15.6178 46.8936 15.461 46.6174 15.4661C46.3444 15.4712 46.0599 15.424 45.7857 15.4432C45.5114 15.4623 45.2728 15.8384 45.0011 15.8728C44.7293 15.9072 44.4461 15.8345 44.1782 15.8868C43.9071 15.9391 43.6545 16.0411 43.3917 16.1124C43.1251 16.1845 42.8693 16.2578 42.6142 16.3515C42.3546 16.4464 42.1568 16.6453 41.9125 16.7639C41.6638 16.8837 41.4348 16.9851 41.2109 17.1234C40.9768 17.2681 40.6859 17.3006 40.478 17.4612C40.2598 17.6288 39.9613 17.6977 39.7699 17.8774C39.569 18.0661 39.4536 18.3357 39.2801 18.5314C39.0951 18.7392 39.0185 19.019 38.8616 19.2262C38.6926 19.4505 38.588 19.6934 38.4483 19.9082C38.2914 20.1498 38.07 20.3231 37.9476 20.5386C37.7983 20.8012 37.406 20.8962 37.2989 21.0976C37.1681 21.3449 37.1081 21.64 36.9933 21.895C36.8785 22.15 36.8051 22.4304 36.7063 22.6924C36.6074 22.9544 36.5959 23.2495 36.5124 23.5166C36.4288 23.7836 36.5615 24.1055 36.4932 24.3777C36.425 24.6499 36.2974 24.8978 36.2432 25.1725C36.1896 25.446 35.9427 25.6869 35.9026 25.9642C35.863 26.2402 36.0958 26.5474 36.069 26.8266C36.0423 27.1058 35.7571 27.3614 35.7431 27.6412C35.7291 27.921 35.6289 28.2021 35.6264 28.4819C35.6238 28.7618 35.8133 29.0416 35.8228 29.3214C35.8324 29.6012 35.7916 29.8836 35.8113 30.1621C35.8311 30.4407 35.8981 30.7167 35.9294 30.9946C35.9606 31.2725 35.8171 31.5766 35.8579 31.8532C35.8987 32.1298 35.9861 32.4052 36.0372 32.6799C36.0882 32.9546 36.3318 33.193 36.3918 33.4658C36.4518 33.7386 36.2789 34.0714 36.3484 34.3416C36.4186 34.6132 36.7535 34.8133 36.8326 35.0804C36.9123 35.35 36.853 35.6617 36.941 35.9262C37.0297 36.1926 37.0469 36.4884 37.1439 36.7491C37.2421 37.013 37.3288 37.2858 37.4347 37.5427C37.5425 37.8027 37.7747 38.0118 37.8902 38.2636C38.0075 38.5205 38.3475 38.6645 38.4725 38.9118C38.6001 39.1642 38.4547 39.5569 38.5893 39.7985C38.727 40.0458 39.0141 40.2038 39.1595 40.4397C39.3081 40.6813 39.3069 41.0184 39.4625 41.246C39.6226 41.4806 39.8465 41.6711 40.0136 41.8898C40.1858 42.1161 40.5182 42.2047 40.6968 42.4125C40.8824 42.6285 41.0176 42.8758 41.2096 43.0709C41.4105 43.2755 41.4641 43.6318 41.6701 43.8116C41.8857 43.9996 42.2251 44.0315 42.4458 44.1908C42.6786 44.3585 42.8999 44.5267 43.1372 44.6606C43.3866 44.8015 43.6947 44.7766 43.948 44.8773C44.2127 44.9825 44.3779 45.4044 44.6445 45.4624C44.9162 45.5224 45.2371 45.2852 45.491 45.326C45.7697 45.3707 46.0268 45.444 46.2787 45.4688C46.5664 45.4975 46.8254 45.6715 47.071 45.6811C47.3759 45.6925 47.6444 45.4293 47.8708 45.4229C48.3754 45.4089 48.2542 45.4344 48.6497 45.3764C48.871 45.3439 49.1836 45.4236 49.5242 45.3611C49.7851 45.3133 50.0868 45.326 50.3898 45.268C50.6647 45.2151 50.9804 45.3063 51.2713 45.2502C51.5564 45.1954 51.8224 45.0245 52.1056 44.971C52.3997 44.9155 52.6874 44.8601 52.9604 44.8116C53.271 44.7562 53.5593 44.702 53.8157 44.6631C54.1908 44.6064 54.4823 44.3011 54.666 44.2998C54.8504 44.3011 55.1712 44.4203 55.5469 44.477C55.8027 44.5159 56.0432 44.8633 56.3532 44.9187C56.6255 44.9672 56.9126 45.0124 57.206 45.0679C57.4886 45.1214 57.7699 45.2049 58.0544 45.2597C58.3459 45.3158 58.7012 45.0252 58.9767 45.0781C59.281 45.1367 59.524 45.4376 59.7862 45.486C60.1261 45.5485 60.4578 45.37 60.6785 45.4019C61.074 45.4599 60.9464 45.7678 61.451 45.7824C61.6774 45.7888 61.9441 45.4083 62.2483 45.3968C62.4939 45.3872 62.7503 45.3585 63.038 45.3305C63.29 45.3056 63.5764 45.4746 63.8551 45.4306C64.109 45.3898 64.3456 45.2126 64.618 45.152C64.8859 45.0934 65.2412 45.2878 65.5065 45.182C65.7598 45.0813 65.8478 44.6249 66.0978 44.484C66.3351 44.3502 66.7293 44.4585 66.9621 44.2909C67.1835 44.1315 67.3359 43.8683 67.5515 43.6796C67.7569 43.5005 68.0229 43.3724 68.2226 43.1691C68.4139 42.974 68.597 42.7567 68.782 42.5412C68.9606 42.3334 69.0697 42.0612 69.2419 41.835C69.4084 41.6163 69.4747 41.325 69.6348 41.0911C69.7904 40.8636 69.9569 40.6462 70.1056 40.4053C70.2503 40.1707 70.4628 39.975 70.6005 39.7277C70.7351 39.4861 71.0808 39.3491 71.2078 39.0973C71.3328 38.85 71.2218 38.4835 71.3392 38.2272C71.4546 37.9748 71.7902 37.8136 71.898 37.5535C72.0045 37.2973 71.7793 36.9078 71.8775 36.6446C71.9745 36.3839 72.2545 36.1888 72.3432 35.9224C72.4312 35.6585 72.4625 35.3749 72.5416 35.1052C72.6207 34.8382 72.71 34.573 72.7808 34.3015C72.8503 34.0312 72.8114 33.7361 72.872 33.4626C72.9326 33.1892 73.2764 32.9731 73.3274 32.6977C73.3784 32.4224 73.3395 32.1279 73.381 31.8506C73.4225 31.5734 73.4416 31.291 73.4722 31.0131C73.5028 30.7352 73.3229 30.4381 73.3434 30.1596C73.3638 29.8811 73.5169 29.6102 73.5264 29.331C73.536 29.0518 73.5883 28.7701 73.5857 28.4909C73.5832 28.2117 73.7344 27.9204 73.7203 27.6412C73.7063 27.362 73.5794 27.0822 73.5526 26.8049C73.5258 26.5257 73.469 26.2459 73.4288 25.9699C73.3886 25.692 73.0825 25.4626 73.0289 25.1885C72.9753 24.9131 73.2521 24.5651 73.1839 24.2942C73.1156 24.0233 72.96 23.7677 72.8771 23.5013C72.7942 23.2348 72.7604 22.9416 72.6615 22.6803C72.5626 22.4189 72.1187 22.301 72.0038 22.0461C71.889 21.7911 71.9732 21.4456 71.8418 21.1983L71.8444 21.197Z" fill="#FF5C5C"/>
<path d="M67.431 22.941C67.5822 23.203 67.7365 23.4535 67.8584 23.7135C67.9885 23.9908 67.9827 24.3044 68.0784 24.5721C68.183 24.864 68.583 25.0572 68.6461 25.3287C68.7176 25.6385 68.5409 25.975 68.5568 26.2459C68.576 26.578 68.7571 26.9152 68.6895 27.1651C68.6021 27.4895 68.2149 27.5749 67.9764 27.7126C67.7378 27.8503 67.5031 28.0154 67.1771 27.928C66.9271 27.8611 66.6075 27.7916 66.3307 27.61C66.1042 27.4615 66.0685 27.0408 65.8363 26.8247C65.6316 26.6341 65.2418 26.6073 65.0409 26.3709C64.8572 26.1541 64.6518 25.9291 64.4764 25.678C64.3118 25.4422 64.324 25.0846 64.1721 24.822C64.0203 24.5594 63.628 24.4281 63.5062 24.168C63.3761 23.8907 63.2466 23.6052 63.1503 23.3375C63.0457 23.0455 63.2058 22.6835 63.1433 22.4113C63.0718 22.1015 62.8779 21.8287 62.862 21.5578C62.8428 21.2257 62.7452 20.8701 62.8128 20.6196C62.9002 20.2951 63.341 20.2403 63.5796 20.1026C63.8181 19.9649 63.9744 20.0312 64.3004 20.1192C64.5504 20.1861 64.9363 20.0064 65.2131 20.1887C65.4396 20.3372 65.7017 20.515 65.9339 20.7311C66.1387 20.9217 66.2905 21.2009 66.4914 21.4373C66.6751 21.6541 66.7096 21.9963 66.885 22.2475C67.0496 22.4833 67.2805 22.679 67.4323 22.9416L67.431 22.941Z" fill="#FFD6E9"/>
<path d="M53.4407 8.72108C53.6525 8.91485 53.9625 9.02129 54.1538 9.22845C54.3484 9.4388 54.5302 9.67846 54.703 9.90155C54.8785 10.1278 54.9378 10.4453 55.0902 10.683C55.2452 10.9233 55.161 11.2924 55.2931 11.5429C55.4264 11.7953 55.7134 11.9616 55.8238 12.223C55.9348 12.4856 56.2327 12.6851 56.3194 12.9547C56.4061 13.2244 56.3545 13.545 56.4183 13.8216C56.4821 14.0982 56.4846 14.3889 56.5242 14.67C56.5637 14.9511 56.6702 15.2296 56.6862 15.5126C56.7021 15.7956 56.5624 16.0825 56.5541 16.3661C56.5458 16.6466 56.7665 17.0048 56.6638 17.254C56.5586 17.509 56.2352 17.6894 56.0509 17.8908C55.8665 18.0922 55.6688 18.3402 55.4238 18.4677C55.1846 18.5926 54.881 18.7111 54.6023 18.7443C54.3197 18.7781 54.018 18.6404 53.7341 18.65C53.4503 18.6595 53.1613 18.764 52.8768 18.7487C52.5924 18.7335 52.3276 18.5231 52.0457 18.4842C51.7638 18.4453 51.4939 18.3905 51.2158 18.3274C50.9377 18.2643 50.6711 18.1974 50.3994 18.1101C50.1296 18.0234 49.9006 17.8557 49.6371 17.7455C49.3762 17.6358 49.0758 17.6276 48.8232 17.495C48.5732 17.3637 48.1943 17.437 47.9532 17.2821C47.7152 17.1297 47.631 16.7447 47.4033 16.5701C47.1801 16.398 46.7922 16.4082 46.5805 16.2144C46.3687 16.0207 46.1786 15.7867 45.9873 15.5796C45.7927 15.3692 45.7072 15.0588 45.5337 14.8357C45.3583 14.6094 45.1038 14.4329 44.9507 14.1958C44.7957 13.9555 44.6184 13.7152 44.4864 13.4653C44.353 13.2129 44.2076 12.9503 44.0979 12.6896C43.9869 12.427 43.9225 12.1325 43.8351 11.8629C43.7477 11.5932 43.7624 11.2847 43.6986 11.0087C43.6348 10.7327 43.5583 10.4516 43.5181 10.1705C43.4779 9.88944 43.6476 9.58922 43.6323 9.30622C43.6169 9.02321 43.4964 8.74594 43.5047 8.46165C43.5136 8.18119 43.7503 7.9887 43.853 7.73947C43.9582 7.48451 43.9588 7.20915 44.1438 7.00773C44.3288 6.80631 44.5431 6.66672 44.7881 6.53987C45.0273 6.41558 45.2333 6.07074 45.5114 6.0376C45.794 6.00381 46.1078 6.3767 46.3917 6.36714C46.6755 6.35758 46.9645 5.98597 47.2483 5.99999C47.5322 6.01401 47.8269 6.06501 48.1088 6.10452C48.3907 6.14404 48.6759 6.22499 48.954 6.2881C49.2321 6.3512 49.4528 6.6221 49.7245 6.70879C49.9943 6.79484 50.2176 6.97905 50.481 7.08932C50.7419 7.19831 51.0494 7.19194 51.3019 7.32452C51.552 7.45583 51.7121 7.72545 51.9532 7.8797C52.1911 8.03204 52.5592 7.99252 52.7863 8.16717C53.0095 8.33927 53.2289 8.52731 53.4407 8.72108Z" fill="#5ECC70"/>
<path d="M87.701 76.4754C87.701 76.8898 87.9402 76.8898 87.9402 77.3034C87.9402 77.7171 87.7355 77.7171 87.7355 78.1302C87.7355 78.5432 87.6583 78.5432 87.6583 78.9562C87.6583 79.3693 87.5996 79.3693 87.5996 79.7829C87.5996 80.1966 87.9428 80.1973 87.9428 80.6109C87.9428 81.0246 87.8388 81.0246 87.8388 81.4389C87.8388 81.8532 87.7419 81.8526 87.7419 82.2663C87.7419 82.68 87.7616 82.68 87.7616 83.0943C87.7616 83.5086 87.7215 83.5086 87.7215 83.9229C87.7215 84.3372 87.6889 84.3366 87.6889 84.7509C87.6889 85.1652 87.9983 85.1652 87.9983 85.5795C87.9983 85.9938 87.6085 85.9938 87.6085 86.4075C87.6085 86.8212 87.5901 86.8218 87.5901 87.2361C87.5901 87.6504 87.6864 87.6498 87.6864 88.0628C87.6864 88.4759 87.8643 88.4765 87.8643 88.8896C87.8643 89.3026 87.9626 89.3045 87.9626 89.7188C87.9626 90.1331 87.5888 90.1331 87.5888 90.5468C87.5888 90.9605 87.7253 90.9611 87.7253 91.3761C87.7253 91.791 87.879 91.791 87.879 92.206C87.879 92.6209 87.9001 92.6203 87.9001 93.0353C87.9001 93.4502 87.5945 93.4508 87.5945 93.8664C87.5945 94.282 87.8854 94.2827 87.8854 94.6989C87.8854 95.1151 87.7859 95.1151 87.7859 95.5313C87.7859 95.8354 87.7553 96.1273 87.6455 96.3918C87.532 96.6659 87.509 97.0592 87.3024 97.2657C87.0957 97.4722 86.7085 97.5111 86.4349 97.6246C86.1702 97.7342 85.8716 97.8706 85.5674 97.8706C85.1509 97.8706 85.1509 97.6048 84.7337 97.6048C84.3165 97.6048 84.3165 97.7495 83.9 97.7495C83.4835 97.7495 83.4828 97.7074 83.0657 97.7074C82.6485 97.7074 82.6479 97.7763 82.2307 97.7763C81.8135 97.7763 81.8135 97.6985 81.3957 97.6985C80.9779 97.6985 80.9786 97.9006 80.5614 97.9006C80.1442 97.9006 80.1442 97.7973 79.7277 97.7973C79.3112 97.7973 79.3112 97.5506 78.894 97.5506C78.4769 97.5506 78.4775 97.7846 78.0603 97.7846C77.6432 97.7846 77.6438 97.9446 77.2273 97.9446C76.8108 97.9446 76.8108 97.9203 76.3942 97.9203C75.9777 97.9203 75.9777 98.0013 75.5612 98.0013C75.1447 98.0013 75.1447 97.8011 74.7275 97.8011C74.3103 97.8011 74.3103 97.8744 73.8938 97.8744C73.4773 97.8744 73.4766 97.9911 73.0595 97.9911C72.6423 97.9911 72.6423 97.7591 72.2251 97.7591C71.808 97.7591 71.8073 97.8534 71.3902 97.8534C70.973 97.8534 70.9724 97.97 70.5552 97.97C70.138 97.97 70.1381 97.9159 69.7209 97.9159C69.3037 97.9159 69.3037 97.8279 68.8866 97.8279C68.4694 97.8279 68.4694 97.9178 68.0529 97.9178C67.6363 97.9178 67.6357 97.8993 67.2192 97.8993C66.8027 97.8993 66.802 97.8101 66.3855 97.8101C65.969 97.8101 65.9683 97.7865 65.5512 97.7865C65.134 97.7865 65.134 97.7221 64.7168 97.7221C64.2997 97.7221 64.2997 97.7559 63.8819 97.7559C63.4641 97.7559 63.4641 97.6361 63.0463 97.6361C62.6285 97.6361 62.6285 97.856 62.2113 97.856C61.7941 97.856 61.7941 97.8904 61.3763 97.8904C60.9585 97.8904 60.9592 97.9643 60.542 97.9643C60.1248 97.9643 60.1248 97.9618 59.7077 97.9618C59.2905 97.9618 59.2905 97.9312 58.8733 97.9312C58.4562 97.9312 58.4562 97.7393 58.0384 97.7393C57.6206 97.7393 57.6206 97.9395 57.2028 97.9395C56.785 97.9395 56.785 97.7584 56.3672 97.7584C55.9494 97.7584 55.9494 97.6864 55.5322 97.6864C55.115 97.6864 55.1157 97.6947 54.6992 97.6947C54.2826 97.6947 54.2833 97.7693 53.8667 97.7693C53.4502 97.7693 53.4508 97.8158 53.035 97.8158C52.6191 97.8158 52.6191 97.5666 52.2032 97.5666C51.7873 97.5666 51.7873 97.58 51.3708 97.58C50.9542 97.58 50.9542 97.7686 50.5377 97.7686C50.1212 97.7686 50.1206 97.9101 49.704 97.9101C49.2875 97.9101 49.2862 97.9152 48.8691 97.9152C48.4519 97.9152 48.4506 97.847 48.0322 97.847C47.6137 97.847 47.6144 97.8712 47.1972 97.8712C46.7801 97.8712 46.7801 97.6603 46.3629 97.6603C45.9457 97.6603 45.9457 97.8521 45.5292 97.8521C45.1127 97.8521 45.112 97.7202 44.6955 97.7202C44.279 97.7202 44.2783 97.6647 43.8612 97.6647C43.444 97.6647 43.4434 97.9293 43.0256 97.9293C42.6078 97.9293 42.6071 97.601 42.1887 97.601C41.7703 97.601 41.7709 97.8139 41.3531 97.8139C40.9353 97.8139 40.9353 97.6819 40.5181 97.6819C40.101 97.6819 40.1003 97.58 39.6825 97.58C39.2647 97.58 39.2641 97.6182 38.8456 97.6182C38.4272 97.6182 38.4272 97.979 38.0088 97.979C37.5903 97.979 37.591 97.6941 37.1732 97.6941C36.7554 97.6941 36.7547 97.5678 36.3369 97.5678C35.9191 97.5678 35.9185 97.7482 35.4994 97.7482C35.0803 97.7482 35.081 97.9101 34.6632 97.9101C34.2454 97.9101 34.2447 97.6488 33.8256 97.6488C33.4066 97.6488 33.4072 97.9994 32.9888 97.9994C32.5703 97.9994 32.5703 97.5736 32.1512 97.5736C31.7322 97.5736 31.7334 97.7323 31.3156 97.7323C30.8978 97.7323 30.8978 97.9503 30.48 97.9503C30.0622 97.9503 30.061 97.8655 29.6419 97.8655C29.2228 97.8655 29.2234 97.9681 28.805 97.9681C28.3866 97.9681 28.3859 97.8145 27.9668 97.8145C27.5478 97.8145 27.5471 97.819 27.1281 97.819C26.709 97.819 26.709 97.747 26.2905 97.747C25.8721 97.747 25.8708 97.6775 25.4511 97.6775C25.0314 97.6775 25.0308 97.7839 24.6098 97.7839C24.1888 97.7839 24.1894 97.6067 23.7684 97.6067C23.4642 97.6067 23.1797 97.7011 22.915 97.5914C22.6407 97.478 22.3804 97.3326 22.1738 97.1261C21.9671 96.9196 21.9033 96.6258 21.7891 96.3517C21.6794 96.0871 21.4517 95.8367 21.4517 95.5326C21.4517 95.1183 21.3656 95.1183 21.3656 94.7046C21.3656 94.2909 21.5053 94.2909 21.5053 93.8779C21.5053 93.4649 21.3598 93.4649 21.3598 93.0518C21.3598 92.6388 21.5984 92.6388 21.5984 92.2251C21.5984 91.8114 21.43 91.8108 21.43 91.3971C21.43 90.9834 21.7515 90.9834 21.7515 90.5691C21.7515 90.1548 21.6545 90.1555 21.6545 89.7418C21.6545 89.3281 21.3318 89.3281 21.3318 88.9138C21.3318 88.4995 21.4651 88.4995 21.4651 88.0852C21.4651 87.6708 21.3707 87.6715 21.3707 87.2572C21.3707 86.8429 21.6877 86.8429 21.6877 86.4285C21.6877 86.0142 21.7489 86.0142 21.7489 85.6006C21.7489 85.1869 21.6303 85.1862 21.6303 84.7719C21.6303 84.3576 21.2954 84.3582 21.2954 83.9452C21.2954 83.5322 21.5557 83.5315 21.5557 83.1185C21.5557 82.7054 21.564 82.7035 21.564 82.2892C21.564 81.8749 21.3407 81.8749 21.3407 81.4612C21.3407 81.0476 21.6775 81.0469 21.6775 80.632C21.6775 80.217 21.6564 80.217 21.6564 79.8021C21.6564 79.3871 21.6475 79.3878 21.6475 78.9728C21.6475 78.5578 21.7406 78.5572 21.7406 78.1416C21.7406 77.726 21.643 77.7254 21.643 77.3092C21.643 76.8929 21.3432 76.8929 21.3432 76.4767C21.3432 76.1727 21.7674 75.9591 21.8771 75.6946C21.9907 75.4205 21.8925 75.0171 22.0991 74.8105C22.3058 74.604 22.6706 74.6078 22.9449 74.4944C23.2096 74.3848 23.4622 74.1974 23.7665 74.1974C24.183 74.1974 24.183 74.423 24.6002 74.423C25.0174 74.423 25.0174 74.017 25.4339 74.017C25.8504 74.017 25.851 74.0393 26.2682 74.0393C26.6854 74.0393 26.686 74.2738 27.1032 74.2738C27.5203 74.2738 27.5203 74.3631 27.9381 74.3631C28.3559 74.3631 28.3553 74.3746 28.7725 74.3746C29.1896 74.3746 29.1896 74.1687 29.6062 74.1687C30.0227 74.1687 30.0227 74.1515 30.4399 74.1515C30.857 74.1515 30.8564 74.3433 31.2735 74.3433C31.6907 74.3433 31.6901 74.0221 32.1066 74.0221C32.5231 74.0221 32.5231 74.3835 32.9396 74.3835C33.3562 74.3835 33.3562 74.3835 33.7727 74.3835C34.1892 74.3835 34.1892 74.3554 34.6064 74.3554C35.0236 74.3554 35.0236 74.14 35.4401 74.14C35.8566 74.14 35.8572 74.2955 36.2744 74.2955C36.6916 74.2955 36.6916 74.161 37.1087 74.161C37.5259 74.161 37.5265 74.1489 37.9437 74.1489C38.3609 74.1489 38.3615 74.4332 38.7787 74.4332C39.1958 74.4332 39.1958 74.175 39.613 74.175C40.0302 74.175 40.0302 74.0718 40.4473 74.0718C40.8645 74.0718 40.8645 74.3401 41.281 74.3401C41.6975 74.3401 41.6982 74.2828 42.1147 74.2828C42.5312 74.2828 42.5319 74.2471 42.9484 74.2471C43.3649 74.2471 43.3656 74.0699 43.7827 74.0699C44.1999 74.0699 44.1999 74.2872 44.6171 74.2872C45.0342 74.2872 45.0342 74.2012 45.452 74.2012C45.8698 74.2012 45.8698 74.3822 46.2876 74.3822C46.7054 74.3822 46.7054 74.2764 47.1226 74.2764C47.5398 74.2764 47.5397 74.4007 47.9576 74.4007C48.3754 74.4007 48.3747 74.0903 48.7919 74.0903C49.209 74.0903 49.209 74.4058 49.6262 74.4058C50.0434 74.4058 50.0434 74.0571 50.4605 74.0571C50.8777 74.0571 50.8777 74.2751 51.2955 74.2751C51.7133 74.2751 51.7133 74.1903 52.1311 74.1903C52.5489 74.1903 52.5489 74.0935 52.9667 74.0935C53.3845 74.0935 53.3845 74.2503 53.8017 74.2503C54.2188 74.2503 54.2182 74.3121 54.6347 74.3121C55.0513 74.3121 55.0506 74.2879 55.4671 74.2879C55.8837 74.2879 55.883 74.4364 56.2989 74.4364C56.7148 74.4364 56.7148 74.3134 57.1307 74.3134C57.5466 74.3134 57.5466 74.0476 57.9631 74.0476C58.3796 74.0476 58.3796 74.3229 58.7962 74.3229C59.2127 74.3229 59.2133 74.2056 59.6299 74.2056C60.0464 74.2056 60.0477 74.3095 60.4648 74.3095C60.882 74.3095 60.8833 74.4039 61.3017 74.4039C61.7201 74.4039 61.7195 74.2643 62.1367 74.2643C62.5538 74.2643 62.5538 74.4179 62.971 74.4179C63.3882 74.4179 63.3882 74.4294 63.8047 74.4294C64.2212 74.4294 64.2218 74.3261 64.6384 74.3261C65.0549 74.3261 65.0555 74.0928 65.4727 74.0928C65.8899 74.0928 65.8905 74.1629 66.3083 74.1629C66.7261 74.1629 66.7267 74.1566 67.1452 74.1566C67.5636 74.1566 67.563 74.0622 67.9808 74.0622C68.3986 74.0622 68.3986 74.052 68.8158 74.052C69.2329 74.052 69.2336 74.0788 69.6514 74.0788C70.0692 74.0788 70.0698 74.3318 70.4882 74.3318C70.9067 74.3318 70.9067 74.1789 71.3251 74.1789C71.7436 74.1789 71.7429 74.1801 72.1607 74.1801C72.5785 74.1801 72.5792 74.1457 72.997 74.1457C73.4148 74.1457 73.4154 74.133 73.8345 74.133C74.2536 74.133 74.2529 74.3102 74.6707 74.3102C75.0885 74.3102 75.0892 74.1923 75.5082 74.1923C75.9273 74.1923 75.9267 74.2738 76.3451 74.2738C76.7636 74.2738 76.7636 74.0176 77.1826 74.0176C77.6017 74.0176 77.6004 74.0329 78.0182 74.0329C78.436 74.0329 78.436 74.1068 78.8539 74.1068C79.2717 74.1068 79.2729 74.4612 79.692 74.4612C80.1111 74.4612 80.1104 74.3554 80.5289 74.3554C80.9473 74.3554 80.948 74.3675 81.367 74.3675C81.7861 74.3675 81.7867 74.3918 82.2058 74.3918C82.6249 74.3918 82.6249 74.2751 83.0433 74.2751C83.4618 74.2751 83.4631 74.3777 83.8828 74.3777C84.3025 74.3777 84.3031 74.0348 84.7241 74.0348C85.1451 74.0348 85.1445 74.1884 85.5655 74.1884C85.8697 74.1884 86.0968 74.4491 86.3609 74.5588C86.6352 74.6722 87.1034 74.5282 87.31 74.7347C87.5167 74.9412 87.6404 75.2975 87.7546 75.5716C87.8643 75.8361 87.6998 76.1739 87.6998 76.478L87.701 76.4754Z" fill="#FF8547"/>
<path d="M32.2303 81.4109C32.2303 81.8277 32.5142 81.8277 32.5142 82.2452C32.5142 82.6627 32.326 82.6615 32.326 83.0777C32.326 83.4939 32.3987 83.4939 32.3987 83.9102C32.3987 84.3264 32.5824 84.3277 32.5824 84.7452C32.5824 85.1627 32.2852 85.162 32.2852 85.5789C32.2852 85.9957 32.4969 85.9964 32.4969 86.4139C32.4969 86.8314 32.4351 86.832 32.4351 87.2495C32.4351 87.667 32.3802 87.667 32.3802 88.0839C32.3802 88.5008 32.6181 88.502 32.6181 88.9202C32.6181 89.3383 32.2507 89.3389 32.2507 89.7577C32.2507 90.1765 32.2335 90.1765 32.2335 90.5953C32.2335 90.8993 32.4025 91.2097 32.2928 91.4743C32.1793 91.7483 31.81 91.8216 31.6033 92.0282C31.3966 92.2347 31.3418 92.6484 31.0675 92.7618C30.8028 92.8714 30.4736 92.8491 30.1694 92.8491C29.8345 92.8491 29.8345 92.7038 29.5003 92.7038C29.166 92.7038 29.1654 92.684 28.8311 92.684C28.5269 92.684 28.1518 92.9817 27.8871 92.8721C27.6128 92.7586 27.4897 92.3488 27.283 92.1423C27.0764 91.9357 26.6924 91.8019 26.5788 91.5278C26.4691 91.2633 26.5858 90.8993 26.5858 90.5953C26.5858 90.1784 26.4557 90.1784 26.4557 89.7609C26.4557 89.3434 26.8129 89.3447 26.8129 88.9284C26.8129 88.5122 26.4174 88.5122 26.4174 88.096C26.4174 87.6798 26.6866 87.6785 26.6866 87.261C26.6866 86.8435 26.3632 86.8441 26.3632 86.4273C26.3632 86.0104 26.3588 86.0098 26.3588 85.5923C26.3588 85.1748 26.7574 85.1741 26.7574 84.7566C26.7574 84.3391 26.4589 84.3391 26.4589 83.9223C26.4589 83.5054 26.8129 83.5041 26.8129 83.086C26.8129 82.6678 26.6203 82.6672 26.6203 82.2484C26.6203 81.8297 26.5667 81.8297 26.5667 81.4109C26.5667 81.1068 26.6369 80.8124 26.7466 80.5478C26.8601 80.2738 26.9756 79.9697 27.1822 79.7632C27.3889 79.5567 27.7633 79.6096 28.037 79.4961C28.3017 79.3865 28.5262 79.1832 28.8305 79.1832C29.1654 79.1832 29.1654 79.2074 29.4996 79.2074C29.8339 79.2074 29.8345 79.2494 30.1687 79.2494C30.473 79.2494 30.8028 79.1328 31.0675 79.2424C31.3418 79.3559 31.5695 79.5981 31.7762 79.8046C31.9828 80.0111 32.1971 80.2495 32.3113 80.5236C32.421 80.7881 32.231 81.1062 32.231 81.4102L32.2303 81.4109Z" fill="#FFDAC2"/>
<path d="M83.1952 81.4109C83.1952 81.8277 83.0587 81.8277 83.0587 82.2452C83.0587 82.6627 83.1588 82.6615 83.1588 83.0777C83.1588 83.4939 83.0427 83.4939 83.0427 83.9101C83.0427 84.3264 82.9107 84.3276 82.9107 84.7451C82.9107 85.1626 83.0491 85.162 83.0491 85.5789C83.0491 85.9957 83.1537 85.9964 83.1537 86.4139C83.1537 86.8314 83.185 86.832 83.185 87.2495C83.185 87.667 83.1933 87.667 83.1933 88.0839C83.1933 88.5007 82.9515 88.502 82.9515 88.9202C82.9515 89.3383 83.206 89.3389 83.206 89.7577C83.206 90.1765 83.2596 90.1765 83.2596 90.5953C83.2596 90.8993 83.1569 91.2422 83.0472 91.5061C82.9337 91.7802 82.5771 91.9121 82.3704 92.1187C82.1638 92.3252 81.9998 92.6031 81.7255 92.7166C81.4608 92.8262 81.1502 93.0372 80.8459 93.0372C80.511 93.0372 80.5111 92.9798 80.1768 92.9798C79.8426 92.9798 79.8419 92.8606 79.5077 92.8606C79.2034 92.8606 78.9208 92.758 78.6568 92.6477C78.3825 92.5343 78.1057 92.4087 77.899 92.2022C77.6923 91.9956 77.5718 91.7171 77.4576 91.443C77.3479 91.1785 77.1999 90.8987 77.1999 90.5946C77.1999 90.1778 77.1629 90.1778 77.1629 89.7603C77.1629 89.3428 77.1986 89.344 77.1986 88.9278C77.1986 88.5116 77.2343 88.5116 77.2343 88.0954C77.2343 87.6791 77.4244 87.6779 77.4244 87.2604C77.4244 86.8429 77.4493 86.8435 77.4493 86.4266C77.4493 86.0098 77.1425 86.0091 77.1425 85.5916C77.1425 85.1741 77.2388 85.1735 77.2388 84.756C77.2388 84.3385 77.4327 84.3385 77.4327 83.9216C77.4327 83.5048 77.2337 83.5035 77.2337 83.0853C77.2337 82.6672 77.3619 82.6666 77.3619 82.2478C77.3619 81.829 77.0372 81.829 77.0372 81.4102C77.0372 81.1062 77.478 80.8799 77.5877 80.616C77.7013 80.3419 77.6649 79.9825 77.8716 79.7759C78.0782 79.5694 78.3206 79.3234 78.5949 79.2093C78.8596 79.0996 79.2028 79.3846 79.507 79.3846C79.8419 79.3846 79.8419 78.9594 80.1762 78.9594C80.5104 78.9594 80.511 79.1589 80.8453 79.1589C81.1496 79.1589 81.4742 79.1462 81.7383 79.2558C82.0126 79.3693 82.1829 79.6612 82.3896 79.8677C82.5962 80.0742 82.9464 80.2202 83.06 80.4943C83.1697 80.7588 83.1939 81.1068 83.1939 81.4109H83.1952Z" fill="#FFDAC2"/>
<path d="M82.6733 50.2525C82.6733 50.6726 82.3544 50.6726 82.3544 51.092C82.3544 51.5114 82.4966 51.5114 82.4966 51.9302C82.4966 52.349 82.304 52.349 82.304 52.7678C82.304 53.1865 82.6925 53.1865 82.6925 53.6059C82.6925 54.0254 82.2651 54.026 82.2651 54.4454C82.2651 54.8648 82.3863 54.8648 82.3863 55.2849C82.3863 55.7049 82.3359 55.7043 82.3359 56.1237C82.3359 56.5431 82.4533 56.5431 82.4533 56.9632C82.4533 57.3832 82.3295 57.3832 82.3295 57.8033C82.3295 58.2233 82.5681 58.2227 82.5681 58.6427C82.5681 59.0628 82.6599 59.0628 82.6599 59.4828C82.6599 59.9029 82.2721 59.9029 82.2721 60.3223C82.2721 60.7417 82.4258 60.7423 82.4258 61.1624C82.4258 61.5824 82.3289 61.5818 82.3289 62.0006C82.3289 62.4194 82.2613 62.42 82.2613 62.8388C82.2613 63.2575 82.5662 63.2595 82.5662 63.6795C82.5662 64.0996 82.5528 64.0996 82.5528 64.519C82.5528 64.9384 82.3372 64.9397 82.3372 65.3597C82.3372 65.7798 82.5355 65.7804 82.5355 66.2017C82.5355 66.623 82.3952 66.6218 82.3952 67.0425C82.3952 67.4631 82.6038 67.4638 82.6038 67.8851C82.6038 68.3064 82.3761 68.3071 82.3761 68.729C82.3761 69.151 82.4061 69.151 82.4061 69.573C82.4061 69.8592 82.5764 70.2014 82.473 70.4507C82.3659 70.7088 81.9111 70.7407 81.7165 70.9351C81.522 71.1295 81.3351 71.2124 81.0774 71.3195C80.8286 71.4227 80.6398 71.7312 80.3534 71.7312C79.935 71.7312 79.935 71.67 79.5165 71.67C79.0981 71.67 79.0981 71.744 78.679 71.744C78.2599 71.744 78.2599 71.5343 77.8409 71.5343C77.4218 71.5343 77.4218 71.7331 77.0021 71.7331C76.5824 71.7331 76.583 71.6637 76.1639 71.6637C75.7448 71.6637 75.7448 71.503 75.3258 71.503C74.9067 71.503 74.9073 71.568 74.4882 71.568C74.0692 71.568 74.0698 71.6528 73.6514 71.6528C73.2329 71.6528 73.2329 71.7752 72.8145 71.7752C72.396 71.7752 72.396 71.7918 71.9776 71.7918C71.5592 71.7918 71.5592 71.6229 71.1407 71.6229C70.7223 71.6229 70.7223 71.8816 70.3038 71.8816C69.8854 71.8816 69.8854 71.6433 69.467 71.6433C69.0485 71.6433 69.0485 71.6707 68.6294 71.6707C68.2104 71.6707 68.2104 71.8211 67.7919 71.8211C67.3735 71.8211 67.3728 71.7401 66.9538 71.7401C66.5347 71.7401 66.5347 71.8982 66.115 71.8982C65.6953 71.8982 65.6959 71.7797 65.2762 71.7797C64.8565 71.7797 64.8571 71.6114 64.438 71.6114C64.0189 71.6114 64.019 71.7829 63.6005 71.7829C63.1821 71.7829 63.1814 71.5642 62.763 71.5642C62.3446 71.5642 62.3446 71.8823 61.9255 71.8823C61.5064 71.8823 61.507 71.6917 61.088 71.6917C60.6689 71.6917 60.6689 71.4718 60.2504 71.4718C59.832 71.4718 59.8314 71.7421 59.4123 71.7421C58.9932 71.7421 58.9932 71.6292 58.5735 71.6292C58.1538 71.6292 58.1538 71.9027 57.7341 71.9027C57.3143 71.9027 57.315 71.5368 56.8953 71.5368C56.4756 71.5368 56.4762 71.6579 56.0571 71.6579C55.638 71.6579 55.638 71.5668 55.219 71.5668C54.7999 71.5668 54.7999 71.4712 54.3808 71.4712C53.9617 71.4712 53.9617 71.7414 53.5426 71.7414C53.1236 71.7414 53.1236 71.8287 52.7045 71.8287C52.2854 71.8287 52.2848 71.6477 51.8657 71.6477C51.4466 71.6477 51.446 71.786 51.0263 71.786C50.6066 71.786 50.6072 71.5209 50.1875 71.5209C49.7678 71.5209 49.769 71.7924 49.3506 71.7924C48.9322 71.7924 48.9328 71.6197 48.5144 71.6197C48.0959 71.6197 48.0966 71.57 47.6787 71.57C47.2609 71.57 47.2609 71.5623 46.8431 71.5623C46.4253 71.5623 46.4253 71.6611 46.0075 71.6611C45.5897 71.6611 45.5891 71.4801 45.1713 71.4801C44.7535 71.4801 44.7529 71.6209 44.3338 71.6209C43.9147 71.6209 43.9147 71.8695 43.495 71.8695C43.0753 71.8695 43.0746 71.8326 42.6549 71.8326C42.2352 71.8326 42.2358 71.7676 41.8161 71.7676C41.3964 71.7676 41.3971 71.628 40.9786 71.628C40.5602 71.628 40.5602 71.7076 40.1411 71.7076C39.722 71.7076 39.7227 71.8364 39.3036 71.8364C38.8845 71.8364 38.8845 71.8759 38.4654 71.8759C38.0463 71.8759 38.0457 71.6458 37.626 71.6458C37.2063 71.6458 37.2056 71.5642 36.7859 71.5642C36.3662 71.5642 36.3662 71.8428 35.9471 71.8428C35.528 71.8428 35.528 71.6828 35.1083 71.6828C34.6886 71.6828 34.6886 71.7637 34.2695 71.7637C33.8505 71.7637 33.8492 71.5285 33.4295 71.5285C33.0098 71.5285 33.0091 71.8593 32.5894 71.8593C32.1697 71.8593 32.1697 71.4622 31.75 71.4622C31.3303 71.4622 31.3303 71.5247 30.9099 71.5247C30.4895 71.5247 30.4895 71.7006 30.0692 71.7006C29.6488 71.7006 29.6495 71.6484 29.2291 71.6484C28.8088 71.6484 28.8088 71.6885 28.3884 71.6885C27.9681 71.6885 27.9681 71.809 27.5477 71.809C27.1274 71.809 27.1274 71.8026 26.707 71.8026C26.2867 71.8026 26.2873 71.4654 25.8682 71.4654C25.4491 71.4654 25.4485 71.8434 25.0294 71.8434C24.6103 71.8434 24.6084 71.5649 24.1874 71.5649C23.7664 71.5649 23.7671 71.4782 23.3467 71.4782C22.9264 71.4782 22.9257 71.6037 22.5054 71.6037C22.085 71.6037 22.0844 71.6783 21.6628 71.6783C21.2411 71.6783 21.2424 71.7427 20.8214 71.7427C20.4004 71.7427 20.3998 71.6566 19.9782 71.6566C19.5565 71.6566 19.5559 71.7503 19.1336 71.7503C18.7114 71.7503 18.7114 71.7268 18.2891 71.7268C18.0027 71.7268 17.8164 71.4189 17.567 71.3156C17.3087 71.2085 17.0618 71.1888 16.8673 70.9944C16.6727 70.8 16.3245 70.6891 16.2173 70.4315C16.114 70.183 16.3787 69.8604 16.3787 69.5742C16.3787 69.1542 16.3564 69.1542 16.3564 68.7348C16.3564 68.3154 16.3315 68.3154 16.3315 67.8966C16.3315 67.4778 16.3002 67.4778 16.3002 67.059C16.3002 66.6403 16.1803 66.6403 16.1803 66.2208C16.1803 65.8014 16.2454 65.8008 16.2454 65.3814C16.2454 64.962 16.1931 64.962 16.1931 64.5419C16.1931 64.1219 16.2199 64.1225 16.2199 63.7031C16.2199 63.2837 16.1178 63.2837 16.1178 62.8636C16.1178 62.4436 16.3143 62.4436 16.3143 62.0235C16.3143 61.6035 16.2664 61.6041 16.2664 61.1841C16.2664 60.764 16.3634 60.764 16.3634 60.344C16.3634 59.9239 16.2696 59.9239 16.2696 59.5045C16.2696 59.0851 16.2977 59.0844 16.2977 58.6644C16.2977 58.2443 16.3028 58.245 16.3028 57.8262C16.3028 57.4074 16.0687 57.4068 16.0687 56.988C16.0687 56.5692 16.2294 56.5673 16.2294 56.1473C16.2294 55.7272 16.0247 55.7272 16.0247 55.3078C16.0247 54.8884 16.2454 54.8871 16.2454 54.4671C16.2454 54.047 16.0687 54.0464 16.0687 53.6251C16.0687 53.2037 16.0017 53.2031 16.0017 52.7824C16.0017 52.3617 16.0106 52.3611 16.0106 51.9398C16.0106 51.5184 16.2626 51.5178 16.2626 51.0958C16.2626 50.6739 16.2122 50.6739 16.2122 50.2519C16.2122 49.9657 16.2339 49.6929 16.3372 49.4437C16.4444 49.1855 16.6517 49.0039 16.8462 48.8095C17.0408 48.6151 17.1837 48.3129 17.4414 48.2058C17.6901 48.1026 18.0033 47.9827 18.2891 47.9827C18.7075 47.9827 18.7075 47.9311 19.126 47.9311C19.5444 47.9311 19.5444 48.1784 19.9635 48.1784C20.3826 48.1784 20.3826 48.1472 20.8016 48.1472C21.2207 48.1472 21.2207 48.3575 21.6404 48.3575C22.0602 48.3575 22.0595 48.1956 22.4786 48.1956C22.8977 48.1956 22.8977 48.1109 23.3168 48.1109C23.7358 48.1109 23.7352 48.0446 24.1543 48.0446C24.5733 48.0446 24.5727 47.9592 24.9911 47.9592C25.4096 47.9592 25.4096 47.9458 25.828 47.9458C26.2465 47.9458 26.2465 48.1485 26.6649 48.1485C27.0833 48.1485 27.0833 48.1325 27.5018 48.1325C27.9202 48.1325 27.9202 48.1657 28.3387 48.1657C28.7571 48.1657 28.7571 48.325 29.1755 48.325C29.594 48.325 29.594 48.1332 30.0131 48.1332C30.4321 48.1332 30.4321 48.1249 30.8506 48.1249C31.269 48.1249 31.2697 48.1861 31.6887 48.1861C32.1078 48.1861 32.1078 47.9821 32.5275 47.9821C32.9472 47.9821 32.9466 48.3505 33.3663 48.3505C33.786 48.3505 33.7854 48.223 34.2045 48.223C34.6236 48.223 34.6236 47.9324 35.042 47.9324C35.4604 47.9324 35.4611 47.9502 35.8795 47.9502C36.298 47.9502 36.298 48.0286 36.717 48.0286C37.1361 48.0286 37.1355 48.1179 37.5545 48.1179C37.9736 48.1179 37.9736 48.0191 38.3921 48.0191C38.8105 48.0191 38.8111 48.1242 39.2302 48.1242C39.6493 48.1242 39.6493 48.3085 40.069 48.3085C40.4887 48.3085 40.4887 48.2772 40.9084 48.2772C41.3282 48.2772 41.3275 47.9604 41.7472 47.9604C42.167 47.9604 42.1663 47.9356 42.5854 47.9356C43.0045 47.9356 43.0045 48.2409 43.4235 48.2409C43.8426 48.2409 43.8426 48.1166 44.2617 48.1166C44.6808 48.1166 44.6808 48.0146 45.0999 48.0146C45.5189 48.0146 45.5189 48.0057 45.938 48.0057C46.3571 48.0057 46.3577 48.3167 46.7768 48.3167C47.1959 48.3167 47.1965 48.2575 47.6162 48.2575C48.036 48.2575 48.0353 47.9286 48.455 47.9286C48.8747 47.9286 48.8735 47.9356 49.2919 47.9356C49.7104 47.9356 49.7097 48.2658 50.1282 48.2658C50.5466 48.2658 50.546 48.2664 50.9638 48.2664C51.3816 48.2664 51.3816 48.0414 51.7994 48.0414C52.2172 48.0414 52.2172 48.0274 52.635 48.0274C53.0528 48.0274 53.0534 48.1102 53.4712 48.1102C53.889 48.1102 53.8896 47.9968 54.3087 47.9968C54.7278 47.9968 54.7278 48.2989 55.1475 48.2989C55.5672 48.2989 55.5679 48.2683 55.9876 48.2683C56.4073 48.2683 56.4067 47.933 56.8264 47.933C57.2461 47.933 57.2455 48.0465 57.6639 48.0465C58.0823 48.0465 58.0823 48.3206 58.5014 48.3206C58.9205 48.3206 58.9199 48.2224 59.3389 48.2224C59.758 48.2224 59.758 48.0044 60.1771 48.0044C60.5962 48.0044 60.5968 48.2893 61.0165 48.2893C61.4362 48.2893 61.4369 48.2326 61.8566 48.2326C62.2763 48.2326 62.2763 48.0669 62.6954 48.0669C63.1145 48.0669 63.1145 47.9413 63.5342 47.9413C63.9539 47.9413 63.9539 48.2466 64.373 48.2466C64.792 48.2466 64.7933 48.3391 65.213 48.3391C65.6328 48.3391 65.6334 47.9827 66.0531 47.9827C66.4728 47.9827 66.4728 47.9126 66.8925 47.9126C67.3122 47.9126 67.3123 48.2517 67.7326 48.2517C68.153 48.2517 68.153 48.2626 68.5733 48.2626C68.9937 48.2626 68.993 47.9617 69.4134 47.9617C69.8337 47.9617 69.8337 48.2747 70.2541 48.2747C70.6744 48.2747 70.6744 48.2995 71.0948 48.2995C71.5151 48.2995 71.5151 48.232 71.9355 48.232C72.3559 48.232 72.3552 48.0197 72.7743 48.0197C73.1934 48.0197 73.194 48.3633 73.6131 48.3633C74.0322 48.3633 74.0341 48.123 74.4551 48.123C74.8761 48.123 74.8754 48.0841 75.2958 48.0841C75.7161 48.0841 75.7168 48.1039 76.1371 48.1039C76.5575 48.1039 76.5581 48.1568 76.9797 48.1568C77.4014 48.1568 77.4001 48.1364 77.8211 48.1364C78.2421 48.1364 78.2427 48.0407 78.6643 48.0407C79.086 48.0407 79.0866 48.1415 79.5089 48.1415C79.9311 48.1415 79.9311 48.0312 80.3534 48.0312C80.6398 48.0312 80.8293 48.3971 81.078 48.5003C81.3364 48.6074 81.6062 48.608 81.8007 48.8024C81.9953 48.9969 82.3353 49.1263 82.4424 49.3838C82.5458 49.6324 82.6727 49.9625 82.6727 50.2487L82.6733 50.2525Z" fill="#C285FF"/>
<path d="M27.2352 55.2402C27.2352 55.6648 27.1287 55.6648 27.1287 56.0886C27.1287 56.5125 27.1702 56.5119 27.1702 56.9357C27.1702 57.3596 27.2014 57.359 27.2014 57.7829C27.2014 58.2067 26.9278 58.2074 26.9278 58.6325C26.9278 59.0577 27.0075 59.0564 27.0075 59.4809C27.0075 59.9054 27.093 59.9054 27.093 60.3306C27.093 60.7557 26.938 60.7557 26.938 61.1809C26.938 61.606 27.0643 61.6054 27.0643 62.0299C27.0643 62.4544 26.8946 62.4557 26.8946 62.8808C26.8946 63.306 26.989 63.3073 26.989 63.733C26.989 64.1588 27.2307 64.1595 27.2307 64.5853C27.2307 64.8785 26.8161 65.078 26.7102 65.3329C26.6005 65.5975 26.554 65.8358 26.3543 66.0347C26.1547 66.2336 25.9218 66.2941 25.6571 66.4031C25.402 66.5089 25.1966 66.7416 24.9032 66.7416C24.5281 66.7416 24.5281 66.9475 24.1537 66.9475C23.7793 66.9475 23.7786 66.9264 23.4042 66.9264C23.1108 66.9264 22.8174 66.7212 22.5622 66.6154C22.2975 66.5058 22.182 66.2043 21.9824 66.0048C21.7827 65.8052 21.562 65.6561 21.453 65.3922C21.3471 65.1372 21.12 64.8778 21.12 64.5846C21.12 64.1601 21.127 64.1601 21.127 63.7362C21.127 63.3124 21.194 63.313 21.194 62.8891C21.194 62.4652 21.2533 62.4659 21.2533 62.042C21.2533 61.6181 21.1519 61.6175 21.1519 61.1923C21.1519 60.7672 21.4389 60.7685 21.4389 60.344C21.4389 59.9194 21.4453 59.9194 21.4453 59.4943C21.4453 59.0691 21.3904 59.0691 21.3904 58.644C21.3904 58.2188 21.2425 58.2195 21.2425 57.795C21.2425 57.3705 21.3732 57.3692 21.3732 56.944C21.3732 56.5189 21.1436 56.5176 21.1436 56.0918C21.1436 55.666 21.4096 55.6654 21.4096 55.2396C21.4096 54.9464 21.2578 54.65 21.3637 54.395C21.4734 54.1305 21.6679 53.903 21.8676 53.7041C22.0672 53.5052 22.383 53.5237 22.6477 53.4141C22.9028 53.3083 23.1108 53.3051 23.4042 53.3051C23.7793 53.3051 23.7793 53.2541 24.1537 53.2541C24.5281 53.2541 24.5287 53.0794 24.9032 53.0794C25.1966 53.0794 25.4824 53.1209 25.7375 53.2267C26.0022 53.3363 26.355 53.3905 26.5546 53.5894C26.7543 53.7882 26.8965 54.1044 27.0062 54.3689C27.1121 54.6239 27.2346 54.9464 27.2346 55.2396L27.2352 55.2402Z" fill="#E2C2FF"/>
<path d="M36.5703 55.2402C36.5703 55.6648 36.562 55.6648 36.562 56.0886C36.562 56.5125 36.2386 56.5119 36.2386 56.9358C36.2386 57.3596 36.171 57.359 36.171 57.7829C36.171 58.2067 36.5327 58.2074 36.5327 58.6325C36.5327 59.0577 36.3541 59.0564 36.3541 59.4809C36.3541 59.9054 36.5971 59.9054 36.5971 60.3306C36.5971 60.7557 36.518 60.7557 36.518 61.1809C36.518 61.606 36.5557 61.6054 36.5557 62.0299C36.5557 62.4544 36.5882 62.4557 36.5882 62.8808C36.5882 63.306 36.3082 63.3073 36.3082 63.733C36.3082 64.1588 36.4089 64.1595 36.4089 64.5853C36.4089 64.8785 36.3617 65.1691 36.2559 65.4241C36.1461 65.6886 35.8884 65.8448 35.6894 66.0436C35.4904 66.2425 35.3565 66.5548 35.0918 66.6645C34.8366 66.7703 34.5228 66.6785 34.23 66.6785C33.8549 66.6785 33.8549 66.7327 33.4805 66.7327C33.1061 66.7327 33.1054 66.8844 32.731 66.8844C32.4376 66.8844 32.2245 66.5274 31.9694 66.4216C31.7047 66.312 31.3641 66.3483 31.1651 66.1495C30.966 65.9506 30.9003 65.6523 30.7906 65.3878C30.6847 65.1328 30.5725 64.8778 30.5725 64.5846C30.5725 64.1601 30.5948 64.1601 30.5948 63.7362C30.5948 63.3124 30.5993 63.313 30.5993 62.8891C30.5993 62.4652 30.4034 62.4659 30.4034 62.042C30.4034 61.6181 30.568 61.6175 30.568 61.1923C30.568 60.7672 30.656 60.7685 30.656 60.344C30.656 59.9194 30.6286 59.9194 30.6286 59.4943C30.6286 59.0691 30.3582 59.0691 30.3582 58.644C30.3582 58.2188 30.7122 58.2195 30.7122 57.795C30.7122 57.3705 30.3645 57.3692 30.3645 56.944C30.3645 56.5189 30.6873 56.5176 30.6873 56.0918C30.6873 55.666 30.4685 55.6654 30.4685 55.2396C30.4685 54.9464 30.4679 54.6016 30.5738 54.3466C30.6835 54.0821 31.1555 54.0636 31.3545 53.8647C31.5535 53.6659 31.6651 53.4173 31.9299 53.3083C32.185 53.2025 32.4376 52.9736 32.7304 52.9736C33.1054 52.9736 33.1054 52.9201 33.4799 52.9201C33.8543 52.9201 33.8549 52.9959 34.2294 52.9959C34.5228 52.9959 34.864 52.9883 35.1192 53.0941C35.3839 53.2037 35.5772 53.4957 35.7762 53.6945C35.9752 53.8934 36.1551 54.1331 36.2648 54.3976C36.3707 54.6526 36.5684 54.947 36.5684 55.2402H36.5703Z" fill="#E2C2FF"/>
<path d="M77.6425 55.2396C77.6425 55.6641 77.6572 55.6641 77.6572 56.088C77.6572 56.5119 77.8282 56.5112 77.8282 56.9351C77.8282 57.359 77.5762 57.3584 77.5762 57.7822C77.5762 58.2061 77.7688 58.2067 77.7688 58.6319C77.7688 59.057 77.7656 59.0558 77.7656 59.4803C77.7656 59.9048 77.7478 59.9048 77.7478 60.3299C77.7478 60.7551 77.5685 60.7551 77.5685 61.1802C77.5685 61.6054 77.8026 61.6048 77.8026 62.0293C77.8026 62.4538 77.589 62.4551 77.589 62.8802C77.589 63.3054 77.5456 63.3066 77.5456 63.7324C77.5456 64.1582 77.5162 64.1588 77.5162 64.5846C77.5162 64.8778 77.6036 65.1685 77.4977 65.4235C77.388 65.688 77.3555 66.0691 77.1565 66.2687C76.9575 66.4682 76.4829 66.2769 76.2182 66.3866C75.963 66.4924 75.7647 66.8085 75.4719 66.8085C75.0968 66.8085 75.0968 66.5504 74.7224 66.5504C74.348 66.5504 74.3473 66.5612 73.9729 66.5612C73.6795 66.5612 73.3554 66.7958 73.1003 66.69C72.8356 66.5803 72.7208 66.2342 72.5218 66.0354C72.3227 65.8365 72 65.7116 71.8903 65.447C71.7844 65.1921 71.748 64.8778 71.748 64.5846C71.748 64.1601 71.6925 64.1601 71.6925 63.7362C71.6925 63.3124 71.9509 63.313 71.9509 62.8891C71.9509 62.4653 71.8061 62.4659 71.8061 62.042C71.8061 61.6181 71.6581 61.6175 71.6581 61.1923C71.6581 60.7672 71.9407 60.7685 71.9407 60.344C71.9407 59.9195 71.8424 59.9195 71.8424 59.4943C71.8424 59.0692 71.9273 59.0692 71.9273 58.644C71.9273 58.2189 71.882 58.2195 71.882 57.795C71.882 57.3705 71.822 57.3692 71.822 56.944C71.822 56.5189 71.9145 56.5176 71.9145 56.0918C71.9145 55.666 71.8507 55.6654 71.8507 55.2396C71.8507 54.9464 72.0293 54.7342 72.1352 54.4792C72.2449 54.2147 72.2762 53.9425 72.4752 53.7436C72.6742 53.5448 72.8605 53.3045 73.1245 53.1948C73.3797 53.089 73.6788 52.8704 73.9723 52.8704C74.3473 52.8704 74.3473 53.1521 74.7218 53.1521C75.0962 53.1521 75.0968 53.0794 75.4712 53.0794C75.7647 53.0794 76.0651 53.0865 76.3202 53.1923C76.585 53.3019 76.7846 53.5301 76.9836 53.729C77.1826 53.9278 77.2471 54.1955 77.3561 54.4601C77.462 54.715 77.6425 54.9464 77.6425 55.2396Z" fill="#E2C2FF"/>
</g>
</g>
<defs>
<clipPath id="clip0_2973_8564">
<rect width="104" height="104" fill="white"/>
</clipPath>
<clipPath id="clip1_2973_8564">
<rect width="72" height="92" fill="white" transform="translate(16 6)"/>
</clipPath>
</defs>
</svg>
