<svg width="104" height="104" viewBox="0 0 104 104" fill="none" xmlns="http://www.w3.org/2000/svg">
<g clip-path="url(#clip0_2973_8605)">
<path d="M88.689 90.1139C88.689 90.3576 88.7164 90.5183 88.5734 90.7555C88.4555 90.9507 88.5302 91.3434 88.3194 91.5327C88.1472 91.6881 87.815 91.6881 87.5832 91.8395C87.3847 91.9692 87.1804 92.1194 86.9399 92.2456C86.7268 92.3572 86.4302 92.3134 86.1856 92.4227C85.9637 92.5214 85.8943 93.0199 85.6467 93.1163C85.419 93.2051 85.0156 92.8469 84.7663 92.9334C84.534 93.014 84.4265 93.4979 84.1761 93.5768C83.9408 93.651 83.6997 93.748 83.4492 93.8204C83.2116 93.8894 82.9437 93.8894 82.6926 93.9566C82.4527 94.0209 82.1713 93.9525 81.9191 94.0144C81.6774 94.074 81.4567 94.2493 81.2045 94.3078C80.9616 94.3639 80.6253 94.0203 80.3719 94.0746C80.1279 94.1278 79.8956 94.2441 79.6422 94.2961C79.397 94.3458 79.1553 94.4252 78.9019 94.4737C78.6555 94.5211 78.387 94.4515 78.133 94.4977C77.8861 94.5421 77.7109 95.0119 77.4575 95.0552C77.21 95.0972 76.9128 94.8617 76.6589 94.9026C76.4108 94.943 76.1691 95.037 75.9151 95.0762C75.6664 95.1142 75.3996 95.0435 75.1456 95.0803C74.8963 95.1165 74.6476 95.1638 74.3931 95.1989C74.1438 95.2334 73.8986 95.3123 73.6441 95.3456C73.3948 95.3783 73.1823 95.7126 72.9283 95.7441C72.679 95.7751 72.4315 95.8545 72.1775 95.8843C71.9276 95.9136 71.6456 95.6898 71.3917 95.7178C71.1412 95.7459 70.9065 95.9393 70.652 95.9662C70.401 95.993 70.1581 96.1204 69.9035 96.1461C69.6525 96.1713 69.3875 96.0865 69.1329 96.1105C68.8813 96.1345 68.5923 95.7634 68.3372 95.7862C68.0855 95.809 67.8403 95.9182 67.5852 95.9399C67.333 95.9615 67.1076 96.3238 66.8525 96.3442C66.6003 96.3647 66.3224 96.0766 66.0667 96.0959C65.8139 96.1152 65.5734 96.3109 65.3177 96.329C65.0649 96.3472 64.7917 96.0789 64.5359 96.0959C64.2843 96.1122 64.056 96.5149 63.8015 96.5306C63.5493 96.5464 63.2866 96.4155 63.032 96.4301C62.7792 96.4447 62.534 96.6148 62.2789 96.6282C62.0261 96.6417 61.7581 96.3805 61.503 96.3933C61.2496 96.4056 60.9945 96.3904 60.7394 96.4021C60.486 96.4138 60.2396 96.613 59.9839 96.6235C59.73 96.6341 59.4731 96.5891 59.2174 96.5984C58.9646 96.6078 58.7159 96.765 58.4608 96.7737C58.2074 96.7819 57.9505 96.7229 57.6954 96.7299C57.4414 96.7375 57.1927 96.9747 56.937 96.9818C56.683 96.9882 56.4262 96.9742 56.1704 96.98C55.9147 96.9858 55.6497 96.4553 55.394 96.4599C55.14 96.4646 54.889 96.6604 54.6333 96.6639C54.3775 96.6674 54.1224 96.5768 53.8661 96.5797C53.6098 96.5826 53.3582 96.9449 53.1013 96.9467C52.8462 96.9485 52.5899 96.9835 52.333 96.9841C52.0761 96.9847 51.8187 96.9157 51.5606 96.9157C51.3049 96.9157 51.0492 96.8228 50.7941 96.8222C50.539 96.8216 50.2844 96.5178 50.0299 96.516C49.7736 96.5143 49.5144 96.994 49.2598 96.9911C49.0035 96.9882 48.7542 96.5324 48.4997 96.5283C48.2434 96.5248 47.99 96.4681 47.7355 96.4634C47.4792 96.4588 47.2165 96.8497 46.9619 96.8438C46.7056 96.838 46.4476 96.9274 46.193 96.9204C45.9367 96.914 45.6816 96.8813 45.4277 96.8737C45.1714 96.8661 44.9133 96.9286 44.6594 96.9204C44.4031 96.9116 44.1631 96.4769 43.9086 96.4675C43.6529 96.4582 43.4001 96.3986 43.1461 96.3881C42.8904 96.3775 42.6294 96.5125 42.3755 96.5008C42.1198 96.4892 41.8512 96.7603 41.5972 96.748C41.3415 96.7352 41.1016 96.4225 40.8476 96.4091C40.5919 96.3957 40.3286 96.5306 40.0752 96.516C39.8195 96.5014 39.5743 96.3273 39.3209 96.3115C39.0652 96.2957 38.799 96.4611 38.5456 96.4442C38.2899 96.4272 38.0313 96.4611 37.7785 96.443C37.5228 96.4249 37.2624 96.4775 37.0096 96.4588C36.7539 96.4395 36.5029 96.3699 36.2501 96.3495C35.9944 96.329 35.7684 95.9743 35.5156 95.9527C35.2605 95.9311 34.9937 96.0632 34.7415 96.0404C34.4864 96.0176 34.2493 95.8183 33.9977 95.7944C33.7426 95.7698 33.4513 96.1315 33.1996 96.1064C32.9445 96.0807 32.6812 96.1391 32.4302 96.1128C32.175 96.086 31.9584 95.7231 31.7074 95.695C31.4529 95.6664 31.2117 95.539 30.9613 95.5092C30.7067 95.4794 30.4615 95.3993 30.2111 95.3678C29.9565 95.3362 29.716 95.2258 29.4667 95.1931C29.2128 95.1598 28.943 95.2673 28.6937 95.2328C28.4398 95.1977 28.1677 95.3105 27.919 95.2743C27.6651 95.2375 27.4012 95.2836 27.1531 95.2457C26.8997 95.2065 26.6364 95.2386 26.3888 95.1983C26.1355 95.1574 25.9416 94.7753 25.6941 94.7332C25.4407 94.6899 25.1395 94.936 24.8931 94.8915C24.6397 94.8454 24.3951 94.7647 24.1493 94.7174C23.8959 94.6689 23.6379 94.6578 23.3927 94.6081C23.1399 94.5567 22.9729 94.1185 22.7289 94.0653C22.4761 94.0103 22.1865 94.1535 21.9431 94.0974C21.6909 94.039 21.4457 93.9776 21.204 93.9174C20.9523 93.8549 20.6902 93.8596 20.4503 93.7953C20.1992 93.7281 19.9137 93.8047 19.6761 93.7357C19.4257 93.6632 19.2336 93.4167 18.9983 93.3424C18.7479 93.2636 18.5137 93.166 18.2814 93.0847C18.0321 92.9977 17.8394 92.7984 17.6112 92.7096C17.3648 92.6132 17.0787 92.6517 16.8575 92.553C16.6134 92.4443 16.4505 92.2123 16.2386 92.1007C15.9998 91.9751 15.6233 92.1182 15.4259 91.9891C15.1953 91.8383 15.1755 91.4497 15.0038 91.2943C14.7948 91.105 14.5747 90.9974 14.4574 90.8029C14.3161 90.5674 13.9658 90.3558 13.9658 90.1139C13.9658 89.8702 14.0452 89.4928 14.1888 89.2555C14.3068 89.0603 14.8526 89.1766 15.0628 88.9867C15.235 88.8313 15.3185 88.5607 15.5509 88.4094C15.7494 88.2796 15.9887 88.2019 16.2293 88.0757C16.4424 87.9641 16.6304 87.7812 16.8756 87.6719C17.0974 87.5732 17.3975 87.6491 17.645 87.5527C17.8727 87.4639 17.9585 86.9608 18.2078 86.8743C18.4402 86.7936 18.7677 86.9666 19.0182 86.8877C19.2534 86.8135 19.5529 86.9409 19.804 86.8684C20.0416 86.7995 20.2874 86.7557 20.539 86.6885C20.779 86.6242 20.9669 86.346 21.2186 86.2835C21.4603 86.2239 21.636 85.8593 21.8888 85.8008C22.1317 85.7447 22.4738 86.1053 22.7266 86.0509C22.9706 85.9978 23.1767 85.7436 23.4295 85.6921C23.6747 85.6425 23.9263 85.6016 24.1797 85.5531C24.426 85.5057 24.7261 85.7348 24.9795 85.6892C25.2265 85.6448 25.4407 85.4017 25.6941 85.3579C25.9416 85.3158 26.2283 85.4987 26.4822 85.4578C26.7304 85.4175 26.9038 84.8858 27.1583 84.8466C27.407 84.8086 27.6616 84.7812 27.9161 84.7443C28.1654 84.7081 28.4176 84.6643 28.6721 84.6292C28.9214 84.5947 29.1777 84.5784 29.4323 84.5451C29.6816 84.5123 29.9659 84.7356 30.2193 84.704C30.4685 84.673 30.7132 84.5819 30.9671 84.5521C31.217 84.5229 31.4529 84.3441 31.7068 84.3154C31.9573 84.2874 32.2463 84.5983 32.5008 84.5708C32.7518 84.5439 32.9714 84.2015 33.2265 84.1758C33.4775 84.1506 33.7373 84.1886 33.9925 84.1647C34.2441 84.1407 34.4893 84.0233 34.7444 84.0005C34.996 83.9777 35.2547 84.0063 35.5098 83.9847C35.762 83.9631 36.0218 84.0133 36.2769 83.9929C36.5291 83.9724 36.8064 84.2599 37.0622 84.2406C37.3149 84.2213 37.5374 83.7731 37.7931 83.755C38.0459 83.7369 38.3203 84.0162 38.576 83.9993C38.8276 83.9829 39.0623 83.6709 39.3169 83.6551C39.5691 83.6393 39.8411 83.9344 40.0957 83.9198C40.3485 83.9052 40.5791 83.4675 40.8342 83.4541C41.087 83.4407 41.3678 83.9496 41.6229 83.9368C41.8763 83.9245 42.118 83.6563 42.3731 83.6452C42.6265 83.6335 42.8746 83.4588 43.1303 83.4483C43.3843 83.4377 43.6458 83.592 43.9016 83.5826C44.1543 83.5733 44.4066 83.5143 44.6617 83.5055C44.9151 83.4973 45.1667 83.3916 45.4218 83.384C45.6758 83.3764 45.928 83.2554 46.1837 83.249C46.4377 83.2426 46.6939 83.235 46.9497 83.2291C47.2054 83.2233 47.4704 83.7433 47.7261 83.7387C47.9801 83.734 48.2276 83.2829 48.4828 83.2794C48.7379 83.2759 48.9924 83.1841 49.2487 83.1812C49.505 83.1783 49.7631 83.4728 50.0199 83.471C50.2751 83.4693 50.5302 83.197 50.7865 83.1958C51.0428 83.1946 51.3008 83.1958 51.5589 83.1958C51.8146 83.1958 52.0691 83.7346 52.3243 83.7358C52.5794 83.7369 52.8351 83.6744 53.0896 83.6761C53.3459 83.6779 53.6046 83.2671 53.8591 83.27C54.1154 83.273 54.37 83.377 54.6245 83.3805C54.8808 83.384 55.1324 83.5908 55.387 83.5955C55.6433 83.6002 55.8984 83.5967 56.1523 83.6019C56.4086 83.6078 56.6673 83.4652 56.9212 83.4716C57.1775 83.4781 57.4274 83.6621 57.6819 83.6697C57.9382 83.6773 58.1998 83.4681 58.4543 83.4763C58.7106 83.4851 58.9669 83.4716 59.2209 83.481C59.4766 83.4903 59.7346 83.4465 59.9886 83.457C60.2443 83.4675 60.4994 83.5003 60.7534 83.5114C61.0091 83.523 61.259 83.6574 61.5129 83.6697C61.7687 83.6826 62.0144 83.869 62.2684 83.8824C62.5241 83.8959 62.7886 83.7282 63.0425 83.7428C63.2983 83.7574 63.5475 83.8602 63.8009 83.876C64.0566 83.8918 64.3042 84.0104 64.5575 84.0273C64.8133 84.0443 65.0754 83.9444 65.3282 83.9625C65.5839 83.9806 65.8548 83.7732 66.1076 83.7924C66.3633 83.8117 66.5857 84.2377 66.8385 84.2582C67.0942 84.2786 67.3458 84.3096 67.5986 84.3306C67.8538 84.3522 68.1445 83.9537 68.3967 83.9765C68.6518 83.9993 68.9111 83.9783 69.1627 84.0022C69.4178 84.0268 69.6204 84.569 69.872 84.5942C70.1271 84.6199 70.4033 84.413 70.6543 84.4399C70.9095 84.4668 71.1926 84.2184 71.4437 84.2465C71.6982 84.2751 71.9393 84.4159 72.1898 84.4451C72.4443 84.4749 72.6749 84.6888 72.9248 84.7198C73.1793 84.7513 73.473 84.4633 73.7223 84.496C73.9762 84.5293 74.2139 84.6783 74.4631 84.7128C74.7171 84.7478 74.922 85.1096 75.1707 85.1458C75.4247 85.1826 75.6617 85.3001 75.9098 85.3386C76.1632 85.3778 76.461 85.1136 76.7085 85.154C76.9619 85.1949 77.1884 85.3789 77.4359 85.4216C77.6893 85.4648 77.9643 85.3661 78.2112 85.4105C78.4646 85.4567 78.7244 85.4526 78.9702 85.4999C79.2236 85.5484 79.4402 85.7629 79.6854 85.8131C79.9382 85.8645 80.2488 85.6279 80.4928 85.6805C80.7456 85.7354 81.0066 85.7477 81.2494 85.8038C81.5016 85.8622 81.6686 86.2613 81.9103 86.3215C82.1619 86.384 82.3785 86.5511 82.6179 86.6154C82.8689 86.6826 83.1065 86.7586 83.3441 86.8275C83.5946 86.9 83.904 86.7451 84.1393 86.8199C84.3898 86.8988 84.5445 87.2313 84.7768 87.3126C85.0261 87.3996 85.2637 87.4651 85.492 87.5545C85.7384 87.6509 85.9772 87.714 86.1984 87.8127C86.4425 87.9214 86.7566 87.8437 86.9691 87.9553C87.2078 88.081 87.3024 88.4035 87.4997 88.5327C87.7304 88.6834 88.0269 88.6852 88.1986 88.84C88.4076 89.0294 88.4304 89.2987 88.5477 89.4933C88.689 89.7288 88.6866 89.8732 88.6866 90.1151L88.689 90.1139Z" fill="#BCEBB2"/>
<path d="M93.4565 64.2507C93.0683 64.149 93.1302 63.9117 92.7425 63.8101C92.3548 63.7084 92.2673 64.0444 91.8796 63.9433C91.492 63.8422 91.5369 63.6698 91.1487 63.5682C90.7604 63.4665 90.6647 63.8317 90.2765 63.73C89.8882 63.6283 89.991 63.2374 89.6033 63.1357C89.2157 63.0341 89.1158 63.4115 88.727 63.3099C88.3382 63.2082 88.3685 63.089 87.9791 62.9867C87.5897 62.8845 87.3521 63.0393 87.1344 62.7004C86.9224 62.3702 87.5605 62.2966 87.637 61.9115C87.7135 61.5264 87.5687 61.4984 87.6452 61.1139C87.7217 60.7294 87.3364 60.6528 87.4128 60.2683C87.4893 59.8838 87.5711 59.899 87.6481 59.5134C87.7252 59.1277 87.8495 59.1534 87.926 58.7683C88.0025 58.3832 87.9225 58.3669 87.999 57.9818C88.0755 57.5967 88.4158 57.6639 88.4929 57.2776C88.57 56.8914 88.6464 56.9077 88.7229 56.5221C88.7994 56.1364 88.4409 56.0645 88.5174 55.6783C88.5939 55.292 88.7212 55.3166 88.7977 54.9297C88.8741 54.5429 88.6085 54.4897 88.685 54.1029C88.7328 53.8615 88.9792 53.6395 88.8514 53.4829C88.7142 53.3152 88.4328 53.3087 88.2162 53.2994C88.0142 53.2912 87.6154 53.1527 87.4508 53.3356C87.1992 53.6149 87.3638 53.7634 87.1122 54.0427C86.8605 54.322 86.937 54.3915 86.6854 54.6714C86.4338 54.9513 86.2078 54.7468 85.9562 55.0256C85.7046 55.3043 85.8068 55.3966 85.5557 55.6754C85.3047 55.9541 85.213 55.8723 84.9614 56.151C84.7098 56.4298 84.9275 56.6273 84.6753 56.9066C84.4231 57.1859 84.2357 57.0164 83.9835 57.2958C83.7313 57.5751 83.6531 57.5038 83.4014 57.7831C83.1498 58.0624 83.3074 58.205 83.0552 58.4843C82.803 58.7636 82.8421 58.7987 82.5899 59.0786C82.3377 59.3585 82.5158 59.5169 82.2648 59.7956C82.0137 60.0743 81.7457 59.8312 81.4947 60.11C81.2437 60.3887 81.211 60.3595 80.9599 60.6382C80.7089 60.917 80.9523 61.139 80.7001 61.4189C80.4479 61.6988 80.1408 61.4207 79.8886 61.7C79.6364 61.9793 79.6773 62.0161 79.4257 62.2954C79.174 62.5748 79.2394 62.6355 78.9866 62.916C78.7338 63.1965 78.721 63.1842 78.4688 63.4636C78.2166 63.7429 78.2142 63.7423 77.962 64.0222C77.7098 64.3021 77.6637 64.2588 77.4121 64.5382C77.1593 64.8187 77.2708 64.9197 77.018 65.2002C76.7652 65.4807 76.7529 65.4708 76.4996 65.7513C76.2462 66.0318 76.1843 65.978 75.9304 66.2597C75.6764 66.5413 75.7377 66.5968 75.4837 66.8785C75.2969 67.0853 75.228 67.4324 75.2981 67.6674C75.3681 67.9023 75.5719 68.3259 75.8416 68.3966C76.2298 68.4983 76.2398 68.4597 76.628 68.5614C77.0162 68.6631 77.032 68.5994 77.4197 68.7011C77.8073 68.8027 77.8564 68.6175 78.244 68.7192C78.6317 68.8209 78.6486 68.7601 79.0368 68.8618C79.4251 68.9634 79.3708 69.1685 79.759 69.2702C80.1473 69.3719 80.1665 69.3 80.5553 69.4017C80.9442 69.5034 80.9944 69.3135 81.3838 69.4151C81.7732 69.5168 81.8362 69.4806 82.054 69.8195C82.2659 70.1497 82.1836 70.1888 82.1071 70.5739C82.0306 70.959 81.6161 70.8754 81.5397 71.2599C81.4632 71.6444 81.6786 71.6871 81.6021 72.0716C81.5256 72.4561 81.5128 72.4543 81.4357 72.84C81.3587 73.2257 81.5356 73.2601 81.4585 73.6446C81.3814 74.0291 81.1181 73.9777 81.0411 74.3628C80.964 74.7479 81.093 74.7742 81.0166 75.1604C80.9401 75.5467 80.7159 75.5011 80.6394 75.8862C80.5629 76.2713 81.0072 76.3613 80.9302 76.7469C80.8531 77.1326 80.4199 77.0473 80.3434 77.4341C80.2669 77.821 80.4894 77.8654 80.4129 78.2522C80.365 78.4936 80.5799 78.6052 80.7083 78.7618C80.8455 78.9295 80.929 79.0896 81.1456 79.0984C81.3476 79.1065 81.6605 79.1773 81.8251 78.9944C81.9929 78.8081 82.161 78.6223 82.3296 78.4369C82.5818 78.1576 82.4084 78.0015 82.6606 77.7216C82.9128 77.4417 82.9659 77.4914 83.2175 77.2121C83.4692 76.9328 83.5813 77.0345 83.8323 76.7557C84.0833 76.477 83.8014 76.2216 84.053 75.9423C84.3046 75.663 84.6421 75.9674 84.8937 75.6875C85.1453 75.4076 84.8382 75.1306 85.0898 74.8513C85.3415 74.572 85.509 74.7234 85.7606 74.444C86.0123 74.1647 86.1717 74.3085 86.4239 74.0291C86.6761 73.7498 86.4449 73.5406 86.6965 73.2613C86.9481 72.982 86.8489 72.8938 87.0999 72.615C87.351 72.3363 87.3101 72.3001 87.5611 72.0219C87.8122 71.7438 87.9044 71.8267 88.156 71.548C88.4077 71.2693 88.3148 71.184 88.5676 70.9041C88.8204 70.6242 89.159 70.9315 89.4107 70.6522C89.6623 70.3729 89.3464 70.0871 89.5981 69.8078C89.8497 69.5285 90.0523 69.7096 90.3051 69.4292C90.5579 69.1487 90.3798 68.9891 90.632 68.7092C90.8842 68.4293 90.8854 68.4293 91.1376 68.1494C91.3898 67.8695 91.6257 68.084 91.8773 67.8053C92.1301 67.5248 91.9975 67.405 92.2503 67.1245C92.5031 66.844 92.5463 66.8826 92.7997 66.6015C93.0531 66.3204 93.2662 66.5115 93.5201 66.2299C93.7741 65.9482 93.4927 65.694 93.7467 65.4124C93.9335 65.2055 94.0485 64.9992 93.9778 64.7649C93.9072 64.5306 93.7245 64.3196 93.4548 64.2489L93.4565 64.2507Z" fill="#FFCE47"/>
<path d="M35.7737 23.6695C35.4047 23.5731 35.3749 23.6882 35.006 23.5918C34.637 23.4954 34.6819 23.3183 34.3112 23.2207C33.9405 23.1232 33.951 23.0887 33.5809 22.9923C33.2107 22.8958 33.1564 23.1056 32.7869 23.0086C32.4173 22.9116 32.3613 23.1202 31.9906 23.0232C31.6198 22.9262 31.7267 22.5201 31.3565 22.4231C30.9864 22.3261 30.8831 22.7194 30.5123 22.6224C30.1416 22.5254 30.2368 22.1607 29.8655 22.0632C29.4942 21.9656 29.5292 21.8335 29.159 21.7365C28.7889 21.6395 28.7912 21.6255 28.4205 21.5279C28.0498 21.4303 27.9249 21.9013 27.553 21.8037C27.1811 21.7061 27.0287 21.74 26.825 21.4134C26.6212 21.0867 26.9236 21.0055 26.9989 20.6268C27.0742 20.2482 26.8757 20.2078 26.9511 19.8286C27.0264 19.4494 27.3732 19.5189 27.4485 19.1402C27.5238 18.7616 27.3697 18.73 27.445 18.3508C27.5203 17.9715 27.5068 17.9692 27.5822 17.59C27.6575 17.2107 27.8011 17.2394 27.8764 16.8601C27.9517 16.4809 27.654 16.4224 27.7293 16.0444C27.8046 15.6663 27.8706 15.6792 27.9459 15.3011C28.0212 14.923 28.3744 14.992 28.4497 14.6121C28.525 14.2323 28.3329 14.1949 28.4083 13.8157C28.4836 13.4364 28.4474 13.4288 28.5227 13.0496C28.598 12.6703 28.4736 12.6446 28.549 12.2648C28.6243 11.885 28.758 11.9119 28.8333 11.5326C28.9086 11.1534 29.0686 11.1843 29.1439 10.8039C29.2192 10.4235 28.9605 10.3715 29.0364 9.99052C29.1123 9.60953 29.3248 9.65218 29.4007 9.27119C29.451 9.01758 29.3803 8.71898 29.284 8.52556C29.1789 8.31461 28.9331 8.16034 28.7264 8.05691C28.5198 7.95348 28.2851 8.04114 28.0527 8.08438C27.8402 8.12353 27.5179 8.04815 27.3451 8.23981C27.0918 8.52089 27.1274 8.55302 26.874 8.83468C26.6206 9.11634 26.5342 9.03803 26.2803 9.31969C26.0263 9.60135 26.275 9.82573 26.021 10.1074C25.7671 10.389 25.6836 10.3142 25.429 10.5965C25.1745 10.8787 25.2025 10.905 24.948 11.1879C24.6934 11.4707 24.6753 11.4531 24.4208 11.7354C24.1663 12.0176 24.2912 12.1298 24.0372 12.4115C23.7833 12.6931 23.5597 12.4915 23.3057 12.7732C23.0517 13.0548 23.3378 13.3137 23.0839 13.5954C22.8299 13.877 22.5923 13.6626 22.3377 13.9448C22.0832 14.227 22.2922 14.4158 22.0371 14.698C21.7819 14.9803 21.4573 14.6869 21.2022 14.9698C20.9471 15.2526 21.1164 15.4045 20.8624 15.6867C20.6085 15.969 20.4917 15.8638 20.2372 16.1455C19.9826 16.4271 20.1817 16.6077 19.9278 16.8899C19.6738 17.1722 19.6773 17.1768 19.4227 17.4597C19.1682 17.7425 18.989 17.5806 18.7344 17.8634C18.4799 18.1463 18.7175 18.3601 18.463 18.6424C18.2084 18.9246 17.8219 18.5758 17.5668 18.8586C17.3117 19.1414 17.7244 19.5136 17.4699 19.7965C17.2153 20.0793 16.9205 19.8111 16.6666 20.0933C16.4126 20.3756 16.5977 20.5415 16.3437 20.8232C16.0897 21.1048 16.1686 21.1761 15.9146 21.4584C15.6606 21.7406 15.4254 21.5302 15.1697 21.8131C14.9139 22.0959 15.1907 22.3442 14.9355 22.627C14.6804 22.9099 14.5695 22.8088 14.3149 23.0916C14.0604 23.3744 14.0073 23.3283 13.7516 23.6117C13.4959 23.8951 13.4229 23.8285 13.1677 24.1113C12.9126 24.3941 13.1508 24.6103 12.8957 24.8937C12.6406 25.1771 12.3422 24.906 12.0877 25.1882C11.832 25.4722 11.8512 25.4892 11.5955 25.7726C11.3398 26.056 11.2044 25.935 10.9487 26.219C10.693 26.503 10.7251 26.534 10.4682 26.8192C10.2113 27.1043 10.3479 27.2276 10.091 27.5122C9.91589 27.7062 10.0525 27.9773 10.0414 28.2093C10.0297 28.453 10.0356 28.5962 10.1792 28.7931C10.3158 28.9807 10.394 29.2115 10.6468 29.2781C11.0158 29.3745 10.9446 29.6474 11.313 29.7438C11.6814 29.8402 11.714 29.724 12.0842 29.8215C12.4543 29.9191 12.4736 29.8437 12.8431 29.9402C13.2127 30.0366 13.2074 30.0582 13.577 30.1546C13.9466 30.251 14.0277 29.9472 14.3984 30.0442C14.7692 30.1412 14.7137 30.3515 15.0838 30.4486C15.454 30.5456 15.4843 30.4322 15.8551 30.5298C16.2258 30.6274 16.1604 30.8775 16.5317 30.975C16.903 31.0726 16.9281 30.9739 17.2988 31.0709C17.6696 31.1679 17.718 30.9844 18.0893 31.082C18.4606 31.1796 18.3555 31.5845 18.728 31.6821C19.1005 31.7797 19.5687 31.1439 19.7725 31.4712C19.9762 31.7984 19.4712 31.9953 19.3959 32.374C19.3206 32.7526 19.045 32.6983 18.9697 33.0775C18.8944 33.4568 19.2797 33.5333 19.2044 33.912C19.1291 34.2906 19.2295 34.3111 19.1536 34.6903C19.0777 35.0696 19.0765 35.069 19.0012 35.4482C18.9259 35.8275 18.9084 35.824 18.8331 36.2032C18.7578 36.5825 18.571 36.5445 18.4957 36.9225C18.4203 37.3006 18.1343 37.2439 18.059 37.622C17.9836 38.0001 18.3579 38.076 18.2826 38.4559C18.2072 38.8357 18.3398 38.8614 18.2645 39.2401C18.1891 39.6187 17.7577 39.5334 17.6824 39.9132C17.6071 40.2931 17.8313 40.3381 17.756 40.7179C17.6806 41.0977 17.9113 41.1433 17.8354 41.5225C17.7595 41.9018 17.5014 41.8515 17.4261 42.2313C17.3508 42.6112 17.558 42.6538 17.4821 43.0342C17.4062 43.4147 17.3274 43.3995 17.2521 43.7805C17.2019 44.0341 16.8545 44.3701 16.9509 44.5635C17.056 44.7744 17.5645 44.6634 17.7706 44.7662C17.9766 44.8691 18.122 44.9556 18.3538 44.9123C18.5663 44.8732 18.6574 44.7446 18.8302 44.553C19.0836 44.2719 19.0298 44.2234 19.2838 43.9423C19.5378 43.6612 19.6545 43.767 19.9085 43.4854C20.1624 43.2037 20.1946 43.2323 20.4479 42.9507C20.7013 42.669 20.6202 42.5948 20.8747 42.3126C21.1292 42.0303 21.4474 42.3172 21.7026 42.0344C21.9577 41.7516 21.8619 41.6663 22.1165 41.384C22.371 41.1018 22.1953 40.944 22.4493 40.6618C22.7032 40.3795 22.9151 40.5712 23.1691 40.2896C23.4231 40.0079 23.2882 39.8864 23.5422 39.6041C23.7961 39.3219 23.6408 39.1816 23.8948 38.9C24.1487 38.6183 24.1797 38.6452 24.4342 38.3624C24.6888 38.0796 24.9404 38.3063 25.1949 38.024C25.4495 37.7418 25.1377 37.4607 25.3923 37.1785C25.6468 36.8962 25.951 37.1715 26.2055 36.8892C26.4601 36.607 26.1903 36.3633 26.4449 36.0811C26.6994 35.7988 26.9744 36.046 27.229 35.7638C27.4835 35.4815 27.4193 35.4231 27.6744 35.1403C27.9295 34.8575 27.9768 34.9007 28.2314 34.6185C28.4859 34.3362 28.5204 34.3666 28.7749 34.0844C29.0294 33.8021 28.7866 33.5818 29.0411 33.299C29.2957 33.0162 29.5473 33.2447 29.8012 32.963C30.0552 32.6813 29.7761 32.4295 30.0301 32.1484C30.2841 31.8673 30.2099 31.7996 30.4639 31.5173C30.7178 31.2351 31.0127 31.4992 31.2684 31.2164C31.5241 30.9336 31.541 30.9499 31.7956 30.6671C32.0501 30.3843 31.9211 30.268 32.1756 29.9852C32.4302 29.7023 32.4693 29.7362 32.725 29.4528C32.9807 29.1694 32.7688 28.9789 33.0239 28.6955C33.279 28.4121 33.4361 28.5535 33.6918 28.2701C33.9475 27.9867 34.1892 28.207 34.4437 27.9248C34.6995 27.6408 34.3976 27.3685 34.6533 27.085C34.909 26.8016 35.2021 27.0652 35.4578 26.7806C35.7135 26.496 35.3621 26.177 35.619 25.8924C35.8758 25.6078 36.0895 25.8001 36.3464 25.5155C36.5215 25.3215 36.4182 25.0281 36.4287 24.7961C36.4404 24.5525 36.2822 24.473 36.1386 24.2761C36.002 24.0885 36.03 23.7361 35.7766 23.6695H35.7737Z" fill="#FFCE47"/>
<path d="M75.2017 85.6541C75.0844 85.2883 74.9151 85.3433 74.7971 84.9775C74.6792 84.6117 74.7498 84.5895 74.6325 84.2237C74.5151 83.8579 74.7055 83.7971 74.5881 83.4319C74.4708 83.0667 74.1111 83.1824 73.9938 82.8171C73.8764 82.4519 74.037 82.3993 73.9196 82.0335C73.8023 81.6677 73.6085 81.7308 73.4905 81.365C73.3726 80.9992 73.898 80.8298 73.7801 80.464C73.6622 80.0982 73.6616 80.1005 73.5443 79.7359C73.4269 79.3712 72.9517 79.5232 72.8343 79.1574C72.717 78.7916 72.6709 78.8073 72.5535 78.4421C72.4362 78.0769 72.9511 77.911 72.8337 77.5457C72.7164 77.1805 72.1951 77.3471 72.0777 76.9813C71.9604 76.6155 72.1472 76.5553 72.0293 76.1895C71.9113 75.8237 71.8278 75.85 71.7105 75.4842C71.5931 75.1184 71.9411 75.0056 71.8232 74.6386C71.7052 74.2716 71.2481 74.4201 71.1302 74.0537C71.0122 73.6873 71.1372 73.647 71.0192 73.28C70.9013 72.913 71.1471 72.833 71.0286 72.4654C70.9101 72.0979 70.5896 72.2013 70.471 71.8337C70.3572 71.4796 70.3228 71.4907 70.2089 71.1366C70.0951 70.7825 70.5417 70.6475 70.4424 70.2887C70.3082 69.8061 70.0087 69.8861 69.889 69.3993C69.8002 69.037 70.0291 68.981 69.9398 68.6187C69.8505 68.2564 69.4984 68.3428 69.4097 67.98C69.3209 67.6171 69.3612 67.6077 69.2725 67.246C69.1837 66.8843 69.3244 66.8487 69.2357 66.4858C69.147 66.1229 69.0063 66.1562 68.9175 65.7927C68.8288 65.4293 68.9479 65.3995 68.8591 65.036C68.8037 64.8087 68.8457 64.7982 68.7902 64.5709C68.6974 64.1922 68.5129 64.2372 68.4195 63.8586C68.3261 63.4799 68.2847 63.4898 68.1918 63.1112C68.099 62.7325 68.3857 62.6618 68.2928 62.2837C68.2 61.9057 67.9326 61.9705 67.8398 61.5919C67.747 61.2132 67.8462 61.1881 67.7528 60.8094C67.6594 60.4308 67.5455 60.4588 67.4527 60.0802C67.3599 59.7015 67.5782 59.6472 67.4848 59.2679C67.3914 58.8887 67.5993 58.8378 67.5058 58.4592C67.4124 58.0805 66.953 58.1933 66.8596 57.8141C66.7662 57.4348 67.2571 57.315 67.1643 56.937C67.0715 56.5589 66.7311 56.6424 66.6383 56.2644C66.5455 55.8863 66.4293 55.9132 66.3359 55.5339C66.2425 55.1547 66.3487 55.129 66.2553 54.7503C66.1619 54.3717 66.532 54.2799 66.4386 53.9007C66.3452 53.5214 65.8817 53.6348 65.7883 53.255C65.6948 52.8751 66.1759 52.7571 66.0825 52.3779C65.9891 51.9986 65.48 52.1231 65.386 51.7433C65.292 51.3634 65.5366 51.3021 65.4426 50.9217C65.3486 50.5413 65.3627 50.5378 65.2698 50.1568C65.2692 50.1538 65.0235 50.214 65.0229 50.2111C64.9254 49.8114 65.3206 49.7144 65.2225 49.3153C65.1245 48.9162 64.7794 49.0003 64.6808 48.6001C64.5821 48.1998 64.5798 48.2015 64.4817 47.8018C64.3836 47.4021 64.3369 47.4127 64.2388 47.0124C64.1407 46.6121 64.4706 46.5303 64.3719 46.1288C64.2733 45.7274 63.9212 45.8145 63.8226 45.4136C63.7251 45.0151 63.836 44.9876 63.7391 44.5897C63.6421 44.1917 64.0135 44.1012 63.916 43.7032C63.8185 43.3053 63.4822 43.3871 63.3847 42.988C63.2872 42.5889 63.4746 42.5427 63.3771 42.1436C63.2796 41.7445 62.8581 41.6767 63.1004 41.3448C63.3298 41.0304 63.5096 41.3991 63.899 41.3991C64.2884 41.3991 64.2896 41.3629 64.6796 41.3629C65.0696 41.3629 65.0696 41.09 65.459 41.09C65.8484 41.09 65.849 41.5347 66.2396 41.5347C66.6301 41.5347 66.6301 41.6346 67.0207 41.6346C67.4113 41.6346 67.4107 41.4085 67.8007 41.4085C68.1907 41.4085 68.1918 41.2963 68.583 41.2963C68.9741 41.2963 68.9747 41.2081 69.3665 41.2081C69.7582 41.2081 69.7582 41.4973 70.1499 41.4973C70.481 41.4973 70.481 41.5996 70.8126 41.5996C71.1442 41.5996 71.1448 41.4833 71.477 41.4833C71.8092 41.4833 71.8092 41.0848 72.1413 41.0848C72.4152 41.0848 72.5973 41.1163 72.8355 41.0181C73.0825 40.9159 73.2617 40.8347 73.4479 40.6488C73.6342 40.463 73.9798 40.3941 74.0819 40.1475C74.1812 39.9096 74.319 39.6175 74.319 39.344C74.319 39.0319 74.065 39.0319 74.065 38.7205C74.065 38.7176 74.1211 38.7176 74.1211 38.7146C74.1211 38.4406 73.9027 38.2647 73.8035 38.0269C73.7007 37.7803 73.7661 37.4618 73.5799 37.276C73.3936 37.0901 73.0714 37.1673 72.825 37.065C72.5868 36.9669 72.4146 36.788 72.1413 36.788C71.7502 36.788 71.7502 36.871 71.3596 36.871C70.969 36.871 70.969 36.6823 70.5785 36.6823C70.1879 36.6823 70.1879 36.9026 69.7967 36.9026C69.4056 36.9026 69.4067 36.982 69.0168 36.982C68.6268 36.982 68.6268 36.7956 68.2368 36.7956C67.8468 36.7956 67.8456 36.6642 67.4545 36.6642C67.0633 36.6642 67.0639 36.4929 66.6733 36.4929C66.2828 36.4929 66.2822 36.9207 65.891 36.9207C65.4999 36.9207 65.4993 36.8921 65.1081 36.8921C64.717 36.8921 64.717 36.6075 64.3258 36.6075C63.9346 36.6075 63.9341 36.7968 63.5417 36.7968C63.1494 36.7968 63.1494 36.7454 62.7565 36.7454C62.3636 36.7454 62.234 37.0019 61.9211 36.7653C61.6221 36.5391 61.698 36.3796 61.6087 36.0149C61.5194 35.6503 61.4511 35.6661 61.3612 35.3009C61.2713 34.9357 61.3542 34.9158 61.2643 34.5512C61.1744 34.1865 61.1989 34.1801 61.109 33.8149C61.0191 33.4497 61.3489 33.3679 61.259 33.0021C61.1691 32.6362 61.0716 32.6608 60.9817 32.2956C60.8918 31.9304 60.552 32.0133 60.4621 31.6481C60.3722 31.2829 60.9023 31.1508 60.8124 30.7839C60.7225 30.4169 60.2432 30.5162 60.4831 30.2246C60.733 29.9214 60.7476 29.9406 61.1399 29.9406C61.5322 29.9406 61.5322 30.3152 61.9246 30.3152C62.3169 30.3152 62.3175 29.8594 62.7098 29.8594C63.1021 29.8594 63.1021 30.0996 63.4944 30.0996C63.8868 30.0996 63.8868 30.1954 64.2797 30.1954C64.6726 30.1954 64.6714 29.9202 65.0632 29.9202C65.4549 29.9202 65.4549 30.1382 65.8466 30.1382C66.2384 30.1382 66.2395 29.8577 66.6325 29.8577C67.0254 29.8577 67.0248 30.1948 67.4171 30.1948C67.8094 30.1948 67.81 29.9599 68.2029 29.9599C68.5958 29.9599 68.5964 29.995 68.9893 29.995C69.3822 29.995 69.3822 30.0406 69.7751 30.0406C70.168 30.0406 70.1686 30.1276 70.5627 30.1276C70.9568 30.1276 70.9568 30.0599 71.3514 30.0599C71.7461 30.0599 71.7455 30.047 72.1402 30.047C72.414 30.047 72.6078 29.9009 72.846 29.8027C73.093 29.7005 73.3971 29.7285 73.5834 29.5427C73.7696 29.3569 73.7953 29.0741 73.898 28.8281C73.9973 28.5902 74.2898 28.3746 74.2898 28.1005C74.2898 27.7856 74.2536 27.7856 74.2536 27.4712C74.2536 27.1971 73.929 27.0101 73.8297 26.7723C73.727 26.5257 73.8788 26.105 73.6925 25.9192C73.5063 25.7333 73.1543 25.7228 72.9073 25.6206C72.6691 25.5224 72.414 25.3564 72.1402 25.3564C71.7607 25.3564 71.7607 25.3331 71.3812 25.3331C71.0017 25.3331 71.0017 25.27 70.6217 25.27C70.2416 25.27 70.2416 25.6772 69.8615 25.6772C69.4815 25.6772 69.4821 25.6463 69.102 25.6463C68.7219 25.6463 68.7219 25.2758 68.3419 25.2758C67.9618 25.2758 67.9618 25.7012 67.5817 25.7012C67.2017 25.7012 67.2017 25.3582 66.8216 25.3582C66.4416 25.3582 66.4421 25.648 66.0632 25.648C65.6843 25.648 65.6838 25.603 65.3049 25.603C64.926 25.603 64.9242 25.2057 64.5436 25.2057C64.1629 25.2057 64.1635 25.7357 63.784 25.7357C63.4045 25.7357 63.4034 25.6527 63.0233 25.6527C62.6432 25.6527 62.6427 25.388 62.2614 25.388C61.8802 25.388 61.8814 25.5539 61.5007 25.5539C61.1201 25.5539 61.1195 25.2174 60.7382 25.2174C60.357 25.2174 60.3564 25.6907 59.9746 25.6907C59.5928 25.6907 59.5922 25.679 59.2104 25.6784C59.2092 25.6784 58.9407 25.5189 58.9407 25.5189C58.8514 25.1543 59.0534 25.1046 58.964 24.7405C58.8747 24.3765 58.8951 24.3706 58.8058 24.006C58.7165 23.6414 58.6243 23.6636 58.5343 23.2984C58.4444 22.9331 58.3697 22.9524 58.2798 22.5878C58.1899 22.2232 58.3207 22.1904 58.2313 21.8258C58.142 21.4612 58.1216 21.4676 58.0323 21.1041C57.9429 20.7407 58.0924 20.7021 58.0025 20.3369C57.9126 19.9717 57.5938 20.0511 57.5045 19.6865C57.4152 19.3219 57.4695 19.309 57.3801 18.9444C57.2908 18.5798 57.6499 18.4903 57.56 18.1251C57.47 17.7599 57.1793 17.8318 57.09 17.4666C57.0007 17.1014 57.3953 17.0038 57.306 16.6385C57.2167 16.2733 56.8751 16.3569 56.7852 15.9905C56.6953 15.6241 56.707 15.6224 56.6177 15.2572C56.5284 14.8919 56.6183 14.8691 56.5284 14.5033C56.4384 14.1375 56.6971 14.0727 56.6072 13.7057C56.5173 13.3387 56.2394 13.4071 56.1489 13.0401C56.1238 12.9379 56.3246 12.8683 56.2896 12.769C56.2545 12.6697 55.8774 12.8216 55.8336 12.7252C55.725 12.4815 56.0134 12.0117 55.8669 11.7961C55.718 11.5775 55.1838 11.6657 54.9999 11.4782C54.816 11.2906 54.8908 10.7927 54.6759 10.639C54.4634 10.4871 54.1178 10.5087 53.8796 10.3925C53.6461 10.2785 53.3174 10.4386 53.0622 10.3615C52.8141 10.2861 52.6127 10.0892 52.3482 10.0512C52.0925 10.0144 51.8415 9.95594 51.5735 9.95594C51.3055 9.95594 51.0189 9.76486 50.7632 9.80168C50.4987 9.83966 50.2844 10.1266 50.0363 10.2014C49.7812 10.2785 49.4134 10.0991 49.1799 10.2131C48.9417 10.3293 48.7268 10.5485 48.5143 10.7004C48.2995 10.8541 48.2966 11.2573 48.1132 11.4449C47.9299 11.6324 47.8067 11.8346 47.6579 12.0532C47.5113 12.2688 47.2737 12.4155 47.1657 12.6586C47.1225 12.755 47.3321 12.8081 47.3029 12.9098C47.1972 13.2762 47.1313 13.2487 47.0402 13.6192C46.9491 13.9897 46.5749 13.898 46.4838 14.2684C46.3927 14.6389 46.3484 14.6284 46.2567 14.9995C46.165 15.3705 46.5836 15.4728 46.4926 15.8438C46.4015 16.2149 46.0179 16.1208 45.9268 16.4919C45.8358 16.8629 46.1353 16.9348 46.0448 17.3041C45.9543 17.6734 46.0477 17.6986 45.9566 18.0696C45.8655 18.4407 45.5053 18.3513 45.4143 18.7218C45.3232 19.0922 45.5532 19.1489 45.4621 19.5188C45.3711 19.8887 45.3477 19.8846 45.2566 20.2562C45.1655 20.6279 45.2263 20.6419 45.1346 21.013C45.0429 21.384 45.0068 21.3753 44.9157 21.7469C44.8246 22.1186 44.8964 22.1367 44.8048 22.5083C44.7131 22.88 44.8398 22.9109 44.7481 23.282C44.6565 23.6531 44.2554 23.5549 44.1637 23.9271C44.0721 24.2994 43.9641 24.2736 43.8724 24.6465C43.7807 25.0193 44.1194 25.1028 44.0277 25.4756C44.0277 25.4768 43.9378 25.7076 43.9378 25.7076C43.5577 25.7088 43.5571 25.5241 43.1771 25.5241C42.797 25.5241 42.797 25.2863 42.4164 25.2863C42.0357 25.2863 42.0357 25.3827 41.6551 25.3827C41.2744 25.3827 41.275 25.2647 40.8944 25.2647C40.5137 25.2647 40.5137 25.2413 40.1331 25.2413C39.7524 25.2413 39.7524 25.4943 39.3718 25.4943C38.9911 25.4943 38.9911 25.5247 38.6105 25.5247C38.2298 25.5247 38.2304 25.6726 37.8509 25.6726C37.4714 25.6726 37.4709 25.3547 37.0914 25.3547C36.7119 25.3547 36.7101 25.5744 36.3289 25.5744C35.9477 25.5744 35.9483 25.2022 35.5682 25.2022C35.1881 25.2022 35.187 25.7275 34.8063 25.7275C34.4257 25.7275 34.4251 25.5516 34.0433 25.5516C33.6615 25.5516 33.6626 25.6661 33.2814 25.6661C32.9002 25.6661 32.8996 25.2764 32.5178 25.2764C32.1359 25.2764 32.1354 25.4283 31.753 25.4283C31.3706 25.4283 31.3706 25.634 30.9882 25.634C30.7144 25.634 30.534 25.7041 30.2958 25.8023C30.0488 25.9046 29.7697 25.8829 29.5841 26.0688C29.3984 26.2546 29.4335 26.5397 29.3307 26.7863C29.2315 27.0242 28.8864 27.1983 28.8864 27.4718C28.8864 27.7867 29.103 27.7867 29.103 28.1011C29.103 28.3752 29.1731 28.5733 29.2723 28.8111C29.3751 29.0577 29.4726 29.2435 29.6588 29.4293C29.8451 29.6152 30.0074 29.7706 30.2537 29.8729C30.4919 29.971 30.7144 29.8501 30.9882 29.8501C31.3817 29.8501 31.3817 30.3982 31.7746 30.3982C32.1675 30.3982 32.1675 29.9757 32.5604 29.9757C32.9533 29.9757 32.9539 30.0207 33.3468 30.0207C33.7397 30.0207 33.7397 29.9716 34.1332 29.9716C34.5267 29.9716 34.5267 30.2848 34.9196 30.2848C35.3125 30.2848 35.3119 29.8524 35.7042 29.8524C36.0966 29.8524 36.0966 30.2276 36.4889 30.2276C36.8812 30.2276 36.8824 30.2661 37.2764 30.2661C37.6705 30.2661 37.6694 29.9038 38.0623 29.9038C38.4552 29.9038 38.4558 30.0721 38.8492 30.0721C39.2427 30.0721 39.2433 30.0125 39.6374 30.0125C40.0315 30.0125 40.0309 30.3807 40.4244 30.3807C40.8179 30.3807 40.8185 30.0248 41.2131 30.0248C41.6078 30.0248 41.6084 30.2299 42.003 30.2299C42.3977 30.2299 42.3983 29.9342 42.6522 30.2369C42.8933 30.5238 42.4321 30.4163 42.3428 30.7804C42.2535 31.1444 42.6335 31.2397 42.5436 31.6049C42.4537 31.9701 42.229 31.914 42.139 32.2786C42.0491 32.6433 42.4485 32.742 42.3586 33.1072C42.2687 33.4725 42.1029 33.4321 42.0129 33.7979C41.923 34.1637 41.8617 34.148 41.7718 34.5132C41.6819 34.8784 41.5675 34.8509 41.4776 35.2161C41.3877 35.5814 41.2808 35.5568 41.1909 35.9232C41.101 36.2896 41.418 36.3924 41.118 36.6209C40.8062 36.8582 40.7846 36.604 40.3929 36.604C40.0011 36.604 40.0017 36.923 39.61 36.923C39.2182 36.923 39.2182 36.8091 38.8271 36.8091C38.4359 36.8091 38.4365 36.8552 38.0459 36.8552C37.6553 36.8552 37.6553 36.9698 37.2648 36.9698C36.8742 36.9698 36.873 36.559 36.4807 36.559C36.0884 36.559 36.0895 36.5876 35.6984 36.5876C35.3072 36.5876 35.3067 36.6011 34.9149 36.6011C34.5232 36.6011 34.5226 36.4608 34.1303 36.4608C33.7379 36.4608 33.7385 36.5859 33.3468 36.5859C32.955 36.5859 32.9545 36.6379 32.5615 36.6379C32.1686 36.6379 32.1681 36.9359 31.7751 36.9359C31.3822 36.9359 31.3817 36.6478 30.9887 36.6478C30.7149 36.6478 30.3611 36.5263 30.123 36.6244C29.876 36.7267 29.5788 36.933 29.3932 37.1182C29.2075 37.3034 29.0692 37.6295 28.967 37.8761C28.8677 38.1139 29.2589 38.44 29.2589 38.7135H29.2385C29.2385 39.0284 28.9997 39.0284 28.9997 39.3428C28.9997 39.6169 29.1141 39.8395 29.2134 40.0779C29.3161 40.3245 29.4469 40.5121 29.6331 40.6979C29.8194 40.8837 29.9571 41.1344 30.2041 41.2367C30.4423 41.3349 30.7149 41.3056 30.9887 41.3056C31.3209 41.3056 31.3209 41.1958 31.6531 41.1958C31.9853 41.1958 31.9865 41.4839 32.3193 41.4839C32.652 41.4839 32.6526 41.1823 32.9854 41.1823C33.3754 41.1823 33.3754 41.2262 33.7648 41.2262C34.1542 41.2262 34.1559 41.4301 34.5465 41.4301C34.9371 41.4301 34.9371 41.6101 35.3271 41.6101C35.7171 41.6101 35.7182 41.4769 36.1088 41.4769C36.4994 41.4769 36.5 41.5213 36.8917 41.5213C37.2835 41.5213 37.2823 41.2425 37.6734 41.2425C38.0646 41.2425 38.0652 41.0853 38.4569 41.0853C38.8487 41.0853 38.8492 41.5984 39.2416 41.5984C39.6339 41.5984 39.6129 41.1777 39.8458 41.4938C40.0893 41.8234 40.0233 41.7825 39.9258 42.1804C39.8283 42.5783 39.5346 42.5059 39.4371 42.9038C39.3397 43.3018 39.5323 43.3503 39.4342 43.7488C39.3361 44.1473 39.5043 44.1894 39.4056 44.5891C39.307 44.9888 39.0267 44.9192 38.9286 45.3189C38.8306 45.7186 38.9508 45.7484 38.8527 46.1487C38.7547 46.549 38.8878 46.5823 38.7897 46.9826C38.6916 47.3829 38.3332 47.2946 38.2351 47.6943C38.137 48.094 38.4172 48.1641 38.3191 48.565C38.2211 48.9659 38.1212 48.9419 38.0231 49.3439C37.9251 49.746 38.2158 49.8173 38.1177 50.2187C38.0249 50.5974 37.8579 50.5565 37.7645 50.9351C37.6711 51.3138 37.3068 51.2244 37.214 51.603C37.1211 51.9817 37.4744 52.0682 37.3815 52.4468C37.2887 52.8255 37.1147 52.7828 37.0213 53.1615C36.9279 53.5401 36.7709 53.5022 36.678 53.8808C36.5852 54.2595 36.8269 54.3191 36.7335 54.6977C36.6401 55.0764 36.5321 55.0501 36.4393 55.4293C36.3464 55.8086 36.4463 55.8325 36.3528 56.2118C36.2594 56.591 36.0055 56.5285 35.9127 56.9072C35.8198 57.2858 36.0931 57.3524 36.0002 57.7311C35.9074 58.1097 35.7912 58.0805 35.6984 58.4592C35.6056 58.8378 35.8169 58.8904 35.7235 59.2703C35.6301 59.6501 35.2763 59.5618 35.1829 59.9411C35.0895 60.3203 35.1595 60.3379 35.0661 60.7171C34.9727 61.0963 35.4106 61.2044 35.3172 61.5843C35.2238 61.9641 34.773 61.8525 34.6796 62.2317C34.5862 62.611 34.6919 62.6379 34.5985 63.0183C34.5051 63.3987 34.5027 63.3987 34.4093 63.7791C34.3159 64.1595 34.536 64.2144 34.442 64.5948C34.3871 64.8163 34.0345 64.7292 33.9796 64.9513C33.9791 64.9542 34.4677 65.074 34.4671 65.0769C34.3784 65.4398 33.9434 65.3329 33.8541 65.6957C33.7648 66.0586 33.9983 66.1165 33.909 66.4799C33.8197 66.8434 33.7292 66.82 33.6399 67.1829C33.5505 67.5458 33.7741 67.6013 33.6842 67.9642C33.5943 68.3271 33.2937 68.254 33.2037 68.6181C33.1138 68.9821 33.2761 69.0224 33.1868 69.3865C33.0695 69.8645 32.9188 69.8236 32.7869 70.2975C32.6865 70.6592 32.7892 70.6872 32.6736 71.0443C32.558 71.4013 32.4606 71.3698 32.3455 71.7268C32.2276 72.0926 32.4477 72.1633 32.3298 72.5291C32.2118 72.8949 32.2802 72.9165 32.1628 73.2823C32.0455 73.6481 31.7004 73.5365 31.5831 73.9017C31.4657 74.267 31.5901 74.3073 31.4727 74.6731C31.3554 75.0389 31.3367 75.033 31.2188 75.3988C31.1008 75.7646 31.3262 75.8371 31.2088 76.2023C31.0915 76.5675 30.9064 76.5091 30.7891 76.8749C30.6717 77.2407 30.9105 77.3161 30.7932 77.6801C30.6758 78.0442 30.3775 77.9501 30.2601 78.3165C30.1428 78.6829 30.0307 78.6455 29.9134 79.0107C29.796 79.3759 29.9303 79.4192 29.8129 79.7844C29.6956 80.1496 29.775 80.1765 29.6571 80.5429C29.5391 80.9092 29.7289 80.9694 29.6109 81.3352C29.493 81.701 29.0919 81.5725 28.974 81.9383C28.8561 82.3041 28.8234 82.2947 28.7054 82.6611C28.5875 83.0275 28.9191 83.1339 28.8018 83.5003C28.6844 83.8666 28.7095 83.8754 28.5916 84.2418C28.4737 84.6082 28.3336 84.5643 28.2156 84.9325C28.0977 85.3006 28.0831 85.2954 27.9646 85.6635C27.891 85.8943 27.811 86.124 27.7783 86.3554C27.7451 86.5938 27.8099 86.8345 27.8192 87.07C27.8286 87.3084 27.8688 87.5346 27.9208 87.766C27.9728 87.9974 28.0025 88.2317 28.0948 88.4514C28.1864 88.6682 28.2652 88.8979 28.3954 89.0995C28.5227 89.2958 28.8304 89.342 28.9933 89.5202C29.1503 89.692 29.2712 89.8755 29.4603 90.0268C29.5537 90.1028 29.618 90.1916 29.7114 90.2559C29.918 90.3985 30.1282 90.5019 30.3512 90.61C30.5766 90.7187 30.7459 90.9571 30.9835 91.0302C31.2211 91.1032 31.4651 91.2101 31.7115 91.247C31.9579 91.2838 32.2212 91.3369 32.4711 91.3369C32.7665 91.3369 33.0187 90.9326 33.3118 90.8806C33.6019 90.8291 33.8325 90.7257 34.1127 90.6229C34.3883 90.5218 34.6971 90.5662 34.9564 90.4148C35.2891 90.2197 35.3353 90.2986 35.668 90.1034C36.0008 89.9082 36.0948 90.0683 36.4276 89.8726C36.7604 89.6768 36.6051 89.4133 36.9378 89.2181C37.2706 89.0229 37.2729 89.0282 37.6051 88.833C37.9373 88.6378 38.0932 88.9037 38.4254 88.7085C38.7576 88.5134 38.5731 88.1972 38.9065 88.0021C39.2398 87.8069 39.4494 88.1651 39.7822 87.9693C40.115 87.7736 40.1313 87.8022 40.4641 87.607C40.7969 87.4119 40.7233 87.2857 41.0561 87.0905C41.3888 86.8953 41.3976 86.9088 41.7304 86.713C42.0632 86.5172 42.1151 86.6066 42.4479 86.4109C42.7807 86.2151 42.5711 85.8604 42.9021 85.6658C43.2331 85.4713 43.4135 85.778 43.7457 85.5829C44.0779 85.3877 44.103 85.4274 44.4364 85.2317C44.7697 85.0359 44.6804 84.8846 45.0132 84.6894C45.3459 84.4942 45.2677 84.3604 45.6005 84.1652C45.9333 83.9701 46.071 84.2026 46.405 84.0069C46.7389 83.8111 46.7401 83.8146 47.0735 83.6195C47.4068 83.4243 47.3624 83.3472 47.6964 83.1514C48.0303 82.9556 47.9971 82.8984 48.331 82.702C48.6649 82.5057 48.7531 82.657 49.0865 82.4613C49.4198 82.2655 49.4654 82.3415 49.7993 82.1457C50.1332 81.95 49.954 81.6409 50.2891 81.4445C50.6242 81.2482 50.6085 81.2213 50.9436 81.025C51.2267 80.859 51.246 81.0343 51.5741 81.0325C51.8981 81.0308 51.9331 80.8263 52.2134 80.9899C52.5461 81.1845 52.5876 81.1144 52.9204 81.3095C53.2531 81.5047 53.1142 81.7431 53.447 81.9383C53.7798 82.1335 53.7114 82.2497 54.0436 82.4455C54.3758 82.6413 54.5305 82.3771 54.8627 82.5723C55.1949 82.7675 55.0688 82.9837 55.401 83.1789C55.7332 83.374 55.69 83.4494 56.0234 83.6446C56.3567 83.8398 56.5879 83.4453 56.9207 83.6405C57.2535 83.8357 57.2704 83.807 57.6032 84.0022C57.9359 84.1974 57.9021 84.2558 58.2349 84.451C58.5676 84.6462 58.4812 84.7946 58.8146 84.9903C59.1479 85.1861 59.1643 85.1569 59.4971 85.352C59.8298 85.5472 59.7983 85.5981 60.1299 85.7926C60.4615 85.9872 60.308 86.2496 60.6402 86.4448C60.9724 86.64 61.0611 86.4915 61.3945 86.6873C61.7278 86.883 61.8691 86.6405 62.2019 86.8357C62.5347 87.0309 62.5767 86.959 62.9095 87.1548C63.2422 87.3505 63.1833 87.4534 63.5172 87.6497C63.8512 87.846 63.7081 88.0885 64.0415 88.2843C64.3748 88.4801 64.4823 88.2977 64.8162 88.4935C65.1501 88.6893 65.2424 88.5327 65.5763 88.729C65.9103 88.9253 65.6738 89.328 66.0078 89.5237C66.3417 89.7195 66.4988 89.4524 66.8327 89.6488C67.1666 89.8451 67.1666 89.8469 67.5018 90.0438C67.8369 90.2407 67.876 90.1741 68.2111 90.371C68.4452 90.5095 68.6565 90.6328 68.9053 90.7286C69.158 90.8262 69.4062 90.8321 69.6683 90.887C69.9328 90.9425 70.154 91.237 70.422 91.2493C70.69 91.2616 70.9328 90.9396 71.2002 90.9086C71.4676 90.8776 71.8062 91.2452 72.0654 91.1722C72.3247 91.0991 72.5693 90.9273 72.8139 90.8134C73.0562 90.7006 73.2716 90.5159 73.4958 90.3628C73.595 90.3044 73.5974 90.1168 73.6908 90.0409C73.8799 89.8895 74.0288 89.7282 74.1859 89.5564C74.3488 89.3782 74.6804 89.3367 74.8076 89.1404C74.9378 88.9388 75.1842 88.7658 75.2753 88.549C75.3681 88.3293 75.2613 88.0184 75.3132 87.787C75.3652 87.5556 75.1042 87.3008 75.1135 87.0624C75.1223 86.8275 75.3874 86.5955 75.3541 86.3571C75.3214 86.1257 75.277 85.8861 75.2035 85.6553L75.2017 85.6541ZM46.6216 78.2738C46.6052 78.6595 46.3986 78.59 46.0658 78.7851C45.733 78.9803 45.6957 78.9166 45.3629 79.1118C45.0301 79.307 44.9285 79.1346 44.5952 79.3303C44.2618 79.5261 44.4527 79.8516 44.1194 80.0473C43.786 80.2431 43.7008 80.0964 43.368 80.2922C43.0352 80.4879 43.138 80.6638 42.8046 80.859C42.4712 81.0542 42.1922 80.5785 41.8582 80.7737C41.5243 80.9689 41.5255 80.9706 41.1927 81.1658C40.8599 81.361 41.1127 81.791 40.7811 81.9856C40.4495 82.1802 40.4734 82.2223 40.1406 82.4169C39.8079 82.6115 39.5329 82.1451 39.1995 82.3415C38.8662 82.5378 39.1429 83.0094 38.8095 83.2046C38.4762 83.3997 38.3769 83.2303 38.0442 83.4255C37.7114 83.6206 37.754 83.6972 37.4201 83.8935C37.0861 84.0899 36.9016 83.7731 36.5677 83.9689C36.2338 84.1647 36.4766 84.5801 36.1427 84.7759C35.8087 84.9716 35.7416 84.8589 35.4071 85.0546C35.0725 85.2504 34.9424 85.0277 34.6084 85.2235C34.2745 85.4192 34.4444 85.7108 34.1098 85.9072C33.7753 86.1035 33.7928 86.1357 33.4571 86.332C33.1214 86.5283 32.8774 86.1123 32.5423 86.3098C32.5248 86.3215 32.5154 86.4787 32.5038 86.4851C32.6153 86.1234 32.8441 86.1958 32.9597 85.8359C33.0753 85.4759 32.7303 85.3637 32.8465 85.0032C32.9626 84.6426 33.0017 84.6555 33.1179 84.295C33.2341 83.9344 33.3719 83.9794 33.4875 83.6189C33.6031 83.2583 33.4665 83.2139 33.5821 82.8534C33.6977 82.4928 33.8156 82.5302 33.9318 82.1697C34.0479 81.8091 34.0888 81.8226 34.2044 81.462C34.32 81.1015 34.1396 81.0431 34.2558 80.6819C34.372 80.3208 34.3305 80.3097 34.4461 79.9503C34.5617 79.591 34.8437 79.6798 34.9599 79.3187C35.076 78.9575 34.8139 78.874 34.9301 78.514C35.0463 78.154 35.1432 78.185 35.2594 77.8251C35.3755 77.4651 35.264 77.4277 35.3802 77.066C35.4964 76.7043 35.7107 76.7744 35.8262 76.4133C35.9418 76.0521 36.1456 76.1176 36.2618 75.7565C36.378 75.3953 35.9272 75.2498 36.0434 74.8881C36.1596 74.5264 36.6407 74.6819 36.7569 74.3207C36.873 73.9596 36.5397 73.8515 36.6559 73.4898C36.772 73.1281 36.6594 73.0907 36.7755 72.7278C36.8917 72.3649 36.8438 72.0733 37.2017 71.943C37.5543 71.815 37.4358 72.4835 37.7493 72.6898C38.0628 72.8961 38.3238 72.4964 38.6362 72.7021C38.9485 72.9078 38.6759 73.3215 38.9876 73.5272C39.2994 73.7329 39.5884 73.294 39.9007 73.4997C40.213 73.7054 40.0764 73.9164 40.3899 74.1232C40.7034 74.3301 40.6947 74.3418 41.0082 74.548C41.3217 74.7543 41.4612 74.5416 41.7742 74.7473C42.0871 74.953 41.8647 75.2948 42.1787 75.5017C42.4928 75.7086 42.6878 75.4111 43.0013 75.6174C43.3149 75.8237 43.3172 75.8213 43.6313 76.0282C43.9454 76.2351 43.9705 76.1941 44.2828 76.4004C44.5975 76.6073 44.4101 76.8919 44.7248 77.0987C45.0394 77.3056 45.2391 77.0029 45.5538 77.2097C45.8685 77.4166 45.733 77.5744 46.088 77.7041C46.4634 77.8408 46.6385 77.8969 46.6228 78.2744L46.6216 78.2738ZM38.8901 67.544C38.8872 67.1642 39.0915 67.2203 39.4085 67.0117C39.7256 66.8031 39.767 66.8644 40.0846 66.6552C40.4022 66.446 40.512 66.6138 40.8295 66.4046C41.1471 66.1954 40.9393 65.8804 41.2569 65.6712C41.5745 65.462 41.6673 65.6034 41.9849 65.3948C42.3025 65.1862 42.191 65.015 42.5086 64.8058C42.8262 64.5966 43.1286 65.0588 43.445 64.8502C43.7615 64.6416 43.7603 64.641 44.0767 64.4324C44.3932 64.2238 44.1194 63.8071 44.4364 63.5985C44.7534 63.3899 44.7283 63.349 45.0464 63.1392C45.3646 62.9294 45.6612 63.3829 45.9788 63.1737C46.2964 62.9645 45.9957 62.5075 46.3133 62.2983C46.6309 62.0891 46.7395 62.2528 47.0583 62.0436C47.377 61.8344 47.328 61.7607 47.6462 61.5515C47.9644 61.3424 48.1658 61.648 48.484 61.4382C48.8021 61.2284 48.5371 60.8275 48.8541 60.6189C49.1729 60.4091 49.2453 60.519 49.564 60.3092C49.8828 60.0994 50.0252 60.3151 50.3446 60.1047C50.6639 59.8943 50.4794 59.6121 50.7994 59.4011C51.1193 59.1902 51.1829 58.9062 51.5659 58.905C51.9454 58.9039 51.7662 59.5607 52.0832 59.7693C52.4002 59.9779 52.5794 59.7068 52.897 59.9154C53.2146 60.124 53.085 60.3215 53.4026 60.5307C53.7202 60.7399 53.9193 60.436 54.2363 60.6452C54.5533 60.8544 54.5311 60.8889 54.8487 61.0981C55.1663 61.3073 55.0869 61.4288 55.4045 61.638C55.7221 61.8472 55.8003 61.7257 56.1168 61.9343C56.4332 62.1429 56.3649 62.2458 56.6813 62.4538C56.9977 62.6618 56.9744 62.6986 57.2908 62.9067C57.6072 63.1147 57.7135 62.9575 58.0317 63.1667C58.3499 63.3759 58.3726 63.3397 58.6902 63.5489C59.0078 63.758 58.8455 64.0052 59.1625 64.2138C59.4795 64.4225 59.6319 64.194 59.9507 64.4032C60.2694 64.6124 60.2122 64.6983 60.5304 64.9075C60.8486 65.1167 60.9134 65.0191 61.2316 65.2289C61.5498 65.4386 61.4248 65.6256 61.7418 65.8348C62.0606 66.0446 61.9432 66.2234 62.262 66.4332C62.5808 66.643 62.8412 66.2474 63.1605 66.4577C63.4799 66.6681 63.2031 67.0912 63.5231 67.3021C63.843 67.5131 64.414 67.1595 64.4169 67.5429C64.4198 67.9227 64.1039 67.9654 63.7869 68.1746C63.4699 68.3837 63.4092 68.2926 63.0916 68.5018C62.774 68.711 62.5644 68.3925 62.2474 68.6011C61.9304 68.8097 62.1925 69.2088 61.8749 69.418C61.5573 69.6272 61.2853 69.2129 60.9677 69.4221C60.6501 69.6313 60.9379 70.0702 60.6203 70.2794C60.3027 70.4886 60.1655 70.2776 59.8491 70.4856C59.5327 70.6937 59.5245 70.6814 59.2087 70.8894C58.8928 71.0975 59.0318 71.3107 58.7153 71.5194C58.3989 71.728 58.1735 71.3879 57.8554 71.5977C57.5372 71.8074 57.7334 72.1037 57.4158 72.3129C57.0982 72.5221 57.0999 72.5244 56.7823 72.7336C56.4647 72.9428 56.4898 72.9832 56.1716 73.1929C55.8535 73.4027 55.6666 73.1181 55.349 73.3273C55.0315 73.5365 55.23 73.8404 54.9118 74.0502C54.5936 74.26 54.5317 74.1635 54.2147 74.3721C53.8959 74.5819 53.6858 74.2623 53.367 74.4721C53.0482 74.6819 53.238 74.9717 52.9186 75.1821C52.5993 75.3924 52.4924 75.2311 52.1725 75.4421C51.8526 75.653 51.9501 75.94 51.5665 75.9411C51.187 75.9423 51.2711 75.6741 50.9535 75.4655C50.6359 75.2569 50.6161 75.2867 50.2985 75.0775C49.9809 74.8683 49.8308 75.0967 49.5132 74.8875C49.1956 74.6783 49.4397 74.3073 49.1227 74.0987C48.8056 73.8901 48.8599 73.8065 48.5423 73.5973C48.2247 73.3881 48.1004 73.5768 47.7822 73.3677C47.464 73.1585 47.4039 73.2531 47.0875 73.0445C46.771 72.8359 46.7226 72.9101 46.4067 72.7021C46.0909 72.4941 46.2491 72.2515 45.9321 72.0435C45.6151 71.8355 45.67 71.7484 45.3518 71.5392C45.0336 71.33 44.9706 71.4276 44.653 71.2184C44.3354 71.0092 44.1164 71.3423 43.7994 71.1337C43.4824 70.9251 43.5198 70.8649 43.201 70.6551C42.8822 70.4453 42.9015 70.4179 42.5833 70.2087C42.2652 69.9995 42.4035 69.7885 42.0848 69.5787C41.766 69.369 41.8104 69.3053 41.4928 69.0967C41.174 68.8869 41.0345 69.099 40.7157 68.8892C40.3969 68.6794 40.4273 68.6321 40.108 68.4223C39.7886 68.2125 39.7723 68.3078 39.4126 68.1746C39.0349 68.0343 38.8919 67.9291 38.8889 67.5452L38.8901 67.544ZM65.8793 72.1107C66.236 72.2364 66.1397 72.3912 66.2553 72.7512C66.3709 73.1111 66.3009 73.1345 66.4164 73.4956C66.532 73.8568 66.3417 73.9175 66.4573 74.2787C66.5729 74.6398 66.9325 74.5235 67.0481 74.884C67.1637 75.2446 67.0032 75.2966 67.1188 75.6571C67.2344 76.0177 67.4288 75.9557 67.5444 76.3169C67.66 76.678 67.1345 76.8463 67.2507 77.2074C67.3669 77.5685 67.3681 77.5679 67.4837 77.9291C67.5993 78.2902 68.0739 78.1359 68.1889 78.4953C68.3039 78.8547 68.3506 78.8418 68.4668 79.203C68.583 79.5641 68.0675 79.7289 68.1831 80.0894C68.2987 80.45 68.8194 80.2822 68.935 80.6428C69.0506 81.0033 68.8638 81.0647 68.98 81.4258C69.0962 81.7869 69.1791 81.7601 69.2952 82.1212C69.4114 82.4823 69.0629 82.5945 69.1791 82.9562C69.2952 83.3179 69.753 83.1713 69.8685 83.533C69.9841 83.8947 69.8592 83.9344 69.9754 84.2961C70.0916 84.6578 69.8458 84.7373 69.962 85.099C70.0781 85.4607 70.3992 85.3585 70.516 85.7219C70.6328 86.0854 70.6725 86.0755 70.7846 86.4395C70.7729 86.4337 70.6071 86.3156 70.5954 86.3104C70.2626 86.1158 70.0986 86.3957 69.7658 86.2005C69.433 86.0053 69.5521 85.802 69.2193 85.6062C68.8866 85.4105 68.7027 85.7237 68.3693 85.5279C68.0359 85.3322 68.057 85.2965 67.7236 85.1008C67.3903 84.905 67.4638 84.78 67.131 84.5848C66.7983 84.3896 66.7247 84.5135 66.3913 84.3178C66.058 84.122 66.1205 84.0151 65.7865 83.8193C65.4526 83.6235 65.4753 83.5862 65.142 83.391C64.8086 83.1958 64.714 83.36 64.3824 83.1654C64.0508 82.9708 64.0286 83.0071 63.6959 82.8125C63.3631 82.6179 63.5114 82.3614 63.1774 82.1656C62.8435 81.9698 62.7051 82.2071 62.3724 82.0119C62.0396 81.8167 62.091 81.7279 61.7576 81.5322C61.4242 81.3364 61.3641 81.4375 61.0296 81.2412C60.695 81.0448 60.8095 80.8508 60.4761 80.6551C60.1428 80.4593 60.2502 80.2746 59.9162 80.0783C59.5823 79.882 59.3423 80.291 59.0078 80.0947C58.6733 79.8983 58.9296 79.4624 58.5956 79.2661C58.2617 79.0697 58.0836 79.3724 57.7491 79.1761C57.4146 78.9797 57.3533 79.082 57.0182 78.8851C56.6831 78.6881 56.3515 78.6677 56.3304 78.2791C56.31 77.9039 56.9189 78.2616 57.2324 78.0553C57.5459 77.849 57.2826 77.4505 57.595 77.2448C57.9073 77.0391 58.1794 77.4534 58.4911 77.2483C58.8029 77.0432 58.5157 76.6038 58.828 76.3981C59.1403 76.1924 59.2799 76.4016 59.594 76.1953C59.9081 75.989 59.9157 76.0019 60.2286 75.7956C60.5415 75.5893 60.402 75.3766 60.7155 75.1704C61.029 74.9641 61.2538 75.3042 61.5679 75.0973C61.8819 74.8905 61.6864 74.5936 62.0005 74.3868C62.3146 74.1799 62.3128 74.1776 62.6275 73.9707C62.9422 73.7638 62.9141 73.7247 63.2271 73.519C63.5417 73.3121 63.7286 73.5961 64.0432 73.3893C64.3579 73.1824 64.1588 72.8786 64.4741 72.6711C64.7893 72.4637 64.8775 72.6454 65.1408 72.3743C65.4158 72.0914 65.522 71.9863 65.8788 72.1119L65.8793 72.1107ZM63.164 61.2126C62.8844 61.4499 62.8079 61.1571 62.502 60.9555C62.196 60.7539 62.2352 60.6914 61.9281 60.4886C61.621 60.2859 61.7313 60.1193 61.4248 59.9171C61.1183 59.7149 60.9105 60.0305 60.604 59.8289C60.2975 59.6273 60.3891 59.4847 60.0815 59.2819C59.7738 59.0792 59.6623 59.2498 59.3552 59.0476C59.0481 58.8454 59.3511 58.3838 59.0434 58.181C58.7358 57.9783 58.7363 57.9806 58.4298 57.779C58.1222 57.5762 57.8478 57.9929 57.5401 57.7901C57.2324 57.5873 57.205 57.6271 56.8967 57.4243C56.5885 57.2215 56.8851 56.7681 56.5756 56.5647C56.2662 56.3614 55.5113 56.7365 55.5318 56.3666C55.554 55.9687 56.0969 56.0949 56.4297 55.8764C56.7625 55.6578 56.7134 55.5848 57.0456 55.3662C57.3778 55.1477 57.5792 55.4533 57.9114 55.2347C58.2436 55.0162 57.9803 54.6142 58.3131 54.395C58.6459 54.1759 58.7177 54.2863 59.0499 54.0678C59.382 53.8493 59.5245 54.0649 59.8573 53.8458C60.19 53.6266 60.0056 53.3444 60.3395 53.1247C60.6734 52.905 60.8544 52.4877 61.2281 52.628C61.5941 52.7653 61.0197 53.3099 61.1131 53.6897C61.2065 54.0696 61.5217 53.9913 61.6151 54.3699C61.7086 54.7486 61.4797 54.8053 61.5725 55.1839C61.6653 55.5626 62.0186 55.4773 62.112 55.8577C62.2054 56.2381 62.1651 56.2474 62.2579 56.6267C62.3508 57.0059 62.2106 57.0415 62.304 57.4214C62.3975 57.8012 62.5376 57.7673 62.631 58.1483C62.7244 58.5293 62.6041 58.5579 62.6975 58.9378C62.7909 59.3176 62.7489 59.3287 62.8429 59.7097C62.9369 60.0907 63.0145 60.0299 63.1961 60.3782C63.3905 60.7498 63.4629 60.9584 63.1634 61.2126H63.164ZM48.7846 25.4628C48.8734 25.1011 48.7006 25.0584 48.7899 24.6967C48.8792 24.335 48.9504 24.3531 49.0392 23.9914C49.1279 23.6297 49.3223 23.6776 49.4111 23.3159C49.4998 22.9542 49.1332 22.8654 49.2213 22.5054C49.3095 22.1454 49.4741 22.184 49.5634 21.8223C49.6528 21.4606 49.4543 21.4127 49.543 21.0515C49.6317 20.6904 50.1677 20.8225 50.2564 20.4614C50.3452 20.1002 50.344 20.0985 50.4333 19.7368C50.5226 19.3751 50.0381 19.2558 50.1268 18.8941C50.2156 18.5324 50.1689 18.5207 50.2582 18.1584C50.3475 17.7961 50.8729 17.9253 50.9617 17.5624C51.0504 17.1995 50.5197 17.0698 50.6085 16.7075C50.6972 16.3452 50.8881 16.392 50.9774 16.0291C51.0668 15.6662 50.9815 15.6446 51.0708 15.2811C51.1602 14.9176 51.4713 15.0135 51.5986 14.6617C51.692 14.6383 51.9028 14.4741 51.9962 14.4975C52.1235 14.8475 51.9664 14.92 52.0552 15.2817C52.1439 15.6434 51.8929 15.7048 51.9822 16.0659C52.0715 16.427 52.3984 16.347 52.4872 16.7087C52.5759 17.0704 52.611 17.0604 52.6997 17.4204C52.7884 17.7804 52.3208 17.8972 52.4095 18.2595C52.4983 18.6218 52.8141 18.5429 52.9029 18.9041C52.9916 19.2652 52.7627 19.3213 52.8515 19.6824C52.9402 20.0435 53.2928 19.9582 53.3816 20.3199C53.4703 20.6817 53.43 20.6916 53.5188 21.0533C53.6075 21.415 53.4668 21.4501 53.5556 21.8124C53.6443 22.1747 53.7844 22.1408 53.8737 22.5031C53.9631 22.8654 53.8428 22.8946 53.9315 23.2569C54.0203 23.6192 53.9788 23.6297 54.0676 23.9926C54.1563 24.3555 54.3414 24.311 54.4307 24.6745C54.52 25.038 54.5615 25.028 54.6508 25.3915C54.6508 25.3927 54.398 25.4225 54.3968 25.4225C53.994 25.4236 53.994 25.6977 53.5918 25.6977C53.1895 25.6977 53.1883 25.5954 52.7855 25.5954C52.3827 25.5954 52.3821 25.7129 51.9781 25.7129C51.5741 25.7129 51.5753 25.4873 51.1718 25.4873C50.7684 25.4873 50.7678 25.2735 50.3638 25.2735C49.9598 25.2735 49.9593 25.7474 49.5547 25.7474C49.1501 25.7474 49.1478 25.2372 48.7432 25.2413C48.7227 25.2413 48.7846 25.464 48.7846 25.464V25.4628ZM47.6252 30.1498C47.941 29.9114 47.9971 29.9798 48.3929 29.9798C48.7887 29.9798 48.7887 30.054 49.1845 30.054C49.5804 30.054 49.5815 30.2544 49.9785 30.2544C50.3755 30.2544 50.3749 29.877 50.7713 29.877C51.1678 29.877 51.1683 30.0464 51.5653 30.0464C51.9623 30.0464 51.9629 29.8425 52.3599 29.8425C52.7569 29.8425 52.7569 30.3947 53.1533 30.3947C53.5497 30.3947 53.5509 30.3935 53.9491 30.3935C54.3472 30.3935 54.3472 29.8945 54.746 29.8945C55.1447 29.8945 55.3864 29.6619 55.7058 29.9003C56.0058 30.1247 55.3712 30.5472 55.4611 30.9113C55.5511 31.2753 56.0817 31.1456 56.1716 31.5114C56.2616 31.8772 56.0706 31.9233 56.16 32.288C56.2493 32.6526 56.3351 32.6322 56.4244 32.9974C56.5138 33.3626 56.1588 33.4502 56.2487 33.816C56.3386 34.1818 56.8051 34.0661 56.895 34.4314C56.9849 34.7966 56.857 34.8287 56.947 35.1939C57.0369 35.5592 56.7864 35.6223 56.8763 35.9892C56.9662 36.3562 57.5728 36.5397 57.3428 36.8389C57.1157 37.134 56.787 36.9657 56.4151 36.9657C56.0432 36.9657 56.0432 36.4836 55.6713 36.4836C55.2994 36.4836 55.2988 36.8091 54.927 36.8091C54.5551 36.8091 54.5562 36.5736 54.1855 36.5736C53.8148 36.5736 53.813 36.9371 53.4406 36.9371C53.0681 36.9371 53.0692 36.8956 52.6974 36.8956C52.3255 36.8956 52.326 36.7501 51.9542 36.7501C51.5823 36.7501 51.5811 36.8944 51.2086 36.8944C50.8362 36.8944 50.8367 36.7705 50.4643 36.7705C50.0918 36.7705 50.0918 36.7273 49.7187 36.7273C49.3457 36.7273 49.3457 36.9172 48.9726 36.9172C48.5996 36.9172 48.6001 36.9598 48.2277 36.9598C47.8552 36.9598 47.854 36.6642 47.481 36.6642C47.1079 36.6642 47.1067 36.9394 46.7331 36.9394C46.3595 36.9394 46.1061 37.0785 45.8761 36.7834C45.646 36.4883 45.8264 36.2726 45.9158 35.9086C46.0051 35.5445 46.224 35.5971 46.3139 35.2319C46.4038 34.8667 46.6111 34.9181 46.701 34.5535C46.7909 34.1889 46.3308 34.0749 46.4208 33.7097C46.5107 33.3445 47.0017 33.4649 47.091 33.0991C47.1803 32.7333 46.8405 32.6503 46.9304 32.2851C47.0203 31.9198 46.9047 31.8906 46.9946 31.5254C47.0846 31.1602 47.2509 31.2198 47.2766 30.8429C47.3029 30.4596 47.3251 30.3789 47.6263 30.151L47.6252 30.1498ZM44.859 41.3915C45.1504 41.1572 45.2076 41.2221 45.5812 41.2221C45.9549 41.2221 45.9549 41.2963 46.3279 41.2963C46.701 41.2963 46.7016 41.4967 47.0752 41.4967C47.4489 41.4967 47.4494 41.1192 47.8231 41.1192C48.1967 41.1192 48.1967 41.2887 48.5704 41.2887C48.944 41.2887 48.9446 41.0848 49.3182 41.0848C49.6919 41.0848 49.6919 41.637 50.0661 41.637C50.4403 41.637 50.4403 41.6358 50.814 41.6358C51.1876 41.6358 51.187 41.1368 51.5601 41.1368C51.9331 41.1368 51.9331 41.0883 52.3062 41.0883C52.6793 41.0883 52.6804 41.63 53.0552 41.63C53.43 41.63 53.4289 41.0824 53.8031 41.0824C54.1773 41.0824 54.1773 41.2793 54.5516 41.2793C54.9258 41.2793 54.9264 41.1917 55.3012 41.1917C55.676 41.1917 55.6754 41.5581 56.0496 41.5581C56.4239 41.5581 56.4244 41.0772 56.7998 41.0772C57.1752 41.0772 57.1752 41.2086 57.5512 41.2086C57.9272 41.2086 57.9424 41.2104 58.2366 41.4441C58.5361 41.682 58.6184 41.6773 58.7101 42.0483C58.8017 42.4194 58.8373 42.4124 58.929 42.7846C59.0207 43.1569 58.553 43.272 58.6447 43.6442C58.7363 44.0164 59.0522 43.9387 59.1439 44.3115C59.2355 44.6843 59.0072 44.741 59.0989 45.1138C59.1906 45.4866 59.5432 45.3996 59.6348 45.7718C59.7265 46.144 59.6862 46.1546 59.7785 46.5274C59.8707 46.9002 59.7294 46.9364 59.8217 47.3104C59.9139 47.6844 60.2782 47.7837 60.1381 48.1425C59.998 48.5013 59.6745 48.3424 59.354 48.5539C59.0335 48.7654 59.009 48.7292 58.6879 48.9401C58.3668 49.1511 58.4695 49.3112 58.1467 49.5233C57.8238 49.7354 57.8484 49.7711 57.5261 49.9826C57.2038 50.1942 57.0415 49.947 56.7198 50.1591C56.3982 50.3712 56.5476 50.6014 56.2248 50.8142C55.9019 51.0269 55.8459 50.941 55.5236 51.1531C55.2013 51.3652 55.265 51.4634 54.9421 51.6761C54.6193 51.8888 54.4967 51.6994 54.1756 51.911C53.8521 52.1237 53.7348 51.9449 53.4119 52.1576C53.0891 52.3703 53.3483 52.7665 53.0243 52.9797C52.7003 53.193 52.4218 52.7706 52.0972 52.9844C51.7726 53.1983 51.9547 53.7254 51.5665 53.7271C51.1829 53.7289 51.1059 53.5933 50.7854 53.3829C50.4648 53.1726 50.5244 53.0808 50.2039 52.8693C49.8834 52.6578 50.0912 52.3387 49.7689 52.1266C49.4467 51.9145 49.1851 52.3142 48.8634 52.1026C48.5418 51.8911 48.8138 51.4768 48.4927 51.2653C48.1716 51.0537 47.882 51.4914 47.5592 51.2793C47.2363 51.0672 47.3753 50.8568 47.053 50.6453C46.7308 50.4337 46.7389 50.4203 46.4161 50.2082C46.0932 49.9961 45.9549 50.2099 45.6338 49.9984C45.3109 49.7857 45.5345 49.445 45.2123 49.2329C44.89 49.0208 44.6938 49.3176 44.3704 49.1043C44.047 48.8911 44.0446 48.8934 43.72 48.6801C43.3954 48.4668 43.0913 48.534 42.9476 48.1729C42.8058 47.8176 43.3581 47.7253 43.4491 47.3536C43.5402 46.982 43.1882 46.8943 43.2798 46.5215C43.3715 46.1487 43.4824 46.1768 43.5735 45.804C43.6646 45.4311 44.0364 45.5223 44.1275 45.1495C44.2186 44.7767 43.8829 44.6937 43.974 44.3203C44.0651 43.9469 44.253 43.9936 44.3441 43.6208C44.4352 43.248 44.35 43.2264 44.4416 42.8536C44.5333 42.4808 44.66 42.4983 44.6892 42.1138C44.7183 41.7234 44.5584 41.6346 44.8585 41.3933L44.859 41.3915ZM47.2819 56.3842C47.3064 56.7494 47.0921 56.698 46.7868 56.899C46.4815 57.1 46.4394 57.0392 46.1323 57.2408C45.8253 57.4424 45.7161 57.2747 45.4102 57.4763C45.1042 57.6779 45.3115 57.9935 45.005 58.1951C44.6985 58.3967 44.6051 58.2558 44.298 58.458C43.9909 58.6602 44.103 58.8302 43.7965 59.0318C43.49 59.2334 43.1864 58.7724 42.8793 58.9746C42.5722 59.1768 42.5746 59.1773 42.2687 59.3784C41.961 59.5805 42.2354 59.9978 41.9277 60.2C41.62 60.4021 41.6463 60.443 41.3386 60.6458C41.031 60.8486 40.7326 60.3963 40.4238 60.5996C40.115 60.803 40.0647 61.6801 39.7787 61.447C39.4763 61.2004 39.9678 60.8328 40.0612 60.4536C40.1547 60.0743 40.0688 60.0544 40.1617 59.6764C40.2545 59.2983 40.61 59.3854 40.7029 59.0073C40.7957 58.6292 40.3292 58.5129 40.4226 58.1337C40.516 57.7545 40.6433 57.786 40.7361 57.4074C40.829 57.0287 41.08 57.0895 41.1734 56.7102C41.2668 56.331 40.9393 56.2498 41.0327 55.8699C41.1261 55.4901 41.0905 55.4819 41.1833 55.1027C41.2762 54.7234 41.7444 54.8374 41.8378 54.4576C41.9312 54.0777 41.6154 53.9994 41.7088 53.6184C41.8022 53.2374 41.6819 53.1393 42.048 52.9996C42.4193 52.8582 42.4666 52.902 42.7988 53.1206C43.131 53.3391 43.1076 53.3736 43.4392 53.5916C43.7708 53.8095 43.6914 53.9311 44.0236 54.1496C44.3558 54.3682 44.4352 54.2478 44.7674 54.4663C45.0996 54.6849 45.0313 54.7883 45.3635 55.0063C45.6957 55.2242 45.6723 55.261 46.0045 55.4796C46.3367 55.6981 46.36 55.5959 46.7331 55.7373C47.1231 55.8851 47.2556 55.985 47.2825 56.3836L47.2819 56.3842Z" fill="#7A7671"/>
</g>
<defs>
<clipPath id="clip0_2973_8605">
<rect width="84" height="89" fill="white" transform="translate(10 8)"/>
</clipPath>
</defs>
</svg>
