<svg width="104" height="104" viewBox="0 0 104 104" fill="none" xmlns="http://www.w3.org/2000/svg">
<g clip-path="url(#clip0_2973_8626)">
<path d="M103.997 92.0398C103.997 92.3894 104.035 92.6199 103.835 92.9602C103.67 93.2401 103.775 93.8034 103.479 94.075C103.238 94.298 102.773 94.2979 102.448 94.515C102.17 94.7011 101.884 94.9165 101.547 95.0976C101.249 95.2577 100.834 95.1948 100.491 95.3516C100.18 95.4932 100.083 96.2082 99.7364 96.3465C99.4176 96.4739 98.8526 95.9601 98.5035 96.0841C98.1781 96.1998 98.0276 96.8939 97.6769 97.007C97.3474 97.1135 97.0097 97.2526 96.6589 97.3565C96.3262 97.4555 95.9509 97.4555 95.5993 97.5518C95.2633 97.644 94.8692 97.546 94.516 97.6348C94.1775 97.7203 93.8684 97.9718 93.5152 98.0556C93.1751 98.1361 92.7041 97.6432 92.3493 97.7212C92.0075 97.7974 91.6821 97.9642 91.3273 98.0388C90.9839 98.1101 90.6454 98.2241 90.2905 98.2937C89.9455 98.3615 89.5694 98.2618 89.2138 98.328C88.8679 98.3917 88.6226 99.0656 88.2678 99.1277C87.9211 99.188 87.5049 98.8502 87.1493 98.9089C86.8018 98.9667 86.4633 99.1017 86.1076 99.1578C85.7593 99.2123 85.3857 99.1109 85.03 99.1637C84.6809 99.2157 84.3326 99.2836 83.9761 99.3339C83.627 99.3833 83.2836 99.4965 82.9271 99.5443C82.578 99.5912 82.2804 100.071 81.9247 100.116C81.5756 100.16 81.2289 100.274 80.8733 100.317C80.5233 100.359 80.1284 100.038 79.7728 100.078C79.422 100.118 79.0933 100.396 78.7369 100.434C78.3853 100.473 78.0452 100.656 77.6887 100.693C77.3371 100.729 76.9659 100.607 76.6094 100.641C76.257 100.676 75.8523 100.144 75.495 100.176C75.1426 100.209 74.7992 100.366 74.4419 100.397C74.0887 100.428 73.7731 100.947 73.4158 100.977C73.0626 101.006 72.6734 100.593 72.3153 100.621C71.9613 100.648 71.6244 100.929 71.2663 100.955C70.9123 100.981 70.5297 100.596 70.1715 100.621C69.8191 100.644 69.4995 101.221 69.143 101.244C68.7898 101.267 68.4218 101.079 68.0654 101.1C67.7113 101.121 67.3679 101.365 67.0106 101.384C66.6566 101.403 66.2813 101.029 65.924 101.047C65.5692 101.065 65.2119 101.043 64.8546 101.06C64.4998 101.076 64.1547 101.362 63.7966 101.377C63.4409 101.392 63.0812 101.328 62.7231 101.341C62.369 101.355 62.0207 101.58 61.6635 101.593C61.3086 101.605 60.9489 101.52 60.5916 101.53C60.2359 101.541 59.8876 101.881 59.5295 101.891C59.1738 101.9 58.8141 101.88 58.456 101.889C58.0978 101.897 57.7266 101.136 57.3685 101.143C57.0129 101.149 56.6613 101.43 56.3032 101.435C55.9451 101.44 55.5878 101.31 55.2288 101.315C54.8699 101.319 54.5175 101.838 54.1578 101.841C53.8005 101.843 53.4415 101.894 53.0818 101.895C52.722 101.895 52.3615 101.796 52.0001 101.796C51.642 101.796 51.2838 101.663 50.9265 101.662C50.5693 101.662 50.2128 101.226 49.8563 101.223C49.4974 101.221 49.1343 101.909 48.7779 101.905C48.4189 101.9 48.0698 101.247 47.7133 101.241C47.3544 101.236 46.9996 101.154 46.6431 101.148C46.2841 101.141 45.9162 101.702 45.5597 101.693C45.2008 101.685 44.8394 101.813 44.4829 101.803C44.124 101.794 43.7667 101.747 43.411 101.736C43.0521 101.725 42.6907 101.815 42.3351 101.803C41.9761 101.791 41.6401 101.167 41.2836 101.154C40.9255 101.14 40.5715 101.055 40.2158 101.04C39.8577 101.025 39.4922 101.218 39.1366 101.201C38.7784 101.185 38.4023 101.574 38.0467 101.556C37.6886 101.537 37.3525 101.089 36.9969 101.07C36.6388 101.051 36.27 101.244 35.9152 101.223C35.557 101.202 35.2137 100.952 34.8588 100.93C34.5007 100.907 34.1279 101.144 33.773 101.12C33.4149 101.096 33.0527 101.144 32.6987 101.118C32.3406 101.092 31.9759 101.168 31.6219 101.141C31.2638 101.113 30.9122 101.014 30.5582 100.984C30.2 100.955 29.8836 100.446 29.5296 100.415C29.1723 100.384 28.7987 100.574 28.4454 100.541C28.0882 100.508 27.7562 100.222 27.4038 100.188C27.0465 100.153 26.6385 100.672 26.2861 100.636C25.9288 100.599 25.5601 100.683 25.2085 100.645C24.8512 100.606 24.5479 100.086 24.1963 100.046C23.8398 100.004 23.5022 99.8217 23.1514 99.7789C22.7949 99.7362 22.4515 99.6214 22.1008 99.5761C21.7443 99.5308 21.4074 99.3724 21.0583 99.3255C20.7026 99.2777 20.3249 99.4319 19.9758 99.3825C19.6201 99.3322 19.2391 99.494 18.8908 99.442C18.5352 99.3892 18.1656 99.4554 17.8181 99.4009C17.4633 99.3448 17.0945 99.3909 16.7479 99.333C16.393 99.2744 16.1216 98.7262 15.7749 98.6658C15.42 98.6038 14.9982 98.9567 14.6531 98.893C14.2983 98.8268 13.9557 98.7111 13.6115 98.6432C13.2566 98.5736 12.8953 98.5577 12.5519 98.4864C12.1978 98.4127 11.964 97.784 11.6222 97.7078C11.2682 97.629 10.8627 97.8343 10.5217 97.7539C10.1685 97.67 9.82512 97.582 9.48663 97.4957C9.13423 97.406 8.76713 97.4127 8.43109 97.3205C8.07951 97.2241 7.6797 97.3339 7.34693 97.235C6.99617 97.1311 6.72718 96.7774 6.39768 96.6709C6.04693 96.5577 5.71906 96.4178 5.39365 96.3012C5.04453 96.1764 4.77472 95.8905 4.45503 95.7631C4.11 95.6248 3.70937 95.6801 3.39949 95.5385C3.05773 95.3826 2.82962 95.0498 2.53282 94.8897C2.19842 94.7095 1.67106 94.9149 1.3947 94.7296C1.07175 94.5134 1.04395 93.956 0.80357 93.733C0.510865 93.4614 0.202624 93.3072 0.0382841 93.0281C-0.159578 92.6903 -0.650146 92.3868 -0.650146 92.0398C-0.650146 91.6903 -0.538951 91.1488 -0.337818 90.8085C-0.17266 90.5286 0.591808 90.6954 0.886149 90.4229C1.12734 90.2 1.24426 89.8119 1.56967 89.5948C1.84766 89.4087 2.18288 89.2972 2.51974 89.1162C2.81817 88.9561 3.08144 88.6937 3.42484 88.537C3.73553 88.3953 4.15579 88.5043 4.50245 88.366C4.82132 88.2386 4.94151 87.5169 5.29063 87.3928C5.61604 87.2772 6.07472 87.5253 6.42548 87.4121C6.75498 87.3057 7.17441 87.4884 7.52599 87.3845C7.85876 87.2855 8.20297 87.2227 8.55536 87.1263C8.8914 87.0341 9.15467 86.6351 9.50707 86.5454C9.84556 86.4599 10.0917 85.9369 10.4457 85.8531C10.7858 85.7726 11.2649 86.2898 11.619 86.2118C11.9607 86.1355 12.2493 85.7709 12.6034 85.6972C12.9468 85.6259 13.2992 85.5672 13.654 85.4977C13.999 85.4298 14.4193 85.7583 14.7741 85.693C15.12 85.6293 15.42 85.2806 15.7749 85.2177C16.1216 85.1574 16.523 85.4197 16.8787 85.361C17.2262 85.3032 17.469 84.5404 17.8255 84.4843C18.1738 84.4298 18.5302 84.3904 18.8867 84.3376C19.2358 84.2856 19.5891 84.2228 19.9455 84.1725C20.2947 84.123 20.6536 84.0995 21.0101 84.0518C21.3592 84.0048 21.7574 84.325 22.1122 84.2798C22.4613 84.2353 22.8039 84.1046 23.1596 84.0618C23.5095 84.0199 23.8398 83.7634 24.1955 83.7223C24.5462 83.6821 24.951 84.128 25.3074 84.0886C25.659 84.0501 25.9664 83.5589 26.3237 83.522C26.6753 83.486 27.0392 83.5405 27.3964 83.5061C27.7488 83.4717 28.0922 83.3033 28.4495 83.2706C28.8019 83.2379 29.1641 83.2789 29.5214 83.2479C29.8746 83.2169 30.2385 83.289 30.5958 83.2597C30.949 83.2303 31.3373 83.6427 31.6955 83.6151C32.0495 83.5874 32.361 82.9445 32.7191 82.9185C33.0731 82.8925 33.4574 83.2932 33.8155 83.2689C34.1679 83.2454 34.4966 82.7978 34.8531 82.7752C35.2063 82.7526 35.5873 83.1758 35.9438 83.1549C36.2978 83.1339 36.6208 82.5061 36.9781 82.4868C37.3321 82.4676 37.7254 83.1976 38.0827 83.1792C38.4375 83.1616 38.776 82.7769 39.1333 82.7609C39.4881 82.7442 39.8356 82.4935 40.1937 82.4785C40.5494 82.4634 40.9157 82.6847 41.2738 82.6712C41.6278 82.6578 41.981 82.5732 42.3383 82.5606C42.6932 82.5489 43.0456 82.3972 43.4029 82.3863C43.7585 82.3754 44.1117 82.2018 44.4699 82.1926C44.8255 82.1834 45.1844 82.1725 45.5426 82.1641C45.9007 82.1557 46.2719 82.9017 46.63 82.895C46.9857 82.8883 47.3323 82.2412 47.6896 82.2362C48.0469 82.2312 48.4034 82.0996 48.7623 82.0954C49.1213 82.0912 49.4826 82.5137 49.8424 82.5111C50.1997 82.5086 50.557 82.118 50.9159 82.1164C51.2749 82.1147 51.6362 82.1164 51.9976 82.1164C52.3557 82.1164 52.7122 82.8892 53.0695 82.8909C53.4268 82.8925 53.7849 82.8028 54.1414 82.8054C54.5003 82.8079 54.8625 82.2186 55.219 82.2228C55.578 82.227 55.9344 82.3762 56.2909 82.3812C56.6498 82.3863 57.0022 82.683 57.3587 82.6897C57.7176 82.6964 58.0749 82.6914 58.4306 82.6989C58.7895 82.7073 59.1517 82.5028 59.5074 82.512C59.8663 82.5212 60.2163 82.7852 60.5727 82.7961C60.9317 82.807 61.298 82.507 61.6545 82.5187C62.0134 82.5313 62.3723 82.512 62.728 82.5254C63.0861 82.5388 63.4475 82.4759 63.8031 82.491C64.1613 82.5061 64.5186 82.5531 64.8742 82.569C65.2323 82.5857 65.5823 82.7785 65.9379 82.7961C66.296 82.8146 66.6403 83.082 66.9959 83.1012C67.354 83.1205 67.7244 82.88 68.0801 82.9009C68.4382 82.9219 68.7873 83.0694 69.1422 83.092C69.5003 83.1146 69.8469 83.2848 70.2018 83.3091C70.5599 83.3334 70.927 83.1901 71.281 83.2161C71.6391 83.2421 72.0185 82.9445 72.3726 82.9722C72.7307 82.9998 73.0422 83.6109 73.3962 83.6402C73.7543 83.6695 74.1067 83.714 74.4607 83.7441C74.818 83.7752 75.2252 83.2035 75.5784 83.2362C75.9357 83.2689 76.2987 83.2387 76.6511 83.2731C77.0084 83.3083 77.2921 84.0861 77.6445 84.1222C78.0018 84.1591 78.3885 83.8623 78.7401 83.9009C79.0974 83.9394 79.494 83.5832 79.8455 83.6234C80.202 83.6645 80.5397 83.8665 80.8904 83.9084C81.2469 83.9512 81.5699 84.258 81.9198 84.3024C82.2763 84.3476 82.6876 83.9344 83.0367 83.9814C83.3923 84.0291 83.7251 84.2429 84.0742 84.2923C84.4299 84.3426 84.7169 84.8615 85.0652 84.9134C85.4208 84.9662 85.7528 85.1347 86.1003 85.19C86.4551 85.2462 86.8721 84.8673 87.2188 84.9252C87.5736 84.9838 87.8909 85.2479 88.2375 85.3091C88.5924 85.3711 88.9775 85.2294 89.3233 85.2931C89.6782 85.3594 90.042 85.3535 90.3862 85.4214C90.7411 85.491 91.0444 85.7986 91.3878 85.8707C91.7418 85.9444 92.1768 85.605 92.5185 85.6804C92.8726 85.7592 93.238 85.7768 93.5782 85.8573C93.9314 85.9411 94.1652 86.5136 94.5037 86.5999C94.8561 86.6896 95.1594 86.9293 95.4947 87.0215C95.8462 87.1179 96.179 87.2269 96.5118 87.3258C96.8625 87.4297 97.2959 87.2076 97.6254 87.3149C97.9761 87.428 98.1928 87.905 98.5182 88.0215C98.8673 88.1464 99.2001 88.2403 99.5198 88.3685C99.8648 88.5068 100.199 88.5973 100.509 88.739C100.851 88.8949 101.291 88.7834 101.588 88.9435C101.923 89.1237 102.055 89.5864 102.332 89.7717C102.654 89.9879 103.07 89.9904 103.31 90.2126C103.603 90.4841 103.635 90.8705 103.799 91.1497C103.997 91.4875 103.994 91.6945 103.994 92.0415L103.997 92.0398Z" fill="#E5DFD8"/>
<g clip-path="url(#clip1_2973_8626)">
<path d="M63.1663 26.6496C63.0949 26.9214 62.9271 27.168 62.8364 27.4329C62.7456 27.6978 62.4483 27.8771 62.3387 28.1344C62.2292 28.3917 62.1878 28.6704 62.0595 28.9196C61.9312 29.1687 61.7252 29.3606 61.5794 29.5997C61.4335 29.8387 61.3872 30.1325 61.2238 30.3603C61.0604 30.588 60.9002 30.8108 60.7205 31.0259C60.5409 31.2411 60.3005 31.3896 60.1064 31.5915C59.9124 31.7935 59.9537 32.2427 59.7446 32.4302C59.5355 32.6177 59.2914 32.7793 59.0691 32.9511C58.8482 33.1216 58.4237 33.0052 58.1896 33.16C57.9574 33.3141 57.9273 33.8086 57.6826 33.9458C57.4397 34.0823 57.0259 33.8936 56.7717 34.0125C56.5201 34.1301 56.2503 34.1798 55.988 34.2799C55.7282 34.3786 55.5429 34.6875 55.2731 34.7687C55.0071 34.8486 54.6941 34.7404 54.4193 34.8014C54.1482 34.8618 53.9003 34.9977 53.6305 35.038C53.3563 35.0789 53.1059 35.3588 52.833 35.3796C52.5569 35.4004 52.2671 35.1273 51.9935 35.1279C51.7168 35.1292 51.4283 35.4129 51.1553 35.3941C50.8799 35.3752 50.6145 35.1839 50.3434 35.1456C50.0705 35.1066 49.79 35.087 49.5221 35.0285C49.2529 34.97 48.9706 34.9361 48.7071 34.8587C48.4435 34.7813 48.2801 34.4063 48.0228 34.3101C47.7656 34.2138 47.3887 34.4088 47.1389 34.2937C46.8892 34.1786 46.6031 34.1081 46.3621 33.9754C46.1211 33.8426 46.0009 33.4934 45.7699 33.3437C45.5389 33.194 45.4156 32.9039 45.1952 32.7378C44.9749 32.5717 44.6951 32.4981 44.4872 32.3169C44.2794 32.1357 43.9689 32.0665 43.7742 31.8702C43.5795 31.6739 43.4212 31.4412 43.2409 31.2317C43.0606 31.0222 42.8784 30.8133 42.7138 30.5912C42.5498 30.3704 42.3632 30.159 42.2149 29.9249C42.0678 29.6928 41.9976 29.4103 41.8668 29.1662C41.7366 28.9246 41.4706 28.7421 41.3573 28.4892C41.2446 28.2388 41.4674 27.8506 41.3717 27.5895C41.2778 27.3316 41.2177 27.0755 41.1413 26.8075C41.0724 26.5747 40.6749 26.425 40.6248 26.1859C40.5647 25.9154 40.8083 25.592 40.7682 25.3221C40.7275 25.0478 40.6123 24.7936 40.591 24.5212C40.5698 24.245 40.4145 23.977 40.4133 23.704C40.412 23.4278 40.6499 23.1641 40.6687 22.8905C40.6868 22.6149 40.3688 22.3054 40.407 22.0336C40.4452 21.7605 40.4946 21.4768 40.5522 21.2088C40.6098 20.9395 40.9372 20.7357 41.0136 20.472C41.09 20.2084 41.2627 19.9857 41.3573 19.7284C41.4518 19.4711 41.3967 19.1571 41.5094 18.9074C41.622 18.6576 41.8893 18.4909 42.0202 18.2493C42.151 18.0077 42.0139 17.6088 42.161 17.3773C42.3081 17.1458 42.6218 17.025 42.7851 16.8048C42.9485 16.5846 43.2121 16.455 43.3905 16.2461C43.5689 16.0372 43.6403 15.7403 43.8331 15.5446C44.0259 15.3489 44.2913 15.2407 44.4972 15.0595C44.7032 14.8783 44.9636 14.7858 45.1821 14.6198C45.3999 14.4549 45.4481 14.0542 45.6785 13.9038C45.907 13.7547 46.1999 13.7081 46.4403 13.5747C46.6788 13.4426 46.913 13.3023 47.1627 13.1866C47.41 13.0727 47.6379 12.9047 47.8951 12.8078C48.1499 12.7116 48.3984 12.5738 48.6626 12.4951C48.923 12.4177 49.2567 12.6273 49.5265 12.5675C49.7963 12.5077 50.0041 12.1302 50.2727 12.0906C50.5456 12.0497 50.8292 12.0346 51.1002 12.0138C51.3744 11.9931 51.658 12.0019 51.9297 12.0006C52.2045 11.9994 52.4668 12.2951 52.7385 12.3133C53.0126 12.3322 53.3069 12.1132 53.5767 12.151C53.8484 12.1894 54.085 12.4171 54.3516 12.475C54.6196 12.5329 54.8831 12.5788 55.1448 12.6556C55.4064 12.7323 55.7601 12.5492 56.0162 12.6442C56.2722 12.7392 56.3792 13.2042 56.6278 13.3174C56.8763 13.4307 57.2613 13.2665 57.5017 13.398C57.742 13.5294 58.0137 13.6282 58.2447 13.7761C58.4757 13.9239 58.6998 14.102 58.9195 14.2662C59.1393 14.4304 59.1311 14.8783 59.3383 15.0576C59.5455 15.2369 59.9981 15.1482 60.1928 15.342C60.3875 15.5358 60.4194 15.8887 60.5997 16.0957C60.78 16.3027 60.9659 16.5015 61.1312 16.7211C61.2952 16.94 61.4874 17.1401 61.6363 17.3716C61.7847 17.6013 61.7584 17.9309 61.8911 18.1732C62.0226 18.4129 62.3863 18.5337 62.5015 18.7847C62.6148 19.0332 62.5209 19.3698 62.6173 19.6284C62.7131 19.8844 63.0868 20.0511 63.165 20.3166C63.242 20.5784 63.2721 20.8671 63.3322 21.1377C63.3891 21.3956 63.2984 21.685 63.3372 21.9424C63.3766 22.2034 63.6226 22.4469 63.6439 22.7068C63.6652 22.9697 63.4899 23.2497 63.493 23.5108C63.4968 23.7744 63.3603 24.0311 63.3459 24.2922C63.3315 24.5552 63.5037 24.8339 63.4718 25.0937C63.4392 25.3548 63.3184 25.6046 63.2689 25.8613C63.2195 26.118 63.2345 26.3954 63.1675 26.6483L63.1663 26.6496Z" fill="#FFDA75"/>
<path d="M56.2834 26.2627C56.2834 26.5508 56.0887 26.8069 56.023 27.0592C55.9523 27.331 55.7745 27.5197 55.6362 27.7487C55.4953 27.9821 55.4753 28.2992 55.2756 28.4861C55.0809 28.6679 54.7823 28.7094 54.54 28.8459C54.3097 28.9762 54.0931 29.124 53.8283 29.2121C53.5773 29.2958 53.4151 29.431 53.1403 29.4751C53.0126 29.962 53.2718 29.9551 53.2718 30.4591C53.2718 30.7007 52.8104 30.7761 52.6533 30.9353C52.4949 31.0958 52.4217 31.119 52.1832 31.119C51.9396 31.119 51.8251 31.1366 51.6673 30.9781C51.5083 30.8183 51.4007 30.7019 51.4007 30.4591C51.4007 29.9841 51.3719 29.9859 51.2317 29.5323C50.928 29.4996 50.7039 29.4241 50.416 29.3581C50.1099 29.2882 49.8501 29.1121 49.5822 29.0139C49.2717 28.9 49.0213 28.7623 48.794 28.6232C48.5875 28.4942 48.2582 28.5295 48.1305 28.3697C47.9909 28.1954 47.9358 27.9205 47.9358 27.677C47.9358 27.4153 48.0923 27.1655 48.2644 26.9981C48.436 26.8314 48.6876 26.8327 48.9461 26.8327C49.2153 26.8327 49.5239 26.6829 49.8119 26.8459C50.0235 26.9654 50.1318 27.3888 50.411 27.4889C50.6545 27.5757 50.9963 27.3555 51.2748 27.4065C51.5359 27.4543 51.78 27.5373 52.058 27.5373C52.3728 27.5373 52.7115 27.8034 52.9632 27.738C53.2774 27.6569 53.412 27.2536 53.5967 27.0718C53.7995 26.8723 53.8145 26.6873 53.8145 26.3677C53.8145 26.0802 53.7657 25.9494 53.5635 25.748C53.3926 25.5782 53.3237 25.207 53.0533 25.073C52.8286 24.9616 52.5325 24.9377 52.2645 24.8358C52.021 24.7433 51.7894 24.5829 51.5296 24.4872C51.2786 24.3947 50.9337 24.5294 50.6833 24.4249C50.4316 24.3199 50.2614 24.0349 50.0266 23.9078C49.7831 23.7763 49.5915 23.6001 49.3837 23.4353C49.1684 23.2642 48.9098 23.1572 48.7533 22.9383C48.5993 22.7231 48.471 22.484 48.3934 22.211C48.3308 21.9845 48.3252 21.7366 48.3252 21.4661C48.3252 21.1886 48.2175 20.898 48.2813 20.6583C48.3502 20.3972 48.7521 20.3015 48.8854 20.0845C49.0225 19.8624 48.9211 19.4516 49.1145 19.2748C49.3036 19.1018 49.5959 19.0319 49.8275 18.9023C50.0498 18.7778 50.3127 18.7331 50.5643 18.6475C50.806 18.5657 50.9249 18.4286 51.1853 18.3826C51.3055 17.9328 51.4051 17.9498 51.4051 17.4842C51.4051 17.2408 51.5215 17.1458 51.6811 16.9904C51.8389 16.8368 51.9403 16.6135 52.1825 16.6135C52.4204 16.6135 52.7641 16.5871 52.9218 16.7418C53.0796 16.8966 53.1222 17.2414 53.1222 17.4836C53.1222 17.9209 52.7103 18.0165 52.8555 18.4286C53.1729 18.4544 53.6943 18.3128 53.9654 18.3764C54.2871 18.4519 54.5388 18.6828 54.7804 18.7891C55.074 18.9086 55.3062 19.0351 55.4784 19.188C55.695 19.3798 56.0211 19.5963 56.0211 19.8876C56.0211 20.1487 55.5767 20.2386 55.4095 20.406C55.2424 20.5733 55.1529 20.5947 54.8937 20.5947C54.6433 20.5947 54.3723 20.9011 54.1406 20.813C53.9097 20.7218 53.6524 20.3361 53.2592 20.2544C52.9494 20.1895 52.5813 20.182 52.2332 20.182C51.9002 20.182 51.5628 20.1864 51.3055 20.2644C50.9731 20.3645 50.8723 20.7413 50.7102 20.947C50.585 21.1106 50.5249 21.1962 50.5249 21.4101C50.5249 21.6875 50.4279 22.0185 50.6451 22.216C50.8197 22.3752 51.1653 22.3708 51.437 22.5017C51.6623 22.6105 51.8589 22.8471 52.1256 22.949C52.3678 23.0415 52.7278 22.8508 52.9863 22.9471C53.2361 23.0396 53.4815 23.1761 53.7312 23.2799C53.9823 23.3843 54.115 23.7467 54.3504 23.8707C54.5939 23.999 54.7873 24.1607 54.997 24.3186C55.2174 24.4841 55.5973 24.474 55.7613 24.6823C55.9266 24.8918 56.1701 25.1308 56.2584 25.3938C56.3385 25.6335 56.2834 25.9676 56.2834 26.2602V26.2627Z" fill="#665510"/>
<path d="M87.7533 75.6888C87.7533 76.0852 88.0306 76.0852 88.0306 76.4815C88.0306 76.8779 88.1333 76.8779 88.1333 77.2749C88.1333 77.6719 87.9924 77.6712 87.9924 78.067C87.9924 78.4627 87.8234 78.464 87.8234 78.8603C87.8234 79.2567 87.7301 79.2579 87.7301 79.6562C87.7301 80.0544 88.266 80.2382 87.9818 80.515C87.6888 80.8006 87.5129 80.2514 87.1041 80.2514C86.6954 80.2514 86.696 80.2967 86.2878 80.2967C85.8797 80.2967 85.8797 80.3728 85.4722 80.3728C85.0647 80.3728 85.0647 80.6767 84.6565 80.6767C84.2484 80.6767 84.249 80.4546 83.8415 80.4546C83.4339 80.4546 83.4339 80.5213 83.0264 80.5213C82.6189 80.5213 82.6189 80.2935 82.2114 80.2935C81.8038 80.2935 81.8038 80.2885 81.3963 80.2885C80.9888 80.2885 80.9888 80.5219 80.5813 80.5219C80.1738 80.5219 80.1738 80.2438 79.7662 80.2438C79.3587 80.2438 79.3587 80.3294 78.9512 80.3294C78.5437 80.3294 78.5437 80.4804 78.1361 80.4804C77.7286 80.4804 77.7286 80.4779 77.3211 80.4779C76.9136 80.4779 76.9136 80.2658 76.5054 80.2658C76.0973 80.2658 76.0973 80.5999 75.6898 80.5999C75.2822 80.5999 75.2816 80.5754 74.8735 80.5754C74.4653 80.5754 74.4653 80.503 74.0565 80.503C73.6478 80.503 73.6478 80.3709 73.239 80.3709C72.8302 80.3709 72.8302 80.5288 72.4221 80.5288C72.0139 80.5288 72.0139 80.2746 71.6051 80.2746C71.1964 80.2746 71.197 80.335 70.7888 80.335C70.3807 80.335 70.3807 80.4577 69.9726 80.4577C69.5644 80.4577 69.5644 80.2822 69.1569 80.2822C68.7494 80.2822 68.7494 80.576 68.3412 80.576C67.9331 80.576 67.9337 80.4841 67.5255 80.4841C67.1174 80.4841 67.1174 80.2746 66.7099 80.2746C66.3023 80.2746 66.3017 80.325 65.8942 80.325C65.4867 80.325 65.4861 80.252 65.0779 80.252C64.6698 80.252 64.6698 80.649 64.2616 80.649C63.8535 80.649 63.8528 80.5546 63.4447 80.5546C63.0365 80.5546 63.0359 80.4747 62.6271 80.4747C62.2184 80.4747 62.2184 80.291 61.8096 80.291C61.4008 80.291 61.4008 80.425 60.9927 80.425C60.5845 80.425 60.5845 80.3923 60.1764 80.3923C59.7682 80.3923 59.7682 80.4911 59.3601 80.4911C58.9519 80.4911 58.9519 80.408 58.5438 80.408C58.1356 80.408 58.1356 80.4068 57.7275 80.4068C57.3193 80.4068 57.3193 80.4665 56.9112 80.4665C56.503 80.4665 56.503 80.4193 56.0943 80.4193C55.6855 80.4193 55.6855 80.4967 55.2767 80.4967C54.8679 80.4967 54.8679 80.6377 54.4585 80.6377C54.0491 80.6377 54.0498 80.6131 53.641 80.6131C53.2322 80.6131 53.2322 80.4628 52.8241 80.4628C52.4159 80.4628 52.4159 80.6333 52.0071 80.6333C51.5984 80.6333 51.599 80.3835 51.1902 80.3835C50.7814 80.3835 50.7821 80.4363 50.3733 80.4363C49.9645 80.4363 49.9645 80.4036 49.5564 80.4036C49.1482 80.4036 49.1476 80.2677 48.7388 80.2677C48.33 80.2677 48.33 80.2614 47.9206 80.2614C47.5112 80.2614 47.5125 80.5282 47.1043 80.5282C46.6962 80.5282 46.6968 80.6244 46.2887 80.6244C45.8805 80.6244 45.8812 80.644 45.4736 80.644C45.0661 80.644 45.0661 80.2891 44.6592 80.2891C44.2523 80.2891 44.2523 80.2985 43.8448 80.2985C43.4373 80.2985 43.4373 80.6672 43.0304 80.6672C42.6235 80.6672 42.6229 80.6603 42.2153 80.6603C41.8078 80.6603 41.8072 80.3187 41.399 80.3187C40.9909 80.3187 40.9903 80.4112 40.5815 80.4112C40.1727 80.4112 40.1721 80.5584 39.7627 80.5584C39.3533 80.5584 39.3539 80.632 38.9451 80.632C38.5364 80.632 38.537 80.493 38.1282 80.493C37.7194 80.493 37.7201 80.3791 37.3119 80.3791C36.9038 80.3791 36.9038 80.3715 36.4956 80.3715C36.0875 80.3715 36.0868 80.5345 35.6787 80.5345C35.2705 80.5345 35.2693 80.4917 34.8605 80.4917C34.4517 80.4917 34.4511 80.2287 34.0417 80.2287C33.6323 80.2287 33.6329 80.5458 33.2242 80.5458C32.8154 80.5458 32.8154 80.4055 32.4066 80.4055C31.9978 80.4055 31.9978 80.6414 31.5891 80.6414C31.1803 80.6414 31.1797 80.4156 30.7703 80.4156C30.3609 80.4156 30.3609 80.2507 29.9515 80.2507C29.5421 80.2507 29.5421 80.3558 29.1333 80.3558C28.7245 80.3558 28.7239 80.4835 28.3145 80.4835C27.9051 80.4835 27.9045 80.2816 27.4951 80.2816C27.0857 80.2816 27.0857 80.3835 26.6763 80.3835C26.2669 80.3835 26.2662 80.6093 25.8562 80.6093C25.4462 80.6093 25.4468 80.5924 25.0368 80.5924C24.6268 80.5924 24.6268 80.5697 24.2174 80.5697C23.808 80.5697 23.8086 80.3325 23.3998 80.3325C22.991 80.3325 22.991 80.3923 22.5823 80.3923C22.1735 80.3923 22.1722 80.5263 21.7616 80.5263C21.3509 80.5263 21.3522 80.3225 20.9422 80.3225C20.5321 80.3225 20.5321 80.5383 20.1221 80.5383C19.7121 80.5383 19.7115 80.6137 19.3008 80.6137C18.8901 80.6137 18.8908 80.503 18.4807 80.503C18.0707 80.503 18.0695 80.4621 17.6588 80.4621C17.2482 80.4621 17.2469 80.4357 16.8356 80.4357C16.4244 80.4357 16.2384 80.8119 15.9411 80.5257C15.6563 80.2514 15.8685 80.0544 15.8685 79.6587C15.8685 79.263 16.1452 79.2623 16.1452 78.8654C16.1452 78.4684 15.8328 78.469 15.8328 78.0733C15.8328 77.6775 16.1589 77.6763 16.1589 77.2799C16.1589 76.8836 15.9455 76.8823 15.9455 76.4841C15.9455 76.0858 16.1671 76.0864 16.1671 75.6882C16.1671 75.3963 16.2359 75.1861 16.3411 74.932C16.45 74.6683 16.3993 74.3173 16.5971 74.1185C16.7949 73.9197 17.0278 73.6888 17.2901 73.5793C17.5436 73.4736 17.8692 73.4025 18.1596 73.4025C18.5465 73.4025 18.5465 73.7334 18.9327 73.7334C19.319 73.7334 19.319 73.6353 19.7046 73.6353C20.0902 73.6353 20.0908 73.4616 20.4777 73.4616C20.8645 73.4616 20.8645 73.5258 21.2514 73.5258C21.6383 73.5258 21.6376 73.4767 22.0239 73.4767C22.4101 73.4767 22.4107 73.4132 22.7976 73.4132C23.1845 73.4132 23.1857 73.4862 23.5738 73.4862C23.962 73.4862 24.0145 73.741 24.3764 73.6001C24.7626 73.4503 24.5435 73.2301 24.5435 72.6991C24.5435 72.4645 24.3313 72.1845 24.3313 71.8655C24.3313 71.6113 24.4171 71.332 24.4171 71.0313C24.4171 70.7689 24.3125 70.4896 24.3125 70.1964C24.3125 69.9309 24.5429 69.6528 24.5429 69.3653C24.5429 69.0967 24.2906 68.8186 24.2906 68.5329C24.2906 68.2618 24.4477 67.9837 24.4477 67.7C24.4477 67.4269 24.3519 67.1488 24.3519 66.8663C24.3519 66.592 24.2462 66.314 24.2462 66.0321C24.2462 65.7578 24.5078 65.4797 24.5078 65.1997C24.5078 64.9235 24.5135 64.6455 24.5135 64.3661C24.5135 64.0899 24.1848 63.8118 24.1848 63.5331C24.1848 63.2544 24.2643 62.9757 24.2643 62.6964C24.2643 62.417 24.2011 62.1383 24.2011 61.8596C24.2011 61.5796 24.3438 61.3003 24.3438 61.0229C24.3438 60.7423 24.4358 60.4629 24.4358 60.1861C24.4358 59.9049 24.198 59.6255 24.198 59.35C24.198 59.0675 24.3601 58.7881 24.3601 58.5132C24.3601 58.2288 24.1679 57.9495 24.1679 57.6752C24.1679 57.3895 24.4139 57.1096 24.4139 56.8372C24.4139 56.5496 24.2981 56.2697 24.2981 55.9991C24.2981 55.7097 24.2368 55.4304 24.2368 55.1636C24.2368 54.8698 24.3238 54.5899 24.3238 54.3269C24.3238 54.0261 24.5516 53.7468 24.5516 53.492C24.5516 53.173 24.3457 52.8931 24.3457 52.6584C24.3457 52.1268 24.3507 51.9594 24.3507 51.9594C24.6355 51.9594 24.921 51.6128 25.2058 51.6128C25.4906 51.6128 25.7761 51.9833 26.0609 51.9833C26.3457 51.9833 26.6312 51.7222 26.916 51.7222C27.2009 51.7222 27.4863 51.6109 27.7711 51.6109C28.056 51.6109 28.3414 51.9405 28.6262 51.9405C28.9111 51.9405 29.1965 51.7612 29.4813 51.7612C29.7662 51.7612 30.0516 51.7877 30.3365 51.7877C30.6213 51.7877 30.9067 52.0443 31.1916 52.0443C31.457 52.0443 31.7224 51.9814 31.9878 51.9814C32.2533 51.9814 32.5187 51.7392 32.7841 51.7392C33.0495 51.7392 33.3149 51.7612 33.5804 51.7612C33.8458 51.7612 34.1112 51.9103 34.3766 51.9103C34.642 51.9103 34.9075 51.9959 35.1729 51.9959C35.4383 51.9959 35.7037 51.7361 35.9692 51.7361C36.2408 51.7361 36.5131 51.9833 36.7848 51.9833C37.0565 51.9833 37.3288 51.6247 37.6005 51.6247C37.8565 51.6247 38.1464 51.6574 38.3805 51.7153C38.6184 51.7738 38.8156 52.0053 39.0541 52.0727C39.2844 52.1375 39.5192 52.1198 39.7714 52.1456C39.9874 52.1677 40.1909 52.335 40.4075 52.3438C40.6685 52.3545 40.932 52.2501 41.1931 52.2557C41.4541 52.2614 41.7133 52.4803 41.9749 52.4803C42.2366 52.4803 42.4995 52.4709 42.7606 52.4652C43.0216 52.4596 43.2839 52.4143 43.5443 52.4036C43.8047 52.3929 44.0501 52.0915 44.3112 52.0758C44.5722 52.0601 44.852 52.335 45.1124 52.3136C45.3635 52.2929 45.6001 52.1136 45.8517 52.0815C46.1034 52.0494 46.3807 52.2262 46.6311 52.1909C46.8815 52.1557 47.095 51.8455 47.3447 51.8141C47.5945 51.7826 47.8493 51.7235 48.1003 51.704C48.3513 51.6845 48.6161 51.8223 48.8678 51.8223C49.1257 51.8223 49.3836 51.9135 49.6409 51.9135C49.8982 51.9135 50.1567 52.0412 50.414 52.0412C50.6713 52.0412 50.9298 51.6656 51.1871 51.6656C51.4444 51.6656 51.7029 52.0368 51.9602 52.0368C52.2175 52.0368 52.476 51.9154 52.7333 51.9154C52.9906 51.9154 53.2491 52.0311 53.5064 52.0311C53.7637 52.0311 54.0222 51.6656 54.2795 51.6656C54.5368 51.6656 54.7916 51.9066 55.0476 51.9122C55.3036 51.9179 55.5559 51.9688 55.8119 51.9827C56.068 51.9965 56.3184 52.0267 56.5738 52.05C56.8292 52.0733 57.0652 52.1884 57.32 52.2237C57.5729 52.2589 57.8758 51.9777 58.1287 52.0267C58.3791 52.0752 58.5832 52.3375 58.8336 52.4017C59.1115 52.4728 59.4258 52.3476 59.7025 52.3866C59.9842 52.4262 60.2584 52.4495 60.5388 52.4615C60.8218 52.4734 61.0978 52.4829 61.3802 52.4728C61.6625 52.4627 61.9548 52.6037 62.2365 52.5766C62.5182 52.5495 62.8093 52.5697 63.0897 52.5313C63.3702 52.4929 63.6369 52.3577 63.9161 52.313C64.1952 52.2683 64.4356 51.9839 64.7142 51.9393C64.9928 51.8946 65.3252 52.2054 65.6044 52.1658C65.8836 52.1261 66.1628 52.1425 66.4432 52.1136C66.7236 52.0846 66.9922 52.0494 67.2739 52.0368C67.5418 52.0248 67.8029 51.9185 68.0714 51.9135C68.34 51.9085 68.606 51.9921 68.8746 51.9921C69.1431 51.9921 69.4098 51.9651 69.6783 51.9682C69.9469 51.9714 70.2173 51.826 70.4859 51.8298C70.7544 51.8336 71.0261 51.6209 71.2947 51.6241C71.5632 51.6272 71.8293 51.8701 72.0966 51.8701C72.1848 51.8701 72.4715 51.8147 72.8878 51.8147C73.1169 51.8147 73.3855 51.6845 73.6809 51.6845C73.9282 51.6845 74.1943 51.6008 74.4728 51.6008C74.7289 51.6008 74.9955 51.7908 75.2666 51.7908C75.5283 51.7908 75.7949 51.7128 76.0616 51.7128C76.3283 51.7128 76.5956 51.9267 76.8572 51.9267C77.1295 51.9267 77.3968 51.9563 77.6535 51.9563C77.934 51.9563 78.2019 51.8185 78.4498 51.8185C78.7471 51.8185 79.0157 51.6857 79.2442 51.6857C79.7337 51.6857 79.641 51.8575 80.0379 51.8575C80.0379 51.8575 79.9284 52.1261 79.9284 52.6571C79.9284 52.8918 79.8307 53.1718 79.8307 53.4907C79.8307 53.7449 79.9227 54.0243 79.9227 54.325C79.9227 54.5873 80.0899 54.8667 80.0899 55.1599C80.0899 55.4254 79.8789 55.7034 79.8789 55.991C79.8789 56.2596 80.1418 56.5377 80.1418 56.8233C80.1418 57.0945 80.1149 57.3726 80.1149 57.6563C80.1149 57.9294 80.2245 58.2074 80.2245 58.4899C80.2245 58.7642 80.0097 59.0423 80.0097 59.3242C80.0097 59.5985 79.8789 59.8766 79.8789 60.1565C79.8789 60.4327 80.0548 60.7108 80.0548 60.9901C80.0548 61.2663 80.1994 61.5444 80.1994 61.8231C80.1994 62.1018 79.9259 62.3805 79.9259 62.6599C79.9259 62.9392 80.1932 63.2179 80.1932 63.4966C80.1932 63.7766 80.001 64.056 80.001 64.3334C80.001 64.614 80.0717 64.8933 80.0717 65.1702C80.0717 65.4514 80.1024 65.7307 80.1024 66.0063C80.1024 66.2888 79.8338 66.5681 79.8338 66.8431C79.8338 67.1274 80.0799 67.4068 80.0799 67.6811C80.0799 67.9667 80.0367 68.2467 80.0367 68.5191C80.0367 68.8066 79.9728 69.0866 79.9728 69.3571C79.9728 69.6465 80.0116 69.9259 80.0116 70.1926C80.0116 70.4864 79.9121 70.7664 79.9121 71.0294C79.9121 71.3301 79.949 71.6094 79.949 71.8643C79.949 72.1832 80.021 72.4632 80.021 72.6979C80.021 73.2295 79.7143 73.205 80.1036 73.3484C80.4874 73.49 80.4454 73.3679 80.8542 73.3679C81.263 73.3679 81.263 73.6479 81.6724 73.6479C82.0818 73.6479 82.0818 73.3182 82.4912 73.3182C82.9006 73.3182 82.9 73.3968 83.3094 73.3968C83.7188 73.3968 83.7194 73.473 84.1294 73.473C84.5394 73.473 84.5401 73.534 84.9507 73.534C85.3614 73.534 85.3614 73.3622 85.772 73.3622C86.0625 73.3622 86.2897 73.712 86.5426 73.8184C86.8049 73.9278 87.193 73.8643 87.3902 74.0625C87.5874 74.2607 87.7477 74.5576 87.8566 74.8212C87.9618 75.076 87.7508 75.3969 87.7508 75.6894L87.7533 75.6888Z" fill="#3BA36F"/>
<path d="M92.658 82.756C92.2486 82.756 92.2486 82.907 91.8392 82.907C91.4298 82.907 91.4298 82.8164 91.0204 82.8164C90.611 82.8164 90.611 83.0699 90.201 83.0699C89.791 83.0699 89.7916 82.8258 89.3816 82.8258C88.9715 82.8258 88.9715 83.1203 88.5621 83.1203C88.1527 83.1203 88.1521 83.0315 87.7421 83.0315C87.332 83.0315 87.332 83.124 86.9214 83.124C86.5107 83.124 86.5107 82.79 86.1007 82.79C85.6907 82.79 85.6901 83.0819 85.2794 83.0819C84.8688 83.0819 84.8688 83.1203 84.4575 83.1203C84.0462 83.1203 84.0462 82.8214 83.6349 82.8214C83.2236 82.8214 83.2243 82.8069 82.813 82.8069C82.4017 82.8069 82.4023 82.9403 81.9917 82.9403C81.581 82.9403 81.581 83.1215 81.171 83.1215C80.761 83.1215 80.761 83.0668 80.3503 83.0668C79.9397 83.0668 79.9403 82.7711 79.5297 82.7711C79.119 82.7711 79.1196 82.9145 78.7096 82.9145C78.2996 82.9145 78.2996 83.1221 77.8895 83.1221C77.4795 83.1221 77.4795 82.8472 77.0695 82.8472C76.6595 82.8472 76.6595 83.0888 76.2494 83.0888C75.8394 83.0888 75.8394 83.1089 75.4294 83.1089C75.0194 83.1089 75.0194 83.0775 74.6093 83.0775C74.1993 83.0775 74.1993 83.124 73.7893 83.124C73.3793 83.124 73.3793 82.9026 72.9692 82.9026C72.5592 82.9026 72.5592 83.1234 72.1486 83.1234C71.7379 83.1234 71.7379 83.1341 71.3272 83.1341C70.9166 83.1341 70.9166 83.0083 70.5059 83.0083C70.0953 83.0083 70.0947 83.0712 69.684 83.0712C69.2734 83.0712 69.2727 82.817 68.8615 82.817C68.4502 82.817 68.4502 82.8302 68.0389 82.8302C67.6276 82.8302 67.6282 82.8585 67.217 82.8585C66.8057 82.8585 66.8063 82.885 66.3957 82.885C65.985 82.885 65.985 83.1228 65.5744 83.1228C65.1637 83.1228 65.1637 82.7616 64.7537 82.7616C64.3437 82.7616 64.343 82.8667 63.933 82.8667C63.523 82.8667 63.5223 82.817 63.1123 82.817C62.7023 82.817 62.7017 82.839 62.2916 82.839C61.8816 82.839 61.881 83.0007 61.4703 83.0007C61.0597 83.0007 61.0597 83.1555 60.649 83.1555C60.2384 83.1555 60.2384 83.1857 59.8271 83.1857C59.4158 83.1857 59.4158 82.9649 59.0052 82.9649C58.5945 82.9649 58.5939 82.7535 58.1826 82.7535C57.7713 82.7535 57.7713 83.0164 57.3601 83.0164C56.9488 83.0164 56.9488 82.8774 56.5381 82.8774C56.1275 82.8774 56.1275 82.7465 55.7162 82.7465C55.3049 82.7465 55.3055 82.8139 54.8949 82.8139C54.4842 82.8139 54.4842 83.0498 54.0736 83.0498C53.6629 83.0498 53.6629 82.963 53.2523 82.963C52.8416 82.963 52.8416 83.0674 52.4304 83.0674C52.0191 83.0674 52.0191 83.0504 51.6084 83.0504C51.1978 83.0504 51.1971 82.846 50.7859 82.846C50.3746 82.846 50.3746 83.0366 49.9627 83.0366C49.5508 83.0366 49.5514 83.1593 49.1401 83.1593C48.7288 83.1593 48.7288 82.8264 48.3182 82.8264C47.9075 82.8264 47.9069 82.9567 47.4963 82.9567C47.0856 82.9567 47.0856 82.8114 46.6743 82.8114C46.2631 82.8114 46.2631 83.102 45.8524 83.102C45.4418 83.102 45.4411 82.9422 45.0298 82.9422C44.6186 82.9422 44.6186 82.8913 44.2067 82.8913C43.7948 82.8913 43.7954 83.1586 43.3835 83.1586C42.9716 83.1586 42.9722 83.0724 42.5609 83.0724C42.1496 83.0724 42.1509 82.9516 41.7402 82.9516C41.3296 82.9516 41.3302 82.9749 40.9202 82.9749C40.5102 82.9749 40.5102 82.7994 40.1008 82.7994C39.6914 82.7994 39.6907 82.7447 39.2813 82.7447C38.8719 82.7447 38.8713 82.8579 38.4619 82.8579C38.0525 82.8579 38.0519 83.1693 37.6419 83.1693C37.2318 83.1693 37.2312 82.9586 36.8206 82.9586C36.4099 82.9586 36.4093 83.131 35.998 83.131C35.5867 83.131 35.5861 83.041 35.1742 83.041C34.7623 83.041 34.7629 83.0617 34.3516 83.0617C33.9404 83.0617 33.941 83.0636 33.5297 83.0636C33.1184 83.0636 33.119 82.9397 32.7084 82.9397C32.2977 82.9397 32.2977 82.8195 31.8871 82.8195C31.4764 82.8195 31.4758 82.924 31.0652 82.924C30.6545 82.924 30.6533 82.9554 30.242 82.9554C29.8307 82.9554 29.8301 83.0649 29.4175 83.0649C29.005 83.0649 29.0063 82.8264 28.5944 82.8264C28.1825 82.8264 28.1831 82.8013 27.7718 82.8013C27.3605 82.8013 27.3605 82.8617 26.9486 82.8617C26.5367 82.8617 26.5367 83.1347 26.1242 83.1347C25.7117 83.1347 25.7123 82.9837 25.3004 82.9837C24.8885 82.9837 24.8885 83.1454 24.4772 83.1454C24.0659 83.1454 24.0653 82.9957 23.6534 82.9957C23.2415 82.9957 23.2409 82.8126 22.8283 82.8126C22.4158 82.8126 22.4164 83.0706 22.0045 83.0706C21.5926 83.0706 21.592 83.0548 21.1795 83.0548C20.7669 83.0548 20.7676 83.0951 20.355 83.0951C19.9425 83.0951 19.9425 83.1171 19.53 83.1171C19.1174 83.1171 19.1187 83.1184 18.7068 83.1184C18.2949 83.1184 18.2955 82.8095 17.8836 82.8095C17.4717 82.8095 17.4711 82.8717 17.0579 82.8717C16.6448 82.8717 16.646 82.7893 16.2335 82.7893C15.8209 82.7893 15.8209 82.9095 15.4078 82.9095C14.9946 82.9095 14.9946 83.1284 14.5815 83.1284C14.1683 83.1284 14.1689 82.7591 13.7564 82.7591C13.3439 82.7591 13.3426 83.08 12.9295 83.08C12.5163 83.08 12.5151 82.8069 12.1013 82.8069C11.6875 82.8069 11.6869 82.8686 11.2731 82.8686C10.982 82.8686 10.6289 82.8428 10.376 82.9485C10.1138 83.058 9.87525 83.3228 9.67743 83.5217C9.47962 83.7205 9.35442 84.0174 9.2455 84.281C9.14033 84.5352 9.14033 84.8328 9.14033 85.1253C9.14033 85.5739 9.08775 85.5739 9.08775 86.0231C9.08775 86.4723 9.00511 86.4711 9.00511 86.9197C9.00511 87.3682 9.00073 87.3689 9.00073 87.8181C9.00073 88.2673 9.21232 88.2679 9.21232 88.7178C9.21232 89.1676 9.248 89.1676 9.248 89.6174C9.248 89.91 9.36005 90.1157 9.46459 90.3699C9.57352 90.6335 9.60231 90.8984 9.80013 91.0972C9.99794 91.296 10.1163 91.6766 10.3785 91.7855C10.6314 91.8911 10.9814 91.8622 11.2725 91.8622C11.6819 91.8622 11.6819 91.7792 12.0913 91.7792C12.5007 91.7792 12.5007 91.9088 12.9101 91.9088C13.3195 91.9088 13.3195 91.9232 13.7295 91.9232C14.1395 91.9232 14.1389 91.9893 14.5489 91.9893C14.9589 91.9893 14.9589 91.9887 15.3683 91.9887C15.7777 91.9887 15.7784 91.7458 16.1884 91.7458C16.5984 91.7458 16.5984 91.7949 17.0091 91.7949C17.4197 91.7949 17.4197 91.9151 17.8298 91.9151C18.2398 91.9151 18.2404 91.6099 18.6511 91.6099C19.0617 91.6099 19.0617 91.5747 19.473 91.5747C19.8843 91.5747 19.8843 91.9692 20.2956 91.9692C20.7068 91.9692 20.7062 91.9931 21.1175 91.9931C21.5288 91.9931 21.5281 91.9188 21.9388 91.9188C22.3494 91.9188 22.3494 91.6206 22.7595 91.6206C23.1695 91.6206 23.1695 91.81 23.5801 91.81C23.9908 91.81 23.9902 91.8723 24.4008 91.8723C24.8115 91.8723 24.8108 91.7829 25.2209 91.7829C25.6309 91.7829 25.6309 91.5678 26.0409 91.5678C26.451 91.5678 26.451 91.7206 26.861 91.7206C27.271 91.7206 27.271 91.9968 27.681 91.9968C28.0911 91.9968 28.0911 91.586 28.5011 91.586C28.9111 91.586 28.9111 91.6993 29.3211 91.6993C29.7312 91.6993 29.7312 91.5608 30.1412 91.5608C30.5512 91.5608 30.5512 91.6118 30.9612 91.6118C31.3713 91.6118 31.3713 91.9792 31.7819 91.9792C32.1926 91.9792 32.1926 91.9906 32.6032 91.9906C33.0139 91.9906 33.0139 91.8314 33.4245 91.8314C33.8352 91.8314 33.8358 91.798 34.2465 91.798C34.6571 91.798 34.6577 91.988 35.069 91.988C35.4803 91.988 35.4803 91.7112 35.8916 91.7112C36.3029 91.7112 36.3022 91.6351 36.7135 91.6351C37.1248 91.6351 37.1242 91.927 37.5348 91.927C37.9455 91.927 37.9455 91.6571 38.3561 91.6571C38.7668 91.6571 38.7668 91.8282 39.1768 91.8282C39.5868 91.8282 39.5875 91.6464 39.9975 91.6464C40.4075 91.6464 40.4081 91.6823 40.8182 91.6823C41.2282 91.6823 41.2288 91.9773 41.6388 91.9773C42.0489 91.9773 42.0495 91.8735 42.4601 91.8735C42.8708 91.8735 42.8708 91.5577 43.2814 91.5577C43.6921 91.5577 43.6921 91.5634 44.1034 91.5634C44.5147 91.5634 44.5147 91.8528 44.9253 91.8528C45.336 91.8528 45.3366 91.7471 45.7479 91.7471C46.1591 91.7471 46.1591 91.6055 46.5704 91.6055C46.9817 91.6055 46.9817 91.8043 47.3924 91.8043C47.803 91.8043 47.803 91.6106 48.2143 91.6106C48.6256 91.6106 48.6249 91.9182 49.0356 91.9182C49.4462 91.9182 49.4462 91.7144 49.8569 91.7144C50.2675 91.7144 50.2675 91.6647 50.6782 91.6647C51.0888 91.6647 51.0888 91.9333 51.5001 91.9333C51.9114 91.9333 51.9114 91.6212 52.3221 91.6212C52.7327 91.6212 52.7333 91.971 53.1446 91.971C53.5559 91.971 53.5559 91.7458 53.9678 91.7458C54.3797 91.7458 54.3791 91.8276 54.7903 91.8276C55.2016 91.8276 55.2016 91.6533 55.6123 91.6533C56.0229 91.6533 56.0236 91.5967 56.4342 91.5967C56.8449 91.5967 56.8449 91.7892 57.2561 91.7892C57.6674 91.7892 57.6674 91.7345 58.0781 91.7345C58.4887 91.7345 58.4894 91.8534 58.9006 91.8534C59.3119 91.8534 59.3119 91.9427 59.7238 91.9427C60.1357 91.9427 60.1351 91.5873 60.547 91.5873C60.9589 91.5873 60.9583 91.7949 61.3696 91.7949C61.7808 91.7949 61.7796 91.6854 62.1902 91.6854C62.6009 91.6854 62.6003 91.6087 63.0103 91.6087C63.4203 91.6087 63.4203 91.9805 63.8297 91.9805C64.2391 91.9805 64.2397 91.827 64.6491 91.827C65.0585 91.827 65.0592 91.6967 65.4686 91.6967C65.878 91.6967 65.8786 91.8974 66.2886 91.8974C66.6986 91.8974 66.6993 91.8087 67.1099 91.8087C67.5206 91.8087 67.5212 91.642 67.9325 91.642C68.3438 91.642 68.3444 91.6017 68.7563 91.6017C69.1682 91.6017 69.1676 91.6514 69.5788 91.6514C69.9901 91.6514 69.9895 91.8364 70.4008 91.8364C70.8121 91.8364 70.8114 91.9144 71.2221 91.9144C71.6327 91.9144 71.6327 91.8201 72.0434 91.8201C72.454 91.8201 72.4547 91.9409 72.8653 91.9409C73.276 91.9409 73.2772 91.988 73.6885 91.988C74.0998 91.988 74.1004 91.961 74.5129 91.961C74.9255 91.961 74.9242 91.9434 75.3361 91.9434C75.748 91.9434 75.7474 91.9151 76.1587 91.9151C76.57 91.9151 76.57 91.5678 76.9819 91.5678C77.3938 91.5678 77.3938 91.8956 77.8063 91.8956C78.2188 91.8956 78.2182 91.6143 78.6301 91.6143C79.042 91.6143 79.042 91.7653 79.4533 91.7653C79.8646 91.7653 79.8652 91.9402 80.2771 91.9402C80.689 91.9402 80.6896 91.8956 81.1022 91.8956C81.5147 91.8956 81.5141 91.8169 81.926 91.8169C82.3379 91.8169 82.3385 91.7999 82.751 91.7999C83.1636 91.7999 83.1629 91.8559 83.5755 91.8559C83.988 91.8559 83.988 91.9597 84.4005 91.9597C84.813 91.9597 84.8118 91.6414 85.2237 91.6414C85.6356 91.6414 85.635 91.8087 86.0469 91.8087C86.4588 91.8087 86.4594 91.6653 86.8726 91.6653C87.2857 91.6653 87.2845 91.6986 87.697 91.6986C88.1095 91.6986 88.1095 91.6596 88.5227 91.6596C88.9358 91.6596 88.9358 91.9515 89.349 91.9515C89.7622 91.9515 89.7615 91.6244 90.1741 91.6244C90.5866 91.6244 90.5879 91.7213 91.001 91.7213C91.4142 91.7213 91.4154 91.732 91.8292 91.732C92.243 91.732 92.2436 91.6389 92.6574 91.6389C92.9485 91.6389 93.2828 91.8521 93.5357 91.7471C93.7979 91.6376 93.8687 91.2305 94.0659 91.0317C94.2631 90.8329 94.4183 90.658 94.5272 90.3944C94.6324 90.1402 94.747 89.9087 94.747 89.6162C94.747 89.1676 94.8972 89.1676 94.8972 88.7184C94.8972 88.2692 94.5961 88.2704 94.5961 87.8218C94.5961 87.3733 94.9955 87.3726 94.9955 86.9234C94.9955 86.4742 94.9348 86.4736 94.9348 86.0238C94.9348 85.5739 94.8252 85.5739 94.8252 85.1241C94.8252 84.8315 94.6042 84.612 94.4991 84.3572C94.3901 84.0935 94.2737 83.8966 94.0759 83.6978C93.8781 83.499 93.8136 83.0636 93.5513 82.9542C93.2984 82.8485 92.9485 82.7516 92.6574 82.7516L92.658 82.756Z" fill="#0E5249"/>
<path d="M92.3318 44.8715C91.985 44.6557 92.0663 44.5242 91.7202 44.3078C91.374 44.0913 91.1975 44.3782 90.8513 44.1624C90.5051 43.9466 90.5871 43.8145 90.2409 43.5994C89.8948 43.3842 89.9179 43.3471 89.5724 43.1319C89.2268 42.9167 89.2713 42.845 88.9251 42.6292C88.5789 42.4134 88.6359 42.3222 88.2903 42.107C87.9448 41.8919 87.8647 42.0208 87.5185 41.805C87.1723 41.5892 87.1435 41.6352 86.7974 41.4194C86.4512 41.2036 86.3448 41.3747 85.998 41.1583C85.6512 40.9419 85.6756 40.901 85.3281 40.6845C84.9807 40.4681 85.0158 40.4121 84.669 40.1957C84.3222 39.9793 84.3378 39.9554 83.991 39.7389C83.6442 39.5225 83.7894 39.2885 83.4433 39.0727C83.0971 38.8569 83.0921 38.8644 82.7453 38.6486C82.3985 38.4328 82.3252 38.5511 81.9784 38.3353C81.6316 38.1195 81.5233 38.2938 81.1759 38.0774C80.8285 37.8609 80.9174 37.7162 80.57 37.4992C80.2225 37.2821 80.2526 37.2349 79.9052 37.0185C79.5577 36.8021 79.4094 37.0437 79.0619 36.8279C78.7145 36.6121 78.9305 36.2623 78.5831 36.0459C78.2356 35.8294 78.0215 36.1755 77.6741 35.959C77.3267 35.7426 77.3592 35.6891 77.0118 35.4727C76.6644 35.2563 76.8234 34.9983 76.4766 34.7819C76.1298 34.5655 75.9871 34.7957 75.6396 34.5787C75.2922 34.3616 75.2396 34.4466 74.8916 34.2301C74.5435 34.0137 74.5491 34.0049 74.2017 33.7885C73.8543 33.5721 73.8424 33.5947 73.4962 33.3789C73.15 33.1631 73.3022 32.9159 72.9554 32.7001C72.6086 32.4843 72.4821 32.6862 72.1334 32.4692C71.7848 32.2521 71.8473 32.1527 71.4999 31.9363C71.1525 31.7199 71.0937 31.8155 70.7462 31.5991C70.3988 31.3826 70.4201 31.3455 70.072 31.1278C69.724 30.9102 69.7315 30.8995 69.3834 30.6824C69.0354 30.4654 69.0416 30.4547 68.693 30.2376C68.3443 30.0205 68.4983 29.7746 68.1515 29.5588C67.8028 29.3417 67.6945 29.5166 67.3458 29.2989C66.9971 29.0812 66.9652 29.1322 66.6159 28.9145C66.2666 28.6968 66.1865 28.8239 65.8366 28.6056C65.4866 28.3873 65.6081 28.2659 65.2062 28.174C65.1235 28.4313 65.0002 28.4697 64.9032 28.7214C64.8062 28.973 64.9533 29.3335 64.8418 29.5789C64.7304 29.8243 64.3924 29.9639 64.2666 30.203C64.1407 30.4421 64.0374 30.6918 63.8978 30.9227C63.7583 31.1536 63.4553 31.2719 63.3031 31.4946C63.151 31.7173 63.1016 32.0055 62.9369 32.2194C62.7723 32.4333 62.8205 32.8278 62.6434 33.0316C62.4662 33.2355 62.0455 33.216 61.8577 33.4097C61.6699 33.6035 61.5573 33.8696 61.3582 34.0521C61.1591 34.2345 60.8674 34.3006 60.6583 34.4711C60.4492 34.6416 60.4392 35.0757 60.2208 35.2336C60.0029 35.3909 59.7012 35.4387 59.4733 35.5834C59.2467 35.7275 58.9293 35.7174 58.6933 35.8489C58.4592 35.9798 58.1919 36.0301 57.9484 36.1478C57.7068 36.2642 57.5715 36.6171 57.3218 36.7203C57.0745 36.8228 56.7427 36.6995 56.4873 36.7882C56.2344 36.8757 56.0798 37.2916 55.8194 37.3652C55.5621 37.4382 55.2748 37.4382 55.0106 37.4967C54.7439 37.5564 54.4829 37.6923 54.2162 37.7357C53.9464 37.7798 53.6628 37.7993 53.3943 37.8276C53.1226 37.8559 52.839 37.8458 52.5686 37.8578C52.2963 37.8697 52.0152 37.8282 51.7448 37.8244C51.4719 37.8207 51.1877 37.8886 50.9178 37.8685C50.6462 37.8484 50.4183 37.4111 50.1498 37.3752C49.88 37.3394 49.5469 37.6961 49.2815 37.6445C49.0161 37.5929 48.7813 37.3608 48.5184 37.2941C48.2555 37.2274 47.9876 37.167 47.729 37.0846C47.4705 37.0022 47.1594 37.0468 46.9065 36.9487C46.6536 36.8505 46.4802 36.5454 46.2335 36.4334C45.9869 36.3214 45.6376 36.4045 45.3972 36.278C45.1568 36.1516 44.9008 36.0276 44.6679 35.8867C44.435 35.7458 44.3555 35.3569 44.1314 35.2034C43.9073 35.0499 43.6475 34.948 43.4322 34.7813C43.2169 34.6146 43.0873 34.3491 42.882 34.1704C42.6766 33.9917 42.5308 33.7614 42.3367 33.5708C42.1427 33.3802 41.8597 33.2852 41.6769 33.0832C41.4941 32.8813 41.3796 32.6283 41.208 32.4157C41.0365 32.203 40.6747 32.1395 40.5157 31.9174C40.3567 31.6953 40.3617 31.3631 40.2158 31.1316C40.0712 30.9013 39.839 30.7233 39.7075 30.4836C39.5767 30.2458 39.3783 30.0363 39.2606 29.789C39.1441 29.5437 39.0684 29.2719 38.9657 29.0183C38.8637 28.7667 38.89 28.6855 38.8017 28.4263C38.3998 28.5163 38.3009 28.269 37.951 28.4873C37.6011 28.7056 37.817 29.0561 37.4671 29.2738C37.1172 29.4914 36.9757 29.2618 36.6258 29.4801C36.2758 29.6984 36.4148 29.9224 36.0649 30.1407C35.7149 30.359 35.6423 30.2414 35.2924 30.4591C34.9425 30.6767 34.8623 30.5478 34.5124 30.7661C34.1625 30.9844 34.2007 31.0473 33.8501 31.2663C33.4996 31.4852 33.621 31.6827 33.2704 31.9017C32.9199 32.1206 32.851 32.0105 32.4992 32.2301C32.1474 32.4497 32.2 32.5333 31.8494 32.7523C31.4989 32.9712 31.4763 32.9354 31.1258 33.1537C30.7752 33.372 30.6106 33.1052 30.26 33.3242C29.9095 33.5431 30.0779 33.8162 29.7273 34.0345C29.3768 34.2528 29.3442 34.2012 28.9936 34.4201C28.6431 34.6391 28.5423 34.4774 28.1911 34.6963C27.8399 34.9153 27.8518 34.936 27.5 35.1556C27.1482 35.3752 27.08 35.2626 26.7288 35.4815C26.3776 35.7005 26.5723 36.0157 26.2211 36.234C25.8699 36.4523 25.8618 36.4397 25.5106 36.6586C25.1594 36.8776 25.1851 36.9204 24.8333 37.1399C24.4815 37.3595 24.4076 37.2387 24.0558 37.4583C23.704 37.6779 23.6057 37.5174 23.2545 37.7364C22.9033 37.9553 23.0523 38.1982 22.7011 38.4171C22.35 38.636 22.3794 38.6851 22.027 38.9047C21.6745 39.1243 21.513 38.8606 21.1612 39.0796C20.8094 39.2985 20.8388 39.3426 20.4883 39.5603C20.1377 39.7779 20.2729 39.9981 19.9224 40.2171C19.5718 40.436 19.4641 40.2649 19.1117 40.4845C18.7593 40.704 18.8469 40.8437 18.4951 41.0626C18.1433 41.2816 18.06 41.1463 17.7088 41.3653C17.3577 41.5842 17.347 41.5697 16.994 41.7899C16.6409 42.0101 16.5301 41.8283 16.1783 42.0479C15.8265 42.2675 15.8553 42.3159 15.5028 42.5355C15.1504 42.755 15.1736 42.794 14.8211 43.0142C14.4687 43.2344 14.5519 43.3685 14.1995 43.588C13.8471 43.8076 13.8483 43.8107 13.4953 44.0303C13.1422 44.2499 13.1967 44.3411 12.843 44.5613C12.4893 44.7815 12.4636 44.7412 12.1099 44.9614C11.8764 45.1068 11.6035 45.1653 11.4451 45.3521C11.2717 45.5566 11.1321 45.7875 11.0426 46.0234C10.95 46.2688 11.0176 46.5393 11.0088 46.7967C11.0001 47.0559 11.0645 47.2786 11.1353 47.5277C11.206 47.7769 11.1559 48.0757 11.2993 48.2915C11.4414 48.5054 11.5641 48.7942 11.7719 48.9527C11.9716 49.1056 12.3121 49.0484 12.5663 49.1302C12.7992 49.2056 13.0364 49.4007 13.3106 49.4007C13.7188 49.4007 13.7188 49.2975 14.1269 49.2975C14.535 49.2975 14.535 49.2918 14.9432 49.2918C15.3513 49.2918 15.3513 49.2616 15.7601 49.2616C16.1689 49.2616 16.1689 49.3019 16.577 49.3019C16.9852 49.3019 16.9858 49.3371 17.3946 49.3371C17.8034 49.3371 17.804 49.4976 18.2128 49.4976C18.6215 49.4976 18.6222 49.3334 19.0316 49.3334C19.441 49.3334 19.441 49.4504 19.8497 49.4504C20.2585 49.4504 20.2585 49.2157 20.6673 49.2157C21.0761 49.2157 21.0761 49.0949 21.4848 49.0949C21.8936 49.0949 21.8936 49.4403 22.3018 49.4403C22.7099 49.4403 22.7099 49.1081 23.1187 49.1081C23.5275 49.1081 23.5268 49.5215 23.935 49.5215C24.3431 49.5215 24.3431 49.4674 24.7513 49.4674C25.1594 49.4674 25.1594 49.3736 25.5676 49.3736C25.9757 49.3736 25.9757 49.4026 26.3839 49.4026C26.792 49.4026 26.792 49.4516 27.2002 49.4516C27.6083 49.4516 27.6083 49.2623 28.0165 49.2623C28.4246 49.2623 28.4246 49.4724 28.8328 49.4724C29.2409 49.4724 29.2409 49.3787 29.6497 49.3787C30.0585 49.3787 30.0585 49.4856 30.4666 49.4856C30.8748 49.4856 30.8754 49.0792 31.2842 49.0792C31.6929 49.0792 31.6929 49.1906 32.1023 49.1906C32.5117 49.1906 32.5117 49.2075 32.9205 49.2075C33.3293 49.2075 33.3299 49.5083 33.7393 49.5083C34.1487 49.5083 34.1487 49.2811 34.5581 49.2811C34.9675 49.2811 34.9675 49.3101 35.3763 49.3101C35.7851 49.3101 35.7851 49.1981 36.1938 49.1981C36.6026 49.1981 36.6026 49.4365 37.0114 49.4365C37.4202 49.4365 37.4202 49.4139 37.8289 49.4139C38.2377 49.4139 38.2377 49.356 38.6459 49.356C39.054 49.356 39.0546 49.3648 39.4628 49.3648C39.8709 49.3648 39.8715 49.2302 40.2803 49.2302C40.6891 49.2302 40.6891 49.3302 41.0979 49.3302C41.5066 49.3302 41.5066 49.1906 41.9154 49.1906C42.3242 49.1906 42.3242 49.5284 42.7336 49.5284C43.143 49.5284 43.143 49.4554 43.5524 49.4554C43.9618 49.4554 43.9618 49.1742 44.3718 49.1742C44.7818 49.1742 44.7812 49.5202 45.1906 49.5202C45.6 49.5202 45.6 49.2635 46.0094 49.2635C46.4188 49.2635 46.4182 49.2742 46.8276 49.2742C47.237 49.2742 47.2364 49.2296 47.6458 49.2296C48.0552 49.2296 48.0545 49.4183 48.4633 49.4183C48.8721 49.4183 48.8721 49.4856 49.2815 49.4856C49.6909 49.4856 49.6903 49.3793 50.0997 49.3793C50.5091 49.3793 50.5091 49.5039 50.9178 49.5039C51.3266 49.5039 51.3273 49.1855 51.7367 49.1855C52.1461 49.1855 52.1467 49.0956 52.5561 49.0956C52.9655 49.0956 52.9655 49.4913 53.3749 49.4913C53.7843 49.4913 53.7843 49.1515 54.1937 49.1515C54.6031 49.1515 54.6031 49.4095 55.0119 49.4095C55.4206 49.4095 55.4213 49.3554 55.83 49.3554C56.2388 49.3554 56.2394 49.3025 56.6482 49.3025C57.057 49.3025 57.0576 49.2264 57.467 49.2264C57.8764 49.2264 57.8764 49.0981 58.2864 49.0981C58.6965 49.0981 58.6965 49.4403 59.1059 49.4403C59.5153 49.4403 59.5153 49.2811 59.9247 49.2811C60.3341 49.2811 60.3334 49.3579 60.7416 49.3579C61.1497 49.3579 61.1497 49.1648 61.5579 49.1648C61.966 49.1648 61.966 49.4686 62.3742 49.4686C62.7823 49.4686 62.7823 49.3378 63.1898 49.3378C63.5974 49.3378 63.598 49.0874 64.0061 49.0874C64.4143 49.0874 64.4143 49.1811 64.8231 49.1811C65.2318 49.1811 65.2318 49.4365 65.6406 49.4365C66.0494 49.4365 66.05 49.4825 66.4594 49.4825C66.8688 49.4825 66.8694 49.4384 67.2801 49.4384C67.6907 49.4384 67.6895 49.1094 68.0989 49.1094C68.5083 49.1094 68.5083 49.4825 68.9171 49.4825C69.3258 49.4825 69.3258 49.1018 69.7346 49.1018C70.1434 49.1018 70.1434 49.1541 70.5522 49.1541C70.9609 49.1541 70.9616 49.3705 71.371 49.3705C71.7804 49.3705 71.781 49.4303 72.191 49.4303C72.601 49.4303 72.601 49.4485 73.0117 49.4485C73.4224 49.4485 73.4211 49.2969 73.8311 49.2969C74.2412 49.2969 74.2405 49.1893 74.6499 49.1893C75.0593 49.1893 75.0593 49.4082 75.4694 49.4082C75.8794 49.4082 75.8794 49.1755 76.29 49.1755C76.7007 49.1755 76.7001 49.317 77.1107 49.317C77.5214 49.317 77.5207 49.244 77.9308 49.244C78.3408 49.244 78.3408 49.4856 78.7508 49.4856C79.1608 49.4856 79.1615 49.2742 79.5721 49.2742C79.9828 49.2742 79.9821 49.1805 80.3922 49.1805C80.8022 49.1805 80.8028 49.502 81.2135 49.502C81.6241 49.502 81.6241 49.2296 82.0342 49.2296C82.4442 49.2296 82.4448 49.1144 82.8555 49.1144C83.2661 49.1144 83.2649 49.2918 83.6749 49.2918C84.0849 49.2918 84.0843 49.1912 84.4943 49.1912C84.9043 49.1912 84.9056 49.1968 85.3162 49.1968C85.7269 49.1968 85.7269 49.4749 86.1369 49.4749C86.547 49.4749 86.5476 49.1943 86.9589 49.1943C87.3701 49.1943 87.3701 49.2805 87.7814 49.2805C88.1927 49.2805 88.1921 49.3673 88.6027 49.3673C89.0134 49.3673 89.0146 49.2535 89.4265 49.2535C89.8384 49.2535 89.8391 49.468 90.2516 49.468C90.6641 49.468 90.6641 49.4844 91.0766 49.4844C91.3515 49.4844 91.5937 49.2226 91.8266 49.1471C92.0814 49.0654 92.4288 49.122 92.6285 48.9691C92.8363 48.8099 92.8344 48.4299 92.9772 48.216C93.1212 48.0002 93.2226 47.7882 93.2933 47.539C93.364 47.2899 93.4479 47.054 93.4385 46.7941C93.4298 46.5375 93.5956 46.2078 93.5024 45.9624C93.4129 45.7271 93.1913 45.4918 93.0179 45.2873C92.8595 45.0999 92.5653 45.0168 92.3318 44.8715Z" fill="#0E5249"/>
<path d="M47.5082 51.9273C47.8043 52.218 47.4882 52.2407 47.4882 52.6565C47.4882 53.0724 47.6015 53.073 47.6015 53.4889C47.6015 53.9047 47.5827 53.906 47.5827 54.3225C47.5827 54.739 47.5765 54.7396 47.5765 55.1574C47.5765 55.5751 47.388 55.5739 47.388 55.991C47.388 56.4081 47.599 56.4075 47.599 56.824C47.599 57.2405 47.6954 57.2405 47.6954 57.6569C47.6954 58.0734 47.4256 58.0741 47.4256 58.4918C47.4256 58.9096 47.5589 58.9089 47.5589 59.3261C47.5589 59.7432 47.7799 59.7432 47.7799 60.1597C47.7799 60.5762 47.763 60.5768 47.763 60.9939C47.763 61.411 47.6278 61.4117 47.6278 61.8294C47.6278 62.2472 47.7336 62.2466 47.7336 62.6637C47.7336 63.0808 47.7017 63.0814 47.7017 63.4992C47.7017 63.9169 47.7355 63.9163 47.7355 64.334C47.7355 64.7518 47.5139 64.7518 47.5139 65.1689C47.5139 65.586 47.5345 65.5854 47.5345 66.0025C47.5345 66.4197 47.8225 66.419 47.8225 66.8362C47.8225 67.2533 47.6052 67.2539 47.6052 67.6723C47.6052 68.0907 47.7098 68.0894 47.7098 68.5072C47.7098 68.9249 47.393 68.9249 47.393 69.3433C47.393 69.7617 47.4782 69.7617 47.4782 70.18C47.4782 70.5984 47.5107 70.5978 47.5107 71.0156C47.5107 71.4333 47.6816 71.4346 47.6816 71.8529C47.6816 72.2713 47.43 72.2726 47.43 72.6916C47.43 73.1106 47.7855 73.1137 47.4888 73.4082C47.189 73.7064 47.1871 73.4195 46.7652 73.4195C46.3432 73.4195 46.3445 73.5384 45.9232 73.5384C45.5019 73.5384 45.5025 73.4485 45.0812 73.4485C44.6599 73.4485 44.6587 73.5114 44.2368 73.5114C43.8149 73.5114 43.8155 73.5019 43.3936 73.5019C42.9716 73.5019 42.9716 73.4692 42.5491 73.4692C42.1265 73.4692 42.1265 73.4472 41.704 73.4472C41.2815 73.4472 41.2821 73.5711 40.8602 73.5711C40.4382 73.5711 40.437 73.507 40.0138 73.507C39.5906 73.507 39.59 73.6032 39.1662 73.6032C38.7424 73.6032 38.6097 73.8404 38.3067 73.5428C38.0106 73.2522 38.1671 73.1144 38.1671 72.6985C38.1671 72.2826 38.477 72.282 38.477 71.8662C38.477 71.4503 38.1177 71.449 38.1177 71.0325C38.1177 70.616 38.4407 70.6154 38.4407 70.1977C38.4407 69.7799 38.5052 69.7812 38.5052 69.3641C38.5052 68.9469 38.4745 68.9476 38.4745 68.5311C38.4745 68.1146 38.4263 68.1146 38.4263 67.6981C38.4263 67.2816 38.2366 67.281 38.2366 66.8632C38.2366 66.4455 38.216 66.4461 38.216 66.029C38.216 65.6118 38.266 65.6118 38.266 65.1953C38.266 64.7789 38.2754 64.7782 38.2754 64.3611C38.2754 63.944 38.3593 63.9434 38.3593 63.5256C38.3593 63.1078 38.3537 63.1085 38.3537 62.6914C38.3537 62.2742 38.4551 62.2736 38.4551 61.8559C38.4551 61.4381 38.487 61.4387 38.487 61.021C38.487 60.6032 38.3674 60.6032 38.3674 60.1861C38.3674 59.769 38.2034 59.7696 38.2034 59.3525C38.2034 58.9354 38.266 58.936 38.266 58.5189C38.266 58.1018 38.3036 58.1011 38.3036 57.6827C38.3036 57.2644 38.5271 57.2656 38.5271 56.8479C38.5271 56.4301 38.4088 56.4301 38.4088 56.0117C38.4088 55.5934 38.2222 55.5934 38.2222 55.175C38.2222 54.7566 38.4563 54.7572 38.4563 54.3395C38.4563 53.9217 38.5202 53.9205 38.5202 53.5021C38.5202 53.0837 38.492 53.0824 38.492 52.6634C38.492 52.2444 38.0576 52.1545 38.3543 51.8594C38.6542 51.5612 38.7418 51.8229 39.1637 51.8229C39.5856 51.8229 39.5844 51.6744 40.0057 51.6744C40.427 51.6744 40.4263 51.9512 40.8476 51.9512C41.2689 51.9512 41.2702 51.8846 41.6921 51.8846C42.114 51.8846 42.1134 52.0003 42.5353 52.0003C42.9572 52.0003 42.9572 51.8065 43.3798 51.8065C43.8023 51.8065 43.8023 52.0255 44.2249 52.0255C44.6474 52.0255 44.6468 51.9783 45.0687 51.9783C45.4906 51.9783 45.4919 51.8688 45.9151 51.8688C46.3382 51.8688 46.3376 51.8481 46.7564 51.7852C47.152 51.7254 47.2071 51.6304 47.5107 51.928L47.5082 51.9273Z" fill="white"/>
<path d="M66.2267 51.6681C66.5228 51.9588 66.0627 52.2413 66.0627 52.6571C66.0627 53.073 65.9976 53.0736 65.9976 53.4895C65.9976 53.9054 65.9964 53.9066 65.9964 54.3231C65.9964 54.7396 66.2436 54.7402 66.2436 55.158C66.2436 55.5757 65.9087 55.5745 65.9087 55.9916C65.9087 56.4087 66.2493 56.4081 66.2493 56.8246C66.2493 57.2411 66.0158 57.2411 66.0158 57.6576C66.0158 58.0741 66.1247 58.0747 66.1247 58.4924C66.1247 58.9102 66.1178 58.9096 66.1178 59.3267C66.1178 59.7438 66.0089 59.7438 66.0089 60.1603C66.0089 60.5768 65.9826 60.5774 65.9826 60.9945C65.9826 61.4117 65.9225 61.4123 65.9225 61.8301C65.9225 62.2478 66.2048 62.2472 66.2048 62.6643C66.2048 63.0814 65.8574 63.082 65.8574 63.4998C65.8574 63.9176 66.0089 63.9169 66.0089 64.3347C66.0089 64.7524 66.1967 64.7524 66.1967 65.1695C66.1967 65.5867 66.2875 65.586 66.2875 66.0032C66.2875 66.4203 65.8824 66.4197 65.8824 66.8368C65.8824 67.2539 65.8649 67.2545 65.8649 67.6729C65.8649 68.0913 66.0252 68.09 66.0252 68.5078C66.0252 68.9255 66.0821 68.9255 66.0821 69.3439C66.0821 69.7623 66.2975 69.7623 66.2975 70.1807C66.2975 70.5991 65.9463 70.5984 65.9463 71.0162C65.9463 71.4339 66.1635 71.4352 66.1635 71.8536C66.1635 72.272 65.9444 72.2732 65.9444 72.6922C65.9444 73.1112 66.2712 73.1358 65.9745 73.4308C65.6746 73.729 65.6515 73.5214 65.2295 73.5214C64.8076 73.5214 64.8089 73.395 64.3876 73.395C63.9663 73.395 63.9669 73.7567 63.5456 73.7567C63.1243 73.7567 63.1231 73.6114 62.7011 73.6114C62.2792 73.6114 62.2798 73.634 61.8579 73.634C61.436 73.634 61.436 73.5076 61.0135 73.5076C60.5909 73.5076 60.5909 73.5428 60.1684 73.5428C59.7458 73.5428 59.7464 73.3641 59.3245 73.3641C58.9026 73.3641 58.9014 73.6737 58.4782 73.6737C58.055 73.6737 58.0544 73.7322 57.6306 73.7322C57.2068 73.7322 57.091 73.8247 56.788 73.5271C56.4919 73.2364 57.0083 73.1163 57.0083 72.7004C57.0083 72.2845 56.8819 72.2839 56.8819 71.868C56.8819 71.4522 56.6878 71.4509 56.6878 71.0344C56.6878 70.6179 56.9727 70.6173 56.9727 70.1995C56.9727 69.7818 56.9833 69.7831 56.9833 69.3659C56.9833 68.9488 56.6015 68.9494 56.6015 68.5329C56.6015 68.1165 56.9626 68.1165 56.9626 67.7C56.9626 67.2835 56.7692 67.2828 56.7692 66.8651C56.7692 66.4473 56.9764 66.448 56.9764 66.0308C56.9764 65.6137 56.9351 65.6137 56.9351 65.1972C56.9351 64.7807 56.634 64.7801 56.634 64.363C56.634 63.9459 56.977 63.9452 56.977 63.5275C56.977 63.1097 56.562 63.1104 56.562 62.6932C56.562 62.2761 56.8531 62.2755 56.8531 61.8577C56.8531 61.44 56.6371 61.4406 56.6371 61.0229C56.6371 60.6051 56.8725 60.6051 56.8725 60.188C56.8725 59.7709 56.8594 59.7715 56.8594 59.3544C56.8594 58.9372 56.8331 58.9379 56.8331 58.5208C56.8331 58.1036 56.619 58.103 56.619 57.6846C56.619 57.2662 56.8619 57.2675 56.8619 56.8498C56.8619 56.432 56.9752 56.432 56.9752 56.0136C56.9752 55.5952 56.9451 55.5952 56.9451 55.1769C56.9451 54.7585 56.7479 54.7591 56.7479 54.3414C56.7479 53.9236 56.7617 53.9223 56.7617 53.504C56.7617 53.0856 56.6071 53.0843 56.6071 52.6653C56.6071 52.2463 56.5808 52.2174 56.8775 51.9223C57.1774 51.6241 57.2049 51.6826 57.6268 51.6826C58.0488 51.6826 58.0475 51.7864 58.4688 51.7864C58.8901 51.7864 58.8895 51.6316 59.3108 51.6316C59.732 51.6316 59.7333 51.6033 60.1552 51.6033C60.5771 51.6033 60.5765 51.6291 60.9984 51.6291C61.4204 51.6291 61.4204 51.9751 61.8429 51.9751C62.2654 51.9751 62.2654 51.6165 62.688 51.6165C63.1105 51.6165 63.1099 51.967 63.5318 51.967C63.9538 51.967 63.955 51.6008 64.3782 51.6008C64.8014 51.6008 64.8295 51.9827 65.2364 51.8632C65.7541 51.7109 65.9225 51.3712 66.2255 51.6688L66.2267 51.6681Z" fill="white"/>
</g>
</g>
<defs>
<clipPath id="clip0_2973_8626">
<rect width="104" height="104" fill="white"/>
</clipPath>
<clipPath id="clip1_2973_8626">
<rect width="86" height="80" fill="white" transform="translate(9 12)"/>
</clipPath>
</defs>
</svg>
