<svg width="104" height="104" viewBox="0 0 104 104" fill="none" xmlns="http://www.w3.org/2000/svg">
<g clip-path="url(#clip0_2973_8643)">
<path d="M42.9963 81.6886C42.9963 81.7901 43.0077 81.857 42.9482 81.9559C42.899 82.0372 42.9302 82.2007 42.8424 82.2796C42.7706 82.3443 42.6323 82.3443 42.5357 82.4074C42.453 82.4614 42.3679 82.524 42.2677 82.5765C42.179 82.623 42.0554 82.6048 41.9535 82.6503C41.8611 82.6914 41.8322 82.8991 41.7291 82.9392C41.6342 82.9762 41.4662 82.827 41.3624 82.863C41.2656 82.8966 41.2208 83.0982 41.1165 83.131C41.0185 83.1619 40.9181 83.2023 40.8137 83.2325C40.7148 83.2612 40.6031 83.2612 40.4986 83.2892C40.3986 83.316 40.2814 83.2875 40.1763 83.3133C40.0757 83.3382 39.9837 83.4112 39.8787 83.4355C39.7775 83.4589 39.6374 83.3158 39.5319 83.3384C39.4303 83.3606 39.3335 83.409 39.2279 83.4307C39.1258 83.4513 39.0251 83.4844 38.9196 83.5047C38.8169 83.5244 38.7051 83.4954 38.5993 83.5146C38.4964 83.5331 38.4235 83.7288 38.3179 83.7468C38.2148 83.7644 38.091 83.6663 37.9853 83.6833C37.8819 83.7001 37.7812 83.7393 37.6754 83.7556C37.5718 83.7714 37.4607 83.742 37.3549 83.7573C37.2511 83.7724 37.1475 83.7921 37.0415 83.8067C36.9376 83.8211 36.8355 83.8539 36.7294 83.8678C36.6256 83.8814 36.5371 84.0207 36.4313 84.0338C36.3275 84.0467 36.2244 84.0798 36.1186 84.0922C36.0145 84.1044 35.897 84.0112 35.7912 84.0229C35.6869 84.0345 35.5892 84.1151 35.4831 84.1263C35.3786 84.1375 35.2774 84.1906 35.1714 84.2013C35.0668 84.2117 34.9564 84.1765 34.8504 84.1864C34.7455 84.1964 34.6252 84.0419 34.5189 84.0513C34.4141 84.0608 34.3119 84.1064 34.2057 84.1154C34.1006 84.1244 34.0067 84.2753 33.9005 84.2838C33.7954 84.2923 33.6797 84.1723 33.5732 84.1803C33.4679 84.1884 33.3677 84.2699 33.2611 84.2775C33.1558 84.285 33.042 84.1733 32.9355 84.1803C32.8307 84.1872 32.7356 84.3549 32.6296 84.3614C32.5245 84.368 32.4151 84.3135 32.3091 84.3196C32.2038 84.3257 32.1016 84.3965 31.9954 84.4021C31.8901 84.4077 31.7784 84.2989 31.6722 84.3042C31.5666 84.3094 31.4604 84.303 31.3541 84.3079C31.2485 84.3128 31.1459 84.3958 31.0394 84.4001C30.9336 84.4045 30.8266 84.3858 30.7201 84.3897C30.6148 84.3936 30.5112 84.4591 30.4049 84.4627C30.2994 84.4661 30.1924 84.4415 30.0861 84.4444C29.9803 84.4476 29.8767 84.5464 29.7702 84.5494C29.6644 84.552 29.5574 84.5462 29.4509 84.5486C29.3444 84.5511 29.234 84.33 29.1275 84.332C29.0217 84.3339 28.9171 84.4155 28.8106 84.4169C28.7041 84.4184 28.5978 84.3807 28.4911 84.3819C28.3843 84.3831 28.2795 84.534 28.1725 84.5348C28.0662 84.5355 27.9595 84.5501 27.8525 84.5503C27.7455 84.5506 27.6382 84.5218 27.5307 84.5218C27.4242 84.5218 27.3177 84.4831 27.2114 84.4829C27.1052 84.4827 26.9991 84.3561 26.8931 84.3554C26.7863 84.3546 26.6784 84.5545 26.5723 84.5532C26.4656 84.552 26.3617 84.3622 26.2557 84.3605C26.149 84.359 26.0434 84.3354 25.9374 84.3335C25.8306 84.3315 25.7212 84.4943 25.6152 84.4919C25.5084 84.4895 25.4009 84.5267 25.2949 84.5238C25.1881 84.5211 25.0819 84.5075 24.9761 84.5043C24.8693 84.5012 24.7618 84.5272 24.656 84.5238C24.5493 84.5201 24.4493 84.3391 24.3433 84.3352C24.2368 84.3313 24.1315 84.3064 24.0257 84.3021C23.9192 84.2977 23.8105 84.3539 23.7047 84.349C23.5982 84.3442 23.4863 84.4571 23.3805 84.452C23.274 84.4466 23.1741 84.3164 23.0683 84.3108C22.9618 84.3052 22.8521 84.3614 22.7466 84.3554C22.64 84.3493 22.5379 84.2767 22.4324 84.2702C22.3259 84.2636 22.215 84.3325 22.1094 84.3254C22.0029 84.3184 21.8952 84.3325 21.7899 84.3249C21.6834 84.3174 21.5749 84.3393 21.4696 84.3315C21.3631 84.3235 21.2585 84.2945 21.1532 84.286C21.0467 84.2775 20.9526 84.1297 20.8473 84.1207C20.741 84.1117 20.6299 84.1667 20.5248 84.1572C20.4186 84.1477 20.3198 84.0647 20.215 84.0548C20.1087 84.0445 19.9874 84.1952 19.8826 84.1847C19.7763 84.174 19.6666 84.1984 19.5621 84.1874C19.4558 84.1762 19.3656 84.0251 19.261 84.0134C19.155 84.0014 19.0545 83.9484 18.9502 83.936C18.8442 83.9236 18.742 83.8902 18.6377 83.8771C18.5317 83.8639 18.4315 83.8179 18.3277 83.8043C18.2219 83.7904 18.1095 83.8352 18.0057 83.8208C17.8999 83.8062 17.7866 83.8532 17.683 83.8381C17.5772 83.8228 17.4673 83.842 17.3639 83.8262C17.2584 83.8099 17.1487 83.8233 17.0456 83.8065C16.94 83.7894 16.8593 83.6303 16.7562 83.6127C16.6506 83.5947 16.5252 83.6972 16.4225 83.6787C16.317 83.6595 16.2151 83.6259 16.1127 83.6062C16.0072 83.586 15.8997 83.5813 15.7976 83.5606C15.6923 83.5392 15.6227 83.3567 15.5211 83.3345C15.4158 83.3116 15.2951 83.3713 15.1937 83.3479C15.0887 83.3236 14.9865 83.298 14.8859 83.2729C14.781 83.2469 14.6719 83.2488 14.5719 83.2221C14.4673 83.1941 14.3484 83.226 14.2494 83.1972C14.1451 83.167 14.0651 83.0643 13.9671 83.0334C13.8628 83.0006 13.7653 82.9599 13.6685 82.9261C13.5646 82.8898 13.4844 82.8068 13.3893 82.7698C13.2867 82.7296 13.1675 82.7457 13.0753 82.7046C12.9737 82.6593 12.9058 82.5627 12.8176 82.5162C12.7181 82.4638 12.5613 82.5235 12.4791 82.4697C12.383 82.4069 12.3747 82.245 12.3032 82.1803C12.2162 82.1014 12.1245 82.0566 12.0756 81.9756C12.0168 81.8775 11.8708 81.7894 11.8708 81.6886C11.8708 81.5871 11.9039 81.4299 11.9637 81.331C12.0129 81.2497 12.2402 81.2982 12.3278 81.2191C12.3995 81.1543 12.4343 81.0416 12.5311 80.9786C12.6138 80.9245 12.7135 80.8922 12.8137 80.8396C12.9024 80.7931 12.9807 80.7169 13.0829 80.6714C13.1753 80.6303 13.3003 80.6619 13.4034 80.6217C13.4982 80.5847 13.534 80.3752 13.6378 80.3392C13.7346 80.3056 13.871 80.3776 13.9754 80.3447C14.0734 80.3138 14.1981 80.3669 14.3027 80.3367C14.4017 80.308 14.5041 80.2897 14.6089 80.2617C14.7088 80.235 14.7871 80.1191 14.8919 80.0931C14.9926 80.0682 15.0658 79.9164 15.1711 79.892C15.2723 79.8686 15.4148 80.0188 15.5201 79.9962C15.6217 79.974 15.7076 79.8682 15.8129 79.8467C15.915 79.826 16.0198 79.809 16.1254 79.7888C16.228 79.7691 16.353 79.8645 16.4585 79.8455C16.5614 79.827 16.6506 79.7258 16.7562 79.7075C16.8593 79.69 16.9787 79.7662 17.0845 79.7491C17.1878 79.7323 17.2601 79.5108 17.3661 79.4945C17.4697 79.4787 17.5757 79.4673 17.6818 79.4519C17.7856 79.4368 17.8906 79.4186 17.9967 79.404C18.1005 79.3896 18.2073 79.3828 18.3133 79.3689C18.4171 79.3553 18.5356 79.4483 18.6411 79.4351C18.745 79.4222 18.8468 79.3843 18.9526 79.3719C19.0567 79.3597 19.155 79.2852 19.2608 79.2733C19.3651 79.2616 19.4855 79.3911 19.5915 79.3796C19.6961 79.3684 19.7875 79.2258 19.8938 79.2151C19.9983 79.2046 20.1065 79.2205 20.2128 79.2105C20.3176 79.2005 20.4198 79.1516 20.526 79.1421C20.6309 79.1326 20.7386 79.1445 20.8449 79.1355C20.9499 79.1265 21.0581 79.1474 21.1644 79.1389C21.2695 79.1304 21.385 79.2502 21.4915 79.2421C21.5968 79.2341 21.6894 79.0474 21.796 79.0398C21.9013 79.0323 22.0155 79.1487 22.1221 79.1416C22.2269 79.1348 22.3246 79.0048 22.4307 78.9982C22.5357 78.9917 22.649 79.1146 22.7551 79.1085C22.8604 79.1024 22.9564 78.9201 23.0627 78.9145C23.168 78.9089 23.285 79.1209 23.3912 79.1155C23.4968 79.1104 23.5975 78.9987 23.7037 78.9941C23.8093 78.9892 23.9126 78.9164 24.0191 78.9121C24.1249 78.9077 24.2339 78.9719 24.3404 78.968C24.4457 78.9641 24.5507 78.9396 24.657 78.9359C24.7626 78.9325 24.8674 78.8884 24.9736 78.8853C25.0794 78.8821 25.1845 78.8317 25.291 78.8291C25.3968 78.8264 25.5035 78.8232 25.6101 78.8208C25.7166 78.8183 25.827 79.035 25.9335 79.033C26.0393 79.0311 26.1424 78.8432 26.2487 78.8417C26.3549 78.8403 26.461 78.802 26.5677 78.8008C26.6745 78.7996 26.782 78.9223 26.889 78.9216C26.9952 78.9208 27.1015 78.8074 27.2083 78.8069C27.315 78.8064 27.4225 78.8069 27.53 78.8069C27.6365 78.8069 27.7426 79.0313 27.8488 79.0318C27.9551 79.0323 28.0616 79.0063 28.1676 79.007C28.2744 79.0077 28.3821 78.8366 28.4882 78.8378C28.5949 78.839 28.7009 78.8824 28.807 78.8838C28.9137 78.8853 29.0185 78.9714 29.1246 78.9734C29.2313 78.9753 29.3376 78.9739 29.4434 78.9761C29.5501 78.9785 29.6579 78.9191 29.7637 78.9218C29.8704 78.9245 29.9745 79.0011 30.0805 79.0043C30.1873 79.0075 30.2962 78.9203 30.4023 78.9237C30.509 78.9274 30.6158 78.9218 30.7216 78.9257C30.8281 78.9296 30.9356 78.9113 31.0414 78.9157C31.1479 78.9201 31.2541 78.9337 31.3599 78.9383C31.4664 78.9432 31.5705 78.9992 31.6763 79.0043C31.7828 79.0097 31.8852 79.0873 31.991 79.0929C32.0975 79.0985 32.2077 79.0286 32.3135 79.0347C32.42 79.0408 32.5238 79.0837 32.6293 79.0902C32.7359 79.0968 32.839 79.1462 32.9445 79.1533C33.051 79.1603 33.1602 79.1187 33.2655 79.1263C33.372 79.1338 33.4849 79.0474 33.5902 79.0554C33.6967 79.0635 33.7893 79.2409 33.8946 79.2494C34.0012 79.2579 34.106 79.2708 34.2113 79.2796C34.3175 79.2886 34.4386 79.1226 34.5437 79.1321C34.65 79.1416 34.7579 79.1328 34.8628 79.1428C34.969 79.153 35.0534 79.3789 35.1582 79.3894C35.2645 79.4001 35.3795 79.3139 35.4841 79.3251C35.5904 79.3363 35.7083 79.2329 35.8129 79.2446C35.9189 79.2565 36.0193 79.3151 36.1237 79.3273C36.2297 79.3397 36.3258 79.4288 36.4298 79.4417C36.5359 79.4549 36.6582 79.3349 36.762 79.3485C36.8678 79.3624 36.9668 79.4244 37.0706 79.4388C37.1764 79.4534 37.2618 79.6041 37.3654 79.6192C37.4712 79.6345 37.5699 79.6834 37.6732 79.6995C37.7788 79.7158 37.9028 79.6058 38.0059 79.6226C38.1115 79.6396 38.2058 79.7163 38.3089 79.734C38.4145 79.7521 38.529 79.7109 38.6319 79.7294C38.7374 79.7486 38.8456 79.7469 38.948 79.7667C39.0536 79.7869 39.1438 79.8762 39.2459 79.8971C39.3512 79.9185 39.4806 79.82 39.5822 79.8419C39.6875 79.8648 39.7962 79.8699 39.8974 79.8932C40.0025 79.9176 40.072 80.0838 40.1727 80.1089C40.2775 80.1349 40.3677 80.2045 40.4674 80.2313C40.572 80.2593 40.671 80.291 40.77 80.3197C40.8743 80.3499 41.0032 80.2854 41.1012 80.3165C41.2055 80.3494 41.2699 80.4879 41.3667 80.5217C41.4706 80.558 41.5696 80.5852 41.6646 80.6225C41.7673 80.6626 41.8667 80.6889 41.9589 80.7301C42.0605 80.7753 42.1914 80.743 42.2799 80.7895C42.3794 80.8418 42.4188 80.9761 42.5009 81.0299C42.597 81.0927 42.7205 81.0935 42.792 81.158C42.8791 81.2368 42.8886 81.349 42.9375 81.4301C42.9963 81.5282 42.9953 81.5883 42.9953 81.6891L42.9963 81.6886Z" fill="#BCEBB2"/>
<path d="M83.3665 92.186C83.3609 92.4385 83.6289 92.7961 83.4928 93.0468C83.3769 93.2592 83.0141 93.3518 82.8133 93.5605C82.6433 93.7365 82.4905 93.9656 82.2651 94.1366C82.0667 94.2873 81.8074 94.3787 81.569 94.5244C81.354 94.6566 81.2087 94.948 80.9635 95.0752C80.7374 95.1926 80.4005 95.1098 80.151 95.2222C79.9176 95.3278 79.7722 95.6723 79.5196 95.773C79.28 95.8687 78.911 95.6421 78.656 95.7335C78.4127 95.8205 78.2027 96.0169 77.9458 96.0997C77.6988 96.1793 77.4893 96.4047 77.2312 96.4794C76.9818 96.5523 76.7002 96.5356 76.4409 96.6035C76.189 96.6696 75.8896 96.5572 75.6297 96.619C75.3753 96.6795 75.1701 96.9697 74.909 97.0253C74.6527 97.0796 74.3416 96.8666 74.0798 96.9166C73.823 96.9654 73.587 97.1327 73.3252 97.1766C73.0665 97.2204 72.8275 97.4026 72.5645 97.4415C72.3046 97.4798 72.0083 97.2612 71.7446 97.2951C71.4834 97.3285 71.2346 97.4606 70.9703 97.4884C70.7079 97.5168 70.4375 97.4439 70.1726 97.4668C69.9096 97.4896 69.6459 97.4625 69.3811 97.4798C69.1162 97.497 68.871 97.8132 68.6062 97.8255C68.3413 97.8379 68.0709 97.657 67.806 97.6631C67.5411 97.6693 67.2793 97.9941 67.0151 97.9947C66.7508 97.9954 66.4878 97.6107 66.2235 97.6051C65.9593 97.5996 65.6821 97.9342 65.4184 97.9225C65.1529 97.9108 64.8893 97.8249 64.6263 97.8064C64.3491 97.7873 64.0866 97.6249 63.8175 97.5989C63.5403 97.5718 63.2754 97.4865 63.0074 97.4532C62.7315 97.4186 62.4592 97.4026 62.1925 97.3612C61.9178 97.3192 61.6252 97.4081 61.3603 97.36C61.0862 97.3099 60.8743 96.9777 60.6106 96.9215C60.3377 96.8635 59.9959 97.1383 59.7341 97.0747C59.4624 97.0092 59.2739 96.6424 59.0146 96.572C58.7448 96.4986 58.4005 96.7091 58.1436 96.6313C57.8756 96.5504 57.7062 96.1805 57.4525 96.0966C57.1863 96.0083 56.8796 96.0669 56.6289 95.9755C56.3634 95.8792 56.085 95.8409 55.8367 95.744C55.5737 95.6409 55.3322 95.5069 55.0883 95.4044C54.8265 95.2938 54.5659 95.2074 54.3263 95.0999C54.0645 94.9832 53.8218 94.856 53.5871 94.7461C53.3247 94.6232 52.9939 94.6825 52.7648 94.5726C52.5295 94.4596 52.4001 94.1224 52.163 94.0076C51.9258 93.8927 51.5907 93.9817 51.3542 93.8656C51.1176 93.7495 50.9458 93.4994 50.7105 93.3808C50.4751 93.2623 50.3612 92.9066 50.1283 92.7843C49.8955 92.6621 49.654 92.5614 49.4243 92.4342C49.1927 92.3058 48.8194 92.4311 48.5939 92.2978C48.3654 92.1625 48.1929 91.9359 47.9724 91.7957C47.7482 91.6531 47.4137 91.6722 47.1999 91.5228C46.9819 91.3703 46.9985 90.9016 46.7928 90.7417C46.5827 90.578 46.2747 90.5472 46.0795 90.3749C45.8793 90.1983 45.6649 90.0414 45.4832 89.8543C45.2971 89.6635 44.9768 89.5839 44.8118 89.382C44.6442 89.1763 44.7095 88.7935 44.566 88.5743C44.4212 88.3532 44.2709 88.1451 44.1539 87.9098C44.0368 87.6746 43.6894 87.5258 43.6019 87.2757C43.5157 87.0299 43.7054 86.694 43.6506 86.4322C43.5921 86.1518 43.3808 85.9104 43.3599 85.6591C43.3358 85.3757 43.2397 85.0891 43.2533 84.8353C43.2681 84.5556 43.4917 84.2994 43.5391 84.045C43.589 83.7751 43.8459 83.5676 43.9155 83.3132C43.9863 83.0533 43.7245 82.7044 43.7972 82.4469C43.8693 82.1919 44.0658 81.9733 44.1225 81.7065C44.1761 81.4527 44.2795 81.1995 44.3042 80.9229C44.3264 80.6691 44.1212 80.4098 44.1071 80.1263C44.0935 79.8664 44.2112 79.5928 44.1169 79.3168C44.0344 79.076 44.0516 78.7499 43.8952 78.498C43.7615 78.2825 43.4892 78.1294 43.294 77.9065C43.1264 77.715 42.8905 77.5668 42.6724 77.3699C42.4815 77.1976 42.2043 77.1198 41.9714 76.9438C41.7651 76.7876 41.632 76.5115 41.3899 76.3528C41.1725 76.2102 40.9156 76.1114 40.668 75.9669C40.4419 75.8348 40.1851 75.7421 39.9331 75.6088C39.7009 75.4853 39.582 75.1111 39.3264 74.9869C39.0886 74.8715 38.7313 74.9869 38.4726 74.8702C38.2305 74.7609 38.0993 74.3713 37.8381 74.2614C37.593 74.1583 37.3047 74.1305 37.0423 74.0261C36.7947 73.9279 36.5446 73.81 36.2809 73.7112C36.0314 73.6173 35.7425 73.6056 35.4783 73.5111C35.2264 73.421 34.8808 73.5846 34.6159 73.4945C34.3621 73.408 34.2211 72.9622 33.9543 72.8751C33.6987 72.7918 33.3882 72.8597 33.1203 72.7763C32.8634 72.696 32.5536 72.7751 32.2856 72.6948C32.0269 72.617 31.754 72.5769 31.4848 72.4984C31.2249 72.4231 31.0506 72.1527 30.7808 72.0773C31.0001 71.9921 31.2163 71.9433 31.4855 71.8532C31.7164 71.776 31.9918 71.7988 32.2567 71.7241C32.4951 71.6568 32.7008 71.4191 32.9657 71.3579C33.209 71.3017 33.4659 71.253 33.7301 71.2048C33.979 71.1597 34.2408 71.1325 34.5069 71.0974C34.7588 71.064 35.0299 71.1566 35.2966 71.1344C35.575 71.1109 35.8374 70.993 36.0992 70.9837C36.3807 70.9739 36.6548 70.8331 36.9172 70.8368C37.2 70.8411 37.4722 70.9368 37.7322 70.9529C38.0155 70.9708 38.2687 71.1733 38.5237 71.2017C38.8102 71.2338 39.0751 71.256 39.3245 71.295C39.6153 71.34 39.8672 71.4419 40.1062 71.4864C40.3551 71.5333 40.6335 71.4938 40.9076 71.5506C41.1596 71.6025 41.4121 71.6969 41.6825 71.7568C41.9363 71.813 42.1889 71.9032 42.4568 71.9662C42.7118 72.0261 43.0365 71.8211 43.3013 71.8865C43.557 71.9495 43.7763 72.1798 44.0399 72.2484C44.2962 72.3144 44.5229 72.5003 44.784 72.5713C45.0403 72.6411 45.3637 72.4768 45.6236 72.5509C45.8805 72.6244 46.1207 72.7609 46.3788 72.8387C46.6357 72.9159 46.9215 72.9017 47.1778 72.9826C47.434 73.0635 47.6373 73.3111 47.8917 73.3957C48.1473 73.4809 48.3679 73.6624 48.6198 73.7513C48.8748 73.8409 49.2296 73.6507 49.4791 73.7439C49.7335 73.839 49.9731 73.973 50.2201 74.0718C50.4733 74.1731 50.6452 74.4627 50.8885 74.5677C51.1398 74.6763 51.4164 74.714 51.6554 74.8258C51.9042 74.9431 52.1901 74.9752 52.4223 75.0962C52.6675 75.2241 52.9594 75.2654 53.1837 75.3963C53.4245 75.5378 53.4621 75.9836 53.6746 76.1293C53.9074 76.2886 54.1483 76.3936 54.3423 76.5578C54.5616 76.7431 54.829 76.8444 54.9928 77.0346C55.1813 77.2544 55.3624 77.4649 55.4671 77.6909C55.5854 77.9466 55.5866 78.2232 55.5823 78.4857C55.5798 78.7104 55.7055 79.0074 55.6796 79.3261C55.6587 79.5848 55.3883 79.8725 55.4388 80.1622C55.4831 80.4172 55.618 80.6988 55.7751 80.9575C55.942 81.2329 56.3129 81.2804 56.5242 81.4447C56.8075 81.6645 57.0619 81.7689 57.2535 81.8504C57.4574 81.9374 57.5978 82.3166 57.8892 82.4185C58.1183 82.4981 58.4602 82.316 58.7356 82.403C58.9746 82.479 59.152 82.81 59.4212 82.8902C59.6657 82.9631 59.9922 82.7958 60.2577 82.8717C60.5053 82.9427 60.6889 83.2749 60.9531 83.3484C61.2038 83.4182 61.4816 83.4139 61.744 83.4855C61.9966 83.554 62.2824 83.5164 62.5436 83.5862C62.7974 83.6541 62.989 83.9746 63.2495 84.0431C63.5052 84.1104 63.7787 84.1197 64.0386 84.187C64.2942 84.2537 64.5493 84.3296 64.808 84.3963C65.0667 84.463 65.3168 84.5562 65.5755 84.6223C65.8342 84.6884 66.0966 84.7415 66.3553 84.8069C66.6153 84.873 66.9516 84.6328 67.2097 84.6983C67.4709 84.7643 67.7259 84.8471 67.9828 84.9113C68.2446 84.9774 68.4602 85.2157 68.7164 85.2799C68.9788 85.346 69.2548 85.3417 69.5092 85.4059C69.7728 85.4726 70.0352 85.5232 70.2884 85.5875C70.5545 85.6548 70.7738 85.8789 71.0252 85.9431C71.2931 86.0111 71.6331 85.7579 71.8814 85.8215C72.1518 85.8906 72.3791 86.079 72.6236 86.1432C72.8996 86.2154 73.1294 86.3883 73.3665 86.4526C73.6542 86.5304 73.9037 86.6248 74.1248 86.6884C74.2492 86.7243 74.4784 86.9379 74.8547 87.054C75.0784 87.1232 75.379 87.0713 75.6666 87.1664C75.905 87.2448 76.2352 87.1188 76.5062 87.2139C76.7495 87.2991 77.0002 87.4097 77.262 87.5072C77.5084 87.5986 77.716 87.8197 77.9723 87.921C78.2199 88.0191 78.518 88.0111 78.7694 88.1186C79.017 88.2241 79.2295 88.4211 79.4753 88.5347C79.7223 88.649 80.0001 88.7039 80.2397 88.8256C80.4849 88.9497 80.573 89.3548 80.804 89.4863C81.0454 89.624 81.2666 89.7574 81.4859 89.9019C81.7212 90.0569 82.1789 89.8864 82.3809 90.0482C82.6051 90.2279 82.6298 90.6151 82.8022 90.8022C83.0006 91.0171 83.0856 91.2523 83.1989 91.4753C83.3289 91.7309 83.3689 91.9211 83.3628 92.1841L83.3665 92.186Z" fill="#E5DFD8"/>
<path d="M41.3426 32.2015C41.3118 31.9273 41.2988 31.7439 41.2508 31.4753C41.2021 31.2042 40.7728 31.0184 40.7075 30.7534C40.641 30.4867 40.6865 30.1996 40.6034 29.9396C40.5196 29.6778 40.6311 29.3456 40.5307 29.0918C40.4297 28.8367 40.1063 28.6787 39.9892 28.4317C39.8722 28.1847 39.7977 27.9204 39.664 27.682C39.5303 27.4437 39.4897 27.1473 39.3406 26.9182C39.1915 26.6891 39.0702 26.4322 38.907 26.213C38.7437 25.9938 38.355 25.9574 38.177 25.7499C37.999 25.5424 37.9971 25.1769 37.8062 24.9811C37.6152 24.7854 37.4212 24.5853 37.2173 24.4025C37.0134 24.2198 36.7682 24.0814 36.5526 23.9129C36.337 23.7443 36.0192 23.7233 35.7931 23.5689C35.5671 23.4145 35.4365 23.1169 35.2005 22.978C34.9646 22.839 34.7379 22.6773 34.4934 22.5538C34.2488 22.4303 33.9581 22.4074 33.7062 22.3006C33.4555 22.195 33.1844 22.1487 32.9251 22.0591C32.6676 21.9702 32.399 21.9387 32.1342 21.8671C31.8717 21.7955 31.6192 21.709 31.35 21.6547C31.0839 21.601 30.8406 21.4065 30.5689 21.3706C30.2997 21.3348 30.0084 21.5509 29.7336 21.533C29.4626 21.5151 29.2021 21.2941 28.9267 21.2941C28.6514 21.2941 28.3877 21.4725 28.1167 21.4904C27.8419 21.5083 27.5882 21.5991 27.319 21.6349C27.0467 21.6707 26.767 21.5954 26.5009 21.6485C26.2318 21.7028 25.962 21.7263 25.6989 21.7979C25.434 21.8702 25.1827 21.9671 24.9252 22.0561C24.6659 22.1456 24.4583 22.3438 24.2076 22.4494C23.9551 22.5562 23.5842 22.3981 23.3409 22.5204C23.0976 22.6427 22.983 23.0058 22.7483 23.1441C22.5136 23.2824 22.1157 23.1682 21.8903 23.3225C21.6648 23.4769 21.5324 23.769 21.3174 23.9376C21.1024 24.1061 20.7495 24.1222 20.5462 24.3043C20.3429 24.4865 20.2764 24.8249 20.0848 25.0206C19.8932 25.2164 19.8359 25.5288 19.6585 25.7369C19.4811 25.945 19.3432 26.171 19.1793 26.3902C19.0154 26.6095 18.827 26.7978 18.6773 27.0275C18.5276 27.2572 18.3188 27.4418 18.1851 27.6814C18.0514 27.921 17.935 28.1631 17.8174 28.4113C17.6997 28.6595 17.5365 28.8831 17.4354 29.1381C17.335 29.3919 17.1619 29.6234 17.0782 29.8853C16.995 30.1446 16.8385 30.3934 16.772 30.6602C16.7061 30.9245 16.6599 31.2061 16.6112 31.4771C16.5632 31.7451 16.8121 32.1626 16.7819 32.4361C16.5238 32.4954 16.1148 32.3849 15.8628 32.4602C15.609 32.5362 15.354 32.6189 15.1076 32.7103C14.8594 32.8023 14.6191 32.9221 14.3789 33.0289C14.1374 33.1364 13.9194 33.2951 13.6859 33.4173C13.4525 33.5396 13.2479 33.7125 13.0231 33.8496C12.7983 33.9866 12.6086 34.1719 12.393 34.3232C12.1774 34.4745 11.926 34.5739 11.7203 34.7388C11.5146 34.9036 11.3716 35.137 11.1764 35.3149C10.9811 35.4927 10.7704 35.6458 10.5869 35.836C10.4033 36.0262 10.2358 36.2232 10.0645 36.4245C9.89327 36.6258 9.60191 36.7302 9.44422 36.9426C9.28652 37.155 9.33519 37.5076 9.19104 37.7293C9.0469 37.9509 8.73398 38.0646 8.60401 38.2949C8.47403 38.5252 8.52208 38.8445 8.40751 39.0828C8.29293 39.3212 8.07549 39.5064 7.97632 39.7522C7.87776 39.9961 7.75887 40.2338 7.6751 40.4851C7.59255 40.7352 7.54636 40.9964 7.47921 41.2533C7.41269 41.5083 7.15397 41.7257 7.10346 41.9863C7.05356 42.2444 7.3671 42.5624 7.33322 42.8261C7.29996 43.0866 7.18169 43.333 7.16506 43.5985C7.14843 43.861 7.00613 44.1197 7.00613 44.3865C7.00613 44.6588 7.14658 44.9243 7.16383 45.1923C7.18107 45.464 6.96733 45.7592 7.00182 46.0259C7.03693 46.2958 7.10038 46.5693 7.15274 46.8336C7.2051 47.1003 7.37265 47.3449 7.44225 47.6048C7.51248 47.8673 7.68865 48.0951 7.77489 48.3502C7.86174 48.607 7.92765 48.8676 8.03114 49.1165C8.13462 49.3672 8.31881 49.574 8.43831 49.8161C8.55781 50.0581 8.75616 50.2471 8.89106 50.4805C9.02596 50.7139 9.05614 51.0035 9.20644 51.2277C9.35675 51.4518 9.50397 51.6735 9.66844 51.8878C9.8329 52.102 9.81566 52.4707 9.99368 52.6738C10.1717 52.877 10.5191 52.927 10.7101 53.1184C10.901 53.3099 10.9565 53.6513 11.1591 53.8298C11.3618 54.0082 11.7739 53.9317 11.9882 54.0965C12.2026 54.2614 12.401 54.4312 12.6252 54.5813C12.8494 54.7313 12.9523 55.0747 13.1863 55.2105C13.4204 55.3464 13.7814 55.2364 14.0235 55.3562C14.2656 55.476 14.3641 55.9126 14.6136 56.0163C14.8618 56.1195 15.2388 55.8867 15.4945 55.9743C15.7489 56.0608 15.9133 56.4492 16.1751 56.519C16.4345 56.5888 16.78 56.2874 17.0461 56.3399C17.3092 56.3918 17.5519 56.5091 17.821 56.5443C18.0872 56.5789 18.3403 56.7079 18.6114 56.7252C18.8787 56.7425 19.1467 56.6375 19.4189 56.6375C19.6992 56.6375 19.9739 56.7147 20.2493 56.6962C20.5289 56.6777 20.787 56.5356 21.0611 56.4986C21.3383 56.4609 21.618 56.4961 21.889 56.4399C22.1631 56.3837 22.4767 56.4986 22.744 56.4245C23.0132 56.3498 23.2399 56.1361 23.5011 56.0441C23.7641 55.9515 24.045 55.907 24.2994 55.7971C24.5556 55.6866 24.8304 55.6106 25.0774 55.4834C25.3244 55.3562 25.4562 55.024 25.694 54.8801C25.9318 54.7363 26.2669 54.7474 26.4942 54.5881C26.7215 54.4288 26.8434 54.1305 27.0603 53.9564C27.2771 53.7822 27.7188 53.865 27.9233 53.676C28.1278 53.4871 28.1191 53.074 28.3113 52.8721C28.5035 52.6701 28.7481 52.4231 28.9261 52.2089C29.1041 52.4231 29.3425 52.6769 29.5341 52.8789C29.7256 53.0808 29.8519 53.3481 30.0564 53.5371C30.2609 53.7261 30.4223 53.9731 30.6398 54.1472C30.8572 54.3213 31.2176 54.3028 31.4461 54.4621C31.6746 54.6214 31.9223 54.7326 32.1613 54.8764C32.4003 55.0203 32.6233 55.1685 32.8715 55.2963C33.1197 55.4242 33.2226 55.862 33.4789 55.9725C33.7339 56.0824 34.122 55.857 34.3856 55.9496C34.6468 56.0417 34.8765 56.2189 35.1457 56.2936C35.4124 56.3677 35.6933 56.3695 35.9675 56.4257C36.2385 56.4813 36.4652 56.8302 36.7418 56.8672C37.0159 56.9043 37.3115 56.8605 37.5906 56.879C37.8665 56.8975 38.153 56.8506 38.4339 56.8506C38.7055 56.8506 38.9747 56.7542 39.242 56.737C39.5131 56.7197 39.7866 56.7345 40.0521 56.6999C40.3213 56.6647 40.5633 56.4881 40.8264 56.4356C41.0925 56.3831 41.3333 56.267 41.5927 56.1979C41.8545 56.1275 42.1507 56.1948 42.4052 56.1083C42.6614 56.0213 42.8924 55.8768 43.1406 55.773C43.3907 55.6693 43.6599 55.6162 43.9014 55.497C44.1429 55.3778 44.4675 55.3988 44.7003 55.2636C44.9332 55.1284 45.0206 54.7523 45.2449 54.6023C45.4691 54.4522 45.7475 54.3824 45.9613 54.2182C46.175 54.0539 46.4011 53.9014 46.6037 53.723C46.8064 53.5445 47.0164 53.3704 47.2074 53.179C47.3984 52.9875 47.5893 52.7924 47.7673 52.5892C47.9454 52.3861 48.0273 52.1039 48.1911 51.8896C48.355 51.6754 48.403 51.387 48.5533 51.1622C48.7036 50.9375 48.8638 50.7337 48.9993 50.499C49.1348 50.2644 49.5506 50.1823 49.6707 49.9396C49.7909 49.6969 49.6282 49.3264 49.7317 49.0763C49.8346 48.8275 49.9405 48.5879 50.028 48.331C50.1142 48.076 50.2257 47.8345 50.296 47.5721C50.3656 47.3121 50.684 47.1053 50.737 46.8385C50.7888 46.5749 50.8035 46.2927 50.8387 46.0228C50.8731 45.7561 50.6853 45.4634 50.7025 45.1917C50.7198 44.9237 50.7204 44.6575 50.7204 44.3852C50.7204 44.1185 50.7426 43.8573 50.7259 43.5948C50.7093 43.3293 50.8331 43.0496 50.7998 42.789C50.766 42.5253 50.604 42.2808 50.5541 42.0221C50.5036 41.7615 50.2781 41.5485 50.2116 41.2934C50.1444 41.0366 50.0988 40.7865 50.0157 40.5364C49.9325 40.2845 50.1986 39.9028 50.1001 39.6583C50.0009 39.4126 49.7792 39.2106 49.6652 38.9729C49.5512 38.7352 49.3806 38.5197 49.2513 38.29C49.1219 38.0602 48.9728 37.8373 48.8287 37.6163C48.6845 37.3952 48.3593 37.3051 48.2016 37.0939C48.0439 36.8827 48.0137 36.5752 47.8431 36.3745C47.6725 36.1738 47.4735 35.9997 47.2899 35.8095C47.1064 35.6193 46.9327 35.4223 46.7374 35.2445C46.5421 35.0666 46.4226 34.7962 46.2163 34.6313C46.0099 34.4664 45.7259 34.4016 45.5097 34.2497C45.2935 34.0978 45.0484 33.9959 44.8229 33.8588C44.5975 33.7217 44.3917 33.5562 44.1576 33.4334C43.9236 33.3105 43.7141 33.1382 43.4727 33.0308C43.2324 32.9239 42.93 32.9746 42.6817 32.8826C42.4353 32.7912 42.1939 32.7035 41.9407 32.6275C41.6888 32.5522 41.6001 32.2595 41.3413 32.1996L41.3426 32.2015Z" fill="#0E5249"/>
<path d="M38.9508 42.4173C38.8066 42.2172 38.4222 42.2369 38.2251 42.1153C38.0206 41.9887 37.8642 41.6374 37.6307 41.5997C37.3972 41.562 37.1059 41.709 36.8724 41.7639C36.647 41.8171 36.3359 41.835 36.1363 41.9788C35.7926 42.2271 35.8178 42.2623 35.4741 42.5105C35.1304 42.7587 35.3084 43.0051 34.9653 43.2527C34.6222 43.5003 34.6364 43.5207 34.2927 43.7689C33.9489 44.0172 33.8855 43.9289 33.5411 44.1777C33.1968 44.4266 33.1303 44.3321 32.7872 44.5803C32.4441 44.8286 32.3738 44.7322 32.0301 44.9811C31.6864 45.2299 31.8848 45.5072 31.5398 45.7567C31.1948 46.0061 31.0753 46.4056 30.686 46.2346C30.3201 46.0741 30.9078 45.7048 30.9078 45.304C30.9078 44.9033 30.7593 44.9033 30.7593 44.5025C30.7593 44.1018 30.7002 44.1024 30.7002 43.7029C30.7002 43.3034 30.9349 43.3027 30.9349 42.9032C30.9349 42.5037 30.5721 42.5019 30.5721 42.1005C30.5721 41.6991 30.8979 41.6997 30.8979 41.299C30.8979 40.8982 30.8869 40.8976 30.8869 40.4969C30.8869 40.0961 30.5437 40.0955 30.5437 39.6935C30.5437 39.2915 30.9638 39.2927 30.9638 38.8914C30.9638 38.49 30.5789 38.4894 30.5789 38.0874C30.5789 37.6854 30.776 37.6848 30.776 37.2822C30.776 36.8796 30.6669 36.8796 30.6669 36.477C30.6669 36.23 30.6257 36.0231 30.5364 35.8088C30.4446 35.5865 30.4513 35.284 30.2844 35.1166C30.1175 34.9493 29.8058 34.9802 29.5834 34.8882C29.3697 34.7992 29.1732 34.8264 28.9268 34.8264V34.6091C28.6804 34.6091 28.49 34.8141 28.2763 34.903C28.0545 34.995 27.9504 35.1636 27.7829 35.3309C27.6153 35.4982 27.4422 35.6007 27.3505 35.823C27.2618 36.0379 27.0788 36.2312 27.0788 36.4776C27.0788 36.8938 26.8928 36.8938 26.8928 37.31C26.8928 37.7262 26.9211 37.7268 26.9211 38.1436C26.9211 38.5604 26.963 38.561 26.963 38.9784C26.963 39.3959 27.0369 39.3952 27.0369 39.8121C27.0369 40.2289 26.902 40.2295 26.902 40.6475C26.902 41.0656 27.3283 41.0662 27.3283 41.4842C27.3283 41.9023 27.4435 42.0597 27.0782 42.2616C26.7129 42.4636 26.801 42.0301 26.448 41.8066C26.0951 41.583 26.0347 41.6806 25.683 41.4577C25.3312 41.2348 25.3922 41.136 25.0399 40.913C24.6875 40.6901 24.6247 40.7877 24.2724 40.5642C23.92 40.3406 23.9268 40.3307 23.5744 40.1072C23.2221 39.8837 23.1728 39.9609 22.8199 39.7373C22.4669 39.5138 22.4786 39.4934 22.1244 39.2687C21.7702 39.0439 21.8306 38.9488 21.477 38.7246C21.2688 38.5925 21.0668 38.3276 20.8388 38.2881C20.6023 38.2473 20.3183 38.4134 20.0873 38.4653C19.8563 38.5172 19.6457 38.6549 19.4492 38.7938C19.2601 38.9278 19.0186 39.0532 18.8874 39.2619L18.8966 39.268C18.7648 39.4768 18.6681 39.7293 18.6287 39.9584C18.588 40.1955 18.5412 40.4802 18.5936 40.7111C18.6459 40.9421 18.7679 41.2082 18.9065 41.4052C19.0402 41.5954 19.3217 41.6812 19.5299 41.8127C19.8742 42.0313 19.9426 41.9226 20.2869 42.1412C20.6313 42.3598 20.5697 42.4555 20.9134 42.6735C21.2571 42.8915 21.1844 43.0063 21.5281 43.2243C21.8719 43.4423 22.0462 43.1681 22.3911 43.3861C22.7361 43.6041 22.648 43.7424 22.9923 43.961C23.3367 44.1796 23.3823 44.108 23.7272 44.3265C24.0722 44.5451 23.9619 44.7199 24.3075 44.9385C24.653 45.1571 24.6142 45.217 24.9586 45.4356C25.3029 45.6542 25.4427 45.4343 25.7877 45.6529C26.1326 45.8715 26.1591 45.8326 26.5053 46.0518C26.8515 46.271 26.9033 46.2735 27.1016 46.6329C27.2981 46.9886 27.3172 47.0336 27.3172 47.4406C27.3172 47.8475 27.048 47.8475 27.048 48.2544C27.048 48.6613 27.3172 48.6613 27.3172 49.0683C27.3172 49.4752 27.1515 49.4752 27.1515 49.8815C27.1515 50.2878 27.2821 50.2884 27.2821 50.6954C27.2821 51.1023 27.255 51.1029 27.255 51.5098C27.255 51.9168 27.1213 51.9168 27.1213 52.3237C27.1213 52.7306 27.247 52.7312 27.247 53.1388C27.247 53.5463 27.1798 53.5457 27.1798 53.9533C27.1798 54.3608 27.1774 54.3608 27.1774 54.7677C27.1774 55.1747 27.242 55.174 27.242 55.5804C27.242 55.9867 27.0844 55.9867 27.0844 56.393C27.0844 56.7993 27.1238 56.8005 27.1238 57.2087C27.1238 57.6169 26.971 57.6156 26.971 58.0232C26.971 58.4307 26.9414 58.4307 26.9414 58.8383C26.9414 59.2458 27.0979 59.2464 27.0979 59.6546C27.0979 60.0627 27.1835 60.0621 27.1835 60.4697C27.1835 60.8772 27.1078 60.8785 27.1078 61.2866C27.1078 61.6948 26.9673 61.696 26.9673 62.1048C26.9673 62.5136 27.2353 62.5142 27.2353 62.923C27.2353 63.17 27.0154 63.4651 27.1041 63.6794C27.1958 63.9017 27.5673 63.9492 27.7348 64.1172C27.9024 64.2852 27.9603 64.6316 28.182 64.7242C28.3964 64.8131 28.6804 64.5457 28.9262 64.5457V64.5871C29.1726 64.5871 29.3992 64.6754 29.6136 64.5859C29.8354 64.4939 30.0275 64.3617 30.1945 64.1938C30.3614 64.0258 30.3737 63.7844 30.4661 63.5615C30.5548 63.3472 30.6288 63.1687 30.6288 62.9224C30.6288 62.5117 30.6682 62.5117 30.6682 62.1005C30.6682 61.6892 30.7834 61.6898 30.7834 61.2798C30.7834 60.8698 30.5727 60.8692 30.5727 60.4579C30.5727 60.0467 30.5524 60.0473 30.5524 59.6367C30.5524 59.226 30.5345 59.226 30.5345 58.8154C30.5345 58.4048 30.8277 58.4054 30.8277 57.996C30.8277 57.5866 30.8955 57.586 30.8955 57.1766C30.8955 56.7672 30.6257 56.7653 30.6257 56.3541C30.6257 55.9428 30.8376 55.9434 30.8376 55.5328C30.8376 55.1222 30.9306 55.1216 30.9306 54.7109C30.9306 54.3003 30.8801 54.2997 30.8801 53.8878C30.8801 53.4759 30.6528 53.4766 30.6528 53.0659C30.6528 52.6553 30.792 52.6541 30.792 52.2422C30.792 51.8303 30.606 51.8297 30.606 51.4172C30.606 51.0047 30.468 50.9164 30.6503 50.5466C30.8228 50.1964 31.1807 50.5342 31.4967 50.3057C31.8127 50.0773 31.7843 50.0347 32.1022 49.8056C32.42 49.5765 32.2814 49.3851 32.5981 49.156C32.9147 48.9269 33.0336 49.0924 33.3508 48.8633C33.668 48.6342 33.4802 48.3717 33.7986 48.142C34.1171 47.9123 34.3567 48.2476 34.6739 48.0179C34.9912 47.7882 34.9869 47.7814 35.3047 47.5517C35.6226 47.322 35.5573 47.2337 35.8733 47.0052C36.1911 46.7755 36.1252 46.6829 36.4431 46.4532C36.7609 46.2235 36.7979 46.2729 37.1163 46.0432C37.4348 45.8135 37.356 45.7017 37.6757 45.4708C37.9954 45.2398 38.1611 45.4708 38.4808 45.2398C38.6803 45.0953 38.5941 44.6767 38.7155 44.4791C38.8417 44.2741 38.912 44.1067 38.9501 43.8727C38.9883 43.6387 38.9809 43.4559 38.9255 43.2218C38.8725 42.9958 39.0937 42.6173 38.9495 42.4173H38.9508Z" fill="#665510"/>
<path d="M34.4213 66.7391C34.1287 66.7391 33.9224 66.6829 33.6403 66.7199C33.5429 66.4742 33.4475 66.3291 33.3224 66.0987C33.1967 65.8672 32.8025 65.8091 32.6516 65.5949C32.5007 65.3806 32.5808 64.9829 32.4052 64.7884C32.2296 64.5939 31.9962 64.4401 31.7985 64.2672C31.6007 64.0943 31.3537 63.9783 31.1369 63.8301C30.9201 63.6819 30.6706 63.5948 30.4371 63.4731C30.2055 63.3527 29.9955 63.1829 29.7484 63.0897C29.5045 62.9983 29.2883 62.7661 29.032 62.7037C28.7795 62.642 28.4709 62.8371 28.2079 62.8056C27.9504 62.7748 27.6966 62.7686 27.4305 62.7686C27.1644 62.7686 26.9069 62.7414 26.6494 62.7723C26.3864 62.8038 26.1277 62.8328 25.8751 62.8946C25.6182 62.9569 25.3515 62.9859 25.1076 63.0779C24.8606 63.1706 24.5433 63.1366 24.3111 63.257C24.0777 63.3787 23.8904 63.6108 23.6742 63.7584C23.458 63.906 23.3175 64.1629 23.1204 64.3352C22.9233 64.5074 22.7077 64.6631 22.5315 64.8582C22.3553 65.0533 22.1102 65.2027 21.958 65.4176C21.8059 65.6325 21.6008 65.8332 21.4751 66.0654C21.3501 66.2957 21.4369 66.6928 21.3396 66.9385C21.0575 66.9015 20.7316 66.5983 20.439 66.5983C20.1698 66.5983 19.9228 66.978 19.6622 67.0095C19.3955 67.0416 19.1522 67.0836 18.896 67.1466C18.636 67.2108 18.2744 66.9527 18.0274 67.0472C17.7773 67.1423 17.6966 67.6116 17.4619 67.7351C17.226 67.8598 16.9593 67.8993 16.7412 68.0506C16.5232 68.2019 16.2263 68.2532 16.0279 68.4298C15.8296 68.6064 15.7643 68.9133 15.5875 69.1127C15.4107 69.3122 15.0306 69.3542 14.8791 69.574C14.7276 69.7938 14.8483 70.1779 14.7245 70.4144C14.6013 70.649 14.3309 70.812 14.236 71.0621C14.1424 71.3097 14.119 71.5821 14.0555 71.8426C13.9927 72.0989 14.0586 72.3718 14.0266 72.6392C13.9951 72.901 13.9514 73.1499 13.9514 73.4203C13.9514 73.6908 13.7013 73.9755 13.7321 74.2367C13.7642 74.504 13.8214 74.7838 13.8843 75.04C13.9483 75.3006 13.9761 75.5945 14.0697 75.8422C14.1645 76.0929 14.4984 76.2466 14.6216 76.4813C14.746 76.7178 14.9259 76.9123 15.0768 77.1309C15.2277 77.3495 15.2622 77.6625 15.4384 77.862C15.6146 78.0614 15.7187 78.3603 15.9176 78.5375C16.1166 78.7147 16.3667 78.866 16.586 79.0173C16.8053 79.1686 17.1903 79.0519 17.4262 79.176C17.6603 79.2995 17.8925 79.3971 18.1426 79.4922C18.3896 79.586 18.5596 79.9454 18.8196 80.009C19.0752 80.072 19.3814 79.9225 19.6481 79.9547C19.9093 79.9861 20.1704 79.8836 20.4396 79.8836C20.8499 79.8836 20.8499 80.1325 21.2601 80.1325C21.6704 80.1325 21.671 80.0757 22.0812 80.0757C22.4915 80.0757 22.4921 80.0806 22.9036 80.0806C23.3151 80.0806 23.3144 80.2578 23.7247 80.2578C24.1349 80.2578 24.1356 79.8898 24.547 79.8898C24.9585 79.8898 24.9579 79.8318 25.3688 79.8318C25.7796 79.8318 25.7796 80.2245 26.1911 80.2245C26.6026 80.2245 26.6014 79.8639 27.0116 79.8639C27.4219 79.8639 27.4219 80.1621 27.8321 80.1621C28.2423 80.1621 28.2436 79.8713 28.6551 79.8713C29.0665 79.8713 29.0659 79.8151 29.4768 79.8151C29.8877 79.8151 29.8883 79.862 30.2998 79.862C30.7112 79.862 30.7118 80.1566 31.1233 80.1566C31.5348 80.1566 31.5348 80.1949 31.9457 80.1949C32.3565 80.1949 32.3578 80.0633 32.7699 80.0633C33.182 80.0633 33.1826 80.2369 33.5959 80.2369C34.0092 80.2369 34.0086 80.0893 34.4219 80.0893C34.6911 80.0893 34.972 80.1442 35.2326 80.1127C35.4993 80.0806 35.7975 80.1164 36.0531 80.0535C36.313 79.9892 36.4874 79.6262 36.7344 79.5323C36.9845 79.4372 37.2315 79.3569 37.4655 79.2334C37.7015 79.1087 37.9583 79.0235 38.1764 78.8722C38.3945 78.7209 38.6766 78.6351 38.8749 78.4585C39.0733 78.2819 39.2458 78.0602 39.4219 77.8607C39.5981 77.6613 39.5611 77.3007 39.7127 77.0808C39.8642 76.861 40.1469 76.7344 40.2714 76.4979C40.3946 76.2633 40.5738 76.0459 40.6687 75.7952C40.7623 75.5476 40.5757 75.2172 40.6391 74.9567C40.702 74.7004 40.7241 74.459 40.7562 74.1916C40.7876 73.9298 41.1387 73.6902 41.1387 73.4197C41.1387 73.1493 40.8196 72.9054 40.7882 72.6442C40.7562 72.3768 41.0697 72.0489 41.0063 71.792C40.9422 71.5314 40.6323 71.3406 40.5387 71.093C40.4439 70.8423 40.5042 70.5175 40.381 70.2829C40.2566 70.0464 39.8396 69.9926 39.6887 69.774C39.5377 69.5555 39.4392 69.3171 39.263 69.1183C39.0868 68.9194 38.8503 68.8077 38.6513 68.6311C38.4524 68.4545 38.3871 68.1278 38.1678 67.9759C37.9485 67.824 37.8068 67.5264 37.5703 67.4016C37.3362 67.2781 36.937 67.5208 36.6869 67.4257C36.4399 67.3319 36.2176 67.2281 35.9576 67.1645C35.702 67.1015 35.463 67.0398 35.1962 67.0077C34.9351 66.9762 34.6887 66.7403 34.4189 66.7403L34.4213 66.7391Z" fill="#3BA36F"/>
<path d="M45.575 73.3345C45.3945 73.3345 45.2671 73.2998 45.093 73.3227C45.033 73.171 44.974 73.0814 44.8969 72.9393C44.8193 72.7964 44.5761 72.7606 44.4829 72.6284C44.3898 72.4961 44.4392 72.2507 44.3309 72.1307C44.2225 72.0107 44.0785 71.9158 43.9564 71.8091C43.8344 71.7024 43.682 71.6307 43.5482 71.5393C43.4144 71.4478 43.2604 71.3941 43.1163 71.319C42.9734 71.2447 42.8438 71.1399 42.6914 71.0824C42.5408 71.026 42.4074 70.8827 42.2493 70.8442C42.0934 70.8061 41.903 70.9265 41.7406 70.9071C41.5817 70.8881 41.4251 70.8842 41.2609 70.8842C41.0967 70.8842 40.9378 70.8675 40.7789 70.8865C40.6166 70.906 40.4569 70.9239 40.3011 70.962C40.1426 71.0005 39.978 71.0184 39.8274 71.0752C39.675 71.1323 39.4792 71.1114 39.3359 71.1857C39.1919 71.2607 39.0763 71.404 38.9429 71.4951C38.8094 71.5862 38.7228 71.7447 38.6011 71.851C38.4795 71.9573 38.3464 72.0533 38.2377 72.1738C38.129 72.2942 37.9777 72.3864 37.8838 72.519C37.7899 72.6516 37.6633 72.7755 37.5858 72.9187C37.5086 73.0609 37.5622 73.3059 37.5022 73.4575C37.3281 73.4347 37.127 73.2476 36.9464 73.2476C36.7803 73.2476 36.6279 73.4819 36.4671 73.5014C36.3025 73.5212 36.1523 73.5471 35.9942 73.586C35.8338 73.6256 35.6106 73.4663 35.4582 73.5246C35.3039 73.5833 35.2541 73.8729 35.1092 73.9491C34.9636 74.0261 34.799 74.0505 34.6645 74.1438C34.5299 74.2372 34.3467 74.2688 34.2243 74.3778C34.1019 74.4868 34.0616 74.6762 33.9525 74.7993C33.8434 74.9223 33.6088 74.9483 33.5153 75.0839C33.4218 75.2196 33.4963 75.4566 33.4199 75.6025C33.3439 75.7473 33.177 75.8479 33.1185 76.0023C33.0607 76.1551 33.0463 76.3231 33.0071 76.4839C32.9683 76.6421 33.009 76.8105 32.9892 76.9755C32.9698 77.1371 32.9429 77.2906 32.9429 77.4575C32.9429 77.6245 32.7885 77.8001 32.8075 77.9613C32.8273 78.1263 32.8626 78.2989 32.9014 78.4571C32.941 78.6179 32.9581 78.7993 33.0158 78.9521C33.0744 79.1068 33.2804 79.2017 33.3564 79.3465C33.4332 79.4924 33.5442 79.6124 33.6374 79.7473C33.7305 79.8822 33.7518 80.0754 33.8605 80.1985C33.9692 80.3216 34.0335 80.506 34.1562 80.6154C34.279 80.7248 34.4334 80.8181 34.5687 80.9115C34.704 81.0048 34.9416 80.9328 35.0872 81.0094C35.2316 81.0856 35.3749 81.1458 35.5293 81.2045C35.6817 81.2624 35.7866 81.4842 35.947 81.5235C36.1048 81.5623 36.2937 81.4701 36.4583 81.4899C36.6195 81.5094 36.7807 81.4461 36.9468 81.4461C37.2 81.4461 37.2 81.5997 37.4531 81.5997C37.7063 81.5997 37.7067 81.5646 37.9598 81.5646C38.213 81.5646 38.2134 81.5677 38.4673 81.5677C38.7213 81.5677 38.7209 81.677 38.974 81.677C39.2272 81.677 39.2276 81.4499 39.4815 81.4499C39.7354 81.4499 39.7351 81.4141 39.9886 81.4141C40.2422 81.4141 40.2422 81.6565 40.4961 81.6565C40.75 81.6565 40.7493 81.4339 41.0024 81.4339C41.2556 81.4339 41.2556 81.618 41.5088 81.618C41.7619 81.618 41.7627 81.4385 42.0166 81.4385C42.2705 81.4385 42.2702 81.4038 42.5237 81.4038C42.7773 81.4038 42.7776 81.4328 43.0316 81.4328C43.2855 81.4328 43.2859 81.6145 43.5398 81.6145C43.7937 81.6145 43.7937 81.6382 44.0473 81.6382C44.3008 81.6382 44.3016 81.557 44.5559 81.557C44.8102 81.557 44.8106 81.6641 45.0657 81.6641C45.3207 81.6641 45.3204 81.573 45.5754 81.573C45.7415 81.573 45.9149 81.6069 46.0757 81.5875C46.2403 81.5677 46.4243 81.5898 46.582 81.5509C46.7424 81.5113 46.85 81.2872 47.0024 81.2293C47.1568 81.1706 47.3092 81.1211 47.4537 81.0449C47.5992 80.9679 47.7578 80.9153 47.8923 80.8219C48.0269 80.7286 48.201 80.6756 48.3234 80.5666C48.4458 80.4576 48.5522 80.3208 48.661 80.1978C48.7697 80.0747 48.7469 79.8521 48.8404 79.7165C48.9339 79.5808 49.1084 79.5027 49.1852 79.3568C49.2612 79.212 49.3718 79.0778 49.4303 78.9231C49.4881 78.7703 49.3729 78.5664 49.4121 78.4056C49.4509 78.2475 49.4646 78.0985 49.4843 77.9335C49.5037 77.7719 49.7204 77.6241 49.7204 77.4572C49.7204 77.2903 49.5235 77.1397 49.5041 76.9786C49.4843 76.8136 49.6778 76.6112 49.6387 76.4527C49.5991 76.2919 49.4079 76.1741 49.3501 76.0213C49.2916 75.8666 49.3288 75.6662 49.2528 75.5214C49.176 75.3754 48.9187 75.3423 48.8256 75.2074C48.7324 75.0725 48.6716 74.9254 48.5629 74.8027C48.4542 74.68 48.3082 74.611 48.1854 74.502C48.0626 74.3931 48.0223 74.1915 47.887 74.0977C47.7517 74.004 47.6642 73.8203 47.5183 73.7433C47.3738 73.6671 47.1275 73.8169 46.9732 73.7582C46.8207 73.7003 46.6835 73.6363 46.5231 73.597C46.3653 73.5582 46.2178 73.52 46.0532 73.5002C45.8921 73.4808 45.74 73.3352 45.5735 73.3352L45.575 73.3345Z" fill="#5ECC70"/>
<path d="M38.2049 75.5224C38.0717 75.5224 37.9778 75.4968 37.8493 75.5137C37.805 75.4018 37.7616 75.3358 37.7046 75.2309C37.6474 75.1255 37.4679 75.0991 37.3992 75.0015C37.3305 74.904 37.367 74.7229 37.2871 74.6344C37.2071 74.5458 37.1009 74.4758 37.0108 74.3971C36.9208 74.3184 36.8084 74.2655 36.7096 74.1981C36.6109 74.1306 36.4973 74.0909 36.3911 74.0356C36.2856 73.9807 36.19 73.9034 36.0775 73.861C35.9665 73.8194 35.868 73.7137 35.7514 73.6853C35.6364 73.6572 35.4959 73.746 35.3762 73.7317C35.2589 73.7176 35.1434 73.7148 35.0222 73.7148C34.9011 73.7148 34.7839 73.7024 34.6666 73.7165C34.5469 73.7308 34.4291 73.744 34.3141 73.7722C34.1972 73.8005 34.0758 73.8138 33.9647 73.8556C33.8523 73.8978 33.7078 73.8824 33.6021 73.9372C33.4958 73.9926 33.4106 74.0983 33.3121 74.1654C33.2137 74.2326 33.1498 74.3496 33.06 74.428C32.9703 74.5064 32.8721 74.5773 32.7919 74.6661C32.7117 74.755 32.6001 74.823 32.5308 74.9208C32.4616 75.0186 32.3682 75.11 32.311 75.2157C32.254 75.3206 32.2936 75.5013 32.2493 75.6132C32.1208 75.5964 31.9725 75.4583 31.8393 75.4583C31.7167 75.4583 31.6043 75.6312 31.4856 75.6456C31.3642 75.6602 31.2534 75.6793 31.1368 75.708C31.0184 75.7372 30.8538 75.6197 30.7414 75.6627C30.6275 75.706 30.5908 75.9196 30.4839 75.9759C30.3765 76.0327 30.2551 76.0507 30.1558 76.1195C30.0565 76.1884 29.9214 76.2117 29.8311 76.2921C29.7408 76.3725 29.711 76.5123 29.6305 76.6031C29.5501 76.6939 29.377 76.713 29.308 76.8131C29.2391 76.9131 29.294 77.088 29.2376 77.1957C29.1816 77.3025 29.0585 77.3767 29.0153 77.4906C28.9726 77.6033 28.962 77.7273 28.9331 77.8459C28.9045 77.9626 28.9345 78.0868 28.9199 78.2086C28.9056 78.3277 28.8857 78.441 28.8857 78.5642C28.8857 78.6873 28.7718 78.8169 28.7859 78.9358C28.8004 79.0575 28.8265 79.1849 28.8551 79.3016C28.8843 79.4202 28.8969 79.554 28.9395 79.6667C28.9827 79.7809 29.1347 79.8509 29.1908 79.9577C29.2475 80.0654 29.3294 80.1539 29.3981 80.2534C29.4668 80.353 29.4825 80.4955 29.5627 80.5863C29.6429 80.6771 29.6903 80.8132 29.7809 80.8938C29.8714 80.9745 29.9853 81.0434 30.0851 81.1123C30.185 81.1811 30.3602 81.128 30.4677 81.1845C30.5742 81.2407 30.6799 81.2852 30.7938 81.3285C30.9063 81.3712 30.9837 81.5348 31.102 81.5638C31.2184 81.5924 31.3578 81.5244 31.4792 81.539C31.5981 81.5534 31.717 81.5067 31.8396 81.5067C32.0263 81.5067 32.0263 81.62 32.2131 81.62C32.3999 81.62 32.4001 81.5941 32.5869 81.5941C32.7737 81.5941 32.774 81.5964 32.9613 81.5964C33.1486 81.5964 33.1484 81.677 33.3351 81.677C33.5219 81.677 33.5222 81.5095 33.7095 81.5095C33.8968 81.5095 33.8966 81.4831 34.0836 81.4831C34.2707 81.4831 34.2707 81.6619 34.458 81.6619C34.6453 81.6619 34.6448 81.4977 34.8315 81.4977C35.0183 81.4977 35.0183 81.6335 35.2051 81.6335C35.3919 81.6335 35.3924 81.5011 35.5798 81.5011C35.7671 81.5011 35.7668 81.4755 35.9539 81.4755C36.1409 81.4755 36.1412 81.4968 36.3285 81.4968C36.5159 81.4968 36.5161 81.6309 36.7035 81.6309C36.8908 81.6309 36.8908 81.6484 37.0779 81.6484C37.2649 81.6484 37.2655 81.5885 37.4531 81.5885C37.6407 81.5885 37.641 81.6675 37.8291 81.6675C38.0173 81.6675 38.017 81.6003 38.2052 81.6003C38.3278 81.6003 38.4556 81.6253 38.5743 81.611C38.6957 81.5964 38.8314 81.6127 38.9478 81.584C39.0662 81.5548 39.1455 81.3895 39.258 81.3467C39.3718 81.3034 39.4843 81.2669 39.5909 81.2107C39.6983 81.1539 39.8152 81.1151 39.9145 81.0462C40.0138 80.9773 40.1422 80.9383 40.2325 80.8579C40.3228 80.7775 40.4013 80.6765 40.4815 80.5857C40.5617 80.4949 40.5449 80.3307 40.6139 80.2307C40.6829 80.1306 40.8116 80.073 40.8683 79.9653C40.9243 79.8585 41.0059 79.7595 41.0491 79.6454C41.0918 79.5326 41.0068 79.3822 41.0357 79.2636C41.0643 79.1469 41.0744 79.037 41.089 78.9153C41.1033 78.7961 41.2631 78.687 41.2631 78.5639C41.2631 78.4408 41.1178 78.3297 41.1035 78.2108C41.089 78.0891 41.2317 77.9398 41.2028 77.8229C41.1737 77.7042 41.0326 77.6174 40.99 77.5046C40.9468 77.3905 40.9743 77.2426 40.9182 77.1358C40.8615 77.0281 40.6717 77.0037 40.603 76.9041C40.5343 76.8046 40.4894 76.6961 40.4092 76.6056C40.329 76.5151 40.2213 76.4642 40.1307 76.3838C40.0401 76.3034 40.0104 76.1547 39.9106 76.0855C39.8107 76.0164 39.7462 75.8809 39.6385 75.8241C39.532 75.7678 39.3502 75.8783 39.2364 75.835C39.1239 75.7923 39.0227 75.7451 38.9043 75.7161C38.788 75.6874 38.6792 75.6593 38.5577 75.6447C38.4388 75.6304 38.3266 75.523 38.2038 75.523L38.2049 75.5224Z" fill="#5ECC70"/>
<path d="M61.8698 13.3315C61.5772 13.0919 61.6431 13.0116 61.3517 12.7695C61.0604 12.5275 60.9064 12.7158 60.6156 12.475C60.3249 12.2342 60.4413 12.0915 60.1506 11.8501C59.8598 11.6087 59.752 11.7414 59.4619 11.5012C59.1705 11.2598 59.3067 11.0943 59.0153 10.8528C58.7239 10.6114 58.7831 10.5385 58.4911 10.2965C58.1991 10.0544 58.0648 10.2156 57.7722 9.97292C57.4796 9.73024 57.4686 9.74445 57.1735 9.50424C56.8963 9.28688 56.6154 8.92812 56.5754 8.60394C56.5353 8.27975 56.6585 7.81169 56.8754 7.5332L57.1544 7.75179C57.3712 7.47331 57.5437 7.25471 57.8677 7.21458C58.1917 7.17444 58.3851 7.37265 58.6623 7.59001C58.9802 7.84998 59.2229 7.55358 59.5389 7.81601C59.8549 8.07845 59.8093 8.13464 60.1253 8.39769C60.4413 8.66074 60.4777 8.61382 60.7924 8.87625C61.109 9.1393 61.0142 9.25416 61.3302 9.51721C61.6462 9.78026 61.5538 9.89388 61.871 10.1575C62.1883 10.4212 62.1384 10.483 62.4562 10.7473C62.7741 11.0115 62.8196 11.2944 63.233 11.2956C63.6432 11.2968 63.6555 10.9708 63.9709 10.7084C64.2863 10.4459 64.197 10.336 64.513 10.0736C64.829 9.81113 64.8924 9.88956 65.2072 9.62774C65.5238 9.36469 65.3329 9.13374 65.6495 8.87069C65.9661 8.60764 66.1078 8.77745 66.4244 8.51378C66.741 8.25011 66.7059 8.20503 67.0238 7.94075C67.3416 7.67646 67.4094 7.75982 67.7297 7.49862C68.0075 7.28126 68.3007 6.96634 68.6247 7.00648C68.9487 7.04662 69.3676 7.26089 69.585 7.53876L69.5629 7.55605C69.7797 7.83454 69.6066 8.23961 69.5672 8.56442C69.5278 8.88922 69.5586 9.27206 69.2814 9.48942C68.9882 9.72839 69.0233 9.76976 68.7319 10.0112C68.4405 10.2526 68.3118 10.0958 68.0211 10.3372C67.7303 10.5787 67.7402 10.591 67.4488 10.8325C67.1574 11.0739 67.2548 11.1894 66.9646 11.4296C66.6733 11.671 66.6844 11.6846 66.393 11.9267C66.1016 12.1687 65.9125 11.9403 65.6205 12.1823C65.3286 12.4244 65.3261 12.4225 65.0329 12.6652C64.7397 12.9079 64.7538 12.9227 64.4594 13.1635C64.2654 13.3154 64.2044 13.6853 63.9814 13.7625C63.7523 13.8415 63.4726 13.8662 63.233 13.8662C62.9934 13.8662 62.7174 13.8323 62.4882 13.7526C62.2653 13.6754 62.0644 13.4834 61.8698 13.3315Z" fill="#0A3D2C"/>
<path d="M48.4685 21.5386C48.2307 21.2477 48.4789 21.044 48.2412 20.7531C48.0818 20.5584 47.9227 20.3635 47.7638 20.1683C47.5248 19.8757 47.5125 19.8855 47.2735 19.5928C47.0344 19.3002 46.8096 19.4835 46.5694 19.1902C46.3291 18.8969 46.355 18.8759 46.1154 18.582C45.8924 18.3091 45.7378 17.8435 45.7698 17.5175C45.8019 17.1914 46.2244 16.9852 46.4967 16.761L46.4363 16.6875C46.7086 16.464 47.0166 16.543 47.3418 16.5758C47.6671 16.6085 47.8469 16.7036 48.0705 16.9765C48.3323 17.297 48.5547 17.1142 48.8165 17.4341C49.0783 17.754 48.8966 17.9046 49.1584 18.2257C49.4202 18.5468 49.4504 18.524 49.7134 18.8457C49.9764 19.1674 49.9056 19.3841 50.3208 19.3854C50.7359 19.3866 50.4828 19.0204 50.7446 18.6999C51.0063 18.3795 51.0778 18.4375 51.3402 18.117C51.6026 17.7966 51.6993 17.8744 51.9624 17.5526C52.2254 17.2309 52.3061 17.2976 52.5691 16.9759C52.7921 16.703 52.9572 16.4362 53.2824 16.4041C53.6077 16.372 53.968 16.4214 54.2403 16.6449L54.1035 16.8123C54.3758 17.0358 54.6438 17.2118 54.6758 17.5372C54.7078 17.8626 54.6746 18.2473 54.451 18.5203C54.2132 18.8111 54.0518 18.6783 53.8146 18.9692C53.5756 19.2613 53.6736 19.3415 53.4346 19.6336C53.1956 19.9257 53.198 19.9288 52.959 20.2215C52.72 20.5141 52.6104 20.4252 52.3701 20.7192C52.1299 21.0131 52.2587 21.1181 52.0184 21.4114C51.8496 21.6182 51.6895 21.8615 51.4745 21.9881C51.2497 22.1202 50.9552 22.1258 50.7051 22.1696C50.452 22.2147 50.2216 22.04 49.9684 21.9955C49.7183 21.9511 49.5009 21.9362 49.276 21.8041C49.0611 21.6775 48.6385 21.7454 48.4691 21.5392L48.4685 21.5386Z" fill="#0A3D2C"/>
<path d="M78.9994 80.5101C78.9994 80.5983 79.0075 80.6565 78.9653 80.7424C78.9306 80.813 78.9526 80.9552 78.8906 81.0237C78.8399 81.08 78.7421 81.08 78.6738 81.1348C78.6154 81.1818 78.5552 81.2362 78.4844 81.2819C78.4217 81.3223 78.3344 81.3064 78.2623 81.346C78.197 81.3817 78.1766 81.5622 78.1037 81.5971C78.0367 81.6292 77.9179 81.4996 77.8445 81.5309C77.7761 81.5601 77.7445 81.7352 77.6707 81.7638C77.6015 81.7907 77.5305 81.8258 77.4567 81.852C77.3868 81.877 77.3079 81.877 77.234 81.9013C77.1633 81.9246 77.0805 81.8998 77.0062 81.9223C76.9351 81.9438 76.8701 82.0073 76.7958 82.0285C76.7243 82.0488 76.6253 81.9244 76.5507 81.9441C76.4789 81.9633 76.4105 82.0054 76.3359 82.0242C76.2637 82.0422 76.1925 82.071 76.1179 82.0886C76.0454 82.1057 75.9663 82.0805 75.8916 82.0972C75.8189 82.1133 75.7673 82.2834 75.6927 82.2991C75.6198 82.3143 75.5323 82.229 75.4576 82.2439C75.3845 82.2585 75.3134 82.2925 75.2386 82.3067C75.1654 82.3204 75.0868 82.2948 75.0121 82.3082C74.9387 82.3213 74.8654 82.3384 74.7905 82.3511C74.7171 82.3636 74.6449 82.3922 74.57 82.4042C74.4966 82.4161 74.434 82.5371 74.3592 82.5485C74.2859 82.5597 74.213 82.5885 74.1382 82.5993C74.0646 82.6099 73.9816 82.5288 73.9069 82.539C73.8331 82.5491 73.764 82.6192 73.6891 82.6289C73.6152 82.6386 73.5437 82.6848 73.4687 82.6941C73.3948 82.7032 73.3168 82.6725 73.2418 82.6812C73.1678 82.6898 73.0827 82.5555 73.0076 82.5637C72.9335 82.572 72.8613 82.6116 72.7862 82.6194C72.7119 82.6272 72.6456 82.7584 72.5705 82.7658C72.4962 82.7732 72.4144 82.6689 72.3391 82.6759C72.2647 82.6829 72.1939 82.7537 72.1186 82.7603C72.0442 82.7668 71.9637 82.6697 71.8884 82.6759C71.8144 82.6818 71.7472 82.8276 71.6722 82.8333C71.598 82.839 71.5206 82.7916 71.4457 82.7969C71.3712 82.8022 71.2991 82.8637 71.2239 82.8686C71.1495 82.8735 71.0706 82.7789 70.9955 82.7836C70.9209 82.788 70.8458 82.7825 70.7707 82.7867C70.6961 82.791 70.6236 82.8631 70.5483 82.8669C70.4735 82.8707 70.3979 82.8544 70.3226 82.8578C70.2482 82.8612 70.1749 82.9181 70.0998 82.9213C70.0252 82.9243 69.9496 82.9029 69.8745 82.9054C69.7997 82.9082 69.7265 82.9941 69.6512 82.9966C69.5765 82.9989 69.5008 82.9939 69.4255 82.996C69.3503 82.9981 69.2722 82.806 69.1969 82.8077C69.1222 82.8094 69.0483 82.8802 68.973 82.8815C68.8977 82.8828 68.8226 82.85 68.7471 82.8511C68.6717 82.8521 68.5976 82.9833 68.522 82.9839C68.4468 82.9846 68.3714 82.9972 68.2958 82.9975C68.2201 82.9977 68.1443 82.9727 68.0684 82.9727C67.9931 82.9727 67.9178 82.9391 67.8427 82.9389C67.7676 82.9386 67.6926 82.8286 67.6177 82.828C67.5422 82.8274 67.4659 83.0011 67.391 83C67.3155 82.9989 67.2421 82.8339 67.1672 82.8324C67.0917 82.8312 67.0171 82.8106 66.9422 82.8089C66.8667 82.8073 66.7894 82.9488 66.7144 82.9467C66.639 82.9446 66.563 82.9769 66.4881 82.9744C66.4126 82.9721 66.3375 82.9602 66.2627 82.9575C66.1873 82.9547 66.1113 82.9774 66.0365 82.9744C65.9611 82.9712 65.8904 82.8138 65.8155 82.8104C65.7402 82.807 65.6658 82.7855 65.591 82.7817C65.5157 82.7778 65.4389 82.8267 65.3641 82.8225C65.2888 82.8183 65.2098 82.9164 65.135 82.912C65.0597 82.9073 64.9891 82.7941 64.9143 82.7893C64.839 82.7844 64.7615 82.8333 64.6869 82.828C64.6116 82.8227 64.5394 82.7597 64.4648 82.7539C64.3896 82.7482 64.3112 82.8081 64.2366 82.802C64.1613 82.7958 64.0852 82.8081 64.0107 82.8015C63.9354 82.795 63.8588 82.814 63.7844 82.8073C63.7091 82.8003 63.6352 82.7751 63.5607 82.7677C63.4855 82.7603 63.4189 82.6319 63.3445 82.624C63.2694 82.6162 63.1909 82.664 63.1166 82.6558C63.0415 82.6475 62.9717 82.5754 62.8976 82.5667C62.8225 82.5578 62.7367 82.6888 62.6627 82.6797C62.5875 82.6704 62.51 82.6915 62.4361 82.682C62.361 82.6723 62.2972 82.5409 62.2233 82.5307C62.1484 82.5204 62.0774 82.4742 62.0037 82.4635C61.9287 82.4527 61.8565 82.4237 61.7828 82.4123C61.7079 82.4008 61.637 82.3608 61.5636 82.349C61.4889 82.3369 61.4095 82.3759 61.3361 82.3634C61.2613 82.3507 61.1812 82.3915 61.108 82.3784C61.0332 82.3651 60.9555 82.3818 60.8825 82.368C60.8079 82.3539 60.7304 82.3655 60.6575 82.3509C60.5829 82.3361 60.5258 82.1977 60.4529 82.1825C60.3783 82.1668 60.2897 82.2559 60.2171 82.2398C60.1425 82.2231 60.0705 82.1939 59.9981 82.1768C59.9235 82.1592 59.8476 82.1552 59.7754 82.1372C59.701 82.1186 59.6518 81.9599 59.58 81.9407C59.5055 81.9208 59.4203 81.9726 59.3486 81.9523C59.2743 81.9312 59.2022 81.9089 59.131 81.8871C59.0569 81.8645 58.9797 81.8662 58.9091 81.8429C58.8352 81.8186 58.7511 81.8463 58.6812 81.8213C58.6074 81.7951 58.5509 81.7058 58.4816 81.679C58.4079 81.6504 58.339 81.6151 58.2706 81.5857C58.1972 81.5541 58.1404 81.482 58.0732 81.4498C58.0007 81.4149 57.9165 81.4289 57.8513 81.3931C57.7795 81.3538 57.7315 81.2698 57.6691 81.2294C57.5988 81.1839 57.488 81.2357 57.4299 81.189C57.362 81.1344 57.3561 80.9937 57.3056 80.9374C57.2441 80.8689 57.1793 80.8299 57.1447 80.7595C57.1031 80.6742 57 80.5976 57 80.5101C57 80.4218 57.0234 80.2852 57.0657 80.1993C57.1004 80.1286 57.2611 80.1707 57.323 80.1019C57.3737 80.0457 57.3983 79.9477 57.4667 79.8929C57.5251 79.8459 57.5956 79.8178 57.6664 79.7721C57.7291 79.7317 57.7845 79.6655 57.8567 79.6259C57.922 79.5902 58.0103 79.6177 58.0832 79.5827C58.1502 79.5506 58.1755 79.3684 58.2489 79.3371C58.3173 79.3079 58.4137 79.3705 58.4875 79.342C58.5567 79.3151 58.6449 79.3612 58.7188 79.335C58.7888 79.31 58.8611 79.2942 58.9352 79.2698C59.0059 79.2466 59.0612 79.1459 59.1353 79.1232C59.2065 79.1016 59.2582 78.9696 59.3326 78.9485C59.4041 78.9282 59.5048 79.0587 59.5793 79.039C59.6511 79.0198 59.7118 78.9277 59.7862 78.9091C59.8584 78.8911 59.9325 78.8763 60.0071 78.8588C60.0796 78.8416 60.168 78.9246 60.2426 78.9081C60.3153 78.892 60.3783 78.804 60.4529 78.7881C60.5258 78.7729 60.6102 78.8391 60.685 78.8243C60.758 78.8097 60.8091 78.6172 60.884 78.603C60.9572 78.5892 61.0322 78.5793 61.1071 78.566C61.1805 78.5528 61.2548 78.537 61.3297 78.5243C61.4031 78.5118 61.4786 78.5059 61.5535 78.4938C61.6269 78.482 61.7106 78.5628 61.7852 78.5514C61.8586 78.5401 61.9306 78.5071 62.0054 78.4963C62.0789 78.4858 62.1484 78.421 62.2232 78.4107C62.2969 78.4005 62.382 78.5131 62.4569 78.5031C62.5308 78.4934 62.5955 78.3694 62.6706 78.3601C62.7445 78.351 62.821 78.3648 62.8961 78.3561C62.9702 78.3474 63.0423 78.3049 63.1175 78.2966C63.1915 78.2884 63.2677 78.2987 63.3428 78.2909C63.4171 78.2831 63.4935 78.3013 63.5687 78.2939C63.6429 78.2865 63.7245 78.3906 63.7998 78.3836C63.8743 78.3766 63.9397 78.2143 64.015 78.2078C64.0895 78.2012 64.1702 78.3023 64.2455 78.2962C64.3196 78.2903 64.3887 78.1773 64.4636 78.1716C64.5379 78.1659 64.618 78.2727 64.6929 78.2674C64.7674 78.2621 64.8353 78.1037 64.9104 78.0988C64.9848 78.0939 65.0675 78.2782 65.1426 78.2736C65.2172 78.2691 65.2883 78.172 65.3634 78.168C65.438 78.1638 65.5111 78.1005 65.5864 78.0967C65.6611 78.0929 65.7381 78.1487 65.8134 78.1454C65.8879 78.142 65.9621 78.1206 66.0372 78.1174C66.1118 78.1145 66.1859 78.0762 66.261 78.0734C66.3358 78.0707 66.41 78.0269 66.4853 78.0245C66.5601 78.0222 66.6355 78.0195 66.7108 78.0174C66.7861 78.0152 66.8641 78.2035 66.9394 78.2018C67.0142 78.2002 67.0871 78.0368 67.1622 78.0356C67.2373 78.0343 67.3122 78.0011 67.3877 78C67.4632 77.9989 67.5391 78.1056 67.6148 78.1049C67.6899 78.1043 67.765 78.0057 67.8404 78.0053C67.9159 78.0049 67.9919 78.0053 68.0678 78.0053C68.1431 78.0053 68.2181 78.2004 68.2932 78.2008C68.3683 78.2012 68.4436 78.1786 68.5185 78.1792C68.594 78.1798 68.6701 78.0311 68.7451 78.0322C68.8205 78.0332 68.8955 78.0709 68.9704 78.0722C69.0458 78.0734 69.1199 78.1483 69.1949 78.15C69.2703 78.1517 69.3454 78.1504 69.4202 78.1523C69.4957 78.1545 69.5718 78.1028 69.6466 78.1052C69.722 78.1075 69.7956 78.1741 69.8705 78.1769C69.946 78.1796 70.023 78.1039 70.0979 78.1069C70.1734 78.11 70.2489 78.1052 70.3236 78.1085C70.3989 78.1119 70.4749 78.0961 70.5496 78.0999C70.6249 78.1037 70.7 78.1155 70.7748 78.1195C70.8501 78.1238 70.9237 78.1724 70.9984 78.1769C71.0737 78.1815 71.1461 78.249 71.2208 78.2539C71.2961 78.2588 71.374 78.198 71.4488 78.2033C71.524 78.2086 71.5974 78.2458 71.672 78.2516C71.7473 78.2573 71.8202 78.3002 71.8948 78.3064C71.9701 78.3125 72.0473 78.2763 72.1217 78.2829C72.197 78.2894 72.2767 78.2143 72.3511 78.2213C72.4264 78.2283 72.4919 78.3825 72.5663 78.3899C72.6416 78.3973 72.7157 78.4085 72.7901 78.4162C72.8652 78.424 72.9508 78.2797 73.0251 78.288C73.1002 78.2962 73.1765 78.2886 73.2506 78.2973C73.3257 78.3061 73.3854 78.5025 73.4594 78.5116C73.5346 78.5209 73.6159 78.446 73.6898 78.4557C73.7649 78.4655 73.8482 78.3755 73.9221 78.3857C73.9971 78.3961 74.0681 78.447 74.1418 78.4576C74.2168 78.4684 74.2846 78.5459 74.3582 78.5571C74.4332 78.5685 74.5196 78.4642 74.593 78.476C74.6678 78.4881 74.7377 78.542 74.8111 78.5545C74.8859 78.5672 74.9462 78.6982 75.0194 78.7113C75.0942 78.7246 75.164 78.7672 75.237 78.7811C75.3116 78.7953 75.3993 78.6997 75.4722 78.7143C75.5468 78.7291 75.6135 78.7957 75.6863 78.8112C75.7609 78.8268 75.8419 78.7911 75.9146 78.8071C75.9892 78.8239 76.0657 78.8224 76.1381 78.8395C76.2127 78.8571 76.2764 78.9347 76.3486 78.9529C76.423 78.9715 76.5145 78.8858 76.5863 78.9049C76.6607 78.9248 76.7376 78.9292 76.8091 78.9495C76.8833 78.9707 76.9325 79.1152 77.0037 79.137C77.0777 79.1596 77.1415 79.2201 77.212 79.2434C77.2859 79.2677 77.3558 79.2952 77.4258 79.3202C77.4995 79.3464 77.5906 79.2904 77.6599 79.3174C77.7336 79.346 77.7792 79.4664 77.8476 79.4958C77.921 79.5273 77.9909 79.551 78.0582 79.5834C78.1307 79.6183 78.201 79.6411 78.2661 79.6769C78.338 79.7162 78.4304 79.6881 78.493 79.7285C78.5633 79.774 78.5912 79.8908 78.6493 79.9375C78.7171 79.9921 78.8045 79.9928 78.855 80.0488C78.9165 80.1174 78.9232 80.2149 78.9578 80.2854C78.9994 80.3706 78.9987 80.4229 78.9987 80.5105L78.9994 80.5101Z" fill="#BCEBB2"/>
<path d="M84.8912 36.9098C84.8536 36.6443 84.8511 36.4319 84.8019 36.1707C84.752 35.9077 84.4569 35.6977 84.3953 35.439C84.3337 35.1784 84.2863 34.9203 84.213 34.6646C84.139 34.4071 84.1631 34.1225 84.0781 33.8705C83.9931 33.6186 83.8311 33.3938 83.7343 33.1456C83.6376 32.8974 83.5828 32.6325 83.4744 32.3892C83.366 32.1459 83.2951 31.8828 83.1756 31.6445C83.0561 31.4061 82.843 31.2178 82.7124 30.9856C82.5818 30.7534 82.4642 30.5157 82.3231 30.2891C82.1821 30.0625 82.0558 29.8284 81.9042 29.6092C81.7527 29.39 81.6794 29.1121 81.5186 28.8997C81.3579 28.6873 81.1435 28.5144 80.9729 28.3094C80.8022 28.1044 80.7708 27.7709 80.591 27.574C80.4111 27.377 79.9596 27.44 79.7705 27.2516C79.5813 27.0633 79.6078 26.649 79.4107 26.4693C79.2136 26.2896 78.7756 26.3908 78.5705 26.2204C78.3654 26.05 78.3444 25.6511 78.1319 25.4899C77.9194 25.3288 77.5825 25.343 77.3626 25.1923C77.1426 25.0416 76.9985 24.7786 76.7718 24.6384C76.5451 24.4982 76.3603 24.2809 76.1275 24.1506C75.8947 24.0203 75.6532 23.8974 75.4142 23.7782C75.1752 23.6591 74.9719 23.4497 74.728 23.3417C74.484 23.2336 74.1964 23.2145 73.9475 23.1181C73.6987 23.0218 73.419 23.0033 73.1658 22.9187C72.9139 22.8341 72.673 22.6995 72.4162 22.6266C72.1611 22.5544 71.8513 22.6877 71.5914 22.6266C71.3333 22.5661 71.0715 22.5414 70.8091 22.4926C70.5485 22.4444 70.3027 22.3166 70.0385 22.2802C69.776 22.2438 69.5358 21.9708 69.2691 21.9461C69.0048 21.922 68.7295 21.9233 68.4615 21.9109C68.1966 21.8986 67.9219 22.2203 67.6546 22.2203C67.3835 22.2203 67.1076 21.9282 66.8396 21.9406C66.5692 21.9529 66.2895 21.9313 66.0222 21.956C65.7524 21.9807 65.4838 22.0678 65.2177 22.1054C64.9498 22.1431 64.7212 22.4234 64.4576 22.4735C64.1915 22.5235 63.9038 22.4549 63.642 22.5167C63.379 22.5791 63.0889 22.5494 62.8308 22.6241C62.5708 22.6989 62.4051 23.0693 62.1507 23.1558C61.8963 23.2422 61.5384 23.0484 61.2877 23.1465C61.037 23.2447 60.8799 23.5708 60.6342 23.6813C60.3884 23.7918 60.1506 23.9091 59.9104 24.0308C59.6701 24.1524 59.327 24.0833 59.093 24.216C58.8589 24.3488 58.642 24.5211 58.4141 24.6649C58.1862 24.8088 58.0643 25.112 57.8431 25.2664C57.622 25.4208 57.2142 25.3232 57.0004 25.4875C56.7867 25.6517 56.6148 25.8814 56.4091 26.0555C56.2033 26.2297 56.1787 26.6101 55.981 26.7934C55.7832 26.9768 55.5806 27.1473 55.3915 27.3393C55.2024 27.5314 55.097 27.7926 54.9172 27.9939C54.7373 28.1952 54.2457 28.1279 54.0751 28.3372C53.9045 28.5465 53.9618 28.9362 53.801 29.1535C53.6402 29.3709 53.3427 29.49 53.1924 29.7148C53.0421 29.9396 52.7871 30.1044 52.6472 30.3354C52.5074 30.5663 52.6435 30.9591 52.5142 31.1968C52.3848 31.4345 52.2093 31.6432 52.0916 31.8865C51.974 32.1298 51.7793 32.3373 51.6728 32.5855C51.5662 32.8338 51.4036 33.0629 51.3087 33.3166C51.2138 33.5704 51.4418 33.9317 51.3586 34.1898C51.2754 34.4479 50.8763 34.6072 50.8054 34.8684C50.7352 35.1284 50.9674 35.4624 50.9089 35.7267C50.851 35.9898 50.6742 36.2244 50.628 36.4918C50.5824 36.7573 50.5689 37.0797 50.5356 37.3489C50.2812 37.4254 49.9554 37.4489 49.7065 37.5372C49.4577 37.6255 49.2094 37.7212 48.9649 37.8219C48.7203 37.9225 48.4037 37.8707 48.1641 37.9824C47.9245 38.0942 47.7877 38.4233 47.5536 38.5462C47.3196 38.6691 46.9968 38.6376 46.7689 38.7716C46.5409 38.9056 46.358 39.1217 46.1362 39.2662C45.9145 39.4107 45.6391 39.4854 45.4248 39.6404C45.2104 39.7954 44.9942 39.9596 44.7872 40.1251C44.5803 40.2906 44.3363 40.4234 44.1374 40.5981C43.9384 40.7729 43.8713 41.0983 43.6809 41.2823C43.4906 41.4663 43.4425 41.7856 43.2608 41.9782C43.0791 42.1709 42.7052 42.1857 42.5327 42.387C42.3602 42.5883 42.2568 42.8477 42.0941 43.057C41.9315 43.2663 41.6746 43.4077 41.5219 43.6245C41.3691 43.8412 41.1572 44.0252 41.0143 44.2494C40.8714 44.4735 40.9841 44.8527 40.8523 45.083C40.7205 45.3133 40.3213 45.3991 40.2006 45.6356C40.0798 45.8721 40.1772 46.2173 40.0675 46.4588C39.9579 46.7002 39.7176 46.8867 39.6197 47.1337C39.5218 47.3807 39.4214 47.6308 39.3351 47.8821C39.2495 48.1322 39.1534 48.386 39.0795 48.6416C39.0056 48.8954 39.0881 49.1943 39.0265 49.453C38.9649 49.7099 38.9544 49.9766 38.9052 50.2378C38.8559 50.4978 38.9501 50.775 38.9125 51.0387C38.8756 51.2999 38.514 51.5222 38.4894 51.7877C38.4647 52.0508 38.6625 52.3311 38.6501 52.5979C38.6378 52.8615 38.5571 53.1221 38.5571 53.3895C38.5571 53.6581 38.3686 53.9329 38.3809 54.1978C38.3933 54.4658 38.5651 54.7258 38.5898 54.99C38.615 55.2568 38.4475 55.5513 38.4844 55.8144C38.522 56.0799 38.8633 56.2967 38.9132 56.5579C38.9637 56.8209 38.9834 57.0864 39.0456 57.3452C39.1084 57.6057 39.0863 57.8879 39.1608 58.143C39.2359 58.3998 39.2778 58.6703 39.3647 58.9216C39.4515 59.1729 39.4768 59.4564 39.576 59.704C39.6751 59.9516 40.0269 60.093 40.1377 60.3357C40.2486 60.5784 40.3139 60.8396 40.4359 61.0767C40.5579 61.3138 40.5326 61.6349 40.6657 61.8658C40.7987 62.0968 41.1159 62.2172 41.2595 62.4413C41.403 62.6655 41.3623 63.0187 41.5163 63.236C41.6703 63.4534 41.9161 63.609 42.0806 63.819C42.245 64.0289 42.4144 64.2382 42.5888 64.4395C42.7631 64.6408 42.8481 64.9323 43.0317 65.1256C43.2152 65.3189 43.6655 65.2448 43.8583 65.4294C44.0511 65.614 44.0517 66.0067 44.2526 66.1815C44.4534 66.3562 44.8156 66.3346 45.025 66.5001C45.2344 66.6656 45.3626 66.933 45.5794 67.088C45.7962 67.243 45.973 67.4597 46.1972 67.6042C46.4214 67.7487 46.65 67.8913 46.8804 68.0253C47.1107 68.1593 47.3935 68.1995 47.63 68.3217C47.8666 68.444 48.0741 68.6268 48.3168 68.7379C48.5595 68.8491 48.7677 69.0491 49.0154 69.1485C49.263 69.248 49.5747 69.18 49.8266 69.2677C50.0773 69.3548 50.2818 69.5999 50.5381 69.6753C50.7925 69.75 51.042 69.8815 51.3019 69.9445C51.56 70.0069 51.9062 69.6666 52.1686 69.7173C52.4292 69.7673 52.6799 69.8315 52.9442 69.8692C53.2066 69.9068 53.4425 70.1501 53.7086 70.1754C53.9729 70.2001 54.2346 70.3378 54.502 70.3508C54.7669 70.3632 55.0404 70.0272 55.3083 70.0272C55.5824 70.0272 55.8553 70.2057 56.1263 70.1927C56.3998 70.1798 56.6697 70.131 56.9395 70.1044C57.2123 70.0779 57.4649 69.9315 57.7335 69.892C58.0045 69.8525 58.2965 69.9618 58.5632 69.9093C58.8318 69.8562 59.0671 69.6697 59.3313 69.6043C59.5968 69.5382 59.8685 69.5135 60.1284 69.4344C60.3902 69.3554 60.6138 69.18 60.8701 69.0893C61.1263 68.9985 61.446 69.0757 61.6973 68.9719C61.9487 68.8682 62.1864 68.7262 62.4322 68.6101C62.678 68.494 62.9829 68.4854 63.2232 68.3569C63.4634 68.2285 63.7209 68.1149 63.9549 67.9753C64.189 67.8358 64.3941 67.6375 64.6208 67.4863C64.8475 67.335 65.1019 67.2127 65.3212 67.0509C65.5405 66.8891 65.5781 66.4915 65.7894 66.3192C66.0006 66.1469 66.4448 66.2451 66.6474 66.0623C66.8501 65.8795 66.9376 65.5659 67.1316 65.3732C67.3256 65.1805 67.6188 65.078 67.803 64.8767C67.9872 64.6754 68.0359 64.1808 68.2102 63.9709C68.3845 64.1808 68.4239 64.6841 68.6081 64.886C68.7923 65.0879 69.1453 65.1318 69.3393 65.3238C69.5333 65.5158 69.7816 65.6449 69.9842 65.8277C70.1869 66.0104 70.4093 66.1611 70.6206 66.3334C70.8318 66.5057 70.9939 66.7348 71.2138 66.8966C71.4337 67.0583 71.7361 67.0898 71.9634 67.2411C72.1907 67.3924 72.2997 67.7221 72.5344 67.8617C72.7691 68.0012 73.0808 67.9957 73.3217 68.1241C73.5625 68.2526 73.7134 68.5545 73.9605 68.6712C74.2075 68.7879 74.4957 68.8083 74.7483 68.9127C75.0009 69.017 75.1678 69.3523 75.4253 69.4443C75.6815 69.5357 76.0166 69.403 76.2784 69.482C76.5384 69.5604 76.8383 69.4808 77.1038 69.5468C77.3675 69.6123 77.5942 69.8296 77.8627 69.8821C78.1295 69.9346 78.3993 69.971 78.6697 70.0112C78.9383 70.0507 79.221 69.9494 79.4933 69.976C79.7637 70.0019 80.0119 70.3619 80.2854 70.3749C80.5565 70.3879 80.838 70.0192 81.1127 70.0192C81.3807 70.0192 81.6431 70.131 81.9079 70.1186C82.1753 70.1063 82.4297 70.0019 82.6933 69.9772C82.9594 69.9519 83.2619 70.2378 83.5243 70.2001C83.7892 70.1625 84.0553 70.0958 84.3158 70.0451C84.5782 69.9945 84.7698 69.6234 85.0273 69.561C85.2872 69.498 85.5768 69.5715 85.8318 69.4968C86.088 69.4215 86.3116 69.2585 86.5623 69.1714C86.8131 69.0843 87.1648 69.2578 87.4112 69.1584C87.6576 69.059 87.8602 68.8404 88.1023 68.7293C88.3444 68.6181 88.536 68.4032 88.7719 68.2804C89.0078 68.1575 89.216 67.9907 89.4464 67.8568C89.6768 67.7228 89.9072 67.598 90.1308 67.4535C90.3544 67.309 90.517 67.0861 90.7338 66.9311C90.9507 66.7761 91.2556 66.7477 91.465 66.5829C91.6744 66.418 92.0077 66.3982 92.2091 66.2235C92.4105 66.0487 92.6286 65.8802 92.8214 65.6961C93.0142 65.5121 93.1436 65.2546 93.3271 65.0614C93.5107 64.8681 93.5329 64.5278 93.7072 64.3265C93.8815 64.1252 94.2006 64.0443 94.3657 63.8344C94.5308 63.6245 94.7088 63.4201 94.8634 63.2027C95.018 62.9853 95.249 62.8118 95.3932 62.5871C95.5373 62.3623 95.3285 61.9226 95.4615 61.6917C95.5946 61.4608 95.8773 61.3187 95.9999 61.081C96.1225 60.8433 96.1126 60.5487 96.2235 60.3054C96.3344 60.0621 96.4274 59.8219 96.5266 59.5737C96.6258 59.3255 96.9251 59.1569 97.012 58.9043C97.0988 58.653 97.028 58.3517 97.1031 58.0954C97.1777 57.8404 97.3403 57.6107 97.4031 57.3507C97.4653 57.092 97.6939 56.8654 97.7444 56.6023C97.7943 56.3411 97.5374 56.0274 97.575 55.7619C97.6126 55.4989 97.9711 55.2722 97.9963 55.0055C98.021 54.7406 97.8473 54.4565 97.8596 54.1885C97.8719 53.923 97.6945 53.6569 97.6945 53.3883C97.6945 53.1166 97.9495 52.8436 97.9366 52.575C97.9236 52.304 97.7222 52.0489 97.697 51.7809C97.6711 51.5111 97.6464 51.2474 97.6076 50.9813C97.5688 50.7127 97.4228 50.4718 97.3717 50.2076C97.32 49.9414 97.2602 49.6889 97.1962 49.4277C97.1321 49.1646 97.4395 48.8021 97.3631 48.544C97.2861 48.2847 97.2319 48.0087 97.1432 47.7543C97.0545 47.4999 96.696 47.3424 96.595 47.0929C96.4939 46.8435 96.4015 46.5915 96.2882 46.347C96.1749 46.1025 96.221 45.7758 96.0966 45.5368C95.9722 45.2979 95.8681 45.0379 95.7313 44.8057C95.5946 44.5736 95.1498 44.5322 95.0026 44.3068C94.8554 44.0814 94.7963 43.8017 94.638 43.5831C94.4796 43.3645 94.3638 43.1169 94.1951 42.9063C94.0263 42.6958 93.9327 42.421 93.754 42.2184C93.5754 42.0159 93.2865 41.9159 93.0992 41.7226C92.912 41.5293 92.6458 41.4231 92.4493 41.2391C92.2528 41.0551 92.0878 40.8457 91.8826 40.6704C91.6775 40.495 91.6646 40.0807 91.4508 39.9158C91.2371 39.7509 90.8626 39.8034 90.6414 39.649C90.4203 39.4947 90.1967 39.3526 89.9681 39.2094C89.7396 39.0661 89.6595 38.6672 89.4248 38.5351C89.1902 38.4029 88.8162 38.5264 88.5754 38.4054C88.3345 38.2844 88.1066 38.1436 87.8596 38.0343C87.6126 37.925 87.3902 37.7607 87.1383 37.6638C86.8864 37.5669 86.5913 37.6021 86.335 37.5175C86.0788 37.4329 85.8022 37.4464 85.5417 37.3742C85.2829 37.3026 85.153 36.9704 84.8893 36.9111L84.8912 36.9098Z" fill="#3BA36F"/>
<path d="M81.5469 44.4155C81.3917 44.1994 81.1915 44.0598 80.9876 43.9104C80.7769 43.7554 80.5737 43.6337 80.3303 43.5541C80.0846 43.4732 79.8493 43.2762 79.5912 43.275C79.3355 43.2737 79.0146 43.2058 78.7657 43.2861C78.5255 43.3633 78.2846 43.5769 78.0691 43.7325C77.7303 43.9777 77.9311 44.2568 77.5923 44.5019C77.2535 44.7471 77.2227 44.7026 76.8845 44.9471C76.5463 45.1917 76.335 44.8984 75.9969 45.1429C75.6587 45.3874 75.7067 45.4572 75.3673 45.7023C75.0279 45.9475 75.193 46.1753 74.8542 46.4205C74.5154 46.6656 74.3941 46.4977 74.0547 46.7428C73.7152 46.988 73.6586 46.9058 73.321 47.1504C72.9816 47.3955 72.9582 47.3634 72.6182 47.6085C72.2781 47.8537 72.3139 47.9043 71.9738 48.1501C71.6338 48.3958 71.5895 48.3366 71.2482 48.5829C70.907 48.8293 71.0936 49.3283 70.7141 49.1461C70.3452 48.9683 70.5047 48.8176 70.5047 48.407C70.5047 47.9963 70.6907 47.9969 70.6907 47.5875C70.6907 47.1781 70.5805 47.1769 70.5805 46.7669C70.5805 46.3569 70.8638 46.3563 70.8638 45.945C70.8638 45.5338 70.7911 45.535 70.7911 45.1244C70.7911 44.7137 70.6569 44.7131 70.6569 44.3019C70.6569 43.8906 70.5294 43.89 70.5294 43.4781C70.5294 43.0663 70.5109 43.0663 70.5109 42.6544C70.5109 42.3876 70.7117 42.1054 70.6341 41.8652C70.5534 41.6158 70.4253 41.3589 70.2743 41.152C70.1222 40.9427 69.7563 40.9637 69.5475 40.8112C69.3405 40.6605 69.2272 40.3703 68.9783 40.2894C68.7387 40.2116 68.4775 40.4055 68.2114 40.4055C67.9453 40.4055 67.7278 40.345 67.4876 40.4228C67.2387 40.5037 67.0275 40.5852 66.8205 40.7358C66.6117 40.8884 66.2698 40.9205 66.1176 41.1298C65.9673 41.3373 65.8029 41.5948 65.7222 41.8436C65.6446 42.0838 65.6045 42.3876 65.6045 42.6544C65.6045 43.0613 65.5429 43.0613 65.5429 43.4682C65.5429 43.8752 65.6895 43.8745 65.6895 44.2809C65.6895 44.6872 65.5343 44.6878 65.5343 45.0947C65.5343 45.5016 65.8066 45.5016 65.8066 45.908C65.8066 46.3143 65.9501 46.3149 65.9501 46.7218C65.9501 47.1287 65.8084 47.1275 65.8084 47.5338C65.8084 47.9401 65.6717 47.9395 65.6717 48.3458C65.6717 48.7521 65.5694 48.7534 65.5694 49.1603C65.5694 49.5672 65.9335 49.5672 65.9335 49.9735C65.9335 50.3798 65.5639 50.3805 65.5639 50.788C65.5639 51.1955 65.7265 51.1955 65.7265 51.6031C65.7265 52.0106 65.7641 52.01 65.7641 52.417C65.7641 52.8239 65.6883 52.8251 65.6883 53.2333C65.6883 53.6414 65.7012 53.6421 65.7012 54.0508C65.7012 54.4596 66.0222 54.5189 65.663 54.7134C65.3008 54.9092 65.3095 54.7887 64.9614 54.5683C64.6134 54.3479 64.6559 54.2824 64.3085 54.0626C63.9611 53.8427 64.0381 53.7211 63.6906 53.5013C63.3432 53.2814 63.2416 53.4401 62.8936 53.2191C62.5455 52.998 62.5529 52.9881 62.2049 52.7677C61.8569 52.5472 62.0281 52.2749 61.6801 52.0545C61.332 51.834 61.34 51.8198 60.9914 51.5988C60.6427 51.3777 60.4622 51.6655 60.1142 51.445C59.7662 51.2246 59.7711 51.2159 59.4225 50.9949C59.0738 50.7738 59.0849 50.7547 58.735 50.533C58.3851 50.3113 58.3654 50.3434 58.0155 50.1217C57.7907 49.9791 57.6293 49.7358 57.3848 49.6728C57.1316 49.608 56.8698 49.7055 56.6142 49.7222C56.3561 49.7389 56.1201 49.7691 55.8799 49.8649C55.6421 49.9593 55.4278 50.0723 55.227 50.2397C55.0329 50.4015 55.0083 50.6701 54.866 50.8948C54.7237 51.1202 54.3239 51.2147 54.2617 51.4598C54.197 51.7136 54.0923 52.0168 54.1089 52.2725C54.1256 52.5312 54.2192 52.8375 54.3147 53.0783C54.4089 53.3166 54.7508 53.4377 54.9177 53.639C55.0791 53.8335 55.1266 54.2021 55.3514 54.3448C55.6945 54.5621 55.7284 54.5078 56.0715 54.7251C56.4146 54.9425 56.4713 54.8511 56.8137 55.0685C57.1562 55.2858 57.1877 55.2327 57.5289 55.4488C57.8702 55.665 57.9435 55.5501 58.2847 55.7662C58.626 55.9824 58.6094 56.0132 58.9525 56.2306C59.2956 56.4479 59.3091 56.4257 59.651 56.6425C59.9929 56.8592 59.8937 57.0179 60.2362 57.2346C60.5787 57.4514 60.6113 57.4026 60.9544 57.6206C61.2975 57.8385 61.3499 57.7552 61.693 57.9725C62.0361 58.1899 61.9757 58.2862 62.3195 58.5042C62.6632 58.7222 62.6096 58.8074 62.9533 59.0254C63.297 59.2433 63.3629 59.1377 63.7067 59.3551C64.0504 59.5725 64.1385 59.4335 64.4828 59.6515C64.8271 59.8695 64.6454 60.1591 64.9904 60.3777C65.3353 60.5963 65.3637 60.4573 65.562 60.8149C65.7579 61.1687 65.716 61.1181 65.716 61.5219C65.716 61.9257 65.7788 61.9263 65.7788 62.3302C65.7788 62.734 65.7179 62.7346 65.7179 63.1391C65.7179 63.5436 65.9113 63.5442 65.9113 63.9493C65.9113 64.3543 65.7468 64.3543 65.7468 64.7594C65.7468 65.1645 65.8522 65.1639 65.8522 65.5683C65.8522 65.9728 65.7314 65.9734 65.7314 66.3779C65.7314 66.7823 65.7216 66.7829 65.7216 67.1886C65.7216 67.5943 65.9427 67.5937 65.9427 67.9982C65.9427 68.4026 65.732 68.4032 65.732 68.8089C65.732 69.2146 65.9507 69.214 65.9507 69.6191C65.9507 70.0242 65.8146 70.0242 65.8146 70.4299C65.8146 70.8355 65.6624 70.8343 65.6624 71.2388C65.6624 71.6432 65.8072 71.6432 65.8072 72.0477C65.8072 72.4521 65.6261 72.4534 65.6261 72.8591C65.6261 73.2648 65.7671 73.2641 65.7671 73.6692C65.7671 74.0743 65.7825 74.0749 65.7825 74.4806C65.7825 74.8863 65.8663 74.8869 65.8663 75.2926C65.8663 75.6983 65.7154 75.6983 65.7154 76.1034C65.7154 76.5085 65.6852 76.5097 65.6852 76.916C65.6852 77.3223 65.9039 77.3229 65.9039 77.7305C65.9039 78.138 65.6735 78.1374 65.6735 78.5449C65.6735 78.8117 65.7616 79.0766 65.8392 79.3168C65.9199 79.5663 65.9076 79.904 66.0579 80.1115C66.21 80.3209 66.6369 80.2733 66.8457 80.4258C67.0527 80.5765 67.134 81.0137 67.3823 81.0946C67.6219 81.1724 67.9428 80.9507 68.2089 80.9507C68.475 80.9507 68.6721 80.7914 68.9124 80.7136C69.1612 80.6327 69.4501 80.6932 69.6571 80.5419C69.8659 80.3894 69.9152 80.1072 70.0674 79.8973C70.2177 79.6898 70.4659 79.5545 70.5466 79.3057C70.6242 79.0655 70.6852 78.8111 70.6852 78.5443C70.6852 78.1448 70.7696 78.1448 70.7696 77.7447C70.7696 77.3445 70.5836 77.3452 70.5836 76.9463C70.5836 76.5474 70.8213 76.5474 70.8213 76.1478C70.8213 75.7483 70.801 75.7489 70.801 75.3494C70.801 74.9499 70.5207 74.9499 70.5207 74.5504C70.5207 74.1509 70.6008 74.1502 70.6008 73.7501C70.6008 73.35 70.5799 73.3494 70.5799 72.9492C70.5799 72.5491 70.6556 72.5491 70.6556 72.1496C70.6556 71.75 70.4869 71.7501 70.4869 71.3505C70.4869 70.951 70.687 70.951 70.687 70.5509C70.687 70.1507 70.5749 70.1501 70.5749 69.75C70.5749 69.3499 70.7511 69.3499 70.7511 68.9491C70.7511 68.5483 70.6766 68.549 70.6766 68.1488C70.6766 67.7487 70.878 67.7487 70.878 67.3479C70.878 66.9472 70.6599 66.9472 70.6599 66.5464C70.6599 66.1457 70.7228 66.1463 70.7228 65.7455C70.7228 65.3448 70.7135 65.3448 70.7135 64.944C70.7135 64.5433 70.8571 64.5433 70.8571 64.1432C70.8571 63.743 70.5922 63.7424 70.5922 63.3416C70.5922 62.9409 70.6593 62.9415 70.6593 62.542C70.6593 62.1425 70.4585 62.1419 70.4585 61.7423C70.4585 61.3428 70.6747 61.341 70.6747 60.9402C70.6747 60.5395 70.7579 60.5395 70.7579 60.1393C70.7579 59.7392 70.7838 59.7386 70.7838 59.3372C70.7838 58.9358 70.6316 58.9358 70.6316 58.5345C70.6316 58.1331 70.485 58.1337 70.485 57.7323C70.485 57.331 70.5823 57.3303 70.5823 56.9284C70.5823 56.5264 70.5343 56.5258 70.5343 56.1231C70.5343 55.7205 70.3686 55.6131 70.5503 55.2543C70.7308 54.8987 70.9944 55.079 71.3172 54.8456C71.64 54.6121 71.539 54.4714 71.8624 54.2373C72.1857 54.0033 72.2005 54.0274 72.5227 53.7946C72.8449 53.5618 73.0364 53.8298 73.358 53.597C73.6795 53.3642 73.6752 53.358 73.9974 53.1252C74.3195 52.8924 74.2247 52.7578 74.5481 52.5238C74.8715 52.2898 74.9854 52.4497 75.3082 52.2163C75.631 51.9829 75.4893 51.7859 75.8121 51.5525C76.1348 51.319 76.032 51.1733 76.3554 50.9393C76.6788 50.7053 76.8075 50.8849 77.1309 50.6509C77.4543 50.4169 77.5005 50.4805 77.8239 50.2465C78.1473 50.0124 78.2206 50.1174 78.5434 49.884C78.8674 49.65 78.7965 49.5518 79.1212 49.3171C79.4458 49.0825 79.362 48.9664 79.6866 48.7318C80.0113 48.4971 79.9725 48.4415 80.2983 48.2063C80.6242 47.971 80.7387 48.1309 81.064 47.8957C81.2796 47.7401 81.4662 47.5313 81.6153 47.3276C81.7699 47.1164 81.8167 46.8422 81.8962 46.5989C81.9769 46.3526 81.8469 46.1031 81.8481 45.8437C81.8494 45.5875 81.8543 45.38 81.7742 45.1305C81.6972 44.8897 81.7028 44.6316 81.5469 44.4155Z" fill="#7A2900"/>
</g>
<defs>
<clipPath id="clip0_2973_8643">
<rect width="91" height="91" fill="white" transform="translate(7 7)"/>
</clipPath>
</defs>
</svg>
