<svg width="104" height="104" viewBox="0 0 104 104" fill="none" xmlns="http://www.w3.org/2000/svg">
<g clip-path="url(#clip0_2973_8702)">
<path d="M98.8356 75.5925C98.8356 75.8623 98.8659 76.0402 98.7076 76.3029C98.577 76.519 98.6597 76.9538 98.4264 77.1634C98.2357 77.3355 97.8679 77.3355 97.6112 77.5031C97.3915 77.6467 97.1652 77.813 96.8989 77.9527C96.6629 78.0763 96.3346 78.0278 96.0637 78.1488C95.8181 78.2581 95.7412 78.81 95.4671 78.9168C95.215 79.0151 94.7683 78.6185 94.4923 78.7143C94.235 78.8036 94.1161 79.3393 93.8387 79.4266C93.5782 79.5088 93.3113 79.6162 93.034 79.6964C92.7709 79.7728 92.4742 79.7728 92.1962 79.8472C91.9305 79.9184 91.6189 79.8427 91.3397 79.9112C91.0721 79.9772 90.8277 80.1713 90.5485 80.236C90.2796 80.2981 89.9072 79.9177 89.6267 79.9779C89.3565 80.0368 89.0992 80.1655 88.8187 80.2231C88.5472 80.2781 88.2795 80.3661 87.999 80.4198C87.7262 80.4722 87.4289 80.3952 87.1477 80.4463C86.8742 80.4955 86.6803 81.0157 86.3998 81.0636C86.1257 81.1101 85.7967 80.8494 85.5155 80.8947C85.2407 80.9393 84.9731 81.0435 84.6919 81.0869C84.4166 81.1289 84.1211 81.0506 83.84 81.0914C83.5639 81.1315 83.2886 81.1839 83.0067 81.2227C82.7307 81.2609 82.4592 81.3482 82.1774 81.3851C81.9013 81.4214 81.666 81.7914 81.3849 81.8264C81.1088 81.8607 80.8348 81.9487 80.5536 81.9817C80.2769 82.014 79.9647 81.7662 79.6835 81.7973C79.4062 81.8283 79.1463 82.0425 78.8645 82.0722C78.5865 82.102 78.3176 82.243 78.0358 82.2715C77.7578 82.2993 77.4643 82.2055 77.1825 82.2321C76.9039 82.2586 76.5839 81.8477 76.3014 81.873C76.0228 81.8982 75.7513 82.0192 75.4688 82.0431C75.1896 82.0671 74.9401 82.4682 74.6576 82.4909C74.3783 82.5135 74.0706 82.1945 73.7875 82.2159C73.5076 82.2372 73.2413 82.454 72.9581 82.474C72.6782 82.4941 72.3757 82.1971 72.0926 82.2159C71.814 82.234 71.5612 82.6798 71.2794 82.6973C71.0001 82.7147 70.7093 82.5698 70.4274 82.586C70.1475 82.6021 69.876 82.7904 69.5935 82.8053C69.3136 82.8202 69.0169 82.531 68.7345 82.5452C68.4539 82.5588 68.1714 82.542 67.8889 82.5549C67.6084 82.5678 67.3356 82.7885 67.0525 82.8001C66.7713 82.8118 66.4869 82.762 66.2037 82.7723C65.9238 82.7827 65.6485 82.9567 65.366 82.9664C65.0854 82.9755 64.801 82.9101 64.5185 82.9179C64.2373 82.9263 63.9619 83.189 63.6788 83.1967C63.3976 83.2039 63.1132 83.1883 62.8301 83.1948C62.5469 83.2013 62.2535 82.6138 61.9703 82.619C61.6891 82.6241 61.4112 82.8409 61.128 82.8448C60.8449 82.8486 60.5624 82.7484 60.2787 82.7516C59.9949 82.7548 59.7163 83.156 59.4319 83.1579C59.1494 83.1599 58.8656 83.1987 58.5812 83.1993C58.2967 83.2 58.0117 83.1236 57.726 83.1236C57.4428 83.1236 57.1597 83.0208 56.8772 83.0201C56.5947 83.0195 56.3129 82.683 56.031 82.6811C55.7473 82.6791 55.4603 83.2103 55.1784 83.2071C54.8946 83.2039 54.6186 82.6992 54.3368 82.6947C54.053 82.6908 53.7725 82.628 53.4906 82.6228C53.2068 82.6177 52.916 83.0505 52.6341 83.044C52.3503 83.0376 52.0646 83.1366 51.7828 83.1288C51.499 83.1217 51.2165 83.0855 50.9353 83.077C50.6515 83.0686 50.3658 83.1379 50.0846 83.1288C49.8009 83.1191 49.5352 82.6377 49.2533 82.6274C48.9702 82.617 48.6903 82.551 48.4091 82.5394C48.126 82.5277 47.837 82.6772 47.5559 82.6643C47.2727 82.6513 46.9754 82.9515 46.6942 82.9379C46.411 82.9237 46.1454 82.5776 45.8642 82.5627C45.581 82.5478 45.2895 82.6973 45.009 82.6811C44.7258 82.6649 44.4543 82.4721 44.1738 82.4546C43.8907 82.4372 43.5959 82.6203 43.3154 82.6015C43.0322 82.5827 42.7459 82.6203 42.466 82.6002C42.1828 82.5801 41.8945 82.6384 41.6146 82.6177C41.3315 82.5963 41.0535 82.5193 40.7736 82.4967C40.4905 82.474 40.2403 82.0813 39.9604 82.0574C39.678 82.0334 39.3825 82.1796 39.1033 82.1544C38.8208 82.1292 38.5584 81.9086 38.2798 81.882C37.9973 81.8549 37.6747 82.2553 37.3961 82.2275C37.1136 82.1991 36.8221 82.2638 36.5441 82.2346C36.2616 82.2049 36.0218 81.8031 35.7439 81.772C35.462 81.7403 35.195 81.5993 34.9177 81.5663C34.6359 81.5333 34.3644 81.4446 34.0871 81.4097C33.8052 81.3748 33.5389 81.2525 33.2629 81.2162C32.9817 81.1794 32.6831 81.2984 32.407 81.2603C32.1259 81.2214 31.8246 81.3463 31.5492 81.3062C31.2681 81.2654 30.9759 81.3165 30.7011 81.2745C30.4206 81.2311 30.1291 81.2667 29.855 81.2221C29.5744 81.1768 29.3598 80.7536 29.0857 80.7071C28.8052 80.6592 28.4716 80.9316 28.1989 80.8824C27.9183 80.8313 27.6475 80.742 27.3753 80.6896C27.0948 80.6359 26.8091 80.6236 26.5376 80.5686C26.2577 80.5117 26.0728 80.0264 25.8026 79.9675C25.5227 79.9067 25.2021 80.0652 24.9325 80.0031C24.6533 79.9384 24.3818 79.8705 24.1141 79.8038C23.8355 79.7346 23.5453 79.7398 23.2796 79.6686C23.0017 79.5942 22.6856 79.679 22.4225 79.6026C22.1452 79.5224 21.9325 79.2494 21.672 79.1672C21.3947 79.0798 21.1355 78.9718 20.8782 78.8818C20.6022 78.7854 20.3888 78.5648 20.1361 78.4665C19.8633 78.3597 19.5466 78.4024 19.3016 78.2931C19.0314 78.1727 18.851 77.9159 18.6164 77.7923C18.352 77.6532 17.935 77.8117 17.7165 77.6687C17.4612 77.5018 17.4392 77.0715 17.2492 76.8994C17.0178 76.6898 16.7741 76.5707 16.6441 76.3553C16.4877 76.0945 16.0999 75.8603 16.0999 75.5925C16.0999 75.3227 16.1878 74.9047 16.3468 74.642C16.4774 74.4259 17.0818 74.5547 17.3145 74.3444C17.5052 74.1723 17.5976 73.8727 17.8549 73.7051C18.0747 73.5615 18.3397 73.4755 18.606 73.3357C18.842 73.2121 19.0501 73.0096 19.3216 72.8886C19.5672 72.7793 19.8995 72.8634 20.1736 72.7566C20.4257 72.6583 20.5207 72.1012 20.7967 72.0055C21.054 71.9162 21.4166 72.1077 21.694 72.0203C21.9545 71.9382 22.2861 72.0792 22.564 71.999C22.8271 71.9226 23.0993 71.8741 23.3779 71.7997C23.6436 71.7285 23.8517 71.4206 24.1303 71.3513C24.3979 71.2853 24.5925 70.8816 24.8724 70.8169C25.1413 70.7548 25.5201 71.154 25.8 71.0938C26.0702 71.0349 26.2984 70.7535 26.5783 70.6966C26.8498 70.6416 27.1284 70.5963 27.4089 70.5426C27.6817 70.4902 28.014 70.7438 28.2945 70.6933C28.568 70.6441 28.8052 70.375 29.0857 70.3265C29.3598 70.2799 29.6772 70.4824 29.9584 70.4371C30.2331 70.3925 30.4251 69.8037 30.707 69.7603C30.9823 69.7183 31.2642 69.6879 31.546 69.6471C31.822 69.607 32.1013 69.5585 32.3831 69.5196C32.6591 69.4815 32.9429 69.4634 33.2248 69.4265C33.5008 69.3902 33.8156 69.6374 34.0961 69.6025C34.3722 69.5682 34.643 69.4672 34.9242 69.4342C35.2009 69.4019 35.462 69.2039 35.7432 69.1722C36.0205 69.1411 36.3405 69.4854 36.6223 69.4549C36.9003 69.4252 37.1434 69.046 37.4258 69.0176C37.7038 68.9897 37.9915 69.0318 38.2739 69.0053C38.5525 68.9787 38.824 68.8487 39.1065 68.8235C39.3851 68.7982 39.6715 68.8299 39.954 68.806C40.2332 68.7821 40.5209 68.8377 40.8034 68.8151C41.0826 68.7924 41.3897 69.1107 41.6728 69.0894C41.9527 69.068 42.199 68.5718 42.4821 68.5517C42.762 68.5317 43.0658 68.8409 43.349 68.8222C43.6276 68.8041 43.8874 68.4586 44.1693 68.4411C44.4485 68.4236 44.7498 68.7504 45.0316 68.7342C45.3115 68.718 45.5668 68.2334 45.8493 68.2185C46.1292 68.2036 46.4401 68.7672 46.7226 68.7529C47.0032 68.7394 47.2708 68.4424 47.5533 68.4301C47.8338 68.4171 48.1085 68.2237 48.3917 68.212C48.6729 68.2004 48.9625 68.3712 49.2456 68.3609C49.5255 68.3505 49.8047 68.2852 50.0872 68.2755C50.3678 68.2664 50.6464 68.1493 50.9289 68.1409C51.2101 68.1325 51.4893 67.9985 51.7724 67.9914C52.0536 67.9843 52.3374 67.9759 52.6205 67.9694C52.9037 67.9629 53.1971 68.5388 53.4803 68.5336C53.7615 68.5284 54.0356 68.0289 54.318 68.0251C54.6005 68.0212 54.8824 67.9196 55.1661 67.9164C55.4499 67.9131 55.7356 68.2392 56.0201 68.2373C56.3025 68.2353 56.585 67.9338 56.8688 67.9325C57.1526 67.9312 57.4383 67.9325 57.724 67.9325C58.0071 67.9325 58.289 68.5291 58.5715 68.5304C58.854 68.5317 59.1371 68.4624 59.4189 68.4644C59.7027 68.4663 59.9891 68.0115 60.2709 68.0147C60.5547 68.0179 60.8365 68.1331 61.1184 68.137C61.4021 68.1409 61.6807 68.3699 61.9626 68.3751C62.2464 68.3803 62.5288 68.3764 62.81 68.3822C63.0938 68.3887 63.3802 68.2308 63.6614 68.2379C63.9451 68.245 64.2218 68.4488 64.5036 68.4573C64.7874 68.4657 65.077 68.234 65.3589 68.2431C65.6426 68.2528 65.9264 68.2379 66.2076 68.2483C66.4907 68.2586 66.7765 68.2101 67.0576 68.2217C67.3408 68.2334 67.6233 68.2696 67.9045 68.2819C68.1876 68.2949 68.4642 68.4437 68.7454 68.4573C69.0286 68.4715 69.3007 68.6779 69.5819 68.6928C69.865 68.7076 70.1579 68.522 70.4391 68.5381C70.7222 68.5543 70.9982 68.6682 71.2788 68.6856C71.5619 68.7031 71.836 68.8345 72.1165 68.8532C72.3996 68.872 72.6899 68.7614 72.9698 68.7814C73.2529 68.8015 73.5529 68.5718 73.8328 68.5931C74.1159 68.6145 74.3622 69.0862 74.6421 69.1088C74.9252 69.1314 75.2038 69.1657 75.4837 69.189C75.7662 69.213 76.0881 68.7717 76.3674 68.7969C76.6498 68.8222 76.9369 68.7989 77.2155 68.8254C77.4979 68.8526 77.7223 69.453 78.0009 69.4808C78.2833 69.5093 78.5891 69.2803 78.8671 69.31C79.1495 69.3398 79.4631 69.0648 79.741 69.0959C80.0229 69.1276 80.2898 69.2835 80.5671 69.3158C80.849 69.3488 81.1043 69.5856 81.381 69.6199C81.6628 69.6549 81.988 69.3359 82.264 69.3721C82.5452 69.409 82.8083 69.574 83.0843 69.6122C83.3655 69.651 83.5924 70.0515 83.8677 70.0916C84.1489 70.1324 84.4114 70.2624 84.6861 70.3051C84.9667 70.3485 85.2963 70.056 85.5704 70.1007C85.851 70.146 86.1018 70.3498 86.3759 70.397C86.6564 70.4449 86.9609 70.3355 87.2343 70.3847C87.5148 70.4358 87.8025 70.4313 88.0746 70.4837C88.3552 70.5374 88.595 70.7748 88.8665 70.8305C89.1464 70.8874 89.4903 70.6254 89.7605 70.6836C90.0404 70.7444 90.3293 70.758 90.5983 70.8201C90.8775 70.8848 91.0624 71.3267 91.33 71.3934C91.6086 71.4626 91.8484 71.6477 92.1135 71.7188C92.3914 71.7932 92.6545 71.8773 92.9176 71.9537C93.1949 72.0339 93.5375 71.8625 93.798 71.9453C94.0753 72.0326 94.2466 72.4008 94.5039 72.4907C94.7799 72.5871 95.043 72.6596 95.2958 72.7586C95.5686 72.8653 95.833 72.9352 96.0779 73.0445C96.3481 73.1649 96.6959 73.0788 96.9312 73.2024C97.1956 73.3415 97.3003 73.6987 97.5188 73.8417C97.7741 74.0086 98.1025 74.0105 98.2926 74.182C98.524 74.3916 98.5492 74.6899 98.6791 74.9053C98.8356 75.1661 98.833 75.3259 98.833 75.5938L98.8356 75.5925Z" fill="#E5DFD8"/>
<path d="M85.9603 23.4747C85.5682 23.4747 85.5682 23.4323 85.1768 23.4323C84.7854 23.4323 84.7848 23.6802 84.3927 23.6802C84.0007 23.6802 84.0007 23.7352 83.6087 23.7352C83.2166 23.7352 83.216 23.6473 82.824 23.6473C82.4319 23.6473 82.4313 23.8092 82.0387 23.8092C81.6461 23.8092 81.6461 23.6778 81.2528 23.6778C80.8596 23.6778 80.8602 23.6897 80.4676 23.6897C80.0749 23.6897 80.0749 23.8983 79.6823 23.8983C79.2897 23.8983 79.2896 23.6264 78.8976 23.6264C78.5056 23.6264 78.5056 23.6354 78.1129 23.6354C77.7203 23.6354 77.7209 23.6449 77.3289 23.6449C76.9368 23.6449 76.9368 23.6426 76.5448 23.6426C76.1528 23.6426 76.1528 23.8989 75.7607 23.8989C75.3687 23.8989 75.3687 23.3815 74.9767 23.3815C74.5846 23.3815 74.5846 23.5494 74.1926 23.5494C73.8005 23.5494 73.8005 23.5954 73.4079 23.5954C73.0153 23.5954 73.0153 23.5607 72.6232 23.5607C72.2312 23.5607 72.2306 23.5553 71.838 23.5553C71.4453 23.5553 71.4447 23.7931 71.0521 23.7931C70.6595 23.7931 70.6595 23.6013 70.2662 23.6013C69.873 23.6013 69.8736 23.3265 69.4809 23.3265C69.0883 23.3265 69.0883 23.7429 68.6957 23.7429C68.303 23.7429 68.303 23.6659 67.911 23.6659C67.519 23.6659 67.5184 23.7083 67.1263 23.7083C66.7343 23.7083 66.7337 23.6019 66.3417 23.6019C65.9496 23.6019 65.949 23.7853 65.557 23.7853C65.1649 23.7853 65.1643 23.4741 64.7717 23.4741C64.3791 23.4741 64.3791 23.3528 63.9858 23.3528C63.5926 23.3528 63.5926 23.7913 63.1994 23.7913C62.8061 23.7913 62.8067 23.8857 62.4135 23.8857C62.0203 23.8857 62.0209 23.4645 61.6282 23.4645C61.2356 23.4645 61.2356 23.3761 60.8429 23.3761C60.4503 23.3761 60.4503 23.4603 60.0577 23.4603C59.665 23.4603 59.665 23.5971 59.2724 23.5971C58.8798 23.5971 58.8798 23.7602 58.4865 23.7602C58.0933 23.7602 58.0933 23.3546 57.7006 23.3546C57.308 23.3546 57.3074 23.7352 56.9142 23.7352C56.5209 23.7352 56.5215 23.676 56.1283 23.676C55.7351 23.676 55.7363 23.829 55.3442 23.829C54.9522 23.829 54.9528 23.7411 54.5608 23.7411C54.1687 23.7411 54.1693 23.4269 53.7779 23.4269C53.3865 23.4269 53.3865 23.7196 52.995 23.7196C52.6036 23.7196 52.6036 23.8953 52.2121 23.8953C51.8207 23.8953 51.8201 23.5039 51.4287 23.5039C51.0372 23.5039 51.0366 23.7943 50.644 23.7943C50.2514 23.7943 50.2514 23.7507 49.8581 23.7507C49.4649 23.7507 49.4643 23.8331 49.0711 23.8331C48.6778 23.8331 48.6778 23.3635 48.2852 23.3635C47.8925 23.3635 47.8925 23.8845 47.4999 23.8845C47.1073 23.8845 47.1079 23.8642 46.7152 23.8642C46.3226 23.8642 46.3226 23.7411 45.9306 23.7411C45.5385 23.7411 45.5379 23.5207 45.1453 23.5207C44.7527 23.5207 44.7521 23.3618 44.3588 23.3618C43.9656 23.3618 43.965 23.5296 43.5711 23.5296C43.1773 23.5296 43.1779 23.5278 42.7847 23.5278C42.3914 23.5278 42.392 23.5774 41.9988 23.5774C41.6056 23.5774 41.6056 23.7089 41.2129 23.7089C40.8203 23.7089 40.8191 23.6181 40.4252 23.6181C40.0314 23.6181 40.0314 23.3193 39.6382 23.3193C39.2449 23.3193 39.2449 23.713 38.8517 23.713C38.4585 23.713 38.4579 23.8116 38.0646 23.8116C37.6714 23.8116 37.6708 23.7925 37.2764 23.7925C36.8819 23.7925 36.8825 23.814 36.4893 23.814C36.096 23.814 36.0954 23.4603 35.701 23.4603C35.3066 23.4603 35.3072 23.5195 34.9133 23.5195C34.5195 23.5195 34.5195 23.7065 34.1257 23.7065C33.7318 23.7065 33.7324 23.6121 33.3398 23.6121C32.9471 23.6121 32.9465 23.7136 32.5539 23.7136C32.1613 23.7136 32.1595 23.4131 31.765 23.4131C31.3706 23.4131 31.3712 23.6384 30.9774 23.6384C30.5835 23.6384 30.5829 23.3988 30.1891 23.3988C29.7952 23.3988 29.7946 23.5398 29.3996 23.5398C29.0046 23.5398 29.0052 23.6258 28.6113 23.6258C28.2175 23.6258 28.2163 23.4424 27.8213 23.4424C27.4262 23.4424 27.4256 23.8564 27.03 23.8564C26.6343 23.8564 26.6343 23.3898 26.2387 23.3898C25.9757 23.3898 25.7452 23.7238 25.5081 23.8003C25.2625 23.8797 25.1262 24.0853 24.9215 24.2334C24.715 24.3828 24.404 24.3971 24.2539 24.6026C24.105 24.8064 24.2779 25.1332 24.1981 25.3775C24.1212 25.6135 24.0354 25.776 24.0354 26.0377C24.0354 26.4278 23.5269 26.4278 23.5269 26.8179C23.5269 27.2081 23.8877 27.2081 23.8877 27.5988C23.8877 27.9895 23.716 27.9889 23.716 28.3796C23.716 28.7704 24.0654 28.7698 24.0654 29.1599C24.0654 29.55 23.9898 29.55 23.9898 29.9396C23.9898 30.3291 23.8367 30.3291 23.8367 30.7192C23.8367 31.1093 24.0612 31.1087 24.0612 31.4989C24.0612 31.889 23.5791 31.8884 23.5791 32.2785C23.5791 32.6687 24.0942 32.6687 24.0942 33.0582C24.0942 33.4477 23.8084 33.4483 23.8084 33.8384C23.8084 34.2286 24.0894 34.2286 24.0894 34.6187C24.0894 35.0088 24.0552 35.0094 24.0552 35.3995C24.0552 35.7897 23.7316 35.7897 23.7316 36.1804C23.7316 36.5711 24.063 36.5705 24.063 36.9607C24.063 37.3508 24.0312 37.3508 24.0312 37.7409C24.0312 38.131 24.0204 38.131 24.0204 38.5206C24.0204 38.9101 23.8072 38.9107 23.8072 39.3008C23.8072 39.691 23.8451 39.691 23.8451 40.0811C23.8451 40.4712 23.6926 40.4718 23.6926 40.8619C23.6926 41.2521 23.7754 41.2527 23.7754 41.6428C23.7754 42.0329 23.8415 42.0323 23.8415 42.4224C23.8415 42.8126 23.7202 42.812 23.7202 43.2009C23.7202 43.5898 23.5059 43.5898 23.5059 43.9788C23.5059 44.3677 23.9261 44.3677 23.9261 44.7566C23.9261 45.1456 24.0456 45.1456 24.0456 45.5345C24.0456 45.9234 23.5641 45.9234 23.5641 46.3124C23.5641 46.7013 23.7496 46.7013 23.7496 47.0908C23.7496 47.4804 23.8781 47.4804 23.8781 47.8699C23.8781 48.2594 23.8541 48.26 23.8541 48.6507C23.8541 49.0415 23.7166 49.0415 23.7166 49.4328C23.7166 49.8241 23.6932 49.8229 23.6932 50.2136C23.6932 50.6044 23.7838 50.6038 23.7838 50.9933C23.7838 51.3828 23.6157 51.3828 23.6157 51.773C23.6157 52.1631 23.9285 52.1625 23.9285 52.5526C23.9285 52.9427 23.9063 52.9427 23.9063 53.3329C23.9063 53.723 24.0912 53.7236 24.0912 54.1143C24.0912 54.505 23.8307 54.5056 23.8307 54.8964C23.8307 55.2871 24.0114 55.2871 24.0114 55.6772C24.0114 56.0673 23.8769 56.0673 23.8769 56.4575C23.8769 56.8476 23.7802 56.8482 23.7802 57.2383C23.7802 57.6285 23.8385 57.6296 23.8385 58.0204C23.8385 58.4111 23.8223 58.4111 23.8223 58.8024C23.8223 59.1937 23.5851 59.1931 23.5851 59.5839C23.5851 59.9746 24.042 59.9746 24.042 60.3659C24.042 60.7572 23.9345 60.7572 23.9345 61.1486C23.9345 61.5399 24.0828 61.5393 24.0828 61.9306C24.0828 62.3219 23.5683 62.3219 23.5683 62.7133C23.5683 63.1046 24.0738 63.1046 24.0738 63.4959C24.0738 63.8872 23.8223 63.8872 23.8223 64.2785C23.8223 64.6699 23.8679 64.6693 23.8679 65.0594C23.8679 65.4495 23.7304 65.4501 23.7304 65.8402C23.7304 66.2304 23.5653 66.2322 23.5653 66.6235C23.5653 67.0148 23.791 67.0148 23.791 67.4055C23.791 67.7963 24.078 67.7975 24.078 68.1888C24.078 68.5801 23.8325 68.5807 23.8325 68.9732C23.8325 69.3657 23.9327 69.3645 23.9327 69.7565C23.9327 70.1484 23.9063 70.149 23.9063 70.5415C23.9063 70.934 23.7058 70.9346 23.7058 71.3277C23.7058 71.7208 23.5143 71.7208 23.5143 72.114C23.5143 72.3756 23.7268 72.6654 23.8036 72.902C23.8835 73.1469 24.2923 73.2109 24.4412 73.4152C24.5913 73.6213 24.4977 74.0664 24.7042 74.2163C24.9083 74.3651 25.1701 74.5533 25.4156 74.6334C25.6528 74.7104 25.9745 74.4004 26.2375 74.4004C26.6295 74.4004 26.6295 74.2761 27.021 74.2761C27.4124 74.2761 27.413 74.7953 27.805 74.7953C28.1971 74.7953 28.1971 74.3251 28.5891 74.3251C28.9812 74.3251 28.9818 74.3167 29.3738 74.3167C29.7658 74.3167 29.7664 74.4243 30.1591 74.4243C30.5517 74.4243 30.5517 74.5862 30.9449 74.5862C31.3382 74.5862 31.3376 74.291 31.7302 74.291C32.1228 74.291 32.1228 74.8263 32.5155 74.8263C32.9081 74.8263 32.9081 74.4069 33.3002 74.4069C33.6922 74.4069 33.6922 74.3209 34.0848 74.3209C34.4775 74.3209 34.4769 74.4278 34.8689 74.4278C35.2609 74.4278 35.2609 74.3143 35.653 74.3143C36.045 74.3143 36.045 74.5497 36.437 74.5497C36.8291 74.5497 36.8291 74.3089 37.2211 74.3089C37.6132 74.3089 37.6132 74.2803 38.0052 74.2803C38.3972 74.2803 38.3972 74.5133 38.7899 74.5133C39.1825 74.5133 39.1825 74.6029 39.5745 74.6029C39.9666 74.6029 39.9672 74.6656 40.3598 74.6656C40.7524 74.6656 40.753 74.4619 41.1457 74.4619C41.5383 74.4619 41.5383 74.2856 41.9316 74.2856C42.3248 74.2856 42.3242 74.3884 42.7168 74.3884C43.1095 74.3884 43.1095 74.3072 43.5021 74.3072C43.8947 74.3072 43.8947 74.3221 44.2868 74.3221C44.6788 74.3221 44.6794 74.6567 45.0714 74.6567C45.4635 74.6567 45.4641 74.4858 45.8561 74.4858C46.2482 74.4858 46.2488 74.5868 46.6408 74.5868C47.0328 74.5868 47.0334 74.7218 47.4261 74.7218C47.8187 74.7218 47.8187 74.6124 48.2119 74.6124C48.6052 74.6124 48.6052 74.7546 48.9984 74.7546C49.3916 74.7546 49.391 74.6829 49.7843 74.6829C50.1775 74.6829 50.1769 74.6077 50.5696 74.6077C50.9622 74.6077 50.9622 74.5258 51.3548 74.5258C51.7475 74.5258 51.7475 74.8042 52.1401 74.8042C52.5327 74.8042 52.5327 74.2767 52.9254 74.2767C53.318 74.2767 53.318 74.2946 53.7112 74.2946C54.1045 74.2946 54.1045 74.4882 54.4971 74.4882C54.8898 74.4882 54.8904 74.8012 55.2836 74.8012C55.6768 74.8012 55.6762 74.8233 56.0695 74.8233C56.4627 74.8233 56.4615 74.7576 56.8535 74.7576C57.2456 74.7576 57.245 74.2623 57.637 74.2623C58.029 74.2623 58.0284 74.7505 58.4199 74.7505C58.8113 74.7505 58.8113 74.6274 59.2028 74.6274C59.5942 74.6274 59.5942 74.481 59.9856 74.481C60.3771 74.481 60.3777 74.6764 60.7691 74.6764C61.1605 74.6764 61.1611 74.8275 61.5538 74.8275C61.9464 74.8275 61.9464 74.7242 62.3396 74.7242C62.7329 74.7242 62.7335 74.6728 63.1267 74.6728C63.52 74.6728 63.52 74.6202 63.9126 74.6202C64.3052 74.6202 64.3052 74.2874 64.6979 74.2874C65.0905 74.2874 65.0899 74.6393 65.4825 74.6393C65.8752 74.6393 65.8752 74.6829 66.2672 74.6829C66.6592 74.6829 66.6598 74.8263 67.0525 74.8263C67.4451 74.8263 67.4457 74.5336 67.839 74.5336C68.2322 74.5336 68.2328 74.4446 68.6266 74.4446C69.0205 74.4446 69.0199 74.4075 69.4131 74.4075C69.8063 74.4075 69.8057 74.8299 70.199 74.8299C70.5922 74.8299 70.5922 74.2988 70.9849 74.2988C71.3775 74.2988 71.3787 74.7164 71.7725 74.7164C72.1664 74.7164 72.1664 74.475 72.5596 74.475C72.9528 74.475 72.9528 74.2833 73.3461 74.2833C73.7393 74.2833 73.7399 74.478 74.1331 74.478C74.5264 74.478 74.527 74.6841 74.9214 74.6841C75.3159 74.6841 75.3153 74.2695 75.7085 74.2695C76.1017 74.2695 76.1023 74.5784 76.4968 74.5784C76.8912 74.5784 76.8906 74.5838 77.2844 74.5838C77.6783 74.5838 77.6783 74.5216 78.0721 74.5216C78.466 74.5216 78.4654 74.7176 78.858 74.7176C79.2506 74.7176 79.2512 74.6322 79.6439 74.6322C80.0365 74.6322 80.0383 74.7839 80.4327 74.7839C80.8272 74.7839 80.8266 74.297 81.2204 74.297C81.6142 74.297 81.6149 74.5479 82.0087 74.5479C82.4025 74.5479 82.4031 74.714 82.7982 74.714C83.1932 74.714 83.1926 74.4601 83.5864 74.4601C83.9803 74.4601 83.9815 74.3376 84.3765 74.3376C84.7716 74.3376 84.7722 74.708 85.1678 74.708C85.5634 74.708 85.5634 74.3914 85.9591 74.3914C86.222 74.3914 86.5108 74.6107 86.7479 74.5336C86.9935 74.4535 87.0451 74.0353 87.2499 73.8866C87.4564 73.7366 87.5578 73.5878 87.7079 73.3817C87.8562 73.178 87.9601 73.034 88.0399 72.7891C88.1168 72.5525 88.6385 72.3762 88.6385 72.1146C88.6385 71.7244 88.4055 71.7244 88.4055 71.3343C88.4055 70.9442 88.1792 70.9442 88.1792 70.5534C88.1792 70.1627 88.2332 70.1633 88.2332 69.7726C88.2332 69.3819 88.3737 69.3825 88.3737 68.9923C88.3737 68.6022 88.516 68.6022 88.516 68.2127C88.516 67.8231 88.2176 67.8231 88.2176 67.433C88.2176 67.0429 88.5941 67.0435 88.5941 66.6534C88.5941 66.2632 88.6919 66.2638 88.6919 65.8737C88.6919 65.4836 88.3551 65.4836 88.3551 65.094C88.3551 64.7045 88.498 64.7039 88.498 64.3138C88.498 63.9237 88.531 63.9237 88.531 63.5335C88.531 63.1434 88.6541 63.1428 88.6541 62.7527C88.6541 62.3626 88.3965 62.3626 88.3965 61.9718C88.3965 61.5811 88.3305 61.5817 88.3305 61.1916C88.3305 60.8015 88.1738 60.8015 88.1738 60.4113C88.1738 60.0212 88.6277 60.0212 88.6277 59.6317C88.6277 59.2421 88.6301 59.2415 88.6301 58.8514C88.6301 58.4613 88.3743 58.4613 88.3743 58.0712C88.3743 57.681 88.2897 57.6804 88.2897 57.2903C88.2897 56.9002 88.1576 56.8996 88.1576 56.5095C88.1576 56.1193 88.1738 56.1199 88.1738 55.7298C88.1738 55.3397 88.6337 55.3403 88.6337 54.9513C88.6337 54.5624 88.4121 54.5624 88.4121 54.1735C88.4121 53.7845 88.5977 53.7845 88.5977 53.3956C88.5977 53.0067 88.5592 53.0067 88.5592 52.6177C88.5592 52.2288 88.4974 52.2288 88.4974 51.8399C88.4974 51.4509 88.5244 51.4509 88.5244 51.0614C88.5244 50.6719 88.1 50.6719 88.1 50.2823C88.1 49.8928 88.3665 49.8922 88.3665 49.5015C88.3665 49.1108 88.2861 49.1108 88.2861 48.7194C88.2861 48.3281 88.426 48.3293 88.426 47.9386C88.426 47.5479 88.6811 47.5485 88.6811 47.1589C88.6811 46.7694 88.4019 46.7694 88.4019 46.3793C88.4019 45.9892 88.4542 45.9897 88.4542 45.5996C88.4542 45.2095 88.2098 45.2095 88.2098 44.8194C88.2098 44.4292 88.552 44.4286 88.552 44.0379C88.552 43.6472 88.4896 43.6466 88.4896 43.2559C88.4896 42.8651 88.3107 42.8651 88.3107 42.475C88.3107 42.0849 88.1894 42.0849 88.1894 41.6948C88.1894 41.3046 88.4428 41.304 88.4428 40.9139C88.4428 40.5238 88.4626 40.5226 88.4626 40.1319C88.4626 39.7411 88.2146 39.7411 88.2146 39.3498C88.2146 38.9585 88.1012 38.9591 88.1012 38.5684C88.1012 38.1776 88.1042 38.1776 88.1042 37.7863C88.1042 37.395 88.2338 37.395 88.2338 37.0037C88.2338 36.6123 88.6919 36.6129 88.6919 36.2216C88.6919 35.8303 88.1144 35.8303 88.1144 35.439C88.1144 35.0477 88.5124 35.0477 88.5124 34.6563C88.5124 34.265 88.13 34.265 88.13 33.8737C88.13 33.4824 88.6451 33.483 88.6451 33.0928C88.6451 32.7027 88.4818 32.7021 88.4818 32.312C88.4818 31.9219 88.5646 31.9201 88.5646 31.5287C88.5646 31.1374 88.5664 31.1374 88.5664 30.7467C88.5664 30.356 88.0982 30.3548 88.0982 29.9635C88.0982 29.5721 88.5604 29.5715 88.5604 29.179C88.5604 28.7865 88.1918 28.7877 88.1918 28.3958C88.1918 28.0039 88.4464 28.0033 88.4464 27.6107C88.4464 27.2182 88.6463 27.2176 88.6463 26.8245C88.6463 26.4314 88.6355 26.4314 88.6355 26.0383C88.6355 25.7766 88.4308 25.5 88.3539 25.264C88.2741 25.0196 88.2152 24.7179 88.0669 24.5148C87.9168 24.3093 87.7439 24.0273 87.5374 23.8779C87.3327 23.7298 87.0445 23.5493 86.7984 23.4699C86.5612 23.3934 86.2226 23.4741 85.9597 23.4741L85.9603 23.4747ZM66.2654 52.6446C65.9742 52.9338 65.9544 52.561 65.5438 52.561C65.1331 52.561 65.1331 52.8089 64.7231 52.8089C64.313 52.8089 64.3124 52.8639 63.9012 52.8639C63.4899 52.8639 63.4899 52.7761 63.0781 52.7761C62.6662 52.7761 62.6674 52.938 62.2562 52.938C61.8449 52.938 61.8443 52.8065 61.4325 52.8065C61.0207 52.8065 61.02 52.8185 60.6076 52.8185C60.1952 52.8185 60.275 52.6554 59.9826 52.9445C59.6902 53.2337 59.7929 53.1536 59.7929 53.5629C59.7929 53.9721 59.8019 53.9715 59.8019 54.3796C59.8019 54.7876 59.8115 54.7882 59.8115 55.1975C59.8115 55.6067 59.8091 55.6067 59.8091 56.0166C59.8091 56.4264 60.0667 56.4252 60.0667 56.8345C60.0667 57.2437 59.5468 57.2443 59.5468 57.6541C59.5468 58.064 59.7155 58.0646 59.7155 58.475C59.7155 58.8855 60.0583 58.9894 59.7683 59.281C59.4819 59.5695 59.3757 59.2403 58.968 59.2403C58.5604 59.2403 58.5592 59.235 58.1497 59.235C57.7403 59.235 57.7415 59.4727 57.3326 59.4727C56.9238 59.4727 56.9238 59.281 56.5149 59.281C56.1061 59.281 56.1055 59.0061 55.696 59.0061C55.2866 59.0061 55.2872 59.4226 54.8784 59.4226C54.4695 59.4226 54.4683 59.3455 54.0589 59.3455C53.6494 59.3455 53.6482 59.3879 53.2382 59.3879C52.8281 59.3879 52.717 59.5743 52.4271 59.2857C52.1371 58.9972 52.2464 58.8867 52.2464 58.4774C52.2464 58.0682 52.5592 58.0688 52.5592 57.6607C52.5592 57.2527 52.681 57.2521 52.681 56.8428C52.681 56.4336 52.2404 56.4336 52.2404 56.0237C52.2404 55.6139 52.1455 55.6151 52.1455 55.2058C52.1455 54.7966 52.5688 54.796 52.5688 54.3862C52.5688 53.9763 52.6576 53.9757 52.6576 53.5653C52.6576 53.1548 52.8191 52.9266 52.5279 52.6357C52.2368 52.3447 52.0074 52.7271 51.5962 52.7271C51.1849 52.7271 51.1855 52.8902 50.7755 52.8902C50.3654 52.8902 50.3648 52.4845 49.9536 52.4845C49.5423 52.4845 49.5423 52.8651 49.1305 52.8651C48.7186 52.8651 48.7198 52.8059 48.3086 52.8059C47.8973 52.8059 47.8967 52.9589 47.4849 52.9589C47.073 52.9589 47.0724 52.871 46.66 52.871C46.2476 52.871 46.2608 52.8997 45.9672 52.6112C45.6772 52.3262 45.7294 52.3387 45.7294 51.9331C45.7294 51.5274 45.5529 51.5262 45.5529 51.1188C45.5529 50.7113 45.9462 50.7125 45.9462 50.3056C45.9462 49.8988 45.6544 49.8988 45.6544 49.4919C45.6544 49.0851 45.6982 49.0845 45.6982 48.677C45.6982 48.2696 45.6154 48.2702 45.6154 47.8633C45.6154 47.4565 46.0873 47.4553 46.0873 47.0478C46.0873 46.6404 45.5637 46.6392 45.5637 46.2311C45.5637 45.8231 45.3674 45.5261 45.658 45.2376C45.9486 44.949 46.2464 45.2878 46.6576 45.2878C47.0688 45.2878 47.0682 45.5082 47.4783 45.5082C47.8883 45.5082 47.8889 45.6671 48.3002 45.6671C48.7114 45.6671 48.7114 45.4993 49.1233 45.4993C49.5351 45.4993 49.5339 45.501 49.9452 45.501C50.3564 45.501 50.357 45.4515 50.7689 45.4515C51.1807 45.4515 51.1813 45.32 51.5938 45.32C52.0062 45.32 52.1233 45.7018 52.4157 45.412C52.708 45.1223 52.7146 45.0058 52.7146 44.5971C52.7146 44.1885 52.319 44.1885 52.319 43.7804C52.319 43.3724 52.2199 43.3712 52.2199 42.9625C52.2199 42.5539 52.2392 42.5533 52.2392 42.1434C52.2392 41.7336 52.2175 41.7348 52.2175 41.3255C52.2175 40.9163 52.573 40.9157 52.573 40.5059C52.573 40.096 52.5135 40.0954 52.5135 39.685C52.5135 39.2745 52.0627 39.0911 52.3526 38.7996C52.639 38.511 52.8257 38.8671 53.234 38.8671C53.6422 38.8671 53.6428 38.7655 54.0523 38.7655C54.4617 38.7655 54.4605 39.066 54.8693 39.066C55.2782 39.066 55.2782 38.8408 55.687 38.8408C56.0959 38.8408 56.0965 39.0804 56.5059 39.0804C56.9154 39.0804 56.9148 38.9394 57.3236 38.9394C57.7325 38.9394 57.7337 38.8533 58.1431 38.8533C58.5526 38.8533 58.5538 39.0368 58.9638 39.0368C59.3739 39.0368 59.6668 38.4047 59.9568 38.6938C60.2468 38.983 59.5588 39.2739 59.5588 39.6826C59.5588 40.0912 59.8559 40.0912 59.8559 40.4993C59.8559 40.9073 59.9784 40.9085 59.9784 41.3172C59.9784 41.7258 59.7659 41.7264 59.7659 42.1363C59.7659 42.5461 60.0739 42.5449 60.0739 42.9542C60.0739 43.3634 60.0156 43.364 60.0156 43.7738C60.0156 44.1837 59.5071 44.1843 59.5071 44.5947C59.5071 45.0052 59.5528 45.0661 59.8439 45.3571C60.1351 45.648 60.1958 45.5034 60.607 45.5034C61.0182 45.5034 61.0176 45.1557 61.4277 45.1557C61.8377 45.1557 61.8383 45.231 62.2496 45.231C62.6608 45.231 62.6608 45.3833 63.0727 45.3833C63.4845 45.3833 63.4833 45.1599 63.8946 45.1599C64.3058 45.1599 64.3064 45.6397 64.7183 45.6397C65.1301 45.6397 65.1307 45.127 65.5432 45.127C65.9556 45.127 66.0781 45.1241 66.3717 45.4126C66.6616 45.6976 66.6544 45.8219 66.6544 46.2275C66.6544 46.6332 66.6202 46.6344 66.6202 47.0418C66.6202 47.4493 66.2966 47.4481 66.2966 47.855C66.2966 48.2618 66.628 48.2618 66.628 48.6687C66.628 49.0755 66.5962 49.0761 66.5962 49.4836C66.5962 49.891 66.5854 49.8904 66.5854 50.2973C66.5854 50.7041 66.3723 50.7053 66.3723 51.1128C66.3723 51.5202 66.3477 51.5196 66.4095 51.9235C66.4677 52.3035 66.559 52.3578 66.2684 52.6464L66.2654 52.6446Z" fill="#FF5C5C"/>
<path d="M65.5533 30.8829C65.1601 30.8829 65.1601 31.2689 64.7669 31.2689C64.3736 31.2689 64.373 30.9152 63.9792 30.9152C63.5853 30.9152 63.5859 31.043 63.1927 31.043C62.7995 31.043 62.8001 31.1828 62.4068 31.1828C62.0136 31.1828 62.0136 30.9409 61.621 30.9409C61.2283 30.9409 61.2271 30.997 60.8333 30.997C60.4395 30.997 60.4395 31.0604 60.0462 31.0604C59.653 31.0604 59.653 31.3101 59.2597 31.3101C58.8665 31.3101 58.8659 30.923 58.4727 30.923C58.0794 30.923 58.0788 30.8548 57.6844 30.8548C57.29 30.8548 57.2906 31.0819 56.8973 31.0819C56.5041 31.0819 56.5035 31.1805 56.109 31.1805C55.7146 31.1805 55.7152 30.9361 55.3214 30.9361C54.9275 30.9361 54.9275 31.1183 54.5337 31.1183C54.1399 31.1183 54.1405 31.0257 53.7478 31.0257C53.3552 31.0257 53.3546 30.9415 52.9619 30.9415C52.5693 30.9415 52.5675 31.0634 52.1731 31.0634C51.7786 31.0634 51.7792 30.9582 51.3854 30.9582C50.9916 30.9582 50.991 31.2742 50.5971 31.2742C50.2033 31.2742 50.2027 30.8722 49.8077 30.8722C49.4126 30.8722 49.4132 30.9056 49.0194 30.9056C48.6255 30.9056 48.6243 31.1374 48.2293 31.1374C47.8343 31.1374 47.8337 30.9708 47.438 30.9708C47.0424 30.9708 47.0424 31.147 46.6467 31.147C46.3958 31.147 46.1779 30.9905 45.9407 30.9439C45.6964 30.8955 45.5109 30.7754 45.2857 30.6822C45.057 30.5878 44.6247 30.8608 44.4212 30.7252C44.2165 30.5884 44.0994 30.2921 43.9259 30.1188C43.7524 29.9455 43.8389 29.5727 43.702 29.369C43.5657 29.1665 43.4534 28.9944 43.358 28.7668C43.2643 28.5428 42.9815 28.3898 42.9329 28.1467C42.8855 27.9107 43.1514 27.6615 43.1514 27.4118C43.1514 27.0223 42.9359 27.0223 42.9359 26.6322C42.9359 26.242 43.0842 26.2432 43.0842 25.8543C43.0842 25.4654 42.6627 25.4654 42.6627 25.0764C42.6627 24.6875 42.8831 24.6863 42.8831 24.2962C42.8831 23.906 43.0086 23.9066 43.0086 23.5171C43.0086 23.1276 43.0302 23.127 43.0302 22.7368C43.0302 22.3467 42.7882 22.3461 42.7882 21.956C42.7882 21.5659 43.0578 21.5659 43.0578 21.1757C43.0578 20.7856 42.9323 20.785 42.9323 20.3937C42.9323 20.0024 42.6057 20.0024 42.6057 19.6105C42.6057 19.2185 43.0602 19.2191 43.0602 18.8272C43.0602 18.5775 43.1544 18.3815 43.2013 18.1449C43.2499 17.9018 43.1701 17.6568 43.2637 17.4328C43.3586 17.2052 43.3267 16.9124 43.463 16.7099C43.6005 16.5062 43.8977 16.4369 44.0712 16.2642C44.2447 16.0915 44.4728 16.0312 44.6782 15.8944C44.8817 15.7588 45 15.515 45.2287 15.42C45.4538 15.3268 45.6808 15.2647 45.9251 15.2169C46.1623 15.1697 46.3958 14.8363 46.6467 14.8363C47.04 14.8363 47.04 14.9014 47.4332 14.9014C47.8265 14.9014 47.8271 14.8895 48.2209 14.8895C48.6147 14.8895 48.6141 15.3591 49.0074 15.3591C49.4006 15.3591 49.4 15.1828 49.7932 15.1828C50.1865 15.1828 50.1865 15.2515 50.5791 15.2515C50.9717 15.2515 50.973 15.0114 51.3668 15.0114C51.7606 15.0114 51.7606 15.0651 52.1539 15.0651C52.5471 15.0651 52.5471 15.3131 52.9403 15.3131C53.3336 15.3131 53.3342 15.2665 53.7274 15.2665C54.1206 15.2665 54.1212 15.1972 54.5157 15.1972C54.9101 15.1972 54.9095 14.9355 55.3028 14.9355C55.696 14.9355 55.6966 15.0562 56.091 15.0562C56.4855 15.0562 56.4849 15.3764 56.8787 15.3764C57.2725 15.3764 57.2725 15.2916 57.6664 15.2916C58.0602 15.2916 58.0596 15.1213 58.4523 15.1213C58.8449 15.1213 58.8455 14.8172 59.2381 14.8172C59.6308 14.8172 59.6326 14.9749 60.027 14.9749C60.4214 14.9749 60.4208 15.0406 60.8147 15.0406C61.2085 15.0406 61.2091 15.1195 61.603 15.1195C61.9968 15.1195 61.9974 15.0245 62.3924 15.0245C62.7875 15.0245 62.7869 14.8662 63.1807 14.8662C63.5745 14.8662 63.5757 14.9206 63.9708 14.9206C64.3658 14.9206 64.3664 15.0448 64.7621 15.0448C65.1577 15.0448 65.1577 15.0532 65.5533 15.0532C65.8043 15.0532 65.9964 15.3776 66.2335 15.4242C66.4779 15.4726 66.6664 15.5192 66.8915 15.6124C67.1203 15.7068 67.2776 15.8209 67.4811 15.9565C67.6858 16.0933 67.8683 16.1788 68.0418 16.352C68.2153 16.5253 68.3786 16.6549 68.5161 16.8592C68.6524 17.0618 69.1681 17.0713 69.263 17.299C69.3566 17.523 69.3596 17.8217 69.4083 18.0655C69.4557 18.3015 69.1483 18.5787 69.1483 18.8284C69.1483 19.2179 69.2702 19.2179 69.2702 19.6081C69.2702 19.9982 69.2588 19.997 69.2588 20.3859C69.2588 20.7749 69.5529 20.7749 69.5529 21.1638C69.5529 21.5527 69.4761 21.5539 69.4761 21.944C69.4761 22.3342 69.1375 22.3336 69.1375 22.7231C69.1375 23.1126 69.4881 23.1132 69.4881 23.5034C69.4881 23.8935 69.6082 23.8941 69.6082 24.2842C69.6082 24.6743 69.3974 24.6743 69.3974 25.0645C69.3974 25.4546 69.0426 25.4552 69.0426 25.8465C69.0426 26.2378 69.0769 26.2378 69.0769 26.6298C69.0769 27.0217 69.607 27.0211 69.607 27.413C69.607 27.6627 69.4545 27.9393 69.4077 28.1759C69.359 28.4191 69.1939 28.6515 69.1003 28.8749C69.0054 29.1026 68.8397 29.3045 68.7028 29.507C68.5653 29.7108 68.3552 29.8553 68.1811 30.028C68.007 30.2007 67.7663 30.2676 67.5615 30.4044C67.358 30.54 67.2175 30.7676 66.9888 30.862C66.7637 30.9552 66.5061 30.9086 66.2618 30.9564C66.0246 31.0036 65.8043 30.8847 65.5533 30.8847V30.8829ZM46.6467 17.2034C46.3994 17.2034 46.2253 17.6395 46.0254 17.7548C45.8194 17.8737 45.3818 17.8253 45.2623 18.0302C45.1464 18.2292 45.1759 18.5799 45.1759 18.826C45.1759 19.2155 45.3163 19.2155 45.3163 19.6057C45.3163 19.9958 45.0732 19.9946 45.0732 20.3835C45.0732 20.7725 45.1296 20.7725 45.1296 21.1614C45.1296 21.5503 45.1933 21.5515 45.1933 21.9417C45.1933 22.3318 45.4442 22.3312 45.4442 22.7207C45.4442 23.1102 45.0552 23.1108 45.0552 23.501C45.0552 23.8911 44.9867 23.8917 44.9867 24.2818C44.9867 24.672 45.2149 24.672 45.2149 25.0621C45.2149 25.4522 45.3139 25.4528 45.3139 25.8441C45.3139 26.2355 45.0684 26.2355 45.0684 26.6274C45.0684 27.0193 45.2515 27.0187 45.2515 27.4106C45.2515 27.6568 45.2419 27.9519 45.3578 28.1514C45.4772 28.3564 45.6537 28.6473 45.8603 28.7662C46.0602 28.8815 46.3994 28.854 46.6467 28.854C47.04 28.854 47.04 28.9592 47.4332 28.9592C47.8265 28.9592 47.8271 28.6431 48.2209 28.6431C48.6147 28.6431 48.6141 29.0452 49.0074 29.0452C49.4006 29.0452 49.4 29.0117 49.7932 29.0117C50.1865 29.0117 50.1865 28.7799 50.5791 28.7799C50.9717 28.7799 50.973 28.9466 51.3668 28.9466C51.7606 28.9466 51.7606 28.7704 52.1539 28.7704C52.5471 28.7704 52.5471 28.9048 52.9403 28.9048C53.3336 28.9048 53.3342 28.9657 53.7274 28.9657C54.1206 28.9657 54.1212 28.5189 54.5157 28.5189C54.9101 28.5189 54.9095 28.6748 55.3028 28.6748C55.696 28.6748 55.6966 28.9801 56.091 28.9801C56.4855 28.9801 56.4849 28.9634 56.8787 28.9634C57.2725 28.9634 57.2725 28.7381 57.6664 28.7381C58.0602 28.7381 58.0596 29.0273 58.4523 29.0273C58.8449 29.0273 58.8455 28.8128 59.2381 28.8128C59.6308 28.8128 59.6326 28.9604 60.027 28.9604C60.4214 28.9604 60.4208 28.541 60.8147 28.541C61.2085 28.541 61.2091 28.7602 61.603 28.7602C61.9968 28.7602 61.9974 28.8851 62.3924 28.8851C62.7875 28.8851 62.7869 28.9066 63.1807 28.9066C63.5745 28.9066 63.5757 28.6658 63.9708 28.6658C64.3658 28.6658 64.3664 28.9341 64.7621 28.9341C65.1577 28.9341 65.1577 28.8092 65.5533 28.8092C65.8007 28.8092 65.8931 28.4555 66.0931 28.3402C66.299 28.2213 66.7631 28.3779 66.8825 28.1729C66.9984 27.974 67.1623 27.6556 67.1623 27.4094C67.1623 27.0199 67.0128 27.0199 67.0128 26.6298C67.0128 26.2396 66.8441 26.2408 66.8441 25.8519C66.8441 25.463 67.0302 25.463 67.0302 25.074C67.0302 24.6851 67.1287 24.6839 67.1287 24.2938C67.1287 23.9036 66.9684 23.9042 66.9684 23.5147C66.9684 23.1252 66.9756 23.1246 66.9756 22.7345C66.9756 22.3443 66.6634 22.3437 66.6634 21.9536C66.6634 21.5635 66.7288 21.5635 66.7288 21.1734C66.7288 20.7832 66.7168 20.7826 66.7168 20.3913C66.7168 20 67.1887 20 67.1887 19.6081C67.1887 19.2161 67.0116 19.2167 67.0116 18.8248C67.0116 18.5787 66.9918 18.2638 66.8759 18.0649C66.7565 17.86 66.4022 17.8361 66.1963 17.7172C65.9964 17.6019 65.8013 17.4919 65.5539 17.4919C65.1607 17.4919 65.1607 17.244 64.7675 17.244C64.3742 17.244 64.3736 17.2906 63.9798 17.2906C63.5859 17.2906 63.5865 17.3599 63.1933 17.3599C62.8001 17.3599 62.8007 17.6216 62.4074 17.6216C62.0142 17.6216 62.0142 17.5009 61.6216 17.5009C61.2289 17.5009 61.2277 17.1807 60.8339 17.1807C60.4401 17.1807 60.4401 17.2655 60.0468 17.2655C59.6536 17.2655 59.6536 17.4358 59.2603 17.4358C58.8671 17.4358 58.8665 17.7399 58.4733 17.7399C58.08 17.7399 58.0794 17.5821 57.685 17.5821C57.2906 17.5821 57.2912 17.5164 56.8979 17.5164C56.5047 17.5164 56.5041 17.4376 56.1096 17.4376C55.7152 17.4376 55.7158 17.5326 55.322 17.5326C54.9281 17.5326 54.9281 17.6909 54.5343 17.6909C54.1405 17.6909 54.1411 17.6365 53.7484 17.6365C53.3558 17.6365 53.3552 17.5122 52.9625 17.5122C52.5699 17.5122 52.5681 17.5039 52.1737 17.5039C51.7792 17.5039 51.7798 17.1992 51.386 17.1992C50.9922 17.1992 50.9916 17.2093 50.5977 17.2093C50.2039 17.2093 50.2033 17.1831 49.8083 17.1831C49.4132 17.1831 49.4138 17.232 49.02 17.232C48.6261 17.232 48.6249 17.2751 48.2299 17.2751C47.8349 17.2751 47.7676 17.8056 47.3816 17.7178C46.9679 17.6234 47.0424 17.201 46.6467 17.201V17.2034Z" fill="#FF5C5C"/>
<g opacity="0.12">
<path d="M95.602 75.9223C95.3193 76.2001 95.3175 76.1756 94.92 76.1756C94.5226 76.1756 94.522 76.031 94.1239 76.031C93.7259 76.031 93.7265 75.9485 93.3291 75.9485C92.9316 75.9485 92.9322 76.2467 92.5348 76.2467C92.1373 76.2467 92.1374 76.1547 91.7399 76.1547C91.3425 76.1547 91.3419 75.7604 90.9438 75.7604C90.5458 75.7604 90.5458 76.2658 90.1484 76.2658C89.7509 76.2658 89.7509 76.2998 89.3535 76.2998C88.956 76.2998 88.9554 76.0011 88.558 76.0011C88.1606 76.0011 88.16 75.7418 87.7613 75.7418C87.3627 75.7418 87.3633 76.077 86.9658 76.077C86.5684 76.077 86.5678 75.8291 86.1692 75.8291C85.7705 75.8291 85.7711 76.1726 85.3731 76.1726C84.975 76.1726 84.975 76.0889 84.5764 76.0889C84.1778 76.0889 84.179 75.8273 83.7815 75.8273C83.3841 75.8273 83.3841 76.0083 82.9866 76.0083C82.5892 76.0083 82.588 76.1051 82.1894 76.1051C81.7907 76.1051 81.7913 76.1105 81.3933 76.1105C80.9952 76.1105 80.9946 75.8082 80.596 75.8082C80.1974 75.8082 80.1968 76.1839 79.7981 76.1839C79.3995 76.1839 79.3995 76.2353 79.0014 76.2353C78.6034 76.2353 78.6022 75.9515 78.203 75.9515C77.8037 75.9515 77.8031 75.9252 77.4033 75.9252C77.0034 75.9252 76.9488 76.2544 76.6618 75.9772C76.3827 75.7072 76.7831 75.6498 76.7831 75.2627C76.7831 74.8755 76.4175 74.8749 76.4175 74.4872C76.4175 74.0995 76.884 74.0989 76.884 73.7105C76.884 73.3222 76.5856 73.3216 76.5856 72.9333C76.5856 72.5449 76.8437 72.5449 76.8437 72.1572C76.8437 71.7695 76.8011 71.7695 76.8011 71.3817C76.8011 70.994 76.3719 70.994 76.3719 70.6057C76.3719 70.2173 76.5712 70.2167 76.5712 69.8284C76.5712 69.44 76.5754 69.44 76.5754 69.0511C76.5754 68.6622 76.8263 68.6628 76.8263 68.2744C76.8263 67.8861 76.7753 67.8861 76.7753 67.4972C76.7753 67.1082 76.4403 67.1082 76.4403 66.7193C76.4403 66.3304 76.3665 66.331 76.3665 65.942C76.3665 65.5531 76.5814 65.5531 76.5814 65.1642C76.5814 64.7752 76.7057 64.7752 76.7057 64.3869C76.7057 63.9986 76.8912 63.998 76.8912 63.609C76.8912 63.2201 76.4907 63.2207 76.4907 62.833C76.4907 62.4452 76.7117 62.4446 76.7117 62.0569C76.7117 61.6692 76.681 61.6674 76.681 61.2784C76.681 60.8895 76.4697 60.8895 76.4697 60.5012C76.4697 60.1128 76.4769 60.1122 76.4769 59.7227C76.4769 59.3332 76.8804 59.3332 76.8804 58.9436C76.8804 58.5541 76.8714 58.5547 76.8714 58.1652C76.8714 57.7757 76.7411 57.7751 76.7411 57.3849C76.7411 56.9948 76.4505 56.9942 76.4505 56.6035C76.4505 56.2128 76.5334 56.3071 76.8125 56.0329C77.0953 55.7551 77.001 56.0694 77.3985 56.0694C77.7959 56.0694 77.7965 55.6111 78.1946 55.6111C78.5926 55.6111 78.592 56.0383 78.9894 56.0383C79.3869 56.0383 79.3863 55.9069 79.7837 55.9069C80.1812 55.9069 80.1812 55.7928 80.5786 55.7928C80.976 55.7928 80.9766 55.8895 81.3747 55.8895C81.7727 55.8895 81.7727 55.8172 82.1702 55.8172C82.5676 55.8172 82.5676 56.11 82.965 56.11C83.3625 56.11 83.3631 56.1172 83.7605 56.1172C84.1579 56.1172 84.1585 55.696 84.5572 55.696C84.9558 55.696 84.9552 55.5478 85.3527 55.5478C85.7501 55.5478 85.7507 55.5771 86.1493 55.5771C86.548 55.5771 86.5474 55.7408 86.9454 55.7408C87.3435 55.7408 87.3435 55.7049 87.7421 55.7049C88.1407 55.7049 88.1395 55.5251 88.537 55.5251C88.9344 55.5251 88.9344 55.9021 89.3319 55.9021C89.7293 55.9021 89.7305 56.0258 90.1291 56.0258C90.5278 56.0258 90.5272 55.8698 90.9252 55.8698C91.3233 55.8698 91.3239 55.8955 91.7225 55.8955C92.1211 55.8955 92.1217 56.0467 92.5204 56.0467C92.919 56.0467 92.919 55.6129 93.3171 55.6129C93.7151 55.6129 93.7163 56.0724 94.1155 56.0724C94.5148 56.0724 94.5154 55.9099 94.9152 55.9099C95.3151 55.9099 95.5594 55.4116 95.8458 55.6888C96.125 55.9588 95.6561 56.2098 95.6561 56.5969C95.6561 56.984 95.8884 56.9846 95.8884 57.3724C95.8884 57.7601 95.6333 57.7607 95.6333 58.1491C95.6333 58.5374 95.6158 58.538 95.6158 58.9263C95.6158 59.3147 95.9809 59.3147 95.9809 59.7024C95.9809 60.0901 95.9532 60.0901 95.9532 60.4779C95.9532 60.8656 95.8296 60.8656 95.8296 61.2539C95.8296 61.6423 95.4598 61.6429 95.4598 62.0312C95.4598 62.4195 95.9995 62.4195 95.9995 62.8085C95.9995 63.1974 95.4405 63.1968 95.4405 63.5852C95.4405 63.9735 95.4886 63.9735 95.4886 64.3624C95.4886 64.7513 95.5918 64.7513 95.5918 65.1403C95.5918 65.5292 95.7197 65.5286 95.7197 65.9176C95.7197 66.3065 95.7293 66.3065 95.7293 66.6954C95.7293 67.0843 95.5012 67.0843 95.5012 67.4727C95.5012 67.861 95.8158 67.8616 95.8158 68.2505C95.8158 68.6395 95.5348 68.6389 95.5348 69.0266C95.5348 69.4144 95.5342 69.415 95.5342 69.8027C95.5342 70.1904 95.8338 70.1922 95.8338 70.5812C95.8338 70.9701 95.6122 70.9701 95.6122 71.3584C95.6122 71.7468 95.8596 71.7474 95.8596 72.1369C95.8596 72.5264 95.7425 72.5264 95.7425 72.9159C95.7425 73.3055 95.4351 73.3049 95.4351 73.6944C95.4351 74.0839 95.6297 74.0845 95.6297 74.4747C95.6297 74.8648 95.5432 74.8857 95.5978 75.2722C95.6483 75.6277 95.8806 75.6486 95.6008 75.9235L95.602 75.9223Z" fill="black"/>
</g>
<path d="M93.6156 84.1356C93.2313 84.1356 93.2313 84.144 92.8471 84.144C92.4629 84.144 92.4635 84.3334 92.0799 84.3334C91.6962 84.3334 91.6962 84.644 91.3132 84.644C90.9302 84.644 90.9296 84.141 90.5459 84.141C90.1623 84.141 90.1617 84.2479 89.7775 84.2479C89.3932 84.2479 89.3932 84.1541 89.009 84.1541C88.6248 84.1541 88.6254 84.3621 88.2411 84.3621C87.8569 84.3621 87.8569 84.135 87.4727 84.135C87.0884 84.135 87.0878 84.5855 86.7036 84.5855C86.3194 84.5855 86.3194 84.6369 85.9352 84.6369C85.5509 84.6369 85.5503 84.6853 85.1661 84.6853C84.7819 84.6853 84.7819 84.5885 84.3976 84.5885C84.0134 84.5885 84.0134 84.1344 83.6286 84.1344C83.2437 84.1344 83.2449 84.1386 82.8613 84.1386C82.4777 84.1386 82.4777 84.6715 82.094 84.6715C81.7104 84.6715 81.7092 84.1894 81.3244 84.1894C80.9395 84.1894 80.9401 84.4899 80.5559 84.4899C80.1717 84.4899 80.1711 84.4242 79.7862 84.4242C79.4014 84.4242 79.4008 84.3423 79.016 84.3423C78.6312 84.3423 78.6312 84.4003 78.2463 84.4003C77.8615 84.4003 77.8609 84.4505 77.4749 84.4505C77.0888 84.4505 77.0888 84.5921 76.7022 84.5921C76.3156 84.5921 76.3162 84.6566 75.9295 84.6566C75.6762 84.6566 75.3592 84.6279 75.125 84.5658C74.8831 84.5013 74.8177 83.9827 74.6057 83.8608C74.3908 83.7371 74.1639 83.6834 73.9898 83.5095C73.8157 83.3357 73.3906 83.3237 73.2669 83.1098C73.1444 82.8989 73.4734 82.4927 73.4092 82.2525C73.3468 82.0201 73.3053 81.8325 73.3053 81.5804C73.3053 81.1962 73.2225 81.1962 73.2225 80.8127C73.2225 80.4291 73.3864 80.4291 73.3864 80.0456C73.3864 79.662 73.3852 79.662 73.3852 79.2779C73.3852 78.8937 72.8257 78.8937 72.8257 78.5095C72.8257 78.1254 72.8167 78.1248 72.8167 77.74C72.8167 77.3553 72.8365 77.3553 72.8365 76.9699C72.8365 76.5846 73.1967 76.5852 73.1967 76.201C73.1967 75.8169 73.0574 75.8169 73.0574 75.4327C73.0574 75.0486 72.9866 75.0486 72.9866 74.6638C72.9866 74.2791 73.3552 74.2791 73.3552 73.8937C73.3552 73.5084 73.2273 73.509 73.2273 73.1236C73.2273 72.7383 72.8431 72.7389 72.8431 72.3541C72.8431 71.9694 73.2237 71.9694 73.2237 71.5846C73.2237 71.1999 73.2327 71.1993 73.2327 70.8139C73.2327 70.4286 73.1312 70.4292 73.1312 70.0438C73.1312 69.6585 72.8239 69.6585 72.8239 69.2731C72.8239 68.8878 73.2753 68.8878 73.2753 68.503C73.2753 68.1183 73.0928 68.1177 73.0928 67.7323C73.0928 67.347 72.9932 67.3482 72.9932 66.9634C72.9932 66.5787 72.986 66.5793 72.986 66.1945C72.986 65.8098 73.2651 65.8086 73.2651 65.4232C73.2651 65.0379 73.2909 65.0379 73.2909 64.6531C73.2909 64.2684 73.0286 64.2678 73.0286 63.8819C73.0286 63.4959 73.2561 63.4959 73.2561 63.11C73.2561 62.724 72.8821 62.7246 72.8821 62.3393C72.8821 61.9539 73.2123 61.9527 73.2123 61.5668C73.2123 61.1808 72.8953 61.1796 72.8953 60.7925C72.8953 60.4054 73.2843 60.4054 73.2843 60.0182C73.2843 59.7619 73.0742 59.505 73.0814 59.2493C73.0886 58.9936 73.3156 58.7481 73.3294 58.4924C73.3432 58.2367 73.3936 57.9887 73.4146 57.7336C73.4356 57.4785 73.4284 57.2258 73.4566 56.9713C73.4849 56.7168 73.384 56.4497 73.4194 56.1958C73.4548 55.9419 73.363 55.6689 73.405 55.4161C73.447 55.1634 73.2789 54.8683 73.3282 54.6168C73.3774 54.3653 73.9201 54.2147 73.9753 53.965C74.0306 53.7152 73.6301 53.3568 73.6926 53.1082C73.755 52.8597 74.051 52.6691 74.12 52.4224C74.1891 52.1756 74.1134 51.8835 74.1897 51.6391C74.2659 51.3948 74.7246 51.2741 74.8075 51.0315C74.8903 50.789 74.8279 50.4992 74.9173 50.2591C75.0068 50.0189 74.766 49.6485 74.8621 49.4107C75.014 49.0343 75.092 49.0654 75.2439 48.689C75.3958 48.3126 75.8371 48.4882 75.9896 48.1113C76.1421 47.7343 76.1288 47.7277 76.2813 47.3501C76.4338 46.9725 76.1 46.8501 76.4374 46.6189C76.7664 46.3936 76.7562 46.4916 77.1561 46.4916C77.5559 46.4916 77.5559 46.5902 77.9557 46.5902C78.3556 46.5902 78.3562 46.5537 78.7566 46.5537C79.1571 46.5537 79.1571 46.6493 79.5575 46.6493C79.958 46.6493 79.9573 46.3058 80.3572 46.3058C80.757 46.3058 80.7576 46.2897 81.1575 46.2897C81.5573 46.2897 81.5579 46.2287 81.959 46.2287C82.36 46.2287 82.3594 46.3285 82.7592 46.3285C83.1591 46.3285 83.1597 46.2706 83.5607 46.2706C83.9618 46.2706 83.9612 46.2437 84.3616 46.2437C84.762 46.2437 84.762 46.6003 85.1631 46.6003C85.5641 46.6003 85.5629 46.2162 85.9628 46.2162C86.3626 46.2162 86.3626 46.7198 86.7624 46.7198C87.1623 46.7198 87.1635 46.7133 87.5645 46.7133C87.9656 46.7133 87.965 46.7073 88.3654 46.7073C88.7659 46.7073 88.7665 46.6171 89.1675 46.6171C89.5685 46.6171 89.5691 46.7778 89.9702 46.7778C90.3712 46.7778 90.3712 46.546 90.7717 46.546C91.1721 46.546 91.1733 46.3148 91.5755 46.3148C91.9778 46.3148 91.9778 46.4283 92.3806 46.4283C92.7835 46.4283 92.7553 46.4229 93.0903 46.6451C93.4187 46.8632 93.1389 46.9451 93.286 47.3095C93.4331 47.6739 93.5994 47.607 93.7465 47.9709C93.8935 48.3347 94.0112 48.2881 94.1583 48.6525C94.3054 49.017 94.2279 49.048 94.3756 49.4131C94.5233 49.7781 94.2484 49.8868 94.3954 50.2513C94.5425 50.6157 94.9844 50.4395 95.1321 50.8045C95.2798 51.1696 94.9622 51.2974 95.1099 51.663C95.2576 52.0287 95.2131 52.0466 95.3608 52.4128C95.4599 52.6584 95.5589 52.8908 95.6424 53.1417C95.7258 53.3926 95.9084 53.6065 95.9756 53.8616C96.0428 54.1167 96.4091 54.3115 96.4595 54.5708C96.5099 54.8301 96.2193 55.1491 96.253 55.4114C96.2866 55.6736 96.3544 55.9276 96.3712 56.1916C96.388 56.4557 96.3592 56.7162 96.3592 56.9802C96.3592 57.3763 96.6858 57.3763 96.6858 57.7724C96.6858 58.1685 96.3844 58.1691 96.3844 58.5658C96.3844 58.9625 96.6582 58.9619 96.6582 59.358C96.6582 59.7541 96.1725 59.7535 96.1725 60.1491C96.1725 60.5446 96.4463 60.5446 96.4463 60.9401C96.4463 61.3356 96.2302 61.3356 96.2302 61.7311C96.2302 62.1266 96.2686 62.1266 96.2686 62.5227C96.2686 62.9188 96.2914 62.9194 96.2914 63.3155C96.2914 63.7116 96.4847 63.7122 96.4847 64.1089C96.4847 64.5056 96.3082 64.505 96.3082 64.9011C96.3082 65.2972 96.5868 65.2972 96.5868 65.6933C96.5868 66.0894 96.702 66.0894 96.702 66.4855C96.702 66.8816 96.1899 66.8822 96.1899 67.2789C96.1899 67.6756 96.4091 67.6756 96.4091 68.0723C96.4091 68.469 96.1593 68.469 96.1593 68.8651C96.1593 69.2612 96.1989 69.2618 96.1989 69.6585C96.1989 70.0552 96.6378 70.0558 96.6378 70.4525C96.6378 70.8492 96.1557 70.8492 96.1557 71.2459C96.1557 71.6426 96.6636 71.6432 96.6636 72.0405C96.6636 72.4378 96.7152 72.4372 96.7152 72.8345C96.7152 73.2318 96.6756 73.2318 96.6756 73.6285C96.6756 74.0252 96.1977 74.0246 96.1977 74.4207C96.1977 74.8168 96.2836 74.8168 96.2836 75.2129C96.2836 75.609 96.3514 75.6102 96.3514 76.0081C96.3514 76.406 96.1761 76.4048 96.1761 76.8021C96.1761 77.1994 96.5519 77.1994 96.5519 77.5967C96.5519 77.994 96.5652 77.9946 96.5652 78.3924C96.5652 78.7903 96.4901 78.7897 96.4901 79.187C96.4901 79.5843 96.6546 79.5855 96.6546 79.9834C96.6546 80.3813 96.6156 80.3825 96.6156 80.781C96.6156 81.1795 96.2908 81.1801 96.2908 81.5786C96.2908 81.8307 96.4049 82.0733 96.3418 82.3063C96.277 82.547 96.0951 82.7227 95.9726 82.9336C95.8483 83.1475 95.6658 83.2729 95.4917 83.4462C95.3176 83.6194 95.3326 84.0448 95.1183 84.1685C94.9064 84.2904 94.5233 83.9869 94.282 84.0514C94.0484 84.1135 93.8695 84.1338 93.6162 84.1338L93.6156 84.1356Z" fill="#408CFF"/>
<mask id="mask0_2973_8702" style="mask-type:luminance" maskUnits="userSpaceOnUse" x="72" y="46" width="25" height="39">
<path d="M93.6156 84.1356C93.2313 84.1356 93.2313 84.144 92.8471 84.144C92.4629 84.144 92.4635 84.3334 92.0799 84.3334C91.6962 84.3334 91.6962 84.644 91.3132 84.644C90.9302 84.644 90.9296 84.141 90.5459 84.141C90.1623 84.141 90.1617 84.2479 89.7775 84.2479C89.3932 84.2479 89.3932 84.1541 89.009 84.1541C88.6248 84.1541 88.6254 84.3621 88.2411 84.3621C87.8569 84.3621 87.8569 84.135 87.4727 84.135C87.0884 84.135 87.0878 84.5855 86.7036 84.5855C86.3194 84.5855 86.3194 84.6369 85.9352 84.6369C85.5509 84.6369 85.5503 84.6853 85.1661 84.6853C84.7819 84.6853 84.7819 84.5885 84.3976 84.5885C84.0134 84.5885 84.0134 84.1344 83.6286 84.1344C83.2437 84.1344 83.2449 84.1386 82.8613 84.1386C82.4777 84.1386 82.4777 84.6715 82.094 84.6715C81.7104 84.6715 81.7092 84.1894 81.3244 84.1894C80.9395 84.1894 80.9401 84.4899 80.5559 84.4899C80.1717 84.4899 80.1711 84.4242 79.7862 84.4242C79.4014 84.4242 79.4008 84.3423 79.016 84.3423C78.6312 84.3423 78.6312 84.4003 78.2463 84.4003C77.8615 84.4003 77.8609 84.4505 77.4749 84.4505C77.0888 84.4505 77.0888 84.5921 76.7022 84.5921C76.3156 84.5921 76.3162 84.6566 75.9295 84.6566C75.6762 84.6566 75.3592 84.6279 75.125 84.5658C74.8831 84.5013 74.8177 83.9827 74.6057 83.8608C74.3908 83.7371 74.1639 83.6834 73.9898 83.5095C73.8157 83.3357 73.3906 83.3237 73.2669 83.1098C73.1444 82.8989 73.4734 82.4927 73.4092 82.2525C73.3468 82.0201 73.3053 81.8325 73.3053 81.5804C73.3053 81.1962 73.2225 81.1962 73.2225 80.8127C73.2225 80.4291 73.3864 80.4291 73.3864 80.0456C73.3864 79.662 73.3852 79.662 73.3852 79.2779C73.3852 78.8937 72.8257 78.8937 72.8257 78.5095C72.8257 78.1254 72.8167 78.1248 72.8167 77.74C72.8167 77.3553 72.8365 77.3553 72.8365 76.9699C72.8365 76.5846 73.1967 76.5852 73.1967 76.201C73.1967 75.8169 73.0574 75.8169 73.0574 75.4327C73.0574 75.0486 72.9866 75.0486 72.9866 74.6638C72.9866 74.2791 73.3552 74.2791 73.3552 73.8937C73.3552 73.5084 73.2273 73.509 73.2273 73.1236C73.2273 72.7383 72.8431 72.7389 72.8431 72.3541C72.8431 71.9694 73.2237 71.9694 73.2237 71.5846C73.2237 71.1999 73.2327 71.1993 73.2327 70.8139C73.2327 70.4286 73.1312 70.4292 73.1312 70.0438C73.1312 69.6585 72.8239 69.6585 72.8239 69.2731C72.8239 68.8878 73.2753 68.8878 73.2753 68.503C73.2753 68.1183 73.0928 68.1177 73.0928 67.7323C73.0928 67.347 72.9932 67.3482 72.9932 66.9634C72.9932 66.5787 72.986 66.5793 72.986 66.1945C72.986 65.8098 73.2651 65.8086 73.2651 65.4232C73.2651 65.0379 73.2909 65.0379 73.2909 64.6531C73.2909 64.2684 73.0286 64.2678 73.0286 63.8819C73.0286 63.4959 73.2561 63.4959 73.2561 63.11C73.2561 62.724 72.8821 62.7246 72.8821 62.3393C72.8821 61.9539 73.2123 61.9527 73.2123 61.5668C73.2123 61.1808 72.8953 61.1796 72.8953 60.7925C72.8953 60.4054 73.2843 60.4054 73.2843 60.0182C73.2843 59.7619 73.0742 59.505 73.0814 59.2493C73.0886 58.9936 73.3156 58.7481 73.3294 58.4924C73.3432 58.2367 73.3936 57.9887 73.4146 57.7336C73.4356 57.4785 73.4284 57.2258 73.4566 56.9713C73.4849 56.7168 73.384 56.4497 73.4194 56.1958C73.4548 55.9419 73.363 55.6689 73.405 55.4161C73.447 55.1634 73.2789 54.8683 73.3282 54.6168C73.3774 54.3653 73.9201 54.2147 73.9753 53.965C74.0306 53.7152 73.6301 53.3568 73.6926 53.1082C73.755 52.8597 74.051 52.6691 74.12 52.4224C74.1891 52.1756 74.1134 51.8835 74.1897 51.6391C74.2659 51.3948 74.7246 51.2741 74.8075 51.0315C74.8903 50.789 74.8279 50.4992 74.9173 50.2591C75.0068 50.0189 74.766 49.6485 74.8621 49.4107C75.014 49.0343 75.092 49.0654 75.2439 48.689C75.3958 48.3126 75.8371 48.4882 75.9896 48.1113C76.1421 47.7343 76.1288 47.7277 76.2813 47.3501C76.4338 46.9725 76.1 46.8501 76.4374 46.6189C76.7664 46.3936 76.7562 46.4916 77.1561 46.4916C77.5559 46.4916 77.5559 46.5902 77.9557 46.5902C78.3556 46.5902 78.3562 46.5537 78.7566 46.5537C79.1571 46.5537 79.1571 46.6493 79.5575 46.6493C79.958 46.6493 79.9573 46.3058 80.3572 46.3058C80.757 46.3058 80.7576 46.2897 81.1575 46.2897C81.5573 46.2897 81.5579 46.2287 81.959 46.2287C82.36 46.2287 82.3594 46.3285 82.7592 46.3285C83.1591 46.3285 83.1597 46.2706 83.5607 46.2706C83.9618 46.2706 83.9612 46.2437 84.3616 46.2437C84.762 46.2437 84.762 46.6003 85.1631 46.6003C85.5641 46.6003 85.5629 46.2162 85.9628 46.2162C86.3626 46.2162 86.3626 46.7198 86.7624 46.7198C87.1623 46.7198 87.1635 46.7133 87.5645 46.7133C87.9656 46.7133 87.965 46.7073 88.3654 46.7073C88.7659 46.7073 88.7665 46.6171 89.1675 46.6171C89.5685 46.6171 89.5691 46.7778 89.9702 46.7778C90.3712 46.7778 90.3712 46.546 90.7717 46.546C91.1721 46.546 91.1733 46.3148 91.5755 46.3148C91.9778 46.3148 91.9778 46.4283 92.3806 46.4283C92.7835 46.4283 92.7553 46.4229 93.0903 46.6451C93.4187 46.8632 93.1389 46.9451 93.286 47.3095C93.4331 47.6739 93.5994 47.607 93.7465 47.9709C93.8935 48.3347 94.0112 48.2881 94.1583 48.6525C94.3054 49.017 94.2279 49.048 94.3756 49.4131C94.5233 49.7781 94.2484 49.8868 94.3954 50.2513C94.5425 50.6157 94.9844 50.4395 95.1321 50.8045C95.2798 51.1696 94.9622 51.2974 95.1099 51.663C95.2576 52.0287 95.2131 52.0466 95.3608 52.4128C95.4599 52.6584 95.5589 52.8908 95.6424 53.1417C95.7258 53.3926 95.9084 53.6065 95.9756 53.8616C96.0428 54.1167 96.4091 54.3115 96.4595 54.5708C96.5099 54.8301 96.2193 55.1491 96.253 55.4114C96.2866 55.6736 96.3544 55.9276 96.3712 56.1916C96.388 56.4557 96.3592 56.7162 96.3592 56.9802C96.3592 57.3763 96.6858 57.3763 96.6858 57.7724C96.6858 58.1685 96.3844 58.1691 96.3844 58.5658C96.3844 58.9625 96.6582 58.9619 96.6582 59.358C96.6582 59.7541 96.1725 59.7535 96.1725 60.1491C96.1725 60.5446 96.4463 60.5446 96.4463 60.9401C96.4463 61.3356 96.2302 61.3356 96.2302 61.7311C96.2302 62.1266 96.2686 62.1266 96.2686 62.5227C96.2686 62.9188 96.2914 62.9194 96.2914 63.3155C96.2914 63.7116 96.4847 63.7122 96.4847 64.1089C96.4847 64.5056 96.3082 64.505 96.3082 64.9011C96.3082 65.2972 96.5868 65.2972 96.5868 65.6933C96.5868 66.0894 96.702 66.0894 96.702 66.4855C96.702 66.8816 96.1899 66.8822 96.1899 67.2789C96.1899 67.6756 96.4091 67.6756 96.4091 68.0723C96.4091 68.469 96.1593 68.469 96.1593 68.8651C96.1593 69.2612 96.1989 69.2618 96.1989 69.6585C96.1989 70.0552 96.6378 70.0558 96.6378 70.4525C96.6378 70.8492 96.1557 70.8492 96.1557 71.2459C96.1557 71.6426 96.6636 71.6432 96.6636 72.0405C96.6636 72.4378 96.7152 72.4372 96.7152 72.8345C96.7152 73.2318 96.6756 73.2318 96.6756 73.6285C96.6756 74.0252 96.1977 74.0246 96.1977 74.4207C96.1977 74.8168 96.2836 74.8168 96.2836 75.2129C96.2836 75.609 96.3514 75.6102 96.3514 76.0081C96.3514 76.406 96.1761 76.4048 96.1761 76.8021C96.1761 77.1994 96.5519 77.1994 96.5519 77.5967C96.5519 77.994 96.5652 77.9946 96.5652 78.3924C96.5652 78.7903 96.4901 78.7897 96.4901 79.187C96.4901 79.5843 96.6546 79.5855 96.6546 79.9834C96.6546 80.3813 96.6156 80.3825 96.6156 80.781C96.6156 81.1795 96.2908 81.1801 96.2908 81.5786C96.2908 81.8307 96.4049 82.0733 96.3418 82.3063C96.277 82.547 96.0951 82.7227 95.9726 82.9336C95.8483 83.1475 95.6658 83.2729 95.4917 83.4462C95.3176 83.6194 95.3326 84.0448 95.1183 84.1685C94.9064 84.2904 94.5233 83.9869 94.282 84.0514C94.0484 84.1135 93.8695 84.1338 93.6162 84.1338L93.6156 84.1356Z" fill="white"/>
</mask>
<g mask="url(#mask0_2973_8702)">
<path d="M97.602 77.9223C97.3193 78.2001 97.3175 78.1756 96.92 78.1756C96.5226 78.1756 96.522 78.031 96.1239 78.031C95.7259 78.031 95.7265 77.9485 95.3291 77.9485C94.9316 77.9485 94.9322 78.2467 94.5348 78.2467C94.1373 78.2467 94.1374 78.1547 93.7399 78.1547C93.3425 78.1547 93.3419 77.7604 92.9438 77.7604C92.5458 77.7604 92.5458 78.2658 92.1484 78.2658C91.7509 78.2658 91.7509 78.2998 91.3535 78.2998C90.956 78.2998 90.9554 78.0011 90.558 78.0011C90.1606 78.0011 90.16 77.7418 89.7613 77.7418C89.3627 77.7418 89.3633 78.077 88.9658 78.077C88.5684 78.077 88.5678 77.8291 88.1692 77.8291C87.7705 77.8291 87.7711 78.1726 87.3731 78.1726C86.975 78.1726 86.975 78.0889 86.5764 78.0889C86.1778 78.0889 86.179 77.8273 85.7815 77.8273C85.3841 77.8273 85.3841 78.0083 84.9866 78.0083C84.5892 78.0083 84.588 78.1051 84.1894 78.1051C83.7907 78.1051 83.7913 78.1105 83.3933 78.1105C82.9952 78.1105 82.9946 77.8082 82.596 77.8082C82.1974 77.8082 82.1968 78.1839 81.7981 78.1839C81.3995 78.1839 81.3995 78.2353 81.0014 78.2353C80.6034 78.2353 80.6022 77.9515 80.203 77.9515C79.8037 77.9515 79.8031 77.9252 79.4033 77.9252C79.0034 77.9252 78.9488 78.2544 78.6618 77.9772C78.3827 77.7072 78.7831 77.6498 78.7831 77.2627C78.7831 76.8755 78.4175 76.8749 78.4175 76.4872C78.4175 76.0995 78.884 76.0989 78.884 75.7105C78.884 75.3222 78.5856 75.3216 78.5856 74.9333C78.5856 74.5449 78.8437 74.5449 78.8437 74.1572C78.8437 73.7695 78.8011 73.7695 78.8011 73.3817C78.8011 72.994 78.3719 72.994 78.3719 72.6057C78.3719 72.2173 78.5712 72.2167 78.5712 71.8284C78.5712 71.44 78.5754 71.44 78.5754 71.0511C78.5754 70.6622 78.8263 70.6628 78.8263 70.2744C78.8263 69.8861 78.7753 69.8861 78.7753 69.4972C78.7753 69.1082 78.4403 69.1082 78.4403 68.7193C78.4403 68.3304 78.3665 68.331 78.3665 67.942C78.3665 67.5531 78.5814 67.5531 78.5814 67.1642C78.5814 66.7752 78.7057 66.7752 78.7057 66.3869C78.7057 65.9986 78.8912 65.998 78.8912 65.609C78.8912 65.2201 78.4907 65.2207 78.4907 64.833C78.4907 64.4452 78.7117 64.4446 78.7117 64.0569C78.7117 63.6692 78.681 63.6674 78.681 63.2784C78.681 62.8895 78.4697 62.8895 78.4697 62.5012C78.4697 62.1128 78.4769 62.1122 78.4769 61.7227C78.4769 61.3332 78.8804 61.3332 78.8804 60.9436C78.8804 60.5541 78.8714 60.5547 78.8714 60.1652C78.8714 59.7757 78.7411 59.7751 78.7411 59.3849C78.7411 58.9948 78.4505 58.9942 78.4505 58.6035C78.4505 58.2128 78.5334 58.3071 78.8125 58.0329C79.0953 57.7551 79.001 58.0694 79.3985 58.0694C79.7959 58.0694 79.7965 57.6111 80.1946 57.6111C80.5926 57.6111 80.592 58.0383 80.9894 58.0383C81.3869 58.0383 81.3863 57.9069 81.7837 57.9069C82.1812 57.9069 82.1812 57.7928 82.5786 57.7928C82.976 57.7928 82.9766 57.8895 83.3747 57.8895C83.7727 57.8895 83.7727 57.8172 84.1702 57.8172C84.5676 57.8172 84.5676 58.11 84.965 58.11C85.3625 58.11 85.3631 58.1172 85.7605 58.1172C86.1579 58.1172 86.1585 57.696 86.5572 57.696C86.9558 57.696 86.9552 57.5478 87.3527 57.5478C87.7501 57.5478 87.7507 57.5771 88.1493 57.5771C88.548 57.5771 88.5474 57.7408 88.9454 57.7408C89.3435 57.7408 89.3435 57.7049 89.7421 57.7049C90.1407 57.7049 90.1395 57.5251 90.537 57.5251C90.9344 57.5251 90.9344 57.9021 91.3319 57.9021C91.7293 57.9021 91.7305 58.0258 92.1291 58.0258C92.5278 58.0258 92.5272 57.8698 92.9252 57.8698C93.3233 57.8698 93.3239 57.8955 93.7225 57.8955C94.1211 57.8955 94.1217 58.0467 94.5204 58.0467C94.919 58.0467 94.919 57.6129 95.3171 57.6129C95.7151 57.6129 95.7163 58.0724 96.1155 58.0724C96.5148 58.0724 96.5154 57.9099 96.9152 57.9099C97.3151 57.9099 97.5594 57.4116 97.8458 57.6888C98.125 57.9588 97.6561 58.2098 97.6561 58.5969C97.6561 58.984 97.8884 58.9846 97.8884 59.3724C97.8884 59.7601 97.6333 59.7607 97.6333 60.1491C97.6333 60.5374 97.6158 60.538 97.6158 60.9263C97.6158 61.3147 97.9809 61.3147 97.9809 61.7024C97.9809 62.0901 97.9532 62.0901 97.9532 62.4779C97.9532 62.8656 97.8296 62.8656 97.8296 63.2539C97.8296 63.6423 97.4598 63.6429 97.4598 64.0312C97.4598 64.4195 97.9995 64.4195 97.9995 64.8085C97.9995 65.1974 97.4405 65.1968 97.4405 65.5852C97.4405 65.9735 97.4886 65.9735 97.4886 66.3624C97.4886 66.7513 97.5918 66.7513 97.5918 67.1403C97.5918 67.5292 97.7197 67.5286 97.7197 67.9176C97.7197 68.3065 97.7293 68.3065 97.7293 68.6954C97.7293 69.0843 97.5012 69.0843 97.5012 69.4727C97.5012 69.861 97.8158 69.8616 97.8158 70.2505C97.8158 70.6395 97.5348 70.6389 97.5348 71.0266C97.5348 71.4144 97.5342 71.415 97.5342 71.8027C97.5342 72.1904 97.8338 72.1922 97.8338 72.5812C97.8338 72.9701 97.6122 72.9701 97.6122 73.3584C97.6122 73.7468 97.8596 73.7474 97.8596 74.1369C97.8596 74.5264 97.7425 74.5264 97.7425 74.9159C97.7425 75.3055 97.4351 75.3049 97.4351 75.6944C97.4351 76.0839 97.6297 76.0845 97.6297 76.4747C97.6297 76.8648 97.5432 76.8857 97.5978 77.2722C97.6483 77.6277 97.8806 77.6486 97.6008 77.9235L97.602 77.9223Z" fill="#CCE4FF"/>
</g>
<path d="M91.8379 46.9773C91.4458 46.9773 91.4458 46.9026 91.0538 46.9026C90.6618 46.9026 90.6624 46.6278 90.2703 46.6278C89.8783 46.6278 89.8783 47.0072 89.4863 47.0072C89.0942 47.0072 89.0936 46.7109 88.7016 46.7109C88.3096 46.7109 88.3096 47.0269 87.9175 47.0269C87.5255 47.0269 87.5249 46.6947 87.1328 46.6947C86.7408 46.6947 86.7408 46.8596 86.3482 46.8596C85.9555 46.8596 85.9555 46.6523 85.5635 46.6523C85.1715 46.6523 85.1721 46.7437 84.7806 46.7437C84.3892 46.7437 84.3892 46.5209 83.9978 46.5209C83.6063 46.5209 83.6051 46.6649 83.2125 46.6649C82.8199 46.6649 82.8205 46.8674 82.4284 46.8674C82.0364 46.8674 82.0358 46.8913 81.6431 46.8913C81.2505 46.8913 81.2499 46.5974 80.8567 46.5974C80.4634 46.5974 80.464 47.0305 80.0714 47.0305C79.6788 47.0305 79.6782 46.5436 79.2843 46.5436C78.8905 46.5436 78.8905 46.7282 78.496 46.7282C78.1016 46.7282 78.1022 47.0735 77.7078 47.0735C77.4124 47.0735 77.1434 46.7228 76.8775 46.6368C76.6013 46.5478 76.2723 46.5412 76.0424 46.3745C75.8106 46.2066 75.4396 46.0865 75.2709 45.8559C75.104 45.6271 75.367 45.1545 75.2775 44.8797C75.1911 44.6145 74.8032 44.3874 74.8032 44.0935C74.8032 43.8605 74.8729 43.8605 74.8729 43.6275C74.8729 43.3336 74.9257 43.0205 75.0121 42.7558C75.1016 42.481 75.1532 42.1297 75.3201 41.9009C75.4888 41.6703 75.8941 41.6285 76.1258 41.4606C76.3558 41.2945 76.6175 41.2228 76.8937 41.1338C77.1602 41.0477 77.413 41.0884 77.7084 41.0884C78.1004 41.0884 78.1004 40.9181 78.4924 40.9181C78.8845 40.9181 78.8839 41.1971 79.2759 41.1971C79.668 41.1971 79.668 40.7263 80.06 40.7263C80.452 40.7263 80.4526 41.0788 80.8447 41.0788C81.2367 41.0788 81.2367 40.7209 81.6287 40.7209C82.0208 40.7209 82.0214 41.1051 82.4134 41.1051C82.8054 41.1051 82.8054 41.1499 83.1981 41.1499C83.5907 41.1499 83.5907 41.1684 83.9828 41.1684C84.3748 41.1684 84.3742 40.6941 84.7656 40.6941C85.1571 40.6941 85.1571 40.9731 85.5485 40.9731C85.9399 40.9731 85.9411 41.1386 86.3338 41.1386C86.7264 41.1386 86.7258 41.1744 87.1178 41.1744C87.5099 41.1744 87.5105 40.902 87.9031 40.902C88.2958 40.902 88.2964 40.9223 88.6896 40.9223C89.0828 40.9223 89.0822 40.6582 89.4749 40.6582C89.8675 40.6582 89.8681 40.6809 90.2619 40.6809C90.6558 40.6809 90.6558 41.0448 91.0502 41.0448C91.4446 41.0448 91.444 40.9826 91.8385 40.9826C92.1339 40.9826 92.3308 41.218 92.5973 41.3041C92.8735 41.3931 93.1773 41.313 93.4072 41.4791C93.639 41.647 93.6936 41.9338 93.8623 42.1644C94.0292 42.3932 94.5737 42.4392 94.6638 42.714C94.7502 42.9793 94.3462 43.3336 94.3462 43.6275C94.3462 43.8605 94.4711 43.8605 94.4711 44.0935C94.4711 44.3874 94.8097 44.7614 94.7232 45.0261C94.6338 45.3009 94.04 45.335 93.8725 45.5638C93.7038 45.7944 93.7548 46.2323 93.5231 46.4002C93.2932 46.5663 92.9041 46.4205 92.628 46.5101C92.3614 46.5962 92.1333 46.9773 91.8379 46.9773Z" fill="#0D3EC7"/>
<path d="M23.3984 51.2693C23.0016 51.3189 23.031 51.7025 22.6312 51.7025C22.2313 51.7025 22.2313 51.4163 21.8321 51.4163C21.4328 51.4163 21.4316 51.4008 21.0312 51.4008C20.6308 51.4008 20.6302 51.6105 20.2291 51.6105C19.8281 51.6105 19.8359 51.491 19.4378 51.4414C19.2938 51.4235 19.4132 51.2406 19.2842 51.1743C19.0806 51.0704 18.6568 51.2825 18.38 51.1361C18.1561 51.0178 17.9856 50.7507 17.7292 50.6097C17.4993 50.4831 17.3006 50.2764 17.0544 50.1354C16.8215 50.0021 16.5381 49.9418 16.2986 49.7984C16.0638 49.658 15.7186 49.6873 15.4851 49.5403C15.2509 49.3928 15.2443 48.9011 15.0192 48.7487C14.7862 48.5916 14.5209 48.5002 14.306 48.3413C14.0754 48.171 13.7062 48.1925 13.5063 48.024C13.2805 47.834 13.3616 47.3657 13.1899 47.1828C13.0068 46.9887 12.6514 46.9612 12.4791 46.7616C12.3049 46.5597 11.9543 46.5 11.791 46.2932C11.6265 46.0841 11.8091 45.6193 11.6548 45.4049C11.4999 45.1892 11.2963 45.0183 11.1517 44.7967C11.007 44.575 10.6299 44.4979 10.4943 44.2703C10.3586 44.0427 10.5081 43.6585 10.382 43.4249C10.2559 43.1913 10.1965 42.9368 10.08 42.6985C9.96354 42.4601 9.42502 42.4195 9.31815 42.1769C9.21189 41.9355 9.49526 41.5317 9.3968 41.2849C9.29894 41.04 8.81865 40.939 8.7286 40.6887C8.63914 40.4413 8.77722 40.1127 8.69558 39.8606C8.61453 39.6103 8.29393 39.4299 8.21949 39.1748C8.14564 38.9226 7.99135 38.6837 7.92351 38.4268C7.85627 38.1729 7.98475 37.8634 7.92351 37.6047C7.86287 37.349 7.64674 37.122 7.59091 36.8621C7.53628 36.6052 7.75721 36.2885 7.70738 36.0269C7.65755 35.7688 7.738 35.4874 7.69237 35.2245C7.64794 34.9658 7.4156 34.7364 7.37478 34.4729C7.33456 34.2136 7.31234 33.949 7.27572 33.6855C7.2397 33.4262 6.99775 33.1908 6.96473 32.9273C6.93171 32.6675 7.30094 32.3574 7.27092 32.0939C7.2415 31.8334 7.27092 31.567 7.2433 31.3023C7.21628 31.0412 6.72819 30.8232 6.70358 30.5585C6.67896 30.2968 6.75821 30.0226 6.736 29.7573C6.71378 29.4951 6.83746 29.219 6.81644 28.9538C6.79603 28.6915 6.77262 28.4274 6.75401 28.1616C6.7354 27.8999 6.85367 27.6281 6.83626 27.3628C6.81885 27.1005 6.60272 26.8496 6.58591 26.5843C6.5691 26.3215 6.65675 26.0508 6.64114 25.785C6.62553 25.5233 6.4172 25.2706 6.40219 25.0059C6.38719 24.7424 6.44602 24.4736 6.43101 24.2077C6.4166 23.9449 6.55349 23.6724 6.53908 23.4066C6.52467 23.1407 6.15905 22.8928 6.14464 22.6239C6.13203 22.3903 6.64534 22.1292 6.63393 21.8944C6.62253 21.6597 6.20047 21.4434 6.19087 21.2086C6.18126 20.9738 6.17166 20.7372 6.16325 20.5024C6.15485 20.2676 6.19327 20.0286 6.18606 19.7938C6.17886 19.5591 6.00596 19.3272 5.99995 19.0937C5.99395 18.8457 6.12723 18.5745 6.16025 18.3337C6.19327 18.0894 6.36197 17.8593 6.43281 17.6257C6.50366 17.3921 6.85607 17.2846 6.96473 17.0642C7.0728 16.8449 6.84046 16.4309 6.98394 16.2301C7.12503 16.0318 7.29913 15.8251 7.47324 15.6476C7.64794 15.4696 8.01957 15.5138 8.21649 15.368C8.41641 15.2199 8.45483 14.8028 8.67336 14.6899C8.89189 14.577 9.14164 14.4318 9.37699 14.3548C9.61113 14.2783 9.92932 14.4533 10.1755 14.4145C10.4174 14.3763 10.6654 14.3153 10.9157 14.3153C11.3192 14.3153 11.3192 14.5471 11.7226 14.5471C12.126 14.5471 12.1254 14.6469 12.5283 14.6469C12.9311 14.6469 12.9323 14.4145 13.3358 14.4145C13.7392 14.4145 13.7404 14.0961 14.1445 14.0961C14.5485 14.0961 14.8583 13.8858 15.1459 14.169C15.4304 14.4486 14.7166 14.761 14.7166 15.1583C14.7166 15.5556 15.0954 15.5568 15.0954 15.9553C15.0954 16.3538 15.2341 16.4679 14.9495 16.7487C14.6632 17.0313 14.5497 16.8359 14.1463 16.8359C13.7428 16.8359 13.7434 16.7146 13.3406 16.7146C12.9377 16.7146 12.9365 16.8491 12.5331 16.8491C12.1296 16.8491 12.1284 16.4667 11.7244 16.4667C11.3204 16.4667 11.3198 16.4954 10.9157 16.4954C10.6095 16.4954 10.427 17.0803 10.1539 17.1944C9.88069 17.3085 9.60752 17.2972 9.3944 17.5146C9.18247 17.7303 8.68057 17.7954 8.5731 18.0667C8.46564 18.3379 8.7316 18.728 8.7388 19.0291C8.74541 19.3153 8.3978 19.6128 8.4068 19.9008C8.41581 20.1888 8.64815 20.4696 8.65955 20.7575C8.67096 21.0455 8.69377 21.334 8.70698 21.6214C8.72019 21.9088 8.50766 22.2093 8.52327 22.4961C8.53768 22.7625 9.08341 22.9979 9.09842 23.2596C9.11343 23.526 8.8985 23.8027 8.91351 24.0637C8.92852 24.3302 9.0612 24.5871 9.07681 24.8482C9.09241 25.1146 9.02337 25.3829 9.03958 25.644C9.05579 25.9104 9.11343 26.1709 9.13024 26.4314C9.14765 26.6973 8.84807 26.9816 8.86608 27.2421C8.88469 27.508 9.20168 27.7499 9.22089 28.0104C9.2407 28.2763 9.27432 28.5374 9.29534 28.7973C9.31635 29.0631 9.01617 29.3529 9.03838 29.6128C9.0612 29.8786 9.11883 30.1403 9.14345 30.3996C9.16866 30.6654 9.58351 30.8901 9.61053 31.1494C9.63814 31.4152 9.38839 31.7068 9.41841 31.9655C9.44843 32.2307 9.62193 32.4763 9.65435 32.735C9.68797 33.0002 9.57871 33.2804 9.61473 33.5385C9.65195 33.8038 9.48025 34.0989 9.52047 34.3564C9.5619 34.6205 9.93892 34.8284 9.98335 35.0853C10.029 35.3482 10.1695 35.5889 10.2193 35.844C10.2703 36.1057 9.93172 36.4457 9.98755 36.7002C10.0446 36.9607 10.4829 37.1321 10.5453 37.3854C10.6089 37.6447 10.6786 37.8951 10.7482 38.1466C10.8197 38.4035 10.5603 38.7554 10.6383 39.0045C10.7176 39.259 10.9986 39.4484 11.085 39.6945C11.1733 39.9455 11.5521 40.0811 11.6482 40.3242C11.746 40.571 11.7004 40.8655 11.8066 41.1045C11.9141 41.3465 11.6662 41.7563 11.7826 41.9911C11.9009 42.2277 12.2011 42.3764 12.3296 42.6059C12.4586 42.8365 12.5013 43.1232 12.6406 43.3461C12.7798 43.5689 13.1887 43.6179 13.3394 43.8342C13.4901 44.0505 13.4727 44.3856 13.6341 44.5947C13.7944 44.802 13.9716 45.0028 14.1439 45.2041C14.3144 45.4031 14.5905 45.5094 14.773 45.703C14.9195 45.8577 15.0774 46.0662 15.3188 46.258C15.5043 46.4056 15.8663 46.3488 16.1004 46.5137C16.3016 46.6547 16.2031 47.2671 16.436 47.4182C16.6462 47.5544 16.9109 47.6399 17.1439 47.7821C17.3606 47.9147 17.7718 47.7426 18.006 47.8789C18.2269 48.0073 18.2912 48.4219 18.5253 48.5528C18.7504 48.6788 19.1383 48.5229 19.3742 48.6495C19.6029 48.772 19.7356 49.2751 19.9728 49.3975C20.324 49.4429 20.3606 49.1132 20.7148 49.1132C21.069 49.1132 21.0696 49.2787 21.4244 49.2787C21.7793 49.2787 21.7805 49.437 22.1365 49.437C22.4925 49.437 22.4637 48.9411 22.8161 48.8951C23.0526 48.7726 23.2213 48.7177 23.4495 48.5952C23.6854 48.4685 24.0961 48.6681 24.3212 48.5426C24.5559 48.4118 24.652 48.0503 24.8729 47.9213C25.1071 47.7851 25.4325 47.8149 25.6492 47.6823C25.8833 47.5389 25.935 47.1315 26.1463 46.9946C26.3792 46.8435 26.7629 46.9433 26.964 46.8023C27.1981 46.638 27.3044 46.3428 27.4899 46.1959C27.7306 46.0047 28.0903 46.0011 28.2361 45.8464C28.4193 45.6522 28.6948 45.5309 28.8653 45.3314C29.0382 45.1294 28.7669 44.5726 28.9278 44.3641C29.0899 44.1544 29.5653 44.1795 29.716 43.9638C29.8667 43.7482 30.1417 43.6006 30.2816 43.3771C30.4215 43.1537 30.5397 42.904 30.6688 42.6734C30.7973 42.444 30.4563 41.9702 30.5746 41.733C30.6916 41.4982 31.1059 41.4068 31.2133 41.1642C31.3196 40.9253 31.5681 40.7377 31.6654 40.4909C31.7615 40.2478 31.8407 39.9885 31.9284 39.7376C32.0148 39.4914 32.0334 39.2148 32.1127 38.9603C32.1901 38.7112 31.8737 38.3473 31.9446 38.0904C32.0142 37.8389 32.3414 37.6561 32.4051 37.3968C32.4675 37.1441 32.7995 36.9469 32.8571 36.6864C32.913 36.4319 33.0018 36.175 33.0528 35.9133C33.1027 35.6582 33.0174 35.3703 33.063 35.1074C33.1075 34.8511 32.7923 34.5333 32.8337 34.2698C32.8739 34.0129 33.2732 33.8056 33.3104 33.5415C33.3464 33.284 33.1801 32.9955 33.2131 32.7308C33.2456 32.4727 33.2185 32.205 33.2486 31.9398C33.278 31.6817 33.3452 31.4254 33.3728 31.1613C33.3993 30.9026 33.2744 30.6272 33.2996 30.3619C33.3242 30.1027 33.5992 29.8631 33.622 29.5972C33.6442 29.3373 33.628 29.0709 33.649 28.805C33.6694 28.5451 33.4785 28.2661 33.4983 28.0003C33.5175 27.7398 33.8213 27.4972 33.8399 27.2314C33.8579 26.9721 33.8946 26.7104 33.912 26.4451C33.9288 26.1847 33.8351 25.914 33.8513 25.6482C33.8675 25.3871 34.1857 25.1403 34.2013 24.8739C34.2169 24.6134 33.7361 24.3224 33.7511 24.0566C33.7661 23.7943 33.9972 23.5422 34.0122 23.2745C34.0266 23.0123 33.8705 22.738 33.8849 22.471C33.9006 22.1848 34.1533 21.91 34.1671 21.6226C34.1809 21.3352 33.984 21.0389 33.9948 20.7515C34.0056 20.4642 34.4445 20.1888 34.4535 19.9014C34.4625 19.614 34.0032 19.3135 34.0098 19.0273C34.017 18.7256 34.0266 18.4819 33.9192 18.21C33.8117 17.9382 33.9078 17.5033 33.6958 17.2876C33.4821 17.0701 33.0036 17.2416 32.7304 17.1275C32.4573 17.0134 32.246 16.4864 31.9404 16.4864C31.5369 16.4864 31.5369 16.8138 31.1335 16.8138C30.73 16.8138 30.7306 16.8162 30.3278 16.8162C29.925 16.8162 29.9238 16.8007 29.5203 16.8007C29.1169 16.8007 29.1157 16.6657 28.7116 16.6657C28.3076 16.6657 28.3382 16.8867 28.0506 16.6035C27.7661 16.3239 27.7631 16.3544 27.7631 15.9565C27.7631 15.5586 28.1893 15.558 28.1893 15.1595C28.1893 14.761 27.5709 14.5949 27.8549 14.3141C28.1413 14.0316 28.3064 14.5483 28.7098 14.5483C29.1133 14.5483 29.1127 14.3912 29.5155 14.3912C29.9184 14.3912 29.9196 14.3309 30.323 14.3309C30.7264 14.3309 30.7276 14.0829 31.1317 14.0829C31.5357 14.0829 31.5363 14.635 31.9404 14.635C32.1907 14.635 32.3984 14.6284 32.6404 14.6666C32.8865 14.7055 33.2077 14.3912 33.4419 14.4677C33.6772 14.5448 33.8867 14.7222 34.1065 14.8363C34.3262 14.9504 34.6714 14.9116 34.8707 15.0591C35.0677 15.2049 35.0508 15.6219 35.2262 15.8C35.4003 15.9774 35.8475 15.9499 35.9886 16.1483C36.1321 16.3496 35.7917 16.8413 35.8998 17.0606C36.0084 17.281 36.5668 17.3264 36.6382 17.5612C36.7096 17.796 36.6202 18.0947 36.6532 18.3397C36.6856 18.5805 36.6358 18.8403 36.6304 19.0883C36.625 19.3219 36.3062 19.5471 36.299 19.7819C36.2918 20.0167 36.5794 20.2599 36.571 20.4952C36.5626 20.7306 36.4845 20.9624 36.4749 21.1978C36.4653 21.4332 36.6202 21.6764 36.6088 21.9112C36.5974 22.146 36.3638 22.37 36.3506 22.6036C36.3362 22.8695 36.1405 23.124 36.1261 23.3868C36.1117 23.6527 36.6262 23.946 36.6118 24.2089C36.5968 24.4748 36.4995 24.7347 36.4845 24.9975C36.4695 25.2634 36.5019 25.5305 36.4863 25.7933C36.4707 26.0592 36.1957 26.3077 36.1795 26.57C36.1627 26.8353 36.0036 27.0898 35.9856 27.352C35.9676 27.6173 36.1009 27.8915 36.0817 28.1538C36.0625 28.4209 36.1075 28.6909 36.0871 28.9538C36.0661 29.2202 35.8301 29.4676 35.8079 29.7305C35.7851 29.9969 36.0853 30.2897 36.0607 30.5525C36.036 30.8184 36.1585 31.0992 36.1315 31.3615C36.1039 31.6267 36.0739 31.8938 36.0438 32.1555C36.0138 32.4207 35.8721 32.6734 35.8391 32.9345C35.8055 33.1992 35.5407 33.4322 35.5041 33.6927C35.4669 33.9567 35.4225 34.2166 35.3816 34.4765C35.3408 34.7394 35.3768 35.013 35.3324 35.2723C35.2868 35.5346 35.4789 35.8405 35.4297 36.0986C35.3792 36.3596 35.2748 36.6129 35.2195 36.8698C35.1637 37.1297 34.7459 37.3078 34.6852 37.5629C34.6234 37.8216 34.7429 38.1221 34.6756 38.3754C34.6078 38.6323 34.6474 38.9197 34.573 39.1718C34.4979 39.4269 34.5399 39.7226 34.4583 39.9723C34.376 40.2251 34.1467 40.4324 34.0572 40.6797C33.9672 40.9294 33.6748 41.1021 33.577 41.3465C33.4785 41.5926 33.5571 41.9122 33.4509 42.153C33.3434 42.3956 33.2071 42.6274 33.0913 42.864C32.9754 43.1005 32.5708 43.189 32.4453 43.4214C32.3198 43.6538 32.4039 43.9985 32.2688 44.2255C32.1337 44.4525 31.9938 44.6766 31.8485 44.8982C31.7032 45.1199 31.5513 45.335 31.397 45.55C31.2434 45.7639 30.8927 45.8255 30.7288 46.034C30.5655 46.2407 30.5049 46.5227 30.3314 46.724C30.1597 46.9229 29.8547 46.9934 29.6716 47.187C29.4993 47.3698 29.5419 47.7946 29.3162 47.9852C29.1169 48.1531 28.998 48.4608 28.7675 48.631C28.5531 48.7893 28.316 48.9477 28.0837 49.1048C27.8591 49.2565 27.6202 49.4071 27.3866 49.5547C27.1531 49.7022 26.9093 49.8414 26.6752 49.9812C26.4357 50.1246 26.1499 50.1909 25.9163 50.3242C25.669 50.4658 25.3844 50.5255 25.1539 50.6522C24.8969 50.7932 24.5523 50.7358 24.3284 50.8547C24.051 51.0017 23.8961 51.2639 23.692 51.3685C23.5287 51.3482 23.5413 51.2508 23.3972 51.2687L23.3984 51.2693Z" fill="#5B1DB8"/>
<path d="M14.8403 17.0588C15.1945 17.186 15.048 17.5905 15.4022 17.7178C15.7565 17.845 15.8039 17.7178 16.1593 17.8456C16.5147 17.9735 16.4475 18.1593 16.8023 18.2871C17.0863 18.3893 17.2868 17.8761 17.5077 17.7219C17.7286 17.5678 18.2366 17.5547 18.2366 17.2541C18.2366 16.8312 18.0745 16.8312 18.0745 16.4082C18.0745 15.9852 17.9568 15.984 17.9568 15.5598C17.9568 15.1356 18.2281 15.135 18.2281 14.7102C18.2281 14.2855 18.3218 14.2855 18.3218 13.8607C18.3218 13.5602 17.949 13.2346 17.728 13.0804C17.5071 12.9263 17.2015 13.0416 16.9176 13.1438C16.5633 13.271 16.5928 13.3529 16.2386 13.4801C15.8843 13.6074 15.8843 13.6116 15.5295 13.7394C15.1747 13.8673 15.0096 13.4138 14.6542 13.5417C14.309 13.6659 14.0652 14.261 14.0652 14.626C14.0652 15.0908 14.3066 15.0908 14.3066 15.5562C14.3066 16.0216 13.8779 16.021 13.8779 16.4864C13.8779 16.8515 14.4957 16.9333 14.8409 17.0576L14.8403 17.0588Z" fill="#E2C2FF"/>
<path d="M28.0255 17.0821C27.6713 17.2093 27.8406 17.6753 27.4864 17.8032C27.1322 17.931 27.0649 17.7488 26.7095 17.8767C26.3541 18.0045 26.2406 17.6927 25.8858 17.8205C25.6018 17.9227 25.2734 18.2985 25.0525 18.1443C24.8316 17.9902 24.6064 17.5547 24.6064 17.2541C24.6064 16.8312 24.9517 16.8312 24.9517 16.4082C24.9517 15.9852 24.849 15.984 24.849 15.5598C24.849 15.1356 24.6773 15.135 24.6773 14.7102C24.6773 14.2855 24.8208 14.2855 24.8208 13.8607C24.8208 13.5602 25.0225 13.3953 25.2428 13.2411C25.4632 13.087 25.6223 13.1354 25.9062 13.2376C26.2604 13.3648 26.3403 13.1456 26.6945 13.2734C27.0487 13.4013 27.0595 13.3744 27.4149 13.5022C27.7703 13.6301 27.7517 13.6809 28.1072 13.8087C28.4524 13.933 28.7958 14.2622 28.7958 14.6272C28.7958 15.092 28.875 15.092 28.875 15.5574C28.875 16.0228 28.7519 16.0222 28.7519 16.4876C28.7519 16.8527 28.3707 16.9578 28.0255 17.0821Z" fill="#E2C2FF"/>
<path d="M37.2129 82.2059C36.8569 82.0249 36.8466 82.0344 36.5621 81.7554C36.2775 81.4764 36.4642 81.2864 36.179 81.0062C35.8939 80.726 35.4934 81.026 35.3013 80.6759C35.4706 80.505 35.9677 80.3461 36.149 80.1376C36.3111 79.9518 36.1376 79.4798 36.3027 79.2641C36.454 79.0664 36.9289 79.0891 37.0778 78.8662C37.2171 78.6571 37.031 78.2407 37.1642 78.0095C37.2903 77.7902 37.3672 77.556 37.4836 77.317C37.5947 77.0894 37.9585 76.9765 38.0576 76.731C38.153 76.495 38.1404 76.2166 38.2221 75.9644C38.3007 75.7219 38.5096 75.5122 38.5727 75.2547C38.6345 75.0026 38.7888 74.7708 38.8374 74.5258C38.8879 74.2707 38.5397 73.9559 38.5751 73.7091C38.6123 73.4516 38.7372 73.221 38.7582 72.9725C38.7804 72.7138 39.1821 72.476 39.1863 72.2275C39.1911 71.9682 38.79 71.7179 38.7762 71.4699C38.7618 71.2106 38.8885 70.949 38.8537 70.7028C38.817 70.4459 38.8633 70.1729 38.8044 69.9309C38.7432 69.68 38.6045 69.4488 38.5199 69.214C38.4322 68.972 38.5283 68.6363 38.4154 68.4122C38.3001 68.1834 38.1338 67.9516 37.9921 67.7425C37.8499 67.5316 37.5839 67.3882 37.4152 67.1976C37.2471 67.0082 37.0484 66.8398 36.8671 66.6803C36.6773 66.5136 36.3285 66.5638 36.1292 66.4269C35.9203 66.283 35.748 66.1193 35.5349 66.0051C35.3103 65.8845 35.0534 65.8857 34.8318 65.7937C34.5935 65.6951 34.4038 65.5391 34.1774 65.4686C33.9241 65.3898 33.7806 64.9363 33.5549 64.8867C33.2817 64.827 32.9725 65.0785 32.7618 65.051C32.3415 64.9955 32.0714 65.2261 32.0335 65.2261C31.7742 65.2255 31.5533 65.2183 31.3101 65.2452C31.0544 65.2739 30.7122 64.7804 30.4726 64.836C30.2247 64.8939 30.0602 65.2751 29.8266 65.3581C29.5889 65.4424 29.2863 65.382 29.06 65.4878C28.8336 65.5935 28.764 66.0016 28.5448 66.1252C28.3275 66.2477 28.1168 66.3642 27.9043 66.4992C27.6941 66.6331 27.5362 66.8356 27.3279 66.9784C27.1226 67.1188 26.6963 66.9455 26.4898 67.0907C26.2893 67.2311 26.0888 67.3757 25.8816 67.5179C25.6787 67.6571 25.6241 68.0233 25.4134 68.1589C25.2056 68.2921 24.8274 68.1505 24.6107 68.2754C24.397 68.3985 24.3039 68.745 24.0794 68.8555C23.8578 68.9643 23.6999 69.2576 23.467 69.3496C23.2377 69.4398 22.9309 69.3735 22.6895 69.4434C22.4536 69.5115 22.2146 69.6597 21.9655 69.7045C21.7253 69.7475 21.4324 69.4589 21.1784 69.4769C20.9359 69.4936 20.6867 69.8204 20.431 69.8114C20.189 69.8025 19.9417 69.6179 19.6871 69.5826C19.4194 69.5456 19.1174 69.6597 18.8634 69.6023C18.5999 69.5432 18.3141 69.5002 18.0661 69.4195C17.811 69.3365 17.6063 69.0837 17.3673 68.978C17.123 68.8699 16.9489 68.6249 16.7219 68.4935C16.492 68.3602 16.2957 68.1918 16.0843 68.0346C15.873 67.8775 15.5092 67.8901 15.3165 67.7084C15.2937 67.6869 15.0565 67.4521 14.7545 67.0698C14.6075 66.8834 14.8068 66.4072 14.6375 66.1438C14.4994 65.9287 14.3127 65.7423 14.1776 65.4788C14.0575 65.2452 13.5934 65.152 13.4872 64.8832C13.3893 64.6352 13.4121 64.3245 13.3353 64.0479C13.2662 63.7994 13.2476 63.5312 13.2194 63.2641C13.1924 63.0096 13.3401 62.7509 13.3491 62.4809C13.3575 62.2257 12.9853 61.9222 13.0255 61.6546C13.0633 61.4019 13.2398 61.1504 13.3053 60.8881C13.3671 60.6401 13.4992 60.3964 13.585 60.1401C13.6667 59.8969 13.7423 59.6388 13.8444 59.3897C13.9417 59.1525 14.1716 58.9655 14.2881 58.723C14.3991 58.4912 14.5438 58.2731 14.6717 58.0371C14.7948 57.8107 15.0241 57.6452 15.1622 57.4152C15.2955 57.1941 15.0955 56.7592 15.242 56.5351C15.3837 56.3189 15.8406 56.3081 15.9955 56.0895C16.145 55.878 16.3599 55.7161 16.5214 55.5028C16.6781 55.2955 16.4794 54.8091 16.6469 54.6006C16.8102 54.3981 17.0281 54.229 17.2016 54.0253C17.3703 53.827 17.8734 53.9154 18.0517 53.7164C18.2258 53.5223 18.3387 53.2767 18.5218 53.0825C18.7007 52.8926 18.8364 52.6625 19.0237 52.4726C19.2068 52.2868 19.2248 51.9325 19.4158 51.7473C19.6037 51.565 19.8798 51.4695 20.0749 51.2878C20.2665 51.1092 20.6099 51.0961 20.8086 50.918C21.0043 50.743 20.9959 50.3379 21.1982 50.1641C21.3969 49.9926 21.5939 49.9591 21.7992 49.7889C22.139 49.998 22.1684 49.9591 22.4242 50.265C22.6799 50.5709 22.4938 50.7262 22.7502 51.0327C23.0065 51.3392 23.0245 51.2562 23.1734 51.6266C22.9729 51.7933 22.9333 51.8064 22.7406 51.9725C22.543 52.1428 22.4254 52.3991 22.2356 52.5687C22.0411 52.7432 22.0339 53.1094 21.8484 53.2833C21.6575 53.4619 21.146 53.3012 20.9641 53.4786C20.7774 53.6615 20.8062 54.0534 20.6291 54.235C20.446 54.422 20.3073 54.6401 20.135 54.8259C19.9567 55.0176 19.8192 55.2339 19.6523 55.4233C19.4788 55.6199 19.3257 55.8188 19.1642 56.0124C18.9961 56.2137 18.7169 56.3135 18.562 56.5112C18.3993 56.7186 18.3819 57.0203 18.233 57.2228C18.0769 57.4355 17.7497 57.5155 17.6087 57.7234C17.4604 57.9427 17.096 58.0204 16.9645 58.2331C16.8246 58.4583 17.0137 58.8687 16.893 59.0862C16.764 59.3186 16.6877 59.5582 16.5796 59.7804C16.4632 60.0212 16.1294 60.152 16.0369 60.3797C15.9361 60.63 15.9937 60.9239 15.9222 61.1569C15.843 61.4168 15.6833 61.6403 15.6407 61.8768C15.592 62.1475 15.6599 62.408 15.6581 62.6446C15.6563 62.9218 15.6533 63.1673 15.7157 63.3937C15.7824 63.6333 15.7061 63.9201 15.7944 64.1298C15.8922 64.3634 16.3671 64.3909 16.4764 64.5832C16.6091 64.8174 16.5328 65.1341 16.6541 65.3002C16.9068 65.6467 16.9387 66.0028 16.9429 66.0069C17.1506 66.2029 17.6399 66.0177 17.8584 66.1587C18.101 66.3152 18.1628 66.7591 18.3981 66.8601C18.6749 66.9784 19.0621 66.6683 19.2975 66.7292C19.6481 66.8206 19.863 67.1158 20.0269 67.1385C20.3079 67.1773 20.5781 67.4247 20.8368 67.4181C21.1148 67.4109 21.4306 67.4372 21.6893 67.384C21.9547 67.3297 22.2387 67.2006 22.4908 67.1044C22.7394 67.01 23.0407 66.9467 23.2833 66.8189C23.5156 66.697 23.7281 66.4897 23.9611 66.3433C24.1832 66.2035 24.2907 65.8695 24.5194 65.713C24.7362 65.5648 24.7884 65.1717 25.0153 65.0128C25.217 64.8718 25.5809 64.9531 25.7898 64.8103C25.9939 64.6705 26.2977 64.6782 26.5102 64.5414C26.7179 64.4076 26.9635 64.3443 27.1814 64.217C27.3952 64.0921 27.4312 63.6477 27.6557 63.5323C27.876 63.4194 28.211 63.5413 28.4434 63.4409C28.6703 63.343 28.8907 63.2438 29.1302 63.1607C29.3637 63.0801 29.5312 62.7652 29.778 62.7025C30.0157 62.6416 30.3453 63.0215 30.5969 62.9797C30.8394 62.9397 31.0225 62.4044 31.2783 62.3841C31.5226 62.365 31.7892 62.7551 32.0468 62.7563C32.1482 62.7569 32.4154 62.7234 32.8242 62.7688C33.0506 62.7939 33.3363 62.6559 33.6299 62.7097C33.8707 62.7539 34.1396 62.7844 34.414 62.8549C34.6583 62.9176 34.9459 62.9092 35.2089 62.9976C35.452 63.0795 35.712 63.1745 35.9647 63.2814C36.2025 63.3818 36.3982 63.6046 36.6389 63.7301C36.8689 63.8502 37.0436 64.073 37.2723 64.2182C37.4914 64.358 37.8673 64.2953 38.0816 64.4602C38.2875 64.6191 38.3283 64.9877 38.5265 65.1717C38.7168 65.3492 38.7702 65.6455 38.9497 65.8486C39.11 66.0296 39.2979 66.1796 39.4552 66.3941C39.5993 66.5912 40.1492 66.5393 40.2855 66.7663C40.4116 66.9766 40.5227 67.2347 40.6373 67.4719C40.7448 67.6935 40.4968 68.0836 40.5905 68.3292C40.6782 68.5598 40.8336 68.7701 40.9063 69.0228C40.9747 69.26 41.0144 69.5085 41.0666 69.7654C41.1158 70.0074 41.4682 70.2141 41.5018 70.474C41.5337 70.7183 41.117 71.0147 41.1332 71.2757C41.1482 71.5219 41.5433 71.7651 41.5427 72.0261C41.5427 72.2735 41.5169 72.5387 41.5018 72.7998C41.4874 73.0472 41.2557 73.2879 41.2269 73.5484C41.1999 73.7946 40.9321 74.0084 40.8913 74.2665C40.8523 74.5127 40.9933 74.7899 40.9411 75.0468C40.8913 75.2911 41.1494 75.6144 41.087 75.8689C41.0276 76.1114 40.9117 76.3522 40.8385 76.5918C40.7652 76.8313 40.5299 77.0225 40.4434 77.2573C40.357 77.4921 40.3005 77.7424 40.2009 77.9718C40.1012 78.2013 39.8797 78.3751 39.7674 78.5992C39.6551 78.8232 39.8358 79.2091 39.711 79.4266C39.5861 79.6441 38.9509 79.5527 38.8146 79.7636C38.6784 79.9745 38.8915 80.4142 38.7444 80.6173C38.5985 80.8198 38.3728 80.9686 38.2149 81.164C38.0582 81.3587 37.9039 81.5595 37.7364 81.7471C37.5701 81.9335 37.3858 82.0285 37.2087 82.2071L37.2129 82.2059Z" fill="#5B1DB8"/>
<path d="M26.5851 83.9337C26.6193 83.6666 27.0059 83.4587 27.0726 83.2054C27.141 82.9461 27.057 82.6366 27.1566 82.3935C27.2581 82.1461 27.2101 81.7984 27.3415 81.5696C27.4742 81.3384 27.7942 81.1986 27.9551 80.9883C28.1172 80.7768 28.2949 80.5593 28.4822 80.3718C28.6695 80.1842 28.9979 80.1465 29.2081 79.9846C29.4182 79.8227 29.5281 79.5025 29.7586 79.3681C29.9891 79.2336 30.1807 78.9624 30.4268 78.859C30.6711 78.7569 31.0794 79.092 31.3375 79.0221C31.5927 78.9528 31.777 78.4898 32.043 78.454C32.3047 78.4187 32.6049 78.5077 32.8745 78.5065C33.1374 78.5054 33.3794 78.8662 33.6471 78.9003C33.9149 78.9343 34.1574 78.9582 34.412 79.0245C34.6726 79.0926 35.0484 78.8166 35.2927 78.9158C35.5413 79.0168 35.5749 79.5473 35.8048 79.6781C36.0372 79.8102 36.5145 79.5688 36.7252 79.7289C36.9377 79.8902 37.1971 80.0444 37.3862 80.2308C37.5753 80.4172 37.469 80.8778 37.6323 81.0869C37.7956 81.296 38.1312 81.3892 38.2657 81.6186C38.4002 81.848 38.435 82.1342 38.5383 82.3791C38.6409 82.6223 38.6151 82.9049 38.686 83.1618C38.7556 83.4157 38.7754 83.6654 38.8114 83.9301C38.8469 84.1906 38.809 84.4367 38.8096 84.7044C38.8109 84.9661 38.9393 85.2236 38.9051 85.49C38.8709 85.7565 38.8667 86.0223 38.8 86.2756C38.7316 86.5349 38.6235 86.7757 38.5239 87.0189C38.4224 87.2662 38.2171 87.4496 38.0856 87.6784C37.9529 87.9096 37.8197 88.1193 37.6594 88.3296C37.4973 88.5411 37.2619 88.6576 37.0746 88.8452C36.8873 89.0328 36.8831 89.4122 36.6724 89.5741C36.4616 89.736 36.2371 89.8907 36.0066 90.0246C35.776 90.1584 35.5581 90.3406 35.3119 90.4434C35.0676 90.5455 34.8256 90.7295 34.5675 90.8C34.3123 90.8693 33.9833 90.6351 33.7174 90.671C33.4556 90.7062 33.2017 90.9942 32.9327 90.9948C32.6698 90.996 32.3996 90.8186 32.1312 90.7851C31.8629 90.7517 31.6029 90.6806 31.3484 90.6142C31.0878 90.5461 30.829 90.475 30.5847 90.3759C30.3361 90.2749 30.009 90.3048 29.779 90.1739C29.5467 90.0419 29.4308 89.7145 29.2201 89.5544C29.0075 89.3931 28.8178 89.2109 28.6293 89.0245C28.4408 88.8381 28.2715 88.6379 28.1082 88.4282C27.9449 88.2185 27.6711 88.0775 27.5361 87.8481C27.401 87.6187 27.2455 87.3827 27.1416 87.1377C27.039 86.8946 26.9525 86.6239 26.8823 86.3671C26.8126 86.1131 26.8697 85.8204 26.833 85.5557C26.7976 85.2952 26.9873 85.0276 26.9861 84.7593C26.9849 84.4977 26.5503 84.2001 26.5839 83.9337H26.5851Z" fill="#E2C2FF"/>
</g>
<defs>
<clipPath id="clip0_2973_8702">
<rect width="92" height="78" fill="white" transform="translate(6 13)"/>
</clipPath>
</defs>
</svg>
