<svg width="104" height="104" viewBox="0 0 104 104" fill="none" xmlns="http://www.w3.org/2000/svg">
<g clip-path="url(#clip0_2973_8746)">
<path d="M77.4294 78.3397C77.4294 78.5218 77.45 78.6419 77.343 78.8193C77.2549 78.9652 77.3107 79.2588 77.1532 79.4003C77.0244 79.5165 76.7761 79.5165 76.6028 79.6296C76.4544 79.7266 76.3017 79.8389 76.1219 79.9332C75.9626 80.0167 75.7409 79.9839 75.558 80.0656C75.3921 80.1394 75.3402 80.5121 75.1552 80.5841C74.9849 80.6505 74.6834 80.3827 74.497 80.4474C74.3233 80.5077 74.243 80.8694 74.0558 80.9284C73.8799 80.9838 73.6996 81.0564 73.5124 81.1105C73.3348 81.1621 73.1344 81.1621 72.9468 81.2123C72.7674 81.2604 72.557 81.2092 72.3685 81.2556C72.1878 81.3001 72.0228 81.4312 71.8343 81.4748C71.6527 81.5168 71.4013 81.2599 71.2119 81.3005C71.0295 81.3403 70.8558 81.4272 70.6664 81.4661C70.4831 81.5032 70.3024 81.5626 70.113 81.5989C69.9288 81.6343 69.728 81.5823 69.5382 81.6168C69.3535 81.65 69.2226 82.0012 69.0332 82.0336C68.8481 82.065 68.626 81.889 68.4361 81.9195C68.2507 81.9497 68.07 82.02 67.8801 82.0493C67.6942 82.0777 67.4947 82.0248 67.3049 82.0523C67.1185 82.0794 66.9326 82.1148 66.7423 82.141C66.556 82.1668 66.3727 82.2258 66.1824 82.2507C65.996 82.2751 65.8371 82.525 65.6473 82.5486C65.4609 82.5717 65.2759 82.6312 65.086 82.6534C64.8992 82.6753 64.6884 82.508 64.4986 82.5289C64.3113 82.5499 64.1359 82.6945 63.9456 82.7146C63.7579 82.7347 63.5764 82.8299 63.3861 82.8491C63.1984 82.8679 63.0003 82.8046 62.81 82.8225C62.6219 82.8404 62.4059 82.563 62.2151 82.58C62.027 82.5971 61.8437 82.6788 61.653 82.6949C61.4644 82.7111 61.296 82.9819 61.1053 82.9972C60.9167 83.0125 60.709 82.7972 60.5178 82.8116C60.3288 82.826 60.149 82.9723 59.9579 82.9859C59.7689 82.9994 59.5646 82.7989 59.3735 82.8116C59.1854 82.8238 59.0147 83.1248 58.8244 83.1366C58.6359 83.1484 58.4395 83.0505 58.2492 83.0614C58.0602 83.0724 57.8769 83.1995 57.6862 83.2095C57.4972 83.2196 57.2969 83.0243 57.1062 83.0339C56.9167 83.0431 56.726 83.0317 56.5353 83.0405C56.3459 83.0492 56.1617 83.1982 55.9705 83.206C55.7807 83.2139 55.5886 83.1803 55.3975 83.1873C55.2085 83.1942 55.0226 83.3118 54.8319 83.3183C54.6424 83.3244 54.4504 83.2803 54.2597 83.2855C54.0698 83.2912 53.8839 83.4686 53.6927 83.4738C53.5029 83.4786 53.3109 83.4681 53.1197 83.4725C52.9285 83.4769 52.7304 83.0802 52.5392 83.0837C52.3494 83.0872 52.1617 83.2336 51.9706 83.2362C51.7794 83.2388 51.5887 83.1711 51.3971 83.1733C51.2055 83.1755 51.0174 83.4463 50.8253 83.4476C50.6346 83.4489 50.443 83.4751 50.251 83.4756C50.0589 83.476 49.8665 83.4245 49.6736 83.4245C49.4824 83.4245 49.2912 83.355 49.1005 83.3546C48.9098 83.3541 48.7195 83.127 48.5292 83.1257C48.3376 83.1243 48.1438 83.483 47.9536 83.4808C47.762 83.4786 47.5756 83.1379 47.3853 83.1348C47.1937 83.1322 47.0043 83.0898 46.814 83.0863C46.6224 83.0828 46.426 83.3751 46.2357 83.3707C46.0441 83.3664 45.8512 83.4332 45.6609 83.428C45.4693 83.4231 45.2786 83.3987 45.0888 83.393C44.8972 83.3873 44.7043 83.4341 44.5144 83.428C44.3228 83.4214 44.1434 83.0964 43.9531 83.0894C43.762 83.0824 43.573 83.0379 43.3831 83.03C43.192 83.0221 42.9969 83.123 42.807 83.1143C42.6159 83.1056 42.4151 83.3083 42.2253 83.2991C42.0341 83.2895 41.8547 83.0558 41.6649 83.0457C41.4737 83.0357 41.2769 83.1366 41.0875 83.1257C40.8963 83.1147 40.713 82.9846 40.5236 82.9728C40.3324 82.961 40.1334 83.0846 39.944 83.0719C39.7528 83.0593 39.5595 83.0846 39.3705 83.0711C39.1794 83.0575 38.9847 83.0968 38.7957 83.0828C38.6046 83.0684 38.4169 83.0164 38.2279 83.0012C38.0367 82.9859 37.8678 82.7207 37.6789 82.7045C37.4881 82.6884 37.2887 82.7871 37.1001 82.7701C36.9094 82.753 36.7322 82.6041 36.5441 82.5862C36.3534 82.5678 36.1356 82.8382 35.9475 82.8194C35.7568 82.8002 35.5599 82.8439 35.3723 82.8242C35.1816 82.8041 35.0196 82.5329 34.832 82.5119C34.6417 82.4905 34.4614 82.3953 34.2742 82.373C34.0839 82.3507 33.9006 82.2909 33.7134 82.2673C33.5231 82.2437 33.3433 82.1611 33.1569 82.1367C32.9671 82.1118 32.7654 82.1921 32.5791 82.1664C32.3892 82.1402 32.1858 82.2245 31.9999 82.1974C31.8101 82.1699 31.6128 82.2044 31.4273 82.176C31.2379 82.1467 31.041 82.1707 30.856 82.1406C30.6666 82.11 30.5217 81.8243 30.3366 81.7929C30.1472 81.7605 29.922 81.9444 29.7378 81.9112C29.5484 81.8767 29.3655 81.8165 29.1818 81.7811C28.9924 81.7448 28.7995 81.7365 28.6162 81.6994C28.4272 81.6609 28.3024 81.3333 28.1199 81.2936C27.931 81.2525 27.7145 81.3595 27.5325 81.3176C27.344 81.2739 27.1606 81.228 26.98 81.183C26.7919 81.1363 26.5959 81.1398 26.4165 81.0917C26.2288 81.0415 26.0154 81.0987 25.8378 81.0472C25.6506 80.993 25.507 80.8087 25.3311 80.7532C25.1439 80.6942 24.9688 80.6213 24.7951 80.5605C24.6088 80.4955 24.4648 80.3465 24.2941 80.2801C24.1099 80.208 23.8961 80.2368 23.7307 80.163C23.5482 80.0818 23.4265 79.9083 23.268 79.8249C23.0895 79.731 22.808 79.838 22.6605 79.7415C22.4881 79.6288 22.4733 79.3383 22.345 79.2221C22.1887 79.0805 22.0242 79.0002 21.9365 78.8547C21.8308 78.6786 21.569 78.5205 21.569 78.3397C21.569 78.1575 21.6283 77.8753 21.7357 77.6979C21.8239 77.552 22.2319 77.639 22.389 77.497C22.5178 77.3808 22.5802 77.1785 22.7539 77.0654C22.9023 76.9684 23.0812 76.9103 23.2611 76.816C23.4204 76.7325 23.5609 76.5958 23.7442 76.5141C23.91 76.4403 24.1344 76.4971 24.3194 76.425C24.4896 76.3586 24.5538 75.9825 24.7401 75.9178C24.9139 75.8575 25.1587 75.9868 25.3459 75.9279C25.5218 75.8724 25.7457 75.9676 25.9334 75.9134C26.111 75.8619 26.2947 75.8291 26.4829 75.7789C26.6622 75.7309 26.8028 75.5229 26.9909 75.4762C27.1716 75.4316 27.3029 75.159 27.4919 75.1153C27.6735 75.0734 27.9292 75.3429 28.1182 75.3023C28.3006 75.2626 28.4547 75.0725 28.6437 75.0341C28.827 74.997 29.0151 74.9664 29.2045 74.9301C29.3887 74.8947 29.613 75.066 29.8024 75.0319C29.987 74.9987 30.1472 74.817 30.3366 74.7842C30.5217 74.7528 30.736 74.8895 30.9258 74.8589C31.1113 74.8288 31.2409 74.4313 31.4312 74.402C31.6171 74.3736 31.8074 74.3531 31.9977 74.3255C32.1841 74.2985 32.3726 74.2657 32.5629 74.2395C32.7493 74.2137 32.9409 74.2015 33.1312 74.1766C33.3175 74.1521 33.5301 74.319 33.7195 74.2954C33.9058 74.2722 34.0887 74.2041 34.2786 74.1818C34.4654 74.16 34.6417 74.0263 34.8315 74.0049C35.0188 73.9839 35.2348 74.2163 35.4251 74.1958C35.6128 74.1757 35.7769 73.9197 35.9676 73.9005C36.1553 73.8817 36.3495 73.9101 36.5402 73.8922C36.7283 73.8743 36.9116 73.7865 37.1023 73.7694C37.2904 73.7524 37.4838 73.7738 37.6745 73.7577C37.863 73.7415 38.0573 73.7791 38.248 73.7638C38.4365 73.7485 38.6438 73.9634 38.835 73.949C39.024 73.9346 39.1903 73.5995 39.3814 73.586C39.5704 73.5724 39.7755 73.7812 39.9667 73.7686C40.1548 73.7563 40.3302 73.5231 40.5205 73.5113C40.7091 73.4995 40.9125 73.7201 41.1027 73.7092C41.2917 73.6982 41.4641 73.371 41.6548 73.361C41.8438 73.351 42.0537 73.7314 42.2445 73.7218C42.4339 73.7127 42.6146 73.5122 42.8053 73.5039C42.9947 73.4951 43.1802 73.3645 43.3714 73.3566C43.5612 73.3488 43.7567 73.4641 43.9479 73.4571C44.1369 73.4501 44.3254 73.406 44.5161 73.3994C44.7056 73.3933 44.8937 73.3143 45.0844 73.3086C45.2742 73.3029 45.4628 73.2125 45.6539 73.2077C45.8438 73.2029 46.0354 73.1972 46.2266 73.1928C46.4177 73.1885 46.6159 73.5772 46.807 73.5737C46.9969 73.5702 47.1819 73.233 47.3727 73.2304C47.5634 73.2278 47.7537 73.1592 47.9453 73.157C48.1369 73.1548 48.3298 73.375 48.5218 73.3737C48.7125 73.3724 48.9032 73.1688 49.0948 73.1679C49.2864 73.167 49.4793 73.1679 49.6723 73.1679C49.8634 73.1679 50.0537 73.5707 50.2444 73.5716C50.4352 73.5724 50.6263 73.5257 50.8166 73.527C51.0082 73.5283 51.2015 73.2212 51.3918 73.2234C51.5834 73.2256 51.7737 73.3033 51.964 73.306C52.1556 73.3086 52.3437 73.4632 52.534 73.4667C52.7256 73.4702 52.9163 73.4676 53.1062 73.4715C53.2978 73.4759 53.4911 73.3693 53.681 73.3741C53.8726 73.3789 54.0594 73.5165 54.2496 73.5222C54.4412 73.5279 54.6368 73.3715 54.8271 73.3776C55.0187 73.3842 55.2103 73.3741 55.4001 73.3811C55.5913 73.3881 55.7842 73.3553 55.974 73.3632C56.1652 73.371 56.3559 73.3955 56.5458 73.4038C56.7369 73.4126 56.9237 73.513 57.1136 73.5222C57.3047 73.5318 57.4885 73.6712 57.6783 73.6812C57.8695 73.6913 58.0672 73.5659 58.257 73.5768C58.4482 73.5877 58.6346 73.6646 58.824 73.6764C59.0151 73.6882 59.2002 73.7769 59.3896 73.7895C59.5808 73.8022 59.7767 73.7275 59.9657 73.7411C60.1569 73.7546 60.3594 73.5995 60.5484 73.6139C60.7395 73.6283 60.9058 73.9468 61.0948 73.9621C61.2859 73.9774 61.474 74.0005 61.663 74.0163C61.8537 74.0324 62.0711 73.7345 62.2596 73.7515C62.4504 73.7686 62.6441 73.7528 62.8322 73.7708C63.023 73.7891 63.1744 74.1945 63.3625 74.2133C63.5533 74.2325 63.7597 74.0779 63.9474 74.098C64.1381 74.118 64.3498 73.9324 64.5374 73.9534C64.7277 73.9748 64.908 74.08 65.0952 74.1019C65.2855 74.1242 65.4579 74.284 65.6447 74.3072C65.835 74.3308 66.0545 74.1154 66.2409 74.1399C66.4307 74.1648 66.6083 74.2762 66.7947 74.302C66.9845 74.3282 67.1377 74.5986 67.3237 74.6257C67.5135 74.6532 67.6907 74.741 67.8762 74.7698C68.0656 74.7991 68.2882 74.6016 68.4732 74.6318C68.6627 74.6623 68.832 74.7999 69.0171 74.8318C69.2065 74.8642 69.412 74.7903 69.5966 74.8235C69.7861 74.858 69.9803 74.855 70.164 74.8904C70.3534 74.9266 70.5154 75.087 70.6987 75.1245C70.8876 75.163 71.1198 74.986 71.3023 75.0254C71.4912 75.0664 71.6863 75.0756 71.8679 75.1175C72.0564 75.1612 72.1812 75.4596 72.3619 75.5046C72.55 75.5513 72.712 75.6762 72.8909 75.7243C73.0786 75.7745 73.2562 75.8313 73.4338 75.8829C73.6211 75.937 73.8524 75.8213 74.0283 75.8772C74.2155 75.9362 74.3311 76.1847 74.5049 76.2455C74.6912 76.3105 74.8688 76.3595 75.0395 76.4263C75.2237 76.4984 75.4022 76.5456 75.5676 76.6194C75.75 76.7006 75.9848 76.6425 76.1437 76.726C76.3222 76.8199 76.3929 77.061 76.5404 77.1576C76.7128 77.2703 76.9345 77.2716 77.0628 77.3873C77.2191 77.5289 77.2361 77.7303 77.3238 77.8757C77.4294 78.0518 77.4277 78.1597 77.4277 78.3405L77.4294 78.3397Z" fill="#E5DFD8"/>
<path d="M26.5191 30.3466L26.4458 30.3637C26.3865 30.1071 26.0409 29.8726 26.0621 29.6234C26.0839 29.365 26.0524 29.0168 26.1505 28.7828C26.2491 28.5471 26.5893 28.3882 26.7551 28.194C26.9198 28.0022 27.3114 28.1164 27.5311 27.9827C27.7429 27.8532 27.864 27.6223 28.1182 27.5624C28.5032 27.472 28.465 27.3071 28.85 27.2167C29.2349 27.1263 29.3057 27.4323 29.6907 27.3419C30.0756 27.2515 30.0539 27.158 30.4388 27.0676C30.8238 26.9772 30.7299 26.5735 31.1149 26.4831C31.4999 26.3926 31.5779 26.7317 31.9629 26.6413C32.3478 26.5509 32.3497 26.5588 32.7346 26.4678C33.1196 26.3768 33.0935 26.2638 33.4785 26.1727C33.8634 26.0817 33.8998 26.2393 34.2853 26.1483C34.6709 26.0573 34.6315 25.8875 35.0171 25.7965C35.4026 25.7055 35.3905 25.6542 35.7755 25.5637C36.1604 25.4733 36.1235 25.3121 36.5085 25.2211C36.8934 25.1301 36.8916 25.1227 37.2766 25.0323C37.6615 24.9419 37.719 25.1911 38.104 25.1007C38.4889 25.0103 38.4544 24.8601 38.8394 24.7697C39.2243 24.6793 39.3024 25.0152 39.6874 24.9248C40.0723 24.8344 40.039 24.689 40.4246 24.598C40.8101 24.507 40.7514 24.2553 41.137 24.1649C41.5225 24.0745 41.5334 24.124 41.9178 24.0336C42.3021 23.9432 42.3239 24.0379 42.7083 23.9475C43.0926 23.8571 43.0993 23.887 43.483 23.7966C43.8668 23.7062 43.8486 23.6274 44.2323 23.537C44.6161 23.4466 44.7026 23.8223 45.087 23.7319C45.4713 23.6415 45.3569 23.1485 45.7407 23.0581C46.1244 22.9677 46.2013 23.2994 46.5856 23.209C46.97 23.1186 46.9028 22.8254 47.2872 22.7344C47.6715 22.6433 47.7441 22.9543 48.1297 22.8639C48.5152 22.7735 48.5013 22.7118 48.8875 22.6214C49.2737 22.531 49.3269 22.7643 49.7119 22.6733C50.0968 22.5823 50.052 22.3886 50.437 22.2982C50.8219 22.2078 50.7354 21.8352 51.1203 21.7448C51.5053 21.6544 51.5192 21.7149 51.9036 21.6245C52.2879 21.5341 52.3103 21.6288 52.6959 21.5384C53.0814 21.4479 53.0493 21.3093 53.4355 21.2189C53.8217 21.1285 53.927 21.5848 54.3131 21.4938C54.6993 21.4027 54.6957 21.3899 55.0812 21.2989C55.4668 21.2079 55.3984 20.9135 55.784 20.8231C56.1695 20.7327 56.253 21.0943 56.6386 21.0033C57.0242 20.9122 56.9927 20.7742 57.3788 20.6838C57.765 20.5934 57.6772 20.2147 58.0634 20.1237C58.4496 20.0326 58.5537 20.4853 58.9392 20.3943C59.3248 20.3032 59.2842 20.1273 59.6704 20.0363C60.0566 19.9453 60.0711 20.007 60.4573 19.916C60.8434 19.825 60.8912 20.0339 61.2774 19.9429C61.6636 19.8518 61.5697 19.4444 61.9559 19.3534C62.3421 19.2624 62.4395 19.6906 62.8239 19.6002C63.2082 19.5098 63.1604 19.2948 63.5472 19.2037C63.9339 19.1127 63.8486 18.7475 64.2342 18.657C64.6197 18.5666 64.6675 18.7719 65.0531 18.6815C65.4386 18.5911 65.4756 18.7444 65.8623 18.6534C66.2491 18.5624 66.2158 18.42 66.602 18.329C66.9881 18.238 66.9918 18.2508 67.3785 18.1598C67.7653 18.0688 67.8361 18.3742 68.2235 18.2832C68.6109 18.1922 68.4862 17.6559 68.873 17.5649C69.2597 17.4739 69.3015 17.6516 69.6889 17.56C70.0762 17.4684 70.1331 17.7127 70.5217 17.6211C70.9103 17.5294 70.9466 17.6901 71.3352 17.5985C71.5894 17.5386 71.7522 17.5215 71.9992 17.5429C72.2552 17.5649 72.504 17.392 72.7358 17.491C72.9694 17.5905 73.2933 17.5746 73.4857 17.742C73.6758 17.9082 73.6685 18.2563 73.8011 18.4781C73.9294 18.6925 73.927 18.9197 73.9863 19.1763L74.2811 19.1066C74.3404 19.3632 74.1297 19.6344 74.1086 19.8836C74.0868 20.142 74.4088 20.5146 74.3107 20.7485C74.2121 20.9843 73.7642 21.0479 73.5977 21.2421C73.4331 21.4339 73.4367 21.892 73.2164 22.0258C73.0045 22.1553 72.5627 21.7534 72.3079 21.8132C71.9229 21.9036 72.0428 22.4222 71.6578 22.5126C71.2729 22.603 71.2263 22.4002 70.8413 22.4906C70.4563 22.581 70.4721 22.6482 70.0871 22.7386C69.7022 22.829 69.6556 22.6275 69.2712 22.7179C68.8869 22.8083 68.8403 22.6085 68.4553 22.6989C68.0704 22.7893 68.0891 22.87 67.7042 22.9604C67.3192 23.0508 67.3949 23.3794 67.0099 23.4698C66.625 23.5602 66.5348 23.1711 66.1498 23.2615C65.7649 23.3519 65.8054 23.5297 65.4199 23.6207C65.0343 23.7117 65.1039 24.011 64.7184 24.102C64.3328 24.193 64.3401 24.2211 63.9545 24.3115C63.569 24.4019 63.5272 24.2181 63.1422 24.3085C62.7573 24.3989 62.7276 24.27 62.3427 24.361C61.9577 24.452 61.9117 24.2523 61.5268 24.3433C61.1418 24.4343 61.1745 24.5754 60.7889 24.6658C60.4034 24.7562 60.4591 24.9975 60.0735 25.0879C59.688 25.1783 59.6704 25.1007 59.2848 25.1917C58.8993 25.2828 58.8267 24.9651 58.4423 25.0555C58.058 25.1459 58.1288 25.452 57.7444 25.5424C57.3601 25.6328 57.4031 25.8166 57.0187 25.907C56.6344 25.9974 56.5575 25.6621 56.1738 25.7525C55.79 25.8429 55.7682 25.7494 55.3845 25.8398C55.0007 25.9302 55.0171 26.0029 54.6333 26.0933C54.2496 26.1837 54.3029 26.4159 53.9185 26.5063C53.5342 26.5967 53.4857 26.389 53.1014 26.4794C52.717 26.5698 52.7509 26.7207 52.366 26.8117C51.981 26.9027 51.9072 26.5863 51.521 26.6773C51.1349 26.7683 51.2523 27.2735 50.8673 27.3639C50.4824 27.4543 50.3819 27.02 49.997 27.1104C49.612 27.2008 49.6544 27.3834 49.27 27.4738C48.8857 27.5642 48.8881 27.5777 48.5037 27.6681C48.1194 27.7585 48.1206 27.7664 47.7357 27.8568C47.3507 27.9472 47.4155 28.23 47.0299 28.3204C46.6444 28.4108 46.5657 28.0743 46.1801 28.1647C45.7946 28.2551 45.8169 28.3528 45.4314 28.4432C45.0458 28.5336 45.0446 28.5275 44.6597 28.6185C44.2747 28.7095 44.2184 28.4689 43.8335 28.5593C43.4485 28.6497 43.5145 28.9417 43.1289 29.0327C42.7434 29.1237 42.6586 28.7572 42.2725 28.8482C41.8863 28.9392 42.0164 29.5 41.6309 29.591C41.2453 29.682 41.1231 29.1548 40.7375 29.2459C40.3519 29.3369 40.3749 29.4395 39.9888 29.5299C39.6026 29.6203 39.6293 29.7339 39.2431 29.8243C38.8569 29.9147 38.8376 29.831 38.4508 29.922C38.064 30.0131 38.1094 30.2 37.7245 30.2904C37.3395 30.3808 37.3522 30.4419 36.9655 30.5329C36.5787 30.6239 36.5914 30.6746 36.2058 30.765C35.8203 30.8554 35.7755 30.6612 35.3893 30.7516C35.0032 30.842 34.9959 30.8151 34.6091 30.9061C34.2224 30.9971 34.2871 31.2763 33.901 31.3667C33.5148 31.4571 33.5184 31.4754 33.1317 31.5664C32.7449 31.6574 32.6965 31.4485 32.3091 31.5395C31.9217 31.6306 31.9689 31.8303 31.5822 31.9213C31.1954 32.0123 31.0725 31.484 30.6852 31.575C30.2978 31.666 30.3964 32.096 30.0079 32.187C29.6193 32.278 29.6017 32.2011 29.2137 32.2927C28.9595 32.3526 28.675 32.4668 28.4281 32.446C28.1721 32.424 27.9003 32.2854 27.6691 32.1864C27.4355 32.0868 27.1534 31.9793 26.9615 31.812C26.7715 31.6458 26.7176 31.3239 26.585 31.1022C26.4567 30.8878 26.5814 30.6019 26.5221 30.3447L26.5191 30.3466Z" fill="#E5B225"/>
<path d="M52.6462 72.9736C52.3593 73.2595 52.2843 73.2552 51.8818 73.2552C51.4793 73.2552 51.4786 72.7953 51.0749 72.7953C50.6712 72.7953 50.6724 72.9584 50.2693 72.9584C49.8662 72.9584 49.8656 72.9009 49.4619 72.9009C49.0582 72.9009 49.0576 73.0494 48.6532 73.0494C48.2489 73.0494 48.0135 73.425 47.7241 73.1398C47.4421 72.8625 47.8434 72.6175 47.8434 72.2199C47.8434 71.8222 47.8682 71.8222 47.8682 71.4246C47.8682 71.0269 47.7756 71.0269 47.7756 70.6286C47.7756 70.2304 48.1357 70.2304 48.1357 69.8327C48.1357 69.4351 47.617 69.4345 47.617 69.0362C47.617 68.6379 47.6225 68.6379 47.6225 68.2391C47.6225 67.8402 47.7919 67.8408 47.7919 67.4419C47.7919 67.043 47.8519 67.0437 47.8519 66.6454C47.8519 66.2471 47.6267 66.2471 47.6267 65.8495C47.6267 65.4518 47.7187 65.4518 47.7187 65.0536C47.7187 64.6553 48.0165 64.6559 48.0165 64.2583C48.0165 63.8606 47.6219 63.8606 47.6219 63.4629C47.6219 63.0653 47.6818 63.0653 47.6818 62.6676C47.6818 62.27 48.051 62.27 48.051 61.8723C48.051 61.4747 48.1018 61.4747 48.1018 61.0764C48.1018 60.6782 47.5577 60.6788 47.5577 60.2805C47.5577 59.8822 47.5855 59.8822 47.5855 59.484C47.5855 59.0857 47.6485 59.0857 47.6485 58.6874C47.6485 58.2892 47.9832 58.2886 47.9832 57.8903C47.9832 57.492 47.7762 57.4914 47.7762 57.0932C47.7762 56.6949 48.08 56.6949 48.08 56.2966C48.08 55.8984 47.7447 55.8984 47.7447 55.5001C47.7447 55.1018 48.146 55.1018 48.146 54.7042C48.146 54.3065 47.959 54.3059 47.959 53.9083C47.959 53.5106 47.8973 53.51 47.8973 53.1124C47.8973 52.7147 47.6485 52.7141 47.6485 52.3158C47.6485 51.9176 47.9941 51.9176 47.9941 51.5193C47.9941 51.121 47.7907 51.121 47.7907 50.7222C47.7907 50.3233 48.0873 50.3233 48.0873 49.9244C48.0873 49.5255 47.9899 49.5255 47.9899 49.1273C47.9899 48.729 47.8882 48.729 47.8882 48.3308C47.8882 47.9325 47.5849 47.9325 47.5849 47.5342C47.5849 47.136 47.8749 47.136 47.8749 46.7377C47.8749 46.3394 47.7913 46.3394 47.7913 45.9412C47.7913 45.5429 48.0443 45.5429 48.0443 45.144C48.0443 44.7452 48.0879 44.7452 48.0879 44.3463C48.0879 43.9474 48.0613 43.9474 48.0613 43.5485C48.0613 43.1497 48.117 43.1503 48.117 42.7526C48.117 42.355 48.0359 42.355 48.0359 41.9573C48.0359 41.5597 47.5529 41.5603 47.5529 41.1626C47.5529 40.765 48.028 40.7656 48.028 40.3685C48.028 39.9715 48.1472 39.9715 48.1472 39.5744C48.1472 39.1774 47.956 39.1774 47.956 38.7798C47.956 38.3821 47.7956 38.3821 47.7956 37.9844C47.7956 37.5868 48.1369 37.5868 48.1369 37.1885C48.1369 36.7903 47.6461 36.7897 47.6461 36.3914C47.6461 35.9931 47.7326 35.9919 47.7326 35.593C47.7326 35.1942 47.9445 35.1942 47.9445 34.7959C47.9445 34.3976 47.8089 34.3976 47.8089 33.9994C47.8089 33.6011 47.712 33.6011 47.712 33.2035C47.712 32.8058 48.057 32.8052 48.057 32.4075C48.057 32.0099 47.8942 32.0093 47.8942 31.611C47.8942 31.2127 48.0534 31.2121 48.0534 30.8133C48.0534 30.4144 48.0534 30.4138 48.0534 30.0143C48.0534 29.6148 47.6194 29.6154 47.6194 29.2165C47.6194 28.8177 48.0401 28.8183 48.0401 28.4194C48.0401 28.0205 48.1267 28.0205 48.1267 27.6216C48.1267 27.2228 47.7998 27.2222 47.7998 26.8227C47.7998 26.4232 47.9675 26.4232 47.9675 26.0243C47.9675 25.6254 47.9324 25.6254 47.9324 25.2266C47.9324 24.8277 48.1152 24.8271 48.1152 24.4282C48.1152 24.0293 48.1043 24.0287 48.1043 23.6286C48.1043 23.2285 47.9778 23.2291 47.9778 22.8303C47.9778 22.4314 47.988 22.4308 47.988 22.0307C47.988 21.6306 47.7308 21.6312 47.7308 21.2317C47.7308 20.8322 47.7944 20.8322 47.7944 20.4321C47.7944 20.032 47.7308 20.0333 47.7308 19.6344C47.7308 19.2355 47.8101 19.2355 47.8101 18.8366C47.8101 18.4378 47.6594 18.4365 47.6594 18.0364C47.6594 17.6363 47.8924 17.637 47.8924 17.2375C47.8924 16.838 48.0098 16.8374 48.0098 16.4373C48.0098 16.0372 47.6806 16.0366 47.6806 15.6365C47.6806 15.2364 47.9965 15.2364 47.9965 14.8369C47.9965 14.4374 47.7859 14.4362 47.7859 14.0355C47.7859 13.6348 47.6648 13.6342 47.6648 13.2328C47.6648 12.8315 47.657 12.8089 47.9396 12.5267C48.2265 12.2408 48.2477 12.2647 48.6502 12.2647C49.0527 12.2647 49.0533 12.236 49.457 12.236C49.8608 12.236 49.8595 12.6538 50.2627 12.6538C50.6658 12.6538 50.6664 12.2488 51.0701 12.2488C51.4738 12.2488 51.4744 12.5304 51.8787 12.5304C52.2831 12.5304 52.4283 12.1132 52.7182 12.3978C53.0003 12.6752 52.4065 12.8272 52.4065 13.2243C52.4065 13.6213 52.4846 13.6219 52.4846 14.0196C52.4846 14.4172 52.5948 14.4172 52.5948 14.8155C52.5948 15.2138 52.5173 15.2138 52.5173 15.6114C52.5173 16.0091 52.9658 16.0097 52.9658 16.408C52.9658 16.8062 52.6632 16.8062 52.6632 17.2051C52.6632 17.604 52.8659 17.6034 52.8659 18.0022C52.8659 18.4011 52.6632 18.4005 52.6632 18.7988C52.6632 19.197 52.533 19.197 52.533 19.5947C52.533 19.9923 52.4973 19.9923 52.4973 20.3906C52.4973 20.7889 52.9228 20.7882 52.9228 21.1859C52.9228 21.5836 52.4677 21.5836 52.4677 21.9812C52.4677 22.3789 52.8538 22.3789 52.8538 22.7765C52.8538 23.1742 52.7776 23.1742 52.7776 23.5718C52.7776 23.9695 52.4967 23.9695 52.4967 24.3677C52.4967 24.766 52.826 24.7654 52.826 25.1637C52.826 25.5619 52.5857 25.5619 52.5857 25.9602C52.5857 26.3584 52.4937 26.3584 52.4937 26.7567C52.4937 27.155 52.8363 27.1556 52.8363 27.5538C52.8363 27.9521 52.671 27.9527 52.671 28.351C52.671 28.7492 52.6571 28.7492 52.6571 29.1475C52.6571 29.5458 52.6166 29.5458 52.6166 29.944C52.6166 30.3423 52.6093 30.3423 52.6093 30.74C52.6093 31.1376 52.6946 31.1382 52.6946 31.5359C52.6946 31.9335 52.3987 31.9341 52.3987 32.3318C52.3987 32.7294 52.4029 32.7301 52.4029 33.1283C52.4029 33.5266 52.6353 33.5266 52.6353 33.9248C52.6353 34.3231 52.9719 34.3231 52.9719 34.722C52.9719 35.1209 52.6704 35.1209 52.6704 35.5197C52.6704 35.9186 52.8671 35.9186 52.8671 36.3169C52.8671 36.7151 52.53 36.7151 52.53 37.1134C52.53 37.5117 52.6093 37.5117 52.6093 37.9099C52.6093 38.3082 52.8308 38.3082 52.8308 38.7065C52.8308 39.1047 52.6656 39.1047 52.6656 39.503C52.6656 39.9012 52.8847 39.9012 52.8847 40.3001C52.8847 40.699 52.5639 40.699 52.5639 41.0979C52.5639 41.4967 52.9198 41.4967 52.9198 41.8956C52.9198 42.2945 52.8435 42.2939 52.8435 42.6915C52.8435 43.0892 52.7231 43.0892 52.7231 43.4868C52.7231 43.8845 52.8048 43.8839 52.8048 44.2815C52.8048 44.6792 52.7455 44.6786 52.7455 45.0756C52.7455 45.4727 52.6765 45.4727 52.6765 45.8697C52.6765 46.2667 52.8429 46.2667 52.8429 46.6644C52.8429 47.0621 52.8387 47.0621 52.8387 47.4597C52.8387 47.8574 52.5978 47.8574 52.5978 48.2556C52.5978 48.6539 52.4447 48.6545 52.4447 49.0528C52.4447 49.451 52.9525 49.4522 52.9525 49.8511C52.9525 50.25 52.8169 50.25 52.8169 50.6483C52.8169 51.0465 52.717 51.0465 52.717 51.4448C52.717 51.843 52.6329 51.843 52.6329 52.2407C52.6329 52.6384 52.6087 52.639 52.6087 53.0366C52.6087 53.4343 52.7479 53.4349 52.7479 53.8331C52.7479 54.2314 52.6045 54.232 52.6045 54.6309C52.6045 55.0298 52.6831 55.0304 52.6831 55.4299C52.6831 55.8294 52.9531 55.8287 52.9531 56.2276C52.9531 56.6265 52.4798 56.6259 52.4798 57.0248C52.4798 57.4236 52.7667 57.4236 52.7667 57.8225C52.7667 58.2214 52.7291 58.222 52.7291 58.6215C52.7291 59.021 52.9077 59.021 52.9077 59.4198C52.9077 59.8187 52.4035 59.8187 52.4035 60.2176C52.4035 60.6165 52.7061 60.6171 52.7061 61.0159C52.7061 61.4148 52.9458 61.4154 52.9458 61.8155C52.9458 62.2156 52.5578 62.215 52.5578 62.6139C52.5578 63.0128 52.6898 63.0134 52.6898 63.4135C52.6898 63.8136 52.5893 63.813 52.5893 64.2124C52.5893 64.6119 52.7382 64.6119 52.7382 65.012C52.7382 65.4121 52.5457 65.4109 52.5457 65.8098C52.5457 66.2086 52.829 66.2086 52.829 66.6075C52.829 67.0064 52.412 67.0076 52.412 67.4077C52.412 67.8078 52.8847 67.8072 52.8847 68.2067C52.8847 68.6062 52.5191 68.6068 52.5191 69.0069C52.5191 69.407 52.9252 69.4076 52.9252 69.8077C52.9252 70.2078 52.4634 70.2078 52.4634 70.6073C52.4634 71.0067 52.5663 71.008 52.5663 71.4087C52.5663 71.8094 52.5173 71.8356 52.5917 72.2302C52.6674 72.6297 52.9313 72.6902 52.648 72.9724L52.6462 72.9736Z" fill="#E5B225"/>
<path d="M37.1731 54.0231C36.8087 53.8735 37.092 53.7782 36.9443 53.4098C36.7966 53.0415 36.5358 53.1496 36.3881 52.7819C36.2404 52.4142 36.1859 52.4374 36.0382 52.0703C35.8905 51.7032 36.2918 51.5389 36.1448 51.1724C35.9977 50.8059 35.902 50.8449 35.7544 50.4778C35.6067 50.1107 35.6926 50.0753 35.5449 49.7088C35.3972 49.3423 35.0426 49.4865 34.8943 49.1187C34.746 48.751 34.8416 48.7119 34.6933 48.3436C34.545 47.9753 34.6122 47.949 34.4639 47.5813C34.3156 47.2135 34.499 47.139 34.3513 46.7719C34.2036 46.4048 34.2726 46.3761 34.125 46.009C33.9773 45.6419 33.7473 45.7353 33.5996 45.367C33.4519 44.9987 33.4803 44.9871 33.3327 44.6193C33.185 44.2516 33.2794 44.2131 33.1317 43.8454C32.984 43.4777 32.777 43.5626 32.6287 43.1943C32.4804 42.8259 32.36 42.8754 32.2117 42.5071C32.0634 42.1387 32.0307 42.1528 31.8824 41.7851C31.7341 41.4173 31.667 41.4442 31.5187 41.0759C31.3704 40.7075 31.6815 40.5823 31.5338 40.2152C31.3861 39.8481 31.3292 39.8701 31.1809 39.5018C31.0326 39.1334 30.8801 39.197 30.7324 38.8292C30.5847 38.4615 30.6598 38.431 30.5115 38.0632C30.3632 37.6955 30.5581 37.6149 30.4098 37.246C30.2615 36.877 30.2337 36.8892 30.0854 36.5215C29.9371 36.1538 29.7289 36.2381 29.5806 35.8697C29.4323 35.5014 29.5073 35.4696 29.3591 35.1007C29.2108 34.7318 29.3488 34.6756 29.2005 34.3072C29.0522 33.9389 29.0879 33.9236 28.9396 33.5541C28.7913 33.1845 28.7792 33.1888 28.6303 32.8186C28.4814 32.4485 28.6146 32.0252 28.2187 32.0227C27.8253 32.0197 28.1225 32.515 27.9742 32.8828C27.8259 33.2505 27.7781 33.2303 27.6304 33.5974C27.4827 33.9645 27.2648 33.8754 27.1177 34.2419C26.9707 34.6084 27.0566 34.6438 26.9095 35.0109C26.7624 35.378 26.9368 35.4495 26.7891 35.816C26.6414 36.1825 26.5585 36.1489 26.4108 36.516C26.2631 36.8831 26.0676 36.8037 25.9193 37.1708C25.771 37.5379 25.8067 37.5532 25.6584 37.9209C25.5101 38.2886 25.952 38.4695 25.8043 38.8366C25.6566 39.2037 25.1778 39.0076 25.0302 39.3747C24.8825 39.7418 25.2123 39.8774 25.064 40.2445C24.9158 40.6116 24.7487 40.5438 24.6004 40.9116C24.4521 41.2793 24.7681 41.4088 24.6198 41.7765C24.4715 42.1442 24.0908 41.9879 23.9431 42.3556C23.7954 42.7233 23.7609 42.7093 23.6132 43.0776C23.4655 43.4459 23.6647 43.5278 23.5164 43.8961C23.3681 44.2644 23.2222 44.204 23.0739 44.5717C22.9256 44.9394 22.7955 44.8863 22.6472 45.2546C22.4989 45.6229 22.8373 45.7598 22.6896 46.1263C22.5419 46.4928 22.2574 46.3779 22.1091 46.7463C21.9608 47.1146 22.3766 47.2838 22.2283 47.6515C22.0801 48.0192 22.0897 48.0229 21.9421 48.3906C21.7944 48.7583 21.3507 48.5781 21.2024 48.9465C21.0541 49.3148 21.3652 49.4419 21.2169 49.8102C21.0686 50.1785 21.1588 50.2158 21.0105 50.5847C20.8623 50.9537 20.8066 50.9311 20.6577 51.3C20.5088 51.669 20.1922 51.5389 20.0439 51.9072C19.8956 52.2755 19.9428 52.2957 19.7946 52.6646C19.6463 53.0336 19.7716 53.0861 19.6227 53.4563C19.4738 53.8264 19.6947 54.0341 19.3285 54.1862C18.9563 54.3414 18.9502 54.075 18.5774 53.9217C18.2045 53.7684 18.2995 53.529 17.9255 53.3756C17.5514 53.2223 17.0515 53.7421 16.8917 53.3683C16.7343 53.0006 17.2113 52.8974 17.3608 52.526C17.5103 52.1546 17.6041 52.1925 17.7536 51.8205C17.9031 51.4485 17.6809 51.358 17.8304 50.9867C17.9799 50.6153 18.3153 50.7533 18.4648 50.3825C18.6143 50.0118 18.42 49.9324 18.5689 49.5616C18.7178 49.1908 18.9096 49.2696 19.0591 48.8988C19.2086 48.5281 19.1142 48.489 19.2631 48.1182C19.412 47.7474 19.1923 47.6564 19.3418 47.2844C19.4913 46.9124 19.6366 46.9716 19.7861 46.5997C19.9356 46.2277 19.659 46.1147 19.8085 45.7433C19.958 45.3719 19.9537 45.37 20.1032 44.9993C20.2527 44.6285 20.7993 44.8521 20.9488 44.4807C21.0983 44.1093 20.8744 44.0164 21.0239 43.6444C21.1734 43.2724 20.9791 43.193 21.1286 42.821C21.2781 42.449 21.3083 42.4619 21.4578 42.0905C21.6073 41.7191 21.9293 41.8504 22.0788 41.4784C22.2283 41.1064 22.2247 41.1046 22.3742 40.732C22.5237 40.3594 22.2205 40.236 22.37 39.864C22.5195 39.492 22.5431 39.5011 22.6926 39.1285C22.8421 38.7559 22.7985 38.74 22.9474 38.3693C23.0963 37.9985 23.4534 38.1427 23.6029 37.7707C23.7524 37.3987 23.7476 37.3968 23.8971 37.0254C24.0466 36.6541 24.0775 36.6663 24.227 36.2949C24.3765 35.9235 24.3244 35.9003 24.4745 35.5277C24.6246 35.1551 24.4866 35.0989 24.6361 34.7269C24.7856 34.3549 24.4921 34.2339 24.6422 33.8613C24.7923 33.4887 24.7669 33.4777 24.917 33.1045C25.0671 32.7313 25.5592 32.9335 25.7093 32.5609C25.8594 32.1882 25.5688 32.0685 25.7189 31.6953C25.8691 31.3221 26.0167 31.3813 26.1675 31.0075C26.3182 30.6337 25.9423 30.4791 26.093 30.1053C26.1947 29.853 26.5221 29.6466 26.7031 29.4621C26.8883 29.2733 27.1716 29.1359 27.4149 29.0339C27.6528 28.9343 27.9476 28.9411 28.2175 28.9411C28.4875 28.9411 28.6666 29.2147 28.9045 29.3143C29.1478 29.4163 29.373 29.4462 29.5582 29.635C29.7392 29.82 29.7918 30.0369 29.8935 30.2885C30.043 30.6599 30.0878 30.6416 30.2373 31.0124C30.3868 31.3832 30.7427 31.2384 30.8928 31.6104C31.0429 31.9824 30.6858 32.1278 30.8353 32.4992C30.9848 32.8705 31.3437 32.7227 31.4932 33.0935C31.6427 33.4643 31.6252 33.471 31.7747 33.8418C31.9242 34.2125 31.8461 34.2443 31.995 34.6151C32.1439 34.9859 32.1645 34.9779 32.314 35.3487C32.4635 35.7195 32.0961 35.871 32.2456 36.2424C32.3951 36.6137 32.8315 36.4354 32.981 36.8074C33.1305 37.1794 32.8037 37.3131 32.9532 37.6845C33.1027 38.0559 32.9973 38.0987 33.1468 38.4701C33.2963 38.8414 33.3272 38.8286 33.4767 39.2006C33.6262 39.5726 33.8901 39.4645 34.0396 39.8365C34.1891 40.2085 33.9815 40.2934 34.131 40.6654C34.2805 41.0374 34.3919 40.9916 34.5414 41.363C34.6909 41.7344 34.9366 41.6342 35.0861 42.0062C35.2356 42.3782 35.2332 42.3794 35.3833 42.752C35.5334 43.1246 35.0837 43.3079 35.2332 43.6799C35.3827 44.0519 35.5516 43.9828 35.7017 44.3554C35.8518 44.7281 36.0195 44.6572 36.1684 45.028C36.3173 45.3988 36.0098 45.5264 36.1599 45.899C36.31 46.2716 36.704 46.1092 36.8535 46.4805C37.003 46.8519 36.5309 47.0456 36.6804 47.4176C36.8299 47.7896 37.0551 47.6985 37.2052 48.0712C37.3553 48.4438 37.3868 48.4303 37.5369 48.8023C37.687 49.1743 37.5841 49.2171 37.7342 49.5897C37.8843 49.9623 38.2045 49.8316 38.3546 50.2048C38.5047 50.578 38.4551 50.5976 38.6052 50.9702C38.7553 51.3428 38.6482 51.3874 38.7983 51.7606C38.9484 52.1338 38.7293 52.2248 38.88 52.5993C39.0307 52.9737 39.5052 52.9102 39.3479 53.2816C39.1899 53.6554 38.952 53.3842 38.5786 53.5375C38.2051 53.6908 38.084 53.4795 37.7312 53.6768C37.414 53.8539 37.5484 54.174 37.1743 54.0201L37.1731 54.0231Z" fill="#665510"/>
<path d="M40.1292 51.5993C40.1292 51.8663 40.2739 51.8956 40.2575 52.1582C40.2406 52.424 40.0033 52.6646 39.97 52.9261C39.9361 53.1899 40.1788 53.499 40.128 53.7574C40.0771 54.0182 40.0463 54.2943 39.9791 54.549C39.9113 54.8056 39.4247 54.9314 39.3405 55.1813C39.2564 55.4329 39.1438 55.6547 39.0439 55.8984C38.9435 56.1433 39.0294 56.461 38.9138 56.698C38.7982 56.935 38.5301 57.0803 38.3993 57.3088C38.2686 57.5372 38.1052 57.7278 37.9593 57.9477C37.8134 58.1676 37.8407 58.4993 37.6815 58.7094C37.5223 58.9196 37.4454 59.1981 37.2729 59.3972C37.1004 59.5964 37.0544 59.9287 36.8692 60.1162C36.684 60.3037 36.4467 60.4564 36.25 60.6311C36.0533 60.8058 35.7779 60.8999 35.5703 61.0611C35.3627 61.2224 35.0691 61.2664 34.8512 61.4142C34.6333 61.562 34.3888 61.6561 34.1618 61.7893C33.9348 61.9224 33.8332 62.2944 33.5977 62.4123C33.3623 62.5302 32.9713 62.2981 32.7285 62.4001C32.4876 62.5015 32.3714 62.937 32.1227 63.0231C31.8757 63.1081 31.6245 63.229 31.3709 63.298C31.1185 63.3664 30.779 63.0708 30.5205 63.1227C30.2651 63.174 30.0006 63.0964 29.7391 63.1313C29.4807 63.1655 29.2743 63.7635 29.011 63.7806C28.7507 63.7977 28.4692 63.3536 28.2053 63.3536C27.9414 63.3536 27.683 63.4159 27.4227 63.3988C27.1588 63.3817 26.8889 63.4599 26.6304 63.4257C26.3683 63.3915 26.0893 63.4403 25.8333 63.389C25.5742 63.3371 25.3751 63.0347 25.1221 62.9663C24.8673 62.8973 24.5416 63.0696 24.2935 62.9847C24.0441 62.8991 23.8904 62.5589 23.6489 62.4575C23.4055 62.3555 23.1289 62.3427 22.8941 62.2254C22.6592 62.1081 22.4056 62.0232 22.1793 61.8907C21.9529 61.7581 21.5934 61.8198 21.3755 61.6726C21.1576 61.5254 21.1993 61.0074 20.9911 60.8461C20.7829 60.6849 20.5711 60.545 20.3737 60.3703C20.1764 60.1956 20.062 59.9507 19.8762 59.7637C19.6904 59.5768 19.122 59.7497 18.9489 59.5506C18.7758 59.3514 18.6681 59.0778 18.5083 58.8676C18.3485 58.6575 18.4653 58.2452 18.3188 58.0253C18.1724 57.8054 17.6712 57.8036 17.5392 57.5739C17.4073 57.3442 17.4751 56.9954 17.3589 56.7572C17.2427 56.519 17.377 56.1739 17.276 55.9283C17.1755 55.6846 17.1234 55.4372 17.0387 55.1855C16.9546 54.9357 16.6077 54.772 16.5399 54.5148C16.4722 54.2601 16.4225 53.9968 16.3711 53.736C16.3202 53.4776 16.0666 53.2419 16.0321 52.978C15.9982 52.7165 16.0164 52.4337 15.9994 52.168C15.9825 51.9054 16.247 51.8571 16.247 51.5902C16.6271 51.4631 16.5726 51.0948 16.9727 51.0948C17.3728 51.0948 17.3728 51.1473 17.7723 51.1473C18.1718 51.1473 18.1718 51.6366 18.5712 51.6366C18.9707 51.6366 18.9707 51.3788 19.3696 51.3788C19.7685 51.3788 19.7691 51.4454 20.1679 51.4454C20.5668 51.4454 20.5674 51.3593 20.9669 51.3593C21.3664 51.3593 21.367 51.4362 21.7671 51.4362C22.1672 51.4362 22.1678 51.4167 22.5685 51.4167C22.9691 51.4167 22.9685 51.3752 23.3686 51.3752C23.7687 51.3752 23.7681 51.1662 24.1682 51.1662C24.5683 51.1662 24.5683 51.3868 24.9684 51.3868C25.3684 51.3868 25.369 51.4283 25.7697 51.4283C26.1704 51.4283 26.1704 51.5456 26.5705 51.5456C26.9706 51.5456 26.9706 51.1754 27.3707 51.1754C27.7708 51.1754 27.7714 51.0557 28.1715 51.0557C28.5715 51.0557 28.5721 51.6048 28.9734 51.6048C29.3747 51.6048 29.3741 51.4033 29.7742 51.4033C30.1743 51.4033 30.1749 51.5871 30.5762 51.5871C30.9775 51.5871 30.9769 51.1327 31.3776 51.1327C31.7783 51.1327 31.7783 51.0734 32.1796 51.0734C32.5809 51.0734 32.5796 51.3226 32.9797 51.3226C33.3798 51.3226 33.3798 51.4112 33.7799 51.4112C34.18 51.4112 34.1812 51.1687 34.5825 51.1687C34.9838 51.1687 34.9832 51.2866 35.3839 51.2866C35.7846 51.2866 35.7852 51.3623 36.1865 51.3623C36.5878 51.3623 36.5884 51.4613 36.9897 51.4613C37.391 51.4613 37.3909 51.2121 37.7916 51.2121C38.1923 51.2121 38.1935 51.2621 38.5954 51.2621C38.9973 51.2621 39.0016 51.3037 39.4023 51.3434C39.783 51.3806 39.7455 51.4747 40.128 51.6012L40.1292 51.5993Z" fill="#E5B225"/>
<path d="M80.7587 44.4049C80.3943 44.2553 80.6007 43.8827 80.453 43.5149C80.3053 43.1472 80.1407 43.215 79.993 42.8479C79.8453 42.4808 80.2672 42.3079 80.1195 41.9414C79.9718 41.5749 79.7921 41.6482 79.6444 41.2817C79.4967 40.9152 79.3508 40.9751 79.2031 40.608C79.0554 40.2409 79.4277 40.0882 79.28 39.7217C79.1323 39.3552 78.9053 39.4474 78.757 39.0797C78.6087 38.7119 78.5585 38.7321 78.4102 38.3644C78.2619 37.9967 78.2595 37.9979 78.1118 37.6308C77.9641 37.2637 77.9187 37.282 77.7711 36.9149C77.6234 36.5478 77.5604 36.5734 77.4127 36.2057C77.265 35.838 77.6778 35.6688 77.5295 35.3004C77.3813 34.9321 76.9673 35.1025 76.8196 34.7342C76.6719 34.3659 77.1053 34.1887 76.957 33.8216C76.8087 33.4545 76.5097 33.5767 76.3614 33.2089C76.2131 32.8412 76.4649 32.7374 76.3166 32.3697C76.1683 32.0019 76.1441 32.0117 75.9964 31.644C75.8487 31.2763 75.4892 31.4229 75.3409 31.0545C75.1926 30.6862 75.0873 30.7314 74.9402 30.3649C74.7931 29.9984 75.057 29.8878 74.9087 29.5195C74.7604 29.1512 74.7677 29.1493 74.62 28.7816C74.4723 28.4139 74.6842 28.3272 74.5365 27.9594C74.3888 27.5917 74.1788 27.6766 74.0305 27.3077C73.8822 26.9387 73.6322 27.042 73.4839 26.6736C73.3356 26.3053 73.4839 26.2442 73.335 25.8759C73.1861 25.5075 73.3308 25.4477 73.1825 25.0787C73.0342 24.7098 73.0051 24.722 72.8568 24.3537C72.7086 23.9854 72.5348 24.0556 72.3866 23.6867C72.2383 23.3177 72.4858 23.2151 72.3369 22.8449C72.188 22.4748 72.346 22.1113 71.9502 22.1089C71.5567 22.1058 71.5374 22.4008 71.3891 22.7686C71.2408 23.1363 71.2644 23.1455 71.1167 23.5126C70.969 23.8797 71.3098 24.0189 71.1621 24.3861C71.0144 24.7532 70.9636 24.7318 70.8165 25.0983C70.6694 25.4648 70.4703 25.3835 70.3226 25.7501C70.1749 26.1166 70.5477 26.2699 70.4001 26.637C70.2524 27.0041 70.1755 26.9729 70.0278 27.3407C69.8801 27.7084 69.9903 27.7542 69.842 28.1219C69.6937 28.4896 69.569 28.4377 69.4213 28.8054C69.2736 29.1732 68.9008 29.0198 68.7525 29.387C68.6042 29.7541 68.9262 29.886 68.7779 30.2531C68.6296 30.6202 68.4353 30.5414 68.2871 30.9092C68.1388 31.2769 68.0468 31.2396 67.8991 31.6073C67.7514 31.9751 67.8192 32.0025 67.6709 32.3703C67.5226 32.738 67.8664 32.8791 67.7187 33.2468C67.571 33.6145 67.197 33.4618 67.0487 33.8302C66.9004 34.1985 66.8066 34.1594 66.6589 34.5271C66.5112 34.8948 66.7388 34.9889 66.5905 35.3572C66.4422 35.7256 66.5057 35.7494 66.358 36.1159C66.2104 36.4824 66.3248 36.5313 66.1765 36.8996C66.0282 37.2679 65.7213 37.1415 65.5736 37.5086C65.4259 37.8757 65.8623 38.0553 65.7146 38.4224C65.567 38.7895 65.4126 38.7278 65.2643 39.0968C65.116 39.4657 64.7529 39.3161 64.6046 39.6844C64.4563 40.0527 64.834 40.2079 64.6857 40.5762C64.5374 40.9445 64.1355 40.7802 63.9866 41.1498C63.8377 41.5193 64.3643 41.7337 64.216 42.1027C64.0677 42.4716 63.9297 42.4154 63.7814 42.7844C63.6331 43.1533 63.5423 43.1179 63.3934 43.4875C63.2445 43.857 63.4273 44.0525 63.0611 44.2046C62.6889 44.3597 62.7524 43.9132 62.379 43.7605C62.0055 43.6078 61.896 43.8778 61.5219 43.7245C61.1479 43.5711 61.1001 43.6188 60.9397 43.2449C60.7823 42.8772 60.9245 42.9059 61.074 42.5345C61.2235 42.1632 61.1243 42.1222 61.2744 41.7502C61.4245 41.3782 61.321 41.3367 61.4705 40.9659C61.62 40.5952 61.6751 40.6178 61.824 40.247C61.9729 39.8762 61.8869 39.8414 62.0358 39.4706C62.1847 39.0998 62.29 39.1432 62.4389 38.7724C62.5878 38.4016 62.6974 38.4462 62.8463 38.0755C62.9952 37.7047 63.0206 37.7145 63.1701 37.3431C63.3196 36.9717 63.3565 36.9863 63.506 36.6143C63.6555 36.2423 63.6392 36.2362 63.7887 35.8649C63.9382 35.4935 63.7723 35.4257 63.9212 35.0549C64.0701 34.6841 64.2674 34.7641 64.4169 34.3934C64.5664 34.0226 64.5955 34.0336 64.745 33.6616C64.8945 33.2896 64.903 33.2932 65.0525 32.9212C65.202 32.5492 65.0422 32.4845 65.1917 32.1131C65.3412 31.7417 65.521 31.815 65.6705 31.443C65.82 31.071 65.6971 31.0203 65.8466 30.6483C65.9961 30.2763 66.0245 30.2879 66.174 29.9166C66.3235 29.5452 66.5717 29.6459 66.7212 29.274C66.8707 28.902 66.7315 28.8464 66.881 28.4762C67.0305 28.106 67.1328 28.1457 67.2823 27.7737C67.4318 27.4017 67.2853 27.3425 67.4348 26.9711C67.5843 26.5997 67.4693 26.5527 67.6188 26.1813C67.7683 25.8099 67.8519 25.8429 68.002 25.4703C68.1521 25.0977 68.4045 25.2021 68.554 24.8295C68.7035 24.4569 68.5273 24.3848 68.6768 24.0122C68.8263 23.6396 68.6423 23.5639 68.7925 23.1907C68.9426 22.8174 69.1883 22.9188 69.3384 22.5468C69.4885 22.1748 69.5478 22.198 69.6979 21.8248C69.848 21.4516 69.8771 21.4626 70.0272 21.0882C70.1773 20.7137 70.0768 20.6728 70.2276 20.299C70.3292 20.0461 70.4001 19.8225 70.5816 19.6368C70.7675 19.4475 70.949 19.2777 71.193 19.1756C71.4314 19.0761 71.6784 19.2697 71.9483 19.2697V18.905C72.2183 18.905 72.5585 18.8501 72.7969 18.9502C73.0409 19.0523 73.3483 19.2306 73.5335 19.42C73.7151 19.6057 73.6909 19.9966 73.7926 20.2489C73.9421 20.6203 73.7339 20.7052 73.8834 21.0759C74.0329 21.4467 74.2726 21.3496 74.4221 21.7216C74.5716 22.0936 74.2944 22.2066 74.4433 22.5774C74.5922 22.9482 74.6152 22.939 74.7641 23.3098C74.913 23.6805 75.0322 23.6317 75.1811 24.0025C75.33 24.3732 75.3778 24.3537 75.5267 24.7238C75.6756 25.094 75.9401 24.9865 76.0896 25.3573C76.2391 25.7281 75.9274 25.8563 76.0769 26.2277C76.2264 26.5991 76.0963 26.6529 76.2464 27.0249C76.3965 27.3969 76.6247 27.3022 76.7742 27.6736C76.9237 28.045 76.6858 28.1421 76.8353 28.5135C76.9848 28.8849 77.4436 28.6967 77.5925 29.0681C77.7414 29.4395 77.5302 29.5268 77.6797 29.8988C77.8292 30.2708 78.0822 30.167 78.2317 30.539C78.3812 30.911 78.2916 30.947 78.4411 31.3184C78.5906 31.6898 78.1845 31.8566 78.3346 32.2279C78.4847 32.5993 78.5325 32.5804 78.682 32.9524C78.8315 33.3244 78.8781 33.3048 79.0276 33.6768C79.1771 34.0488 79.0639 34.0953 79.2134 34.4679C79.3629 34.8405 79.7672 34.6725 79.9161 35.0433C80.065 35.4141 80.1256 35.3915 80.2751 35.7635C80.4246 36.1355 80.1098 36.2637 80.2593 36.6351C80.4088 37.0065 80.3374 37.0358 80.4869 37.4072C80.6364 37.7786 80.5892 37.7994 80.7393 38.172C80.8894 38.5446 81.0764 38.467 81.2265 38.839C81.3767 39.211 81.4923 39.164 81.6418 39.5366C81.7913 39.9092 81.7198 39.9391 81.87 40.3117C82.0201 40.6843 82.2004 40.6098 82.3505 40.9824C82.5006 41.355 82.2252 41.468 82.3754 41.8413C82.5255 42.2145 82.5939 42.1876 82.7446 42.5614C82.8953 42.9353 83.4612 43.025 83.3044 43.3964C83.1465 43.7703 82.592 43.179 82.2192 43.3323C81.8463 43.4856 81.7211 43.4337 81.4045 43.6866C81.0032 44.0073 81.1297 44.5607 80.7556 44.4074L80.7587 44.4049Z" fill="#665510"/>
<path d="M83.9509 41.3294C83.9509 41.5963 84.1627 41.8211 84.1464 42.0831C84.1294 42.3489 83.9115 42.6005 83.8782 42.862C83.8443 43.1258 84.0138 43.43 83.9636 43.6884C83.9127 43.9492 83.4019 44.1013 83.3341 44.3561C83.2663 44.6126 83.5478 44.9718 83.4642 45.2216C83.3801 45.4733 83.3353 45.7506 83.2354 45.9943C83.135 46.2393 82.6187 46.2918 82.5031 46.5288C82.3875 46.7658 82.6949 47.2319 82.5642 47.4609C82.4335 47.69 82.1351 47.8262 81.9898 48.0461C81.8445 48.266 81.7065 48.4975 81.5473 48.7076C81.3882 48.9178 81.1255 49.0442 80.953 49.2433C80.7805 49.4425 80.5371 49.5665 80.3519 49.754C80.1667 49.9415 80.102 50.253 79.9052 50.4277C79.7085 50.6024 79.6074 50.9072 79.3998 51.0691C79.1922 51.231 78.6862 50.9689 78.4683 51.1162C78.2504 51.2634 78.1893 51.6427 77.9623 51.7759C77.7353 51.909 77.5435 52.1088 77.308 52.2267C77.0726 52.3445 76.6943 52.1234 76.4516 52.2254C76.2107 52.3268 75.9813 52.4075 75.7325 52.4936C75.4855 52.5785 75.31 52.8631 75.0558 52.9322C74.8034 53.0006 74.5534 53.0623 74.2956 53.1142C74.0402 53.1655 73.8313 53.5558 73.5705 53.59C73.312 53.6242 73.0227 53.4935 72.7594 53.5112C72.4991 53.5283 72.2298 53.3628 71.9653 53.3628C71.7008 53.3628 71.4544 53.1515 71.1942 53.1344C70.9303 53.1172 70.6912 53.0513 70.4321 53.0171C70.17 52.9829 69.9304 52.9444 69.6737 52.8931C69.4147 52.8411 69.1502 52.8906 68.8978 52.8228C68.6429 52.7538 68.3778 52.7587 68.1297 52.6738C67.8803 52.5883 67.6993 52.3568 67.4572 52.2554C67.2139 52.1534 66.9778 52.077 66.743 51.9603C66.5082 51.8437 66.1159 52.0263 65.8896 51.8937C65.6632 51.7612 65.5621 51.4222 65.3442 51.275C65.1263 51.1278 64.9242 50.9702 64.7159 50.8089C64.5077 50.6476 64.2917 50.5072 64.0943 50.3325C63.897 50.1578 63.5901 50.1016 63.4049 49.914C63.2197 49.7265 63.227 49.3612 63.0539 49.1621C62.8808 48.963 62.6181 48.8481 62.4577 48.638C62.2973 48.4279 61.9892 48.3222 61.8427 48.1017C61.6962 47.8812 61.4372 47.7169 61.3052 47.4872C61.1733 47.2575 61.4402 46.8104 61.3234 46.5722C61.2066 46.3339 61.1939 46.0664 61.0928 45.8214C60.9923 45.5777 60.381 45.5264 60.2963 45.2747C60.2121 45.0249 60.5838 44.6309 60.5154 44.3738C60.4476 44.1191 60.3761 43.8753 60.3253 43.6145C60.2745 43.3561 60.0124 43.135 59.9785 42.8705C59.9446 42.6091 59.8514 42.3458 59.8344 42.0801C59.8175 41.8174 59.9458 41.5853 59.9458 41.3184C60.3259 41.1913 60.3332 41.3862 60.7333 41.3862C61.1333 41.3862 61.1333 41.5462 61.5328 41.5462C61.9323 41.5462 61.9323 41.0062 62.3318 41.0062C62.7313 41.0062 62.7313 41.2322 63.1301 41.2322C63.529 41.2322 63.5296 41.3996 63.9285 41.3996C64.3274 41.3996 64.328 41.1199 64.7274 41.1199C65.1269 41.1199 65.1275 41.0997 65.5276 41.0997C65.9277 41.0997 65.9283 41.5572 66.329 41.5572C66.7297 41.5572 66.7291 41.3636 67.1292 41.3636C67.5292 41.3636 67.5286 41.0429 67.9287 41.0429C68.3288 41.0429 68.3288 41.5633 68.7289 41.5633C69.129 41.5633 69.1296 41.4693 69.5303 41.4693C69.931 41.4693 69.931 41.5743 70.3311 41.5743C70.7311 41.5743 70.7311 40.9971 71.1312 40.9971C71.5313 40.9971 71.5319 41.0832 71.932 41.0832C72.3321 41.0832 72.3327 41.1938 72.734 41.1938C73.1353 41.1938 73.1347 41.2225 73.5348 41.2225C73.9348 41.2225 73.9354 41.3788 74.3367 41.3788C74.738 41.3788 74.7374 41.5377 75.1381 41.5377C75.5388 41.5377 75.5388 41.5487 75.9401 41.5487C76.3414 41.5487 76.3402 41.4564 76.7403 41.4564C77.1404 41.4564 77.1404 41.2377 77.5404 41.2377C77.9405 41.2377 77.9417 41.0979 78.343 41.0979C78.7443 41.0979 78.7437 41.3862 79.1444 41.3862C79.5451 41.3862 79.5457 41.1718 79.947 41.1718C80.3483 41.1718 80.3489 41.0191 80.7502 41.0191C81.1515 41.0191 81.1515 41.0478 81.5522 41.0478C81.9529 41.0478 81.9541 41.1626 82.356 41.1626C82.7579 41.1626 82.7712 41.4998 83.1731 41.4754C83.575 41.4509 83.5671 41.2048 83.9497 41.3318L83.9509 41.3294Z" fill="#E5B225"/>
<path d="M55.1072 12.1333C55.1072 12.3936 54.8131 12.611 54.7743 12.8602C54.7344 13.1162 55.0558 13.4497 54.9783 13.691C54.8996 13.9365 54.5589 14.074 54.4445 14.3006C54.3289 14.5296 54.2762 14.785 54.1279 14.9914C53.9796 15.1979 53.9584 15.5345 53.7793 15.7153C53.6001 15.8961 53.2569 15.9016 53.0517 16.0524C52.8466 16.2033 52.7406 16.5381 52.5137 16.6553C52.2891 16.7708 51.9314 16.5796 51.6881 16.6596C51.449 16.7378 51.2232 16.7977 50.9696 16.838C50.7227 16.8771 50.489 16.9809 50.2312 16.9809C49.9733 16.9809 49.681 17.2527 49.434 17.2136C49.1804 17.1733 48.9994 16.7781 48.761 16.6993C48.5177 16.6199 48.1369 16.8416 47.9124 16.7262C47.6854 16.6095 47.4584 16.419 47.2545 16.2687C47.0505 16.1184 46.9536 15.8032 46.7745 15.6224C46.5953 15.4416 46.352 15.295 46.2031 15.0879C46.0542 14.8809 45.9477 14.6255 45.8315 14.3965C45.7171 14.1699 45.7982 13.8589 45.7195 13.614C45.642 13.3727 45.3975 13.1693 45.3575 12.9134C45.3188 12.6642 45.2686 12.3948 45.2686 12.1339C45.2686 11.8731 45.415 11.6196 45.4538 11.3698C45.4937 11.1139 45.3424 10.7968 45.4199 10.5556C45.4986 10.31 45.5966 10.0351 45.711 9.80912C45.8266 9.58005 46.1377 9.4475 46.286 9.24104C46.4343 9.03458 46.6383 8.86965 46.8174 8.68885C46.9966 8.50804 47.292 8.48727 47.4978 8.33701C47.7036 8.18674 47.8361 7.95646 48.0631 7.83979C48.2877 7.72434 48.5709 7.81169 48.8136 7.73228C49.0527 7.65409 49.1774 7.07441 49.431 7.03471C49.678 6.99561 49.9733 7.31019 50.2312 7.31019C50.489 7.31019 50.7874 6.97668 51.0344 7.01638C51.288 7.0567 51.5591 7.19108 51.7982 7.26927C52.0415 7.34868 52.2407 7.59484 52.4652 7.7109C52.6922 7.82757 52.6977 8.2747 52.9022 8.42497C53.1068 8.57523 53.6237 8.34983 53.8029 8.53064C53.982 8.71145 53.795 9.205 53.9445 9.41268C54.094 9.62037 54.3386 9.73459 54.4542 9.96366C54.5686 10.1903 54.6654 10.4096 54.7447 10.6551C54.8222 10.8964 55.1617 11.0851 55.2011 11.3411C55.2398 11.5903 55.1072 11.8756 55.1072 12.1358V12.1333Z" fill="#665510"/>
<path d="M67.9971 78.1321C67.6037 78.1321 67.6037 78.4485 67.2103 78.4485C66.8168 78.4485 66.8168 78.4944 66.4234 78.4944C66.03 78.4944 66.03 78.1224 65.6366 78.1224C65.2431 78.1224 65.2431 78.0191 64.8491 78.0191C64.4551 78.0191 64.4551 78.4467 64.061 78.4467C63.667 78.4467 63.667 78.2335 63.273 78.2335C62.8789 78.2335 62.8795 78.0692 62.4867 78.0692C62.0939 78.0692 62.0939 78.3838 61.7011 78.3838C61.3083 78.3838 61.3089 78.5218 60.916 78.5218C60.5232 78.5218 60.5238 77.9806 60.1316 77.9806C59.7394 77.9806 59.7394 78.5353 59.3472 78.5353C58.955 78.5353 58.955 78.352 58.5621 78.352C58.1693 78.352 58.1693 78.4656 57.7771 78.4656C57.3849 78.4656 57.3843 78.035 56.9909 78.035C56.5974 78.035 56.5974 78.4125 56.2034 78.4125C55.8094 78.4125 55.8088 78.3044 55.4147 78.3044C55.0207 78.3044 55.0207 78.5512 54.6273 78.5512C54.2338 78.5512 54.2338 78.0735 53.8404 78.0735C53.447 78.0735 53.447 77.9764 53.0542 77.9764C52.6614 77.9764 52.6607 78.1138 52.2679 78.1138C51.8751 78.1138 51.8745 77.966 51.4811 77.966C51.0876 77.966 51.087 77.9678 50.693 77.9678C50.299 77.9678 50.2984 78.5567 49.9037 78.5567C49.5091 78.5567 49.5097 78.0576 49.1157 78.0576C48.7216 78.0576 48.7222 78.1853 48.3282 78.1853C47.9342 78.1853 47.9342 78.341 47.5401 78.341C47.1461 78.341 47.1455 78.0729 46.7509 78.0729C46.3562 78.0729 46.3562 78.4589 45.9622 78.4589C45.5682 78.4589 45.5682 78.4088 45.1741 78.4088C44.7801 78.4088 44.7795 78.2977 44.3855 78.2977C43.9914 78.2977 43.9908 78.4113 43.5956 78.4113C43.2003 78.4113 43.201 78.0601 42.8069 78.0601C42.4129 78.0601 42.4123 78.5579 42.017 78.5579C41.6218 78.5579 41.6224 78.4229 41.2278 78.4229C40.8331 78.4229 40.8331 78.1633 40.4385 78.1633C40.0439 78.1633 40.0445 78.1859 39.6504 78.1859C39.2564 78.1859 39.2564 78.1975 38.8624 78.1975C38.4683 78.1975 38.4671 78.5542 38.0719 78.5542C37.6766 78.5542 37.6772 78.3166 37.2826 78.3166C36.888 78.3166 36.8874 78.0527 36.4921 78.0527C36.0969 78.0527 36.0969 78.33 35.701 78.33C35.3052 78.33 35.3058 78.4174 34.9112 78.4174C34.5165 78.4174 34.5153 78.0796 34.1195 78.0796C33.7236 78.0796 33.723 78.0344 33.3266 78.0344C32.9301 78.0344 32.9301 78.071 32.5336 78.071C32.2831 78.071 32.1602 77.9287 31.9429 77.8377C31.7171 77.743 31.5501 77.7339 31.38 77.5622C31.2099 77.3906 31.0852 77.2696 30.992 77.0424C30.9018 76.8225 30.8873 76.6503 30.8873 76.398C30.8873 75.9679 30.825 75.9679 30.825 75.5379C30.825 75.1079 30.6924 75.1067 30.6924 74.676C30.6924 74.2454 30.6083 74.2442 30.6083 73.8129C30.6083 73.3817 30.6186 73.3811 30.6186 72.9498C30.6186 72.6468 30.6815 72.3182 30.8104 72.0629C30.943 71.8008 31.3594 71.8167 31.5949 71.6439C31.8243 71.4753 31.9405 71.0965 32.2371 71.0495C32.639 70.9854 32.6541 71.0825 33.056 71.019C33.4579 70.9554 33.4646 70.9964 33.8671 70.9322C34.2696 70.8681 34.2387 70.669 34.6412 70.6054C35.0437 70.5419 35.1042 70.9304 35.5061 70.8669C35.908 70.8033 35.8651 70.5211 36.2676 70.457C36.6701 70.3929 36.7022 70.5981 37.1047 70.534C37.5072 70.4698 37.4515 70.1131 37.854 70.0496C38.2565 69.986 38.2644 70.0398 38.6657 69.9763C39.0669 69.9128 39.0887 70.0496 39.4906 69.9861C39.8925 69.9225 39.8913 69.906 40.2944 69.8419C40.6976 69.7778 40.6927 69.7515 41.0952 69.6874C41.4977 69.6232 41.4905 69.575 41.8936 69.5108C42.2967 69.4467 42.2749 69.3062 42.6786 69.2421C43.0823 69.1779 43.1422 69.5682 43.5454 69.5047C43.9485 69.4412 43.9249 69.2842 44.3286 69.2201C44.7323 69.1559 44.696 68.9177 45.1003 68.8536C45.5046 68.7894 45.5325 68.9666 45.9368 68.9024C46.197 68.8609 46.4567 68.8126 46.7176 68.779C46.9785 68.7454 47.2194 68.4913 47.4808 68.4651C47.7423 68.4388 48.0498 68.9495 48.3125 68.9305C48.5752 68.9116 48.8088 68.3912 49.0715 68.3796C49.3342 68.368 49.6053 68.4412 49.868 68.4376C50.1307 68.4339 50.3934 68.8053 50.6567 68.809C50.92 68.8126 51.1881 68.5433 51.4514 68.5543C51.7147 68.5652 51.9949 68.3527 52.257 68.3716C52.5191 68.3906 52.7521 68.7913 53.0142 68.8175C53.2763 68.8438 53.5711 68.5872 53.8326 68.6214C54.094 68.6557 54.321 68.9397 54.5813 68.9812C54.9832 69.0454 54.9777 69.082 55.3796 69.1455C55.7815 69.2091 55.8215 68.9544 56.224 69.0185C56.6265 69.0826 56.5672 69.462 56.9703 69.5261C57.3734 69.5902 57.4363 69.1822 57.8382 69.2463C58.2401 69.3105 58.1802 69.6996 58.5827 69.7637C58.9852 69.8278 59.0355 69.5035 59.438 69.5676C59.8405 69.6318 59.8048 69.8621 60.2073 69.9256C60.6098 69.9891 60.6431 69.7698 61.045 69.8333C61.4469 69.8969 61.4626 69.7936 61.8645 69.8578C62.2664 69.9219 62.2259 70.1907 62.629 70.2542C63.0321 70.3177 63.0018 70.5059 63.4043 70.5694C63.8068 70.6329 63.8056 70.6451 64.2081 70.7093C64.6106 70.7734 64.6693 70.4039 65.0724 70.468C65.4756 70.5321 65.4265 70.8455 65.829 70.9096C66.2315 70.9738 66.2866 70.6274 66.6903 70.6916C67.0941 70.7557 67.1025 70.705 67.5068 70.7691C67.9112 70.8333 67.8506 71.2205 68.2556 71.2847C68.5522 71.3317 68.9183 71.179 69.1483 71.3476C69.3838 71.5205 69.6774 71.755 69.8093 72.0165C69.9382 72.2718 69.6398 72.6468 69.6398 72.9498C69.6398 73.3798 69.9715 73.3798 69.9715 73.8099C69.9715 74.2399 69.8928 74.2411 69.8928 74.6718C69.8928 75.1024 69.6138 75.1036 69.6138 75.5349C69.6138 75.9661 70.0006 75.9667 70.0006 76.398C70.0006 76.6509 69.5781 76.8017 69.4879 77.021C69.3941 77.2489 69.2894 77.3594 69.1193 77.5311C68.9492 77.7027 68.9226 78.01 68.6968 78.104C68.4789 78.195 68.2465 78.1315 67.9965 78.1315L67.9971 78.1321Z" fill="#B88A1D"/>
<path d="M71.6632 92.7164C71.2982 92.5454 71.2716 92.6077 71.1342 92.2259C70.9968 91.8441 71.047 91.8258 70.909 91.444C70.771 91.0623 71.0561 90.9572 70.9181 90.5748C70.7801 90.1924 70.4611 90.3091 70.3231 89.9267C70.1851 89.5443 70.222 89.5315 70.084 89.1491C69.946 88.7667 69.828 88.8107 69.6906 88.4289C69.5532 88.0472 69.805 87.9543 69.6676 87.5719C69.5302 87.1896 69.3026 87.2726 69.1652 86.8896C69.0278 86.5067 69.3958 86.3717 69.2578 85.9893C69.1198 85.6069 69.1047 85.6124 68.9667 85.2306C68.8287 84.8488 68.859 84.8372 68.721 84.4543C68.583 84.0713 68.4528 84.1189 68.3148 83.7359C68.1768 83.3529 68.1556 83.3609 68.0182 82.9785C67.8808 82.5961 68.0939 82.5173 67.9559 82.1343C67.8179 81.7513 67.56 81.8478 67.4226 81.4667C67.2853 81.0855 67.0383 81.1741 66.9003 80.7911C66.7623 80.4081 66.9179 80.3519 66.7799 79.9695C66.6419 79.5871 66.5166 79.6335 66.3792 79.2512C66.2418 78.8688 66.5735 78.7454 66.4355 78.3624C66.2975 77.9794 66.0166 78.0826 65.8786 77.6996C65.7406 77.3167 66.1268 77.1743 65.9882 76.7913C65.8495 76.4083 65.5971 76.5 65.4591 76.1164C65.3211 75.7328 65.6274 75.6204 65.4894 75.2374C65.3514 74.8544 65.0911 74.9491 64.9531 74.5648C64.8151 74.1806 64.8745 74.158 64.7358 73.7726C64.5972 73.3872 64.2752 73.4244 64.4447 73.0518C64.6124 72.6841 64.8617 73.1483 65.2388 73.0103C65.6159 72.8722 65.4489 72.4086 65.8253 72.2706C66.2018 72.1325 66.2962 72.3933 66.6733 72.2553C67.0504 72.1172 66.9306 71.7843 67.3083 71.6457C67.6859 71.507 67.8185 71.8778 68.1956 71.7397C68.5727 71.6017 68.6417 71.791 69.0188 71.653C69.3958 71.515 69.2996 71.2523 69.6755 71.1142C70.0513 70.9762 69.9612 70.7215 70.3388 70.5828C70.7165 70.4442 70.8467 70.8082 71.2231 70.6702C71.5996 70.5321 71.5639 70.4326 71.9404 70.2939C72.3169 70.1552 72.2049 69.84 72.5826 69.7014C72.9603 69.5627 73.1049 69.9665 73.4826 69.8278C73.8603 69.6892 73.7719 69.4436 74.1496 69.305C74.5273 69.1663 74.5521 69.2341 74.9304 69.0948C75.3087 68.9556 75.2936 68.9165 75.6713 68.7778C76.049 68.6391 76.1337 68.8725 76.512 68.7338C76.8903 68.5952 76.7402 68.1749 77.1191 68.0356C77.498 67.8964 77.5216 68.0698 77.8878 68.2415C78.254 68.4131 78.2268 68.3826 78.3641 68.7638C78.5015 69.1449 78.2582 69.2347 78.3962 69.6165C78.5342 69.9983 78.9131 69.8596 79.0511 70.242C79.1891 70.6244 78.7648 70.7801 78.9022 71.1631C79.0396 71.5461 79.3066 71.4472 79.444 71.8295C79.5813 72.2119 79.4567 72.2571 79.5947 72.6389C79.7327 73.0207 79.8598 72.9742 79.9972 73.3566C80.1346 73.739 80.3022 73.6779 80.4402 74.0609C80.5782 74.4439 80.5534 74.4525 80.6914 74.8354C80.8294 75.2184 80.801 75.2282 80.939 75.6106C81.077 75.993 80.7429 76.1158 80.8809 76.4981C81.0189 76.8805 81.3173 76.7718 81.4553 77.1548C81.5933 77.5378 81.6132 77.5298 81.7512 77.9128C81.8892 78.2958 81.9613 78.2696 82.0993 78.6525C82.2373 79.0355 81.7186 79.2243 81.856 79.6055C81.9934 79.9866 82.1144 79.9445 82.2524 80.3275C82.3904 80.7105 82.7493 80.5779 82.8867 80.9603C83.0241 81.3427 82.9715 81.3622 83.1095 81.744C83.2475 82.1258 82.989 82.2223 83.127 82.6059C83.265 82.9895 83.1234 83.0408 83.2614 83.4238C83.3994 83.8068 83.8733 83.6333 84.0113 84.0169C84.1493 84.4005 83.9647 84.4683 84.1033 84.8525C84.2419 85.2367 84.3866 85.1824 84.5246 85.566C84.6626 85.9496 84.6517 85.9539 84.7903 86.3375C84.9289 86.7211 84.7697 86.7809 84.9083 87.1657C85.0469 87.5506 85.1916 87.5151 85.0221 87.8877C84.8545 88.2555 84.7558 88.0325 84.3787 88.1712C84.0016 88.3098 84.1136 88.6189 83.7371 88.7576C83.3607 88.8962 83.1863 88.4131 82.8093 88.5511C82.4322 88.6892 82.4316 88.6885 82.0545 88.8272C81.6774 88.9659 81.8324 89.3959 81.4559 89.534C81.0794 89.672 80.9057 89.1925 80.528 89.3305C80.1503 89.4686 80.3452 90.0043 79.9699 90.1423C79.5947 90.2804 79.5414 90.1393 79.1643 90.2779C78.7872 90.4166 78.7188 90.2242 78.3424 90.3628C77.9659 90.5015 77.9205 90.3751 77.544 90.5131C77.1675 90.6512 77.2874 90.9883 76.9097 91.127C76.532 91.2657 76.3898 90.8698 76.0127 91.0085C75.6356 91.1472 75.7645 91.5076 75.3868 91.6462C75.0091 91.7849 75.0684 91.9504 74.6901 92.0891C74.3118 92.2277 74.1775 91.8533 73.7998 91.9919C73.4221 92.1306 73.5195 92.403 73.1413 92.5417C72.763 92.6804 72.6619 92.4269 72.2987 92.604C71.9852 92.7567 72.0306 92.8905 71.6644 92.7188L71.6632 92.7164Z" fill="#3D330A"/>
<path d="M37.7208 96.451C37.5955 96.1029 37.8358 96.0149 37.7105 95.6667C37.5852 95.3186 37.4745 95.3589 37.3486 95.0107C37.2227 94.6625 37.3135 94.6295 37.1882 94.282C37.0629 93.9344 37.2348 93.8703 37.1089 93.5221C36.983 93.1739 36.8075 93.2368 36.6816 92.8874C36.5557 92.538 36.8656 92.4244 36.7397 92.075C36.6428 91.8069 36.2603 91.6236 36.2748 91.3567C36.2899 91.0794 36.2518 90.719 36.3717 90.474C36.4915 90.2291 36.8171 90.0629 37.0254 89.8815C37.2257 89.7068 37.4357 89.4216 37.7051 89.3348C38.0761 89.2084 38.0997 89.2805 38.4695 89.1522C38.8394 89.0239 38.941 89.322 39.3115 89.1937C39.6819 89.0654 39.6904 89.0905 40.0608 88.9622C40.4312 88.8339 40.4197 88.8003 40.7907 88.6715C41.1618 88.5426 41.0407 88.1871 41.4118 88.0582C41.7828 87.9293 41.7622 87.867 42.1338 87.7381C42.5055 87.6092 42.4988 87.5872 42.8711 87.4577C43.2433 87.3282 43.2687 87.4052 43.6404 87.2763C44.012 87.1474 44.0441 87.2433 44.4157 87.1151C44.7874 86.9868 44.7238 86.8017 45.0948 86.6728C45.4659 86.5439 45.6414 87.0595 46.0124 86.9306C46.3835 86.8017 46.2436 86.3894 46.6147 86.2611C46.9857 86.1328 47.1388 86.58 47.5111 86.4511C47.8833 86.3222 47.7986 86.0724 48.1708 85.9435C48.5431 85.8146 48.5915 85.9581 48.9631 85.8293C49.3348 85.7004 49.3717 85.8091 49.7433 85.6802C50.115 85.5513 50.0641 85.4017 50.4358 85.2728C50.8074 85.1439 50.785 85.0755 51.1572 84.946C51.5295 84.8165 51.432 84.53 51.8043 84.4011C52.1765 84.2722 52.2945 84.6192 52.6662 84.4903C53.0378 84.3614 52.9301 84.0426 53.3023 83.9137C53.6746 83.7848 53.6915 83.8324 54.0638 83.7035C54.436 83.5747 54.574 83.9796 54.9462 83.8508C55.3185 83.7219 55.1768 83.3047 55.5497 83.1758C55.9225 83.0469 56.0339 83.3792 56.4049 83.2503C56.776 83.1214 56.7167 82.9418 57.0895 82.8129C57.4624 82.6841 57.4829 82.7464 57.8546 82.6175C58.2262 82.4886 58.1185 82.171 58.4901 82.0421C58.8617 81.9132 58.9574 82.1893 59.3308 82.0598C59.7043 81.9303 59.7485 82.0622 60.1207 81.9333C60.4929 81.8045 60.5166 81.871 60.8894 81.7415C61.2622 81.6121 61.1448 81.2645 61.5183 81.1356C61.8917 81.0067 62.0207 81.3866 62.3935 81.2572C62.7664 81.1277 62.7385 81.0434 63.112 80.9139C63.4854 80.7844 63.3952 80.5162 63.7699 80.3861C64.1446 80.256 64.314 79.8309 64.6675 80.0104C65.0361 80.1974 64.7014 80.6243 64.8424 81.0159C64.9835 81.4074 64.8346 81.4636 64.9756 81.8558C65.1166 82.2479 65.4616 82.1215 65.6027 82.513C65.7437 82.9046 65.5924 82.9614 65.7334 83.3535C65.8744 83.7457 66.007 83.698 66.1486 84.0908C66.2902 84.4836 65.9997 84.5899 66.1413 84.982C66.283 85.3742 66.6461 85.2416 66.7878 85.635C66.9294 86.0284 66.8035 86.0754 66.9451 86.4688C67.0868 86.8622 67.3924 86.9721 67.2314 87.3582C67.0795 87.7222 66.7061 87.3643 66.3405 87.506C65.9749 87.6477 65.9876 87.6813 65.6226 87.823C65.2576 87.9647 65.2776 88.0191 64.912 88.1602C64.5465 88.3013 64.4411 88.0264 64.0756 88.1681C63.71 88.3098 63.7354 88.3783 63.3692 88.52C63.003 88.6617 63.1023 88.9237 62.7355 89.0661C62.3687 89.2084 62.3772 89.2328 62.0098 89.3751C61.6424 89.5175 61.5322 89.2267 61.1654 89.3684C60.7986 89.5101 60.8809 89.7258 60.5147 89.8681C60.1485 90.0104 60.246 90.2664 59.8798 90.4081C59.5136 90.5498 59.3581 90.1411 58.9913 90.2828C58.6245 90.4246 58.6898 90.5968 58.3231 90.7385C57.9563 90.8802 57.8515 90.6066 57.4841 90.7489C57.1167 90.8912 57.213 91.1453 56.8456 91.2877C56.4782 91.43 56.4758 91.422 56.1084 91.5644C55.741 91.7067 55.6356 91.4288 55.2688 91.5705C54.9021 91.7122 55.0316 92.0536 54.6648 92.196C54.298 92.3383 54.3404 92.4519 53.973 92.5942C53.6056 92.7366 53.591 92.6987 53.2236 92.841C52.8562 92.9833 52.717 92.6168 52.3496 92.7592C51.9822 92.9015 52.021 93.0035 51.6536 93.1458C51.2862 93.2881 51.2747 93.26 50.9073 93.4024C50.5399 93.5447 50.5169 93.4842 50.1495 93.6265C49.7821 93.7689 49.7863 93.7811 49.4183 93.9234C49.0503 94.0657 49.1841 94.4127 48.8179 94.555C48.4517 94.6973 48.4632 94.7315 48.0952 94.8745C47.7272 95.0174 47.6515 94.8152 47.2841 94.9576C46.9167 95.0999 46.832 94.8769 46.4652 95.0192C46.0984 95.1616 46.1813 95.3845 45.8133 95.5275C45.4453 95.6704 45.4507 95.6838 45.0833 95.8262C44.7159 95.9685 44.7226 95.988 44.354 96.131C43.9854 96.2739 43.9127 96.0821 43.5441 96.225C43.1755 96.368 43.1755 96.3667 42.8075 96.5097C42.4395 96.6526 42.5951 97.0631 42.2265 97.206C41.8578 97.349 41.7277 97.01 41.3579 97.1535C40.9881 97.2971 41.0123 97.3612 40.6437 97.5066C40.3822 97.6147 40.1249 97.994 39.8598 97.9903C39.5844 97.9861 39.2606 97.7729 39.0131 97.6623C38.7655 97.5518 38.5652 97.2891 38.3769 97.0863C38.1959 96.8908 37.8183 96.7216 37.722 96.4535L37.7208 96.451Z" fill="#7A2900"/>
<path d="M61.6176 72.8661C61.4554 72.4159 61.1951 72.5118 61.0329 72.0617C60.8707 71.6115 60.8701 71.6121 60.7085 71.1619C60.6177 70.909 60.5578 70.5834 60.5687 70.3306C60.5802 70.0685 60.5789 69.7051 60.6867 69.4711C60.7944 69.2372 61.0577 68.9892 61.2496 68.812C61.4342 68.641 61.8409 68.7894 62.0915 68.6972C62.4632 68.561 62.3185 68.1609 62.6901 68.024C63.0618 67.8872 63.2028 68.2775 63.5744 68.1407C63.9461 68.0039 63.8613 67.7675 64.233 67.6313C64.6046 67.4951 64.6924 67.7388 65.064 67.6026C65.4356 67.4664 65.3999 67.3668 65.7722 67.23C66.1444 67.0931 66.0536 66.8402 66.4259 66.704C66.7981 66.5678 66.8683 66.7627 67.24 66.6265C67.6116 66.4902 67.6273 66.5312 67.9996 66.3943C68.3718 66.2575 68.3234 66.128 68.6938 65.9918C69.0642 65.8556 69.0981 65.9429 69.4704 65.8061C69.8426 65.6693 69.7851 65.5129 70.1568 65.3761C70.5284 65.2393 70.5048 65.1739 70.8764 65.0371C71.2481 64.9002 71.334 65.1354 71.7069 64.9986C72.0797 64.8618 72.0664 64.8263 72.4386 64.6895C72.8109 64.5527 72.9313 64.8862 73.3042 64.7494C73.677 64.6125 73.5536 64.2686 73.9264 64.1318C74.2992 63.995 74.269 63.9113 74.6412 63.7745C75.0135 63.6376 75.077 63.8123 75.4505 63.6749C75.8239 63.5375 75.741 63.306 76.1157 63.1685C76.4903 63.0311 76.6659 63.5198 77.0399 63.3823C77.2905 63.2907 77.4424 63.0067 77.693 63.0176C77.9527 63.0293 78.0816 63.3249 78.3134 63.4342C78.5452 63.5436 78.7879 63.513 78.9635 63.7067C79.1329 63.893 79.5046 63.9773 79.5954 64.2301C79.7576 64.6803 79.3769 64.8196 79.5385 65.2698C79.7001 65.72 79.9531 65.6271 80.1153 66.0767C80.2061 66.3296 80.4421 66.6026 80.4306 66.8555C80.4191 67.1176 79.9452 67.269 79.8369 67.5036C79.7285 67.7382 79.9495 68.2366 79.7576 68.4138C79.573 68.5848 79.1923 68.5713 78.9423 68.663C78.5706 68.7992 78.6257 68.9519 78.2541 69.0881C77.8825 69.2243 77.779 68.9378 77.4067 69.0741C77.0345 69.2103 77.1404 69.5041 76.7688 69.6403C76.3971 69.7765 76.4201 69.8401 76.0485 69.9769C75.6768 70.1137 75.4886 69.5927 75.117 69.7289C74.7453 69.8651 74.8246 70.088 74.4524 70.2249C74.0801 70.3617 74.1649 70.595 73.7926 70.7313C73.4204 70.8675 73.4398 70.9212 73.0669 71.0581C72.6941 71.1949 72.5748 70.8571 72.2038 70.9927C71.8328 71.1283 71.9593 71.485 71.587 71.6212C71.2148 71.7575 71.1658 71.6194 70.7941 71.7556C70.4225 71.8918 70.4134 71.8668 70.0418 72.003C69.6701 72.1392 69.6955 72.2144 69.3227 72.3512C68.9499 72.488 68.7925 72.0488 68.4202 72.1857C68.048 72.3225 68.2387 72.8527 67.8658 72.9895C67.493 73.1263 67.3774 72.8063 67.0039 72.9431C66.6305 73.0799 66.711 73.3004 66.3381 73.4373C65.9653 73.5741 65.9713 73.5918 65.5979 73.7286C65.2244 73.8654 65.1136 73.5606 64.7396 73.6981C64.3655 73.8355 64.3189 73.706 63.9443 73.8435C63.6937 73.9351 63.52 74.3297 63.2694 74.3187C63.0097 74.3071 62.7888 74.0719 62.557 73.9626C62.3252 73.8532 62.3082 73.5527 62.1327 73.3591C61.9632 73.1728 61.7066 73.1172 61.6152 72.8649L61.6176 72.8661Z" fill="#7A2900"/>
<path d="M69.8292 96.7852C69.667 96.335 70.0338 96.2006 69.8716 95.751C69.7094 95.3015 69.5387 95.3638 69.3765 94.9142C69.2857 94.6613 69.3414 94.3809 69.3523 94.128C69.3638 93.866 69.1265 93.4824 69.2348 93.2484C69.3432 93.0145 69.9176 93.0957 70.1094 92.9186C70.2941 92.7476 70.2626 92.163 70.5126 92.0708C70.8842 91.9345 70.9205 92.0347 71.2915 91.8985C71.6626 91.7623 71.6462 91.714 72.0185 91.5772C72.3907 91.4404 72.4167 91.5143 72.789 91.3781C73.1612 91.2419 73.1885 91.3194 73.5601 91.1826C73.9317 91.0458 73.9227 91.0195 74.2943 90.8827C74.6659 90.7459 74.6514 90.7037 75.0236 90.5675C75.3959 90.4313 75.4806 90.6664 75.8523 90.5296C76.2239 90.3928 76.2445 90.449 76.6173 90.3122C76.9902 90.1753 76.9587 90.0941 77.3291 89.9579C77.6996 89.8217 77.7813 90.0422 78.1535 89.9053C78.5257 89.7685 78.3351 89.242 78.7067 89.1058C79.0784 88.9695 79.0669 88.9378 79.4385 88.8016C79.8101 88.6654 79.959 89.074 80.3319 88.9372C80.7047 88.8003 80.5734 88.4381 80.9456 88.3013C81.3179 88.1645 81.3572 88.272 81.7301 88.1351C82.1029 87.9983 82.1035 87.9989 82.4764 87.8621C82.8492 87.7253 82.8873 87.8316 83.2602 87.6947C83.633 87.5579 83.7141 87.7809 84.087 87.644C84.4598 87.5072 84.3987 87.3331 84.7728 87.1957C85.1468 87.0583 85.0954 86.9147 85.4694 86.7773C85.72 86.6856 86.0208 86.6203 86.2714 86.6313C86.5311 86.6429 86.8186 86.7528 87.0504 86.8622C87.2822 86.9715 87.5606 87.1138 87.7362 87.3069C87.9056 87.4932 88.0328 87.7796 88.1235 88.0325C88.2858 88.4827 88.336 88.4638 88.4982 88.914C88.6604 89.3641 88.7712 89.3232 88.9334 89.7728C89.0242 90.0257 88.9963 90.3885 88.9855 90.6414C88.974 90.9034 88.5817 91.0873 88.474 91.3213C88.3663 91.5552 88.5509 92.0561 88.359 92.2338C88.1744 92.4049 87.8076 92.4806 87.557 92.5723C87.1854 92.7085 87.0468 92.3243 86.6757 92.4605C86.3047 92.5967 86.3785 92.8044 86.0063 92.9406C85.6341 93.0768 85.6335 93.0737 85.2612 93.2106C84.889 93.3474 84.9459 93.5032 84.5742 93.6394C84.2026 93.7756 84.1166 93.5386 83.745 93.6748C83.3734 93.811 83.3958 93.8758 83.0235 94.0126C82.6513 94.1494 82.7203 94.34 82.3486 94.4768C81.977 94.6137 81.9389 94.5098 81.5666 94.6466C81.1944 94.7835 81.1932 94.7749 80.8222 94.9111C80.4511 95.0473 80.3458 94.759 79.9736 94.8959C79.6013 95.0327 79.723 95.368 79.3513 95.5042C78.9797 95.6405 78.9936 95.6802 78.622 95.8164C78.2504 95.9526 78.2891 96.0638 77.9162 96.2006C77.5434 96.3374 77.4901 96.1884 77.1185 96.3252C76.7469 96.462 76.7808 96.5586 76.4079 96.6954C76.0351 96.8322 76.0066 96.7534 75.6332 96.8902C75.2597 97.0271 75.1265 96.6557 74.7543 96.7925C74.3821 96.9293 74.4371 97.0845 74.0637 97.2213C73.6902 97.3581 73.8264 97.7393 73.4524 97.8767C73.0783 98.0142 72.91 97.5475 72.536 97.6849C72.2854 97.7766 72.099 97.9696 71.8484 97.958C71.5887 97.9464 71.4404 97.6874 71.2086 97.5786C70.9768 97.4699 70.5991 97.6006 70.4236 97.407C70.2541 97.2207 69.92 97.0362 69.8292 96.7839V96.7852Z" fill="#7A2900"/>
</g>
<defs>
<clipPath id="clip0_2973_8746">
<rect width="73" height="91" fill="white" transform="translate(16 7)"/>
</clipPath>
</defs>
</svg>
