<svg width="104" height="104" viewBox="0 0 104 104" fill="none" xmlns="http://www.w3.org/2000/svg">
<g clip-path="url(#clip0_2973_8786)">
<path d="M44.4732 78.2576C44.4732 78.3896 44.4881 78.4766 44.4106 78.6051C44.3467 78.7109 44.3872 78.9236 44.2731 79.0261C44.1798 79.1103 43.9998 79.1103 43.8743 79.1923C43.7668 79.2625 43.6561 79.3439 43.5258 79.4122C43.4104 79.4727 43.2498 79.449 43.1173 79.5081C42.9971 79.5616 42.9595 79.8316 42.8254 79.8838C42.7021 79.9319 42.4836 79.7379 42.3485 79.7848C42.2227 79.8284 42.1645 80.0905 42.0288 80.1332C41.9014 80.1734 41.7708 80.226 41.6352 80.2652C41.5065 80.3026 41.3613 80.3026 41.2253 80.339C41.0954 80.3738 40.943 80.3368 40.8063 80.3703C40.6754 80.4026 40.5559 80.4975 40.4193 80.5292C40.2877 80.5596 40.1056 80.3735 39.9684 80.4029C39.8362 80.4317 39.7103 80.4947 39.5731 80.5229C39.4403 80.5498 39.3094 80.5928 39.1721 80.6191C39.0387 80.6447 38.8932 80.6071 38.7557 80.6321C38.6219 80.6561 38.527 80.9106 38.3898 80.934C38.2557 80.9568 38.0948 80.8292 37.9572 80.8514C37.8228 80.8732 37.6919 80.9242 37.5543 80.9454C37.4196 80.966 37.2751 80.9277 37.1376 80.9476C37.0025 80.9672 36.8678 80.9929 36.73 81.0119C36.5949 81.0305 36.4621 81.0733 36.3243 81.0913C36.1892 81.109 36.0741 81.2901 35.9366 81.3072C35.8015 81.324 35.6675 81.367 35.5299 81.3831C35.3946 81.399 35.2418 81.2777 35.1043 81.2929C34.9686 81.3081 34.8415 81.4129 34.7036 81.4274C34.5677 81.442 34.4361 81.511 34.2982 81.5249C34.1623 81.5385 34.0187 81.4926 33.8808 81.5056C33.7445 81.5186 33.588 81.3176 33.4498 81.33C33.3135 81.3423 33.1807 81.4015 33.0425 81.4132C32.9059 81.4249 32.7839 81.6211 32.6457 81.6322C32.5091 81.6433 32.3585 81.4873 32.22 81.4977C32.0831 81.5082 31.9528 81.6142 31.8143 81.624C31.6774 81.6338 31.5294 81.4885 31.3909 81.4977C31.2546 81.5066 31.131 81.7246 30.9931 81.7332C30.8565 81.7417 30.7142 81.6708 30.5763 81.6788C30.4394 81.6867 30.3066 81.7788 30.1684 81.7861C30.0315 81.7933 29.8863 81.6518 29.7482 81.6588C29.6109 81.6655 29.4727 81.6572 29.3345 81.6636C29.1973 81.6699 29.0639 81.7778 28.9254 81.7835C28.7878 81.7892 28.6487 81.7648 28.5102 81.7699C28.3732 81.775 28.2385 81.8601 28.1003 81.8649C27.9631 81.8693 27.824 81.8373 27.6858 81.8411C27.5482 81.8452 27.4135 81.9737 27.275 81.9775C27.1375 81.981 26.9983 81.9734 26.8598 81.9766C26.7213 81.9798 26.5777 81.6924 26.4392 81.6949C26.3017 81.6974 26.1657 81.8035 26.0272 81.8054C25.8887 81.8073 25.7505 81.7582 25.6117 81.7598C25.4729 81.7614 25.3366 81.9576 25.1974 81.9585C25.0593 81.9595 24.9204 81.9785 24.7813 81.9788C24.6422 81.9791 24.5027 81.9418 24.3629 81.9418C24.2244 81.9418 24.0859 81.8914 23.9477 81.8911C23.8096 81.8908 23.6717 81.7262 23.5338 81.7253C23.395 81.7243 23.2546 81.9842 23.1167 81.9826C22.9779 81.981 22.8429 81.7341 22.705 81.7319C22.5662 81.73 22.4289 81.6993 22.2911 81.6968C22.1523 81.6943 22.01 81.906 21.8721 81.9028C21.7333 81.8997 21.5935 81.9481 21.4556 81.9443C21.3168 81.9408 21.1786 81.9231 21.0411 81.919C20.9022 81.9149 20.7625 81.9487 20.6249 81.9443C20.4861 81.9396 20.3561 81.7041 20.2183 81.699C20.0798 81.6939 19.9428 81.6617 19.8053 81.656C19.6668 81.6503 19.5254 81.7234 19.3879 81.7171C19.2494 81.7107 19.1039 81.8576 18.9663 81.8509C18.8278 81.844 18.6979 81.6746 18.5603 81.6674C18.4218 81.6601 18.2792 81.7332 18.142 81.7253C18.0035 81.7174 17.8706 81.623 17.7334 81.6145C17.5949 81.606 17.4507 81.6955 17.3135 81.6864C17.175 81.6772 17.0349 81.6955 16.898 81.6857C16.7594 81.6759 16.6184 81.7044 16.4815 81.6943C16.343 81.6838 16.207 81.6462 16.0701 81.6351C15.9316 81.624 15.8092 81.4319 15.6723 81.4202C15.5341 81.4085 15.3896 81.48 15.253 81.4676C15.1148 81.4553 14.9864 81.3474 14.8501 81.3344C14.7119 81.3211 14.5541 81.517 14.4178 81.5034C14.2797 81.4895 14.137 81.5211 14.0011 81.5069C13.8629 81.4923 13.7456 81.2958 13.6096 81.2806C13.4717 81.2651 13.3411 81.1961 13.2055 81.1799C13.0676 81.1638 12.9348 81.1204 12.7991 81.1033C12.6612 81.0862 12.531 81.0264 12.3959 81.0087C12.2584 80.9907 12.1123 81.0489 11.9773 81.0302C11.8397 81.0112 11.6924 81.0723 11.5576 81.0527C11.4201 81.0328 11.2772 81.0578 11.1428 81.0372C11.0055 81.016 10.8629 81.0334 10.7288 81.0116C10.5916 80.9894 10.4866 80.7824 10.3525 80.7596C10.2153 80.7362 10.0521 80.8694 9.91868 80.8454C9.78144 80.8204 9.64894 80.7767 9.51581 80.7511C9.37857 80.7248 9.2388 80.7188 9.10599 80.6919C8.96907 80.664 8.87863 80.4267 8.74645 80.3978C8.60953 80.3681 8.45268 80.4456 8.32082 80.4153C8.18421 80.3836 8.0514 80.3504 7.92049 80.3178C7.7842 80.2839 7.64221 80.2864 7.51225 80.2516C7.37627 80.2152 7.22164 80.2567 7.09294 80.2193C6.95728 80.1801 6.85325 80.0465 6.72581 80.0063C6.59015 79.9636 6.46335 79.9107 6.33749 79.8667C6.20247 79.8196 6.09811 79.7117 5.97447 79.6635C5.84103 79.6113 5.68608 79.6322 5.56623 79.5787C5.43405 79.5199 5.34583 79.3942 5.23104 79.3338C5.10171 79.2657 4.89775 79.3432 4.79086 79.2733C4.66596 79.1916 4.65521 78.9812 4.56224 78.897C4.44903 78.7944 4.32982 78.7362 4.26626 78.6308C4.18973 78.5032 4 78.3887 4 78.2576C4 78.1256 4.04301 77.9212 4.1208 77.7927C4.18467 77.687 4.48034 77.7499 4.59418 77.6471C4.68746 77.5629 4.73268 77.4163 4.85854 77.3344C4.96605 77.2641 5.0957 77.222 5.22598 77.1536C5.3414 77.0932 5.44322 76.9941 5.57604 76.9349C5.6962 76.8814 5.85874 76.9226 5.99281 76.8704C6.11614 76.8223 6.16262 76.5497 6.29765 76.5029C6.4235 76.4592 6.6009 76.5529 6.73656 76.5102C6.864 76.47 7.02622 76.539 7.16219 76.4997C7.29089 76.4624 7.42402 76.4387 7.56031 76.4023C7.69028 76.3674 7.7921 76.2168 7.92839 76.1829C8.05931 76.1506 8.15449 75.9531 8.29141 75.9215C8.42296 75.8911 8.60826 76.0864 8.74519 76.0569C8.87737 76.0281 8.98899 75.8905 9.12591 75.8626C9.25873 75.8357 9.39502 75.8136 9.53226 75.7873C9.6657 75.7616 9.82824 75.8857 9.96548 75.861C10.0992 75.837 10.2153 75.7053 10.3525 75.6816C10.4866 75.6588 10.6419 75.7578 10.7794 75.7357C10.9138 75.7138 11.0077 75.4258 11.1456 75.4046C11.2803 75.3841 11.4182 75.3692 11.5561 75.3492C11.6911 75.3296 11.8277 75.3059 11.9656 75.2869C12.1006 75.2682 12.2394 75.2593 12.3773 75.2413C12.5123 75.2236 12.6663 75.3445 12.8035 75.3274C12.9386 75.3106 13.0711 75.2612 13.2086 75.2451C13.344 75.2293 13.4717 75.1324 13.6093 75.1169C13.7449 75.1017 13.9015 75.2701 14.0393 75.2552C14.1753 75.2407 14.2942 75.0552 14.4324 75.0413C14.5684 75.0277 14.7091 75.0482 14.8473 75.0353C14.9836 75.0223 15.1164 74.9587 15.2546 74.9463C15.3909 74.934 15.5309 74.9495 15.6691 74.9378C15.8057 74.9261 15.9464 74.9533 16.0846 74.9422C16.2212 74.9311 16.3714 75.0868 16.51 75.0764C16.6469 75.066 16.7674 74.8232 16.9059 74.8134C17.0428 74.8036 17.1914 74.9549 17.3299 74.9457C17.4662 74.9368 17.5933 74.7678 17.7312 74.7593C17.8678 74.7507 18.0152 74.9106 18.153 74.9026C18.29 74.8947 18.4149 74.6577 18.553 74.6504C18.69 74.6431 18.8421 74.9188 18.9803 74.9118C19.1175 74.9052 19.2484 74.7599 19.3866 74.7539C19.5238 74.7476 19.6582 74.6529 19.7967 74.6472C19.9343 74.6415 20.076 74.7251 20.2145 74.72C20.3514 74.715 20.488 74.683 20.6262 74.6782C20.7634 74.6738 20.8997 74.6165 21.0379 74.6124C21.1755 74.6083 21.3121 74.5428 21.4506 74.5393C21.5881 74.5358 21.7269 74.5317 21.8654 74.5285C22.0039 74.5254 22.1475 74.8071 22.286 74.8045C22.4236 74.802 22.5576 74.5576 22.6958 74.5557C22.834 74.5538 22.9719 74.5042 23.1107 74.5026C23.2495 74.501 23.3893 74.6605 23.5284 74.6596C23.6666 74.6586 23.8048 74.5111 23.9436 74.5105C24.0825 74.5099 24.2222 74.5105 24.362 74.5105C24.5005 74.5105 24.6384 74.8023 24.7766 74.8029C24.9147 74.8036 25.0532 74.7697 25.1911 74.7707C25.3299 74.7716 25.47 74.5491 25.6079 74.5507C25.7467 74.5523 25.8846 74.6086 26.0225 74.6105C26.1613 74.6124 26.2976 74.7244 26.4354 74.727C26.5743 74.7295 26.7125 74.7276 26.85 74.7305C26.9888 74.7336 27.1289 74.6564 27.2665 74.6599C27.4053 74.6634 27.5406 74.7631 27.6785 74.7672C27.8173 74.7713 27.959 74.658 28.0969 74.6624C28.2357 74.6672 28.3745 74.6599 28.5121 74.6649C28.6506 74.67 28.7903 74.6463 28.9279 74.652C29.0664 74.6577 29.2046 74.6754 29.3421 74.6814C29.4806 74.6877 29.616 74.7605 29.7535 74.7672C29.892 74.7741 30.0252 74.8751 30.1627 74.8824C30.3012 74.8897 30.4445 74.7988 30.582 74.8067C30.7205 74.8147 30.8556 74.8704 30.9928 74.8789C31.1313 74.8874 31.2654 74.9517 31.4026 74.9609C31.5411 74.9701 31.6831 74.9159 31.82 74.9257C31.9585 74.9356 32.1053 74.8232 32.2422 74.8336C32.3807 74.8441 32.5012 75.0748 32.6381 75.0859C32.7766 75.097 32.9129 75.1137 33.0498 75.1251C33.188 75.1369 33.3455 74.921 33.4821 74.9333C33.6203 74.9457 33.7607 74.9343 33.897 74.9473C34.0351 74.9606 34.1449 75.2543 34.2812 75.2679C34.4193 75.2818 34.5689 75.1698 34.7049 75.1843C34.8431 75.1989 34.9964 75.0644 35.1324 75.0796C35.2703 75.0951 35.4009 75.1714 35.5366 75.1872C35.6744 75.2033 35.7993 75.3192 35.9347 75.3359C36.0725 75.353 36.2316 75.197 36.3666 75.2147C36.5042 75.2328 36.6329 75.3135 36.7679 75.3321C36.9055 75.3511 37.0165 75.5471 37.1512 75.5667C37.2887 75.5866 37.4171 75.6502 37.5515 75.6711C37.6887 75.6923 37.85 75.5493 37.9841 75.5711C38.1213 75.5933 38.244 75.693 38.3781 75.7161C38.5153 75.7395 38.6643 75.686 38.798 75.7101C38.9353 75.7351 39.076 75.7328 39.2091 75.7585C39.3464 75.7847 39.4637 75.9009 39.5965 75.9281C39.7334 75.956 39.9016 75.8278 40.0338 75.8563C40.1707 75.886 40.3121 75.8927 40.4436 75.9231C40.5802 75.9547 40.6707 76.1709 40.8016 76.2035C40.9379 76.2374 41.0552 76.3279 41.1849 76.3627C41.3208 76.3991 41.4495 76.4402 41.5782 76.4776C41.7139 76.5168 41.8815 76.433 42.0089 76.4735C42.1446 76.5162 42.2284 76.6963 42.3542 76.7403C42.4893 76.7874 42.618 76.8229 42.7416 76.8713C42.8751 76.9235 43.0044 76.9577 43.1242 77.0112C43.2564 77.0701 43.4265 77.028 43.5416 77.0884C43.671 77.1565 43.7222 77.3312 43.8291 77.4012C43.954 77.4828 44.1146 77.4838 44.2076 77.5676C44.3208 77.6702 44.3331 77.8161 44.3967 77.9215C44.4732 78.049 44.472 78.1272 44.472 78.2583L44.4732 78.2576Z" fill="#BCEBB2"/>
<path d="M94.5839 77.619C94.5839 77.6821 94.591 77.7238 94.554 77.7853C94.5234 77.8358 94.5428 77.9376 94.4881 77.9867C94.4435 78.027 94.3574 78.027 94.2974 78.0662C94.2459 78.0998 94.193 78.1387 94.1306 78.1714C94.0754 78.2004 93.9985 78.189 93.9351 78.2173C93.8776 78.2429 93.8596 78.3721 93.7955 78.3971C93.7365 78.4201 93.6319 78.3273 93.5673 78.3497C93.5071 78.3706 93.4792 78.496 93.4143 78.5164C93.3534 78.5357 93.2909 78.5608 93.226 78.5796C93.1644 78.5975 93.0949 78.5975 93.0299 78.6149C92.9677 78.6315 92.8948 78.6138 92.8294 78.6299C92.7668 78.6453 92.7096 78.6907 92.6442 78.7059C92.5813 78.7204 92.4941 78.6314 92.4284 78.6455C92.3652 78.6592 92.305 78.6894 92.2393 78.7029C92.1758 78.7157 92.1131 78.7363 92.0474 78.7489C91.9836 78.7612 91.914 78.7431 91.8482 78.7551C91.7842 78.7666 91.7388 78.8884 91.6731 78.8996C91.609 78.9105 91.532 78.8495 91.4661 78.8601C91.4018 78.8705 91.3392 78.8949 91.2734 78.905C91.2089 78.9149 91.1398 78.8966 91.074 78.9061C91.0093 78.9155 90.9449 78.9277 90.8789 78.9368C90.8143 78.9458 90.7508 78.9662 90.6848 78.9748C90.6202 78.9833 90.5651 79.07 90.4993 79.0781C90.4347 79.0862 90.3705 79.1068 90.3047 79.1145C90.24 79.122 90.1669 79.064 90.1011 79.0713C90.0362 79.0786 89.9753 79.1287 89.9094 79.1357C89.8443 79.1426 89.7814 79.1757 89.7154 79.1823C89.6503 79.1888 89.5816 79.1669 89.5157 79.1731C89.4505 79.1793 89.3756 79.0831 89.3094 79.089C89.2442 79.0949 89.1807 79.1233 89.1146 79.1289C89.0492 79.1345 88.9908 79.2284 88.9247 79.2337C88.8593 79.239 88.7873 79.1643 88.721 79.1693C88.6555 79.1743 88.5932 79.225 88.5269 79.2297C88.4614 79.2344 88.3906 79.1649 88.3243 79.1693C88.2591 79.1735 88.1999 79.2779 88.1339 79.282C88.0686 79.2861 88.0005 79.2521 87.9345 79.2559C87.869 79.2597 87.8055 79.3038 87.7393 79.3073C87.6738 79.3107 87.6044 79.2431 87.5383 79.2464C87.4726 79.2496 87.4065 79.2456 87.3404 79.2487C87.2747 79.2517 87.2108 79.3033 87.1446 79.3061C87.0787 79.3088 87.0122 79.2971 86.9459 79.2995C86.8804 79.302 86.8159 79.3427 86.7498 79.345C86.6841 79.3471 86.6176 79.3318 86.5515 79.3336C86.4856 79.3356 86.4212 79.3971 86.3549 79.3989C86.2891 79.4006 86.2225 79.3969 86.1562 79.3984C86.09 79.3999 86.0213 79.2624 85.955 79.2636C85.8892 79.2649 85.8241 79.3156 85.7579 79.3165C85.6916 79.3174 85.6255 79.2939 85.559 79.2947C85.4926 79.2955 85.4274 79.3893 85.3608 79.3898C85.2947 79.3903 85.2283 79.3993 85.1617 79.3995C85.0951 79.3996 85.0284 79.3818 84.9615 79.3818C84.8953 79.3818 84.829 79.3577 84.7629 79.3575C84.6968 79.3574 84.6308 79.2786 84.5648 79.2782C84.4984 79.2777 84.4312 79.4021 84.3652 79.4013C84.2988 79.4006 84.2342 79.2824 84.1682 79.2814C84.1018 79.2805 84.0362 79.2658 83.9702 79.2646C83.9038 79.2633 83.8357 79.3647 83.7697 79.3631C83.7033 79.3616 83.6364 79.3848 83.5704 79.383C83.504 79.3813 83.4379 79.3728 83.3721 79.3709C83.3057 79.3689 83.2388 79.3851 83.173 79.383C83.1065 79.3807 83.0444 79.268 82.9784 79.2656C82.9121 79.2632 82.8466 79.2477 82.7808 79.245C82.7145 79.2423 82.6469 79.2773 82.5811 79.2742C82.5148 79.2712 82.4452 79.3415 82.3794 79.3383C82.3131 79.335 82.2509 79.254 82.1851 79.2505C82.1188 79.247 82.0506 79.282 81.9849 79.2782C81.9186 79.2744 81.8551 79.2293 81.7894 79.2252C81.7232 79.2211 81.6542 79.264 81.5885 79.2596C81.5222 79.2552 81.4552 79.264 81.3897 79.2593C81.3234 79.2546 81.2559 79.2682 81.1904 79.2633C81.1241 79.2583 81.0591 79.2403 80.9936 79.235C80.9273 79.2297 80.8687 79.1378 80.8032 79.1322C80.7371 79.1266 80.668 79.1608 80.6026 79.1549C80.5365 79.149 80.475 79.0974 80.4098 79.0912C80.3437 79.0848 80.2682 79.1785 80.203 79.172C80.1369 79.1654 80.0686 79.1805 80.0036 79.1737C79.9375 79.1667 79.8813 79.0727 79.8163 79.0654C79.7503 79.058 79.6878 79.025 79.6229 79.0172C79.5569 79.0095 79.4934 78.9888 79.4285 78.9806C79.3625 78.9724 79.3002 78.9438 79.2356 78.9353C79.1697 78.9267 79.0998 78.9546 79.0352 78.9456C78.9694 78.9365 78.8989 78.9658 78.8344 78.9564C78.7686 78.9468 78.7002 78.9588 78.6359 78.9489C78.5703 78.9388 78.502 78.9471 78.4379 78.9367C78.3722 78.9261 78.322 78.827 78.2578 78.8161C78.1922 78.8049 78.1141 78.8687 78.0502 78.8572C77.9846 78.8452 77.9212 78.8243 77.8575 78.812C77.7918 78.7995 77.7249 78.7966 77.6614 78.7837C77.5959 78.7704 77.5526 78.6568 77.4893 78.643C77.4238 78.6288 77.3488 78.6659 77.2857 78.6514C77.2203 78.6362 77.1568 78.6203 77.0941 78.6047C77.0289 78.5885 76.961 78.5897 76.8988 78.5731C76.8337 78.5557 76.7598 78.5755 76.6982 78.5576C76.6333 78.5388 76.5835 78.4749 76.5225 78.4557C76.4576 78.4353 76.3969 78.41 76.3367 78.3889C76.2721 78.3663 76.2222 78.3147 76.163 78.2917C76.0992 78.2667 76.025 78.2767 75.9677 78.2511C75.9044 78.2229 75.8622 78.1628 75.8073 78.1339C75.7454 78.1013 75.6478 78.1384 75.5967 78.105C75.5369 78.0659 75.5318 77.9652 75.4873 77.9249C75.4331 77.8758 75.3761 77.848 75.3457 77.7975C75.309 77.7365 75.2183 77.6817 75.2183 77.619C75.2183 77.5558 75.2388 77.458 75.2761 77.3965C75.3066 77.3459 75.4481 77.3761 75.5026 77.3268C75.5472 77.2866 75.5688 77.2164 75.6291 77.1772C75.6805 77.1436 75.7425 77.1235 75.8049 77.0907C75.8601 77.0618 75.9088 77.0144 75.9724 76.9861C76.0299 76.9605 76.1076 76.9802 76.1718 76.9552C76.2308 76.9322 76.253 76.8018 76.3176 76.7794C76.3779 76.7585 76.4627 76.8033 76.5277 76.7829C76.5886 76.7636 76.6662 76.7966 76.7313 76.7779C76.7929 76.76 76.8566 76.7486 76.9218 76.7312C76.984 76.7146 77.0327 76.6425 77.0979 76.6263C77.1606 76.6108 77.2061 76.5163 77.2716 76.5012C77.3346 76.4866 77.4232 76.5801 77.4887 76.566C77.552 76.5522 77.6054 76.4863 77.6709 76.473C77.7345 76.4601 77.7997 76.4495 77.8653 76.437C77.9292 76.4247 78.007 76.4841 78.0726 76.4723C78.1366 76.4607 78.1922 76.3977 78.2578 76.3864C78.322 76.3755 78.3963 76.4229 78.4621 76.4123C78.5264 76.4018 78.5713 76.264 78.6373 76.2539C78.7018 76.244 78.7677 76.2369 78.8337 76.2274C78.8983 76.218 78.9637 76.2066 79.0296 76.1975C79.0942 76.1886 79.1607 76.1844 79.2266 76.1757C79.2912 76.1672 79.3649 76.2251 79.4306 76.2169C79.4952 76.2089 79.5586 76.1853 79.6244 76.1775C79.6892 76.17 79.7503 76.1236 79.8161 76.1162C79.881 76.1089 79.9559 76.1895 80.0219 76.1824C80.087 76.1754 80.1438 76.0867 80.21 76.08C80.275 76.0735 80.3424 76.0833 80.4085 76.0771C80.4737 76.0709 80.5372 76.0405 80.6034 76.0346C80.6686 76.0287 80.7356 76.0361 80.8017 76.0305C80.8671 76.0249 80.9344 76.0379 81.0005 76.0326C81.0659 76.0273 81.1378 76.1018 81.204 76.0968C81.2695 76.0918 81.3272 75.9757 81.3935 75.971C81.459 75.9663 81.5301 76.0387 81.5964 76.0343C81.6616 76.03 81.7224 75.9492 81.7884 75.9451C81.8537 75.941 81.9242 76.0175 81.9902 76.0137C82.0557 76.0099 82.1155 75.8965 82.1816 75.893C82.2471 75.8895 82.3199 76.0214 82.386 76.0181C82.4517 76.0149 82.5143 75.9454 82.5805 75.9425C82.6461 75.9395 82.7104 75.8942 82.7767 75.8915C82.8425 75.8887 82.9103 75.9287 82.9766 75.9263C83.0421 75.9239 83.1074 75.9086 83.1736 75.9063C83.2392 75.9042 83.3044 75.8768 83.3706 75.8748C83.4364 75.8728 83.5018 75.8415 83.568 75.8398C83.6338 75.8382 83.7003 75.8362 83.7665 75.8347C83.8328 75.8332 83.9015 75.9679 83.9678 75.9667C84.0336 75.9655 84.0977 75.8486 84.1639 75.8477C84.23 75.8468 84.2959 75.823 84.3624 75.8223C84.4288 75.8215 84.4957 75.8978 84.5622 75.8974C84.6284 75.8969 84.6945 75.8264 84.7609 75.826C84.8273 75.8257 84.8942 75.826 84.9611 75.826C85.0274 75.826 85.0933 75.9657 85.1594 75.966C85.2256 75.9663 85.2918 75.9501 85.3578 75.9505C85.4242 75.951 85.4913 75.8445 85.5572 75.8453C85.6237 75.846 85.6896 75.873 85.7556 75.8739C85.822 75.8748 85.8872 75.9284 85.9532 75.9296C86.0196 75.9308 86.0857 75.9299 86.1516 75.9313C86.218 75.9328 86.285 75.8959 86.3508 75.8975C86.4172 75.8992 86.482 75.9469 86.548 75.9489C86.6144 75.9508 86.6822 75.8966 86.7481 75.8987C86.8146 75.901 86.881 75.8975 86.9468 75.9C87.0131 75.9024 87.08 75.891 87.1458 75.8937C87.212 75.8965 87.2782 75.9049 87.344 75.9078C87.4103 75.9109 87.475 75.9457 87.5408 75.9489C87.6071 75.9522 87.6708 76.0005 87.7366 76.004C87.8029 76.0075 87.8714 75.964 87.9373 75.9678C88.0035 75.9716 88.0681 75.9982 88.1338 76.0023C88.2001 76.0064 88.2642 76.0372 88.3299 76.0415C88.3962 76.0459 88.4641 76.02 88.5296 76.0247C88.5959 76.0294 88.6661 75.9757 88.7316 75.9807C88.7979 75.9857 88.8555 76.0961 88.921 76.1014C88.9873 76.1067 89.0525 76.1147 89.118 76.1201C89.1842 76.1258 89.2595 76.0225 89.3249 76.0284C89.391 76.0343 89.4582 76.0288 89.5234 76.035C89.5895 76.0414 89.642 76.1819 89.7072 76.1884C89.7733 76.1951 89.8449 76.1415 89.91 76.1485C89.9761 76.1554 90.0495 76.0911 90.1145 76.0983C90.1805 76.1058 90.243 76.1423 90.3079 76.1498C90.3739 76.1576 90.4336 76.213 90.4984 76.221C90.5644 76.2292 90.6405 76.1545 90.7051 76.163C90.7709 76.1716 90.8325 76.2103 90.8971 76.2192C90.9629 76.2283 91.016 76.322 91.0805 76.3314C91.1463 76.341 91.2077 76.3714 91.272 76.3814C91.3377 76.3915 91.4148 76.3231 91.479 76.3335C91.5447 76.3441 91.6034 76.3918 91.6675 76.4029C91.7332 76.4141 91.8045 76.3885 91.8685 76.4C91.9341 76.412 92.0015 76.4109 92.0652 76.4232C92.1308 76.4358 92.187 76.4913 92.2505 76.5044C92.316 76.5177 92.3965 76.4564 92.4598 76.47C92.5253 76.4842 92.5929 76.4874 92.6558 76.5019C92.7212 76.5171 92.7645 76.6205 92.8271 76.6361C92.8923 76.6523 92.9485 76.6956 93.0105 76.7123C93.0756 76.7297 93.1371 76.7494 93.1987 76.7673C93.2636 76.786 93.3438 76.7459 93.4048 76.7653C93.4697 76.7857 93.5098 76.8719 93.57 76.893C93.6346 76.9155 93.6962 76.9325 93.7554 76.9557C93.8192 76.9806 93.8811 76.997 93.9385 77.0226C94.0017 77.0508 94.0831 77.0306 94.1382 77.0595C94.2001 77.0921 94.2246 77.1757 94.2757 77.2092C94.3355 77.2482 94.4123 77.2487 94.4568 77.2888C94.511 77.3379 94.5169 77.4077 94.5473 77.4581C94.5839 77.5192 94.5833 77.5566 94.5833 77.6193L94.5839 77.619Z" fill="#BCEBB2"/>
<path d="M8.51959 43.41C8.51959 43.7278 8.33473 44.1256 8.45435 44.4254C8.56973 44.7152 9.05543 44.8065 9.2868 45.0455C9.47589 45.2438 9.51334 45.6279 9.7423 45.7521C9.97971 45.8812 10.2648 46.0371 10.5252 46.0855C10.788 46.1344 11.0864 45.8997 11.3516 45.8662C11.6144 45.8334 11.7709 45.5855 12.0149 45.4714C12.2505 45.3609 12.5876 45.4457 12.7876 45.2587C12.7906 45.2563 12.8698 45.3394 12.8728 45.337C13.1579 45.0712 13.0588 44.9678 13.344 44.7014C13.6291 44.435 13.6557 44.4643 13.9408 44.1991C14.226 43.9338 14.058 43.7582 14.3426 43.4924C14.6271 43.2266 14.972 43.588 15.2566 43.3228C15.5411 43.0575 15.3079 42.812 15.5925 42.5462C15.877 42.2804 16.1078 42.5211 16.3929 42.2547C16.678 41.9883 16.2926 41.5839 16.5784 41.3175C16.8641 41.0511 17.1982 41.4029 17.4833 41.1365C17.7684 40.8701 17.4954 40.5852 17.7805 40.3193C18.0657 40.0535 18.323 40.3235 18.6081 40.0577C18.8933 39.7919 18.8697 39.7662 19.1555 39.5004C19.4412 39.2346 19.4231 39.2149 19.7082 38.949C19.9934 38.6832 19.8043 38.4843 20.0894 38.2185C20.3745 37.9527 20.29 37.8631 20.5757 37.5973C20.8615 37.3315 20.8578 37.3273 21.1436 37.0609C21.4293 36.7944 21.5217 36.8936 21.8069 36.6284C22.092 36.3632 22.1639 36.439 22.4478 36.1738C22.7318 35.9086 22.9656 36.1523 23.2501 35.8865C23.5346 35.6207 23.1716 35.2372 23.4573 34.9708C23.743 34.7044 23.7261 34.687 24.0119 34.4212C24.2976 34.1554 24.4982 34.3657 24.7833 34.0993C25.0684 33.8328 24.9802 33.7385 25.2666 33.4714C25.5529 33.2044 25.6115 33.2672 25.8979 33.0001C26.1842 32.7331 26.3884 32.9476 26.6748 32.6806C26.9611 32.4136 26.8657 32.3162 27.1508 32.0504C27.4371 31.7834 27.3381 31.6794 27.625 31.4118C27.912 31.1442 27.7277 30.9507 28.0147 30.6831C28.3016 30.4155 28.3832 30.4991 28.6707 30.2303C28.9583 29.9615 28.9118 29.9131 29.1999 29.6443C29.3751 29.4806 29.653 29.3343 29.865 29.2513C30.0843 29.1652 30.3894 29.0446 30.6214 29.0446C30.8534 29.0446 31.1645 29.1509 31.3838 29.2369C31.5958 29.3199 31.9184 29.4275 32.0942 29.5911C32.3745 29.8528 32.3322 29.897 32.6125 30.1586C32.8928 30.4202 32.7557 30.5624 33.0354 30.8234C33.3151 31.0845 33.2607 31.1412 33.5404 31.4023C33.8201 31.6633 33.663 31.8294 33.944 32.0916C34.2249 32.3538 34.6018 31.9572 34.8821 32.2188C35.1624 32.4805 35.1135 32.5306 35.3938 32.7923C35.6741 33.0539 35.505 33.2295 35.7847 33.4906C36.0656 33.7528 36.2335 33.5766 36.515 33.8388C36.7965 34.101 36.541 34.3693 36.8219 34.6321C37.1028 34.8949 37.3082 34.6817 37.5903 34.9451C37.8725 35.2085 37.8181 35.2659 38.1002 35.5293C38.3515 35.764 38.3213 35.7957 38.5817 36.0203C38.8245 36.1923 39.1048 36.2455 39.3827 36.3237C39.666 36.4032 39.921 36.2981 40.2128 36.2789C40.5027 36.2598 40.9183 36.6702 41.1902 36.5531C41.4518 36.4402 41.459 35.8919 41.6795 35.6864C41.6825 35.684 41.7345 35.7389 41.7375 35.736C42.0668 35.4283 42.0529 35.4146 42.3821 35.107C42.7113 34.7993 43.0067 35.107 43.3366 34.7981C43.6664 34.4893 43.4115 34.2229 43.7419 33.9147C44.0325 33.6435 43.8857 33.4894 44.1769 33.2182C44.4681 32.947 44.4663 32.9446 44.7574 32.6734C45.0486 32.4022 45.1435 32.5008 45.4352 32.229C45.727 31.9572 45.8684 32.1065 46.1596 31.8347C46.4507 31.563 46.609 31.7296 46.8996 31.4578C47.1902 31.186 47.076 31.066 47.3672 30.7948C47.6584 30.5236 47.7816 30.6514 48.0728 30.3796C48.3639 30.1078 48.2594 29.9979 48.5512 29.7261C48.843 29.4543 48.5579 29.1557 48.849 28.8845C49.1402 28.6133 49.4048 28.8899 49.696 28.6181C49.9872 28.3463 49.9479 28.3045 50.2397 28.0327C50.5315 27.7609 50.3478 27.5703 50.6384 27.2997C50.929 27.0292 51.2214 27.3356 51.5113 27.065C51.8013 26.7944 51.7016 26.6881 51.9922 26.4175C52.2828 26.1469 52.0798 25.9306 52.3716 25.6583C52.6634 25.3859 52.7878 25.5179 53.0796 25.2461C53.3714 24.9743 53.5309 25.1416 53.822 24.8698C54.1132 24.598 53.8601 24.3304 54.1525 24.0574C54.4449 23.7844 54.5306 23.8758 54.8224 23.6034C55.1142 23.331 54.9982 23.2086 55.2906 22.9362C55.583 22.6638 55.6362 22.7217 55.9273 22.4506C56.2197 22.1776 56.3641 22.3287 56.6565 22.0557C56.9489 21.7827 56.9108 21.7421 57.2038 21.4685C57.4968 21.1949 57.286 20.9721 57.5796 20.698C57.8732 20.4238 58.0127 20.5701 58.3063 20.2959C58.4815 20.1323 58.7836 20.1669 58.9956 20.0839C59.2149 19.9979 59.4118 19.6616 59.6444 19.6616C59.877 19.6616 60.054 20.0475 60.2733 20.1335C60.4853 20.2165 60.6194 20.3294 60.7946 20.4931C61.081 20.7601 61.1245 20.7147 61.4108 20.9817C61.6971 21.2487 61.5818 21.3694 61.8675 21.6358C62.1532 21.9022 62.1671 21.8879 62.4529 22.1543C62.7386 22.4207 62.9464 22.2033 63.2328 22.4697C63.5191 22.7361 63.5209 22.7343 63.8073 23.0007C64.0936 23.2671 64.232 23.1232 64.5183 23.3908C64.8047 23.6584 64.769 23.696 65.056 23.9636C65.3429 24.2312 65.2088 24.371 65.4952 24.638C65.7815 24.905 65.6764 25.0155 65.9621 25.2825C66.2479 25.5495 66.5052 25.2807 66.7916 25.5478C67.0779 25.8148 67.0495 25.8458 67.3365 26.1134C67.6234 26.381 67.4343 26.5794 67.7207 26.847C68.007 27.1146 67.9998 27.1223 68.2861 27.3893C68.5725 27.6564 68.5054 27.7274 68.7924 27.995C69.0793 28.2627 69.0992 28.2423 69.3856 28.51C69.6719 28.7776 69.6804 28.7674 69.9661 29.0338C70.2519 29.3002 70.4355 29.1073 70.7213 29.3737C71.007 29.6401 70.9146 29.7381 71.2003 30.0045C71.4861 30.2709 71.5876 30.1676 71.8751 30.4358C72.1627 30.704 72.1892 30.6747 72.4756 30.9423C72.7619 31.2099 72.7082 31.2667 72.9945 31.5343C73.2809 31.8019 73.0767 32.0181 73.3642 32.2863C73.6518 32.5545 73.6608 32.5444 73.9484 32.812C74.236 33.0796 74.5271 32.775 74.8147 33.0432C75.1022 33.3114 74.8757 33.5467 75.162 33.8137C75.4502 34.0825 75.5209 34.0079 75.809 34.2761C76.0972 34.5443 76.0658 34.5783 76.3539 34.8471C76.6421 35.1159 76.5648 35.199 76.8541 35.4684C77.1435 35.7378 77.2317 35.6464 77.5235 35.9134C77.7253 36.0878 77.8956 36.3757 78.1294 36.4767C78.3711 36.5806 78.7033 36.4785 78.9607 36.5047C79.2198 36.531 79.4234 36.2132 79.6795 36.1619C79.9327 36.1105 80.2081 36.2574 80.4389 36.1308C80.6612 36.0083 81.0702 36.0645 81.2544 35.8722C81.4828 35.6332 81.7565 35.3095 81.8724 35.0209C81.9927 34.7217 82.0126 34.2982 82.0126 33.9828C82.0126 33.754 81.5112 33.5909 81.449 33.3687C81.3873 33.1495 81.6616 32.7965 81.5396 32.5975C81.4218 32.4052 81.0774 32.3771 80.9041 32.2158C80.6183 31.95 80.5271 32.0462 80.242 31.7798C79.9568 31.5134 79.9737 31.4949 79.688 31.2284C79.4023 30.962 79.633 30.7189 79.3467 30.4519C79.0603 30.1849 78.8054 30.4537 78.5191 30.1873C78.2327 29.9209 78.4635 29.6795 78.1783 29.4137C77.8932 29.1479 77.8962 29.1443 77.6111 28.8785C77.3259 28.6127 77.1109 28.8379 76.8251 28.5721C76.5394 28.3063 76.8602 27.9694 76.5744 27.7029C76.2887 27.4365 75.9353 27.8063 75.6496 27.5399C75.3638 27.2735 75.3753 27.2603 75.089 26.9933C74.8026 26.7263 75.0829 26.433 74.7972 26.1666C74.5114 25.9002 74.4854 25.9277 74.1991 25.6612C73.9128 25.3948 73.6457 25.675 73.36 25.4086C73.0743 25.1422 73.1703 25.0406 72.884 24.7736C72.5976 24.5066 72.8779 24.2127 72.5916 23.9457C72.3052 23.6787 71.9977 24.0018 71.7114 23.7354C71.4251 23.469 71.5803 23.3059 71.294 23.0389C71.0076 22.7719 70.9267 22.8567 70.6403 22.5897C70.354 22.3227 70.5914 22.0754 70.3056 21.8096C70.0199 21.5438 69.8767 21.6943 69.5916 21.4291C69.3065 21.1639 69.1349 21.3425 68.8491 21.0761C68.5634 20.8097 68.5411 20.8312 68.2541 20.5636C67.9672 20.2959 68.1019 20.1562 67.8155 19.8898C67.5292 19.6233 67.3522 19.8085 67.0664 19.5421C66.7807 19.2757 67.0785 18.9609 66.791 18.6933C66.5034 18.4257 66.327 18.6121 66.0401 18.345C65.7531 18.078 65.8812 17.943 65.5942 17.6754C65.3073 17.4078 65.4221 17.2895 65.1363 17.0231C64.8488 16.7555 64.6524 16.961 64.3649 16.6934C64.0773 16.4258 64.2114 16.2842 63.9233 16.016C63.6351 15.7478 63.7016 15.6767 63.4128 15.4079C63.124 15.1391 63.1361 15.114 62.8401 14.8536C62.6226 14.6923 62.0783 15.0035 61.8415 14.8817C61.6011 14.758 61.5087 14.3261 61.2549 14.2437C60.9988 14.1607 60.7282 14.0573 60.4636 14.0155C60.199 13.9737 59.9084 14.0466 59.6396 14.0472C59.3707 14.0478 59.114 14.1738 58.8482 14.2156C58.5824 14.2575 58.2942 14.2007 58.0375 14.2837C57.7831 14.3662 57.6351 14.678 57.3947 14.801C57.1579 14.9223 56.8142 14.8673 56.5961 15.028C56.3031 15.2855 56.4892 15.4826 56.204 15.7484C55.9189 16.0142 55.8772 15.9694 55.5927 16.2346C55.3081 16.4999 55.1517 16.3362 54.8671 16.6014C54.5826 16.8666 54.73 17.0213 54.4449 17.2866C54.1597 17.5518 53.9978 17.3821 53.7133 17.6473C53.4288 17.9126 53.3466 17.8277 53.0615 18.0942C52.7763 18.3606 53.0729 18.6724 52.7878 18.9382C52.5027 19.204 52.4731 19.173 52.1879 19.4382C51.9028 19.7034 51.5935 19.3796 51.309 19.6449C51.0244 19.9101 51.2455 20.1436 50.9604 20.4094C50.6753 20.6753 50.7036 20.7063 50.4185 20.9721C50.1334 21.238 50.2633 21.3747 49.9775 21.6412C49.6918 21.9076 49.3583 21.5569 49.0732 21.8227C48.788 22.0886 49.1058 22.4225 48.82 22.6883C48.5343 22.9541 48.5373 22.9577 48.2522 23.2241C47.967 23.4905 47.5937 23.0975 47.3092 23.3627C47.0246 23.6279 47.3617 23.9809 47.0772 24.2461C46.7927 24.5114 46.7196 24.4355 46.435 24.7007C46.1505 24.9659 46.229 25.0514 45.9433 25.3184C45.6576 25.5854 45.4002 25.3142 45.1151 25.5806C44.8299 25.847 44.752 25.7652 44.4669 26.0316C44.1817 26.298 44.3195 26.4438 44.0325 26.7108C43.7456 26.9778 43.6302 26.8547 43.3438 27.1211C43.0575 27.3876 43.3704 27.7161 43.0841 27.9831C42.7977 28.2501 42.5295 27.9664 42.2444 28.2322C41.958 28.4992 41.9157 28.4556 41.6294 28.7226C41.343 28.9896 41.6499 29.3128 41.363 29.5804C41.076 29.848 40.9836 29.753 40.696 30.0212C40.4085 30.2894 40.4622 30.2285 40.0666 30.2255C39.6648 30.2225 39.8938 30.0995 39.6014 29.8271C39.309 29.5547 39.0734 29.8032 38.7816 29.5314C38.4898 29.2596 38.8028 28.9317 38.511 28.6599C38.2192 28.3881 38.1002 28.5111 37.8072 28.2388C37.5142 27.9664 37.2357 28.2591 36.9439 27.9873C36.6522 27.7155 37.0539 27.2926 36.7609 27.0202C36.4679 26.7478 36.187 27.0453 35.8952 26.7735C35.6022 26.5005 35.5648 26.5399 35.2724 26.2669C34.98 25.994 35.0416 25.9283 34.748 25.6547C34.4544 25.3811 34.4417 25.393 34.1481 25.1189C33.8545 24.8447 34.0883 24.589 33.7869 24.3232C33.5694 24.1619 33.2704 24.0293 33.0336 23.9075C32.7931 23.7838 32.418 23.9648 32.1643 23.8824C31.9081 23.7993 31.649 23.8418 31.3838 23.7999C31.1186 23.7581 30.8848 23.5825 30.6159 23.5825C30.3471 23.5825 30.0656 23.4589 29.7998 23.5013C29.534 23.5437 29.3226 23.7964 29.0664 23.88C28.8121 23.9624 28.6623 24.2121 28.4218 24.3352C28.185 24.4564 27.6268 24.1225 27.4087 24.2826C27.1158 24.54 27.3592 24.8088 27.0741 25.0747C26.7889 25.3405 26.5539 25.0956 26.2682 25.362C25.9825 25.6284 26.3183 25.982 26.032 26.2484C25.7456 26.5148 25.794 26.565 25.5082 26.8314C25.2225 27.0978 24.886 26.7448 24.6009 27.0106C24.3157 27.2764 24.6589 27.6366 24.3731 27.9025C24.0874 28.1683 23.9907 28.0667 23.705 28.3325C23.4192 28.5984 23.1329 28.2985 22.8471 28.5649C22.5614 28.8313 22.9414 29.2309 22.6556 29.4974C22.3699 29.7638 22.2503 29.6395 21.9639 29.9065C21.6776 30.1735 21.4184 29.9012 21.1327 30.1676C20.847 30.434 20.8772 30.4656 20.5914 30.7321C20.3057 30.9985 20.583 31.29 20.2972 31.5564C20.0115 31.8228 19.7028 31.5002 19.4164 31.7666C19.1301 32.0331 19.1567 32.0611 18.8703 32.3281C18.584 32.5952 18.7906 32.8114 18.5048 33.0778C18.2191 33.3442 18.14 33.2618 17.8536 33.5288C17.5673 33.7958 17.6174 33.8484 17.3311 34.1154C17.0447 34.3824 16.9535 34.285 16.6678 34.5508C16.382 34.8167 16.3766 34.8101 16.0914 35.0759C15.8063 35.3417 15.8456 35.3835 15.5598 35.6493C15.2741 35.9152 15.3345 35.9815 15.0482 36.2491C14.7618 36.5167 14.5449 36.2879 14.2586 36.5549C13.9722 36.8219 14.1873 37.0471 13.901 37.3135C13.6146 37.5799 13.3923 37.3488 13.1054 37.617C12.8184 37.8852 13.0528 38.1301 12.7664 38.3971C12.4801 38.6641 12.3472 38.5261 12.0602 38.7937C11.7733 39.0613 11.731 39.0148 11.4453 39.2812C11.1577 39.5488 11.3957 39.7985 11.1082 40.0661C10.8206 40.3337 10.8539 40.3695 10.5663 40.6377C10.2787 40.9059 10.2624 40.8904 9.97367 41.1592C9.68491 41.428 9.39373 41.1222 9.10497 41.3916C8.93159 41.5528 8.70565 41.7637 8.58906 41.9549C8.46824 42.1532 8.50147 42.4817 8.44106 42.7003C8.38004 42.9213 8.51899 43.1854 8.51899 43.4142L8.51959 43.41Z" fill="#E90000"/>
<path d="M13.0485 49.5219C13.0485 49.918 13.0569 49.918 13.0569 50.314C13.0569 50.71 12.6824 50.7106 12.6824 51.1067C12.6824 51.5027 13.0412 51.5039 13.0412 51.9005C13.0412 52.2972 12.8853 52.2978 12.8853 52.695C12.8853 53.0922 12.9742 53.0916 12.9742 53.4883C12.9742 53.8849 12.5374 53.8849 12.5374 54.2815C12.5374 54.6782 12.802 54.6782 12.802 55.0748C12.802 55.4714 12.7875 55.472 12.7875 55.8693C12.7875 56.2665 12.5338 56.2665 12.5338 56.6637C12.5338 57.0609 12.8394 57.0609 12.8394 57.4576C12.8394 57.8542 13.0346 57.8548 13.0346 58.252C13.0346 58.6493 12.5217 58.6499 12.5217 59.0471C12.5217 59.4443 12.9886 59.4443 12.9886 59.8416C12.9886 60.2388 12.7814 60.2394 12.7814 60.6372C12.7814 61.035 12.4576 61.0344 12.4576 61.4323C12.4576 61.8301 12.7186 61.8301 12.7186 62.2273C12.7186 62.6246 12.9917 62.624 12.9917 63.0206C12.9917 63.4172 12.9905 63.4172 12.9905 63.8139C12.9905 64.2105 12.828 64.2117 12.828 64.6101C12.828 65.0085 13.0303 65.0073 13.0303 65.4052C13.0303 65.803 12.6437 65.803 12.6437 66.2008C12.6437 66.5987 12.6769 66.5993 12.6769 66.9977C12.6769 67.3961 12.5029 67.3955 12.5029 67.7933C12.5029 68.1912 12.4752 68.1924 12.4752 68.5908C12.4752 68.9892 12.9137 68.9904 12.9137 69.3894C12.9137 69.7884 12.7319 69.789 12.7319 70.1881C12.7319 70.4389 13.0219 70.5602 13.1258 70.7543C13.2394 70.967 13.2786 71.1253 13.475 71.2454C13.6749 71.3678 13.8308 71.5243 14.07 71.5243C14.4663 71.5243 14.4663 71.7752 14.8632 71.7752C15.2601 71.7752 15.2601 71.7441 15.6564 71.7441C16.0527 71.7441 16.0533 71.4156 16.4496 71.4156C16.8459 71.4156 16.8465 71.4478 17.2434 71.4478C17.6403 71.4478 17.6403 71.5524 18.0378 71.5524C18.4353 71.5524 18.4353 71.5052 18.8322 71.5052C19.2291 71.5052 19.2297 71.2931 19.6272 71.2931C20.0247 71.2931 20.0247 71.691 20.4228 71.691C20.8209 71.691 20.8203 71.7901 21.2184 71.7901C21.6165 71.7901 21.6159 71.6719 22.0134 71.6719C22.4109 71.6719 22.4109 71.3093 22.8078 71.3093C23.2047 71.3093 23.2047 71.814 23.6022 71.814C23.9997 71.814 23.9991 71.7668 24.396 71.7668C24.7929 71.7668 24.7929 71.5482 25.1898 71.5482C25.5867 71.5482 25.5867 71.5351 25.9836 71.5351C26.3805 71.5351 26.3805 71.4204 26.7773 71.4204C27.1742 71.4204 27.1742 71.5584 27.5711 71.5584C27.968 71.5584 27.968 71.3302 28.3655 71.3302C28.763 71.3302 28.763 71.854 29.1605 71.854C29.558 71.854 29.558 71.5906 29.9555 71.5906C30.353 71.5906 30.3537 71.4389 30.7512 71.4389C31.1487 71.4389 31.1493 71.8146 31.5468 71.8146C31.9443 71.8146 31.9443 71.4592 32.3418 71.4592C32.7393 71.4592 32.7393 71.4293 33.1368 71.4293C33.5343 71.4293 33.5343 71.4001 33.9312 71.4001C34.3281 71.4001 34.3287 71.6832 34.7256 71.6832C35.1225 71.6832 35.1231 71.418 35.52 71.418C35.9169 71.418 35.9175 71.4293 36.3144 71.4293C36.7113 71.4293 36.7119 71.8188 37.1094 71.8188C37.5069 71.8188 37.5069 71.51 37.905 71.51C38.3031 71.51 38.3031 71.6067 38.7012 71.6067C39.0993 71.6067 39.0993 71.7609 39.4968 71.7609C39.8943 71.7609 39.8943 71.817 40.2918 71.817C40.6893 71.817 40.6893 71.2734 41.0868 71.2734C41.4843 71.2734 41.4843 71.5733 41.8818 71.5733C42.2793 71.5733 42.2793 71.8164 42.6768 71.8164C43.0743 71.8164 43.0743 71.7161 43.4724 71.7161C43.8705 71.7161 43.8705 71.7232 44.2686 71.7232C44.6667 71.7232 44.6667 71.409 45.0648 71.409C45.4629 71.409 45.4623 71.6611 45.8604 71.6611C46.2585 71.6611 46.2573 71.36 46.6542 71.36C47.0511 71.36 47.0505 71.7489 47.4474 71.7489C47.8443 71.7489 47.8437 71.4323 48.24 71.4323C48.6363 71.4323 48.6363 71.5649 49.0326 71.5649C49.4289 71.5649 49.4289 71.2985 49.8252 71.2985C50.2215 71.2985 50.2221 71.5088 50.6184 71.5088C51.0147 71.5088 51.0153 71.55 51.4128 71.55C51.8103 71.55 51.8103 71.467 52.2084 71.467C52.6065 71.467 52.6071 71.5912 53.0052 71.5912C53.4033 71.5912 53.4033 71.673 53.8008 71.673C54.1983 71.673 54.1983 71.4747 54.5958 71.4747C54.9933 71.4747 54.9933 71.3134 55.3902 71.3134C55.7871 71.3134 55.7877 71.6462 56.1846 71.6462C56.5815 71.6462 56.5821 71.3696 56.9796 71.3696C57.3771 71.3696 57.3777 71.4873 57.7758 71.4873C58.1739 71.4873 58.1745 71.7429 58.5732 71.7429C58.9719 71.7429 58.9713 71.8206 59.3694 71.8206C59.7675 71.8206 59.7669 71.3152 60.165 71.3152C60.5631 71.3152 60.5631 71.3254 60.9612 71.3254C61.3594 71.3254 61.36 71.277 61.7587 71.277C62.1574 71.277 62.1574 71.8385 62.5555 71.8385C62.9536 71.8385 62.9536 71.5846 63.3517 71.5846C63.7498 71.5846 63.7504 71.6707 64.1485 71.6707C64.5466 71.6707 64.5472 71.4365 64.9465 71.4365C65.3458 71.4365 65.3452 71.5303 65.7433 71.5303C66.1414 71.5303 66.1421 71.6844 66.5414 71.6844C66.9407 71.6844 66.9401 71.636 67.3388 71.636C67.7375 71.636 67.7375 71.6061 68.1368 71.6061C68.5361 71.6061 68.5349 71.3391 68.933 71.3391C69.3311 71.3391 69.3311 71.3553 69.7292 71.3553C70.1273 71.3553 70.1285 71.5016 70.5279 71.5016C70.9272 71.5016 70.9266 71.6372 71.3253 71.6372C71.724 71.6372 71.7246 71.5273 72.1239 71.5273C72.5232 71.5273 72.5238 71.3989 72.9231 71.3989C73.3224 71.3989 73.3224 71.7107 73.7212 71.7107C74.1199 71.7107 74.1211 71.7776 74.521 71.7776C74.9209 71.7776 74.9215 71.7089 75.322 71.7089C75.7226 71.7089 75.7226 71.7603 76.1231 71.7603C76.3738 71.7603 76.5363 71.3594 76.7417 71.2442C76.9513 71.1265 77.4122 71.2035 77.5331 70.9909C77.6454 70.7938 77.3832 70.4443 77.3832 70.1863C77.3832 69.7914 77.4908 69.7914 77.4908 69.3966C77.4908 69.0017 77.7862 69.0023 77.7862 68.6075C77.7862 68.2127 77.3488 68.2133 77.3488 67.819C77.3488 67.4248 77.6261 67.4248 77.6261 67.0305C77.6261 66.6363 77.7185 66.6363 77.7185 66.242C77.7185 65.8478 77.7813 65.8472 77.7813 65.453C77.7813 65.0587 77.4745 65.0581 77.4745 64.6627C77.4745 64.2672 77.2618 64.2672 77.2618 63.8712C77.2618 63.4752 77.756 63.4746 77.756 63.0785C77.756 62.6825 77.3077 62.6825 77.3077 62.2871C77.3077 61.8916 77.2141 61.8916 77.2141 61.4962C77.2141 61.1008 77.649 61.1008 77.649 60.7059C77.649 60.3111 77.6007 60.3105 77.6007 59.9156C77.6007 59.5208 77.5596 59.5202 77.5596 59.1248C77.5596 58.7293 77.4443 58.7287 77.4443 58.3327C77.4443 57.9366 77.3277 57.936 77.3277 57.5394C77.3277 57.1428 77.5385 57.1434 77.5385 56.7473C77.5385 56.3513 77.4249 56.3519 77.4249 55.9559C77.4249 55.5598 77.5518 55.5598 77.5518 55.1638C77.5518 54.7678 77.2038 54.7672 77.2038 54.3705C77.2038 53.9739 77.7717 53.9739 77.7717 53.5779C77.7717 53.1818 77.521 53.1818 77.521 52.7858C77.521 52.3898 77.4074 52.3892 77.4074 51.9931C77.4074 51.5971 77.6207 51.5965 77.6207 51.1993C77.6207 50.802 77.3222 50.8026 77.3222 50.4066C77.3222 50.0106 77.2866 50.01 77.2866 49.6127C77.2866 49.2155 77.7095 49.2161 77.7095 48.8195C77.7095 48.4228 77.4273 48.4228 77.4273 48.0256C77.4273 47.6284 77.2552 47.6296 77.2552 47.2335C77.2552 46.8375 77.4896 46.8375 77.4896 46.4415C77.4896 46.0454 77.5288 46.0442 77.5288 45.647C77.5288 45.2498 77.582 45.2504 77.582 44.8537C77.582 44.4571 77.2485 44.4565 77.2485 44.0593C77.2485 43.662 77.2564 43.6614 77.2564 43.2642C77.2564 42.867 77.2799 42.867 77.2799 42.4704C77.2799 42.0737 77.6442 42.0725 77.6442 41.6747C77.6442 41.2769 77.1996 41.2763 77.1996 40.8778C77.1996 40.4794 77.3899 40.4794 77.3899 40.081C77.3899 39.817 77.4714 39.5655 77.4086 39.3272C77.3434 39.0805 77.1368 38.9102 77.0051 38.6904C76.8782 38.4789 76.9827 38.056 76.7942 37.8697C76.5145 37.6044 76.1932 37.9377 75.911 37.6743C75.6289 37.4109 75.7522 37.2825 75.4706 37.019C75.1891 36.7556 75.0532 36.8978 74.7717 36.6344C74.4902 36.3709 74.5766 36.2801 74.2945 36.0161C74.0123 35.7521 74.2183 35.5364 73.9362 35.2724C73.6541 35.0084 73.6795 34.9809 73.3968 34.7163C73.114 34.4517 72.8506 34.7282 72.5685 34.4642C72.2864 34.2002 72.2375 34.2522 71.9554 33.9881C71.6732 33.7241 71.8454 33.5437 71.5633 33.2803C71.2812 33.0169 71.4219 32.8681 71.1392 32.6041C70.8565 32.3401 70.7151 32.4882 70.4324 32.2236C70.1497 31.959 70.2959 31.8073 70.0132 31.5432C69.7304 31.2792 69.4169 31.6072 69.1342 31.3431C68.8515 31.0791 69.0732 30.8467 68.7904 30.5821C68.5077 30.3175 68.2842 30.5529 68.0027 30.2894C67.7212 30.026 68.0293 29.704 67.7478 29.4412C67.4663 29.1784 67.1515 29.5063 66.87 29.2429C66.5885 28.9795 66.9165 28.6336 66.6332 28.369C66.3499 28.1044 66.0363 28.4335 65.7536 28.1695C65.4709 27.9054 65.7802 27.5823 65.4975 27.3183C65.2148 27.0542 65.0299 27.246 64.7466 26.9808C64.4632 26.7155 64.3032 26.8834 64.0204 26.6188C63.7377 26.3542 63.9999 26.0788 63.7166 25.8136C63.4332 25.5483 63.5504 25.4283 63.2683 25.1643C62.9844 24.899 63.0001 24.8829 62.7162 24.6177C62.4322 24.3525 62.2172 24.5765 61.9333 24.3113C61.6493 24.046 61.7575 23.9314 61.4723 23.6649C61.1872 23.3985 60.9039 23.7085 60.6109 23.4511C60.3807 23.2832 60.275 23.1554 60.0056 23.0987C59.7313 23.0407 59.5126 22.9338 59.2389 22.9911C58.9689 23.0479 58.7641 23.1459 58.5352 23.3143C58.2464 23.5682 58.1836 23.4977 57.9033 23.7605C57.623 24.0233 57.6133 24.0138 57.333 24.2766C57.0527 24.5394 56.8902 24.3686 56.6111 24.6302C56.332 24.8919 56.4963 25.0633 56.2166 25.3249C55.9369 25.5866 56.036 25.6905 55.7563 25.9527C55.4766 26.215 55.5032 26.2448 55.2222 26.5083C54.9413 26.7717 54.8616 26.6869 54.5813 26.9497C54.301 27.2125 54.1862 27.0925 53.9059 27.3553C53.6256 27.6181 53.6238 27.6175 53.3423 27.881C53.0608 28.1444 53.0239 28.105 52.743 28.3678C52.4621 28.6306 52.4119 28.5792 52.1304 28.8421C51.8489 29.1049 52.0199 29.2811 51.7396 29.5433C51.4581 29.8068 51.2581 29.5983 50.9766 29.8617C50.6951 30.1252 51.069 30.517 50.7869 30.781C50.5048 31.0451 50.3483 30.8832 50.0656 31.1478C49.7829 31.4124 49.943 31.5791 49.6609 31.8443C49.3703 32.1167 49.3534 32.0982 49.0634 32.3711C48.7734 32.6441 48.745 32.6137 48.4557 32.8855C48.1663 33.1572 47.8214 32.7988 47.532 33.0712C47.2426 33.3436 47.2922 33.3968 47.0016 33.6698C46.711 33.9427 47.0016 34.2438 46.7122 34.5168C46.4229 34.7898 46.1872 34.5455 45.8967 34.819C45.6061 35.0926 45.8417 35.3345 45.5529 35.6063C45.2624 35.8799 45.0322 35.6404 44.7416 35.914C44.4511 36.1875 44.6039 36.347 44.3127 36.6206C44.0215 36.8942 43.8192 36.6857 43.5274 36.9599C43.2356 37.2341 43.3612 37.3649 43.0695 37.6391C42.8677 37.8296 42.7088 38.0763 42.4823 38.2209C42.2491 38.3696 41.9392 38.3684 41.6873 38.4688C41.4317 38.5703 41.1774 38.6289 40.9098 38.6802C40.6404 38.7316 40.3824 38.8935 40.1093 38.8941C39.8363 38.8947 39.524 39.0142 39.2539 38.964C38.9863 38.9138 38.6794 38.8409 38.4233 38.7406C38.1714 38.642 38.1587 38.0829 37.9249 37.9354C37.6978 37.792 37.4736 37.709 37.2707 37.519C36.9746 37.2424 36.7445 37.4832 36.4485 37.2066C36.1525 36.93 36.3663 36.7042 36.0691 36.4271C35.7719 36.1499 35.5484 36.3847 35.2517 36.1075C34.9551 35.8303 35.2252 35.5478 34.9279 35.27C34.6307 34.9923 34.2634 35.3793 33.968 35.1028C33.6708 34.825 33.8708 34.6159 33.5735 34.3382C33.2763 34.0604 33.4098 33.92 33.112 33.6417C32.8142 33.3633 32.7936 33.383 32.4952 33.1041C32.1968 32.8251 32.076 32.9518 31.7691 32.6818C31.5407 32.5133 31.3124 32.2989 31.0429 32.2421C30.7699 32.1848 30.4286 32.097 30.1555 32.1543C29.8861 32.2111 29.5677 32.3915 29.3394 32.5599C29.0494 32.8144 29.2959 33.079 29.0144 33.3424C28.7328 33.6058 28.4894 33.3514 28.2079 33.6148C27.9264 33.8782 27.849 33.797 27.5675 34.0604C27.286 34.3238 27.3416 34.3824 27.0601 34.6464C26.7786 34.9104 27.0117 35.1541 26.7296 35.4182C26.4475 35.6822 26.3859 35.6183 26.1032 35.8823C25.8204 36.1463 25.7401 36.0615 25.458 36.3255C25.1759 36.5896 25.0526 36.4599 24.7705 36.724C24.4884 36.988 24.7047 37.2132 24.4225 37.4772C24.1404 37.7412 24.1036 37.7036 23.8215 37.9676C23.5393 38.2316 23.3714 38.0572 23.0893 38.3212C22.8072 38.5853 23.0549 38.8439 22.7727 39.1079C22.4906 39.372 22.5528 39.4377 22.2707 39.7017C21.9886 39.9657 21.657 39.6199 21.3742 39.8845C21.0915 40.1491 21.2897 40.3534 21.0081 40.6168C20.7266 40.8802 20.7804 40.9358 20.4989 41.1986C20.2174 41.4614 20.3122 41.5618 20.0307 41.8252C19.7492 42.0887 19.7625 42.1054 19.4792 42.37C19.1958 42.6346 19.2049 42.643 18.9228 42.907C18.6407 43.171 18.5839 43.1125 18.3018 43.3765C18.0196 43.6405 17.9145 43.533 17.6312 43.7976C17.3479 44.0623 17.3297 44.0425 17.047 44.3072C16.7643 44.5718 16.5891 44.3896 16.3058 44.6542C16.0225 44.9188 16.2273 45.1303 15.9451 45.3943C15.6618 45.6595 15.425 45.4128 15.1417 45.6781C14.8584 45.9433 14.9762 46.0675 14.6922 46.3333C14.4083 46.5992 14.5231 46.7204 14.2385 46.9868C13.954 47.2532 14.009 47.31 13.7257 47.5776C13.5336 47.7634 13.124 47.7676 12.9971 47.9784C12.8648 48.1982 12.7929 48.4873 12.7289 48.7346C12.6673 48.973 13.0466 49.2543 13.0466 49.5184L13.0485 49.5219ZM54.7378 37.832C54.7378 37.5602 54.7583 37.243 54.8042 36.9838C54.8513 36.718 55.2869 36.5364 55.3787 36.2879C55.4717 36.0352 55.2706 35.6272 55.4053 35.3973C55.5412 35.1655 55.8439 35.006 56.0173 34.8017C56.1906 34.5974 56.3411 34.3256 56.5477 34.1536C56.7543 33.9816 57.2249 34.1811 57.4592 34.0473C57.6912 33.9147 57.8108 33.5712 58.0664 33.4792C58.3177 33.389 58.5883 33.3317 58.8578 33.2851C59.1193 33.2397 59.3936 33.4667 59.6685 33.4667C59.9433 33.4667 60.2267 33.1895 60.4888 33.2343C60.7583 33.2809 61.0996 33.1728 61.3509 33.263C61.6064 33.355 61.6391 33.9278 61.8716 34.0604C62.1066 34.1942 62.5941 33.9708 62.8007 34.1423C63.0073 34.3137 63.0696 34.6625 63.2436 34.8668C63.4175 35.0711 63.2949 35.4534 63.4308 35.6852C63.5655 35.9152 63.9032 36.0215 63.9963 36.2742C64.0881 36.5227 64.4258 36.7275 64.4729 36.994C64.5188 37.2532 64.5448 37.559 64.5448 37.8314C64.5448 38.1038 64.3575 38.3816 64.3116 38.6408C64.2645 38.9072 64.3811 39.2459 64.2893 39.4938C64.1962 39.7465 63.7262 39.8397 63.5915 40.0697C63.4556 40.3014 63.3366 40.5254 63.1632 40.7297C62.9898 40.934 62.6956 40.9818 62.489 41.1532C62.2824 41.3247 62.0831 41.4292 61.8487 41.563C61.6161 41.6956 61.566 42.1962 61.3098 42.2876C61.0585 42.3778 60.7395 42.2768 60.4701 42.3234C60.2079 42.3688 59.9433 42.6454 59.6685 42.6454C59.3936 42.6454 59.0994 42.5343 58.8378 42.4889C58.569 42.4423 58.3213 42.2625 58.0706 42.1723C57.8151 42.0803 57.6918 41.7476 57.4599 41.6144C57.2255 41.48 57.0152 41.3718 56.8092 41.2004C56.6032 41.029 56.1798 41.0738 56.0064 40.8695C55.833 40.6652 55.6916 40.4107 55.5557 40.179C55.4216 39.9496 55.3974 39.6545 55.3044 39.4018C55.2132 39.1533 55.0954 38.903 55.0483 38.6366C55.0024 38.378 54.739 38.1026 54.739 37.8308L54.7378 37.832Z" fill="#FF8547"/>
<mask id="mask0_2973_8786" style="mask-type:luminance" maskUnits="userSpaceOnUse" x="12" y="22" width="66" height="50">
<path d="M13.0485 49.5219C13.0485 49.918 13.0569 49.918 13.0569 50.314C13.0569 50.71 12.6824 50.7106 12.6824 51.1067C12.6824 51.5027 13.0412 51.5039 13.0412 51.9005C13.0412 52.2972 12.8853 52.2978 12.8853 52.695C12.8853 53.0922 12.9742 53.0916 12.9742 53.4883C12.9742 53.8849 12.5374 53.8849 12.5374 54.2815C12.5374 54.6782 12.802 54.6782 12.802 55.0748C12.802 55.4714 12.7875 55.472 12.7875 55.8693C12.7875 56.2665 12.5338 56.2665 12.5338 56.6637C12.5338 57.0609 12.8394 57.0609 12.8394 57.4576C12.8394 57.8542 13.0346 57.8548 13.0346 58.252C13.0346 58.6493 12.5217 58.6499 12.5217 59.0471C12.5217 59.4443 12.9886 59.4443 12.9886 59.8416C12.9886 60.2388 12.7814 60.2394 12.7814 60.6372C12.7814 61.035 12.4576 61.0344 12.4576 61.4323C12.4576 61.8301 12.7186 61.8301 12.7186 62.2273C12.7186 62.6246 12.9917 62.624 12.9917 63.0206C12.9917 63.4172 12.9905 63.4172 12.9905 63.8139C12.9905 64.2105 12.828 64.2117 12.828 64.6101C12.828 65.0085 13.0303 65.0073 13.0303 65.4052C13.0303 65.803 12.6437 65.803 12.6437 66.2008C12.6437 66.5987 12.6769 66.5993 12.6769 66.9977C12.6769 67.3961 12.5029 67.3955 12.5029 67.7933C12.5029 68.1912 12.4752 68.1924 12.4752 68.5908C12.4752 68.9892 12.9137 68.9904 12.9137 69.3894C12.9137 69.7884 12.7319 69.789 12.7319 70.1881C12.7319 70.4389 13.0219 70.5602 13.1258 70.7543C13.2394 70.967 13.2786 71.1253 13.475 71.2454C13.6749 71.3678 13.8308 71.5243 14.07 71.5243C14.4663 71.5243 14.4663 71.7752 14.8632 71.7752C15.2601 71.7752 15.2601 71.7441 15.6564 71.7441C16.0527 71.7441 16.0533 71.4156 16.4496 71.4156C16.8459 71.4156 16.8465 71.4478 17.2434 71.4478C17.6403 71.4478 17.6403 71.5524 18.0378 71.5524C18.4353 71.5524 18.4353 71.5052 18.8322 71.5052C19.2291 71.5052 19.2297 71.2931 19.6272 71.2931C20.0247 71.2931 20.0247 71.691 20.4228 71.691C20.8209 71.691 20.8203 71.7901 21.2184 71.7901C21.6165 71.7901 21.6159 71.6719 22.0134 71.6719C22.4109 71.6719 22.4109 71.3093 22.8078 71.3093C23.2047 71.3093 23.2047 71.814 23.6022 71.814C23.9997 71.814 23.9991 71.7668 24.396 71.7668C24.7929 71.7668 24.7929 71.5482 25.1898 71.5482C25.5867 71.5482 25.5867 71.5351 25.9836 71.5351C26.3805 71.5351 26.3805 71.4204 26.7773 71.4204C27.1742 71.4204 27.1742 71.5584 27.5711 71.5584C27.968 71.5584 27.968 71.3302 28.3655 71.3302C28.763 71.3302 28.763 71.854 29.1605 71.854C29.558 71.854 29.558 71.5906 29.9555 71.5906C30.353 71.5906 30.3537 71.4389 30.7512 71.4389C31.1487 71.4389 31.1493 71.8146 31.5468 71.8146C31.9443 71.8146 31.9443 71.4592 32.3418 71.4592C32.7393 71.4592 32.7393 71.4293 33.1368 71.4293C33.5343 71.4293 33.5343 71.4001 33.9312 71.4001C34.3281 71.4001 34.3287 71.6832 34.7256 71.6832C35.1225 71.6832 35.1231 71.418 35.52 71.418C35.9169 71.418 35.9175 71.4293 36.3144 71.4293C36.7113 71.4293 36.7119 71.8188 37.1094 71.8188C37.5069 71.8188 37.5069 71.51 37.905 71.51C38.3031 71.51 38.3031 71.6067 38.7012 71.6067C39.0993 71.6067 39.0993 71.7609 39.4968 71.7609C39.8943 71.7609 39.8943 71.817 40.2918 71.817C40.6893 71.817 40.6893 71.2734 41.0868 71.2734C41.4843 71.2734 41.4843 71.5733 41.8818 71.5733C42.2793 71.5733 42.2793 71.8164 42.6768 71.8164C43.0743 71.8164 43.0743 71.7161 43.4724 71.7161C43.8705 71.7161 43.8705 71.7232 44.2686 71.7232C44.6667 71.7232 44.6667 71.409 45.0648 71.409C45.4629 71.409 45.4623 71.6611 45.8604 71.6611C46.2585 71.6611 46.2573 71.36 46.6542 71.36C47.0511 71.36 47.0505 71.7489 47.4474 71.7489C47.8443 71.7489 47.8437 71.4323 48.24 71.4323C48.6363 71.4323 48.6363 71.5649 49.0326 71.5649C49.4289 71.5649 49.4289 71.2985 49.8252 71.2985C50.2215 71.2985 50.2221 71.5088 50.6184 71.5088C51.0147 71.5088 51.0153 71.55 51.4128 71.55C51.8103 71.55 51.8103 71.467 52.2084 71.467C52.6065 71.467 52.6071 71.5912 53.0052 71.5912C53.4033 71.5912 53.4033 71.673 53.8008 71.673C54.1983 71.673 54.1983 71.4747 54.5958 71.4747C54.9933 71.4747 54.9933 71.3134 55.3902 71.3134C55.7871 71.3134 55.7877 71.6462 56.1846 71.6462C56.5815 71.6462 56.5821 71.3696 56.9796 71.3696C57.3771 71.3696 57.3777 71.4873 57.7758 71.4873C58.1739 71.4873 58.1745 71.7429 58.5732 71.7429C58.9719 71.7429 58.9713 71.8206 59.3694 71.8206C59.7675 71.8206 59.7669 71.3152 60.165 71.3152C60.5631 71.3152 60.5631 71.3254 60.9612 71.3254C61.3594 71.3254 61.36 71.277 61.7587 71.277C62.1574 71.277 62.1574 71.8385 62.5555 71.8385C62.9536 71.8385 62.9536 71.5846 63.3517 71.5846C63.7498 71.5846 63.7504 71.6707 64.1485 71.6707C64.5466 71.6707 64.5472 71.4365 64.9465 71.4365C65.3458 71.4365 65.3452 71.5303 65.7433 71.5303C66.1414 71.5303 66.1421 71.6844 66.5414 71.6844C66.9407 71.6844 66.9401 71.636 67.3388 71.636C67.7375 71.636 67.7375 71.6061 68.1368 71.6061C68.5361 71.6061 68.5349 71.3391 68.933 71.3391C69.3311 71.3391 69.3311 71.3553 69.7292 71.3553C70.1273 71.3553 70.1285 71.5016 70.5279 71.5016C70.9272 71.5016 70.9266 71.6372 71.3253 71.6372C71.724 71.6372 71.7246 71.5273 72.1239 71.5273C72.5232 71.5273 72.5238 71.3989 72.9231 71.3989C73.3224 71.3989 73.3224 71.7107 73.7212 71.7107C74.1199 71.7107 74.1211 71.7776 74.521 71.7776C74.9209 71.7776 74.9215 71.7089 75.322 71.7089C75.7226 71.7089 75.7226 71.7603 76.1231 71.7603C76.3738 71.7603 76.5363 71.3594 76.7417 71.2442C76.9513 71.1265 77.4122 71.2035 77.5331 70.9909C77.6454 70.7938 77.3832 70.4443 77.3832 70.1863C77.3832 69.7914 77.4908 69.7914 77.4908 69.3966C77.4908 69.0017 77.7862 69.0023 77.7862 68.6075C77.7862 68.2127 77.3488 68.2133 77.3488 67.819C77.3488 67.4248 77.6261 67.4248 77.6261 67.0305C77.6261 66.6363 77.7185 66.6363 77.7185 66.242C77.7185 65.8478 77.7813 65.8472 77.7813 65.453C77.7813 65.0587 77.4745 65.0581 77.4745 64.6627C77.4745 64.2672 77.2618 64.2672 77.2618 63.8712C77.2618 63.4752 77.756 63.4746 77.756 63.0785C77.756 62.6825 77.3077 62.6825 77.3077 62.2871C77.3077 61.8916 77.2141 61.8916 77.2141 61.4962C77.2141 61.1008 77.649 61.1008 77.649 60.7059C77.649 60.3111 77.6007 60.3105 77.6007 59.9156C77.6007 59.5208 77.5596 59.5202 77.5596 59.1248C77.5596 58.7293 77.4443 58.7287 77.4443 58.3327C77.4443 57.9366 77.3277 57.936 77.3277 57.5394C77.3277 57.1428 77.5385 57.1434 77.5385 56.7473C77.5385 56.3513 77.4249 56.3519 77.4249 55.9559C77.4249 55.5598 77.5518 55.5598 77.5518 55.1638C77.5518 54.7678 77.2038 54.7672 77.2038 54.3705C77.2038 53.9739 77.7717 53.9739 77.7717 53.5779C77.7717 53.1818 77.521 53.1818 77.521 52.7858C77.521 52.3898 77.4074 52.3892 77.4074 51.9931C77.4074 51.5971 77.6207 51.5965 77.6207 51.1993C77.6207 50.802 77.3222 50.8026 77.3222 50.4066C77.3222 50.0106 77.2866 50.01 77.2866 49.6127C77.2866 49.2155 77.7095 49.2161 77.7095 48.8195C77.7095 48.4228 77.4273 48.4228 77.4273 48.0256C77.4273 47.6284 77.2552 47.6296 77.2552 47.2335C77.2552 46.8375 77.4896 46.8375 77.4896 46.4415C77.4896 46.0454 77.5288 46.0442 77.5288 45.647C77.5288 45.2498 77.582 45.2504 77.582 44.8537C77.582 44.4571 77.2485 44.4565 77.2485 44.0593C77.2485 43.662 77.2564 43.6614 77.2564 43.2642C77.2564 42.867 77.2799 42.867 77.2799 42.4704C77.2799 42.0737 77.6442 42.0725 77.6442 41.6747C77.6442 41.2769 77.1996 41.2763 77.1996 40.8778C77.1996 40.4794 77.3899 40.4794 77.3899 40.081C77.3899 39.817 77.4714 39.5655 77.4086 39.3272C77.3434 39.0805 77.1368 38.9102 77.0051 38.6904C76.8782 38.4789 76.9827 38.056 76.7942 37.8697C76.5145 37.6044 76.1932 37.9377 75.911 37.6743C75.6289 37.4109 75.7522 37.2825 75.4706 37.019C75.1891 36.7556 75.0532 36.8978 74.7717 36.6344C74.4902 36.3709 74.5766 36.2801 74.2945 36.0161C74.0123 35.7521 74.2183 35.5364 73.9362 35.2724C73.6541 35.0084 73.6795 34.9809 73.3968 34.7163C73.114 34.4517 72.8506 34.7282 72.5685 34.4642C72.2864 34.2002 72.2375 34.2522 71.9554 33.9881C71.6732 33.7241 71.8454 33.5437 71.5633 33.2803C71.2812 33.0169 71.4219 32.8681 71.1392 32.6041C70.8565 32.3401 70.7151 32.4882 70.4324 32.2236C70.1497 31.959 70.2959 31.8073 70.0132 31.5432C69.7304 31.2792 69.4169 31.6072 69.1342 31.3431C68.8515 31.0791 69.0732 30.8467 68.7904 30.5821C68.5077 30.3175 68.2842 30.5529 68.0027 30.2894C67.7212 30.026 68.0293 29.704 67.7478 29.4412C67.4663 29.1784 67.1515 29.5063 66.87 29.2429C66.5885 28.9795 66.9165 28.6336 66.6332 28.369C66.3499 28.1044 66.0363 28.4335 65.7536 28.1695C65.4709 27.9054 65.7802 27.5823 65.4975 27.3183C65.2148 27.0542 65.0299 27.246 64.7466 26.9808C64.4632 26.7155 64.3032 26.8834 64.0204 26.6188C63.7377 26.3542 63.9999 26.0788 63.7166 25.8136C63.4332 25.5483 63.5504 25.4283 63.2683 25.1643C62.9844 24.899 63.0001 24.8829 62.7162 24.6177C62.4322 24.3525 62.2172 24.5765 61.9333 24.3113C61.6493 24.046 61.7575 23.9314 61.4723 23.6649C61.1872 23.3985 60.9039 23.7085 60.6109 23.4511C60.3807 23.2832 60.275 23.1554 60.0056 23.0987C59.7313 23.0407 59.5126 22.9338 59.2389 22.9911C58.9689 23.0479 58.7641 23.1459 58.5352 23.3143C58.2464 23.5682 58.1836 23.4977 57.9033 23.7605C57.623 24.0233 57.6133 24.0138 57.333 24.2766C57.0527 24.5394 56.8902 24.3686 56.6111 24.6302C56.332 24.8919 56.4963 25.0633 56.2166 25.3249C55.9369 25.5866 56.036 25.6905 55.7563 25.9527C55.4766 26.215 55.5032 26.2448 55.2222 26.5083C54.9413 26.7717 54.8616 26.6869 54.5813 26.9497C54.301 27.2125 54.1862 27.0925 53.9059 27.3553C53.6256 27.6181 53.6238 27.6175 53.3423 27.881C53.0608 28.1444 53.0239 28.105 52.743 28.3678C52.4621 28.6306 52.4119 28.5792 52.1304 28.8421C51.8489 29.1049 52.0199 29.2811 51.7396 29.5433C51.4581 29.8068 51.2581 29.5983 50.9766 29.8617C50.6951 30.1252 51.069 30.517 50.7869 30.781C50.5048 31.0451 50.3483 30.8832 50.0656 31.1478C49.7829 31.4124 49.943 31.5791 49.6609 31.8443C49.3703 32.1167 49.3534 32.0982 49.0634 32.3711C48.7734 32.6441 48.745 32.6137 48.4557 32.8855C48.1663 33.1572 47.8214 32.7988 47.532 33.0712C47.2426 33.3436 47.2922 33.3968 47.0016 33.6698C46.711 33.9427 47.0016 34.2438 46.7122 34.5168C46.4229 34.7898 46.1872 34.5455 45.8967 34.819C45.6061 35.0926 45.8417 35.3345 45.5529 35.6063C45.2624 35.8799 45.0322 35.6404 44.7416 35.914C44.4511 36.1875 44.6039 36.347 44.3127 36.6206C44.0215 36.8942 43.8192 36.6857 43.5274 36.9599C43.2356 37.2341 43.3612 37.3649 43.0695 37.6391C42.8677 37.8296 42.7088 38.0763 42.4823 38.2209C42.2491 38.3696 41.9392 38.3684 41.6873 38.4688C41.4317 38.5703 41.1774 38.6289 40.9098 38.6802C40.6404 38.7316 40.3824 38.8935 40.1093 38.8941C39.8363 38.8947 39.524 39.0142 39.2539 38.964C38.9863 38.9138 38.6794 38.8409 38.4233 38.7406C38.1714 38.642 38.1587 38.0829 37.9249 37.9354C37.6978 37.792 37.4736 37.709 37.2707 37.519C36.9746 37.2424 36.7445 37.4832 36.4485 37.2066C36.1525 36.93 36.3663 36.7042 36.0691 36.4271C35.7719 36.1499 35.5484 36.3847 35.2517 36.1075C34.9551 35.8303 35.2252 35.5478 34.9279 35.27C34.6307 34.9923 34.2634 35.3793 33.968 35.1028C33.6708 34.825 33.8708 34.6159 33.5735 34.3382C33.2763 34.0604 33.4098 33.92 33.112 33.6417C32.8142 33.3633 32.7936 33.383 32.4952 33.1041C32.1968 32.8251 32.076 32.9518 31.7691 32.6818C31.5407 32.5133 31.3124 32.2989 31.0429 32.2421C30.7699 32.1848 30.4286 32.097 30.1555 32.1543C29.8861 32.2111 29.5677 32.3915 29.3394 32.5599C29.0494 32.8144 29.2959 33.079 29.0144 33.3424C28.7328 33.6058 28.4894 33.3514 28.2079 33.6148C27.9264 33.8782 27.849 33.797 27.5675 34.0604C27.286 34.3238 27.3416 34.3824 27.0601 34.6464C26.7786 34.9104 27.0117 35.1541 26.7296 35.4182C26.4475 35.6822 26.3859 35.6183 26.1032 35.8823C25.8204 36.1463 25.7401 36.0615 25.458 36.3255C25.1759 36.5896 25.0526 36.4599 24.7705 36.724C24.4884 36.988 24.7047 37.2132 24.4225 37.4772C24.1404 37.7412 24.1036 37.7036 23.8215 37.9676C23.5393 38.2316 23.3714 38.0572 23.0893 38.3212C22.8072 38.5853 23.0549 38.8439 22.7727 39.1079C22.4906 39.372 22.5528 39.4377 22.2707 39.7017C21.9886 39.9657 21.657 39.6199 21.3742 39.8845C21.0915 40.1491 21.2897 40.3534 21.0081 40.6168C20.7266 40.8802 20.7804 40.9358 20.4989 41.1986C20.2174 41.4614 20.3122 41.5618 20.0307 41.8252C19.7492 42.0887 19.7625 42.1054 19.4792 42.37C19.1958 42.6346 19.2049 42.643 18.9228 42.907C18.6407 43.171 18.5839 43.1125 18.3018 43.3765C18.0196 43.6405 17.9145 43.533 17.6312 43.7976C17.3479 44.0623 17.3297 44.0425 17.047 44.3072C16.7643 44.5718 16.5891 44.3896 16.3058 44.6542C16.0225 44.9188 16.2273 45.1303 15.9451 45.3943C15.6618 45.6595 15.425 45.4128 15.1417 45.6781C14.8584 45.9433 14.9762 46.0675 14.6922 46.3333C14.4083 46.5992 14.5231 46.7204 14.2385 46.9868C13.954 47.2532 14.009 47.31 13.7257 47.5776C13.5336 47.7634 13.124 47.7676 12.9971 47.9784C12.8648 48.1982 12.7929 48.4873 12.7289 48.7346C12.6673 48.973 13.0466 49.2543 13.0466 49.5184L13.0485 49.5219ZM54.7378 37.832C54.7378 37.5602 54.7583 37.243 54.8042 36.9838C54.8513 36.718 55.2869 36.5364 55.3787 36.2879C55.4717 36.0352 55.2706 35.6272 55.4053 35.3973C55.5412 35.1655 55.8439 35.006 56.0173 34.8017C56.1906 34.5974 56.3411 34.3256 56.5477 34.1536C56.7543 33.9816 57.2249 34.1811 57.4592 34.0473C57.6912 33.9147 57.8108 33.5712 58.0664 33.4792C58.3177 33.389 58.5883 33.3317 58.8578 33.2851C59.1193 33.2397 59.3936 33.4667 59.6685 33.4667C59.9433 33.4667 60.2267 33.1895 60.4888 33.2343C60.7583 33.2809 61.0996 33.1728 61.3509 33.263C61.6064 33.355 61.6391 33.9278 61.8716 34.0604C62.1066 34.1942 62.5941 33.9708 62.8007 34.1423C63.0073 34.3137 63.0696 34.6625 63.2436 34.8668C63.4175 35.0711 63.2949 35.4534 63.4308 35.6852C63.5655 35.9152 63.9032 36.0215 63.9963 36.2742C64.0881 36.5227 64.4258 36.7275 64.4729 36.994C64.5188 37.2532 64.5448 37.559 64.5448 37.8314C64.5448 38.1038 64.3575 38.3816 64.3116 38.6408C64.2645 38.9072 64.3811 39.2459 64.2893 39.4938C64.1962 39.7465 63.7262 39.8397 63.5915 40.0697C63.4556 40.3014 63.3366 40.5254 63.1632 40.7297C62.9898 40.934 62.6956 40.9818 62.489 41.1532C62.2824 41.3247 62.0831 41.4292 61.8487 41.563C61.6161 41.6956 61.566 42.1962 61.3098 42.2876C61.0585 42.3778 60.7395 42.2768 60.4701 42.3234C60.2079 42.3688 59.9433 42.6454 59.6685 42.6454C59.3936 42.6454 59.0994 42.5343 58.8378 42.4889C58.569 42.4423 58.3213 42.2625 58.0706 42.1723C57.8151 42.0803 57.6918 41.7476 57.4599 41.6144C57.2255 41.48 57.0152 41.3718 56.8092 41.2004C56.6032 41.029 56.1798 41.0738 56.0064 40.8695C55.833 40.6652 55.6916 40.4107 55.5557 40.179C55.4216 39.9496 55.3974 39.6545 55.3044 39.4018C55.2132 39.1533 55.0954 38.903 55.0483 38.6366C55.0024 38.378 54.739 38.1026 54.739 37.8308L54.7378 37.832Z" fill="white"/>
</mask>
<g mask="url(#mask0_2973_8786)">
<path d="M69.0533 48.752C68.6631 48.752 68.6631 48.9228 68.2728 48.9228C67.8826 48.9228 67.882 48.6498 67.4917 48.6498C67.1015 48.6498 67.1015 48.9126 66.7118 48.9126C66.3222 48.9126 66.3222 49.1528 65.9325 49.1528C65.5429 49.1528 65.5423 48.9867 65.1526 48.9867C64.763 48.9867 64.7618 48.9359 64.3715 48.9359C63.9812 48.9359 63.9812 48.8613 63.5904 48.8613C63.1995 48.8613 63.2001 48.6516 62.8099 48.6516C62.4196 48.6516 62.4196 48.6737 62.0288 48.6737C61.6379 48.6737 61.6379 49.1313 61.2471 49.1313C60.8562 49.1313 60.8568 48.9431 60.466 48.9431C60.0751 48.9431 60.0751 48.6594 59.6843 48.6594C59.2934 48.6594 59.2934 48.5859 58.9031 48.5859C58.5129 48.5859 58.5123 49.0046 58.1214 49.0046C57.7306 49.0046 57.7312 48.9091 57.3415 48.9091C56.9519 48.9091 56.9513 48.8111 56.5616 48.8111C56.172 48.8111 56.1702 48.5931 55.7793 48.5931C55.3885 48.5931 55.3885 48.7998 54.9982 48.7998C54.608 48.7998 54.6067 48.7974 54.2159 48.7974C53.825 48.7974 53.8244 49.105 53.433 49.105C53.0415 49.105 53.0421 49.0978 52.6507 49.0978C52.2592 49.0978 52.2586 49.0261 51.8665 49.0261C51.4745 49.0261 51.4739 48.6606 51.0812 48.6606C50.6885 48.6606 50.6885 48.6008 50.2959 48.6008C50.0083 48.6008 49.6543 48.737 49.4042 48.8392C49.145 48.9455 49.1209 49.4192 48.9251 49.6127C48.7294 49.8063 48.6599 49.9974 48.5524 50.2543C48.4485 50.5016 48.4255 50.6838 48.4255 50.9681C48.4255 51.3516 48.0812 51.3516 48.0812 51.7351C48.0812 52.1186 48.2226 52.118 48.2226 52.5015C48.2226 52.885 47.9181 52.8844 47.9181 53.2672C47.9181 53.6501 48.1187 53.6501 48.1187 54.033C48.1187 54.4159 48.0353 54.4165 48.0353 54.7994C48.0353 55.1823 48.2661 55.1835 48.2661 55.567C48.2661 55.9505 48.2497 55.9511 48.2497 56.3358C48.2497 56.7205 48.3222 56.7193 48.3222 57.1034C48.3222 57.4874 47.8831 57.4869 47.8831 57.8703C47.8831 58.2538 47.9465 58.2538 47.9465 58.6379C47.9465 59.022 48.2099 59.022 48.2099 59.4067C48.2099 59.7914 48.3186 59.7908 48.3186 60.1755C48.3186 60.5602 48.4304 60.5596 48.4304 60.9431C48.4304 61.3265 48.0721 61.3271 48.0721 61.7112C48.0721 62.0953 47.9743 62.0959 47.9743 62.4806C47.9743 62.8653 47.9344 62.8647 47.9344 63.2488C47.9344 63.6329 48.2419 63.6335 48.2419 64.0182C48.2419 64.4028 48.2063 64.4028 48.2063 64.7869C48.2063 65.171 48.4413 65.1716 48.4413 65.5563C48.4413 65.941 48.1211 65.9398 48.1211 66.3239C48.1211 66.708 48.2497 66.7074 48.2497 67.0915C48.2497 67.4755 48.2642 67.4767 48.2642 67.8614C48.2642 68.2461 47.8933 68.2455 47.8933 68.6302C47.8933 69.0149 48.4135 69.0149 48.4135 69.4002C48.4135 69.7855 48.2872 69.7855 48.2872 70.1707C48.2872 70.556 47.8909 70.5554 47.8909 70.9401C47.8909 71.3248 48.2214 71.326 48.2214 71.7113C48.2214 72.0966 48.2975 72.0978 48.2975 72.4836C48.2975 72.8695 47.7369 73.1431 48.0148 73.4143C48.2963 73.6891 48.5687 73.0165 48.9644 73.0165C49.3601 73.0165 49.3601 73.1939 49.7552 73.1939C50.1503 73.1939 50.1503 73.0648 50.546 73.0648C50.9416 73.0648 50.941 73.2644 51.3367 73.2644C51.7324 73.2644 51.7324 73.4925 52.1281 73.4925C52.5238 73.4925 52.5244 73.0559 52.9207 73.0559C53.317 73.0559 53.3176 73.4161 53.7139 73.4161C54.1102 73.4161 54.1102 73.0505 54.5059 73.0505C54.9015 73.0505 54.9016 73.2112 55.2972 73.2112C55.6929 73.2112 55.6935 73.4406 56.0892 73.4406C56.4849 73.4406 56.4861 73.1963 56.8824 73.1963C57.2787 73.1963 57.2787 73.0117 57.6756 73.0117C58.0725 73.0117 58.0719 73.1234 58.4682 73.1234C58.8645 73.1234 58.8645 73.4268 59.2614 73.4268C59.6583 73.4268 59.6583 72.9657 60.0552 72.9657C60.4521 72.9657 60.4515 73.3283 60.8484 73.3283C61.2453 73.3283 61.2453 73.1431 61.6422 73.1431C62.0391 73.1431 62.0391 73.4083 62.4353 73.4083C62.8316 73.4083 62.8322 73.0398 63.2291 73.0398C63.626 73.0398 63.6254 73.1843 64.0211 73.1843C64.4168 73.1843 64.4174 73.0212 64.8131 73.0212C65.2088 73.0212 65.2106 73.1843 65.6075 73.1843C66.0044 73.1843 66.0044 73.5373 66.4007 73.5373C66.797 73.5373 66.7982 73.4388 67.1951 73.4388C67.592 73.4388 67.5926 73.1102 67.9907 73.1102C68.3888 73.1102 68.3876 73.1622 68.7851 73.1622C69.1826 73.1622 69.1832 73.1885 69.5813 73.1885C69.9794 73.1885 69.98 73.3982 70.3787 73.3982C70.7774 73.3982 70.7025 73.3384 70.9883 73.0636C71.2662 72.796 71.0378 72.8707 71.0378 72.4872C71.0378 72.1037 71.007 72.1043 71.007 71.7208C71.007 71.3373 71.2444 71.3379 71.2444 70.955C71.2444 70.5722 71.2933 70.5722 71.2933 70.1893C71.2933 69.8064 71.3568 69.8058 71.3568 69.4229C71.3568 69.04 71.2643 69.0388 71.2643 68.6553C71.2643 68.2718 70.9943 68.2712 70.9943 67.8865C70.9943 67.5018 71.2202 67.503 71.2202 67.1189C71.2202 66.7348 71.1773 66.7354 71.1773 66.352C71.1773 65.9685 70.9043 65.9685 70.9043 65.5844C70.9043 65.2003 71.1109 65.2003 71.1109 64.8156C71.1109 64.4309 71.3459 64.4315 71.3459 64.0468C71.3459 63.6621 71.4111 63.6627 71.4111 63.2792C71.4111 62.8958 70.9774 62.8952 70.9774 62.5111C70.9774 62.127 71.4685 62.1264 71.4685 61.7417C71.4685 61.357 71.1049 61.3576 71.1049 60.9735C71.1049 60.5894 70.9997 60.5888 70.9997 60.2041C70.9997 59.8195 71.4256 59.8195 71.4256 59.4354C71.4256 59.0513 71.4244 59.0507 71.4244 58.666C71.4244 58.2813 71.2202 58.2825 71.2202 57.8984C71.2202 57.5143 71.0209 57.5149 71.0209 57.1308C71.0209 56.7467 71.2535 56.7456 71.2535 56.3609C71.2535 55.9762 71.4341 55.9768 71.4341 55.5921C71.4341 55.2074 71.068 55.2074 71.068 54.8221C71.068 54.4368 71.3979 54.4368 71.3979 54.0516C71.3979 53.6663 71.0245 53.6669 71.0245 53.2822C71.0245 52.8975 70.9919 52.8963 70.9919 52.511C70.9919 52.1257 71.2148 52.1245 71.2148 51.7387C71.2148 51.3528 71.1931 51.3522 71.1931 50.9663C71.1931 50.682 70.8916 50.5034 70.7877 50.2561C70.6802 49.9998 70.8511 49.5751 70.6554 49.3822C70.4597 49.1892 70.1431 49.0901 69.884 48.9837C69.6339 48.881 69.3409 48.7508 69.0533 48.7508V48.752Z" fill="#B83D00"/>
<path d="M35.1829 49.0309C34.7927 49.0309 34.7927 48.7544 34.4024 48.7544C34.0122 48.7544 34.0122 48.9933 33.6213 48.9933C33.2305 48.9933 33.2317 48.8888 32.842 48.8888C32.4524 48.8888 32.4524 48.5973 32.0627 48.5973C31.6731 48.5973 31.6719 48.844 31.281 48.844C30.8902 48.844 30.8908 48.8225 30.5005 48.8225C30.1103 48.8225 30.1097 49.0267 29.7188 49.0267C29.3279 49.0267 29.3273 48.8141 28.9365 48.8141C28.5456 48.8141 28.5456 49.0638 28.1554 49.0638C27.7651 49.0638 27.7639 48.9598 27.3725 48.9598C26.981 48.9598 26.9804 49.047 26.5883 49.047C26.1963 49.047 26.1963 49.0674 25.8042 49.0674C25.5166 49.0674 25.3336 49.1432 25.0829 49.2454C24.8237 49.3517 24.6878 49.4765 24.4927 49.6701C24.2976 49.8636 24.0601 49.952 23.9526 50.2083C23.8487 50.4556 23.5986 50.682 23.5986 50.9669C23.5986 51.3504 23.5811 51.3504 23.5811 51.7339C23.5811 52.1174 23.685 52.1168 23.685 52.5003C23.685 52.8838 23.8306 52.8832 23.8306 53.2661C23.8306 53.6489 23.8711 53.6489 23.8711 54.0318C23.8711 54.4147 23.7792 54.4153 23.7792 54.7982C23.7792 55.1811 23.6572 55.1823 23.6572 55.5658C23.6572 55.9493 23.9363 55.9499 23.9363 56.3346C23.9363 56.7193 23.7623 56.7181 23.7623 57.1022C23.7623 57.4862 23.4766 57.4857 23.4766 57.8691C23.4766 58.2526 23.7968 58.2526 23.7968 58.6367C23.7968 59.0208 23.9641 59.0208 23.9641 59.4055C23.9641 59.7902 23.9502 59.7896 23.9502 60.1743C23.9502 60.559 23.6409 60.5584 23.6409 60.9419C23.6409 61.3253 23.74 61.3259 23.74 61.71C23.74 62.0941 23.8566 62.0947 23.8566 62.4794C23.8566 62.8641 23.572 62.8635 23.572 63.2476C23.572 63.6317 23.6941 63.6323 23.6941 64.017C23.6941 64.4016 23.6868 64.4016 23.6868 64.7857C23.6868 65.1698 23.5454 65.1704 23.5454 65.5551C23.5454 65.9398 23.5527 65.9386 23.5527 66.3227C23.5527 66.7068 23.9732 66.7062 23.9732 67.0903C23.9732 67.4743 23.4192 67.4755 23.4192 67.8602C23.4192 68.2449 23.5171 68.2443 23.5171 68.629C23.5171 69.0137 23.4699 69.0137 23.4699 69.399C23.4699 69.7843 23.8904 69.7843 23.8904 70.1695C23.8904 70.5548 23.5781 70.5542 23.5781 70.9389C23.5781 71.3236 23.72 71.3248 23.72 71.7101C23.72 72.0954 23.4355 72.0966 23.4355 72.4824C23.4355 72.8683 23.5394 72.8456 23.8185 73.1156C24.1042 73.3922 24.0807 73.0105 24.4806 73.0105C24.8805 73.0105 24.8805 73.3068 25.281 73.3068C25.6816 73.3068 25.6816 73.4645 26.0821 73.4645C26.4826 73.4645 26.482 73.1132 26.8825 73.1132C27.283 73.1132 27.283 73.0171 27.6836 73.0171C28.0841 73.0171 28.0841 73.3731 28.4846 73.3731C28.8851 73.3731 28.8851 73.532 29.2857 73.532C29.6862 73.532 29.6856 73.2649 30.0849 73.2649C30.4842 73.2649 30.4848 73.029 30.8841 73.029C31.2834 73.029 31.2852 73.514 31.6864 73.514C32.0875 73.514 32.0869 73.308 32.4868 73.308C32.8867 73.308 32.8879 73.2261 33.2885 73.2261C33.689 73.2261 33.6896 73.0822 34.0913 73.0822C34.493 73.0822 34.4918 73.1718 34.893 73.1718C35.2941 73.1718 35.2947 73.2237 35.6964 73.2237C36.0981 73.2237 36.0988 73.3265 36.5011 73.3265C36.9034 73.3265 36.8303 73.3408 37.1197 73.0642C37.3988 72.7978 37.3734 72.8713 37.3734 72.4878C37.3734 72.1043 37.5951 72.1049 37.5951 71.7214C37.5951 71.3379 37.249 71.3385 37.249 70.9556C37.249 70.5727 37.0261 70.5727 37.0261 70.1899C37.0261 69.807 37.519 69.8064 37.519 69.4235C37.519 69.0406 37.4157 69.0394 37.4157 68.6559C37.4157 68.2724 37.3855 68.2718 37.3855 67.8871C37.3855 67.5024 37.0526 67.5036 37.0526 67.1195C37.0526 66.7354 37.2441 66.736 37.2441 66.3525C37.2441 65.9691 37.5583 65.9691 37.5583 65.585C37.5583 65.2009 37.0146 65.2009 37.0146 64.8162C37.0146 64.4315 37.3287 64.4321 37.3287 64.0474C37.3287 63.6627 37.496 63.6633 37.496 63.2798C37.496 62.8963 37.0979 62.8957 37.0979 62.5117C37.0979 62.1276 37.0871 62.127 37.0871 61.7423C37.0871 61.3576 37.4767 61.3582 37.4767 60.9741C37.4767 60.59 37.5256 60.5894 37.5256 60.2047C37.5256 59.8201 37.0744 59.8201 37.0744 59.436C37.0744 59.0519 37.5661 59.0513 37.5661 58.6666C37.5661 58.2819 37.4707 58.2831 37.4707 57.899C37.4707 57.5149 37.0732 57.5155 37.0732 57.1314C37.0732 56.7473 37.4858 56.7461 37.4858 56.3615C37.4858 55.9768 37.2351 55.9774 37.2351 55.5927C37.2351 55.208 37.1686 55.208 37.1686 54.8227C37.1686 54.4374 37.3559 54.4374 37.3559 54.0522C37.3559 53.6669 37.5021 53.6675 37.5021 53.2828C37.5021 52.8981 37.2792 52.8969 37.2792 52.5116C37.2792 52.1263 37.5861 52.1251 37.5861 51.7393C37.5861 51.3534 37.1445 51.3528 37.1445 50.9669C37.1445 50.6826 37.043 50.495 36.9391 50.2477C36.8315 49.9914 37.0412 49.516 36.8454 49.3224C36.6497 49.1289 36.1797 49.3117 35.9205 49.2053C35.6704 49.1026 35.4705 49.0309 35.1829 49.0309Z" fill="#B83D00"/>
</g>
<path d="M4.22137 72.7554C4.22137 73.0195 4.01476 73.2697 4.05161 73.5236C4.08907 73.7835 4.34098 73.9716 4.41408 74.2183C4.48838 74.4698 4.34581 74.7774 4.45455 75.0122C4.5645 75.2493 4.52342 75.5796 4.66478 75.7971C4.80735 76.0163 5.12752 76.1167 5.29909 76.3126C5.47066 76.5085 5.47126 76.8992 5.66941 77.0694C5.86755 77.2397 6.24935 77.1978 6.47045 77.3394C6.69034 77.4798 6.97246 77.4893 7.21289 77.5981C7.45031 77.7056 7.62248 77.9774 7.8762 78.0508C8.1257 78.1231 8.42654 77.9367 8.68933 77.9738C8.94607 78.0102 9.18107 78.1703 9.44808 78.1703C9.83773 78.1703 9.83773 77.9833 10.2274 77.9833C10.617 77.9833 10.6164 78.4899 11.0061 78.4899C11.3957 78.4899 11.3957 78.2802 11.7854 78.2802C12.175 78.2802 12.175 78.1781 12.5641 78.1781C12.9531 78.1781 12.9537 78.2497 13.3434 78.2497C13.733 78.2497 13.7318 78.4982 14.1208 78.4982C14.5099 78.4982 14.5093 78.1673 14.8983 78.1673C15.2874 78.1673 15.2886 78.0252 15.6782 78.0252C16.0679 78.0252 16.0679 78.368 16.4569 78.368C16.846 78.368 16.8466 78.1769 17.2368 78.1769C17.6271 78.1769 17.6271 78.5012 18.0173 78.5012C18.4076 78.5012 18.407 78.0974 18.7966 78.0974C19.1863 78.0974 19.1875 78.0544 19.5777 78.0544C19.968 78.0544 19.9692 78.0455 20.3606 78.0455C20.7521 78.0455 20.7521 78.0329 21.1436 78.0329C21.3804 78.0329 21.587 77.9899 21.8165 77.9612C22.0509 77.932 22.3149 78.1267 22.5396 78.0688C22.7674 78.0102 22.9136 77.7396 23.1299 77.6542C23.3479 77.5682 23.6083 77.6034 23.8119 77.4917C24.0276 77.3723 24.091 77.0593 24.2879 76.9135C24.4849 76.7678 24.8914 76.8801 25.0672 76.7098C25.243 76.5396 25.3524 76.3018 25.504 76.1089C25.6556 75.9159 25.5831 75.594 25.707 75.3825C25.829 75.1764 25.9087 74.9835 26.003 74.7607C26.096 74.5409 26.5273 74.4423 26.5908 74.2088C26.653 73.9788 26.7007 73.7279 26.7327 73.4878C26.7642 73.2524 26.7805 72.9979 26.7805 72.7548C26.7805 72.4741 26.6451 72.1981 26.6041 71.9293C26.5618 71.6533 26.383 71.4192 26.3002 71.1581C26.2162 70.8929 26.4482 70.4927 26.3256 70.2466C26.2017 69.9975 25.8036 69.8906 25.6447 69.6648C25.4847 69.4378 25.5384 69.0155 25.3463 68.8154C25.1542 68.6153 24.7217 68.6505 24.5012 68.4809C24.2807 68.3112 24.12 68.046 23.8747 67.9116C23.6711 67.8005 23.3715 67.8889 23.1534 67.8029C22.9378 67.7181 22.7487 67.5771 22.5209 67.5186C22.2962 67.4612 22.0461 67.6201 21.8123 67.5908C21.5827 67.5622 21.381 67.4702 21.1442 67.4702C20.9025 67.4702 20.7032 67.2569 20.4736 67.2868C20.3709 67.0335 20.0664 66.9332 19.9281 66.7002C19.7892 66.4655 19.7668 66.1656 19.5946 65.9547C19.4225 65.7439 19.2412 65.5396 19.0395 65.3556C18.8377 65.1716 18.7863 64.7654 18.5592 64.6125C18.3333 64.4608 18.0511 64.3168 17.8029 64.1986C17.557 64.0821 17.1075 64.4691 16.8429 64.3891C16.5832 64.3103 16.3518 64.2661 16.0769 64.2254C15.8093 64.186 15.5743 63.8646 15.2952 63.8646C14.9974 63.8646 14.705 63.9286 14.4193 63.974C14.1269 64.02 13.8248 64.0385 13.5494 64.1281C13.269 64.2195 13.0769 64.5002 12.8184 64.6322C12.584 64.7529 12.1611 64.5838 11.9485 64.735C11.7358 64.8861 11.6966 65.2714 11.5075 65.4512C11.3184 65.631 11.1251 65.8048 10.9626 66.0097C10.8001 66.2146 10.6448 66.4224 10.5131 66.6488C10.3826 66.8728 10.1694 66.9589 10.0709 67.202C9.83531 67.1721 9.68912 67.3089 9.44748 67.3089C9.18107 67.3089 8.90378 67.2139 8.64704 67.2504C8.38425 67.2874 8.08341 67.2486 7.83391 67.3208C7.58019 67.3943 7.33069 67.5508 7.09328 67.6583C6.85345 67.7671 6.64745 67.969 6.42756 68.1087C6.20646 68.2497 6.11342 68.5543 5.91528 68.724C5.71713 68.8936 5.27674 68.8375 5.10457 69.0334C4.9324 69.2293 4.94992 69.5871 4.80735 69.8058C4.66599 70.0232 4.58745 70.2729 4.47751 70.51C4.36877 70.7448 4.492 71.0429 4.4177 71.2937C4.3446 71.5404 4.04074 71.7202 4.00328 71.9801C3.96643 72.234 4.22076 72.4908 4.22076 72.7542L4.22137 72.7554Z" fill="#3BA36F"/>
<path d="M69.9854 49.9425C70.1413 49.725 70.2772 49.4712 70.4518 49.2693C70.6264 49.0674 70.9423 48.9784 71.135 48.7932C71.3277 48.608 71.6908 48.6218 71.8998 48.4545C72.1088 48.2872 72.2858 48.1045 72.5094 47.9563C72.7329 47.8082 72.9679 47.7108 73.2047 47.583C73.4403 47.4563 73.6396 47.2873 73.8873 47.1816C74.1332 47.0764 74.4183 47.123 74.6751 47.04C74.9294 46.9582 75.249 46.7539 75.513 46.6947C75.5432 46.4271 75.5764 46.0622 75.6302 45.8029C75.6851 45.5401 75.3891 45.1859 75.4671 44.9314C75.5456 44.6745 75.6845 44.4195 75.786 44.1734C75.8881 43.9255 76.2319 43.7815 76.3557 43.545C76.4801 43.3072 76.5206 43.0229 76.6656 42.7983C76.8106 42.5737 77.0335 42.4005 77.1984 42.1896C77.3633 41.9788 77.4008 41.652 77.585 41.4567C77.7693 41.2613 78.1354 41.2458 78.3366 41.0678C78.5377 40.8898 78.6507 40.6073 78.8676 40.4478C79.0844 40.2883 79.1914 39.9406 79.4221 39.8015C79.6529 39.6623 80.0945 39.8893 80.3373 39.7716C80.5784 39.6545 80.6889 39.2244 80.9421 39.1288C81.1928 39.0339 81.4628 38.9198 81.7238 38.8469C81.9823 38.7752 82.3224 39.0046 82.5901 38.9562C82.8534 38.9084 83.1301 39.0201 83.4014 38.9962C83.6678 38.9723 83.9197 38.6408 84.1928 38.6408C84.4658 38.6408 84.7413 38.7137 85.0077 38.7376C85.2789 38.7621 85.4916 39.1271 85.755 39.1748C86.0226 39.2232 86.4032 38.777 86.6617 38.8487C86.9233 38.921 87.2006 39.016 87.4513 39.1109C87.7044 39.2065 87.7443 39.7829 87.9859 39.9006C88.2288 40.0189 88.4849 40.0697 88.7145 40.2088C88.944 40.348 89.1802 40.4543 89.3965 40.6132C89.6128 40.7721 89.8985 40.8378 90.0997 41.0158C90.3009 41.1938 90.4193 41.4477 90.6029 41.643C90.7866 41.8384 90.9364 42.0474 91.1019 42.2589C91.2674 42.4704 91.5048 42.6203 91.6504 42.8455C91.796 43.0707 91.7803 43.3741 91.9048 43.6119C92.0286 43.8484 92.5717 43.898 92.6732 44.1465C92.7741 44.3926 92.8822 44.6644 92.9607 44.9212C93.0387 45.1751 92.5965 45.5634 92.6514 45.8262C92.7052 46.0861 93.1359 46.1721 93.1661 46.4397C93.4265 46.4988 93.5298 46.7115 93.7811 46.7927C94.0348 46.8745 94.2867 46.9558 94.5296 47.0591C94.7743 47.1631 95.0135 47.2765 95.2461 47.4008C95.4798 47.5256 95.6272 47.7807 95.8484 47.9259C96.0695 48.071 96.2996 48.1863 96.5062 48.35C96.7128 48.5136 97.1031 48.4772 97.2946 48.6588C97.4861 48.8404 97.7561 48.9766 97.9307 49.1737C98.1053 49.3708 98.2074 49.6522 98.3638 49.8648C98.5203 50.0775 98.4714 50.4293 98.6079 50.6551C98.7444 50.8809 99.0163 51.035 99.1323 51.2721C99.247 51.5075 99.0966 51.854 99.1903 52.1007C99.2833 52.345 99.7623 52.471 99.8336 52.7255C99.9037 52.977 99.6729 53.3073 99.7201 53.5671C99.7666 53.8234 99.9738 54.0641 99.9974 54.3275C100.021 54.5868 99.8922 54.8598 99.8922 55.1244C99.8922 55.389 100.016 55.6483 99.9943 55.9009C99.972 56.1578 99.9297 56.42 99.8856 56.6697C99.8409 56.923 99.8578 57.2019 99.7913 57.4474C99.7243 57.6959 99.7297 57.9868 99.6415 58.2258C99.5527 58.4671 99.3123 58.6648 99.2036 58.8954C99.0936 59.1277 99.0284 59.3989 98.8991 59.6194C98.7698 59.8398 98.4484 59.9521 98.2998 60.1611C98.1512 60.3702 98.1621 60.7131 97.9959 60.9084C97.8298 61.1037 97.3526 61.0195 97.1695 61.2005C96.9865 61.3815 96.7914 61.5225 96.5938 61.6867C96.3963 61.851 96.351 62.1987 96.1389 62.3456C95.9269 62.4926 95.5838 62.4191 95.3596 62.5475C95.1355 62.6759 95.0292 63.0069 94.7942 63.115C94.561 63.2225 94.329 63.3468 94.085 63.4346C93.8433 63.5218 93.5268 63.3587 93.2755 63.425C93.0272 63.4907 92.8139 63.6669 92.5572 63.7111C92.3047 63.7547 92.0848 64.1424 91.825 64.1651C91.5695 64.1872 91.2862 64.1502 91.0252 64.1502C90.7624 64.1502 90.5044 63.8772 90.2483 63.8551C89.9873 63.8324 89.7602 63.6377 89.5065 63.5935C89.2491 63.5487 88.9591 63.689 88.7096 63.6227C88.4577 63.5558 88.2759 63.2954 88.033 63.2076C87.7884 63.1186 87.6065 62.9346 87.3722 62.8259C87.1366 62.716 86.6635 63.0576 86.44 62.9286C86.2165 62.7996 86.2044 62.3331 85.993 62.1849C85.7815 62.0368 85.436 62.0613 85.2385 61.8958C85.0409 61.7304 84.7334 61.6587 84.551 61.4765C84.3685 61.2943 84.2713 61.0135 84.1052 60.8158L84.2918 60.8242C84.1058 61.041 84.0012 61.357 83.7977 61.5559C83.5923 61.7572 83.1011 61.6515 82.8794 61.8289C82.6607 62.0051 82.5097 62.2608 82.2747 62.4155C82.0397 62.5702 81.8059 62.7237 81.557 62.8563C81.3094 62.9883 81.1293 63.2822 80.8684 63.3904C80.6092 63.4979 80.2624 63.3921 79.9912 63.4752C79.723 63.5576 79.4729 63.7189 79.1944 63.7756C78.9201 63.8318 78.6217 63.7488 78.3384 63.7786C78.0605 63.8085 77.782 63.7589 77.4968 63.7619C77.4485 63.7679 77.4099 63.8085 77.3621 63.8085C77.1006 63.8085 76.8601 63.689 76.604 63.6669C76.3442 63.6448 76.1098 63.5893 75.8567 63.5451C75.6 63.5009 75.3662 63.4531 75.1179 63.3874C74.8666 63.3211 74.6515 63.2153 74.4093 63.1281C74.1652 63.0403 73.8287 63.2016 73.5949 63.0935C73.3599 62.9848 73.0222 63.0487 72.7987 62.9209C72.5752 62.793 72.5522 62.3444 72.3408 62.1975C72.1294 62.0505 71.7071 62.1676 71.509 62.0027C71.3108 61.8379 71.0523 61.7065 70.8698 61.5255C70.688 61.3451 70.6131 61.0422 70.4469 60.8469C70.2808 60.6516 70.4034 60.2412 70.2554 60.0321C70.1074 59.823 69.6163 59.8314 69.487 59.6104C69.3577 59.3894 69.5281 59.0107 69.4188 58.7795C69.31 58.5495 69.2865 58.298 69.1977 58.0573C69.1095 57.819 68.9578 57.6129 68.8908 57.3656C68.8243 57.1207 68.8793 56.8626 68.834 56.61C68.7899 56.3609 68.2969 56.1667 68.2746 55.9105C68.2528 55.6584 68.2407 55.3836 68.2407 55.1262C68.2407 54.8687 68.2142 54.5832 68.2371 54.3281C68.2601 54.0683 68.6685 53.8532 68.7138 53.6006C68.7597 53.3443 68.7162 53.0743 68.7844 52.8258C68.8533 52.5749 68.6618 52.2303 68.7524 51.989C68.843 51.7452 69.0496 51.5284 69.1614 51.2954C69.2738 51.0613 69.6241 50.9466 69.7558 50.7244C69.8887 50.501 69.8344 50.1539 69.986 49.9437L69.9854 49.9425Z" fill="#3BA36F"/>
<path d="M77.0697 50.3935L77.1736 50.4675C77.3712 50.1969 77.5766 49.8463 77.8853 49.7967C78.194 49.7471 78.4405 50.099 78.7141 50.2943C79.0597 50.5404 79.3086 50.1987 79.6535 50.4448C79.9984 50.6909 79.7278 51.0631 80.0734 51.3098C80.4189 51.5565 80.7191 51.1437 81.0641 51.3898C81.409 51.6359 81.1795 51.9519 81.5256 52.198C81.8718 52.4441 81.9769 52.3014 82.3236 52.5487C82.6704 52.796 82.6142 53.3867 83.0178 53.2475C83.3681 53.1263 82.7538 52.7422 82.7538 52.3754C82.7538 52.0087 83.0486 52.0087 83.0486 51.6425C83.0486 51.2763 83.0764 51.2751 83.0764 50.9084C83.0764 50.5416 82.7616 50.5404 82.7616 50.1718C82.7616 49.8033 83.2407 49.8039 83.2407 49.4353C83.2407 49.1014 83.0117 48.7072 83.2334 48.4885C83.4551 48.2699 83.8532 48.4784 84.1909 48.4784L84.1915 48.209C84.5292 48.209 84.7358 48.4599 84.9569 48.6785C85.178 48.8971 85.5242 49.1014 85.5242 49.4353C85.5242 49.8481 85.6505 49.8481 85.6505 50.2608C85.6505 50.6736 85.5345 50.673 85.5345 51.0846C85.5345 51.4961 85.175 51.4973 85.175 51.9095C85.175 52.3217 85.532 52.3223 85.532 52.7356C85.532 53.149 85.1823 53.1478 85.1823 53.5605C85.1823 53.9733 85.2596 53.9739 85.2596 54.3873C85.2596 54.8006 85.5157 54.8012 85.5157 55.2152C85.5157 55.6291 84.9956 55.9374 85.3623 56.1375C85.729 56.3376 85.6613 55.6548 86.0153 55.4338C86.3693 55.2128 86.5234 55.4529 86.8774 55.2319C87.2314 55.0109 87.0749 54.7666 87.4283 54.5456C87.7817 54.3245 87.8204 54.3831 88.1744 54.1615C88.5284 53.9399 88.6957 54.1991 89.051 53.9769C89.4062 53.7547 89.353 53.6711 89.7082 53.4494C89.9934 53.2708 90.2888 53.1406 90.5938 53.2081C90.8989 53.2756 91.3792 53.3503 91.5598 53.6322L91.3701 53.7517C91.5507 54.0336 91.4263 54.3365 91.358 54.6387C91.2898 54.941 91.3919 55.4577 91.1067 55.6363C90.7594 55.8531 90.6253 55.6435 90.2785 55.8609C89.9318 56.0783 89.791 55.8573 89.4442 56.0741C89.0975 56.291 89.2551 56.5389 88.9084 56.7557C88.5616 56.9725 88.6752 57.1517 88.3278 57.3692C87.9805 57.5866 87.8095 57.3178 87.4622 57.5346C87.1148 57.7515 87.1069 57.7395 86.7596 57.957C86.4122 58.1744 86.5645 58.4151 86.2159 58.6326C85.8673 58.85 85.3623 58.4091 85.1605 58.7646C84.9648 59.1098 85.648 59.3016 85.648 59.6976C85.648 60.0936 85.2475 60.093 85.2475 60.4885C85.2475 60.8839 85.6535 60.8839 85.6535 61.28C85.6535 61.676 85.5713 61.676 85.5713 62.0726C85.5713 62.4693 85.7103 62.4687 85.7103 62.8653C85.7103 63.2619 85.1333 63.2613 85.1333 63.6568C85.1333 64.0522 85.1551 64.0528 85.1551 64.4488C85.1551 64.8449 85.4898 64.8455 85.4898 65.2421C85.4898 65.6387 85.1267 65.6381 85.1267 66.0342C85.1267 66.4302 85.3273 66.4308 85.3273 66.8274C85.3273 67.2241 85.1219 67.2241 85.1219 67.6201C85.1219 68.0161 85.1484 68.0167 85.1484 68.4134C85.1484 68.81 85.401 68.8088 85.401 69.2048C85.401 69.6009 85.5937 69.6003 85.5937 69.9963C85.5937 70.3924 85.68 70.3936 85.68 70.7902C85.68 71.1868 85.2826 71.1868 85.2826 71.5829C85.2826 71.9789 85.3973 71.9795 85.3973 72.3767C85.3973 72.7739 85.1527 72.7739 85.1527 73.1712C85.1527 73.5684 85.1617 73.5678 85.1617 73.9644C85.1617 74.3611 85.3393 74.3623 85.3393 74.7601C85.3393 75.1579 85.2717 75.1585 85.2717 75.5569C85.2717 75.9554 85.6921 75.9554 85.6921 76.3538C85.6921 76.6877 85.088 76.8006 84.8663 77.0198C84.6446 77.2391 84.5304 77.6118 84.1927 77.6118L84.1921 77.5933C83.8544 77.5933 83.588 77.389 83.3669 77.1698C83.1458 76.9505 83.2389 76.6877 83.2389 76.3538C83.2389 75.9655 83.1742 75.9655 83.1742 75.5773C83.1742 75.189 82.7514 75.189 82.7514 74.8001C82.7514 74.4113 83.1066 74.4113 83.1066 74.0218C83.1066 73.6323 82.9737 73.6323 82.9737 73.2429C82.9737 72.8534 82.8148 72.854 82.8148 72.4651C82.8148 72.0763 82.7961 72.0763 82.7961 71.6874C82.7961 71.2985 82.6668 71.2985 82.6668 70.9097C82.6668 70.5208 83.2443 70.5202 83.2443 70.1307C83.2443 69.7413 82.8764 69.7413 82.8764 69.3518C82.8764 68.9623 83.0419 68.9629 83.0419 68.5735C83.0419 68.184 82.7628 68.184 82.7628 67.7945C82.7628 67.4051 82.851 67.4045 82.851 67.015C82.851 66.6255 82.7501 66.6255 82.7501 66.2361C82.7501 65.8466 82.9918 65.846 82.9918 65.4565C82.9918 65.0671 82.8154 65.0671 82.8154 64.677C82.8154 64.287 82.8063 64.287 82.8063 63.8975C82.8063 63.508 83.0377 63.5086 83.0377 63.1198C83.0377 62.7309 83.1839 62.7309 83.1839 62.342C83.1839 61.9532 82.8685 61.952 82.8685 61.5613C82.8685 61.1706 82.97 61.1718 82.97 60.7818C82.97 60.3917 82.8897 60.3917 82.8897 60.0017C82.8897 59.6116 83.077 59.611 83.077 59.2203C83.077 58.8297 83.1241 58.8303 83.1241 58.4402C83.1241 58.0501 83.176 58.0495 83.176 57.6583C83.176 57.267 83.0697 57.2664 83.0697 56.8752C83.0697 56.4839 83.1712 56.4296 82.9942 56.0789C82.8238 55.742 82.5441 56.0288 82.2354 55.8089C81.9267 55.5891 82.1146 55.3293 81.8047 55.1083C81.4948 54.8872 81.2755 55.1895 80.9662 54.9691C80.6569 54.7487 80.8466 54.4876 80.5367 54.2666C80.2268 54.0456 80.1175 54.1985 79.8094 53.9781C79.4995 53.7571 79.7169 53.4578 79.407 53.2368C79.0971 53.0158 78.8809 53.3109 78.5703 53.0898C78.2598 52.8688 78.3384 52.7589 78.0266 52.5373C77.7149 52.3157 77.779 52.2273 77.4678 52.0051C77.1942 51.8097 77.0613 51.6138 77.0111 51.3086C76.961 51.0033 76.8716 50.667 77.0691 50.3964L77.0697 50.3935Z" fill="#7A2900"/>
<path d="M46.3546 89.4708C46.7442 89.4708 46.7442 89.6105 47.1345 89.6105C47.5247 89.6105 47.5247 89.948 47.915 89.948C48.3052 89.948 48.3058 89.5311 48.6961 89.5311C49.0864 89.5311 49.0876 89.5442 49.4784 89.5442C49.8693 89.5442 49.8705 89.598 50.2619 89.598C50.6534 89.598 50.6534 89.4863 51.0443 89.4863C51.4351 89.4863 51.4351 89.6093 51.826 89.6093C52.2168 89.6093 52.2168 89.7061 52.6071 89.7061C52.9973 89.7061 52.9979 89.4325 53.3882 89.4325C53.7784 89.4325 53.779 89.4236 54.1699 89.4236C54.5608 89.4236 54.5614 89.5663 54.9528 89.5663C55.3443 89.5663 55.3449 89.6368 55.7369 89.6368C56.129 89.6368 56.1284 89.6273 56.5199 89.6273C56.9113 89.6273 56.9113 89.7216 57.3022 89.7216C57.693 89.7216 57.6936 90 58.0851 90C58.4766 90 58.4772 89.6721 58.8692 89.6721C59.2613 89.6721 59.2613 89.7951 59.6528 89.7951C60.0442 89.7951 60.0442 89.8937 60.4357 89.8937C60.8271 89.8937 60.8277 89.8088 61.2192 89.8088C61.6107 89.8088 61.6113 89.7748 62.0039 89.7748C62.3966 89.7748 62.396 89.8208 62.7875 89.8208C63.1789 89.8208 63.1795 89.8955 63.5722 89.8955C63.9649 89.8955 63.9643 89.6404 64.3563 89.6404C64.7484 89.6404 64.7484 89.8035 65.141 89.8035C65.5337 89.8035 65.5325 89.5544 65.924 89.5544C66.3154 89.5544 66.3154 89.7258 66.7069 89.7258C67.0984 89.7258 67.0996 89.816 67.4922 89.816C67.8849 89.816 67.8843 89.408 68.2764 89.408C68.6684 89.408 68.669 89.9086 69.0617 89.9086C69.4544 89.9086 69.455 89.5054 69.8476 89.5054C70.2403 89.5054 70.2403 89.6583 70.6324 89.6583C71.0244 89.6583 71.0256 89.7867 71.4189 89.7867C71.8122 89.7867 71.8128 89.6105 72.2067 89.6105C72.6005 89.6105 72.6005 89.733 72.9944 89.733C73.2675 89.733 73.439 89.4415 73.6728 89.3483C73.9193 89.2497 74.1984 89.2886 74.3833 89.1106C74.5705 88.9302 74.5131 88.6387 74.6195 88.4027C74.7246 88.1697 75.2097 88.0252 75.2181 87.763C75.226 87.5139 74.8865 87.2845 74.7922 87.0306C74.6781 86.6519 74.762 86.6262 74.6557 86.2451C74.5494 85.864 74.762 85.8061 74.6557 85.4256C74.5494 85.0451 74.5307 85.0498 74.4243 84.6681C74.318 84.2865 73.8752 84.4071 73.7689 84.0254C73.6626 83.6437 73.9072 83.5774 73.8009 83.1963C73.6946 82.8152 73.7393 82.8027 73.633 82.421C73.5266 82.0393 73.8088 81.964 73.703 81.5841C73.5973 81.2042 73.5834 81.206 73.4771 80.8243C73.3708 80.4426 73.0989 80.5178 72.9926 80.1367C72.8863 79.7556 72.7032 79.8058 72.5969 79.4247C72.4906 79.0436 72.3909 79.0699 72.284 78.6876C72.1771 78.3053 72.554 78.2038 72.4477 77.8221C72.3414 77.4404 72.4241 77.4177 72.3178 77.0354C72.2115 76.6531 72.1094 76.6805 72.0031 76.2982C71.8968 75.9159 71.9439 75.9034 71.8376 75.5217C71.7312 75.14 71.7584 75.1316 71.6521 74.7487C71.5458 74.3658 71.2401 74.4483 71.1332 74.0648C71.0262 73.6813 71.3688 73.5272 71.051 73.2835C70.7411 73.0457 70.6801 73.4292 70.2874 73.4292C69.8947 73.4292 69.8954 73.5164 69.5039 73.5164C69.1124 73.5164 69.1124 73.4071 68.7204 73.4071C68.3283 73.4071 68.3289 73.4459 67.9368 73.4459C67.5448 73.4459 67.5448 73.3139 67.1527 73.3139C66.7607 73.3139 66.76 73.2172 66.3674 73.2172C65.9747 73.2172 65.9741 73.2423 65.5814 73.2423C65.1888 73.2423 65.1888 72.9723 64.7967 72.9723C64.4046 72.9723 64.4046 73.2703 64.012 73.2703C63.6193 73.2703 63.6193 73.1497 63.2272 73.1497C62.8352 73.1497 62.834 73.1162 62.4413 73.1162C62.0486 73.1162 62.048 73.3086 61.6554 73.3086C61.2627 73.3086 61.2627 73.2936 60.87 73.2936C60.4774 73.2936 60.4774 73.3874 60.0841 73.3874C59.6908 73.3874 59.6908 73.5057 59.2975 73.5057C58.9043 73.5057 58.9049 73.4919 58.5116 73.4919C58.1183 73.4919 58.1183 73.4913 57.7251 73.4913C57.3318 73.4913 57.3318 73.1885 56.9385 73.1885C56.5452 73.1885 56.5452 73.0433 56.152 73.0433C55.7587 73.0433 55.7593 73.1204 55.3672 73.1204C54.9752 73.1204 54.9746 73.2285 54.5825 73.2285C54.1904 73.2285 54.1886 73.1515 53.7947 73.1515C53.4009 73.1515 53.4015 73.1198 53.0088 73.1198C52.6161 73.1198 52.6149 73.023 52.2217 73.023C51.8284 73.023 51.8278 73.3169 51.4333 73.3169C51.0388 73.3169 51.04 73.4543 50.6461 73.4543C50.2523 73.4543 50.2517 72.9621 49.8572 72.9621C49.4627 72.9621 49.4621 73.1389 49.067 73.1389C48.6719 73.1389 48.742 73.2142 48.4285 73.4519C48.1113 73.6932 48.1005 73.6192 47.9941 74.0003C47.8878 74.3814 47.9682 74.4029 47.8618 74.784C47.7555 75.1651 47.8504 75.1908 47.744 75.5719C47.6377 75.953 47.6081 75.9452 47.5018 76.3269C47.3955 76.7086 47.1762 76.6483 47.0698 77.0294C46.9635 77.4105 47.1834 77.4708 47.0771 77.8525C46.9708 78.2342 46.9303 78.2211 46.824 78.601C46.7177 78.9809 46.8584 79.0209 46.7521 79.4026C46.6458 79.7843 46.3618 79.7061 46.2555 80.0872C46.1492 80.4683 46.2156 80.4862 46.1093 80.8667C46.003 81.2472 45.8151 81.1976 45.7082 81.5799C45.6013 81.9622 45.919 82.0476 45.8127 82.4293C45.7064 82.811 45.823 82.8433 45.7167 83.225C45.6103 83.6067 45.118 83.4735 45.0117 83.8558C44.9053 84.2381 45.2593 84.3342 45.153 84.7159C45.0467 85.0976 44.7906 85.0289 44.6836 85.4118C44.5767 85.7947 44.9796 85.9052 44.8727 86.2887C44.7658 86.6722 44.6752 86.6501 44.5604 87.0312C44.4662 87.2851 44.268 87.5085 44.2759 87.7576C44.2843 88.0198 44.4215 88.2582 44.5266 88.4911C44.6329 88.7271 44.8594 88.8465 45.0467 89.0263C45.2316 89.2043 45.3512 89.4397 45.597 89.5377C45.8308 89.6308 46.0803 89.469 46.3534 89.469L46.3546 89.4708Z" fill="#E5DFD8"/>
<path d="M32.1803 70.1586C31.9997 70.1586 31.8724 70.124 31.6983 70.1468C31.6382 69.9952 31.5793 69.9056 31.5021 69.7635C31.4246 69.6206 31.1813 69.5848 31.0881 69.4525C30.995 69.3203 31.0444 69.0749 30.9361 68.9549C30.8278 68.8348 30.6837 68.7399 30.5617 68.6332C30.4396 68.5266 30.2872 68.4549 30.1534 68.3635C30.0196 68.272 29.8656 68.2183 29.7216 68.1432C29.5786 68.0689 29.449 67.9641 29.2966 67.9066C29.146 67.8502 29.0126 67.7069 28.8545 67.6684C28.6986 67.6303 28.5082 67.7507 28.3459 67.7313C28.187 67.7122 28.0304 67.7084 27.8661 67.7084C27.7019 67.7084 27.543 67.6916 27.3841 67.7107C27.2218 67.7301 27.0622 67.748 26.9063 67.7862C26.7478 67.8246 26.5832 67.8425 26.4327 67.8993C26.2802 67.9565 26.0845 67.9355 25.9412 68.0098C25.7971 68.0849 25.6815 68.2282 25.5481 68.3193C25.4147 68.4103 25.328 68.5689 25.2064 68.6752C25.0847 68.7815 24.9517 68.8775 24.8429 68.9979C24.7342 69.1183 24.5829 69.2106 24.489 69.3432C24.3952 69.4758 24.2686 69.5996 24.191 69.7429C24.1139 69.885 24.1675 70.1301 24.1074 70.2817C23.9333 70.2589 23.7322 70.0718 23.5516 70.0718C23.3855 70.0718 23.2331 70.3061 23.0723 70.3255C22.9077 70.3454 22.7575 70.3713 22.5994 70.4101C22.439 70.4498 22.2159 70.2905 22.0634 70.3488C21.9091 70.4075 21.8593 70.6971 21.7145 70.7733C21.5689 70.8503 21.4043 70.8746 21.2697 70.968C21.1351 71.0614 20.9519 71.093 20.8295 71.202C20.7071 71.311 20.6668 71.5004 20.5577 71.6234C20.4486 71.7465 20.2141 71.7724 20.1206 71.9081C20.027 72.0437 20.1016 72.2808 20.0251 72.4267C19.9491 72.5715 19.7822 72.6721 19.7237 72.8264C19.6659 72.9792 19.6515 73.1473 19.6123 73.3081C19.5736 73.4662 19.6142 73.6347 19.5945 73.7997C19.5751 73.9612 19.5481 74.1148 19.5481 74.2817C19.5481 74.4486 19.3937 74.6243 19.4128 74.7855C19.4325 74.9505 19.4679 75.1231 19.5066 75.2812C19.5462 75.442 19.5633 75.6234 19.6211 75.7762C19.6796 75.931 19.8856 76.0258 19.9617 76.1706C20.0385 76.3166 20.1495 76.4366 20.2426 76.5715C20.3357 76.7064 20.357 76.8996 20.4657 77.0227C20.5744 77.1458 20.6387 77.3302 20.7615 77.4396C20.8842 77.5489 21.0386 77.6423 21.1739 77.7357C21.3092 77.829 21.5468 77.757 21.6924 77.8336C21.8369 77.9098 21.9802 77.97 22.1345 78.0287C22.2869 78.0866 22.3919 78.3084 22.5523 78.3476C22.71 78.3865 22.8989 78.2943 23.0635 78.3141C23.2247 78.3335 23.3859 78.2703 23.552 78.2703C23.8052 78.2703 23.8052 78.4239 24.0584 78.4239C24.3115 78.4239 24.3119 78.3888 24.5651 78.3888C24.8182 78.3888 24.8186 78.3918 25.0725 78.3918C25.3265 78.3918 25.3261 78.5012 25.5793 78.5012C25.8324 78.5012 25.8328 78.2741 26.0867 78.2741C26.3407 78.2741 26.3403 78.2383 26.5938 78.2383C26.8474 78.2383 26.8474 78.4806 27.1013 78.4806C27.3552 78.4806 27.3545 78.2581 27.6077 78.2581C27.8608 78.2581 27.8608 78.4421 28.114 78.4421C28.3672 78.4421 28.3679 78.2627 28.6218 78.2627C28.8758 78.2627 28.8754 78.228 29.1289 78.228C29.3825 78.228 29.3829 78.2569 29.6368 78.2569C29.8907 78.2569 29.8911 78.4387 30.145 78.4387C30.399 78.4387 30.399 78.4623 30.6525 78.4623C30.9061 78.4623 30.9068 78.3812 31.1611 78.3812C31.4154 78.3812 31.4158 78.4883 31.6709 78.4883C31.926 78.4883 31.9256 78.3972 32.1806 78.3972C32.3468 78.3972 32.5201 78.4311 32.6809 78.4117C32.8455 78.3918 33.0295 78.4139 33.1872 78.3751C33.3477 78.3354 33.4552 78.1114 33.6077 78.0535C33.762 77.9948 33.9144 77.9452 34.0589 77.869C34.2045 77.7921 34.363 77.7395 34.4976 77.6461C34.6321 77.5527 34.8062 77.4998 34.9286 77.3908C35.051 77.2818 35.1575 77.145 35.2662 77.0219C35.3749 76.8988 35.3521 76.6763 35.4456 76.5406C35.5391 76.405 35.7136 76.3269 35.7904 76.1809C35.8664 76.0361 35.977 75.902 36.0356 75.7473C36.0933 75.5945 35.9782 75.3906 36.0173 75.2298C36.0561 75.0717 36.0698 74.9227 36.0895 74.7577C36.1089 74.5961 36.3256 74.4482 36.3256 74.2813C36.3256 74.1144 36.1287 73.9639 36.1093 73.8027C36.0895 73.6377 36.283 73.4354 36.2439 73.2769C36.2043 73.1161 36.0131 72.9983 35.9554 72.8455C35.8968 72.6908 35.9341 72.4903 35.858 72.3455C35.7813 72.1996 35.5239 72.1664 35.4308 72.0316C35.3376 71.8967 35.2768 71.7496 35.1681 71.6269C35.0594 71.5042 34.9134 71.4352 34.7906 71.3262C34.6679 71.2172 34.6276 71.0156 34.4922 70.9219C34.3569 70.8282 34.2695 70.6445 34.1235 70.5675C33.9791 70.4913 33.7327 70.6411 33.5784 70.5824C33.426 70.5245 33.2887 70.4604 33.1283 70.4212C32.9706 70.3823 32.8231 70.3442 32.6585 70.3244C32.4973 70.305 32.3452 70.1594 32.1787 70.1594L32.1803 70.1586Z" fill="#5ECC70"/>
<path d="M24.8102 72.3466C24.677 72.3466 24.583 72.321 24.4546 72.3379C24.4103 72.226 24.3668 72.1599 24.3099 72.0551C24.2526 71.9496 24.0732 71.9232 24.0045 71.8257C23.9358 71.7281 23.9722 71.5471 23.8923 71.4585C23.8124 71.37 23.7061 71.3 23.6161 71.2213C23.526 71.1425 23.4136 71.0897 23.3149 71.0222C23.2161 70.9548 23.1026 70.9151 22.9963 70.8597C22.8908 70.8049 22.7952 70.7276 22.6828 70.6852C22.5717 70.6435 22.4733 70.5378 22.3566 70.5095C22.2416 70.4813 22.1011 70.5702 21.9814 70.5558C21.8642 70.5418 21.7486 70.539 21.6275 70.539C21.5063 70.539 21.3891 70.5266 21.2719 70.5407C21.1521 70.555 21.0343 70.5682 20.9194 70.5963C20.8024 70.6247 20.681 70.6379 20.5699 70.6798C20.4575 70.722 20.3131 70.7065 20.2073 70.7613C20.101 70.8167 20.0158 70.9224 19.9174 70.9896C19.8189 71.0568 19.755 71.1737 19.6652 71.2522C19.5755 71.3306 19.4774 71.4015 19.3971 71.4903C19.3169 71.5791 19.2053 71.6472 19.1361 71.745C19.0668 71.8428 18.9734 71.9342 18.9162 72.0399C18.8593 72.1447 18.8988 72.3255 18.8545 72.4374C18.7261 72.4205 18.5777 72.2825 18.4445 72.2825C18.3219 72.2825 18.2095 72.4554 18.0909 72.4697C17.9694 72.4843 17.8587 72.5035 17.742 72.5321C17.6237 72.5614 17.459 72.4439 17.3466 72.4869C17.2327 72.5302 17.196 72.7438 17.0891 72.8C16.9817 72.8568 16.8603 72.8748 16.761 72.9437C16.6618 73.0126 16.5266 73.0359 16.4363 73.1163C16.346 73.1967 16.3163 73.3364 16.2358 73.4272C16.1553 73.518 15.9823 73.5371 15.9133 73.6372C15.8443 73.7373 15.8992 73.9122 15.8429 74.0198C15.7868 74.1267 15.6637 74.2009 15.6205 74.3147C15.5779 74.4275 15.5672 74.5514 15.5383 74.6701C15.5097 74.7867 15.5397 74.911 15.5251 75.0327C15.5108 75.1519 15.4909 75.2652 15.4909 75.3883C15.4909 75.5115 15.3771 75.6411 15.3911 75.76C15.4057 75.8817 15.4318 76.0091 15.4604 76.1257C15.4895 76.2444 15.5021 76.3782 15.5448 76.4909C15.588 76.605 15.74 76.675 15.796 76.7819C15.8527 76.8895 15.9346 76.9781 16.0033 77.0776C16.072 77.1771 16.0877 77.3197 16.1679 77.4105C16.2481 77.5013 16.2955 77.6373 16.3861 77.718C16.4767 77.7987 16.5905 77.8676 16.6904 77.9364C16.7902 78.0053 16.9655 77.9522 17.0729 78.0087C17.1794 78.0649 17.2852 78.1093 17.399 78.1526C17.5115 78.1954 17.5889 78.359 17.7072 78.3879C17.8236 78.4166 17.963 78.3486 18.0844 78.3632C18.2033 78.3775 18.3222 78.3309 18.4448 78.3309C18.6315 78.3309 18.6315 78.4441 18.8183 78.4441C19.0051 78.4441 19.0054 78.4183 19.1921 78.4183C19.3789 78.4183 19.3792 78.4205 19.5665 78.4205C19.7539 78.4205 19.7536 78.5012 19.9404 78.5012C20.1271 78.5012 20.1274 78.3337 20.3147 78.3337C20.5021 78.3337 20.5018 78.3072 20.6888 78.3072C20.8759 78.3072 20.8759 78.486 21.0632 78.486C21.2506 78.486 21.25 78.3219 21.4368 78.3219C21.6235 78.3219 21.6235 78.4576 21.8103 78.4576C21.9971 78.4576 21.9976 78.3252 22.185 78.3252C22.3723 78.3252 22.372 78.2997 22.5591 78.2997C22.7461 78.2997 22.7464 78.321 22.9337 78.321C23.1211 78.321 23.1214 78.4551 23.3087 78.4551C23.496 78.4551 23.496 78.4725 23.6831 78.4725C23.8701 78.4725 23.8707 78.4127 24.0583 78.4127C24.2459 78.4127 24.2462 78.4917 24.4344 78.4917C24.6225 78.4917 24.6223 78.4245 24.8104 78.4245C24.933 78.4245 25.0609 78.4495 25.1795 78.4352C25.3009 78.4205 25.4367 78.4368 25.553 78.4082C25.6714 78.3789 25.7507 78.2136 25.8632 78.1709C25.9771 78.1276 26.0895 78.0911 26.1961 78.0348C26.3035 77.978 26.4204 77.9393 26.5197 77.8704C26.619 77.8015 26.7474 77.7624 26.8377 77.682C26.928 77.6016 27.0065 77.5007 27.0868 77.4099C27.167 77.3191 27.1501 77.1549 27.2191 77.0548C27.2881 76.9548 27.4168 76.8971 27.4735 76.7895C27.5296 76.6826 27.6112 76.5837 27.6544 76.4695C27.697 76.3568 27.612 76.2064 27.6409 76.0878C27.6695 75.9711 27.6796 75.8612 27.6942 75.7395C27.7085 75.6203 27.8683 75.5112 27.8683 75.3881C27.8683 75.2649 27.7231 75.1539 27.7088 75.035C27.6942 74.9132 27.8369 74.764 27.808 74.647C27.7789 74.5284 27.6378 74.4415 27.5952 74.3288C27.552 74.2147 27.5795 74.0668 27.5234 73.96C27.4667 73.8523 27.2769 73.8278 27.2082 73.7283C27.1395 73.6288 27.0946 73.5203 27.0144 73.4298C26.9342 73.3392 26.8265 73.2884 26.7359 73.208C26.6453 73.1276 26.6156 72.9788 26.5158 72.9097C26.4159 72.8405 26.3514 72.705 26.2438 72.6482C26.1372 72.592 25.9555 72.7025 25.8416 72.6592C25.7292 72.6165 25.6279 72.5692 25.5096 72.5403C25.3932 72.5116 25.2844 72.4835 25.163 72.4689C25.044 72.4545 24.9319 72.3472 24.809 72.3472L24.8102 72.3466Z" fill="#5ECC70"/>
</g>
<defs>
<clipPath id="clip0_2973_8786">
<rect width="96" height="76" fill="white" transform="translate(4 14)"/>
</clipPath>
</defs>
</svg>
