<svg width="104" height="104" viewBox="0 0 104 104" fill="none" xmlns="http://www.w3.org/2000/svg">
<path d="M84.5895 98.3234C84.5895 98.4336 84.6019 98.5063 84.5372 98.6136C84.4838 98.7018 84.5176 98.8794 84.4223 98.965C84.3445 99.0353 84.1942 99.0353 84.0894 99.1037C83.9997 99.1624 83.9072 99.2303 83.7985 99.2874C83.7021 99.3379 83.568 99.3181 83.4574 99.3675C83.357 99.4121 83.3256 99.6375 83.2137 99.6811C83.1107 99.7213 82.9283 99.5593 82.8156 99.5984C82.7105 99.6349 82.6619 99.8537 82.5486 99.8894C82.4422 99.9229 82.3332 99.9668 82.2199 99.9996C82.1125 100.031 81.9913 100.031 81.8778 100.061C81.7693 100.09 81.642 100.059 81.528 100.087C81.4187 100.114 81.3189 100.194 81.2048 100.22C81.095 100.245 80.9429 100.09 80.8283 100.115C80.718 100.139 80.6129 100.191 80.4983 100.215C80.3874 100.237 80.2781 100.273 80.1635 100.295C80.0521 100.316 79.9307 100.285 79.8158 100.306C79.7042 100.326 79.625 100.538 79.5104 100.558C79.3984 100.577 79.2641 100.47 79.1492 100.489C79.037 100.507 78.9277 100.55 78.8129 100.567C78.7004 100.585 78.5797 100.553 78.4649 100.569C78.3522 100.586 78.2397 100.607 78.1246 100.623C78.0118 100.639 77.901 100.674 77.7859 100.689C77.6731 100.704 77.577 100.855 77.4622 100.869C77.3494 100.883 77.2375 100.919 77.1227 100.933C77.0097 100.946 76.8821 100.845 76.7673 100.858C76.654 100.87 76.5479 100.958 76.4328 100.97C76.3193 100.982 76.2094 101.04 76.0943 101.051C75.9808 101.063 75.8609 101.024 75.7458 101.035C75.632 101.046 75.5014 100.878 75.386 100.889C75.2722 100.899 75.1613 100.948 75.0459 100.958C74.9319 100.968 74.83 101.132 74.7146 101.141C74.6005 101.15 74.4749 101.02 74.3592 101.029C74.2449 101.037 74.1361 101.126 74.0205 101.134C73.9062 101.142 73.7826 101.021 73.667 101.029C73.5532 101.036 73.45 101.218 73.3349 101.225C73.2208 101.232 73.102 101.173 72.9869 101.18C72.8726 101.186 72.7617 101.263 72.6463 101.269C72.532 101.275 72.4108 101.157 72.2954 101.163C72.1809 101.169 72.0655 101.162 71.9501 101.167C71.8355 101.172 71.7241 101.262 71.6085 101.267C71.4936 101.272 71.3775 101.252 71.2618 101.256C71.1475 101.26 71.035 101.331 70.9197 101.335C70.8051 101.339 70.6889 101.312 70.5736 101.315C70.4587 101.319 70.3462 101.426 70.2306 101.429C70.1158 101.432 69.9996 101.426 69.884 101.428C69.7683 101.431 69.6485 101.191 69.5328 101.193C69.418 101.195 69.3044 101.284 69.1888 101.285C69.0732 101.287 68.9578 101.246 68.8419 101.247C68.726 101.249 68.6122 101.413 68.496 101.413C68.3807 101.414 68.2648 101.43 68.1486 101.43C68.0324 101.43 67.916 101.399 67.7993 101.399C67.6837 101.399 67.568 101.357 67.4527 101.357C67.3373 101.357 67.2222 101.219 67.1071 101.219C66.9912 101.218 66.8739 101.435 66.7588 101.433C66.6429 101.432 66.5302 101.226 66.4151 101.224C66.2992 101.223 66.1846 101.197 66.0695 101.195C65.9536 101.193 65.8348 101.369 65.7197 101.367C65.6038 101.364 65.4871 101.405 65.372 101.401C65.2561 101.399 65.1407 101.384 65.0259 101.38C64.91 101.377 64.7933 101.405 64.6784 101.401C64.5625 101.397 64.454 101.201 64.3389 101.197C64.2233 101.192 64.1089 101.165 63.9941 101.161C63.8785 101.156 63.7604 101.217 63.6456 101.212C63.53 101.206 63.4085 101.329 63.2937 101.323C63.178 101.318 63.0695 101.176 62.9547 101.17C62.839 101.164 62.72 101.225 62.6054 101.219C62.4898 101.212 62.3789 101.133 62.2643 101.126C62.1486 101.119 62.0283 101.194 61.9137 101.186C61.798 101.178 61.6811 101.194 61.5668 101.186C61.4511 101.177 61.3334 101.201 61.2191 101.193C61.1034 101.184 60.9899 101.153 60.8756 101.143C60.7599 101.134 60.6578 100.974 60.5435 100.964C60.4281 100.954 60.3074 101.014 60.1934 101.003C60.078 100.993 59.9708 100.903 59.857 100.892C59.7416 100.881 59.6099 101.045 59.4961 101.033C59.3807 101.022 59.2617 101.048 59.1481 101.036C59.0328 101.024 58.9348 100.86 58.8213 100.847C58.7062 100.834 58.5972 100.777 58.4839 100.763C58.3688 100.75 58.2579 100.714 58.1446 100.699C58.0295 100.685 57.9208 100.635 57.808 100.62C57.6932 100.605 57.5712 100.654 57.4585 100.638C57.3436 100.622 57.2206 100.673 57.1081 100.657C56.9933 100.64 56.8739 100.661 56.7617 100.644C56.6472 100.626 56.5281 100.641 56.4161 100.623C56.3016 100.604 56.2139 100.431 56.102 100.412C55.9874 100.393 55.8512 100.504 55.7397 100.484C55.6252 100.463 55.5145 100.427 55.4034 100.405C55.2888 100.383 55.1721 100.378 55.0612 100.356C54.9469 100.333 54.8714 100.134 54.761 100.11C54.6467 100.085 54.5158 100.15 54.4057 100.125C54.2916 100.098 54.1807 100.071 54.0714 100.043C53.9577 100.015 53.8391 100.017 53.7306 99.9882C53.6171 99.9578 53.488 99.9924 53.3805 99.9612C53.2673 99.9285 53.1804 99.817 53.074 99.7834C52.9607 99.7477 52.8549 99.7036 52.7498 99.6669C52.6371 99.6275 52.5499 99.5374 52.4467 99.4972C52.3353 99.4536 52.2059 99.4711 52.1059 99.4264C51.9955 99.3772 51.9219 99.2723 51.826 99.2219C51.718 99.1651 51.5477 99.2298 51.4585 99.1714C51.3542 99.1032 51.3453 98.9275 51.2676 98.8572C51.1731 98.7716 51.0736 98.723 51.0205 98.635C50.9566 98.5285 50.7982 98.4328 50.7982 98.3234C50.7982 98.2132 50.8341 98.0425 50.8991 97.9352C50.9524 97.847 51.1993 97.8995 51.2943 97.8137C51.3722 97.7434 51.4099 97.621 51.515 97.5526C51.6048 97.4939 51.713 97.4588 51.8218 97.4017C51.9182 97.3512 52.0032 97.2685 52.1141 97.2191C52.2144 97.1744 52.3501 97.2088 52.462 97.1652C52.565 97.125 52.6038 96.8975 52.7165 96.8584C52.8216 96.8219 52.9697 96.9001 53.083 96.8645C53.1894 96.8309 53.3248 96.8885 53.4383 96.8557C53.5458 96.8246 53.6569 96.8047 53.7707 96.7744C53.8792 96.7453 53.9643 96.6195 54.078 96.5912C54.1873 96.5643 54.2668 96.3994 54.3811 96.373C54.491 96.3476 54.6457 96.5106 54.76 96.4861C54.8703 96.462 54.9635 96.3471 55.0779 96.3238C55.1887 96.3013 55.3025 96.2828 55.4171 96.2609C55.5285 96.2395 55.6642 96.3431 55.7788 96.3225C55.8905 96.3024 55.9874 96.1925 56.102 96.1726C56.2139 96.1536 56.3435 96.2363 56.4584 96.2178C56.5706 96.1996 56.649 95.9591 56.7641 95.9414C56.8766 95.9243 56.9917 95.9118 57.1068 95.8952C57.2195 95.8788 57.3336 95.859 57.4487 95.8431C57.5614 95.8275 57.6773 95.8201 57.7924 95.8051C57.9052 95.7903 58.0337 95.8912 58.1483 95.8769C58.2611 95.8629 58.3717 95.8217 58.4865 95.8082C58.5995 95.795 58.7062 95.7142 58.821 95.7012C58.9343 95.6885 59.065 95.8291 59.1801 95.8167C59.2936 95.8045 59.3929 95.6497 59.5083 95.6381C59.6218 95.6267 59.7393 95.6439 59.8546 95.633C59.9684 95.6222 60.0793 95.5691 60.1947 95.5588C60.3085 95.5485 60.4254 95.5614 60.5408 95.5517C60.6549 95.5419 60.7723 95.5646 60.8877 95.5554C61.0018 95.5461 61.1272 95.6761 61.2428 95.6674C61.3571 95.6587 61.4577 95.456 61.5734 95.4478C61.6877 95.4396 61.8118 95.5659 61.9274 95.5583C62.0412 95.5509 62.1473 95.4097 62.2624 95.4026C62.3765 95.3955 62.4995 95.5289 62.6146 95.5223C62.7289 95.5157 62.8332 95.3178 62.9486 95.3117C63.0629 95.3056 63.1899 95.5358 63.3053 95.53C63.4199 95.5244 63.5292 95.4031 63.6445 95.3981C63.7591 95.3928 63.8713 95.3138 63.987 95.3091C64.1018 95.3043 64.2201 95.3741 64.3357 95.3698C64.45 95.3656 64.5641 95.3389 64.6795 95.335C64.7941 95.3313 64.9078 95.2834 65.0232 95.28C65.1381 95.2766 65.2521 95.2219 65.3678 95.219C65.4826 95.216 65.5985 95.2126 65.7141 95.21C65.8298 95.2073 65.9496 95.4425 66.0653 95.4404C66.1801 95.4383 66.2921 95.2343 66.4074 95.2327C66.5228 95.2311 66.6379 95.1896 66.7538 95.1883C66.8697 95.187 66.9864 95.3202 67.1026 95.3194C67.218 95.3186 67.3333 95.1954 67.4492 95.1949C67.5651 95.1944 67.6818 95.1949 67.7985 95.1949C67.9142 95.1949 68.0293 95.4386 68.1446 95.4391C68.26 95.4396 68.3756 95.4113 68.4908 95.4121C68.6067 95.4129 68.7236 95.2272 68.8387 95.2285C68.9546 95.2298 69.0697 95.2768 69.1848 95.2784C69.3007 95.28 69.4145 95.3735 69.5296 95.3757C69.6455 95.3778 69.7609 95.3762 69.8758 95.3786C69.9917 95.3812 70.1086 95.3167 70.2235 95.3196C70.3394 95.3225 70.4524 95.4058 70.5675 95.4092C70.6834 95.4127 70.8017 95.3181 70.9168 95.3218C71.0327 95.3257 71.1486 95.3196 71.2634 95.3239C71.3791 95.3281 71.4958 95.3083 71.6106 95.313C71.7262 95.3178 71.8416 95.3326 71.9565 95.3376C72.0721 95.3429 72.1851 95.4037 72.2999 95.4092C72.4156 95.415 72.5267 95.4993 72.6416 95.5054C72.7572 95.5115 72.8768 95.4356 72.9916 95.4423C73.1073 95.4489 73.22 95.4954 73.3346 95.5025C73.4502 95.5096 73.5622 95.5633 73.6768 95.5709C73.7924 95.5786 73.9109 95.5334 74.0253 95.5416C74.1409 95.5498 74.2634 95.456 74.3777 95.4647C74.4934 95.4734 74.5939 95.6661 74.7083 95.6753C74.8239 95.6846 74.9377 95.6986 75.052 95.7081C75.1674 95.7179 75.2989 95.5376 75.4129 95.548C75.5283 95.5583 75.6455 95.5487 75.7593 95.5596C75.8747 95.5707 75.9663 95.8159 76.0801 95.8273C76.1954 95.8389 76.3203 95.7454 76.4338 95.7575C76.5492 95.7697 76.6773 95.6574 76.7908 95.67C76.9059 95.683 77.0149 95.7467 77.1282 95.7599C77.2433 95.7734 77.3476 95.8701 77.4606 95.8841C77.5757 95.8984 77.7085 95.7681 77.8212 95.7829C77.9361 95.7979 78.0435 95.8653 78.1563 95.8809C78.2711 95.8968 78.3638 96.0603 78.4762 96.0767C78.5911 96.0934 78.6983 96.1465 78.8105 96.1639C78.9251 96.1816 79.0597 96.0622 79.1717 96.0804C79.2862 96.0989 79.3887 96.1822 79.5006 96.2015C79.6152 96.221 79.7395 96.1763 79.8512 96.1964C79.9658 96.2173 80.0833 96.2155 80.1944 96.2369C80.309 96.2588 80.407 96.3558 80.5179 96.3785C80.6322 96.4018 80.7726 96.2947 80.883 96.3185C80.9973 96.3434 81.1153 96.3489 81.2251 96.3743C81.3392 96.4007 81.4147 96.5812 81.524 96.6084C81.6378 96.6367 81.7357 96.7123 81.844 96.7413C81.9575 96.7717 82.065 96.8061 82.1724 96.8372C82.2857 96.87 82.4256 96.8 82.532 96.8338C82.6453 96.8695 82.7152 97.0198 82.8203 97.0566C82.933 97.096 83.0405 97.1255 83.1437 97.166C83.2551 97.2096 83.3631 97.2381 83.4632 97.2828C83.5735 97.3319 83.7156 97.2968 83.8117 97.3473C83.9197 97.4041 83.9624 97.5499 84.0517 97.6083C84.1559 97.6765 84.2901 97.6773 84.3677 97.7473C84.4622 97.833 84.4725 97.9548 84.5256 98.0428C84.5895 98.1493 84.5884 98.2145 84.5884 98.3239L84.5895 98.3234Z" fill="#E5DFD8"/>
<g clip-path="url(#clip0_2973_8886)">
<path d="M49.3887 19.5219C49.3066 19.2556 48.9531 19.0777 48.8517 18.8209C48.7497 18.5616 48.837 18.2184 48.7164 17.9693C48.5951 17.7189 48.4585 17.4634 48.3192 17.2238C48.18 16.9842 47.7008 16.9568 47.5436 16.7281C47.3864 16.4993 47.3781 16.1732 47.2042 15.9565C47.0304 15.7398 46.8168 15.5625 46.6269 15.3591C46.437 15.1557 46.4376 14.7585 46.2323 14.5697C46.027 14.381 45.8403 14.1471 45.6222 13.9736C45.4041 13.8001 44.9762 13.8973 44.7452 13.741C44.5143 13.5847 44.3135 13.3889 44.071 13.2497C43.8285 13.1105 43.5956 12.9586 43.3428 12.8379C43.092 12.7178 42.7545 12.8112 42.4934 12.7095C42.2342 12.6085 42.045 12.3326 41.7768 12.2506C41.5106 12.1693 41.3034 11.8318 41.0288 11.7702C40.758 11.7092 40.4405 11.8128 40.1621 11.7714C39.8875 11.7308 39.5924 11.8248 39.3114 11.8045C39.0342 11.7842 38.7571 11.4499 38.4754 11.4499C38.1252 11.4499 37.7499 11.4613 37.4047 11.4918C37.0551 11.5229 36.7754 11.7867 36.436 11.8534C36.3558 11.5776 36.0029 11.467 35.9016 11.2014C35.7989 10.9332 35.7001 10.6847 35.577 10.4273C35.4531 10.1686 35.7835 9.67097 35.6398 9.42375C35.4961 9.17652 34.981 9.15174 34.818 8.91658C34.6551 8.68143 34.4119 8.52128 34.2297 8.30011C34.0475 8.07894 34.0244 7.72875 33.8249 7.52284C33.6254 7.31692 33.4432 7.09067 33.2276 6.90064C33.0121 6.71061 32.7728 6.54728 32.5425 6.37505C32.3122 6.20281 32.0408 6.0935 31.797 5.94033C31.5532 5.78717 31.2466 5.76302 30.9906 5.62955C30.7365 5.49672 30.6801 4.93808 30.4145 4.82559C30.1502 4.71373 29.8223 4.71056 29.5478 4.61967C29.2757 4.52943 28.9569 4.55548 28.6753 4.48685C28.3968 4.41884 28.0671 4.61713 27.781 4.57137C27.498 4.52625 27.253 4.17416 26.963 4.15128C26.6775 4.12903 26.3792 4.15128 26.0879 4.15128C25.8044 4.15128 25.5022 3.99176 25.2244 4.01337C24.9421 4.03497 24.6342 4.02163 24.3583 4.06484C24.0793 4.1087 23.8053 4.27712 23.5333 4.34194C23.2587 4.4074 22.9457 4.4055 22.6801 4.49129C22.4119 4.57773 22.2656 5.01371 22.0071 5.11985C21.7466 5.22662 21.4631 5.27619 21.2135 5.40266C20.9627 5.52977 20.7805 5.76747 20.5412 5.91301C20.3019 6.05854 19.8804 5.94351 19.6533 6.10748C19.4262 6.27145 19.4146 6.71188 19.2016 6.89301C18.9886 7.07414 18.87 7.33662 18.6717 7.53364C18.4735 7.73066 17.9346 7.61626 17.7517 7.8279C17.5689 8.03953 17.5285 8.37637 17.363 8.60135C17.1975 8.82634 17.1198 9.10979 16.9723 9.34748C16.8247 9.58518 16.8427 9.90168 16.715 10.1502C16.588 10.3974 16.3987 10.6027 16.291 10.8607C16.1838 11.1168 16.1979 11.4035 16.1107 11.6691C16.0241 11.9329 15.695 12.1216 15.6289 12.3936C15.5641 12.6625 15.8034 12.9834 15.7598 13.2599C15.7161 13.5332 15.6424 13.7855 15.6205 14.0651C15.5987 14.3403 15.4884 14.6015 15.4884 14.8824C15.4884 15.1436 15.1644 15.4182 15.183 15.675C15.2023 15.9349 15.5416 16.1624 15.5795 16.4173C15.618 16.6753 15.5339 16.9098 15.5904 17.1609C15.2504 17.1164 14.9174 16.9861 14.5582 16.9861C14.2784 16.9861 13.9776 16.8971 13.7043 16.9238C13.4258 16.9505 13.1538 17.1246 12.8844 17.1774C12.6104 17.2314 12.4411 17.6604 12.178 17.7398C11.9118 17.8199 11.6045 17.7354 11.3498 17.8403C11.0932 17.9458 10.7006 17.7843 10.4568 17.9133C10.2117 18.0436 10.1187 18.4389 9.88902 18.5915C9.65935 18.744 9.45149 18.9175 9.23786 19.0916C9.02423 19.2658 8.67908 19.302 8.48341 19.4958C8.28774 19.6897 8.35382 20.1142 8.17739 20.3265C8.00097 20.5388 7.71612 20.6551 7.56215 20.8832C7.40818 21.1114 7.20802 21.3103 7.07715 21.5525C6.94692 21.7933 6.90008 22.073 6.79359 22.3278C6.68773 22.5801 6.43818 22.7861 6.35734 23.0498C6.27779 23.311 6.09559 23.5652 6.0417 23.8366C5.98845 24.1035 6.42984 24.4436 6.40289 24.7187C6.37659 24.9895 5.99744 25.238 5.99744 25.5151C5.99744 25.7922 6.0757 26.0699 6.10265 26.34C6.12959 26.6152 6.06929 26.9101 6.12254 27.177C6.17643 27.4478 6.58188 27.627 6.66143 27.8882C6.74227 28.1519 6.38878 28.572 6.49399 28.8244C6.60048 29.0786 6.69158 29.3709 6.82182 29.6118C6.95269 29.8539 7.20353 30.0541 7.3575 30.2817C7.51147 30.5092 7.98365 30.506 8.15879 30.7176C8.33393 30.9293 8.52767 31.1015 8.72334 31.296C8.91901 31.4905 8.96649 31.833 9.18076 32.0072C9.39504 32.1813 9.47523 32.5575 9.70554 32.7107C9.93586 32.8639 10.3772 32.6821 10.6217 32.8118C10.8648 32.9408 11.0072 33.2884 11.2638 33.3939C11.5185 33.4988 11.8355 33.4575 12.1017 33.5375C12.3647 33.617 12.6085 33.8096 12.8818 33.8636C13.1513 33.9163 13.4201 34.14 13.6985 34.1667C13.9718 34.1928 14.2784 33.7263 14.5588 33.7263C14.9784 33.7263 14.9784 33.8458 15.3979 33.8458C15.8175 33.8458 15.8181 33.8235 16.2377 33.8235C16.6573 33.8235 16.6573 33.6577 17.0762 33.6577C17.4951 33.6577 17.4951 33.7816 17.9147 33.7816C18.3343 33.7816 18.3343 33.8668 18.7532 33.8668C19.1721 33.8668 19.1734 33.9252 19.593 33.9252C20.0125 33.9252 20.0132 33.6647 20.4327 33.6647C20.8523 33.6647 20.8523 33.8375 21.2719 33.8375C21.6915 33.8375 21.6915 33.7053 22.1117 33.7053C22.5319 33.7053 22.5319 33.7034 22.9521 33.7034C23.3723 33.7034 23.3716 33.5928 23.7919 33.5928C24.2121 33.5928 24.2121 34.2017 24.6323 34.2017C25.0525 34.2017 25.0525 33.992 25.4727 33.992C25.8929 33.992 25.8929 33.753 26.3131 33.753C26.7333 33.753 26.7327 33.6704 27.1516 33.6704C27.5705 33.6704 27.5712 33.5973 27.9901 33.5973C28.409 33.5973 28.411 34.0059 28.8318 34.0059C29.2527 34.0059 29.252 34.1972 29.6716 34.1972C30.0911 34.1972 30.0924 34.0561 30.5126 34.0561C30.9328 34.0561 30.9335 34.1407 31.355 34.1407C31.7765 34.1407 31.7752 34.121 32.196 34.121C32.6169 34.121 32.6175 34.1413 33.039 34.1413C33.4605 34.1413 33.4612 34.1286 33.8833 34.1286C34.3054 34.1286 34.2586 33.8178 34.6602 33.6907C34.7885 33.65 34.4427 33.7657 34.4427 33.6322C34.4427 33.2236 34.6737 33.2236 34.6737 32.8156C34.6737 32.4075 34.7853 32.4069 34.7853 31.9976C34.7853 31.5883 34.4145 31.589 34.4145 31.181C34.4145 30.7729 34.7545 30.7723 34.7545 30.363C34.7545 29.9537 34.7057 29.9543 34.7057 29.5457C34.7057 29.137 34.7218 29.137 34.7218 28.7278C34.7218 28.3185 34.7083 28.3197 34.7083 27.9117C34.7083 27.5037 35.0163 27.5037 35.0163 27.0957C35.0163 26.6877 34.9162 26.6864 34.9162 26.2771C34.9162 25.8678 34.4414 25.8684 34.4414 25.4598C34.4414 25.0511 35.0368 25.0505 35.0368 24.6412C35.0368 24.2319 34.4466 24.2313 34.4466 23.822C34.4466 23.4127 34.4735 23.4127 34.4735 23.004C34.4735 22.5954 34.9977 22.5941 34.9977 22.1842C34.9977 21.7743 35.0451 21.7736 35.0451 21.3631C35.0451 20.9525 34.8084 20.9525 34.8084 20.5419C34.8084 20.0653 34.2868 19.8346 34.6153 19.4863C34.9213 19.1609 35.1754 19.8517 35.6238 19.8517C36.0722 19.8517 36.0722 19.7202 36.52 19.7202C36.9678 19.7202 36.9691 19.3452 37.4182 19.3452C37.8673 19.3452 37.8679 19.6827 38.3183 19.6827C38.7686 19.6827 38.9027 19.2709 39.2299 19.5766C39.5385 19.8645 39.0669 20.0087 39.0669 20.4288C39.0669 20.8489 39.056 20.8489 39.056 21.2696C39.056 21.6904 39.4827 21.6904 39.4827 22.1111C39.4827 22.5318 39.1407 22.5312 39.1407 22.9519C39.1407 23.3727 38.9245 23.3727 38.9245 23.7934C38.9245 24.2141 39.117 24.2141 39.117 24.6349C39.117 25.0556 39.305 25.0556 39.305 25.4763C39.305 25.897 38.8995 25.8964 38.8995 26.3159C38.8995 26.7353 39.4352 26.736 39.4352 27.1554C39.4352 27.5749 39.2498 27.5768 39.2498 27.9981C39.2498 28.4195 39.0657 28.4189 39.0657 28.839C39.0657 29.2591 39.4685 29.2603 39.4685 29.6811C39.4685 30.1018 39.0169 30.1024 39.0169 30.5244C39.0169 30.9464 39.4371 30.9452 39.4371 31.3665C39.4371 31.7879 39.2331 31.7885 39.2331 32.2105C39.2331 32.6325 39.3075 32.6332 39.3075 33.0558C39.3075 33.4784 39.0259 33.5198 39.1625 33.9201C39.4512 33.9176 39.806 34.0517 40.0864 34.0276C40.3731 34.0034 40.6779 34.0212 40.9556 33.9754C41.2392 33.9284 41.5529 33.9348 41.8256 33.8668C42.1034 33.7975 42.3991 33.7079 42.666 33.617C42.9367 33.5248 43.04 32.9992 43.2985 32.8861C43.5597 32.7717 43.899 32.8276 44.1473 32.6929C44.3975 32.5569 44.5534 32.2754 44.7895 32.1203C45.0256 31.9652 45.2989 31.8686 45.5215 31.6932C45.7441 31.5178 45.9693 31.35 46.1765 31.1568C46.3837 30.9636 46.3908 30.595 46.5813 30.3853C46.7719 30.1755 47.3826 30.3134 47.5558 30.0884C47.7277 29.8654 47.8612 29.5895 48.0158 29.3525C48.1691 29.1167 48.2352 28.8123 48.3706 28.5631C48.5046 28.3166 48.6958 28.082 48.812 27.8234C48.9268 27.5679 48.9499 27.2616 49.0468 26.9953C49.1423 26.7321 49.0057 26.3947 49.0827 26.1214C49.1584 25.8519 49.1994 25.5818 49.2565 25.3041C49.313 25.0302 49.6665 24.8039 49.7043 24.523C49.7415 24.2459 49.8788 23.9618 49.8981 23.6784C49.9167 23.3994 49.8801 23.1006 49.8801 22.8166C49.8801 22.5414 49.8897 22.2516 49.8699 21.9815C49.85 21.7069 49.397 21.4794 49.3573 21.2112C49.3168 20.9398 49.7492 20.5782 49.6896 20.3138C49.6293 20.0462 49.4663 19.7869 49.3861 19.527L49.3887 19.5219Z" fill="#99C9FF"/>
<path d="M37.2969 59.6785C37.5721 59.6785 37.821 59.7567 38.0847 59.798C38.3548 59.8406 38.553 60.035 38.8077 60.1176C39.0669 60.2015 39.2914 60.2587 39.5307 60.3801C39.7726 60.5028 40.0574 60.5053 40.2756 60.6629C40.4937 60.8206 40.7734 60.9019 40.9646 61.0919C41.1557 61.282 41.5618 61.3239 41.7209 61.5406C41.88 61.7573 41.8711 62.1145 41.9949 62.3541C42.1174 62.5912 42.1129 62.8918 42.1976 63.1479C42.281 63.4002 42.3881 63.6519 42.4311 63.9195C42.4728 64.1807 42.3259 64.4527 42.3259 64.7253C42.3259 64.998 42.6512 65.2973 42.6095 65.5585C42.5665 65.8261 42.0841 65.9863 42.0013 66.2386C41.9166 66.4953 41.9192 66.7578 41.7966 66.9949C41.6728 67.2345 41.5355 67.4436 41.3764 67.6596C41.2173 67.8757 41.2193 68.231 41.0281 68.4198C40.8369 68.6085 40.7201 68.9339 40.5014 69.0922C40.2826 69.2504 39.8842 69.1608 39.6424 69.2835C39.4031 69.4049 39.1118 69.382 38.8526 69.4659C38.5979 69.5478 38.3965 69.865 38.1257 69.9076C37.8621 69.9489 37.5721 69.7207 37.2969 69.7207C37.0217 69.7207 36.7503 69.8338 36.4866 69.7932C36.2165 69.7512 35.9413 69.7169 35.6866 69.6349C35.4274 69.5517 35.0617 69.6578 34.8225 69.5364C34.5806 69.4137 34.3188 69.2402 34.1007 69.0833C33.8826 68.9263 33.6677 68.6994 33.4765 68.5106C33.2853 68.3219 33.3437 67.9031 33.184 67.6863C33.0242 67.4696 32.5604 67.4194 32.4366 67.1798C32.314 66.9428 32.5668 66.5322 32.4828 66.2761C32.4 66.0238 32.4693 65.7587 32.4263 65.4912C32.3846 65.2306 32.3198 64.9993 32.3198 64.7266C32.3198 64.454 32.1678 64.1889 32.2088 63.9277C32.2512 63.6602 32.5925 63.4905 32.6752 63.2382C32.7593 62.9814 32.4378 62.5715 32.5604 62.3344C32.6842 62.0948 33.1378 62.0618 33.2962 61.8457C33.4547 61.6296 33.6369 61.4771 33.8281 61.2871C34.0192 61.097 34.0135 60.703 34.2322 60.5447C34.451 60.3865 34.8513 60.5594 35.0932 60.4367C35.3325 60.3153 35.5166 60.1666 35.7751 60.0833C36.0298 60.0007 36.2101 59.6581 36.4802 59.6156C36.7439 59.5743 37.0217 59.6804 37.2969 59.6804V59.6785Z" fill="#FFCE47"/>
<path d="M68.572 47.4138C68.2968 47.4138 68.0062 47.6375 67.7425 47.5962C67.4724 47.5536 67.2581 47.2733 67.0028 47.1913C66.7436 47.1074 66.4774 47.0661 66.2381 46.9447C65.9962 46.8221 65.8487 46.5749 65.6306 46.4172C65.4124 46.2596 65.1597 46.1649 64.9685 45.9755C64.7773 45.7861 64.2981 45.8141 64.1383 45.5974C63.9786 45.3807 64.2795 44.8741 64.1557 44.6345C64.0331 44.3975 63.5866 44.2952 63.5019 44.0384C63.4185 43.7861 63.7374 43.4397 63.6944 43.1715C63.6527 42.9103 63.6816 42.679 63.6816 42.4063C63.6816 42.1337 63.2306 41.8362 63.2723 41.575C63.3152 41.3075 63.3961 41.0196 63.4788 40.7673C63.5635 40.5105 63.9042 40.3503 64.0267 40.1133C64.1505 39.8737 64.3488 39.6983 64.5072 39.4822C64.6657 39.2661 64.8819 39.1301 65.0731 38.9407C65.2642 38.7513 65.3252 38.4367 65.5446 38.2785C65.764 38.1202 66.0636 38.1209 66.3055 37.9982C66.5448 37.8768 66.7071 37.594 66.9662 37.5101C67.2209 37.4275 67.5302 37.6245 67.8009 37.5819C68.0646 37.5406 68.2968 37.2591 68.572 37.2591C68.8472 37.2591 69.1443 37.1332 69.4079 37.1745C69.678 37.2171 69.9154 37.4478 70.1701 37.5304C70.4293 37.6143 70.777 37.5298 71.0163 37.6512C71.2582 37.7738 71.3326 38.1838 71.5507 38.3414C71.7688 38.499 71.8253 38.8022 72.0158 38.9915C72.2064 39.1809 72.4001 39.3169 72.5598 39.5343C72.7196 39.7517 72.998 39.8686 73.1218 40.1082C73.2444 40.3453 73.1956 40.6325 73.2803 40.8893C73.3631 41.1416 73.7172 41.3234 73.7602 41.5909C73.8019 41.8521 73.5979 42.133 73.5979 42.405C73.5979 42.6771 73.3996 42.8957 73.3586 43.1569C73.3162 43.4245 73.7313 43.788 73.6485 44.0403C73.5645 44.2971 73.2367 44.4617 73.1141 44.6987C72.9903 44.9383 73.0064 45.2682 72.8479 45.4843C72.6894 45.7003 72.4495 45.87 72.259 46.0594C72.0684 46.2488 71.6944 46.2088 71.4756 46.367C71.2569 46.5253 71.1709 46.8678 70.9297 46.9905C70.6904 47.1119 70.3805 47.0471 70.122 47.131C69.8673 47.2136 69.6062 47.1367 69.3361 47.1786C69.0724 47.2199 68.8485 47.4131 68.5733 47.4131L68.572 47.4138Z" fill="#FFCE47"/>
<path d="M82.4428 21.4709C82.4428 21.884 82.4999 21.884 82.4999 22.2971C82.4999 22.7102 82.4626 22.7102 82.4626 23.1233C82.4626 23.5364 82.3395 23.5364 82.3395 23.9495C82.3395 24.3626 82.6917 24.3626 82.6917 24.7757C82.6917 25.1888 82.3491 25.1888 82.3491 25.6019C82.3491 26.015 82.2913 26.015 82.2913 26.4288C82.2913 26.8425 82.2747 26.8425 82.2747 27.2556C82.2747 27.6687 82.265 27.6693 82.265 28.0831C82.265 28.4968 82.4203 28.4968 82.4203 28.9112C82.4203 29.3256 82.7199 29.3249 82.7199 29.7393C82.7199 30.1537 82.2811 30.153 82.2811 30.5668C82.2811 30.9805 82.2144 30.9805 82.2144 31.3936C82.2144 31.8067 82.5922 31.8067 82.5922 32.2205C82.5922 32.6342 82.7443 32.6336 82.7443 33.0473C82.7443 33.461 82.6115 33.4604 82.6115 33.8741C82.6115 34.2879 82.3035 34.2879 82.3035 34.701C82.3035 35.1141 82.6718 35.1147 82.6718 35.5285C82.6718 35.9422 82.6269 35.9422 82.6269 36.3559C82.6269 36.7697 82.4883 36.7703 82.4883 37.1841C82.4883 37.5978 82.4504 37.5978 82.4504 38.0122C82.4504 38.4265 82.1893 38.4259 82.1893 38.8396C82.1893 39.2534 82.3356 39.2534 82.3356 39.6671C82.3356 40.0809 82.1553 40.0809 82.1553 40.4946C82.1553 40.9083 82.5993 40.9083 82.5993 41.3221C82.5993 41.7358 82.5537 41.7358 82.5537 42.1496C82.5537 42.5633 82.197 42.5639 82.197 42.9777C82.197 43.3914 82.215 43.3921 82.215 43.8058C82.215 44.2195 82.5756 44.2189 82.5756 44.6326C82.5756 45.0464 82.1239 45.0457 82.1239 45.4582C82.1239 45.8707 82.333 45.8707 82.333 46.2831C82.333 46.6956 82.4947 46.6956 82.4947 47.1081C82.4947 47.5205 82.4889 47.5205 82.4889 47.933C82.4889 48.3455 82.6513 48.3455 82.6513 48.7579C82.6513 49.1704 82.2599 49.171 82.2599 49.5835C82.2599 49.996 82.4055 49.9966 82.4055 50.4104C82.4055 50.8241 82.682 50.8241 82.682 51.2385C82.682 51.6528 82.2715 51.6535 82.2715 52.0679C82.2715 52.4822 82.3626 52.4816 82.3626 52.896C82.3626 53.3103 82.4806 53.3097 82.4806 53.7228C82.4806 54.1359 82.5031 54.1359 82.5031 54.5497C82.5031 54.9634 82.471 54.9628 82.471 55.3765C82.471 55.7902 82.2054 55.7902 82.2054 56.204C82.2054 56.6177 82.6275 56.6183 82.6275 57.0327C82.6275 57.4471 82.6686 57.4477 82.6686 57.8621C82.6686 58.2765 82.2824 58.2765 82.2824 58.6902C82.2824 59.104 82.5204 59.104 82.5204 59.5183C82.5204 59.9327 82.573 59.9327 82.573 60.3464C82.573 60.7602 82.1701 60.7615 82.1701 61.1758C82.1701 61.5902 82.6493 61.5908 82.6493 62.0052C82.6493 62.4196 82.6256 62.4196 82.6256 62.834C82.6256 63.2483 82.5788 63.2483 82.5788 63.6633C82.5788 64.0784 82.1694 64.0784 82.1694 64.4934C82.1694 64.9084 82.546 64.9077 82.546 65.3228C82.546 65.7378 82.6872 65.7378 82.6872 66.1528C82.6872 66.5678 82.2233 66.5678 82.2233 66.9828C82.2233 67.3978 82.718 67.3978 82.718 67.8128C82.718 68.2278 82.7475 68.2272 82.7475 68.6409C82.7475 69.0547 82.5775 69.0553 82.5775 69.469C82.5775 69.8828 82.3895 69.8847 82.3895 70.3003C82.3895 70.716 82.1746 70.7153 82.1746 71.1297C82.1746 71.5441 82.6711 71.5454 82.6711 71.9604C82.6711 72.3754 82.2394 72.376 82.2394 72.7923C82.2394 73.2086 82.4601 73.2073 82.4601 73.623C82.4601 74.0386 82.4761 74.0392 82.4761 74.4555C82.4761 74.8718 82.3427 74.8724 82.3427 75.2893C82.3427 75.7063 82.3857 75.7063 82.3857 76.1232C82.3857 76.4295 82.301 76.6926 82.1688 76.9488C82.0322 77.2144 81.9629 77.5703 81.721 77.7419C81.4067 77.9771 80.9409 78.1912 80.5175 78.1912C80.1005 78.1912 80.1005 78.3069 79.6835 78.3069C79.2665 78.3069 79.2665 77.7273 78.8495 77.7273C78.4325 77.7273 78.4325 77.8811 78.0155 77.8811C77.5985 77.8811 77.5985 77.7705 77.1815 77.7705C76.7645 77.7705 76.7645 77.9319 76.3475 77.9319C75.9305 77.9319 75.9305 77.7622 75.5128 77.7622C75.0952 77.7622 75.0952 78.1359 74.6782 78.1359C74.2612 78.1359 74.2605 78.1658 73.8429 78.1658C73.4253 78.1658 73.4252 78.1976 73.007 78.1976C72.5887 78.1976 72.5893 78.2167 72.171 78.2167C71.7528 78.2167 71.7534 77.9923 71.3358 77.9923C70.9181 77.9923 70.9181 77.8296 70.5011 77.8296C70.0841 77.8296 70.0841 78.0762 69.6665 78.0762C69.2488 78.0762 69.2495 78.2434 68.8318 78.2434C68.4142 78.2434 68.4148 77.9135 67.9972 77.9135C67.5795 77.9135 67.5795 78.0209 67.1625 78.0209C66.7455 78.0209 66.7449 78.2713 66.3272 78.2713C65.9096 78.2713 65.9096 77.8824 65.492 77.8824C65.0743 77.8824 65.0737 77.8029 64.656 77.8029C64.2384 77.8029 64.2384 77.9707 63.8201 77.9707C63.4018 77.9707 63.4025 78.3094 62.9848 78.3094C62.5672 78.3094 62.5672 78.2109 62.1495 78.2109C61.7319 78.2109 61.7319 77.904 61.3142 77.904C60.8966 77.904 60.8966 77.9555 60.479 77.9555C60.0613 77.9555 60.0613 77.8239 59.6437 77.8239C59.226 77.8239 59.2254 78.1817 58.8077 78.1817C58.3901 78.1817 58.3895 78.0368 57.9718 78.0368C57.5542 78.0368 57.5548 78.0838 57.1372 78.0838C56.7195 78.0838 56.7202 77.6968 56.3038 77.6968C55.8875 77.6968 55.8874 77.6955 55.4711 77.6955C55.0547 77.6955 55.0547 77.9574 54.6384 77.9574C54.222 77.9574 54.222 78.0387 53.8056 78.0387C53.3893 78.0387 53.3893 78.2739 52.9729 78.2739C52.5566 78.2739 52.5559 77.7171 52.1396 77.7171C51.7232 77.7171 51.7226 78.1531 51.3049 78.1531C50.8873 78.1531 50.8873 78.2821 50.469 78.2821C50.0507 78.2821 50.0501 77.9529 49.6318 77.9529C49.2135 77.9529 49.2141 78.087 48.7959 78.087C48.3776 78.087 48.3782 78.1487 47.9612 78.1487C47.5442 78.1487 47.5442 77.8194 47.1266 77.8194C46.7089 77.8194 46.7096 78.2694 46.2919 78.2694C45.8743 78.2694 45.8743 77.8201 45.4566 77.8201C45.039 77.8201 45.0384 77.991 44.6201 77.991C44.2018 77.991 44.2011 77.9091 43.7829 77.9091C43.3646 77.9091 43.3646 77.7877 42.9469 77.7877C42.5293 77.7877 42.5293 77.904 42.111 77.904C41.6927 77.904 41.6927 78.0756 41.2751 78.0756C40.8574 78.0756 40.8561 77.9186 40.4379 77.9186C40.0196 77.9186 40.0189 78.0927 39.6007 78.0927C39.1824 78.0927 39.1824 78.0457 38.7641 78.0457C38.3458 78.0457 38.3458 77.9014 37.9269 77.9014C37.5079 77.9014 37.5079 77.808 37.089 77.808C36.6701 77.808 36.6707 77.8309 36.2518 77.8309C35.8329 77.8309 35.8329 78.1811 35.414 78.1811C34.995 78.1811 34.995 77.8214 34.5761 77.8214C34.1572 77.8214 34.1572 77.8836 33.7382 77.8836C33.3193 77.8836 33.32 78.1023 32.9023 78.1023C32.4847 78.1023 32.484 78.1035 32.0664 78.1035C31.6488 78.1035 31.6468 78.005 31.2273 78.005C30.8077 78.005 30.8083 78.2211 30.39 78.2211C29.9718 78.2211 29.9705 78.319 29.5516 78.319C29.1326 78.319 29.132 77.7648 28.7118 77.7648C28.2916 77.7648 28.2929 78.0533 27.8733 78.0533C27.4537 78.0533 27.4531 77.944 27.0329 77.944C26.6127 77.944 26.612 78.2103 26.1912 78.2103C25.7703 78.2103 25.7703 77.9574 25.3495 77.9574C25.0909 77.9574 24.9087 77.8067 24.6842 77.7146C24.4513 77.6186 24.1633 77.6459 23.9875 77.4718C23.8117 77.2977 23.8707 76.9996 23.7738 76.7689C23.6808 76.5465 23.2343 76.3787 23.2343 76.1225C23.2343 75.7094 23.4941 75.7094 23.4941 75.2963C23.4941 74.8832 23.1605 74.8832 23.1605 74.4701C23.1605 74.057 23.7052 74.057 23.7052 73.6439C23.7052 73.2308 23.4486 73.2308 23.4486 72.8177C23.4486 72.4046 23.7443 72.4046 23.7443 71.9915C23.7443 71.5784 23.5487 71.5784 23.5487 71.1647C23.5487 70.7509 23.4165 70.7509 23.4165 70.3378C23.4165 69.9247 23.4486 69.9241 23.4486 69.5103C23.4486 69.0966 23.4011 69.0966 23.4011 68.6822C23.4011 68.2679 23.6404 68.2685 23.6404 67.8541C23.6404 67.4397 23.1503 67.4404 23.1503 67.0266C23.1503 66.6129 23.3806 66.6129 23.3806 66.1998C23.3806 65.7867 23.6321 65.7867 23.6321 65.373C23.6321 64.9592 23.6558 64.9599 23.6558 64.5461C23.6558 64.1324 23.1304 64.133 23.1304 63.7193C23.1304 63.3055 23.2548 63.3055 23.2548 62.8924C23.2548 62.4793 23.1868 62.4787 23.1868 62.065C23.1868 61.6512 23.455 61.6512 23.455 61.2375C23.455 60.8237 23.471 60.8231 23.471 60.4094C23.471 59.9956 23.709 59.9956 23.709 59.5813C23.709 59.1669 23.5608 59.1675 23.5608 58.7538C23.5608 58.34 23.7501 58.34 23.7501 57.9263C23.7501 57.5126 23.4152 57.5126 23.4152 57.0988C23.4152 56.6851 23.3722 56.6851 23.3722 56.2713C23.3722 55.8576 23.7244 55.8576 23.7244 55.4439C23.7244 55.0301 23.4582 55.0295 23.4582 54.6158C23.4582 54.202 23.19 54.2014 23.19 53.7876C23.19 53.3739 23.3761 53.3745 23.3761 52.9608C23.3761 52.5471 23.7058 52.5477 23.7058 52.1352C23.7058 51.7228 23.5916 51.7228 23.5916 51.3103C23.5916 50.8978 23.2491 50.8978 23.2491 50.4854C23.2491 50.0729 23.6102 50.0729 23.6102 49.6604C23.6102 49.248 23.3164 49.2479 23.3164 48.8355C23.3164 48.423 23.4075 48.4224 23.4075 48.0099C23.4075 47.5974 23.6885 47.5968 23.6885 47.1831C23.6885 46.7693 23.2022 46.7693 23.2022 46.355C23.2022 45.9406 23.7591 45.9399 23.7591 45.5256C23.7591 45.1112 23.6949 45.1118 23.6949 44.6975C23.6949 44.2831 23.7386 44.2837 23.7386 43.8706C23.7386 43.4575 23.2869 43.4575 23.2869 43.0438C23.2869 42.63 23.5333 42.6307 23.5333 42.2169C23.5333 41.8032 23.5634 41.8032 23.5634 41.3895C23.5634 40.9757 23.4749 40.9751 23.4749 40.5607C23.4749 40.1463 23.3748 40.1457 23.3748 39.7313C23.3748 39.3169 23.4396 39.3169 23.4396 38.9032C23.4396 38.4895 23.6859 38.4895 23.6859 38.0751C23.6859 37.6607 23.1541 37.6607 23.1541 37.247C23.1541 36.8332 23.4935 36.832 23.4935 36.4176C23.4935 36.0032 23.7507 36.0026 23.7507 35.5882C23.7507 35.1738 23.6449 35.1738 23.6449 34.7595C23.6449 34.3451 23.609 34.3451 23.609 33.9301C23.609 33.5151 23.4248 33.5151 23.4248 33.1001C23.4248 32.685 23.2375 32.6857 23.2375 32.2707C23.2375 31.8557 23.1336 31.8557 23.1336 31.4407C23.1336 31.0256 23.7501 31.0256 23.7501 30.6106C23.7501 30.1956 23.4993 30.1956 23.4993 29.7806C23.4993 29.3656 23.6199 29.3662 23.6199 28.9525C23.6199 28.5388 23.6263 28.5381 23.6263 28.1244C23.6263 27.7106 23.7353 27.7087 23.7353 27.2931C23.7353 26.8774 23.4094 26.8781 23.4094 26.4637C23.4094 26.0493 23.4871 26.0481 23.4871 25.6331C23.4871 25.218 23.6019 25.2174 23.6019 24.8011C23.6019 24.3848 23.4383 24.3861 23.4383 23.9705C23.4383 23.5548 23.5018 23.5542 23.5018 23.1379C23.5018 22.7216 23.2202 22.721 23.2202 22.3041C23.2202 21.8872 23.1791 21.8872 23.1791 21.4702C23.1791 21.2141 23.5474 20.9923 23.6404 20.7699C23.7373 20.5392 24.0266 20.5099 24.2024 20.3358C24.3782 20.1617 24.4712 20.0269 24.7041 19.9316C24.9286 19.8394 25.089 19.6882 25.3475 19.6882C25.7575 19.6882 25.7575 19.8674 26.1674 19.8674C26.5774 19.8674 26.5754 19.5751 26.9835 19.5751C27.3915 19.5751 27.3934 19.5801 27.8034 19.5801C28.2133 19.5801 28.2127 19.7263 28.6213 19.7263C29.03 19.7263 29.0306 19.6952 29.4393 19.6952C29.8479 19.6952 29.8499 19.713 30.2598 19.713C30.6698 19.713 30.6698 19.3698 31.0791 19.3698C31.4884 19.3698 31.489 19.5553 31.8996 19.5553C32.3102 19.5553 32.3102 19.3081 32.7208 19.3081C33.1314 19.3081 33.1307 19.767 33.5407 19.767C33.9506 19.767 33.9519 19.5433 34.3625 19.5433C34.7731 19.5433 34.7743 19.3183 35.1862 19.3183C35.5981 19.3183 35.6064 19.4028 35.8945 19.6945C36.1889 19.9926 36.2929 19.9996 36.2929 20.4165C36.2929 20.8334 36.1421 20.8334 36.1421 21.2503C36.1421 21.6673 35.8701 21.6673 35.8701 22.0842C35.8701 22.5011 36.2678 22.5011 36.2678 22.9186C36.2678 23.3362 35.9804 23.3362 35.9804 23.7537C35.9804 24.1713 36.1864 24.1713 36.1864 24.5889C36.1864 25.0064 35.8836 25.0064 35.8836 25.4233C35.8836 25.8402 36.2018 25.8396 36.2018 26.2559C36.2018 26.6722 36.1594 26.6715 36.1594 27.0878C36.1594 27.5041 35.8919 27.5035 35.8919 27.9191C35.8919 28.3347 35.9278 28.3347 35.9278 28.7504C35.9278 29.166 36.1389 29.166 36.1389 29.5823C36.1389 29.9986 36.2691 29.9986 36.2691 30.4149C36.2691 30.8312 36.0561 30.8318 36.0561 31.2481C36.0561 31.6644 35.7873 31.6656 35.7873 32.0825C35.7873 32.4995 35.72 32.5007 35.72 32.9189C35.72 33.3371 35.8605 33.3365 35.8605 33.7534C35.8605 34.1703 35.7687 34.1703 35.7687 34.5872C35.7687 35.0041 36.001 35.0041 36.001 35.4204C36.001 35.8367 35.788 35.8373 35.788 36.2536C35.788 36.6699 35.8573 36.6705 35.8573 37.0875C35.8573 37.5044 36.2897 37.505 36.2897 37.9226C36.2897 38.3401 36.2839 38.3407 36.2839 38.7589C36.2839 39.1771 35.9772 39.1765 35.9772 39.594C35.9772 40.0116 36.2723 40.0116 36.2723 40.4285C36.2723 40.8454 36.1427 40.8461 36.1427 41.2636C36.1427 41.6812 36.1511 41.6818 36.1511 42.1C36.1511 42.5182 36.2781 42.5182 36.2781 42.9364C36.2781 43.3546 36.1723 43.3539 36.1723 43.7715C36.1723 44.189 36.2884 44.1897 36.2884 44.6072C36.2884 45.0248 35.9875 45.0254 35.9875 45.4442C35.9875 45.863 35.9387 45.8624 35.9387 46.28C35.9387 46.6975 36.2217 46.6981 36.2217 47.117C36.2217 47.5358 36.0703 47.5352 36.0703 47.9533C36.0703 48.3715 35.8701 48.3715 35.8701 48.7904C35.8701 49.2092 36.2287 49.2079 36.2287 49.6255C36.2287 50.043 36.1498 50.043 36.1498 50.4606C36.1498 50.8781 36.2383 50.8794 36.2383 51.2982C36.2383 51.717 36.1607 51.7164 36.1607 52.1346C36.1607 52.5528 35.9214 52.5534 35.9214 52.9722C35.9214 53.3911 35.7918 53.3917 35.7918 53.8105C35.7918 54.2293 36.1485 54.2293 36.1485 54.6475C36.1485 55.0657 35.8868 55.067 35.8868 55.4864C35.8868 55.9059 36.298 55.9065 36.298 56.3273C36.298 56.748 36.035 56.7359 35.9092 57.137C35.6321 57.1827 35.5442 57.5691 35.2779 57.6435C35.0085 57.7185 34.7121 57.6384 34.4555 57.7414C34.1963 57.8449 33.9743 57.9879 33.7299 58.1176C33.4836 58.2485 33.0839 58.124 32.8542 58.2797C32.6245 58.4354 32.4802 58.7163 32.2691 58.8955C32.0581 59.0747 32.0016 59.402 31.8104 59.6029C31.6192 59.8037 31.0759 59.7147 30.9071 59.9346C30.7384 60.1545 30.7929 60.5416 30.6492 60.7786C30.5062 61.0144 30.6717 61.3951 30.5549 61.6461C30.4388 61.8953 29.9859 62.0001 29.8967 62.2626C29.8088 62.5225 29.7068 62.7901 29.6471 63.0615C29.5881 63.3284 29.4598 63.6023 29.4297 63.8794C29.4002 64.1508 29.5875 64.4451 29.5875 64.7241C29.5875 65.0139 29.7164 65.2846 29.7485 65.5662C29.7812 65.8534 29.4072 66.2157 29.4707 66.4921C29.5355 66.7737 30.0038 66.9485 30.0994 67.2173C30.1957 67.4887 30.4619 67.6654 30.587 67.9221C30.7134 68.1808 30.8122 68.4198 30.9655 68.6613C31.1188 68.9028 30.9334 69.3813 31.1137 69.605C31.294 69.8288 31.4993 70.0576 31.7033 70.2603C31.9073 70.463 32.0471 70.7789 32.2736 70.9575C32.5001 71.1361 32.8035 71.2606 33.0486 71.4138C33.2924 71.5657 33.7145 71.4202 33.9756 71.5454C34.2348 71.6693 34.4016 72.0341 34.6755 72.1294C34.9469 72.2235 35.2157 72.4351 35.4999 72.4993C35.7796 72.5622 36.1549 72.1301 36.4449 72.1618C36.7291 72.193 36.9986 72.3258 37.2911 72.3258C37.5836 72.3258 37.882 72.444 38.1662 72.4129C38.4561 72.3805 38.7326 72.2527 39.0124 72.1892C39.2966 72.125 39.5711 72.036 39.8425 71.9419C40.1171 71.8466 40.2563 71.478 40.5161 71.3541C40.7772 71.2289 41.2148 71.4424 41.4586 71.2899C41.7023 71.1373 41.848 70.8393 42.0738 70.6613C42.2996 70.4834 42.6435 70.4281 42.8481 70.2253C43.0528 70.0226 42.9206 69.5339 43.1015 69.3102C43.2825 69.0864 43.7456 69.0775 43.9003 68.8348C44.0549 68.592 44.0003 68.2405 44.1261 67.9819C44.2512 67.7251 44.6053 67.5624 44.7015 67.291C44.7965 67.0222 44.6598 66.6847 44.7246 66.4038C44.7881 66.1267 44.8273 65.856 44.86 65.5687C44.8921 65.2872 45.0884 65.0139 45.0884 64.7241C45.0884 64.4451 45.2815 64.1406 45.252 63.8693C45.2218 63.5922 45.0858 63.31 45.0268 63.0424C44.9665 62.771 44.6861 62.5531 44.5976 62.2931C44.5084 62.03 44.3384 61.8076 44.2217 61.5584C44.1043 61.3074 44.1306 60.9826 43.9875 60.7468C43.8444 60.5111 43.5654 60.3636 43.3973 60.1443C43.2292 59.9251 43.0489 59.7243 42.8578 59.5241C42.6666 59.3239 42.3856 59.2387 42.1739 59.0588C41.9622 58.879 41.8499 58.5943 41.6202 58.4385C41.3905 58.2828 41.0332 58.3725 40.7875 58.2415C40.5431 58.1119 40.3917 57.836 40.1325 57.7325C39.8752 57.6295 39.6841 57.3365 39.4146 57.2615C39.1484 57.1872 38.7249 57.2513 38.4478 57.2062C38.3221 56.8046 38.7314 56.7467 38.7314 56.326C38.7314 55.9053 38.2791 55.9053 38.2791 55.4852C38.2791 55.0651 38.7891 55.0651 38.7891 54.645C38.7891 54.2249 38.2759 54.2249 38.2759 53.8042C38.2759 53.3834 38.2618 53.3834 38.2618 52.9627C38.2618 52.542 38.6056 52.542 38.6056 52.1219C38.6056 51.7018 38.6037 51.7011 38.6037 51.2798C38.6037 50.8584 38.7416 50.8591 38.7416 50.4383C38.7416 50.0176 38.4857 50.0176 38.4857 49.5969C38.4857 49.1761 38.5094 49.1768 38.5094 48.7573C38.5094 48.3378 38.6775 48.3372 38.6775 47.9178C38.6775 47.4983 38.3067 47.4964 38.3067 47.075C38.3067 46.6537 38.4452 46.6543 38.4452 46.2336C38.4452 45.8128 38.6185 45.8122 38.6185 45.3915C38.6185 44.9707 38.7506 44.9701 38.7506 44.5481C38.7506 44.1261 38.3529 44.1274 38.3529 43.706C38.3529 43.2846 38.884 43.284 38.884 42.862C38.884 42.44 38.6133 42.4394 38.6133 42.0167C38.6133 41.5941 38.231 41.4409 38.6185 41.2636C38.9989 41.0895 38.9585 41.3723 39.2658 41.6545C39.5731 41.9367 39.6635 41.8394 39.9708 42.1216C40.2781 42.4038 40.2056 42.4807 40.5123 42.7629C40.8189 43.045 40.6406 43.2357 40.9472 43.5179C41.2539 43.8001 41.2764 43.7766 41.5837 44.0587C41.891 44.3409 41.771 44.4699 42.0789 44.7521C42.3869 45.0343 42.4831 44.932 42.791 45.2154C43.099 45.4989 43.0579 45.5415 43.3652 45.8236C43.6725 46.1058 43.6424 46.1382 43.9497 46.4204C44.257 46.7026 44.4398 46.5075 44.7477 46.7897C45.0557 47.0718 44.962 47.1723 45.2706 47.4551C45.5792 47.7379 45.8647 47.4322 46.1726 47.715C46.4805 47.9978 46.3728 48.1129 46.6801 48.3957C46.9874 48.6785 47.0137 48.6505 47.3216 48.9334C47.6295 49.2162 47.2972 49.5721 47.6052 49.8549C47.9131 50.1377 48.1954 49.8339 48.5027 50.1161C48.81 50.3983 48.5681 50.6557 48.8748 50.9372C49.1814 51.2188 49.4374 50.9461 49.7447 51.2277C50.052 51.5092 50.1681 51.3878 50.4767 51.6713C50.7853 51.9547 50.4645 52.2967 50.7724 52.5795C51.0804 52.8623 51.1837 52.7517 51.4916 53.0345C51.7996 53.3173 52.0151 53.0892 52.3237 53.3726C52.6323 53.6561 52.5546 53.7387 52.8632 54.0222C53.1718 54.3056 53.055 54.4308 53.3643 54.7143C53.6735 54.9977 53.798 54.8623 54.1052 55.1445C54.4145 55.4286 54.3445 55.503 54.6538 55.7864C54.963 56.0699 55.0066 56.0248 55.3165 56.3088C55.6263 56.5929 55.405 56.8313 55.7155 57.1166C56.026 57.402 56.5437 57.0702 56.7163 57.4535C56.8831 57.8252 56.3077 57.981 56.3077 58.3877C56.3077 58.7944 56.3282 58.7938 56.3282 59.1999C56.3282 59.606 56.3417 59.6067 56.3417 60.0134C56.3417 60.4202 56.2146 60.4208 56.2146 60.8276C56.2146 61.2343 56.6611 61.2343 56.6611 61.6404C56.6611 62.0465 56.1845 62.0478 56.1845 62.4552C56.1845 62.8626 56.5085 62.8632 56.5085 63.2712C56.5085 63.6792 55.9375 64.018 56.2339 64.3014C56.5412 64.5951 56.869 64.3777 57.2963 64.3777C57.7235 64.3777 57.7242 64.1464 58.1521 64.1464C58.58 64.1464 58.8847 64.5658 59.1882 64.2665C59.4916 63.9671 59.022 63.6653 59.022 63.2433C59.022 62.8213 59.0387 62.82 59.0387 62.3961C59.0387 61.9722 58.8289 61.9734 58.8289 61.5502C58.8289 61.1269 59.2286 61.1269 59.2286 60.7036C59.2286 60.2804 58.8623 60.2797 58.8623 59.8558C58.8623 59.4319 58.9617 59.4325 58.9617 59.0093C58.9617 58.586 58.9668 58.5847 58.9668 58.1608C58.9668 57.7369 59.1029 57.7356 59.1029 57.3111C59.1029 56.8865 59.2312 56.8287 59.0612 56.4385C58.895 56.0565 58.6416 56.2402 58.3336 55.9574C58.0257 55.6746 58.2438 55.44 57.9352 55.1572C57.6267 54.8744 57.465 55.046 57.1558 54.7619C56.8466 54.4778 57.0294 54.2821 56.7195 53.9974C56.4097 53.7126 56.3603 53.7673 56.051 53.4832C55.7418 53.1991 55.5256 53.4317 55.2164 53.1483C54.9072 52.8648 54.8039 52.976 54.4953 52.6926C54.1867 52.4091 54.3356 52.2503 54.027 51.9668C53.7184 51.6834 53.8737 51.5168 53.5651 51.2334C53.2565 50.9499 53.2321 50.9747 52.9222 50.6906C52.6124 50.4065 52.7291 50.282 52.4193 49.9973C52.1094 49.7125 52.0947 49.7297 51.7854 49.4462C51.4762 49.1628 51.1343 49.5282 50.8251 49.2448C50.5158 48.9613 50.469 49.0109 50.1598 48.7268C49.8505 48.4427 50.0969 48.1783 49.787 47.8942C49.4772 47.6102 49.3187 47.7798 49.0088 47.4951C48.699 47.2104 48.9158 46.9797 48.6066 46.6956C48.2974 46.4115 48.1447 46.5749 47.8348 46.2901C47.525 46.0054 47.5224 46.0086 47.2125 45.7239C46.9027 45.4391 46.9001 45.4442 46.5915 45.1608C46.2829 44.8773 46.4305 44.7197 46.1226 44.4369C45.8146 44.1541 45.6279 44.3524 45.3193 44.0683C45.0108 43.7842 44.8946 43.9056 44.5848 43.6208C44.2749 43.3361 44.3436 43.2637 44.0337 42.9796C43.7238 42.6955 43.6937 42.7279 43.3838 42.4438C43.074 42.1597 43.3793 41.8312 43.0688 41.5464C42.7583 41.2617 42.4055 41.6392 42.0956 41.3545C41.7857 41.0698 41.8204 41.0316 41.5099 40.7463C41.1994 40.4609 41.1692 40.4959 40.86 40.2124C40.5495 39.9271 40.6919 39.7745 40.3814 39.4892C40.0709 39.2038 40.221 39.0424 39.9092 38.7564C39.5974 38.4704 39.6577 38.4049 39.3453 38.1183C39.0329 37.8317 38.9322 38.0071 38.7596 37.6219C38.5915 37.2463 38.5498 37.2934 38.5498 36.8822C38.5498 36.471 38.4555 36.4716 38.4555 36.0604C38.4555 35.6492 38.5197 35.6492 38.5197 35.2387C38.5197 34.8281 38.4998 34.8268 38.4998 34.415C38.4998 34.0032 38.8783 34.0032 38.8783 33.592C38.8783 33.1808 38.4722 33.1808 38.4722 32.7696C38.4722 32.3584 38.8693 32.3577 38.8693 31.9465C38.8693 31.5353 38.6287 31.5347 38.6287 31.1222C38.6287 30.7098 38.6274 30.7104 38.6274 30.2992C38.6274 29.888 38.5017 29.8874 38.5017 29.4749C38.5017 29.0624 38.7243 29.0631 38.7243 28.6512C38.7243 28.2394 38.7808 28.2394 38.7808 27.8276C38.7808 27.4158 38.2759 27.4164 38.2759 27.0052C38.2759 26.594 38.3676 26.594 38.3676 26.1828C38.3676 25.7716 38.8917 25.7703 38.8917 25.3579C38.8917 24.9454 38.3092 24.946 38.3092 24.5342C38.3092 24.1224 38.4792 24.1217 38.4792 23.7099C38.4792 23.2981 38.7288 23.2974 38.7288 22.8843C38.7288 22.4712 38.8513 22.4719 38.8513 22.06C38.8513 21.6482 38.4497 21.6469 38.4497 21.2338C38.4497 20.8207 38.2804 20.8201 38.2804 20.4063C38.2804 19.9926 38.2168 19.8134 38.5139 19.5223C38.8141 19.228 38.9925 19.5223 39.4146 19.5223C39.8367 19.5223 39.8367 19.4734 40.2589 19.4734C40.681 19.4734 40.681 19.7644 41.1031 19.7644C41.5253 19.7644 41.5259 19.5636 41.9487 19.5636C42.3715 19.5636 42.3715 19.699 42.7942 19.699C43.217 19.699 43.2164 19.5191 43.6391 19.5191C44.0619 19.5191 44.0619 19.6113 44.4847 19.6113C44.9075 19.6113 44.9081 19.828 45.3309 19.828C45.7537 19.828 45.7537 19.856 46.1764 19.856C46.5992 19.856 46.5999 19.5738 47.0226 19.5738C47.4454 19.5738 47.4454 19.6418 47.8688 19.6418C48.2922 19.6418 48.2922 19.767 48.715 19.767C49.1378 19.767 49.1372 19.6678 49.5593 19.6678C49.9814 19.6678 49.9814 19.4301 50.4036 19.4301C50.8257 19.4301 50.827 19.5217 51.251 19.5217C51.6751 19.5217 51.6738 19.7314 52.0966 19.7314C52.5194 19.7314 52.52 19.7142 52.9434 19.7142C53.3668 19.7142 53.3675 19.3374 53.7915 19.3374C54.2156 19.3374 54.215 19.8318 54.6384 19.8318C55.0618 19.8318 55.0624 19.8769 55.4871 19.8769C55.9118 19.8769 55.9125 19.5662 56.3372 19.5662C56.7619 19.5662 57.091 19.0774 57.3931 19.3729C57.6915 19.6647 56.8934 19.9958 56.8934 20.4114C56.8934 20.8271 57.1423 20.8264 57.1423 21.2414C57.1423 21.6565 57.3335 21.6571 57.3335 22.0727C57.3335 22.4884 57.0506 22.4884 57.0506 22.9034C57.0506 23.3184 56.9941 23.319 56.9941 23.7347C56.9941 24.1503 57.1314 24.1491 57.1314 24.5641C57.1314 24.9791 56.9575 24.9784 56.9575 25.3935C56.9575 25.8085 57.1025 25.8097 57.1025 26.2254C57.1025 26.641 57.4945 26.641 57.4945 27.056C57.4945 27.471 57.0891 27.4717 57.0891 27.888C57.0891 28.3042 57.2469 28.3042 57.2469 28.7205C57.2469 29.1368 57.0801 29.1362 57.0801 29.5518C57.0801 29.9675 56.937 29.9687 56.937 30.3856C56.937 30.8026 57.3431 30.8032 57.3431 31.2208C57.3431 31.6383 57.2026 31.6002 57.3579 31.9885C57.5157 32.3844 57.3283 32.5058 57.6196 32.8185C57.9109 33.1312 57.9083 33.1363 58.2008 33.4502C58.4934 33.7642 58.7686 33.5119 59.0605 33.8252C59.3524 34.1385 59.0316 34.4328 59.3242 34.7467C59.6167 35.0607 59.7707 34.9171 60.062 35.2298C60.3545 35.5444 60.3789 35.5215 60.6721 35.8361C60.9652 36.1507 60.9274 36.1856 61.2206 36.5002C61.5138 36.8148 61.601 36.7366 61.8948 37.0525C62.1887 37.3684 62.1027 37.4008 62.2907 37.7885C62.1162 38.009 61.966 38.07 61.8172 38.309C61.6684 38.5479 61.7999 38.9407 61.678 39.1949C61.5567 39.4472 61.4798 39.7027 61.3874 39.9696C61.2956 40.2334 61.3681 40.5194 61.3059 40.7952C61.245 41.0672 61.1211 41.3024 61.0897 41.5839C61.0596 41.8598 60.6329 42.1171 60.6329 42.4012C60.6329 42.6917 60.8729 42.9739 60.9049 43.256C60.9377 43.5439 60.647 43.8992 60.7112 44.1763C60.776 44.4579 61.4066 44.5792 61.5016 44.8481C61.5978 45.1201 61.4086 45.497 61.5337 45.7537C61.66 46.0124 61.5991 46.3982 61.7531 46.6397C61.907 46.8812 62.3375 46.9524 62.5184 47.1754C62.6993 47.3985 63.0073 47.4983 63.2119 47.701C63.4166 47.9038 63.6514 48.0417 63.8778 48.2203C64.1043 48.3989 64.1627 48.798 64.4078 48.9511C64.6528 49.1043 64.9569 49.1545 65.2187 49.2797C65.4778 49.4037 65.7582 49.4672 66.0328 49.5625C66.3041 49.6566 66.5967 49.6331 66.8809 49.6973C67.1606 49.7602 67.4307 49.7608 67.7207 49.7926C68.0049 49.8244 68.2685 50.3602 68.5617 50.3602C68.8549 50.3602 69.134 49.9655 69.4182 49.9343C69.7082 49.9019 70.0026 49.9343 70.2823 49.8708C70.5665 49.8066 70.7532 49.471 71.0246 49.377C71.2992 49.2816 71.6212 49.3547 71.8804 49.2308C72.1415 49.1056 72.5887 49.2874 72.8325 49.1348C73.0763 48.9823 73.1032 48.5025 73.3284 48.3239C73.5536 48.1453 73.8538 48.0493 74.0578 47.8466C74.2618 47.6438 74.5114 47.4684 74.6917 47.2447C74.8719 47.021 74.6987 46.5602 74.8527 46.3175C75.006 46.076 75.4467 46.0054 75.5731 45.7467C75.6982 45.49 75.9978 45.2841 76.0941 45.0127C76.189 44.7439 75.8002 44.3346 75.8644 44.053C75.9279 43.7759 76.0312 43.5261 76.0633 43.2389C76.0953 42.9573 76.3943 42.691 76.3943 42.4006C76.3943 42.1102 76.5431 41.7949 76.5117 41.5127C76.479 41.2255 76.0524 40.9973 75.9889 40.7202C75.9241 40.4387 75.8618 40.1705 75.7662 39.9016C75.67 39.6296 75.4006 39.4529 75.2755 39.1962C75.1491 38.9375 75.0727 38.6833 74.9188 38.4412C74.7648 38.199 74.8809 37.7713 74.7006 37.5476C74.5204 37.3239 74.3305 37.0875 74.1258 36.8847C73.9212 36.682 73.6799 36.4977 73.4541 36.3191C73.2283 36.1405 73.0018 35.9352 72.7568 35.782C72.5117 35.6289 72.2217 35.5297 71.9606 35.4045C71.7014 35.2806 71.4211 35.1732 71.1465 35.0779C70.8751 34.9838 70.607 34.8154 70.3228 34.7512C70.0431 34.6883 69.7454 34.5688 69.4548 34.537C69.1706 34.5052 68.8536 34.8084 68.5604 34.8084C68.2583 34.8084 67.9792 34.9152 67.6867 34.9482C67.3877 34.9825 67.0021 34.565 66.7141 34.6323C66.4216 34.7004 66.2515 35.2101 65.9731 35.3098C65.6915 35.4109 65.3996 35.4605 65.134 35.5914C64.8665 35.7236 64.7215 35.5736 64.4725 35.7344C64.1043 35.531 64.0106 35.7083 63.7245 35.4014C63.4384 35.0944 63.6488 34.9025 63.3633 34.5961C63.0778 34.2898 62.6698 34.6616 62.3837 34.3546C62.0976 34.0476 62.4228 33.7528 62.138 33.4471C61.8519 33.1395 61.7511 33.2316 61.465 32.924C61.1789 32.6164 61.1192 32.6704 60.8324 32.3622C60.5457 32.054 60.6753 31.9345 60.3879 31.6256C60.1004 31.3167 59.7778 31.5055 59.6212 31.1146C59.4692 30.7339 59.7835 30.6532 59.7835 30.2439C59.7835 29.8346 59.6116 29.834 59.6116 29.4241C59.6116 29.0141 59.6411 29.0141 59.6411 28.6049C59.6411 28.1956 59.9753 28.1949 59.9753 27.785C59.9753 27.3751 59.4698 27.3763 59.4698 26.9671C59.4698 26.5578 59.9061 26.5584 59.9061 26.1491C59.9061 25.7398 59.6674 25.7386 59.6674 25.3286C59.6674 24.9187 60.0228 24.9187 60.0228 24.5094C60.0228 24.1001 59.4608 24.0995 59.4608 23.6889C59.4608 23.2784 59.6353 23.2784 59.6353 22.8678C59.6353 22.4572 59.4442 22.4579 59.4442 22.048C59.4442 21.638 59.4653 21.6368 59.4653 21.2262C59.4653 20.8156 59.9657 20.8144 59.9657 20.4025C59.9657 19.9907 59.6456 20.0549 59.9394 19.7632C60.2332 19.4715 60.1665 19.7543 60.5803 19.7543C60.9941 19.7543 60.9948 19.5579 61.4092 19.5579C61.8236 19.5579 61.8243 19.8318 62.2393 19.8318C62.6544 19.8318 62.6538 19.6367 63.0682 19.6367C63.4827 19.6367 63.482 19.8255 63.8964 19.8255C64.3109 19.8255 64.3109 19.7187 64.7247 19.7187C65.1385 19.7187 65.1397 19.5986 65.5548 19.5986C65.9699 19.5986 65.9699 19.441 66.3843 19.441C66.7988 19.441 66.7988 19.6036 67.2132 19.6036C67.6276 19.6036 67.6283 19.7752 68.0427 19.7752C68.4572 19.7752 68.4578 19.4905 68.8735 19.4905C69.2892 19.4905 69.2886 19.5426 69.703 19.5426C70.1175 19.5426 70.1181 19.5871 70.5338 19.5871C70.9495 19.5871 70.9489 19.7295 71.364 19.7295C71.7791 19.7295 71.7791 19.5007 72.1941 19.5007C72.6092 19.5007 72.6086 19.5674 73.0224 19.5674C73.4362 19.5674 73.4368 19.7047 73.8512 19.7047C74.2657 19.7047 74.267 19.8738 74.6827 19.8738C75.0984 19.8738 75.0977 19.5782 75.5128 19.5782C75.9279 19.5782 75.9285 19.3431 76.3436 19.3431C76.7587 19.3431 76.7593 19.4276 77.1757 19.4276C77.5921 19.4276 77.5914 19.7339 78.0065 19.7339C78.4216 19.7339 78.4229 19.4645 78.8392 19.4645C79.2556 19.4645 79.2562 19.5598 79.6732 19.5598C80.0902 19.5598 80.0902 19.8051 80.5072 19.8051C80.7664 19.8051 80.9409 19.8038 81.1654 19.896C81.3996 19.9913 81.8596 19.7803 82.0354 19.9538C82.2111 20.1273 81.952 20.6046 82.0488 20.8353C82.1425 21.0584 82.4318 21.2103 82.4318 21.4664L82.4428 21.4709Z" fill="#0E5249"/>
<path d="M59.0117 64.0917C59.3088 64.3752 59.1907 64.4991 59.1907 64.9071C59.1907 65.3151 58.8488 65.3158 58.8488 65.7244C58.8488 66.1331 58.8398 66.1337 58.8398 66.543C58.8398 66.9523 58.9777 66.9517 58.9777 67.3603C58.9777 67.769 58.768 67.7696 58.768 68.1789C58.768 68.5882 58.8411 68.5882 58.8411 68.9968C58.8411 69.4055 59.1336 69.4061 59.1336 69.8154C59.1336 70.2247 58.8058 70.2234 58.8058 70.6321C58.8058 71.0407 59.3261 71.0401 59.3261 71.4488C59.3261 71.8574 59.1227 71.8587 59.1227 72.268C59.1227 72.6773 58.8905 72.6766 58.8905 73.0859C58.8905 73.4952 58.7205 73.4952 58.7205 73.9051C58.7205 74.3151 59.2382 74.3151 59.2382 74.725C59.2382 75.1349 58.9316 75.1343 58.9316 75.5436C58.9316 75.9529 58.8655 75.9541 58.8655 76.3641C58.8655 76.774 59.1131 76.7753 59.1131 77.1858C59.1131 77.5964 59.4878 77.9027 59.1901 78.1893C58.8834 78.4842 58.5851 77.7915 58.1579 77.7915C57.7306 77.7915 57.7299 77.7343 57.302 77.7343C56.8741 77.7343 56.5752 78.4861 56.2672 78.1925C55.9702 77.9091 56.4757 77.6002 56.4757 77.1915C56.4757 76.7829 56.7381 76.7829 56.7381 76.3742C56.7381 75.9656 56.4924 75.9649 56.4924 75.5556C56.4924 75.1464 56.1453 75.147 56.1453 74.7383C56.1453 74.3297 56.2756 74.329 56.2756 73.9198C56.2756 73.5105 56.2377 73.5105 56.2377 73.1018C56.2377 72.6932 56.6746 72.6925 56.6746 72.2832C56.6746 71.8739 56.2762 71.8752 56.2762 71.4666C56.2762 71.0579 56.5008 71.0585 56.5008 70.6499C56.5008 70.2412 56.3307 70.24 56.3307 69.8307C56.3307 69.4214 56.5123 69.422 56.5123 69.0127C56.5123 68.6034 56.3551 68.6034 56.3551 68.1935C56.3551 67.7836 56.6663 67.7836 56.6663 67.3737C56.6663 66.9637 56.1287 66.9644 56.1287 66.5551C56.1287 66.1458 56.402 66.1445 56.402 65.7346C56.402 65.3247 56.2307 65.3234 56.2307 64.9128C56.2307 64.5023 56.1588 64.3898 56.4565 64.1038C56.7631 63.8089 56.8709 64.398 57.2982 64.398C57.7255 64.398 57.7896 64.4349 58.2085 64.3472C58.6538 64.2544 58.7006 63.7981 59.0085 64.0923L59.0117 64.0917Z" fill="#FFCE47"/>
<path d="M65.5235 87.7072C65.8276 87.4079 66.0758 87.528 66.5044 87.528C66.9329 87.528 66.9323 87.8007 67.3596 87.8007C67.7868 87.8007 67.7881 87.5852 68.216 87.5852C68.6439 87.5852 68.6446 88.1134 69.0738 88.1134C69.5029 88.1134 69.5017 88.142 69.9302 88.142C70.3588 88.142 70.3594 87.6469 70.7886 87.6469C71.2178 87.6469 71.2184 87.7358 71.6483 87.7358C72.0781 87.7358 72.209 87.5248 72.515 87.8242C72.8171 88.1191 72.3693 88.2513 72.3693 88.6714C72.3693 89.0915 72.771 89.0915 72.771 89.5109C72.771 89.9304 72.2237 89.931 72.2237 90.3511C72.2237 90.7712 72.3924 90.7699 72.3924 91.1894C72.3924 91.6088 72.4611 91.6082 72.4611 92.0277C72.4611 92.4471 72.778 92.4484 72.778 92.8685C72.778 93.2886 72.7677 93.2886 72.7677 93.708C72.7677 94.1275 72.7228 94.1281 72.7228 94.5489C72.7228 94.9696 72.5137 94.9696 72.5137 95.3903C72.5137 95.8111 72.4053 95.8104 72.4053 96.2312C72.4053 96.6519 72.3559 96.6525 72.3559 97.0739C72.3559 97.4952 72.6587 97.4959 72.6587 97.9179C72.6587 98.3399 72.9416 98.5967 72.6394 98.8941C72.3353 99.1934 72.0787 98.6945 71.6502 98.6945C71.2216 98.6945 71.2223 98.4727 70.795 98.4727C70.3677 98.4727 70.3665 98.8559 69.9385 98.8559C69.5106 98.8559 69.51 98.7263 69.0808 98.7263C68.6516 98.7263 68.6529 98.4517 68.2243 98.4517C67.7958 98.4517 67.7952 98.7644 67.366 98.7644C66.9368 98.7644 66.9361 98.7593 66.5063 98.7593C66.0765 98.7593 66.0566 98.9564 65.7506 98.657C65.4484 98.3621 65.9251 98.3418 65.9251 97.9217C65.9251 97.5016 65.3599 97.5016 65.3599 97.0821C65.3599 96.6627 65.8378 96.6621 65.8378 96.242C65.8378 95.8219 65.3522 95.8231 65.3522 95.4037C65.3522 94.9842 65.5215 94.9849 65.5215 94.5654C65.5215 94.1459 65.7012 94.1447 65.7012 93.7246C65.7012 93.3045 65.3964 93.3045 65.3964 92.885C65.3964 92.4656 65.3798 92.4649 65.3798 92.0442C65.3798 91.6235 65.8539 91.6235 65.8539 91.2027C65.8539 90.782 65.551 90.7826 65.551 90.3619C65.551 89.9412 65.8 89.9405 65.8 89.5192C65.8 89.0978 65.9661 89.0254 65.8513 88.6186C65.7102 88.1165 65.2213 88.0047 65.5235 87.7072Z" fill="#0D3EC7"/>
<path d="M96.7749 66.789C96.6645 67.1919 96.6979 67.2008 96.5875 67.6044C96.4772 68.0079 96.2238 67.9399 96.1134 68.3429C96.0031 68.7458 95.9049 68.7204 95.794 69.1246C95.683 69.5288 95.715 69.5377 95.6041 69.9419C95.4931 70.3461 95.6079 70.3766 95.4976 70.7802C95.3872 71.1837 95.6252 71.2479 95.5149 71.6515C95.4045 72.0551 95.155 71.9883 95.0446 72.3919C94.9343 72.7955 95.3192 72.8997 95.2082 73.3045C95.0972 73.7094 94.7938 73.6274 94.6835 74.0316C94.5731 74.4358 94.6642 74.46 94.5539 74.8642C94.4435 75.2684 94.1984 75.2029 94.0875 75.6071C93.9765 76.0113 94.328 76.106 94.217 76.5109C94.1061 76.9157 94.0252 76.8935 93.9142 77.2977C93.8033 77.7019 93.4806 77.6154 93.3696 78.0203C93.2586 78.4251 93.4389 78.4715 93.3285 78.8745C93.2182 79.2774 93.4818 79.3505 93.3709 79.7553C93.2599 80.1602 93.1373 80.1265 93.0263 80.53C92.9154 80.9336 92.5818 80.8446 92.4714 81.2482C92.3611 81.6518 92.6331 81.7268 92.5221 82.1323C92.4111 82.5377 92.2109 82.4831 92.1 82.8879C91.989 83.2928 92.1532 83.3372 92.0422 83.7421C91.9312 84.1469 91.7061 84.0872 91.5951 84.4927C91.4841 84.8981 91.962 85.0259 91.8511 85.4314C91.7401 85.8368 91.7035 85.8273 91.5925 86.2328C91.4815 86.6383 91.5046 86.6459 91.393 87.0526C91.2814 87.4594 91.3122 87.4676 91.2005 87.8744C91.1158 88.1814 90.8605 88.4972 90.6623 88.7286C90.4595 88.965 90.2158 89.3298 89.9322 89.4607C89.6544 89.5885 89.2169 89.4823 88.8961 89.4823C88.4733 89.4823 88.4733 89.3323 88.0506 89.3323C87.6278 89.3323 87.6278 89.6062 87.2044 89.6062C86.781 89.6062 86.781 89.3374 86.3575 89.3374C85.9341 89.3374 85.9341 89.2758 85.5113 89.2758C85.0886 89.2758 85.0886 89.4118 84.6658 89.4118C84.243 89.4118 84.243 89.6984 83.8202 89.6984C83.3975 89.6984 83.3975 89.338 82.9747 89.338C82.5519 89.338 82.5519 89.5224 82.1291 89.5224C81.7064 89.5224 81.7064 89.3711 81.2829 89.3711C80.8595 89.3711 80.8595 89.1423 80.4368 89.1423C80.014 89.1423 80.0133 89.2936 79.5899 89.2936C79.1665 89.2936 79.1671 89.3819 78.7437 89.3819C78.3203 89.3819 78.3216 89.2834 77.8995 89.2834C77.4773 89.2834 77.478 89.6164 77.0558 89.6164C76.6337 89.6164 76.6343 89.2961 76.2128 89.2961C75.7914 89.2961 75.7914 89.5497 75.3699 89.5497C74.9484 89.5497 74.9484 89.5999 74.5269 89.5999C74.1054 89.5999 74.1047 89.197 73.6833 89.197C73.2618 89.197 73.2611 89.6717 72.8383 89.6717C72.4156 89.6717 72.4156 89.3717 71.9921 89.3717C71.5687 89.3717 71.5681 89.1861 71.1447 89.1861C70.7213 89.1861 70.7213 89.6221 70.2985 89.6221C69.8757 89.6221 69.8757 89.5116 69.4529 89.5116C69.0302 89.5116 69.0308 89.605 68.608 89.605C68.1852 89.605 68.1852 89.4474 67.7631 89.4474C67.341 89.4474 67.3403 89.6234 66.9176 89.6234C66.4948 89.6234 66.4941 89.4702 66.0707 89.4702C65.6473 89.4702 65.6467 89.0775 65.2226 89.0775C64.7986 89.0775 64.7992 89.2357 64.3758 89.2357C63.9524 89.2357 63.953 89.6107 63.5296 89.6107C63.1062 89.6107 63.1062 89.413 62.6834 89.413C62.2606 89.413 62.2593 89.2592 61.8353 89.2592C61.4112 89.2592 61.4112 89.2319 60.9878 89.2319C60.5644 89.2319 60.5644 89.4575 60.141 89.4575C59.7175 89.4575 59.7169 89.5808 59.2935 89.5808C58.8701 89.5808 58.8694 89.277 58.4447 89.277C58.02 89.277 58.0207 89.2052 57.5973 89.2052C57.1738 89.2052 57.1732 89.4099 56.7485 89.4099C56.3238 89.4099 56.3244 89.6545 55.9004 89.6545C55.4763 89.6545 55.4763 89.1925 55.0523 89.1925C54.6282 89.1925 54.6288 89.2268 54.2061 89.2268C53.7833 89.2268 53.7827 89.2268 53.3592 89.2268C52.9358 89.2268 52.9345 89.3209 52.5098 89.3209C52.0851 89.3209 52.0858 89.1728 51.6617 89.1728C51.2377 89.1728 51.237 89.6882 50.813 89.6882C50.3889 89.6882 50.3883 89.2141 49.9629 89.2141C49.5376 89.2141 49.5382 89.1601 49.1142 89.1601C48.6901 89.1601 48.6888 89.6577 48.2635 89.6577C47.8381 89.6577 47.8375 89.1099 47.4115 89.1099C46.9855 89.1099 46.9855 89.5217 46.5595 89.5217C46.285 89.5217 46.131 89.0616 45.893 88.9707C45.6434 88.8754 45.1161 89.2224 44.923 89.0489C44.7279 88.8735 44.914 88.3733 44.7947 88.14C44.6766 87.91 44.3584 87.7435 44.3315 87.4797C44.3058 87.2287 44.2282 86.9077 44.3007 86.6452C44.4091 86.2506 44.3077 86.2239 44.4155 85.8292C44.5233 85.4345 45.093 85.589 45.2008 85.1949C45.3085 84.8009 44.7703 84.6566 44.8781 84.2632C44.9858 83.8698 45.0186 83.8768 45.127 83.4821C45.2354 83.0875 45.7153 83.2171 45.8231 82.8224C45.9308 82.4278 45.6742 82.3585 45.782 81.9638C45.8898 81.5692 45.6999 81.5177 45.8083 81.1224C45.9167 80.7271 46.1951 80.8027 46.3029 80.408C46.4107 80.0133 46.2202 79.9612 46.3286 79.5659C46.437 79.1706 46.3889 79.1566 46.498 78.7601C46.607 78.3635 46.6141 78.3654 46.7225 77.9694C46.8354 77.5582 46.7167 77.5265 46.8296 77.1146C46.9425 76.7028 47.3076 76.8019 47.4205 76.3908C47.5334 75.9796 47.2223 75.8957 47.3345 75.4845C47.4468 75.0733 47.8484 75.1813 47.9613 74.7701C48.0742 74.3589 47.9312 74.3202 48.0434 73.909C48.1557 73.4978 48.2385 73.5206 48.3507 73.1101C48.463 72.6995 48.0293 72.5832 48.1416 72.1726C48.2539 71.7621 48.7587 71.8962 48.8717 71.4844C48.9846 71.0725 48.9236 71.0573 49.0365 70.6461C49.1494 70.2349 49.0795 70.2158 49.1924 69.804C49.3053 69.3921 49.4394 69.4277 49.5523 69.0159C49.6652 68.6041 49.2566 68.4948 49.3695 68.0829C49.4824 67.6711 49.6415 67.713 49.7544 67.3006C49.8673 66.8881 50.1939 66.9752 50.3068 66.5621C50.4197 66.149 50.1477 66.0759 50.2612 65.6628C50.3459 65.3558 50.4389 65.0393 50.6372 64.808C50.8399 64.5715 51.1126 64.3669 51.3961 64.2366C51.6739 64.1089 52.0062 64.0993 52.327 64.0993C52.7498 64.0993 52.7498 64.2544 53.1725 64.2544C53.5953 64.2544 53.5953 63.976 54.0187 63.976C54.4422 63.976 54.4422 63.8534 54.8656 63.8534C55.289 63.8534 55.289 64.18 55.7118 64.18C56.1345 64.18 56.1345 64.3396 56.5573 64.3396C56.9801 64.3396 56.9801 64.3447 57.4029 64.3447C57.8256 64.3447 57.8256 64.0663 58.2484 64.0663C58.6712 64.0663 58.6712 64.2436 59.094 64.2436C59.5167 64.2436 59.5167 64.2614 59.9402 64.2614C60.3636 64.2614 60.3636 64.365 60.7864 64.365C61.2091 64.365 61.2098 63.7809 61.6332 63.7809C62.0566 63.7809 62.056 64.2767 62.4794 64.2767C62.9028 64.2767 62.9015 63.8966 63.3236 63.8966C63.7458 63.8966 63.7451 64.3771 64.1673 64.3771C64.5894 64.3771 64.5888 63.9989 65.0103 63.9989C65.4318 63.9989 65.4318 64.0377 65.8532 64.0377C66.2747 64.0377 66.2747 63.8286 66.6962 63.8286C67.1177 63.8286 67.1184 64.2658 67.5399 64.2658C67.9614 64.2658 67.962 63.8407 68.3848 63.8407C68.8075 63.8407 68.8075 64.044 69.231 64.044C69.6544 64.044 69.655 64.351 70.0784 64.351C70.5019 64.351 70.5018 63.9843 70.9246 63.9843C71.3474 63.9843 71.3474 63.8534 71.7702 63.8534C72.193 63.8534 72.1923 64.0002 72.6151 64.0002C73.0379 64.0002 73.0379 64.0803 73.46 64.0803C73.8821 64.0803 73.8828 63.7733 74.3055 63.7733C74.7283 63.7733 74.729 64.236 75.1524 64.236C75.5758 64.236 75.5764 64.3656 76.0005 64.3656C76.4246 64.3656 76.4239 64.276 76.8473 64.276C77.2707 64.276 77.2701 63.8902 77.6935 63.8902C78.1169 63.8902 78.1169 63.9017 78.5397 63.9017C78.9625 63.9017 78.9638 64.3561 79.3878 64.3561C79.8119 64.3561 79.8119 64.2957 80.2353 64.2957C80.6587 64.2957 80.6587 63.9843 81.0821 63.9843C81.5056 63.9843 81.5062 64.107 81.9296 64.107C82.353 64.107 82.3537 64.0053 82.7784 64.0053C83.2031 64.0053 83.2024 63.8394 83.6259 63.8394C84.0493 63.8394 84.0499 63.861 84.4746 63.861C84.8993 63.861 84.8987 64.1546 85.3227 64.1546C85.7468 64.1546 85.7468 64.2163 86.1708 64.2163C86.5949 64.2163 86.5943 64.3949 87.017 64.3949C87.4398 64.3949 87.4405 63.8502 87.8639 63.8502C88.2873 63.8502 88.2886 64.3116 88.7133 64.3116C89.138 64.3116 89.1373 64.1489 89.5614 64.1489C89.9855 64.1489 89.9861 63.9163 90.4102 63.9163C90.8342 63.9163 90.8348 63.9729 91.2602 63.9729C91.6855 63.9729 91.6849 64.0955 92.1089 64.0955C92.533 64.0955 92.5343 63.8667 92.9596 63.8667C93.385 63.8667 93.3856 63.8591 93.8116 63.8591C94.2376 63.8591 94.2376 63.9532 94.6636 63.9532C94.9381 63.9532 95.1948 64.1464 95.4328 64.2372C95.6823 64.3326 95.9896 64.3783 96.1821 64.5518C96.3771 64.7273 96.3899 65.0584 96.5093 65.291C96.6273 65.521 96.9705 65.7181 96.9975 65.9818C97.0231 66.2329 96.8467 66.5246 96.7749 66.7871V66.789Z" fill="#99C9FF"/>
<path d="M60.891 75.7177C60.4887 75.7177 60.4887 75.6897 60.0865 75.6897C59.6842 75.6897 59.6842 76.0018 59.282 76.0018C58.8798 76.0018 58.8785 75.6281 58.4749 75.6281C58.0714 75.6281 58.0721 76.1149 57.6692 76.1149C57.2663 76.1149 57.2656 75.8588 56.8621 75.8588C56.4586 75.8588 56.4579 76.1168 56.0544 76.1168C55.6509 76.1168 55.6509 75.8747 55.2473 75.8747C54.8438 75.8747 54.8432 75.5938 54.439 75.5938C54.0348 75.5938 54.0336 75.9764 53.6287 75.9764C53.2239 75.9764 53.2233 75.7991 52.8185 75.7991C52.5439 75.7991 52.3771 75.5436 52.1391 75.4527C51.8889 75.3574 51.7522 75.2595 51.5591 75.086C51.3635 74.9106 50.8348 74.9926 50.7155 74.7599C50.5975 74.5299 50.4031 74.2146 50.3761 73.9509C50.3505 73.6992 50.7283 73.4228 50.8008 73.1603C50.9176 72.7338 50.7617 72.6919 50.8785 72.2648C50.9952 71.8377 51.3981 71.9458 51.5155 71.5187C51.6329 71.0916 51.323 71.009 51.4404 70.5825C51.5578 70.1561 51.2659 70.0766 51.3833 69.6489C51.5007 69.2212 51.9383 69.3381 52.0557 68.9104C52.1731 68.4827 52.1115 68.4655 52.2289 68.0372C52.3129 67.7302 52.517 67.544 52.7145 67.3126C52.9166 67.0756 53.0437 66.7909 53.3272 66.6599C53.605 66.5322 53.9046 66.5074 54.2254 66.5074C54.6276 66.5074 54.6276 66.4833 55.0299 66.4833C55.4321 66.4833 55.4321 66.2564 55.8344 66.2564C56.2366 66.2564 56.2379 66.5722 56.6414 66.5722C57.0449 66.5722 57.0443 66.1979 57.4472 66.1979C57.8501 66.1979 57.8507 66.4419 58.2542 66.4419C58.6578 66.4419 58.6584 66.489 59.0619 66.489C59.4655 66.489 59.4655 66.285 59.869 66.285C60.2725 66.285 60.2732 66.3479 60.6773 66.3479C61.0815 66.3479 61.0828 66.5557 61.4876 66.5557C61.8924 66.5557 61.8931 66.3441 62.2979 66.3441C62.5725 66.3441 62.8015 66.5722 63.0395 66.6631C63.2897 66.7584 63.7369 66.6097 63.93 66.7832C64.1256 66.9586 63.9049 67.4734 64.0249 67.7067C64.143 67.9367 64.1853 68.1153 64.2122 68.3791C64.2379 68.6308 64.7114 68.9403 64.6389 69.2034C64.5221 69.6298 64.4817 69.619 64.3649 70.0461C64.2482 70.4732 64.1943 70.4586 64.0769 70.8857C63.9595 71.3128 63.8138 71.2727 63.6971 71.6992C63.5803 72.1256 63.7362 72.1688 63.6195 72.5966C63.5027 73.0243 63.1601 72.9328 63.0427 73.3611C62.9253 73.7895 62.958 73.7984 62.8413 74.2261C62.7572 74.5331 62.831 74.9239 62.634 75.1559C62.432 75.3929 62.1856 75.7196 61.9014 75.8505C61.6236 75.9783 61.2143 75.7158 60.8929 75.7158L60.891 75.7177Z" fill="#0D3EC7"/>
<path d="M75.4802 76.0158C75.078 76.0158 75.078 75.5429 74.6758 75.5429C74.2735 75.5429 74.2735 75.9935 73.8713 75.9935C73.469 75.9935 73.4677 75.8226 73.0642 75.8226C72.6607 75.8226 72.6613 75.6491 72.2584 75.6491C71.8555 75.6491 71.8549 75.6027 71.4514 75.6027C71.0478 75.6027 71.0472 75.5753 70.6437 75.5753C70.2401 75.5753 70.2401 75.8505 69.8366 75.8505C69.4331 75.8505 69.4324 75.6675 69.0283 75.6675C68.6241 75.6675 68.6228 76.0285 68.218 76.0285C67.8132 76.0285 67.8126 75.9789 67.4077 75.9789C67.1332 75.9789 66.7829 76.0183 66.5449 75.9274C66.2947 75.8321 66.3402 75.262 66.1471 75.0892C65.9514 74.9137 65.8456 74.7822 65.7256 74.5489C65.6076 74.3189 65.4273 74.1721 65.3997 73.9083C65.3741 73.6566 64.9744 73.3319 65.0462 73.0694C65.163 72.6429 65.6281 72.7675 65.7449 72.3411C65.8616 71.9146 65.6525 71.8574 65.7692 71.4303C65.886 71.0032 66.2074 71.0903 66.3242 70.6639C66.4409 70.2374 66.235 70.1809 66.3518 69.7531C66.4685 69.3254 66.5564 69.3483 66.6738 68.9199C66.7912 68.4916 66.8875 68.5176 67.0049 68.0893C67.0889 67.7823 66.7367 67.2383 66.9343 67.0063C67.1364 66.7693 67.64 66.8106 67.9235 66.6796C68.2013 66.5519 68.4919 66.4826 68.8134 66.4826C69.2156 66.4826 69.2156 66.7534 69.6178 66.7534C70.0201 66.7534 70.0201 66.36 70.4223 66.36C70.8246 66.36 70.8259 66.4267 71.2294 66.4267C71.6329 66.4267 71.6323 66.5169 72.0352 66.5169C72.4381 66.5169 72.4387 66.2062 72.8422 66.2062C73.2458 66.2062 73.2464 66.4216 73.6499 66.4216C74.0535 66.4216 74.0535 66.4782 74.457 66.4782C74.8605 66.4782 74.8612 66.2449 75.2653 66.2449C75.6695 66.2449 75.6708 66.2182 76.0756 66.2182C76.4804 66.2182 76.481 66.3485 76.8859 66.3485C77.1604 66.3485 77.4992 66.2913 77.7378 66.3822C77.988 66.4775 78.1035 66.8551 78.2966 67.0279C78.4923 67.2033 78.6719 67.3857 78.7919 67.6183C78.9099 67.8484 79.2949 68.0645 79.3224 68.3282C79.3481 68.5799 79.2044 68.9168 79.1325 69.1792C79.0158 69.6057 79.1191 69.6337 79.0017 70.0601C78.8843 70.4865 78.7329 70.4465 78.6155 70.8736C78.4981 71.3007 78.1805 71.2149 78.0637 71.6413C77.947 72.0678 78.0111 72.0862 77.8937 72.5139C77.7763 72.9417 78.0201 73.0077 77.9027 73.4361C77.7853 73.8645 77.7462 73.8537 77.6288 74.282C77.5447 74.589 77.0796 74.643 76.882 74.875C76.6799 75.112 76.5991 75.3535 76.3155 75.4845C76.0377 75.6122 75.801 76.0158 75.4802 76.0158Z" fill="#0D3EC7"/>
<path d="M90.0701 75.9478C89.6679 75.9478 89.6679 75.651 89.2656 75.651C88.8634 75.651 88.8634 75.6548 88.4611 75.6548C88.0589 75.6548 88.0576 75.8925 87.6541 75.8925C87.2506 75.8925 87.2512 75.9484 86.8483 75.9484C86.4454 75.9484 86.4448 76.0425 86.0412 76.0425C85.6377 76.0425 85.6371 76.0533 85.2335 76.0533C84.83 76.0533 84.83 75.5741 84.4265 75.5741C84.023 75.5741 84.0223 75.576 83.6181 75.576C83.214 75.576 83.2127 75.9713 82.8079 75.9713C82.4031 75.9713 82.4024 75.9179 81.9976 75.9179C81.723 75.9179 81.528 75.6167 81.29 75.5264C81.0398 75.4311 80.6196 75.6014 80.4265 75.4279C80.2308 75.2525 80.3418 74.8286 80.2225 74.596C80.1044 74.3659 79.7497 74.1994 79.7227 73.9356C79.697 73.684 79.876 73.4158 79.9485 73.1533C80.0653 72.7268 79.7432 72.6398 79.8606 72.2133C79.978 71.7869 79.9813 71.7875 80.0987 71.3604C80.2161 70.9333 80.3091 70.9594 80.4265 70.5323C80.5439 70.1052 80.7351 70.1561 80.8518 69.729C80.9686 69.3019 81.0327 69.3178 81.1501 68.8894C81.2675 68.4611 80.959 68.3785 81.0764 67.9501C81.1604 67.6431 81.6903 67.5421 81.8879 67.3101C82.09 67.073 82.2594 66.8722 82.5429 66.7413C82.8207 66.6135 83.0831 66.3492 83.4045 66.3492C83.8068 66.3492 83.8068 66.1839 84.209 66.1839C84.6113 66.1839 84.6113 66.5475 85.0135 66.5475C85.4157 66.5475 85.417 66.3415 85.8206 66.3415C86.2241 66.3415 86.2234 66.6231 86.6263 66.6231C87.0292 66.6231 87.0299 66.7057 87.4334 66.7057C87.8369 66.7057 87.8376 66.6466 88.2411 66.6466C88.6446 66.6466 88.6446 66.5424 89.0482 66.5424C89.4517 66.5424 89.4523 66.4972 89.8565 66.4972C90.2607 66.4972 90.2619 66.2526 90.6668 66.2526C91.0716 66.2526 91.0722 66.7476 91.477 66.7476C91.7516 66.7476 91.9351 66.6943 92.1731 66.7845C92.4233 66.8798 92.515 67.0514 92.7081 67.2249C92.9038 67.4003 93.1649 67.4366 93.2842 67.6692C93.4023 67.8993 93.3798 68.1166 93.4074 68.3804C93.4331 68.632 93.6416 68.8767 93.5697 69.1392C93.453 69.5656 93.3522 69.539 93.2348 69.9654C93.1174 70.3919 93.2252 70.4217 93.1085 70.8488C92.9917 71.2759 92.703 71.1977 92.5862 71.6242C92.4695 72.0506 92.8916 72.1657 92.7749 72.5927C92.6581 73.0198 92.3283 72.9321 92.2109 73.3605C92.0935 73.7888 92.0287 73.771 91.9113 74.1994C91.8273 74.5064 91.7093 74.6748 91.5117 74.9068C91.3096 75.1438 91.2024 75.3777 90.9182 75.5086C90.6405 75.6364 90.3928 75.9484 90.0714 75.9484L90.0701 75.9478Z" fill="#0D3EC7"/>
<path d="M57.8217 87.3253C57.4195 87.3253 57.4195 86.9554 57.0172 86.9554C56.615 86.9554 56.615 87.0215 56.2127 87.0215C55.8105 87.0215 55.8092 86.8067 55.4057 86.8067C55.0022 86.8067 55.0028 86.7457 54.5999 86.7457C54.197 86.7457 54.1964 86.8505 53.7929 86.8505C53.3893 86.8505 53.3887 86.7876 52.9852 86.7876C52.5816 86.7876 52.5816 87.3482 52.1781 87.3482C51.7746 87.3482 51.7739 87.1086 51.3698 87.1086C50.9656 87.1086 50.9643 86.97 50.5595 86.97C50.1547 86.97 50.154 87.3354 49.7492 87.3354C49.4746 87.3354 49.1423 87.1664 48.9043 87.0755C48.6541 86.9802 48.7016 86.4355 48.5085 86.262C48.3128 86.0866 47.9016 86.1203 47.7823 85.8877C47.6642 85.6576 47.695 85.3748 47.6681 85.111C47.6424 84.8594 47.7932 84.6554 47.865 84.3929C47.9818 83.9664 47.8637 83.9347 47.9811 83.5076C48.0985 83.0805 48.0389 83.0646 48.1556 82.6375C48.2724 82.2104 47.9606 82.1272 48.078 81.7007C48.1954 81.2743 48.5367 81.3652 48.6541 80.9374C48.7715 80.5097 48.5688 80.4551 48.6862 80.0267C48.8036 79.5983 49.1212 79.6841 49.2386 79.2558C49.3226 78.9488 49.1988 78.5338 49.3964 78.3018C49.5985 78.0648 49.9205 77.8747 50.2047 77.7438C50.4825 77.6161 50.8347 77.6517 51.1561 77.6517C51.5584 77.6517 51.5584 77.644 51.9606 77.644C52.3629 77.644 52.3629 77.9053 52.7651 77.9053C53.1674 77.9053 53.1686 77.8728 53.5722 77.8728C53.9757 77.8728 53.9751 77.6491 54.3779 77.6491C54.7808 77.6491 54.7815 77.3256 55.185 77.3256C55.5885 77.3256 55.5892 77.3695 55.9927 77.3695C56.3962 77.3695 56.3962 77.4286 56.7998 77.4286C57.2033 77.4286 57.2039 77.6637 57.6081 77.6637C58.0123 77.6637 58.0136 77.5805 58.4184 77.5805C58.8232 77.5805 58.8238 77.4566 59.2286 77.4566C59.5032 77.4566 59.7265 77.7851 59.9645 77.876C60.2147 77.9713 60.6869 77.7864 60.88 77.9599C61.0756 78.1353 60.9659 78.6056 61.0859 78.8382C61.2039 79.0683 61.3015 79.2939 61.3284 79.5577C61.3541 79.8093 61.127 79.9994 61.0551 80.2618C60.9383 80.6883 61.014 80.7086 60.8973 81.1357C60.7805 81.5628 61.082 81.6442 60.9646 82.0712C60.8472 82.4983 60.9358 82.5212 60.8184 82.9477C60.701 83.3741 60.7536 83.3894 60.6362 83.8171C60.5188 84.2448 60.1826 84.1546 60.0652 84.5829C59.9478 85.0113 60.2282 85.0863 60.1108 85.5146C60.0267 85.8216 59.9035 86.2398 59.7059 86.4717C59.5039 86.7088 58.9047 86.4679 58.6205 86.5989C58.3427 86.7266 58.1438 87.324 57.823 87.324L57.8217 87.3253Z" fill="#0D3EC7"/>
<path d="M72.4118 87.3443C72.0095 87.3443 72.0095 86.7711 71.6073 86.7711C71.205 86.7711 71.205 86.8906 70.8028 86.8906C70.4005 86.8906 70.3993 86.9884 69.9957 86.9884C69.5922 86.9884 69.5928 86.7507 69.1899 86.7507C68.7871 86.7507 68.7864 86.9478 68.3829 86.9478C67.9794 86.9478 67.9787 86.794 67.5752 86.794C67.1717 86.794 67.1717 86.9745 66.7681 86.9745C66.3646 86.9745 66.364 87.3164 65.9598 87.3164C65.5556 87.3164 65.5543 86.9179 65.1495 86.9179C64.7447 86.9179 64.7441 86.9103 64.3393 86.9103C64.0647 86.9103 63.8889 86.7635 63.6502 86.6732C63.4 86.5779 63.1197 86.623 62.9266 86.4495C62.7309 86.2741 62.5955 86.0682 62.4756 85.8356C62.3575 85.6055 62.4281 85.3608 62.4012 85.0964C62.3755 84.8448 61.9142 84.5295 61.9867 84.267C62.1035 83.8406 62.1593 83.8552 62.2761 83.4288C62.3928 83.0023 62.7142 83.0881 62.8316 82.661C62.949 82.2339 62.7572 82.1831 62.8746 81.7566C62.992 81.3302 62.8361 81.287 62.9529 80.8599C63.0696 80.4328 63.0895 80.4373 63.2069 80.0089C63.3243 79.5805 63.8395 79.7191 63.9569 79.2907C64.0409 78.9838 64.0865 78.7836 64.2841 78.5516C64.4862 78.3145 64.5548 77.9713 64.839 77.8404C65.1168 77.7127 65.4241 77.8315 65.7455 77.8315C66.1478 77.8315 66.1478 77.4801 66.55 77.4801C66.9523 77.4801 66.9523 77.7235 67.3545 77.7235C67.7567 77.7235 67.758 77.8328 68.1616 77.8328C68.5651 77.8328 68.5644 77.4775 68.9673 77.4775C69.3702 77.4775 69.3709 77.5805 69.7744 77.5805C70.1779 77.5805 70.1786 77.6002 70.5821 77.6002C70.9856 77.6002 70.9856 77.3867 71.3892 77.3867C71.7927 77.3867 71.7933 77.5862 72.1975 77.5862C72.6017 77.5862 72.6029 77.4191 73.0078 77.4191C73.4126 77.4191 73.4132 77.5729 73.818 77.5729C74.0926 77.5729 74.2973 77.8334 74.5353 77.9237C74.7855 78.019 75.2538 77.8106 75.4469 77.9841C75.6426 78.1595 75.4456 78.6609 75.5649 78.8942C75.683 79.1242 76.2379 79.2596 76.2649 79.5233C76.2905 79.775 75.6997 79.9962 75.6278 80.2587C75.511 80.6851 75.4944 80.6807 75.3776 81.1078C75.2608 81.5348 75.4552 81.587 75.3378 82.014C75.2204 82.4411 75.069 82.3998 74.9523 82.8263C74.8355 83.2527 75.0812 83.3201 74.9645 83.7478C74.8477 84.1755 75.0273 84.2245 74.9099 84.6528C74.7925 85.0812 74.3672 84.9668 74.2498 85.3951C74.1657 85.7021 74.3242 86.1012 74.1266 86.3332C73.9245 86.5703 73.6095 86.7183 73.326 86.8493C73.0482 86.977 72.7332 87.3456 72.4118 87.3456V87.3443Z" fill="#0D3EC7"/>
<path d="M87.001 87.1136C86.5987 87.1136 86.5987 86.9961 86.1965 86.9961C85.7942 86.9961 85.7943 87.2516 85.392 87.2516C84.9898 87.2516 84.9885 86.7139 84.5849 86.7139C84.1814 86.7139 84.1821 87.0984 83.7792 87.0984C83.3763 87.0984 83.3756 87.0011 82.9721 87.0011C82.5686 87.0011 82.5679 87.0494 82.1644 87.0494C81.7609 87.0494 81.7609 87.0558 81.3574 87.0558C80.9538 87.0558 80.9532 87.0475 80.549 87.0475C80.1448 87.0475 80.1436 86.7444 79.7387 86.7444C79.3339 86.7444 79.3333 87.3475 78.9285 87.3475C78.6539 87.3475 78.2869 87.2566 78.0483 87.1664C77.7981 87.0711 77.6262 86.7139 77.4331 86.5404C77.2374 86.365 77.0321 86.1457 76.9121 85.9125C76.7941 85.6824 76.7652 85.3862 76.7383 85.1218C76.7126 84.8702 76.7068 84.5842 76.7787 84.3217C76.8954 83.8952 76.678 83.8368 76.7947 83.4097C76.9115 82.9826 77.1976 83.0595 77.315 82.6324C77.4324 82.2053 77.6865 82.2746 77.8032 81.8482C77.92 81.4217 77.9258 81.4223 78.0432 80.9946C78.1606 80.5669 78.1362 80.5599 78.2536 80.1316C78.371 79.7032 78.1683 79.6485 78.2857 79.2208C78.3697 78.9139 78.6738 78.7829 78.8714 78.551C79.0735 78.3139 79.2602 78.2198 79.5437 78.0889C79.8215 77.9612 80.012 77.9453 80.3335 77.9453C80.7357 77.9453 80.7357 77.3676 81.1379 77.3676C81.5402 77.3676 81.5402 77.8519 81.9424 77.8519C82.3447 77.8519 82.346 77.5976 82.7495 77.5976C83.153 77.5976 83.1524 77.8258 83.5553 77.8258C83.9582 77.8258 83.9588 77.529 84.3623 77.529C84.7659 77.529 84.7665 77.7915 85.17 77.7915C85.5736 77.7915 85.5736 77.4648 85.9771 77.4648C86.3806 77.4648 86.3813 77.8442 86.7854 77.8442C87.1896 77.8442 87.1909 77.958 87.5957 77.958C88.0005 77.958 88.0012 77.3771 88.406 77.3771C88.6805 77.3771 88.9038 77.787 89.1425 77.8773C89.3927 77.9726 89.8097 77.8487 90.0028 78.0222C90.1984 78.1976 90.2286 78.5649 90.3485 78.7975C90.4666 79.0276 90.6552 79.278 90.6822 79.5418C90.7078 79.7935 90.4531 80.0413 90.3813 80.3038C90.2645 80.7302 90.6437 80.8326 90.5269 81.259C90.4101 81.6855 89.8404 81.5329 89.7237 81.96C89.6069 82.3871 89.9341 82.4748 89.8174 82.9013C89.7006 83.3277 89.8257 83.3627 89.7089 83.7904C89.5922 84.2181 89.3137 84.1437 89.197 84.5721C89.0802 85.0005 88.9943 84.9776 88.8769 85.4053C88.7928 85.7123 89.077 86.2379 88.8794 86.4698C88.6773 86.7069 88.2635 86.8556 87.98 86.9865C87.7022 87.1143 87.3224 87.1149 87.001 87.1149V87.1136Z" fill="#0D3EC7"/>
</g>
<defs>
<clipPath id="clip0_2973_8886">
<rect width="91" height="95" fill="white" transform="translate(6 4)"/>
</clipPath>
</defs>
</svg>
