<svg width="104" height="104" viewBox="0 0 104 104" fill="none" xmlns="http://www.w3.org/2000/svg">
<g clip-path="url(#clip0_2973_8921)">
<path d="M93.4413 29.9564C93.1909 29.8419 92.9637 29.6649 92.7027 29.5337C92.4556 29.4099 92.1072 29.4638 91.8521 29.324C91.6084 29.1909 91.4395 28.9107 91.1897 28.7622C90.9506 28.6198 90.7313 28.4374 90.4876 28.281C90.2531 28.1298 89.9669 28.0493 89.7291 27.8836C89.4992 27.7238 89.2641 27.5627 89.0329 27.389C88.8083 27.2206 88.6003 27.0242 88.3751 26.8425C88.1565 26.6661 87.8577 26.5775 87.6391 26.3885C87.4265 26.2041 87.4027 25.8034 87.1907 25.607C86.9847 25.4153 86.5779 25.4306 86.3732 25.2262C86.1739 25.0279 86.042 24.7543 85.8446 24.5433C85.6519 24.3376 85.5015 24.09 85.3114 23.8723C85.1259 23.66 84.8324 23.5335 84.6496 23.3092C84.4714 23.0902 84.4429 22.7473 84.2674 22.517C84.0965 22.2927 83.9773 22.0304 83.8097 21.7948C83.6461 21.5638 83.3625 21.4154 83.2029 21.1737C83.0466 20.9374 82.769 20.773 82.6173 20.5267C82.4623 20.2758 82.3914 19.9709 82.2464 19.7153C82.1013 19.4597 82.1688 19.0882 82.0337 18.8273C81.8986 18.5663 81.517 18.4286 81.3918 18.1623C81.2666 17.896 81.2521 17.5772 81.1368 17.3063C81.0215 17.0353 80.9109 16.7631 80.8056 16.4875C80.7003 16.2119 80.4267 15.9956 80.3319 15.7167C80.2372 15.4377 80.4711 15.053 80.3863 14.7708C80.3015 14.4885 80.2425 14.2069 80.1677 13.9207C80.0928 13.6345 79.7086 13.4275 79.6444 13.1392C79.5808 12.8523 79.7576 12.5148 79.704 12.224C79.6503 11.9351 79.5688 11.6528 79.5251 11.3606C79.4821 11.0704 79.4794 10.7761 79.4456 10.4819C79.4065 10.1511 79.0859 9.91279 78.9395 9.63055C78.7892 9.34032 78.6315 9.10335 78.3924 8.88768C78.1532 8.672 77.9943 8.30523 77.6915 8.18541C77.3968 8.06892 77.0351 8.15146 76.7032 8.14747C76.6827 8.14747 76.6833 8.02432 76.6628 8.02432C76.3336 8.02498 76.0772 8.33052 75.7838 8.44102C75.4817 8.55485 75.2339 8.66601 74.9941 8.87569C74.7543 9.08538 74.3774 9.18922 74.2231 9.47412C74.0734 9.75037 73.9276 10.0852 73.8806 10.412L74.1058 10.4447C74.0661 10.7262 74.1025 11.0238 74.0535 11.3014C74.0045 11.5816 73.8475 11.8439 73.7892 12.1201C73.7309 12.3984 73.5938 12.6586 73.5262 12.9329C73.458 13.2085 73.2122 13.4328 73.1354 13.7044C73.0579 13.9773 73.0433 14.2635 72.9565 14.5325C72.8698 14.8014 72.7114 15.0417 72.6147 15.3073C72.518 15.5729 72.516 15.8711 72.41 16.1334C72.304 16.3956 72.2007 16.6566 72.0854 16.9148C71.9702 17.1731 71.7893 17.3968 71.6648 17.6504C71.5403 17.904 71.6741 18.2934 71.5403 18.5424C71.4065 18.7913 71.2409 19.029 71.0978 19.2726C70.9547 19.5162 70.5612 19.6048 70.4088 19.8431C70.2565 20.0814 70.385 20.5087 70.224 20.7417C70.1379 20.8649 69.8915 20.6911 69.8054 20.8143C69.651 21.0319 69.4556 21.2103 69.2933 21.42C69.1304 21.631 69.1171 21.9605 68.9469 22.1636C68.7753 22.3679 68.4858 22.4638 68.307 22.6595C68.1275 22.8565 68.0003 23.0981 67.8141 23.2865C67.628 23.4749 67.581 23.8151 67.3869 23.9954C67.1928 24.1758 66.843 24.1672 66.6423 24.3396C66.6072 24.3609 66.7397 24.5127 66.7072 24.5386C66.6814 24.5599 66.6476 24.4701 66.6258 24.4954C66.4098 24.6784 66.2011 24.8808 65.9779 25.0532C65.7547 25.2256 65.5434 25.4213 65.3128 25.5837C65.0823 25.7461 64.7067 25.6895 64.4696 25.8413C64.2324 25.9931 64.1337 26.3752 63.8899 26.517C63.6462 26.6587 63.4196 26.8458 63.1692 26.9763C62.9188 27.1067 62.575 27.0508 62.3193 27.17C62.0636 27.2891 61.7536 27.2698 61.4926 27.377C61.2316 27.4842 61.0104 27.6779 60.7448 27.7731C60.4791 27.8682 60.2559 28.0879 59.9863 28.1718C59.7167 28.2557 59.4352 28.2996 59.1622 28.3715C58.8893 28.4434 58.6171 28.5193 58.3415 28.5785C58.0659 28.6377 57.7937 28.7203 57.5148 28.7682C57.2379 28.8155 56.9478 28.7875 56.6669 28.8235C56.3887 28.8587 56.1197 29.0225 55.8382 29.0458C55.5587 29.0691 55.2592 28.7882 54.9764 28.7995C54.6962 28.8115 54.4213 28.7975 54.1378 28.7975C53.8542 28.7975 53.5687 29.0864 53.2885 29.0751C53.0057 29.0631 52.7414 28.7928 52.4612 28.7695C52.1796 28.7456 51.8961 28.7902 51.6172 28.7542C51.337 28.7183 51.0403 28.7988 50.7634 28.7516C50.4845 28.7036 50.2467 28.4587 49.9724 28.3994C49.6962 28.3395 49.3537 28.5625 49.0815 28.4906C48.8092 28.4187 48.531 28.3395 48.2621 28.2563C47.9931 28.1731 47.795 27.8662 47.5307 27.7711C47.2664 27.6759 47.0359 27.5008 46.7749 27.3936C46.5139 27.2865 46.2013 27.3078 45.9462 27.1886C45.6912 27.0695 45.5024 26.8205 45.252 26.69C45.0016 26.5596 44.626 26.6627 44.3816 26.5216C44.1371 26.3805 43.9788 26.0943 43.741 25.9418C43.5032 25.7894 43.3323 25.5458 43.1011 25.3833C42.8699 25.2209 42.5725 25.157 42.3486 24.9846C42.1247 24.8122 41.9757 24.5806 41.7597 24.3975C41.7379 24.3722 41.8213 24.2777 41.7955 24.2564C41.7637 24.2304 41.5961 24.48 41.561 24.4587C41.3596 24.2863 41.2145 24.0327 41.0198 23.8517C40.825 23.6706 40.6237 23.4989 40.4362 23.3092C40.2487 23.1194 40.0255 22.9663 39.846 22.7693C39.6671 22.5736 39.4578 22.3999 39.2869 22.1955C39.1166 21.9925 39.1378 21.6337 38.9749 21.422C38.8126 21.2123 38.429 21.1671 38.2747 20.9494C38.1906 20.8302 38.2018 20.8216 38.119 20.7024C37.9581 20.4695 37.813 20.2205 37.6606 19.9822C37.5083 19.7439 37.5666 19.3751 37.4235 19.1315C37.2804 18.8879 36.9598 18.7454 36.8253 18.4964C36.6909 18.2475 36.6981 17.9246 36.5729 17.671C36.4477 17.4174 36.3133 17.1711 36.198 16.9122C36.0827 16.6532 35.7495 16.4868 35.6436 16.2239C35.5376 15.961 35.7423 15.5789 35.6455 15.3119C35.5488 15.045 35.2037 14.8673 35.1163 14.597C35.0288 14.3268 34.903 14.0658 34.8255 13.7922C34.748 13.5207 34.6897 13.2378 34.6214 12.9615C34.5539 12.6873 34.7824 12.3444 34.7241 12.0662C34.6658 11.7899 34.3035 11.5723 34.2538 11.2914C34.2048 11.0131 34.3412 10.7023 34.3015 10.42C34.2545 10.0932 34.1312 9.78365 33.9802 9.5074C33.8252 9.22317 33.5934 8.99418 33.3529 8.7845C33.1124 8.57482 32.8972 8.2593 32.5958 8.14547C32.3016 8.0343 31.9353 8.19606 31.6068 8.19606C31.5955 8.19606 31.5809 8.01234 31.5703 8.01234C31.5498 8.01234 31.5571 8.26995 31.5365 8.26995C31.2073 8.27927 30.9337 8.30323 30.6429 8.42172C30.3435 8.5442 30.0262 8.6061 29.7911 8.82244C29.5559 9.03878 29.5234 9.38026 29.3764 9.66916C29.234 9.95007 28.9988 10.1777 28.961 10.5066C28.9273 10.8001 28.7789 11.077 28.7358 11.3673C28.6921 11.6595 28.808 11.9777 28.7544 12.2666C28.7007 12.5568 28.5748 12.8337 28.5113 13.1199C28.447 13.4082 28.2039 13.6491 28.1297 13.9334C28.0555 14.2176 28.0707 14.5245 27.9866 14.806C27.9025 15.0876 28.0184 15.4371 27.9237 15.7153C27.829 15.9936 27.6594 16.2505 27.554 16.5248C27.4487 16.799 27.1851 17.01 27.0698 17.2803C26.9546 17.5505 27.0864 17.936 26.9605 18.2016C26.8347 18.4672 26.6021 18.6855 26.467 18.9471C26.3319 19.2087 26.2636 19.5109 26.1186 19.7672C25.9735 20.0235 25.582 20.132 25.427 20.3829C25.276 20.6279 25.2223 20.9301 25.064 21.1644C24.9037 21.4027 24.8348 21.7069 24.6679 21.9346C24.4976 22.1662 24.1578 22.2641 23.9816 22.4851C23.8027 22.7094 23.7981 23.0788 23.6133 23.2932C23.4258 23.5102 23.0006 23.5082 22.8078 23.7145C22.6117 23.9242 22.5634 24.271 22.3626 24.4701C22.1586 24.6724 21.94 24.8568 21.7327 25.0479C21.5214 25.2429 21.1961 25.2995 20.9815 25.4832C20.7636 25.6702 20.7125 26.0563 20.492 26.2321C20.2674 26.4111 20.0163 26.5562 19.7898 26.724C19.5593 26.8957 19.1976 26.8744 18.9664 27.0348C18.7299 27.1986 18.4921 27.345 18.2563 27.4975C18.0138 27.6539 17.8568 27.9361 17.617 28.0813C17.3693 28.2304 17.0474 28.2357 16.8036 28.3728C16.5512 28.5146 16.4704 28.9646 16.2233 29.0931C15.9656 29.2275 15.5629 29.0584 15.3125 29.1803C15.0508 29.3074 14.7812 29.3873 14.5295 29.5011C14.2632 29.6216 14.0671 29.8739 13.8141 29.9797C13.5657 30.0836 13.2881 30.1741 13.0907 30.3385C12.8867 30.5082 12.7648 30.7785 12.6224 30.9968C12.4786 31.2172 12.3978 31.4715 12.3243 31.7244C12.2514 31.9754 12.2262 32.2323 12.2309 32.4986C12.2355 32.7562 12.2938 33.0031 12.3773 33.2607C12.3839 33.2807 12.4554 33.2574 12.4621 33.2774C12.5548 33.5623 12.4952 33.9184 12.6648 34.1447C12.841 34.3797 13.2265 34.3817 13.463 34.5428C13.7021 34.7059 13.9207 34.7957 14.1989 34.8723C14.4745 34.9482 14.7209 35.2091 15.0131 35.1898C15.2939 35.1718 15.5927 35.0966 15.8682 34.9808C16.1286 34.8716 16.3962 34.7538 16.6691 34.632C16.9288 34.5155 17.2017 34.409 17.4706 34.2799C17.7283 34.1567 17.9562 33.9564 18.2212 33.8212C18.4769 33.6908 18.826 33.724 19.087 33.5829C19.3393 33.4458 19.4599 33.0584 19.7169 32.9106C19.9673 32.7668 20.1992 32.5904 20.4529 32.436C20.6993 32.2856 20.9477 32.2689 21.1961 32.1078C21.3399 32.5199 21.4299 32.5199 21.4299 32.9565C21.4299 33.3932 21.3041 33.3932 21.3041 33.8299C21.3041 34.2665 21.4498 34.2672 21.4498 34.7052C21.4498 35.1432 21.1736 35.1426 21.1736 35.5799C21.1736 36.0172 21.2624 36.0172 21.2624 36.4539C21.2624 36.8906 21.3438 36.8912 21.3438 37.3286C21.3438 37.7659 21.2822 37.7666 21.2822 38.2046C21.2822 38.6426 21.1338 38.6419 21.1338 39.0793C21.1338 39.5166 21.4571 39.5173 21.4571 39.9553C21.4571 40.3933 21.3147 40.3926 21.3147 40.8306C21.3147 41.2686 21.2849 41.2686 21.2849 41.7059C21.2849 42.1433 21.2948 42.1426 21.2948 42.5799C21.2948 43.0173 21.3955 43.0166 21.3955 43.454C21.3955 43.8913 21.3518 43.892 21.3518 44.3306C21.3518 44.7693 21.1418 44.768 21.1418 45.206C21.1418 45.644 21.4346 45.644 21.4346 46.082C21.4346 46.52 21.2743 46.5206 21.2743 46.9593C21.2743 47.398 21.2471 47.3973 21.2471 47.8353C21.2471 48.2733 21.371 48.2747 21.371 48.7133C21.371 49.152 21.3505 49.1533 21.3505 49.5927C21.3505 50.032 21.6154 50.1977 21.3173 50.5192C21.0391 50.8195 20.8589 50.6324 20.4509 50.6324C20.0428 50.6324 20.0422 50.4254 19.6335 50.4254C19.2247 50.4254 19.2247 50.3109 18.8154 50.3109C18.406 50.3109 18.4066 50.5346 17.9986 50.5346C17.5905 50.5346 17.5892 50.3681 17.1805 50.3681C16.7718 50.3681 16.7705 50.4846 16.3598 50.4846C15.9491 50.4846 15.9497 50.5805 15.539 50.5805C15.2555 50.5805 15.0263 50.6504 14.7706 50.7343C14.5056 50.8208 14.2427 50.8521 14.0227 51.0138C13.8002 51.1769 13.7147 51.4379 13.5531 51.6622C13.3928 51.8838 13.1656 52.0436 13.0794 52.3099C12.9966 52.5668 12.9191 52.8291 12.9191 53.114C12.9191 53.1373 13.0881 53.1373 13.0881 53.1606C13.0881 53.4455 13.0609 53.6864 13.1437 53.9427C13.2298 54.209 13.1059 54.5984 13.2662 54.8201C13.4279 55.0437 13.879 54.9865 14.1016 55.1489C14.3221 55.31 14.4745 55.547 14.7395 55.6335C14.9945 55.7167 15.2562 55.9623 15.5397 55.9623C15.9636 55.9623 15.9636 55.7893 16.3876 55.7893C16.8115 55.7893 16.8115 55.8585 17.2348 55.8585C17.6581 55.8585 17.6588 55.9111 18.0827 55.9111C18.5067 55.9111 18.5054 55.9457 18.9286 55.9457C19.3519 55.9457 19.3513 55.8871 19.7746 55.8871C20.1978 55.8871 20.1992 55.8372 20.6231 55.8372C21.0471 55.8372 21.0464 55.8272 21.4704 55.8272C21.8943 55.8272 21.8943 55.8891 22.3189 55.8891C22.7435 55.8891 22.7435 55.8518 23.1681 55.8518C23.5928 55.8518 23.5921 55.77 24.016 55.77C24.44 55.77 24.4413 55.953 24.8659 55.953C25.2906 55.953 25.2919 55.9823 25.7172 55.9823C26.1424 55.9823 26.1431 55.7726 26.5684 55.7726C27.0016 55.7726 27.0016 55.9337 27.4348 55.9337C27.868 55.9337 27.868 55.6295 28.3013 55.6295C28.7345 55.6295 28.7358 55.6601 29.1704 55.6601C29.6049 55.6601 29.6042 55.7001 30.0381 55.7001C30.472 55.7001 30.4727 55.8758 30.9072 55.8758C31.3418 55.8758 31.3424 55.8811 31.777 55.8811C32.2115 55.8811 32.2115 55.7347 32.6454 55.7347C33.0793 55.7347 33.0806 55.6841 33.5159 55.6841C33.9511 55.6841 33.9517 55.933 34.3876 55.933C34.8235 55.933 34.8235 55.6635 35.2594 55.6635C35.6873 55.6635 35.6873 55.9224 36.1159 55.9224C36.5445 55.9224 36.5445 55.8998 36.9724 55.8998C37.4003 55.8998 37.401 55.8079 37.8296 55.8079C38.2581 55.8079 38.2581 55.935 38.6874 55.935C39.1166 55.935 39.116 55.8432 39.5452 55.8432C39.9745 55.8432 39.9732 55.7893 40.4011 55.7893C40.829 55.7893 40.8283 55.8891 41.2563 55.8891C41.6842 55.8891 41.6835 55.8152 42.1108 55.8152C42.5381 55.8152 42.5381 55.8884 42.9647 55.8884C43.3913 55.8884 43.3919 55.9597 43.8185 55.9597C44.2451 55.9597 44.2458 55.7154 44.673 55.7154C45.1003 55.7154 45.1003 55.9717 45.5276 55.9717C45.9548 55.9717 45.9555 55.7041 46.3834 55.7041C46.8114 55.7041 46.812 55.6295 47.2406 55.6295C47.6692 55.6295 47.6699 55.6422 48.0991 55.6422C48.5284 55.6422 48.5277 55.7999 48.9563 55.7999C49.3849 55.7999 49.3842 55.8645 49.8128 55.8645C50.2414 55.8645 50.2407 55.8618 50.6686 55.8618C51.0966 55.8618 51.0966 55.7127 51.5245 55.7127C51.9524 55.7127 51.9531 55.6914 52.381 55.6914C52.8089 55.6914 52.8103 55.8884 53.2388 55.8884C53.6674 55.8884 53.6681 55.6395 54.098 55.6395C54.5279 55.6395 54.5266 55.8891 54.9558 55.8891C55.3851 55.8891 55.3844 55.9477 55.813 55.9477C56.2416 55.9477 56.2416 55.7174 56.6702 55.7174C57.0988 55.7174 57.0994 55.6308 57.5294 55.6308C57.9593 55.6308 57.9586 55.8645 58.3879 55.8645C58.8171 55.8645 58.8171 55.9683 59.2457 55.9683C59.6743 55.9683 59.6749 55.71 60.1042 55.71C60.5334 55.71 60.5341 55.9137 60.964 55.9137C61.3939 55.9137 61.3933 55.9251 61.8225 55.9251C62.2518 55.9251 62.2524 55.6228 62.6824 55.6228C63.1123 55.6228 63.1116 55.7693 63.5415 55.7693C63.9714 55.7693 63.9714 55.6182 64.4007 55.6182C64.8299 55.6182 64.8293 55.9231 65.2585 55.9231C65.6878 55.9231 65.6871 55.9091 66.1164 55.9091C66.5456 55.9091 66.5463 55.9257 66.9768 55.9257C67.4074 55.9257 67.4061 55.7067 67.836 55.7067C68.2659 55.7067 68.2659 55.7626 68.6958 55.7626C69.1257 55.7626 69.1264 55.8292 69.557 55.8292C69.9876 55.8292 69.9869 55.9344 70.4168 55.9344C70.8467 55.9344 70.848 55.9756 71.2786 55.9756C71.7092 55.9756 71.7105 55.9823 72.1418 55.9823C72.573 55.9823 72.5737 55.6235 73.0049 55.6235C73.4361 55.6235 73.4381 55.8305 73.872 55.8305C74.3059 55.8305 74.3052 55.945 74.7391 55.945C75.173 55.945 75.1737 55.7034 75.6089 55.7034C76.0441 55.7034 76.0428 55.6215 76.4773 55.6215C76.9119 55.6215 76.9119 55.7546 77.3471 55.7546C77.7823 55.7546 77.7823 55.6914 78.2175 55.6914C78.6527 55.6914 78.652 55.7367 79.0866 55.7367C79.5211 55.7367 79.5225 55.8711 79.9577 55.8711C80.3929 55.8711 80.3942 55.8585 80.8301 55.8585C81.266 55.8585 81.2666 55.945 81.7025 55.945C82.1384 55.945 82.139 55.6701 82.5749 55.6701C83.0108 55.6701 83.0115 55.7626 83.448 55.7626C83.8845 55.7626 83.8839 55.7367 84.3191 55.7367C84.7543 55.7367 84.7549 55.8052 85.1902 55.8052C85.6254 55.8052 85.6274 55.8066 86.0639 55.8066C86.5004 55.8066 86.5004 55.7527 86.9363 55.7527C87.3722 55.7527 87.3735 55.736 87.81 55.736C88.2466 55.736 88.2472 55.8312 88.6851 55.8312C89.123 55.8312 89.1216 55.8372 89.5588 55.8372C89.996 55.8372 89.9967 55.8066 90.4346 55.8066C90.8724 55.8066 90.8731 55.762 91.3116 55.762C91.7501 55.762 91.7501 55.6628 92.1887 55.6628C92.4722 55.6628 92.7312 55.7094 92.9862 55.6262C93.2512 55.5396 93.4612 55.3859 93.6818 55.2248C93.9043 55.0624 94.1799 54.9559 94.3422 54.7322C94.5025 54.5105 94.6383 54.2536 94.7238 53.988C94.8066 53.7317 94.8794 53.4448 94.8794 53.1599C94.8794 53.1366 94.7549 53.1366 94.7549 53.1133C94.7549 52.8284 94.9033 52.5096 94.8205 52.2526C94.735 51.9864 94.3535 51.8685 94.1931 51.6469C94.0315 51.4225 93.8878 51.2302 93.6652 51.0664C93.4446 50.9047 93.2942 50.5951 93.0293 50.5086C92.7736 50.4247 92.4715 50.6617 92.188 50.6617C91.7568 50.6617 91.7568 50.3176 91.3255 50.3176C90.8943 50.3176 90.8936 50.4514 90.4624 50.4514C90.0311 50.4514 90.0311 50.6098 89.6006 50.6098C89.17 50.6098 89.1687 50.5705 88.7368 50.5705C88.3049 50.5705 88.3042 50.6111 87.871 50.6111C87.4378 50.6111 87.2569 50.8341 86.9482 50.5292C86.6448 50.229 87.1894 50.0433 87.1894 49.6153C87.1894 49.1873 86.825 49.1873 86.825 48.7592C86.825 48.3312 87.0847 48.3306 87.0847 47.9019C87.0847 47.4732 86.8913 47.4732 86.8913 47.0445C86.8913 46.6158 86.9814 46.6165 86.9814 46.1885C86.9814 45.7605 86.8827 45.7598 86.8827 45.3318C86.8827 44.9038 86.9999 44.9031 86.9999 44.4737C86.9999 44.0444 87.1503 44.0451 87.1503 43.617C87.1503 43.189 86.9833 43.1884 86.9833 42.759C86.9833 42.3297 87.0867 42.3303 87.0867 41.9016C87.0867 41.473 86.9535 41.473 86.9535 41.0436C86.9535 40.6143 87.0264 40.6156 87.0264 40.1876C87.0264 39.7596 86.8224 39.7596 86.8224 39.3315C86.8224 38.9035 87.1655 38.9022 87.1655 38.4728C87.1655 38.0435 87.1165 38.0442 87.1165 37.6155C87.1165 37.1868 87.0158 37.1861 87.0158 36.7568C87.0158 36.3274 86.8952 36.3268 86.8952 35.8974C86.8952 35.4681 87.088 35.4681 87.088 35.0394C87.088 34.6107 87.1907 34.6094 87.1907 34.1793C87.1907 33.7493 86.8164 33.7487 86.8164 33.318C86.8164 32.8873 86.9237 32.8826 87.0575 32.4733C87.2881 32.629 87.3722 32.9099 87.6001 33.0557C87.8346 33.2055 88.1413 33.2354 88.3724 33.3746C88.6109 33.5177 88.8222 33.7034 89.0567 33.8352C89.2998 33.9723 89.641 33.9171 89.8788 34.0422C90.1259 34.172 90.2796 34.4722 90.5194 34.5901C90.7704 34.7132 91.1301 34.5847 91.3719 34.6946C91.6481 34.8204 91.8634 34.9808 92.1476 35.0048C92.4437 35.0301 92.7497 35.1619 93.0313 35.088C93.3148 35.0134 93.4936 34.7099 93.7387 34.5461C93.9805 34.3844 94.3952 34.3877 94.5747 34.1494C94.7476 33.9211 94.6178 33.5164 94.7125 33.2275C94.7191 33.2075 94.7569 33.2201 94.7635 33.1995C94.8675 32.8813 94.8933 32.5977 94.8754 32.2816C94.8576 31.9547 94.9423 31.6092 94.8099 31.315C94.6774 31.0208 94.5052 30.7139 94.274 30.4823C94.0507 30.2586 93.7414 30.0949 93.4393 29.9564H93.4413ZM66.5728 50.4434C66.2568 50.7589 66.1541 50.3701 65.709 50.3701C65.2638 50.3701 65.2645 50.5792 64.82 50.5792C64.3755 50.5792 64.3755 50.4194 63.931 50.4194C63.4865 50.4194 63.4852 50.3795 63.0387 50.3795C62.5923 50.3795 62.5936 50.4713 62.1484 50.4713C61.7033 50.4713 61.7026 50.478 61.2568 50.478C60.811 50.478 60.8103 50.45 60.3639 50.45C59.9174 50.45 59.9181 50.5738 59.4722 50.5738C59.0264 50.5738 59.0258 50.2909 58.5786 50.2909C58.1315 50.2909 58.1308 50.5845 57.6837 50.5845C57.2366 50.5845 57.1001 50.7935 56.7762 50.4833C56.4675 50.1878 56.8252 50.0413 56.8252 49.6126C56.8252 49.1839 56.6828 49.1839 56.6828 48.7553C56.6828 48.3266 56.8722 48.3272 56.8722 47.8986C56.8722 47.4699 56.9312 47.4699 56.9312 47.0412C56.9312 46.6125 56.7821 46.6118 56.7821 46.1832C56.7821 45.7545 56.6371 45.7545 56.6371 45.3258C56.6371 44.8971 56.7305 44.8964 56.7305 44.4678C56.7305 44.0391 56.9663 44.0391 56.9663 43.6104C56.9663 43.1817 56.6854 43.1817 56.6854 42.7524C56.6854 42.323 56.8027 42.3243 56.8027 41.8963C56.8027 41.4683 56.8027 41.4683 56.8027 41.0403C56.8027 40.6123 56.6192 40.6109 56.6192 40.1816C56.6192 39.7522 56.9597 39.7529 56.9597 39.3242C56.9597 38.8955 56.9782 38.8949 56.9782 38.4655C56.9782 38.0362 56.653 38.0355 56.653 37.6062C56.653 37.1768 56.8934 37.1768 56.8934 36.7475C56.8934 36.3181 56.8597 36.3174 56.8597 35.8868C56.8597 35.4561 56.8954 35.4561 56.8954 35.0247C56.8954 34.5934 56.5311 34.5315 56.6636 34.1221C56.9517 34.0921 57.3492 33.987 57.634 33.947C57.9209 33.9071 58.2415 34.0895 58.525 34.0402C58.8085 33.991 59.0655 33.7819 59.3477 33.7227C59.6299 33.6635 59.9406 33.7187 60.2201 33.6495C60.4997 33.5803 60.713 33.2594 60.9905 33.1802C61.2681 33.101 61.5496 33.0504 61.8238 32.9619C62.0981 32.8733 62.4465 32.9991 62.7175 32.9006C62.9884 32.8021 63.2739 32.7262 63.5408 32.6184C63.8078 32.5105 63.986 32.1857 64.249 32.0679C64.512 31.9501 64.7345 31.7537 64.9935 31.6265C65.2526 31.4994 65.5526 31.4621 65.807 31.325C66.0614 31.1879 66.3548 31.116 66.6039 30.9695C66.745 31.3882 66.4237 31.4129 66.4237 31.8555C66.4237 32.2982 66.4926 32.2975 66.4926 32.7395C66.4926 33.1815 66.4204 33.1815 66.4204 33.6242C66.4204 34.0669 66.5251 34.0669 66.5251 34.5102C66.5251 34.9535 66.5324 34.9528 66.5324 35.3955C66.5324 35.8382 66.4641 35.8382 66.4641 36.2802C66.4641 36.7222 66.7615 36.7228 66.7615 37.1655C66.7615 37.6081 66.7344 37.6088 66.7344 38.0521C66.7344 38.4955 66.4456 38.4948 66.4456 38.9375C66.4456 39.3801 66.7887 39.3808 66.7887 39.8241C66.7887 40.2675 66.488 40.2675 66.488 40.7101C66.488 41.1528 66.4376 41.1534 66.4376 41.5968C66.4376 42.0401 66.6337 42.0388 66.6337 42.4814C66.6337 42.9241 66.4794 42.9234 66.4794 43.3661C66.4794 43.8088 66.5535 43.8101 66.5535 44.2534C66.5535 44.6967 66.7649 44.6961 66.7649 45.1394C66.7649 45.5827 66.5251 45.5827 66.5251 46.0267C66.5251 46.4707 66.7721 46.4707 66.7721 46.9147C66.7721 47.3587 66.6357 47.358 66.6357 47.8014C66.6357 48.2447 66.6615 48.246 66.6615 48.69C66.6615 49.134 66.6046 49.1254 66.6913 49.562C66.7814 50.014 66.8867 50.1298 66.5728 50.4434ZM51.4529 34.1767C51.5854 34.5841 51.3894 34.5934 51.3894 35.0221C51.3894 35.4508 51.5974 35.4508 51.5974 35.8794C51.5974 36.3081 51.4384 36.3075 51.4384 36.7361C51.4384 37.1648 51.3986 37.1648 51.3986 37.5935C51.3986 38.0222 51.49 38.0229 51.49 38.4515C51.49 38.8802 51.4967 38.8802 51.4967 39.3089C51.4967 39.7376 51.4688 39.7383 51.4688 40.1669C51.4688 40.5956 51.5921 40.5956 51.5921 41.0243C51.5921 41.453 51.3105 41.453 51.3105 41.8823C51.3105 42.3117 51.6027 42.3104 51.6027 42.7384C51.6027 43.1664 51.5073 43.1664 51.5073 43.5944C51.5073 44.0224 51.4529 44.0238 51.4529 44.4531C51.4529 44.8825 51.5954 44.8818 51.5954 45.3105C51.5954 45.7392 51.4059 45.7398 51.4059 46.1692C51.4059 46.5985 51.347 46.5992 51.347 47.0285C51.347 47.4579 51.496 47.4579 51.496 47.8872C51.496 48.3166 51.6411 48.3173 51.6411 48.7479C51.6411 49.1786 51.5477 49.1786 51.5477 49.61C51.5477 50.0413 51.6749 50.0446 51.3662 50.3435C51.0449 50.6537 51.0436 50.5758 50.5984 50.5758C50.1533 50.5758 50.1539 50.458 49.7095 50.458C49.265 50.458 49.265 50.458 48.8205 50.458C48.376 50.458 48.3747 50.6424 47.9282 50.6424C47.4817 50.6424 47.483 50.3002 47.0379 50.3002C46.5928 50.3002 46.5921 50.2816 46.1463 50.2816C45.7005 50.2816 45.6998 50.6084 45.2533 50.6084C44.8069 50.6084 44.8075 50.3668 44.3617 50.3668C43.9159 50.3668 43.9152 50.4008 43.4681 50.4008C43.021 50.4008 43.0203 50.3648 42.5732 50.3648C42.126 50.3648 41.9041 50.8814 41.5855 50.5658C41.2715 50.2556 41.5663 50.0287 41.5663 49.5867C41.5663 49.1447 41.7948 49.1447 41.7948 48.7027C41.7948 48.2607 41.6392 48.2607 41.6392 47.818C41.6392 47.3753 41.7624 47.3753 41.7624 46.932C41.7624 46.4887 41.508 46.4894 41.508 46.0467C41.508 45.604 41.5418 45.604 41.5418 45.162C41.5418 44.72 41.7736 44.7194 41.7736 44.2767C41.7736 43.834 41.8054 43.8334 41.8054 43.3901C41.8054 42.9467 41.5782 42.9474 41.5782 42.5047C41.5782 42.0621 41.4954 42.0614 41.4954 41.6181C41.4954 41.1747 41.5994 41.1747 41.5994 40.7321C41.5994 40.2894 41.6749 40.2888 41.6749 39.8454C41.6749 39.4021 41.8551 39.4034 41.8551 38.9608C41.8551 38.5181 41.7862 38.5188 41.7862 38.0761C41.7862 37.6334 41.8584 37.6321 41.8584 37.1888C41.8584 36.7455 41.7538 36.7461 41.7538 36.3028C41.7538 35.8595 41.7465 35.8595 41.7465 35.4155C41.7465 34.9715 41.8147 34.9715 41.8147 34.5275C41.8147 34.0835 41.5173 34.0842 41.5173 33.6408C41.5173 33.1975 41.5444 33.1962 41.5444 32.7522C41.5444 32.3082 41.8332 32.3069 41.8332 31.8615C41.8332 31.4162 41.3589 31.3323 41.5 30.911C41.7491 31.0574 42.1267 31.359 42.3811 31.4954C42.6354 31.6319 42.8739 31.8123 43.1329 31.9394C43.3919 32.0665 43.739 32.012 44.0027 32.1305C44.2663 32.2489 44.473 32.5052 44.7406 32.6137C45.0082 32.7222 45.307 32.7568 45.5786 32.856C45.8502 32.9552 46.1893 32.8474 46.4642 32.9366C46.7391 33.0258 46.9438 33.34 47.2214 33.4192C47.4989 33.4984 47.8394 33.332 48.1203 33.4012C48.4012 33.4704 48.6476 33.6675 48.9311 33.7274C49.2146 33.7873 49.4995 33.8159 49.7843 33.8652C50.0691 33.9144 50.356 33.9271 50.6421 33.967C50.9276 34.0063 51.1648 34.1454 51.4529 34.1754V34.1767ZM26.5955 50.4434C26.2842 50.1398 26.6691 50.0347 26.6691 49.5993C26.6691 49.164 26.4611 49.1633 26.4611 48.7266C26.4611 48.29 26.62 48.29 26.62 47.8526C26.62 47.4153 26.6598 47.4153 26.6598 46.978C26.6598 46.5406 26.5684 46.5413 26.5684 46.1046C26.5684 45.6679 26.5617 45.6679 26.5617 45.2319C26.5617 44.7959 26.5896 44.7953 26.5896 44.3586C26.5896 43.9219 26.4664 43.9212 26.4664 43.4839C26.4664 43.0466 26.7479 43.0466 26.7479 42.6092C26.7479 42.1719 26.4558 42.1726 26.4558 41.7352C26.4558 41.2979 26.5511 41.2979 26.5511 40.8606C26.5511 40.4232 26.6055 40.4226 26.6055 39.9852C26.6055 39.5479 26.463 39.5479 26.463 39.1105C26.463 38.6732 26.6525 38.6725 26.6525 38.2352C26.6525 37.7979 26.7114 37.7979 26.7114 37.3599C26.7114 36.9219 26.5624 36.9219 26.5624 36.4845C26.5624 36.0472 26.4173 36.0478 26.4173 35.6112C26.4173 35.1745 26.5107 35.1745 26.5107 34.7378C26.5107 34.3012 26.7466 34.2998 26.7466 33.8612C26.7466 33.4225 26.4657 33.4238 26.4657 32.9865C26.4657 32.5492 26.5829 32.5485 26.5829 32.1105C26.5829 31.6725 26.5829 31.6718 26.5829 31.2331C26.5829 30.7945 26.3994 30.7951 26.3994 30.3571C26.3994 29.9191 26.7399 29.9185 26.7399 29.4791C26.7399 29.0398 26.7585 29.0398 26.7585 28.5998C26.7585 28.1598 26.3604 28.1298 26.4352 27.6972C26.6207 27.5035 27.0162 27.4003 27.1977 27.1986C27.3772 26.9996 27.5315 26.7726 27.7077 26.5662C27.8813 26.3625 28.0827 26.1755 28.2522 25.9638C28.4198 25.7548 28.398 25.394 28.5609 25.177C28.7219 24.9626 28.8955 24.7603 29.0525 24.538C29.2075 24.319 29.5479 24.2251 29.6983 23.9981C29.846 23.7738 29.8613 23.4609 30.0044 23.2286C30.1633 22.971 30.4237 22.774 30.574 22.5124C30.7244 22.2508 30.6482 21.8627 30.7906 21.5964C30.9331 21.3302 31.0987 21.0805 31.2325 20.8096C31.3663 20.5387 31.6273 20.4215 31.7525 20.1466C31.8757 20.3989 31.8823 20.6139 32.0128 20.8615C32.1433 21.1092 32.4772 21.2463 32.615 21.4906C32.7527 21.7349 32.9634 21.9312 33.1085 22.1709C33.2535 22.4105 33.3118 22.7007 33.4642 22.9357C33.6165 23.1707 33.7093 23.4456 33.8683 23.6759C33.9703 23.8224 33.8232 23.9269 33.9266 24.0727C34.1021 24.3203 34.3412 24.5266 34.5247 24.7649C34.7095 25.0052 34.846 25.2908 35.0381 25.5225C35.2315 25.7554 35.5111 25.9192 35.7111 26.1442C35.9112 26.3692 36.1066 26.5549 36.3146 26.7726C36.3961 27.2026 36.245 27.1973 36.245 27.6346C36.245 28.0719 36.5425 28.0719 36.5425 28.5099C36.5425 28.9479 36.5153 28.9479 36.5153 29.3859C36.5153 29.8239 36.2265 29.8246 36.2265 30.2633C36.2265 30.702 36.5696 30.7026 36.5696 31.1413C36.5696 31.58 36.2689 31.58 36.2689 32.018C36.2689 32.456 36.2185 32.456 36.2185 32.894C36.2185 33.332 36.4146 33.3326 36.4146 33.7706C36.4146 34.2086 36.2603 34.21 36.2603 34.6486C36.2603 35.0873 36.3345 35.0873 36.3345 35.5266C36.3345 35.966 36.5458 35.9653 36.5458 36.404C36.5458 36.8426 36.306 36.8426 36.306 37.282C36.306 37.7213 36.5531 37.7213 36.5531 38.1606C36.5531 38.6 36.4166 38.5993 36.4166 39.0386C36.4166 39.478 36.4424 39.478 36.4424 39.9173C36.4424 40.3567 36.4742 40.3567 36.4742 40.7953C36.4742 41.234 36.2185 41.2347 36.2185 41.674C36.2185 42.1133 36.4928 42.1127 36.4928 42.5507C36.4928 42.9887 36.5484 42.9893 36.5484 43.4273C36.5484 43.8653 36.3477 43.8673 36.3477 44.3067C36.3477 44.746 36.2066 44.746 36.2066 45.1847C36.2066 45.6233 36.3073 45.6247 36.3073 46.064C36.3073 46.5033 36.4444 46.504 36.4444 46.9447C36.4444 47.3853 36.4093 47.384 36.4093 47.824C36.4093 48.264 36.4199 48.2647 36.4199 48.7053C36.4199 49.146 36.4491 49.1467 36.4491 49.588C36.4491 50.0293 36.6928 50.1585 36.3802 50.468C36.0629 50.7822 35.937 50.6011 35.4919 50.6011C35.0467 50.6011 35.0474 50.3016 34.6029 50.3016C34.1584 50.3016 34.1584 50.2823 33.7139 50.2823C33.2694 50.2823 33.2681 50.5772 32.8223 50.5772C32.3765 50.5772 32.3772 50.3235 31.932 50.3235C31.4869 50.3235 31.4862 50.3968 31.0404 50.3968C30.5946 50.3968 30.5939 50.5199 30.1474 50.5199C29.701 50.5199 29.7016 50.3242 29.2558 50.3242C28.81 50.3242 28.8093 50.6204 28.3622 50.6204C27.9151 50.6204 27.9356 50.5312 27.4964 50.6178C27.0427 50.7076 26.9201 50.7549 26.5988 50.442L26.5955 50.4434ZM71.9251 50.4434C71.6131 50.1385 71.9987 50.0333 71.9987 49.596C71.9987 49.1586 71.7907 49.1586 71.7907 48.7206C71.7907 48.2826 71.9496 48.2826 71.9496 47.8446C71.9496 47.4066 71.9894 47.406 71.9894 46.9673C71.9894 46.5286 71.898 46.528 71.898 46.0893C71.898 45.6506 71.8914 45.6506 71.8914 45.2126C71.8914 44.7746 71.9192 44.7746 71.9192 44.3366C71.9192 43.8986 71.796 43.8986 71.796 43.4599C71.796 43.0213 72.0775 43.0206 72.0775 42.5819C72.0775 42.1433 71.7854 42.1433 71.7854 41.7039C71.7854 41.2646 71.8808 41.2653 71.8808 40.8266C71.8808 40.3879 71.9351 40.3879 71.9351 39.9486C71.9351 39.5093 71.7927 39.5093 71.7927 39.0699C71.7927 38.6306 71.9821 38.6313 71.9821 38.1919C71.9821 37.7526 72.0411 37.7526 72.0411 37.3133C72.0411 36.8739 71.892 36.8739 71.892 36.4353C71.892 35.9966 71.7469 35.9959 71.7469 35.5566C71.7469 35.1173 71.8403 35.1179 71.8403 34.6799C71.8403 34.2419 72.0762 34.2413 72.0762 33.8033C72.0762 33.3652 71.7953 33.3632 71.7953 32.9239C71.7953 32.4846 71.9126 32.4846 71.9126 32.0459C71.9126 31.6072 71.9126 31.6066 71.9126 31.1666C71.9126 30.7266 71.7291 30.7266 71.7291 30.2866C71.7291 29.8466 72.0695 29.8472 72.0695 29.4072C72.0695 28.9672 72.0881 28.9666 72.0881 28.5259C72.0881 28.0852 71.7628 28.0846 71.7628 27.6433C71.7628 27.2019 71.9198 27.2139 72.002 26.7799C72.21 26.5616 72.3643 26.3672 72.5664 26.1415C72.7671 25.9165 72.993 25.7095 73.1864 25.4765C73.3785 25.2449 73.3818 24.8595 73.5666 24.6192C73.7501 24.3809 73.9435 24.1539 74.1191 23.9069C74.2251 23.7571 74.4119 23.8896 74.5165 23.7398C74.6755 23.5102 74.7027 23.1887 74.8544 22.9537C75.0061 22.7187 75.2591 22.547 75.4035 22.3073C75.5479 22.0677 75.4691 21.6983 75.6069 21.4546C75.7447 21.211 75.9056 20.9853 76.0361 20.7377C76.1666 20.4901 76.4058 20.3996 76.529 20.1479C76.6542 20.4229 76.6787 20.6572 76.8132 20.9281C76.9476 21.199 77.2874 21.3628 77.4292 21.6297C77.571 21.8966 77.7876 22.1156 77.938 22.3779C78.0883 22.6402 78.1513 22.949 78.3096 23.2066C78.4553 23.443 78.5388 23.7152 78.6878 23.9435C78.8395 24.1765 78.8455 24.508 79.0005 24.7323C79.1588 24.9607 79.3761 25.1477 79.5377 25.368C79.7013 25.5917 79.8119 25.8586 79.9782 26.0743C80.1485 26.294 80.4035 26.4464 80.5757 26.6574C80.7513 26.8718 80.9348 27.0794 81.1123 27.2851C81.2931 27.4948 81.3925 27.6792 81.576 27.8802C81.6495 28.3069 81.8714 28.2903 81.8714 28.7236C81.8714 29.157 81.8443 29.157 81.8443 29.591C81.8443 30.025 81.5554 30.025 81.5554 30.4596C81.5554 30.8943 81.8986 30.8943 81.8986 31.329C81.8986 31.7637 81.5978 31.763 81.5978 32.197C81.5978 32.631 81.5475 32.631 81.5475 33.065C81.5475 33.499 81.7436 33.499 81.7436 33.9331C81.7436 34.3671 81.5892 34.3677 81.5892 34.8024C81.5892 35.2371 81.6634 35.2371 81.6634 35.6718C81.6634 36.1064 81.8747 36.1058 81.8747 36.5404C81.8747 36.9751 81.6349 36.9751 81.6349 37.4098C81.6349 37.8445 81.882 37.8451 81.882 38.2798C81.882 38.7145 81.7456 38.7145 81.7456 39.1491C81.7456 39.5838 81.7714 39.5845 81.7714 40.0192C81.7714 40.4538 81.8032 40.4538 81.8032 40.8892C81.8032 41.3245 81.5475 41.3245 81.5475 41.7592C81.5475 42.1939 81.8217 42.1932 81.8217 42.6272C81.8217 43.0612 81.8774 43.0612 81.8774 43.4952C81.8774 43.9292 81.6767 43.9306 81.6767 44.3666C81.6767 44.8026 81.5356 44.8012 81.5356 45.2359C81.5356 45.6706 81.6363 45.6713 81.6363 46.1066C81.6363 46.5419 81.7734 46.5426 81.7734 46.9786C81.7734 47.4146 81.7383 47.414 81.7383 47.8493C81.7383 48.2846 81.7489 48.2853 81.7489 48.722C81.7489 49.1586 81.778 49.1586 81.778 49.596C81.778 50.0333 82.0198 50.1618 81.7091 50.4673C81.3905 50.7802 81.266 50.6005 80.8208 50.6005C80.3757 50.6005 80.3763 50.3009 79.9318 50.3009C79.4874 50.3009 79.4874 50.2816 79.0429 50.2816C78.5984 50.2816 78.5971 50.5765 78.1513 50.5765C77.7054 50.5765 77.7061 50.3229 77.261 50.3229C76.8158 50.3229 76.8151 50.3961 76.3693 50.3961C75.9235 50.3961 75.9229 50.5192 75.4764 50.5192C75.0299 50.5192 75.0306 50.3235 74.5848 50.3235C74.139 50.3235 74.1383 50.6198 73.6912 50.6198C73.244 50.6198 73.2646 50.5299 72.8254 50.6171C72.3716 50.707 72.2484 50.7549 71.9278 50.4414L71.9251 50.4434Z" fill="#E90000"/>
<path d="M26.5717 69.7814C26.877 70.0896 27.0049 69.836 27.4375 69.836C27.87 69.836 27.8707 69.8034 28.3039 69.8034C28.7371 69.8034 28.7385 69.8879 29.173 69.8879C29.6076 69.8879 29.6069 69.8566 30.0408 69.8566C30.4747 69.8566 30.4753 69.7954 30.9099 69.7954C31.3444 69.7954 31.3451 69.6176 31.7796 69.6176C32.2142 69.6176 32.2142 69.6443 32.6481 69.6443C33.082 69.6443 33.0833 69.8812 33.5185 69.8812C33.9537 69.8812 33.9544 69.6023 34.3903 69.6023C34.8261 69.6023 34.8732 70.0104 35.1825 69.7022C35.4899 69.3953 35.213 69.3474 35.213 68.912C35.213 68.4767 35.264 68.4774 35.264 68.042C35.264 67.6067 35.1189 67.6067 35.1189 67.172C35.1189 66.7373 35.3733 66.738 35.3733 66.304C35.3733 65.87 35.1401 65.87 35.1401 65.436C35.1401 65.002 35.1679 65.0006 35.1679 64.5646C35.1679 64.1286 35.1712 64.13 35.1712 63.6946C35.1712 63.2593 35.3077 63.2593 35.3077 62.8239C35.3077 62.3886 35.3839 62.3879 35.3839 61.9519C35.3839 61.5159 35.2249 61.5166 35.2249 61.0812C35.2249 60.6459 35.3455 60.6446 35.3455 60.2086C35.3455 59.7726 35.3044 59.7712 35.3044 59.3345C35.3044 58.8979 35.5137 58.824 35.207 58.5145C34.9003 58.2049 34.8281 58.6463 34.3949 58.6463C33.9617 58.6463 33.9617 58.2868 33.5284 58.2868C33.0952 58.2868 33.0939 58.2735 32.6593 58.2735C32.2248 58.2735 32.2255 58.3354 31.7916 58.3354C31.3577 58.3354 31.357 58.3813 30.9225 58.3813C30.4879 58.3813 30.4873 58.5278 30.0527 58.5278C29.6182 58.5278 29.6182 58.4592 29.1843 58.4592C28.7504 58.4592 28.7491 58.3787 28.3138 58.3787C27.8786 58.3787 27.878 58.3627 27.4421 58.3627C27.0062 58.3627 26.9506 58.2236 26.6412 58.5324C26.3339 58.8393 26.626 58.8959 26.626 59.3312C26.626 59.7666 26.5896 59.7659 26.5896 60.2012C26.5896 60.6366 26.4975 60.6366 26.4975 61.0713C26.4975 61.5059 26.7353 61.5053 26.7353 61.9393C26.7353 62.3733 26.4485 62.3733 26.4485 62.8073C26.4485 63.2413 26.7048 63.2426 26.7048 63.6786C26.7048 64.1146 26.6565 64.1133 26.6565 64.5486C26.6565 64.984 26.3994 64.984 26.3994 65.4193C26.3994 65.8547 26.6591 65.8553 26.6591 66.2913C26.6591 66.7273 26.7161 66.7267 26.7161 67.162C26.7161 67.5974 26.6936 67.5987 26.6936 68.0347C26.6936 68.4707 26.5498 68.4574 26.4584 68.8847C26.361 69.3407 26.2636 69.4732 26.5703 69.7827L26.5717 69.7814Z" fill="#E90000"/>
<path d="M72.9432 69.8453C73.2492 70.1535 73.4407 69.7168 73.8739 69.7168C74.3071 69.7168 74.3071 69.7162 74.741 69.7162C75.1749 69.7162 75.1756 69.7248 75.6108 69.7248C76.046 69.7248 76.0447 69.8619 76.4792 69.8619C76.9138 69.8619 76.9138 69.9092 77.349 69.9092C77.7842 69.9092 77.7842 69.8307 78.2194 69.8307C78.6546 69.8307 78.6539 69.6256 79.0885 69.6256C79.523 69.6256 79.5244 69.9292 79.9596 69.9292C80.3948 69.9292 80.3961 69.9724 80.832 69.9724C81.2679 69.9724 81.5209 70.2181 81.8303 69.9092C82.1376 69.6023 81.8004 69.3467 81.8004 68.9114C81.8004 68.476 81.8726 68.4767 81.8726 68.0414C81.8726 67.606 81.8481 67.606 81.8481 67.1713C81.8481 66.7367 81.7223 66.7373 81.7223 66.3033C81.7223 65.8693 81.5395 65.8693 81.5395 65.4353C81.5395 65.0013 81.7422 65 81.7422 64.564C81.7422 64.128 81.6958 64.1293 81.6958 63.694C81.6958 63.2586 81.5858 63.2586 81.5858 62.8233C81.5858 62.3879 81.5156 62.3873 81.5156 61.9513C81.5156 61.5152 81.6759 61.5159 81.6759 61.0806C81.6759 60.6452 81.6103 60.6439 81.6103 60.2079C81.6103 59.7719 81.7905 59.7706 81.7905 59.3339C81.7905 58.8972 82.0906 58.6909 81.7832 58.3813C81.4759 58.0718 81.2718 58.4652 80.8379 58.4652C80.4041 58.4652 80.4047 58.5777 79.9708 58.5777C79.5369 58.5777 79.5363 58.4326 79.1011 58.4326C78.6659 58.4326 78.6672 58.3667 78.2326 58.3667C77.7981 58.3667 77.7981 58.2842 77.3629 58.2842C76.9277 58.2842 76.9277 58.3627 76.4925 58.3627C76.0572 58.3627 76.0579 58.5051 75.6234 58.5051C75.1888 58.5051 75.1875 58.3254 74.7523 58.3254C74.3171 58.3254 74.3157 58.5491 73.8799 58.5491C73.444 58.5491 73.3632 58.1983 73.0538 58.5071C72.7464 58.814 73.1658 58.8952 73.1658 59.3306C73.1658 59.7659 72.9843 59.7652 72.9843 60.2006C72.9843 60.6359 72.8736 60.6359 72.8736 61.0706C72.8736 61.5053 73.0227 61.5046 73.0227 61.9386C73.0227 62.3726 73.1452 62.3726 73.1452 62.8066C73.1452 63.2406 72.9134 63.242 72.9134 63.678C72.9134 64.114 73.1399 64.1126 73.1399 64.548C73.1399 64.9833 72.9776 64.9833 72.9776 65.4187C72.9776 65.854 73.0379 65.8547 73.0379 66.2907C73.0379 66.7267 73.0637 66.726 73.0637 67.1614C73.0637 67.5967 72.8365 67.598 72.8365 68.034C72.8365 68.47 73.1485 68.4927 73.0439 68.9174C72.9233 69.4053 72.6371 69.5371 72.9439 69.8466L72.9432 69.8453Z" fill="#E90000"/>
<path d="M59.8888 67.6559C59.6093 67.9641 59.4053 67.7738 58.9899 67.7738C58.5746 67.7738 58.5746 67.6539 58.1592 67.6539C57.7439 67.6539 57.7426 67.5102 57.3259 67.5102C56.9093 67.5102 56.9099 67.4309 56.4939 67.4309C56.0779 67.4309 56.0773 67.6673 55.6612 67.6673C55.2452 67.6673 55.2446 67.423 54.8273 67.423C54.4099 67.423 54.4113 67.4609 53.9946 67.4609C53.5779 67.4609 53.5779 67.5255 53.1606 67.5255C52.7433 67.5255 52.7426 67.7824 52.3246 67.7824C51.9066 67.7824 51.7702 67.9029 51.4867 67.594C51.1786 67.2579 51.4297 67.1361 51.4297 66.6788C51.4297 66.2214 51.6211 66.2214 51.6211 65.7635C51.6211 65.3055 51.6258 65.3062 51.6258 64.8482C51.6258 64.5646 51.49 64.2711 51.592 64.0241C51.6973 63.7685 52.0305 63.6853 52.2226 63.4929C52.4147 63.3005 52.5591 63.1162 52.8135 63.0103C53.0593 62.9078 53.2885 62.7314 53.5713 62.7314C53.9873 62.7314 53.9873 62.7334 54.404 62.7334C54.8206 62.7334 54.8193 62.9125 55.2353 62.9125C55.6513 62.9125 55.6513 62.6296 56.068 62.6296C56.4846 62.6296 56.4853 62.6502 56.9026 62.6502C57.32 62.6502 57.32 62.7114 57.7373 62.7114C58.0195 62.7114 58.2632 62.8745 58.5083 62.9764C58.7627 63.0822 59.0641 63.1288 59.2556 63.3212C59.447 63.5136 59.4179 63.8477 59.5238 64.1033C59.6259 64.3503 59.7212 64.5633 59.7212 64.8469C59.7212 65.3035 59.8246 65.3035 59.8246 65.7608C59.8246 66.2181 59.5735 66.2654 59.6808 66.71C59.8034 67.2166 60.1949 67.3158 59.8882 67.6539L59.8888 67.6559Z" fill="#1F1D1C"/>
<path d="M89.8993 66.5396C89.4694 66.5396 89.4694 66.4045 89.0401 66.4045C88.6109 66.4045 88.6109 66.3612 88.181 66.3612C87.7511 66.3612 87.7517 66.5876 87.3225 66.5876C86.8932 66.5876 86.8932 66.5143 86.464 66.5143C86.0347 66.5143 86.0347 66.4125 85.6055 66.4125C85.1762 66.4125 85.1762 66.4325 84.7463 66.4325C84.3164 66.4325 84.3164 66.284 83.8865 66.284C83.4566 66.284 83.4566 66.2381 83.0267 66.2381C82.5967 66.2381 82.5974 66.3339 82.1688 66.3339C81.7402 66.3339 81.7402 66.5975 81.3116 66.5975C80.8831 66.5975 80.8837 66.4192 80.4551 66.4192C80.0265 66.4192 80.0272 66.5649 79.5993 66.5649C79.1714 66.5649 79.1714 66.4884 78.7434 66.4884C78.3155 66.4884 78.3155 66.5064 77.8869 66.5064C77.4583 66.5064 77.4583 66.5077 77.0297 66.5077C76.6012 66.5077 76.6005 66.4032 76.1719 66.4032C75.7433 66.4032 75.742 66.302 75.3127 66.302C74.8835 66.302 74.8822 66.3905 74.4516 66.3905C74.021 66.3905 74.0217 66.4172 73.5924 66.4172C73.1632 66.4172 73.1632 66.5097 72.7339 66.5097C72.3047 66.5097 72.3047 66.308 71.8761 66.308C71.4475 66.308 71.4468 66.2867 71.0183 66.2867C70.5897 66.2867 70.589 66.3379 70.1598 66.3379C69.7305 66.3379 69.7298 66.5689 69.2999 66.5689C68.87 66.5689 68.8694 66.4411 68.4388 66.4411C68.0082 66.4411 68.0089 66.5782 67.579 66.5782C67.149 66.5782 67.149 66.4518 66.7198 66.4518C66.2905 66.4518 66.2899 66.2967 65.86 66.2967C65.4301 66.2967 65.4294 66.515 64.9988 66.515C64.5682 66.515 64.5682 66.5017 64.1377 66.5017C63.7071 66.5017 63.7078 66.5356 63.2778 66.5356C62.8479 66.5356 62.8473 66.5543 62.4174 66.5543C61.9874 66.5543 61.9868 66.5556 61.5555 66.5556C61.1243 66.5556 61.125 66.294 60.6951 66.294C60.2651 66.294 60.2645 66.3473 59.8332 66.3473C59.402 66.3473 59.4027 66.2774 58.9721 66.2774C58.5415 66.2774 58.5415 66.3792 58.1103 66.3792C57.679 66.3792 57.6804 66.5643 57.2505 66.5643C56.8205 66.5643 56.8205 66.2514 56.3906 66.2514C55.9607 66.2514 55.9594 66.523 55.5282 66.523C55.0969 66.523 55.0976 66.292 54.667 66.292C54.2364 66.292 54.2358 66.3439 53.8045 66.3439C53.3733 66.3439 53.3726 66.2601 52.9414 66.2601C52.5102 66.2601 52.5102 66.3339 52.0796 66.3339C51.649 66.3339 51.6477 66.3872 51.2158 66.3872C50.7839 66.3872 50.7832 66.4391 50.3507 66.4391C49.9181 66.4391 49.9181 66.3945 49.4855 66.3945C49.1709 66.3945 48.837 66.3792 48.5528 66.4717C48.2587 66.5676 47.9547 66.7214 47.7102 66.9004C47.4632 67.0815 47.3671 67.4296 47.1869 67.6779C47.0087 67.9235 46.9067 68.1871 46.8113 68.4827C46.7193 68.7676 46.7325 69.0398 46.7325 69.356C46.7325 69.79 46.6259 69.79 46.6259 70.224C46.6259 70.6581 46.4119 70.6581 46.4119 71.0921C46.4119 71.5261 46.4973 71.5267 46.4973 71.9608C46.4973 72.3948 46.5676 72.3961 46.5676 72.8308C46.5676 73.2654 46.4583 73.2661 46.4583 73.7021C46.4583 74.1381 46.4457 74.1368 46.4457 74.5721C46.4457 75.0075 46.39 75.0068 46.39 75.4415C46.39 75.8762 46.3907 75.8762 46.3907 76.3115C46.3907 76.7468 46.5954 76.7468 46.5954 77.1828C46.5954 77.6188 46.5536 77.6182 46.5536 78.0542C46.5536 78.4902 46.4523 78.4895 46.4523 78.9242C46.4523 79.3589 46.7093 79.3595 46.7093 79.7949C46.7093 80.2302 46.7385 80.2309 46.7385 80.6669C46.7385 81.1029 46.4059 81.1022 46.4059 81.5376C46.4059 81.9729 46.3861 81.9736 46.3861 82.4096C46.3861 82.8456 46.449 82.8456 46.449 83.2809C46.449 83.7163 46.7 83.7169 46.7 84.1529C46.7 84.5889 46.5404 84.5876 46.5404 85.023C46.5404 85.4583 46.4874 85.4576 46.4874 85.893C46.4874 86.3283 46.5623 86.3296 46.5623 86.7656C46.5623 87.2017 46.7431 87.201 46.7431 87.637C46.7431 88.073 46.6146 88.073 46.6146 88.5097C46.6146 88.9463 46.3821 88.9463 46.3821 89.383C46.3821 89.8197 46.7285 89.819 46.7285 90.255C46.7285 90.691 46.6331 90.6924 46.6331 91.129C46.6331 91.5657 46.7497 91.567 46.7497 92.0044C46.7497 92.4417 46.7073 92.4424 46.7073 92.8797C46.7073 93.1959 46.4556 93.5534 46.5477 93.8389C46.6431 94.1345 46.8007 94.4633 46.9789 94.7096C47.1591 94.9579 47.4956 95.1083 47.7427 95.2894C47.9871 95.4685 48.2832 95.5903 48.5773 95.6861C48.8609 95.7787 49.1702 95.991 49.4849 95.991C49.9148 95.991 49.9148 95.7567 50.344 95.7567C50.7733 95.7567 50.7733 95.6921 51.2032 95.6921C51.6331 95.6921 51.6324 95.9391 52.0617 95.9391C52.4909 95.9391 52.4909 95.7108 52.9202 95.7108C53.3494 95.7108 53.3494 95.8552 53.7787 95.8552C54.2079 95.8552 54.2079 95.7014 54.6379 95.7014C55.0678 95.7014 55.0678 95.7314 55.4977 95.7314C55.9276 95.7314 55.9276 95.981 56.3575 95.981C56.7874 95.981 56.7868 95.8931 57.2153 95.8931C57.6439 95.8931 57.6439 95.6255 58.0725 95.6255C58.5011 95.6255 58.5004 95.6302 58.929 95.6302C59.3576 95.6302 59.357 95.8752 59.7849 95.8752C60.2128 95.8752 60.2128 95.786 60.6407 95.786C61.0687 95.786 61.0687 95.6662 61.4973 95.6662C61.9258 95.6662 61.9258 95.8346 62.3544 95.8346C62.783 95.8346 62.7837 95.6708 63.2123 95.6708C63.6408 95.6708 63.6422 95.9311 64.0714 95.9311C64.5007 95.9311 64.502 95.7587 64.9326 95.7587C65.3631 95.7587 65.3625 95.7167 65.7917 95.7167C66.221 95.7167 66.221 95.9437 66.6502 95.9437C67.0795 95.9437 67.0795 95.6795 67.5081 95.6795C67.9367 95.6795 67.9373 95.9757 68.3659 95.9757C68.7945 95.9757 68.7952 95.7846 69.2244 95.7846C69.6537 95.7846 69.6543 95.8539 70.0842 95.8539C70.5142 95.8539 70.5148 95.7061 70.9454 95.7061C71.376 95.7061 71.3753 95.6582 71.8052 95.6582C72.2351 95.6582 72.2351 95.8213 72.6644 95.8213C73.0936 95.8213 73.0943 95.7747 73.5242 95.7747C73.9541 95.7747 73.9548 95.8752 74.3854 95.8752C74.8159 95.8752 74.8159 95.9504 75.2465 95.9504C75.6771 95.9504 75.6764 95.6495 76.1063 95.6495C76.5362 95.6495 76.5369 95.8252 76.9668 95.8252C77.3967 95.8252 77.3974 95.7321 77.8286 95.7321C78.2599 95.7321 78.2592 95.6668 78.6891 95.6668C79.119 95.6668 79.1197 95.9817 79.5509 95.9817C79.9822 95.9817 79.9815 95.8519 80.4121 95.8519C80.8427 95.8519 80.8427 95.7414 81.2739 95.7414C81.7051 95.7414 81.7038 95.9118 82.1337 95.9118C82.5636 95.9118 82.5636 95.8366 82.9935 95.8366C83.4235 95.8366 83.4248 95.6954 83.856 95.6954C84.2873 95.6954 84.2866 95.6615 84.7172 95.6615C85.1477 95.6615 85.1484 95.7034 85.5796 95.7034C86.0109 95.7034 86.0115 95.8605 86.4428 95.8605C86.874 95.8605 86.874 95.9264 87.3046 95.9264C87.7352 95.9264 87.7365 95.8465 88.1684 95.8465C88.6003 95.8465 88.601 95.9484 89.0335 95.9484C89.4661 95.9484 89.4661 95.9883 89.8986 95.9883C90.2133 95.9883 90.5644 95.9078 90.8479 95.8153C91.142 95.7194 91.4507 95.543 91.6951 95.364C91.9422 95.1829 92.1721 94.9186 92.3523 94.6703C92.5304 94.4247 92.4099 94.0253 92.5053 93.7298C92.5973 93.4449 92.9147 93.1946 92.9147 92.8784C92.9147 92.4444 92.6775 92.4444 92.6775 92.0104C92.6775 91.5764 92.8047 91.5764 92.8047 91.1423C92.8047 90.7083 92.9517 90.7077 92.9517 90.2737C92.9517 89.8397 92.914 89.8383 92.914 89.4036C92.914 88.969 92.8477 88.9683 92.8477 88.5323C92.8477 88.0963 92.8332 88.0976 92.8332 87.6623C92.8332 87.2269 92.8809 87.2276 92.8809 86.7929C92.8809 86.3583 92.9683 86.3583 92.9683 85.9229C92.9683 85.4876 92.7 85.4876 92.7 85.0516C92.7 84.6156 92.8411 84.6162 92.8411 84.1802C92.8411 83.7442 92.7206 83.7449 92.7206 83.3102C92.7206 82.8755 92.749 82.8749 92.749 82.4395C92.749 82.0042 92.7166 82.0035 92.7166 81.5675C92.7166 81.1315 92.9623 81.1322 92.9623 80.6968C92.9623 80.2615 92.6868 80.2608 92.6868 79.8248C92.6868 79.3888 92.7683 79.3888 92.7683 78.9535C92.7683 78.5181 92.7769 78.5175 92.7769 78.0815C92.7769 77.6455 92.6987 77.6468 92.6987 77.2115C92.6987 76.7761 92.9372 76.7768 92.9372 76.3414C92.9372 75.9061 92.6815 75.9048 92.6815 75.4688C92.6815 75.0328 92.708 75.0334 92.708 74.5974C92.708 74.1614 92.7643 74.1614 92.7643 73.7247C92.7643 73.2881 92.8915 73.2881 92.8915 72.8514C92.8915 72.4147 92.6364 72.4154 92.6364 71.9794C92.6364 71.5434 92.9743 71.5421 92.9743 71.1054C92.9743 70.6687 92.9226 70.6674 92.9226 70.23C92.9226 69.7927 92.8299 69.792 92.8299 69.3547C92.8299 69.0385 92.6384 68.7749 92.5463 68.49C92.451 68.1945 92.3377 67.9495 92.1595 67.7039C91.9793 67.4556 91.9521 67.0362 91.7051 66.8558C91.4606 66.6768 91.1367 66.529 90.8426 66.4331C90.5591 66.3406 90.212 66.5396 89.898 66.5396H89.8993ZM69.6881 90.2584C69.4033 90.2584 69.1178 90.3416 68.8395 90.3163C68.5567 90.2903 68.307 90.072 68.0321 90.02C67.7532 89.9675 67.4948 89.8929 67.2259 89.8157C66.9536 89.7378 66.6317 89.8277 66.37 89.7252C66.1064 89.622 65.9275 89.3411 65.6765 89.2153C65.4234 89.0881 65.0723 89.146 64.8339 88.9969C64.5954 88.8478 64.3583 88.6794 64.1344 88.509C63.9105 88.3386 63.719 88.1183 63.511 87.9272C63.303 87.7362 63.2447 87.4033 63.0553 87.1943C62.8658 86.9853 62.6446 86.8176 62.4743 86.5919C62.3041 86.3663 62.2127 86.102 62.0636 85.861C61.9146 85.6201 61.6721 85.4456 61.5456 85.192C61.4197 84.9397 61.3787 84.6575 61.276 84.3926C61.1747 84.1296 60.8832 83.9313 60.8057 83.6577C60.7288 83.3868 60.8646 83.0659 60.8123 82.7857C60.7613 82.5094 60.4765 82.2625 60.4506 81.9782C60.4248 81.6987 60.4864 81.4038 60.4864 81.1182C60.4864 80.8326 60.4221 80.5371 60.448 80.2575C60.4738 79.9733 60.7911 79.7323 60.8428 79.4561C60.8951 79.1758 60.7196 78.8457 60.7964 78.5754C60.8739 78.3018 60.9362 78.0129 61.0382 77.75C61.1409 77.485 61.4847 77.3279 61.6105 77.0757C61.737 76.8214 61.8795 76.5911 62.0278 76.3508C62.1762 76.1105 62.2398 75.8182 62.4101 75.5926C62.5803 75.3669 62.6466 75.0467 62.836 74.8377C63.0255 74.6287 63.2646 74.4536 63.4726 74.2626C63.6806 74.0716 64.0535 74.0849 64.2781 73.9138C64.5027 73.7427 64.6583 73.4878 64.8981 73.338C65.1379 73.1882 65.3009 72.8953 65.5533 72.7682C65.8043 72.6417 66.1567 72.7382 66.4204 72.6357C66.682 72.5332 66.8841 72.2496 67.1563 72.1711C67.4259 72.0939 67.7061 72.0093 67.985 71.9574C68.2599 71.9055 68.5527 71.8915 68.8356 71.8656C69.1138 71.8396 69.4039 71.787 69.6888 71.787C69.9736 71.787 70.2505 71.9874 70.5287 72.0127C70.8116 72.0386 71.1203 71.8935 71.3952 71.9454C71.6741 71.998 71.9629 72.0566 72.2331 72.1338C72.5061 72.2117 72.7472 72.4054 73.0088 72.5079C73.2725 72.6111 73.5573 72.6797 73.8084 72.8061C74.0614 72.9333 74.2019 73.2581 74.441 73.4079C74.6801 73.5577 74.9107 73.7028 75.1352 73.8739C75.3598 74.0449 75.585 74.202 75.793 74.3931C76.001 74.5841 76.2117 74.7638 76.4011 74.9729C76.5906 75.1819 76.9271 75.2737 77.0973 75.4994C77.2676 75.725 77.1755 76.1298 77.3245 76.3707C77.4736 76.6117 77.6816 76.8041 77.8081 77.0584C77.934 77.3106 78.0062 77.5782 78.1082 77.8432C78.2102 78.1061 78.3135 78.3584 78.3917 78.6326C78.4685 78.9036 78.6646 79.1445 78.7169 79.4248C78.7686 79.701 78.9375 79.9726 78.9634 80.2575C78.9892 80.5371 79.0276 80.8346 79.0276 81.1215C79.0276 81.4084 78.8289 81.6907 78.8031 81.9702C78.7772 82.2545 78.5633 82.5021 78.5116 82.779C78.4593 83.0593 78.6116 83.3801 78.5348 83.6504C78.4573 83.924 78.2566 84.1536 78.1545 84.4165C78.0519 84.6815 77.8419 84.8845 77.716 85.1368C77.5895 85.3911 77.508 85.6533 77.3596 85.893C77.2112 86.1326 77.2159 86.4781 77.0456 86.7037C76.8754 86.9294 76.6369 87.1031 76.4468 87.3122C76.2567 87.5212 76.1163 87.7868 75.9083 87.9771C75.7003 88.1675 75.4684 88.3426 75.2432 88.5137C75.018 88.6847 74.6901 88.7014 74.4503 88.8505C74.2105 88.9996 74.0449 89.2772 73.7925 89.4036C73.5414 89.5295 73.3162 89.7438 73.0519 89.8463C72.7902 89.9482 72.4319 89.7724 72.1596 89.8503C71.89 89.9275 71.6462 90.0979 71.3674 90.1505C71.0924 90.2018 70.8023 90.1186 70.5194 90.1445C70.2412 90.1705 69.9716 90.261 69.6868 90.261L69.6881 90.2584Z" fill="#A39D96"/>
<path d="M87.2337 73.5969C86.7661 73.5969 86.7661 73.9191 86.2984 73.9191C85.8307 73.9191 85.8314 73.8752 85.3644 73.8752C84.8974 73.8752 84.8961 73.6921 84.4277 73.6921C83.9594 73.6921 83.9587 73.6415 83.4897 73.6415C83.0207 73.6415 83.0207 73.6262 82.5517 73.6262C82.2192 73.6262 81.9052 73.6648 81.6369 73.5084C81.36 73.3473 81.0494 73.1596 80.8891 72.8814C80.7341 72.6118 80.8162 72.2503 80.8162 71.9168H80.6201C80.6201 71.5827 80.8261 71.2758 80.9818 71.0055C81.1421 70.7273 81.3375 70.4464 81.6144 70.2853C81.8827 70.1295 82.2192 70.238 82.5517 70.238C83.0194 70.238 83.0194 70.059 83.4871 70.059C83.9548 70.059 83.9541 69.9798 84.4211 69.9798C84.8881 69.9798 84.8894 70.252 85.3578 70.252C85.8261 70.252 85.8268 70.021 86.2958 70.021C86.7648 70.021 86.7648 69.9238 87.2337 69.9238C87.5663 69.9238 87.8823 70.1648 88.1505 70.3206C88.4274 70.4817 88.7348 70.674 88.8951 70.9523C89.0501 71.2219 89.1468 71.5827 89.1468 71.9162H88.9123C88.9123 72.2503 89.0475 72.6091 88.8925 72.8794C88.7321 73.1576 88.4314 73.36 88.1545 73.5211C87.8862 73.6768 87.565 73.5976 87.2324 73.5976L87.2337 73.5969Z" fill="#1F1D1C"/>
<path d="M69.6887 69.8699C69.3953 69.8699 69.1085 70.0157 68.821 70.0377C68.5288 70.0603 68.244 70.0969 67.9592 70.1422C67.6703 70.1881 67.41 70.3319 67.1285 70.3998C66.845 70.4683 66.5628 70.5063 66.2879 70.5968C66.011 70.688 65.7003 70.6794 65.4333 70.7912C65.1644 70.9037 64.8968 71.0228 64.6391 71.156C64.3814 71.2891 64.178 71.5201 63.931 71.6732C63.6839 71.8263 63.4646 72.0107 63.2301 72.1831C62.9956 72.3555 62.679 72.4201 62.4584 72.6098C62.2378 72.7995 61.9583 72.9359 61.7529 73.1423C61.5476 73.3486 61.4807 73.6888 61.2919 73.9105C61.1031 74.1321 60.8189 74.2806 60.648 74.5162C60.4771 74.7519 60.3863 75.0461 60.234 75.295C60.0816 75.544 59.9438 75.7996 59.8114 76.0599C59.6795 76.3188 59.5808 76.5931 59.4695 76.8633C59.3583 77.1316 59.2258 77.3925 59.1357 77.6708C59.0463 77.947 58.9383 78.2213 58.8701 78.5068C58.8025 78.7891 58.6124 79.056 58.5667 79.3462C58.5216 79.6325 58.6243 79.9467 58.6011 80.2402C58.5786 80.5291 58.4686 80.8233 58.4686 81.1175C58.4686 81.4118 58.6773 81.6987 58.6998 81.9876C58.7223 82.2811 58.8561 82.5494 58.9012 82.8356C58.9469 83.1258 58.7184 83.4666 58.7853 83.7489C58.8535 84.0338 59.2006 84.2368 59.2907 84.5131C59.3808 84.7913 59.1562 85.1874 59.2668 85.4563C59.3788 85.7266 59.5477 85.9842 59.6795 86.2431C59.8114 86.502 60.0273 86.7264 60.179 86.974C60.3307 87.2216 60.4764 87.4839 60.6473 87.7195C60.8182 87.9552 60.9713 88.2168 61.16 88.4384C61.3488 88.6601 61.6655 88.7686 61.8708 88.975C62.0762 89.1813 62.1722 89.5128 62.3935 89.7025C62.6147 89.8922 62.8976 90.0161 63.1321 90.1878C63.3666 90.3595 63.5646 90.6018 63.8124 90.7549C64.0601 90.908 64.4788 90.7503 64.7378 90.8834C64.9955 91.0159 65.2101 91.2189 65.4784 91.3314C65.7453 91.4432 66.0063 91.5557 66.2839 91.6462C66.5588 91.7361 66.7734 92.0616 67.0569 92.1302C67.3378 92.1981 67.6657 92.0676 67.9539 92.1135C68.2387 92.1588 68.5242 92.2174 68.8163 92.24C69.1038 92.2627 69.3946 92.1794 69.6881 92.1794C69.9815 92.1794 70.281 92.3692 70.5684 92.3472C70.8606 92.3246 71.1553 92.27 71.4402 92.2247C71.729 92.1788 72.0099 92.0729 72.2914 92.005C72.5756 91.9365 72.8611 91.8639 73.136 91.7741C73.4136 91.6835 73.6467 91.4752 73.9137 91.364C74.1826 91.2515 74.4807 91.2062 74.7384 91.0738C74.9981 90.9407 75.1915 90.6964 75.4386 90.5433C75.6857 90.3902 76.0897 90.4627 76.3242 90.2916C76.5587 90.1206 76.7595 89.8823 76.98 89.6932C77.2006 89.5042 77.2543 89.1301 77.4596 88.9237C77.665 88.7174 78.0783 88.6994 78.2671 88.4777C78.4559 88.2561 78.4705 87.8879 78.6414 87.6516C78.8123 87.4153 78.9806 87.1803 79.1329 86.9314C79.2853 86.6824 79.3926 86.4128 79.5257 86.1526C79.6575 85.8936 79.9245 85.6939 80.0365 85.4237C80.1477 85.1554 80.3047 84.8918 80.3955 84.6129C80.4849 84.3367 80.4803 84.0225 80.5485 83.7376C80.6161 83.4553 80.777 83.1804 80.8228 82.8909C80.8678 82.604 80.6359 82.2798 80.6585 81.9862C80.681 81.6973 80.6161 81.4131 80.6161 81.1182C80.6161 80.8233 80.9374 80.5191 80.9148 80.2296C80.8923 79.936 80.5737 79.6784 80.5286 79.3915C80.4829 79.1013 80.6393 78.7738 80.5717 78.4909C80.5035 78.2053 80.3789 77.9317 80.2895 77.6548C80.1994 77.3759 80.0563 77.1156 79.945 76.8473C79.8331 76.5771 79.6536 76.3408 79.5218 76.0818C79.3899 75.8229 79.1568 75.6279 79.0051 75.3796C78.8534 75.1313 78.9315 74.7286 78.7606 74.4922C78.5897 74.2559 78.3016 74.1068 78.1128 73.8852C77.924 73.6635 77.773 73.4039 77.5676 73.1969C77.3623 72.9899 77.0403 72.914 76.8191 72.7243C76.5978 72.5346 76.5283 72.1511 76.2931 71.9787C76.0579 71.8063 75.7506 71.7324 75.5022 71.5793C75.2538 71.4262 74.9033 71.4708 74.6443 71.3377C74.3867 71.2052 74.1661 71.0155 73.8965 70.903C73.6288 70.7912 73.4308 70.4877 73.1532 70.3965C72.8783 70.3066 72.5988 70.1868 72.3146 70.1182C72.0337 70.0503 71.731 70.0283 71.4428 69.9824C71.1573 69.9372 70.838 70.1795 70.5459 70.1568C70.2584 70.1342 69.9802 69.8686 69.6868 69.8686L69.6887 69.8699ZM69.6887 89.7764C69.3907 89.7764 69.0846 89.7005 68.7945 89.6699C68.4984 89.6386 68.1811 89.6599 67.8949 89.5994C67.6048 89.5374 67.306 89.4409 67.0271 89.3497C66.7456 89.2572 66.4641 89.1207 66.1965 89.0003C65.9262 88.8791 65.6698 88.7034 65.4155 88.5549C65.1598 88.4058 64.8637 88.2933 64.6258 88.1189C64.388 87.9445 64.3768 87.4879 64.1582 87.2895C63.9396 87.0912 63.4891 87.1244 63.2924 86.9048C63.0957 86.6851 63.0175 86.3543 62.8439 86.1146C62.6704 85.875 62.4962 85.6327 62.3484 85.3758C62.2014 85.1201 61.953 84.9038 61.8324 84.6329C61.7125 84.364 61.7728 84.0151 61.6807 83.7322C61.59 83.4527 61.3257 83.209 61.264 82.9175C61.2031 82.6299 61.1395 82.3217 61.1084 82.0242C61.0779 81.7326 61.3011 81.4178 61.3011 81.1182C61.3011 80.8187 61.2568 80.5224 61.2872 80.2302C61.3184 79.9327 61.4654 79.6611 61.5264 79.3735C61.588 79.0813 61.7178 78.8237 61.8086 78.5441C61.9006 78.2612 61.894 77.9523 62.0139 77.6827C62.1345 77.4112 62.3239 77.1842 62.471 76.9286C62.6194 76.6716 62.6028 76.3075 62.7764 76.0685C62.9499 75.8296 63.2613 75.6971 63.4587 75.4774C63.6561 75.2578 63.7985 74.9828 64.0171 74.7838C64.2357 74.5848 64.4271 74.3405 64.6656 74.1654C64.9041 73.9903 65.177 73.8526 65.432 73.7041C65.6864 73.5557 65.9109 73.318 66.1812 73.1969C66.4488 73.0764 66.8489 73.2934 67.1311 73.2009C67.41 73.1097 67.6054 72.6956 67.8956 72.6337C68.1817 72.5725 68.5156 72.7509 68.811 72.7196C69.1012 72.689 69.3907 72.45 69.6894 72.45C69.9882 72.45 70.2882 72.5831 70.579 72.6138C70.8751 72.6451 71.1461 72.8188 71.4322 72.8794C71.723 72.9413 72.0198 72.9566 72.2987 73.0484C72.5809 73.141 72.9353 73.0671 73.2036 73.1876C73.4738 73.3087 73.6997 73.5483 73.9541 73.6968C74.2098 73.8459 74.5132 73.9444 74.7516 74.1188C74.9901 74.2932 75.2087 74.5175 75.428 74.7159C75.6472 74.9143 75.6684 75.3117 75.8665 75.5313C76.0646 75.751 76.46 75.8102 76.6336 76.0499C76.8071 76.2895 76.931 76.5751 77.0794 76.832C77.2271 77.0876 77.2185 77.4251 77.3397 77.6967C77.4596 77.9663 77.5822 78.2286 77.6743 78.5122C77.765 78.7924 77.7319 79.0959 77.7935 79.3875C77.8544 79.6751 78.2082 79.918 78.2393 80.2156C78.2698 80.5078 78.2731 80.8187 78.2731 81.1182C78.2731 81.4178 78.2989 81.7319 78.2685 82.0235C78.2373 82.3211 78.0717 82.6073 78.0108 82.8948C77.9492 83.1871 77.72 83.4294 77.6292 83.7096C77.5371 83.9925 77.6544 84.358 77.5345 84.6269C77.4139 84.8985 77.3146 85.1994 77.1668 85.455C77.0185 85.7119 76.6356 85.8217 76.462 86.0607C76.2885 86.2997 76.1394 86.554 75.942 86.7736C75.7446 86.9933 75.6837 87.3634 75.4644 87.5618C75.2452 87.7601 74.9014 87.82 74.6622 87.9944C74.4231 88.1689 74.2456 88.4518 73.9892 88.6002C73.7348 88.748 73.403 88.7673 73.1333 88.8884C72.8651 89.0089 72.5835 89.1014 72.3013 89.194C72.0225 89.2852 71.7005 89.1853 71.4097 89.2472C71.1236 89.3085 70.8553 89.399 70.5592 89.4303C70.269 89.4609 69.9875 89.7771 69.6894 89.7771L69.6887 89.7764Z" fill="#1F1D1C"/>
<path d="M39.7042 79.3808C39.2664 79.3808 39.2664 79.3276 38.8292 79.3276C38.392 79.3276 38.392 79.2956 37.9548 79.2956C37.5176 79.2956 37.5176 79.1059 37.081 79.1059C36.6445 79.1059 36.6438 79.2064 36.2073 79.2064C35.7708 79.2064 35.7701 79.3649 35.3322 79.3649C34.8944 79.3649 34.8944 79.1658 34.4559 79.1658C34.0173 79.1658 34.0173 79.1119 33.5788 79.1119C33.1403 79.1119 33.1409 79.1359 32.7031 79.1359C32.2652 79.1359 32.2652 79.241 31.828 79.241C31.3908 79.241 31.3902 79.2836 30.9523 79.2836C30.5144 79.2836 30.5138 79.4095 30.0753 79.4095C29.6367 79.4095 29.6367 79.1751 29.1982 79.1751C28.7597 79.1751 28.7603 79.2317 28.3218 79.2317C27.8833 79.2317 27.8833 79.1339 27.4454 79.1339C27.0076 79.1339 27.0069 79.2983 26.5677 79.2983C26.1285 79.2983 26.1292 79.1132 25.6913 79.1132C25.2535 79.1132 25.2522 79.1532 24.8136 79.1532C24.3751 79.1532 24.3751 79.2457 23.9366 79.2457C23.4981 79.2457 23.4981 79.3169 23.0589 79.3169C22.6197 79.3169 22.621 79.287 22.1831 79.287C21.7453 79.287 21.7453 79.1558 21.3074 79.1558C20.8696 79.1558 20.8682 79.4407 20.4291 79.4407C19.9899 79.4407 19.9905 79.3089 19.552 79.3089C19.1135 79.3089 19.1128 79.2723 18.6736 79.2723C18.2344 79.2723 18.2338 79.2011 17.7946 79.2011C17.3554 79.2011 17.3554 79.1099 16.9169 79.1099C16.4784 79.1099 16.477 79.239 16.0365 79.239C15.596 79.239 15.596 79.285 15.1548 79.285C14.7137 79.285 14.7143 79.4561 14.2732 79.4561C14.0055 79.4561 13.6995 79.3515 13.467 79.255C13.2259 79.1545 13.0053 78.9388 12.8238 78.7558C12.6423 78.5727 12.5012 78.3204 12.4011 78.0781C12.3044 77.8445 12.48 77.5676 12.48 77.2986H12.472C12.472 77.0297 12.4038 76.7948 12.4998 76.5604C12.5999 76.3181 12.6118 75.9946 12.7933 75.8122C12.9748 75.6298 13.2855 75.5899 13.5266 75.4894C13.7591 75.3922 14.0049 75.3889 14.2725 75.3889C14.7104 75.3889 14.7104 75.1486 15.1476 75.1486C15.5848 75.1486 15.5848 75.4961 16.022 75.4961C16.4592 75.4961 16.4592 75.1512 16.8957 75.1512C17.3322 75.1512 17.3329 75.2045 17.7694 75.2045C18.206 75.2045 18.2066 75.4614 18.6445 75.4614C19.0823 75.4614 19.0823 75.2325 19.5209 75.2325C19.9594 75.2325 19.9594 75.1479 20.3979 75.1479C20.8364 75.1479 20.8358 75.1566 21.2736 75.1566C21.7115 75.1566 21.7115 75.1353 22.1487 75.1353C22.5859 75.1353 22.5866 75.3809 23.0244 75.3809C23.4623 75.3809 23.4629 75.1785 23.9015 75.1785C24.34 75.1785 24.34 75.2777 24.7785 75.2777C25.217 75.2777 25.2164 75.1825 25.6549 75.1825C26.0934 75.1825 26.0934 75.2191 26.5313 75.2191C26.9692 75.2191 26.9698 75.2311 27.409 75.2311C27.8482 75.2311 27.8475 75.2418 28.2854 75.2418C28.7232 75.2418 28.7246 75.4874 29.1631 75.4874C29.6016 75.4874 29.6016 75.313 30.0401 75.313C30.4787 75.313 30.4787 75.2624 30.9179 75.2624C31.357 75.2624 31.3557 75.1353 31.7936 75.1353C32.2314 75.1353 32.2314 75.1546 32.6693 75.1546C33.1072 75.1546 33.1085 75.3856 33.5477 75.3856C33.9869 75.3856 33.9862 75.1512 34.4247 75.1512C34.8633 75.1512 34.8639 75.3569 35.3031 75.3569C35.7423 75.3569 35.7429 75.3296 36.1821 75.3296C36.6213 75.3296 36.6213 75.4927 37.0598 75.4927C37.4984 75.4927 37.4997 75.3829 37.9402 75.3829C38.3807 75.3829 38.3807 75.1393 38.8219 75.1393C39.2631 75.1393 39.2624 75.4135 39.7036 75.4135C39.9712 75.4135 40.2269 75.3709 40.4594 75.4681C40.7005 75.5686 40.8343 75.8003 41.0158 75.9826C41.1973 76.165 41.5829 76.2349 41.6829 76.4772C41.7796 76.7109 41.7359 77.0324 41.7359 77.3013H41.5915C41.5915 77.5702 41.4835 77.7679 41.3875 78.0023C41.2874 78.2446 41.3331 78.5727 41.151 78.7558C40.9688 78.9388 40.6535 78.9189 40.4124 79.0194C40.1799 79.1166 39.9719 79.3842 39.7042 79.3842V79.3808Z" fill="#408CFF"/>
<path d="M32.8111 86.4528C32.3898 86.4528 32.3898 86.5426 31.9692 86.5426C31.5485 86.5426 31.5459 86.5153 31.1233 86.5153C30.7006 86.5153 30.7013 86.544 30.2793 86.544C29.8574 86.544 29.8574 86.3556 29.4354 86.3556C29.0134 86.3556 29.0121 86.3729 28.5888 86.3729C28.1655 86.3729 28.1662 86.6179 27.7436 86.6179C27.3209 86.6179 27.3203 86.4328 26.897 86.4328C26.4737 86.4328 26.473 86.522 26.0498 86.522C25.6265 86.522 25.6265 86.2524 25.2032 86.2524C24.7799 86.2524 24.7792 86.325 24.3546 86.325C23.93 86.325 23.93 86.3529 23.5047 86.3529C23.0795 86.3529 23.0801 86.4987 22.6548 86.4987C22.3872 86.4987 22.1898 86.2431 21.9573 86.1459C21.7162 86.0454 21.5433 85.9362 21.3611 85.7532C21.179 85.5701 21.0167 85.419 20.9166 85.1767C20.8199 84.9431 20.6742 84.7221 20.6742 84.4531H20.7497C20.7497 84.1842 20.749 83.9339 20.8451 83.6996C20.9451 83.4573 21.0942 83.2496 21.2757 83.0672C21.4572 82.8849 21.6778 82.7684 21.9189 82.6678C22.1514 82.5707 22.3872 82.54 22.6548 82.54C23.0761 82.54 23.0761 82.4349 23.4968 82.4349C23.9174 82.4349 23.9201 82.4895 24.3427 82.4895C24.7653 82.4895 24.7647 82.4076 25.1866 82.4076C25.6086 82.4076 25.6086 82.4542 26.0305 82.4542C26.4525 82.4542 26.4538 82.3403 26.8771 82.3403C27.3004 82.3403 27.2998 82.6039 27.7224 82.6039C28.145 82.6039 28.1457 82.2984 28.569 82.2984C28.9922 82.2984 28.9929 82.5733 29.4162 82.5733C29.8395 82.5733 29.8395 82.6279 30.2628 82.6279C30.6861 82.6279 30.6867 82.6019 31.1113 82.6019C31.5359 82.6019 31.5359 82.5607 31.9612 82.5607C32.3865 82.5607 32.3858 82.3996 32.8111 82.3996C33.0787 82.3996 33.3675 82.4422 33.6001 82.5394C33.8412 82.6399 34.0571 82.8363 34.2386 83.0193C34.4201 83.2024 34.5692 83.438 34.6699 83.6803C34.7666 83.914 34.7513 84.1849 34.7513 84.4538H34.756C34.756 84.7227 34.6255 84.9351 34.5288 85.1687C34.4287 85.411 34.2877 85.5728 34.1061 85.7552C33.9246 85.9376 33.7922 86.1486 33.551 86.2491C33.3185 86.3463 33.0787 86.4528 32.8111 86.4528Z" fill="#408CFF"/>
<path d="M15.3621 86.5766C14.9296 86.5766 14.9296 86.3702 14.497 86.3702C14.0644 86.3702 14.0638 86.2737 13.6305 86.2737C13.1973 86.2737 13.198 86.2997 12.7654 86.2997C12.3329 86.2997 12.3315 86.4674 11.8983 86.4674C11.4651 86.4674 11.4638 86.4554 11.0299 86.4554C10.596 86.4554 10.5953 86.5872 10.1614 86.5872C9.89382 86.5872 9.68184 86.2784 9.44933 86.1819C9.20821 86.0813 8.86176 86.1253 8.68026 85.9429C8.49875 85.7605 8.40668 85.4689 8.30665 85.2266C8.20994 84.993 8.02446 84.7234 8.02446 84.4545H8.00061C8.00061 84.1856 8.08805 83.8654 8.18476 83.6317C8.28479 83.3894 8.67363 83.3242 8.85514 83.1418C9.03664 82.9594 9.09758 82.5587 9.3387 82.4582C9.57122 82.361 9.89382 82.5906 10.1621 82.5906C10.5947 82.5906 10.5947 82.2804 11.0272 82.2804C11.4598 82.2804 11.4604 82.5034 11.8937 82.5034C12.3269 82.5034 12.3262 82.592 12.7588 82.592C13.1914 82.592 13.1927 82.5727 13.6259 82.5727C14.0591 82.5727 14.0605 82.4761 14.4943 82.4761C14.9282 82.4761 14.9289 82.4921 15.3628 82.4921C15.6304 82.4921 15.8755 82.5494 16.108 82.6459C16.3491 82.7464 16.4452 83.0014 16.6267 83.1837C16.8082 83.3661 17.0791 83.4553 17.1791 83.6976C17.2759 83.9313 17.4097 84.1849 17.4097 84.4538H17.1811C17.1811 84.7227 17.2441 84.963 17.1473 85.1967C17.0473 85.439 17.042 85.7765 16.8605 85.9589C16.679 86.1413 16.4094 86.307 16.1676 86.4075C15.9351 86.5047 15.6297 86.5766 15.3621 86.5766Z" fill="#408CFF"/>
<path d="M39.7042 93.7783C39.277 93.7783 39.277 93.5826 38.8504 93.5826C38.4238 93.5826 38.4231 93.5274 37.9965 93.5274C37.5699 93.5274 37.5699 93.5261 37.1433 93.5261C36.7167 93.5261 36.7167 93.7364 36.2895 93.7364C35.8622 93.7364 35.8622 93.4515 35.4349 93.4515C35.0077 93.4515 35.0083 93.7411 34.5811 93.7411C34.1538 93.7411 34.1538 93.542 33.7265 93.542C33.2993 93.542 33.2993 93.6346 32.872 93.6346C32.4447 93.6346 32.4447 93.6286 32.0175 93.6286C31.5902 93.6286 31.5909 93.5361 31.1649 93.5361C30.739 93.5361 30.7383 93.5134 30.3124 93.5134C29.8865 93.5134 29.8845 93.4622 29.4566 93.4622C29.0286 93.4622 29.0293 93.7025 28.602 93.7025C28.1748 93.7025 28.1741 93.4069 27.7468 93.4069C27.3196 93.4069 27.3189 93.5354 26.8903 93.5354C26.4617 93.5354 26.4631 93.6951 26.0351 93.6951C25.6072 93.6951 25.6066 93.7724 25.178 93.7724C24.7494 93.7724 24.7487 93.4276 24.3195 93.4276C23.8902 93.4276 23.8902 93.4129 23.461 93.4129C23.1933 93.4129 22.9542 93.4994 22.721 93.4023C22.4799 93.3017 22.2421 93.1979 22.0599 93.0155C21.8778 92.8331 21.5618 92.6827 21.4618 92.4404C21.3651 92.2067 21.5949 91.8772 21.5949 91.6083H21.4108C21.4108 91.3394 21.6413 91.125 21.7373 90.8907C21.8374 90.6484 21.9672 90.4727 22.1494 90.2903C22.3315 90.1079 22.4673 89.8836 22.7085 89.7831C22.941 89.6859 23.1933 89.7405 23.461 89.7405C23.8882 89.7405 23.8882 89.4343 24.3148 89.4343C24.7414 89.4343 24.7421 89.5574 25.1687 89.5574C25.5953 89.5574 25.5953 89.5381 26.0219 89.5381C26.4485 89.5381 26.4485 89.6453 26.8758 89.6453C27.303 89.6453 27.303 89.616 27.7303 89.616C28.1575 89.616 28.1569 89.7671 28.5841 89.7671C29.0114 89.7671 29.0114 89.5048 29.4387 89.5048C29.8659 89.5048 29.8659 89.4549 30.2932 89.4549C30.7205 89.4549 30.7205 89.63 31.1477 89.63C31.575 89.63 31.5743 89.8157 32.0003 89.8157C32.4262 89.8157 32.4269 89.7085 32.8528 89.7085C33.2787 89.7085 33.2807 89.5434 33.7087 89.5434C34.1366 89.5434 34.1359 89.7857 34.5632 89.7857C34.9904 89.7857 34.9911 89.7951 35.4184 89.7951C35.8456 89.7951 35.8463 89.4702 36.2749 89.4702C36.7035 89.4702 36.7021 89.7771 37.1301 89.7771C37.558 89.7771 37.5587 89.6127 37.9872 89.6127C38.4158 89.6127 38.4165 89.7891 38.8457 89.7891C39.275 89.7891 39.275 89.7538 39.7042 89.7538C39.9719 89.7538 40.2759 89.5607 40.5084 89.6579C40.7495 89.7584 40.8025 90.1392 40.9847 90.3223C41.1669 90.5053 41.6021 90.5346 41.7021 90.7769C41.7988 91.0105 41.62 91.3394 41.62 91.6083H41.8028C41.8028 91.8772 41.5557 92.1049 41.459 92.3385C41.359 92.5808 41.2364 92.7825 41.0543 92.9649C40.8721 93.1473 40.6846 93.3011 40.4435 93.4016C40.211 93.4988 39.9719 93.7777 39.7042 93.7777V93.7783Z" fill="#408CFF"/>
</g>
<defs>
<clipPath id="clip0_2973_8921">
<rect width="87" height="88" fill="white" transform="translate(8 8)"/>
</clipPath>
</defs>
</svg>
