<svg width="104" height="104" viewBox="0 0 104 104" fill="none" xmlns="http://www.w3.org/2000/svg">
<path d="M98.5578 92.8251C98.5578 93.1072 98.5896 93.2932 98.424 93.5679C98.2875 93.7938 98.374 94.2484 98.13 94.4676C97.9306 94.6475 97.546 94.6475 97.2777 94.8227C97.0479 94.9729 96.8114 95.1467 96.5329 95.2929C96.2863 95.4221 95.9429 95.3713 95.6598 95.4978C95.4029 95.6122 95.3225 96.1892 95.0359 96.3008C94.7724 96.4036 94.3053 95.9889 94.0168 96.0891C93.7478 96.1824 93.6234 96.7425 93.3335 96.8339C93.0611 96.9198 92.782 97.0321 92.492 97.1159C92.217 97.1958 91.9068 97.1958 91.6161 97.2735C91.3384 97.348 91.0126 97.2688 90.7206 97.3405C90.4408 97.4095 90.1854 97.6125 89.8934 97.6801C89.6122 97.745 89.223 97.3473 88.9296 97.4102C88.6471 97.4718 88.3782 97.6064 88.0848 97.6666C87.801 97.7241 87.5212 97.8161 87.2279 97.8722C86.9426 97.927 86.6318 97.8465 86.3378 97.9C86.0519 97.9514 85.8491 98.4952 85.5558 98.5453C85.2692 98.594 84.9252 98.3214 84.6312 98.3687C84.344 98.4154 84.0642 98.5243 83.7702 98.5697C83.4823 98.6136 83.1734 98.5318 82.8794 98.5744C82.5909 98.6163 82.3029 98.6711 82.0083 98.7117C81.7197 98.7516 81.4358 98.8429 81.1412 98.8815C80.8526 98.9194 80.6066 99.3063 80.3126 99.3429C80.024 99.3787 79.7374 99.4707 79.4434 99.5052C79.1542 99.539 78.8277 99.2799 78.5337 99.3124C78.2438 99.3449 77.9721 99.5688 77.6774 99.5999C77.3868 99.631 77.1057 99.7785 76.811 99.8083C76.5204 99.8373 76.2135 99.7393 75.9189 99.767C75.6276 99.7947 75.293 99.3652 74.9977 99.3916C74.7064 99.4179 74.4225 99.5444 74.1272 99.5695C73.8352 99.5945 73.5743 100.014 73.279 100.038C72.987 100.061 72.6653 99.7278 72.3693 99.7501C72.0767 99.7724 71.7982 99.999 71.5022 100.02C71.2096 100.041 70.8933 99.7305 70.5972 99.7501C70.3059 99.769 70.0417 100.235 69.747 100.253C69.455 100.272 69.1509 100.12 68.8562 100.137C68.5636 100.154 68.2797 100.351 67.9844 100.366C67.6918 100.382 67.3815 100.08 67.0862 100.094C66.7929 100.109 66.4975 100.091 66.2022 100.105C65.9089 100.118 65.6237 100.349 65.3276 100.361C65.0336 100.373 64.7363 100.321 64.4402 100.332C64.1476 100.343 63.8597 100.525 63.5643 100.535C63.271 100.544 62.9737 100.476 62.6783 100.484C62.3843 100.493 62.0964 100.767 61.8004 100.776C61.5064 100.783 61.209 100.767 60.913 100.774C60.617 100.78 60.3101 100.166 60.0141 100.172C59.7201 100.177 59.4295 100.404 59.1335 100.408C58.8375 100.412 58.5421 100.307 58.2454 100.31C57.9487 100.314 57.6574 100.733 57.3601 100.735C57.0647 100.737 56.768 100.778 56.4706 100.778C56.1733 100.779 55.8752 100.699 55.5765 100.699C55.2805 100.699 54.9844 100.592 54.6891 100.591C54.3937 100.59 54.0991 100.239 53.8044 100.236C53.5077 100.234 53.2076 100.79 52.913 100.786C52.6163 100.783 52.3277 100.255 52.033 100.251C51.7363 100.247 51.443 100.181 51.1483 100.176C50.8516 100.17 50.5475 100.623 50.2528 100.616C49.9561 100.609 49.6574 100.713 49.3627 100.705C49.066 100.697 48.7707 100.659 48.4767 100.65C48.18 100.642 47.8813 100.714 47.5873 100.705C47.2906 100.694 47.0128 100.191 46.7181 100.18C46.4221 100.169 46.1295 100.1 45.8355 100.088C45.5395 100.076 45.2373 100.232 44.9434 100.219C44.6473 100.205 44.3364 100.519 44.0424 100.505C43.7464 100.49 43.4686 100.128 43.1747 100.113C42.8786 100.097 42.5738 100.253 42.2805 100.236C41.9845 100.22 41.7006 100.018 41.4073 99.9997C41.1113 99.9814 40.8031 100.173 40.5098 100.153C40.2138 100.134 39.9144 100.173 39.6217 100.152C39.3257 100.131 39.0243 100.192 38.7316 100.17C38.4356 100.148 38.145 100.067 37.8523 100.044C37.5563 100.02 37.2948 99.6094 37.0021 99.5844C36.7068 99.5593 36.3979 99.7122 36.1059 99.6858C35.8106 99.6594 35.5362 99.4288 35.2449 99.401C34.9496 99.3726 34.6123 99.7914 34.321 99.7623C34.0257 99.7325 33.7209 99.8002 33.4303 99.7697C33.1349 99.7386 32.8842 99.3185 32.5936 99.286C32.2989 99.2529 32.0198 99.1054 31.7298 99.0709C31.4352 99.0364 31.1513 98.9437 30.8614 98.9072C30.5667 98.8707 30.2882 98.7428 29.9996 98.7049C29.7057 98.6664 29.3934 98.7909 29.1048 98.751C28.8108 98.7104 28.4959 98.8409 28.208 98.799C27.914 98.7564 27.6085 98.8098 27.3213 98.7658C27.0279 98.7205 26.7231 98.7577 26.4366 98.711C26.1433 98.6637 25.9189 98.2213 25.6323 98.1726C25.339 98.1225 24.9903 98.4073 24.705 98.3559C24.4117 98.3025 24.1285 98.2091 23.844 98.1543C23.5507 98.0982 23.252 98.0853 22.9681 98.0278C22.6755 97.9683 22.4822 97.4609 22.1997 97.3994C21.907 97.3358 21.5718 97.5015 21.29 97.4366C20.998 97.3689 20.7142 97.2979 20.4344 97.2282C20.1431 97.1558 19.8396 97.1613 19.5618 97.0868C19.2712 97.0091 18.9407 97.0977 18.6657 97.0178C18.3757 96.934 18.1534 96.6485 17.881 96.5626C17.5911 96.4713 17.32 96.3583 17.0511 96.2643C16.7625 96.1635 16.5394 95.9328 16.2752 95.83C15.99 95.7184 15.6588 95.763 15.4027 95.6487C15.1202 95.5229 14.9316 95.2543 14.6863 95.1251C14.4098 94.9797 13.9739 95.1454 13.7455 94.9959C13.4785 94.8214 13.4555 94.3715 13.2568 94.1916C13.0149 93.9724 12.7601 93.8479 12.6242 93.6227C12.4607 93.35 12.0552 93.1052 12.0552 92.8251C12.0552 92.543 12.1471 92.106 12.3134 91.8314C12.4499 91.6054 13.0818 91.7401 13.3251 91.5202C13.5245 91.3403 13.6211 91.0271 13.8901 90.8519C14.1199 90.7017 14.397 90.6117 14.6754 90.4656C14.9221 90.3364 15.1398 90.1247 15.4236 89.9982C15.6804 89.8838 16.0278 89.9718 16.3144 89.8602C16.578 89.7573 16.6773 89.1749 16.9659 89.0748C17.2349 88.9814 17.614 89.1817 17.904 89.0903C18.1763 89.0044 18.5231 89.1519 18.8137 89.068C19.0887 88.9882 19.3733 88.9375 19.6646 88.8597C19.9423 88.7853 20.16 88.4633 20.4512 88.3909C20.7311 88.3219 20.9345 87.8998 21.2271 87.8321C21.5083 87.7672 21.9043 88.1846 22.197 88.1216C22.4795 88.0601 22.718 87.7658 23.0107 87.7063C23.2945 87.6488 23.5858 87.6014 23.8792 87.5453C24.1644 87.4905 24.5118 87.7557 24.8051 87.7029C25.091 87.6515 25.339 87.3701 25.6323 87.3194C25.9189 87.2707 26.2507 87.4824 26.5447 87.435C26.8319 87.3884 27.0327 86.7728 27.3273 86.7275C27.6153 86.6835 27.9099 86.6517 28.2046 86.6091C28.4932 86.5671 28.7851 86.5164 29.0798 86.4758C29.3684 86.4359 29.6651 86.417 29.9598 86.3784C30.2484 86.3405 30.5775 86.5989 30.8708 86.5624C31.1594 86.5265 31.4426 86.421 31.7366 86.3865C32.0258 86.3527 32.2989 86.1457 32.5929 86.1125C32.8828 86.0801 33.2174 86.44 33.512 86.4082C33.8027 86.377 34.0568 85.9806 34.3521 85.9509C34.6427 85.9218 34.9435 85.9658 35.2388 85.938C35.5301 85.9103 35.814 85.7743 36.1093 85.7479C36.4006 85.7216 36.7 85.7547 36.9954 85.7297C37.2873 85.7046 37.5881 85.7628 37.8834 85.7391C38.1754 85.7155 38.4964 86.0483 38.7924 86.026C39.0851 86.0036 39.3426 85.4848 39.6386 85.4638C39.9313 85.4428 40.2489 85.7662 40.5449 85.7466C40.8362 85.7276 41.1079 85.3664 41.4026 85.3481C41.6945 85.3299 42.0095 85.6715 42.3042 85.6546C42.5968 85.6377 42.8638 85.131 43.1591 85.1154C43.4517 85.0999 43.7768 85.6891 44.0722 85.6742C44.3655 85.66 44.6453 85.3495 44.9406 85.3366C45.234 85.3231 45.5212 85.1208 45.8172 85.1087C46.1112 85.0965 46.414 85.2751 46.71 85.2643C47.0027 85.2534 47.2946 85.1851 47.59 85.175C47.8833 85.1655 48.1746 85.0431 48.4699 85.0343C48.7639 85.0255 49.0559 84.8854 49.3519 84.878C49.6459 84.8706 49.9426 84.8618 50.2386 84.855C50.5347 84.8482 50.8415 85.4503 51.1375 85.4449C51.4315 85.4395 51.7181 84.9172 52.0134 84.9132C52.3088 84.9091 52.6034 84.8029 52.9001 84.7995C53.1968 84.7961 53.4955 85.1371 53.7929 85.1351C54.0883 85.133 54.3836 84.8178 54.6803 84.8164C54.977 84.8151 55.2757 84.8164 55.5745 84.8164C55.8705 84.8164 56.1652 85.4401 56.4605 85.4415C56.7558 85.4428 57.0519 85.3705 57.3465 85.3725C57.6432 85.3745 57.9426 84.899 58.2373 84.9024C58.534 84.9057 58.8287 85.0261 59.1233 85.0302C59.42 85.0343 59.7113 85.2737 60.006 85.2791C60.3027 85.2846 60.598 85.2805 60.892 85.2866C61.1887 85.2933 61.4881 85.1283 61.7821 85.1357C62.0788 85.1432 62.3681 85.3563 62.6628 85.365C62.9595 85.3738 63.2622 85.1317 63.5569 85.1411C63.8536 85.1513 64.1503 85.1357 64.4443 85.1466C64.7403 85.1574 65.0391 85.1066 65.333 85.1188C65.6291 85.131 65.9244 85.1689 66.2184 85.1817C66.5144 85.1953 66.8037 85.3508 67.0977 85.365C67.3937 85.3799 67.6782 85.5957 67.9722 85.6113C68.2683 85.6268 68.5744 85.4327 68.8684 85.4496C69.1644 85.4665 69.453 85.5856 69.7463 85.6038C70.0424 85.6221 70.3289 85.7594 70.6222 85.779C70.9183 85.7987 71.2217 85.683 71.5144 85.704C71.8104 85.7249 72.124 85.4848 72.4166 85.5071C72.7126 85.5294 72.9701 86.0226 73.2628 86.0463C73.5588 86.0699 73.8501 86.1058 74.1427 86.1301C74.4381 86.1552 74.7747 85.6938 75.0666 85.7202C75.362 85.7466 75.662 85.7222 75.9533 85.75C76.2487 85.7784 76.4832 86.4061 76.7745 86.4352C77.0698 86.465 77.3895 86.2255 77.6801 86.2566C77.9755 86.2878 78.3033 86.0002 78.5939 86.0327C78.8886 86.0659 79.1677 86.2289 79.4576 86.2627C79.7523 86.2972 80.0192 86.5448 80.3085 86.5807C80.6032 86.6172 80.9431 86.2837 81.2317 86.3216C81.5257 86.3601 81.8008 86.5326 82.0894 86.5725C82.3834 86.6131 82.6206 87.0319 82.9085 87.0738C83.2025 87.1164 83.4769 87.2524 83.7641 87.297C84.0574 87.3424 84.4021 87.0366 84.6887 87.0833C84.982 87.1306 85.2442 87.3437 85.5308 87.3931C85.8241 87.4432 86.1424 87.3288 86.4283 87.3802C86.7216 87.4337 87.0224 87.4289 87.3069 87.4837C87.6002 87.5399 87.851 87.7881 88.1348 87.8463C88.4275 87.9059 88.787 87.6319 89.0695 87.6928C89.3622 87.7564 89.6643 87.7706 89.9454 87.8355C90.2374 87.9032 90.4307 88.3652 90.7105 88.4349C91.0018 88.5072 91.2525 88.7007 91.5296 88.7751C91.8203 88.8529 92.0953 88.9409 92.3704 89.0207C92.6603 89.1046 93.0185 88.9253 93.2909 89.0119C93.5808 89.1032 93.7599 89.4881 94.0289 89.5821C94.3175 89.6829 94.5926 89.7587 94.8568 89.8622C95.142 89.9738 95.4185 90.0469 95.6746 90.1612C95.9571 90.287 96.3207 90.197 96.5667 90.3262C96.8432 90.4717 96.9526 90.8451 97.1811 90.9946C97.448 91.1691 97.7914 91.1712 97.9901 91.3504C98.232 91.5696 98.2584 91.8814 98.3942 92.1067C98.5578 92.3793 98.5551 92.5464 98.5551 92.8265L98.5578 92.8251Z" fill="#E5DFD8"/>
<g clip-path="url(#clip0_2973_9093)">
<path d="M57.1988 33.299C57.4014 33.504 57.6046 33.6783 57.7892 33.8929C57.9771 34.1108 58.615 33.9679 58.7848 34.1954C58.9567 34.4254 58.9829 34.7746 59.1368 35.0135C59.292 35.2551 59.074 35.7113 59.2112 35.9605C59.349 36.2123 59.7965 36.2995 59.9151 36.5583C60.035 36.8191 59.7914 37.2214 59.892 37.488C59.9933 37.7558 60.3049 37.939 60.3863 38.212C60.4677 38.4849 60.5504 38.756 60.6126 39.034C60.6748 39.3121 60.487 39.6267 60.5299 39.9086C60.5729 40.1905 61.1697 40.409 61.1928 40.6935C61.2159 40.9779 60.9844 41.2855 60.9877 41.5712C60.9909 41.857 61.1095 42.1517 61.0928 42.4369C61.0761 42.722 60.9588 43.0052 60.9229 43.289C60.887 43.5728 60.8825 43.8669 60.8267 44.1476C60.771 44.4282 60.4382 44.5179 60.3626 44.794C60.0856 44.8671 59.9882 45.1797 59.7074 45.2329C59.4266 45.2861 59.1394 45.345 58.8554 45.3784C58.5714 45.4117 58.263 45.0913 57.9777 45.1048C57.6924 45.1182 57.4225 45.158 57.1366 45.1516C56.8507 45.1451 56.5417 45.5456 56.2564 45.5187C55.9711 45.4918 55.7217 45.1605 55.4396 45.1144C55.1575 45.0683 54.8485 45.1624 54.5696 45.0965C54.2908 45.0305 54.0574 44.8068 53.7843 44.7216C53.5112 44.6364 53.3304 44.3334 53.0637 44.2289C52.7983 44.1251 52.4015 44.3475 52.1425 44.2251C51.8854 44.1033 51.5789 44.0585 51.3289 43.9175C51.0808 43.7779 51.0635 43.2672 50.8237 43.109C50.5865 42.9526 50.1179 43.1275 49.8897 42.9533C49.664 42.7809 49.4332 42.5964 49.2171 42.4061C49.0043 42.2184 49.053 41.7551 48.8504 41.5501C48.6479 41.3451 48.2978 41.2913 48.1125 41.0766C47.9247 40.8588 47.483 40.8338 47.3131 40.6063C47.1413 40.3763 47.1054 40.0335 46.9515 39.7945C46.7964 39.553 47.0188 39.0936 46.8823 38.8437C46.7444 38.5919 46.4342 38.442 46.3156 38.1832C46.1957 37.9224 46.1969 37.6225 46.0963 37.356C45.995 37.0882 45.586 36.9254 45.5046 36.6525C45.4231 36.3795 45.57 36.0419 45.5078 35.7638C45.4456 35.4858 45.3828 35.2109 45.3398 34.929C45.2969 34.6471 45.1212 34.3786 45.0981 34.0941C45.075 33.8096 45.1161 33.5181 45.1129 33.2324C45.1097 32.9466 44.8378 32.6429 44.8545 32.3578C44.8712 32.0727 45.4982 31.8446 45.5347 31.5614C45.5712 31.2782 45.5417 31.0027 45.5982 30.722C45.6546 30.4414 45.3872 30.0089 45.4629 29.7328C45.7398 29.6604 46.1649 29.9007 46.4451 29.8475C46.7252 29.7943 46.9547 29.4099 47.2387 29.3765C47.5227 29.3432 47.8382 29.7462 48.1234 29.7328C48.4087 29.7193 48.6825 29.4086 48.9684 29.415C49.2543 29.4214 49.5255 29.6149 49.8102 29.6412C50.0948 29.6674 50.3403 29.8699 50.6231 29.916C50.9058 29.9622 51.2975 29.4457 51.5757 29.5111C51.854 29.5765 52.1328 29.7033 52.406 29.7879C52.6791 29.8725 52.8175 30.3434 53.0849 30.4472C53.3503 30.5503 53.7228 30.4004 53.9824 30.5228C54.2395 30.6445 54.3991 30.9585 54.6491 31.0988C54.8972 31.2378 55.3223 31.0988 55.5621 31.257C55.7993 31.4134 55.8525 31.8414 56.0807 32.0156C56.3064 32.188 56.6462 32.2264 56.8622 32.4167C57.075 32.6045 56.9975 33.0927 57.2001 33.2977L57.1988 33.299Z" fill="#3BA36F"/>
<path d="M53.8751 20.2861C53.6405 20.4533 53.5578 20.8224 53.3155 20.971C53.0699 21.1216 52.9398 21.4811 52.6878 21.6124C52.4327 21.745 51.9807 21.4573 51.7198 21.5708C51.4563 21.6854 51.2325 21.8552 50.9639 21.9501C50.6934 22.0455 50.5126 22.4152 50.2376 22.4915C49.9613 22.5677 49.6074 22.3024 49.3279 22.3588C49.0471 22.4159 48.772 22.3934 48.4893 22.4299C48.2066 22.4665 47.9713 22.9944 47.686 23.0111C47.4007 23.0277 47.1045 22.5888 46.8186 22.5856C46.5327 22.5824 46.2282 23.0104 45.9435 22.988C45.6589 22.9656 45.3979 22.6811 45.1152 22.6382C44.8325 22.5953 44.4966 22.8073 44.217 22.7452C43.9375 22.683 43.6208 22.6946 43.3464 22.6132C43.072 22.5318 42.8554 22.2352 42.5874 22.1352C42.3194 22.0353 41.8706 21.9911 41.6097 21.8725C41.5821 21.5874 41.8129 21.1453 41.8052 20.8596C41.7976 20.5738 41.938 20.2957 41.9501 20.0106C41.9623 19.7255 41.7809 19.4282 41.8129 19.1444C41.845 18.8605 41.9059 18.5786 41.9578 18.2973C42.0098 18.0161 41.8559 17.6803 41.9277 17.4036C41.9995 17.1268 42.4938 16.973 42.5842 16.702C42.6746 16.4309 42.8272 16.1997 42.9368 15.935C43.0464 15.6704 42.713 15.2059 42.8406 14.9496C42.9682 14.6933 43.2073 14.4838 43.3528 14.2371C43.4977 13.9918 43.7843 13.8309 43.9471 13.5952C44.1087 13.3607 44.2754 13.13 44.4542 12.9057C44.6318 12.6834 44.9248 12.5662 45.1197 12.3547C45.312 12.1459 45.3588 11.796 45.5672 11.5987C45.7736 11.4033 46.0615 11.2976 46.2839 11.1149C46.5032 10.9349 46.6077 10.5953 46.8423 10.4281C47.077 10.2609 47.3648 10.1654 47.6065 10.0168C47.8521 9.8662 48.1797 9.86684 48.4316 9.73549C48.6868 9.60223 48.7887 9.13835 49.049 9.02494C49.3125 8.91025 49.7843 9.32736 50.0529 9.23189C50.3235 9.13579 50.46 8.63219 50.7344 8.55658C51.0107 8.48034 51.2999 8.4105 51.5787 8.35412C51.8595 8.29709 52.1589 8.29773 52.4417 8.26057C52.7244 8.22341 53.0071 8.01902 53.2917 8.00172C53.5764 7.98442 53.8822 8.1036 54.1675 8.10616C54.4528 8.10872 54.7406 8.24584 55.0253 8.2689C55.3099 8.29197 55.551 8.62962 55.833 8.67255C56.1151 8.71548 56.4741 8.33361 56.753 8.39576C57.0319 8.45791 57.3197 8.53287 57.5935 8.61489C57.8672 8.6969 58.0448 9.06979 58.3128 9.16974C58.5808 9.2697 59.0763 9.12553 59.3366 9.24407C59.3642 9.52854 59.4642 9.93988 59.4719 10.225C59.4796 10.5101 59.2135 10.8042 59.2014 11.0893C59.1892 11.3744 59.211 11.6653 59.1789 11.9492C59.1469 12.233 58.859 12.4739 58.8071 12.7545C58.7552 13.0352 58.593 13.2742 58.5212 13.5509C58.4494 13.8277 58.6109 14.1596 58.5212 14.4313C58.4314 14.7029 58.6481 15.0963 58.5385 15.361C58.4288 15.6256 58.309 15.9056 58.1814 16.1618C58.0538 16.4181 57.4383 16.4098 57.2935 16.6565C57.1492 16.9019 57.3383 17.3568 57.1761 17.5926C57.0146 17.8271 56.7152 17.9674 56.537 18.1916C56.3594 18.414 56.2446 18.6952 56.0504 18.9067C55.8581 19.1155 55.5638 19.2289 55.3548 19.4263C55.1484 19.6217 55.0278 19.9203 54.8054 20.1029C54.5861 20.2829 54.1085 20.1176 53.8739 20.2848L53.8751 20.2861Z" fill="#8EE07E"/>
<path d="M93.9289 41.368C94.2206 41.6653 93.5192 41.9965 93.5038 42.4129C93.4884 42.8293 93.9359 42.846 93.9205 43.2617C93.9052 43.6775 93.7872 43.6737 93.7718 44.0907C93.7564 44.5078 93.3852 44.4937 93.3698 44.9107C93.3545 45.3278 93.3782 45.3284 93.3634 45.7455C93.3487 46.1625 93.7571 46.1773 93.7417 46.5937C93.7263 47.0101 93.2301 46.9915 93.2147 47.4079C93.1993 47.8243 93.6981 47.8423 93.6827 48.2587C93.6673 48.6751 93.7244 48.677 93.7096 49.0934C93.6949 49.5099 93.2814 49.4945 93.266 49.9109C93.2506 50.3273 93.4923 50.3363 93.4769 50.7527C93.4615 51.1691 93.357 51.1653 93.3416 51.5817C93.3262 51.9981 93.2006 51.9936 93.1852 52.4107C93.1698 52.8277 93.1365 52.8264 93.1211 53.2435C93.1057 53.6605 93.0461 53.658 93.0307 54.075C93.0153 54.4921 93.1692 54.4972 93.1538 54.9136C93.1384 55.33 93.1884 55.332 93.173 55.7484C93.1576 56.1648 93.1301 56.1635 93.1147 56.5799C93.0993 56.9963 92.9884 56.9925 92.973 57.4089C92.9576 57.8253 92.964 57.826 92.9486 58.2424C92.9333 58.6588 92.8256 58.6556 92.8102 59.0726C92.7948 59.4897 93.0967 59.5006 93.0814 59.9176C93.066 60.3347 93.0692 60.3341 93.0538 60.7505C93.0384 61.1669 93.1089 61.1688 93.0935 61.5846C93.0781 62.0003 93.1807 62.0036 93.1653 62.4193C93.1499 62.8351 92.8332 62.8229 92.8179 63.2381C92.8025 63.6532 93.0922 63.6641 93.0769 64.0792C93.0615 64.4943 92.889 64.4879 92.8736 64.9037C92.8582 65.3195 92.8365 65.3188 92.8211 65.734C92.8057 66.1491 92.8211 66.1504 92.8057 66.5668C92.7903 66.9832 92.973 66.9903 92.9576 67.4073C92.9422 67.8244 92.7172 67.8167 92.7018 68.2344C92.6864 68.6521 92.6717 68.6508 92.6563 69.0678C92.6409 69.4849 92.6339 69.4843 92.6185 69.9C92.6031 70.3158 92.7608 70.3222 92.7461 70.738C92.7313 71.1538 92.7666 71.1557 92.7512 71.5715C92.7358 71.9872 92.7275 71.9879 92.7121 72.4043C92.6967 72.8207 92.5742 72.8169 92.5589 73.2339C92.5435 73.651 92.321 73.6433 92.3056 74.061C92.2902 74.4787 92.4294 74.4831 92.414 74.9002C92.3986 75.3173 92.5448 75.3224 92.5294 75.7388C92.514 76.1552 92.2287 76.145 92.2133 76.562C92.1979 76.9791 92.6121 76.9951 92.5967 77.4128C92.5813 77.8305 92.1639 77.8151 92.1486 78.2328C92.1332 78.6505 92.5973 78.6671 92.5819 79.0842C92.5665 79.5012 92.1402 79.4859 92.1248 79.9036C92.1094 80.3213 92.514 80.3366 92.4986 80.7543C92.4832 81.172 92.5287 81.1733 92.5133 81.591C92.498 82.0087 92.1922 81.9978 92.1768 82.4155C92.1614 82.8332 92.2761 82.8377 92.2607 83.2554C92.2454 83.6731 92.0921 83.6679 92.0768 84.0856C92.0614 84.5033 91.9537 84.4989 91.9383 84.9159C91.9229 85.333 92.346 85.3483 92.3306 85.7654C92.3152 86.1824 92.2107 86.1799 92.1954 86.5982C92.18 87.0166 91.7652 87.0005 91.7498 87.4182C91.7344 87.8359 92.1575 87.8519 92.1421 88.2703C92.1268 88.6886 91.9646 88.6828 91.9485 89.1018C91.9325 89.5208 91.8293 89.5163 91.8139 89.934C91.7985 90.3517 91.8697 90.3556 91.8543 90.7745C91.8389 91.1935 91.603 91.1858 91.5876 91.6054C91.5722 92.025 91.5972 92.0283 91.585 92.4479C91.585 92.665 91.6915 92.8483 91.6267 93.0514C91.6254 93.0552 91.6479 93.0629 91.6466 93.0667C91.5453 93.4069 91.5818 93.8758 91.3356 94.1289C91.1318 94.3435 90.8016 94.5075 90.5208 94.6254C90.2535 94.7381 89.9092 94.9278 89.5976 94.9278C89.1758 94.9278 89.1758 94.8381 88.754 94.8381C88.3321 94.8381 88.3321 94.405 87.9109 94.405C87.4897 94.405 87.4897 94.7253 87.0679 94.7253C86.646 94.7253 86.6467 94.9765 86.2248 94.9765C85.803 94.9765 85.8036 94.9553 85.3818 94.9553C84.96 94.9553 84.96 94.3698 84.5388 94.3698C84.1176 94.3698 84.1169 94.7125 83.6951 94.7125C83.2732 94.7125 83.2732 94.528 82.8514 94.528C82.4296 94.528 82.4289 94.8816 82.0071 94.8816C81.5852 94.8816 81.5852 94.8708 81.1628 94.8708C80.7403 94.8708 80.7409 94.9572 80.3191 94.9572C79.8972 94.9572 79.8972 94.544 79.4754 94.544C79.0535 94.544 79.0536 94.5472 78.6324 94.5472C78.2112 94.5472 78.2105 94.8406 77.7887 94.8406C77.3668 94.8406 77.3668 94.4985 76.945 94.4985C76.5231 94.4985 76.5225 94.7779 76.1007 94.7779C75.6788 94.7779 75.6782 94.995 75.2563 94.995C74.8345 94.995 74.8345 94.8201 74.4127 94.8201C73.9908 94.8201 73.9915 94.9156 73.5709 94.9156C73.1503 94.9156 73.1503 94.5684 72.7298 94.5684C72.3092 94.5684 72.3092 94.9143 71.8887 94.9143C71.4681 94.9143 71.4681 94.7394 71.0476 94.7394C70.627 94.7394 70.627 94.9182 70.2064 94.9182C69.7859 94.9182 69.7859 94.9547 69.3647 94.9547C68.9435 94.9547 68.9435 94.7798 68.5223 94.7798C68.1011 94.7798 68.1004 94.6299 67.6786 94.6299C67.2568 94.6299 67.2561 94.5946 66.833 94.5946C66.4099 94.5946 66.4112 94.8554 65.9887 94.8554C65.5662 94.8554 65.5668 94.8503 65.1456 94.8503C64.7244 94.8503 64.7244 94.3775 64.3026 94.3775C63.8808 94.3775 63.8814 94.4486 63.4596 94.4486C63.0377 94.4486 63.0377 94.8579 62.6159 94.8579C62.194 94.8579 62.1934 94.7285 61.7709 94.7285C61.3484 94.7285 61.3478 94.6952 60.9253 94.6952C60.5028 94.6952 60.5028 94.528 60.081 94.528C59.6591 94.528 59.6591 94.9547 59.2373 94.9547C58.8155 94.9547 58.8148 94.8227 58.393 94.8227C57.9711 94.8227 57.9699 94.7606 57.5474 94.7606C57.1249 94.7606 57.1249 94.7811 56.7018 94.7811C56.2787 94.7811 56.2793 94.6382 55.8568 94.6382C55.4343 94.6382 55.4343 94.6075 55.0112 94.6075C54.5881 94.6075 54.5881 94.4825 54.165 94.4825C53.7418 94.4825 53.7425 94.9105 53.3194 94.9105C52.8962 94.9105 52.8962 94.5133 52.4731 94.5133C52.05 94.5133 52.05 94.43 51.6269 94.43C51.2037 94.43 51.2037 94.9175 50.7806 94.9175C50.3575 94.9175 50.3581 94.8528 49.9363 94.8528C49.5145 94.8528 49.5138 94.3858 49.092 94.3858C48.6701 94.3858 48.6682 94.4748 48.2451 94.4748C47.822 94.4748 47.822 94.5408 47.3995 94.5408C46.977 94.5408 46.9757 94.7958 46.5526 94.7958C46.1295 94.7958 46.1288 94.6657 45.7044 94.6657C45.28 94.6657 45.2813 94.4287 44.8575 94.4287C44.4338 94.4287 44.4331 94.7599 44.0087 94.7599C43.5843 94.7599 43.5837 94.578 43.1586 94.578C42.7336 94.578 42.7336 94.7689 42.3085 94.7689C42.0329 94.7689 41.8303 94.4704 41.5867 94.3794C41.3341 94.2852 41.2046 94.1231 41.0052 93.9502C40.8045 93.7759 40.5564 93.7067 40.4289 93.4716C40.2551 93.1603 40.05 92.838 40.05 92.4543C40.0442 92.2185 39.7538 92.2307 39.7442 91.9949C39.7275 91.576 40.2314 91.5561 40.216 91.1365C40.2006 90.7169 39.8826 90.7284 39.8673 90.3088C39.8519 89.8892 39.7987 89.8911 39.7833 89.4708C39.7679 89.0506 39.7211 89.0525 39.7057 88.6329C39.6903 88.2133 39.6762 88.2139 39.6602 87.7943C39.6442 87.3747 39.8096 87.3689 39.7942 86.9493C39.7788 86.5297 39.5986 86.5367 39.5833 86.1171C39.5679 85.6975 39.8044 85.6892 39.789 85.2702C39.7737 84.8512 40.0551 84.8403 40.0397 84.4213C40.0243 84.0024 39.6281 84.0165 39.6127 83.5975C39.5974 83.1785 39.5512 83.1798 39.5358 82.7602C39.5204 82.3405 39.7897 82.3303 39.7743 81.9107C39.7589 81.4911 39.5954 81.4968 39.5801 81.0766C39.5647 80.6563 39.6736 80.6525 39.6576 80.2329C39.6416 79.8132 39.5429 79.8171 39.5268 79.3975C39.5108 78.9779 39.5467 78.9766 39.5313 78.557C39.5159 78.1373 39.6954 78.1309 39.6801 77.7113C39.6647 77.2917 39.2242 77.3077 39.2089 76.8887C39.1935 76.4698 39.4493 76.4595 39.4339 76.0399C39.4185 75.6203 39.6672 75.6107 39.6519 75.191C39.6365 74.7714 39.1595 74.7887 39.1441 74.3685C39.1287 73.9482 39.5236 73.9341 39.5082 73.5145C39.4929 73.0949 39.0479 73.1122 39.0326 72.6932C39.0172 72.2742 39.3005 72.2646 39.2851 71.8456C39.2698 71.4267 39.5191 71.4183 39.5038 71C39.4884 70.5817 39.5563 70.5791 39.5409 70.1608C39.5256 69.7424 39.48 69.7444 39.4647 69.326C39.4493 68.9077 39.5224 68.9045 39.507 68.4861C39.4916 68.0678 39.4146 68.0697 39.3993 67.6508C39.3839 67.2318 39.1499 67.2395 39.1345 66.8199C39.1191 66.4002 38.8062 66.4105 38.7909 65.9902C38.7755 65.57 39.0704 65.5597 39.0544 65.1395C39.0383 64.7192 39.2268 64.7134 39.2114 64.2938C39.196 63.8742 39.2768 63.8716 39.2614 63.4527C39.246 63.0337 38.8479 63.0478 38.8325 62.6288C38.8171 62.2098 39.0896 62.1989 39.0742 61.78C39.0588 61.361 39.0454 61.3603 39.03 60.9401C39.0146 60.5198 38.7434 60.5294 38.7274 60.1085C38.7114 59.6877 39.1839 59.671 39.1685 59.2514C39.1531 58.8318 38.6075 58.8516 38.5921 58.432C38.5767 58.0124 39.0063 57.9964 38.9909 57.5761C38.9755 57.1559 38.9332 57.1571 38.9178 56.7362C38.9024 56.3153 38.7139 56.3224 38.6979 55.9021C38.6819 55.4819 38.6537 55.4832 38.6383 55.0629C38.6229 54.6426 38.528 54.6458 38.5126 54.2256C38.4972 53.8053 38.4947 53.8047 38.4793 53.3838C38.4639 52.9629 38.5915 52.9584 38.5761 52.5381C38.5607 52.1179 38.6748 52.1128 38.6594 51.6919C38.6441 51.271 38.3588 51.2819 38.3434 50.861C38.328 50.4401 38.6017 50.4298 38.5857 50.0089C38.5697 49.588 38.7518 49.5823 38.7364 49.162C38.721 48.7417 38.6665 48.7443 38.6511 48.324C38.6357 47.9038 38.1158 47.9217 38.1004 47.5002C38.085 47.0786 38.1126 47.0786 38.0972 46.6577C38.0818 46.2368 38.4902 46.2215 38.4748 45.7999C38.4594 45.3784 38.3729 45.3816 38.3575 44.9594C38.3421 44.5372 38.3645 44.5372 38.3491 44.1163C38.3338 43.6954 37.9991 43.7063 37.9837 43.2842C37.9683 42.862 38.4408 42.844 38.4254 42.4212C38.4101 41.9984 37.7484 41.7389 38.0408 41.4327C38.3306 41.1297 38.6178 41.3847 39.037 41.3847C39.4563 41.3847 39.4563 41.6102 39.8762 41.6102C40.2962 41.6102 40.2955 41.8626 40.7154 41.8626C41.1353 41.8626 41.1347 41.6614 41.5546 41.6614C41.9745 41.6614 41.9745 41.3168 42.3938 41.3168C42.8131 41.3168 42.8137 41.3674 43.233 41.3674C43.6523 41.3674 43.6529 41.5391 44.0728 41.5391C44.4928 41.5391 44.4928 41.4949 44.9133 41.4949C45.3339 41.4949 45.3339 41.6307 45.7544 41.6307C46.175 41.6307 46.175 41.2655 46.5956 41.2655C47.0161 41.2655 47.0155 41.8972 47.436 41.8972C47.8566 41.8972 47.8559 41.4442 48.2759 41.4442C48.6958 41.4442 48.6958 41.5397 49.1157 41.5397C49.5356 41.5397 49.5356 41.5263 49.9555 41.5263C50.3754 41.5263 50.3754 41.8344 50.7954 41.8344C51.2153 41.8344 51.2153 41.3033 51.6352 41.3033C52.0551 41.3033 52.0551 41.5115 52.4757 41.5115C52.8962 41.5115 52.8962 41.8671 53.3161 41.8671C53.7361 41.8671 53.7367 41.3469 54.1573 41.3469C54.5778 41.3469 54.5778 41.3667 54.9984 41.3667C55.4189 41.3667 55.4183 41.7351 55.8389 41.7351C56.2594 41.7351 56.2588 41.6255 56.6793 41.6255C57.0999 41.6255 57.0993 41.4423 57.5192 41.4423C57.9391 41.4423 57.9391 41.5954 58.3596 41.5954C58.7802 41.5954 58.7802 41.7005 59.2001 41.7005C59.62 41.7005 59.6207 41.8017 60.0412 41.8017C60.4618 41.8017 60.4618 41.5519 60.8824 41.5519C61.3029 41.5519 61.3029 41.5211 61.7228 41.5211C62.1427 41.5211 62.1421 41.5794 62.5614 41.5794C62.9807 41.5794 62.9807 41.4609 63.3993 41.4609C63.8179 41.4609 63.8179 41.3763 64.2372 41.3763C64.6565 41.3763 64.6558 41.5077 65.0751 41.5077C65.4944 41.5077 65.4937 41.3059 65.913 41.3059C66.3323 41.3059 66.3323 41.7665 66.7516 41.7665C67.1709 41.7665 67.1715 41.6211 67.5908 41.6211C68.0101 41.6211 68.0113 41.8325 68.4312 41.8325C68.8512 41.8325 68.8524 41.2674 69.2736 41.2674C69.6948 41.2674 69.6942 41.7844 70.1148 41.7844C70.5353 41.7844 70.5347 41.6115 70.9546 41.6115C71.3745 41.6115 71.3745 41.4859 71.7944 41.4859C72.2144 41.4859 72.2143 41.7755 72.6343 41.7755C73.0542 41.7755 73.0542 41.8754 73.4747 41.8754C73.8953 41.8754 73.8953 41.6768 74.3165 41.6768C74.7377 41.6768 74.7377 41.4724 75.1589 41.4724C75.5801 41.4724 75.5795 41.3795 76 41.3795C76.4206 41.3795 76.4206 41.3751 76.8405 41.3751C77.2604 41.3751 77.261 41.8921 77.6816 41.8921C78.1022 41.8921 78.1028 41.7043 78.524 41.7043C78.9452 41.7043 78.9452 41.4468 79.3664 41.4468C79.7876 41.4468 79.787 41.9042 80.2082 41.9042C80.6294 41.9042 80.6294 41.8671 81.0506 41.8671C81.4718 41.8671 81.4724 41.4 81.8936 41.4C82.3148 41.4 82.3148 41.7069 82.736 41.7069C83.1572 41.7069 83.1578 41.7236 83.579 41.7236C84.0002 41.7236 84.0002 41.4987 84.4214 41.4987C84.8426 41.4987 84.8433 41.6806 85.2645 41.6806C85.6857 41.6806 85.685 41.8543 86.1056 41.8543C86.5262 41.8543 86.5262 41.4436 86.9467 41.4436C87.3673 41.4436 87.3686 41.6089 87.7904 41.6089C88.2122 41.6089 88.2116 41.6986 88.6328 41.6986C89.054 41.6986 89.0546 41.6018 89.4765 41.6018C89.8983 41.6018 89.899 41.3821 90.3214 41.3821C90.7439 41.3821 90.7433 41.8197 91.1651 41.8197C91.587 41.8197 91.5876 41.7364 92.0107 41.7364C92.4338 41.7364 92.421 41.6095 92.8236 41.4801C93.3775 41.302 93.6314 41.0637 93.9276 41.3661L93.9289 41.368Z" fill="#0E5249"/>
<path d="M81.5117 19.7248C81.3322 19.8535 80.911 19.8945 80.6904 20.0816C80.5097 20.2353 80.4385 20.5505 80.2404 20.744C80.066 20.9138 80.0417 21.2373 79.8602 21.4391C79.6955 21.623 79.5563 21.8241 79.3909 22.0355C79.2409 22.229 78.8614 22.2598 78.7146 22.4769C78.5761 22.6813 78.6082 22.9978 78.4755 23.2233C78.3504 23.436 78.1831 23.6249 78.0664 23.8575C77.9549 24.0792 77.8433 24.3021 77.7408 24.5423C77.6433 24.771 77.3125 24.9197 77.226 25.1657C77.1413 25.4091 77.0106 25.6462 76.9439 25.8845C76.8746 26.1324 77.2433 26.4835 77.1914 26.725C77.1369 26.9774 76.9625 27.1933 76.9253 27.4367C76.8862 27.6923 77.0381 27.9537 77.0157 28.1972C76.992 28.4553 76.6426 28.6808 76.6355 28.9237C76.6272 29.2023 76.8907 29.4669 76.8997 29.7238C76.9093 30.005 76.7169 30.2812 76.7419 30.5336C76.7708 30.8193 76.8663 31.0762 76.9067 31.319C76.9561 31.6156 77.1247 32.0813 77.1779 32.3043C76.924 32.2345 76.4541 32.1762 76.1932 32.0999C75.9406 32.0256 75.7149 31.8366 75.4553 31.7559C75.2033 31.6777 74.9212 31.6739 74.6635 31.5893C74.4122 31.5067 74.2558 31.1306 73.9987 31.041C73.7487 30.9538 73.5076 30.8398 73.2525 30.7456C73.0031 30.654 72.6126 30.9256 72.3594 30.8276C72.1113 30.7322 72.0132 30.2498 71.7613 30.1473C71.5157 30.048 71.3196 29.8468 71.0804 29.7456C70.8362 29.6418 70.5496 29.6514 70.313 29.5463C70.0707 29.4381 69.7014 29.6155 69.4662 29.506C69.2257 29.3939 69.1629 28.9192 68.9302 28.8058C68.6911 28.6898 68.3507 28.7898 68.1199 28.6725C67.8833 28.5527 67.748 28.2484 67.5198 28.128C67.2852 28.0043 67.1807 28.0216 66.9543 27.8986C67.1326 27.766 67.0377 27.5553 67.2608 27.365C67.4429 27.2093 67.9295 27.3445 68.1295 27.1478C68.3051 26.9761 68.3539 26.643 68.5366 26.438C68.7026 26.2516 68.8385 26.0177 69.0046 25.8031C69.1546 25.6116 69.1129 25.2752 69.2591 25.06C69.3963 24.8575 69.5367 24.6609 69.6681 24.4373C69.7918 24.2265 69.9438 24.0324 70.0598 23.8024C70.1707 23.5827 70.4951 23.4545 70.5964 23.2162C70.6932 22.9894 70.8048 22.7524 70.8913 22.509C70.9772 22.2655 70.7214 21.9209 70.7887 21.6825C70.8593 21.4346 71.0663 21.2341 71.1189 20.9939C71.174 20.7408 71.3741 20.5191 71.4112 20.2757C71.4503 20.0201 71.0868 19.728 71.1093 19.4839C71.133 19.2257 71.6581 19.0072 71.6651 18.7644C71.6734 18.4845 71.7587 18.1975 71.7491 17.9399C71.7388 17.6581 71.0945 17.4332 71.0689 17.1808C71.04 16.8944 71.6286 16.5446 71.5882 16.3018C71.5388 16.0039 71.1311 15.733 71.0804 15.5087C71.333 15.5843 71.6209 15.7535 71.8773 15.8342C72.128 15.913 72.4254 15.8579 72.68 15.9418C72.9306 16.0244 73.0665 16.4498 73.3211 16.5376C73.5711 16.6241 73.8788 16.5485 74.132 16.6401C74.3801 16.7291 74.6988 16.635 74.9501 16.7291C75.1982 16.8227 75.5072 16.7721 75.7585 16.8707C76.0053 16.9675 76.1207 17.4044 76.3708 17.5062C76.6163 17.6062 76.9323 17.5312 77.1728 17.6331C77.4177 17.7369 77.7459 17.6491 77.9857 17.7542C78.2286 17.8605 78.3896 18.1533 78.6274 18.2609C78.8685 18.3705 79.1127 18.4717 79.348 18.5825C79.5878 18.6953 79.7378 18.9912 79.9718 19.1053C80.2096 19.2212 80.543 19.1411 80.7751 19.2577C81.0116 19.3769 81.2809 19.6037 81.511 19.7241L81.5117 19.7248Z" fill="#E5DFD8"/>
<path d="M80.7371 10.7078C80.7397 11.0262 80.5083 11.2748 80.4679 11.5906C80.4275 11.9064 80.5198 12.2287 80.4365 12.5355C80.3531 12.8424 80.5506 13.2627 80.4249 13.5548C80.3339 13.7656 79.9024 13.8149 79.7922 14.0148C79.6819 14.2146 79.6896 14.2768 79.5556 14.4645C79.1389 14.403 79.085 14.6182 78.6959 14.4568C78.3068 14.2954 78.2747 14.369 77.8843 14.207C77.4938 14.0449 77.5413 13.9148 77.2124 13.6496C77.3714 13.4728 77.4753 13.3049 77.6015 13.107C77.7278 12.909 77.6163 12.606 77.7105 12.3888C77.8336 12.1063 78.2106 11.9224 78.2709 11.6188C78.3311 11.3151 78.3093 10.9839 78.3061 10.6764C78.6844 10.5291 78.719 10.8833 79.1254 10.8801C79.5319 10.8769 79.5133 10.5105 79.9185 10.4714C80.3236 10.4323 80.3563 10.563 80.7371 10.7078Z" fill="#8EE07E"/>
<path d="M79.6024 32.3754C79.8717 32.4869 80.1333 32.5356 80.2685 32.7476C80.4173 32.9814 80.6102 33.2819 80.5769 33.5426C80.5442 33.797 80.4288 34.2089 80.2031 34.3953C79.8775 34.6631 79.5717 34.2922 79.246 34.56C79.0473 34.7246 78.8504 34.7996 78.6241 34.92C78.3978 35.0405 78.3273 35.5011 78.0811 35.5767C77.8369 35.6516 77.5465 35.5574 77.2894 35.5869C77.0361 35.6164 76.7887 35.5606 76.5297 35.5459C76.2758 35.5312 76.004 35.6426 75.7507 35.5843C75.5033 35.5273 75.327 35.2615 75.0866 35.1622C74.7141 35.0078 74.5827 35.3249 74.2096 35.1705C73.8364 35.0161 73.8198 35.0565 73.4466 34.9014C73.0735 34.7464 73.2203 34.3889 72.8453 34.2332C72.4703 34.0776 72.3959 34.2595 72.0221 34.1045C71.6484 33.9494 71.6176 34.0225 71.2438 33.8674C70.8701 33.7124 70.9111 33.6093 70.5361 33.4536C70.161 33.2979 70.1572 33.3088 69.7822 33.1538C69.4071 32.9987 69.536 32.688 69.1603 32.533C68.7846 32.378 68.7186 32.5362 68.3429 32.3805C67.9672 32.2249 67.8826 32.4299 67.5075 32.2742C67.1325 32.1185 67.112 32.1672 66.7363 32.0109C66.3606 31.8546 66.4305 31.6835 66.0542 31.5272C65.6779 31.3709 65.7734 31.1409 65.3964 30.9846C65.156 30.8846 64.8412 30.9961 64.6265 30.8616C64.4066 30.7238 64.3207 30.4484 64.1309 30.2786C63.9379 30.1063 63.586 30.1063 63.4283 29.9058C63.268 29.7033 62.8917 29.6053 62.7724 29.3798C62.6519 29.1524 63.0942 28.6905 63.0192 28.4451C62.9442 28.1997 62.4634 28.0485 62.4378 27.7917C62.3974 27.3752 62.7538 27.3413 62.7147 26.9249C62.6878 26.6334 62.6878 26.4873 62.8449 26.2836C63.0058 26.0747 63.0808 25.6551 63.3513 25.5943C63.5975 25.5392 64.0232 25.5071 64.2925 25.6186C64.5239 25.7551 64.6156 26.1747 64.8566 26.3118C65.0906 26.4457 65.4605 26.3438 65.7035 26.4777C65.9394 26.6084 65.9728 27.119 66.217 27.2497C66.4549 27.3772 66.6619 27.5777 66.9075 27.7052C67.1473 27.8294 67.4922 27.7609 67.7396 27.8845C67.9813 28.0056 68.3262 27.9223 68.575 28.0428C68.8186 28.1607 68.9885 28.4393 69.2391 28.5566C69.4847 28.6712 69.7495 28.75 70.0014 28.8634C70.2489 28.9749 70.6188 28.8109 70.8727 28.9211C71.122 29.0294 71.1605 29.6354 71.4157 29.7424C71.683 29.8545 72.0664 29.6815 72.3305 29.7879C72.5991 29.8955 72.7697 30.2479 73.0351 30.3504C73.305 30.4541 73.721 30.1633 73.9865 30.2613C74.2576 30.3612 74.5096 30.4996 74.7763 30.5938C75.0494 30.6899 75.3186 30.7802 75.5873 30.8705C75.8629 30.9634 76.0931 31.1774 76.363 31.2639C76.6387 31.3523 76.822 31.729 77.0919 31.8116C77.3695 31.8962 77.7054 31.779 77.9766 31.8571C78.2549 31.9378 78.544 31.966 78.8152 32.0404C79.0947 32.1172 79.3319 32.3043 79.6031 32.3748L79.6024 32.3754Z" fill="#FF5C5C"/>
<path d="M85.532 20.5864C85.5538 20.8843 85.6923 21.1764 85.5352 21.3917C85.3724 21.6146 85.0653 21.6704 84.7941 21.744C84.5396 21.8132 84.1813 22.0605 83.9043 21.9458C83.662 21.7959 83.6286 21.2584 83.3735 21.1066C83.1279 20.9605 82.9003 20.7645 82.6433 20.6172C82.3952 20.4749 81.9977 20.5851 81.7387 20.4423C81.488 20.3045 81.086 20.4423 80.8258 20.3045C80.5725 20.1706 80.5392 19.6075 80.2763 19.4736C80.0205 19.3436 79.7942 19.1399 79.5295 19.0111C79.2711 18.8849 78.8377 19.1142 78.5704 18.9899C78.3101 18.8682 77.9761 18.9067 77.7075 18.7869C77.444 18.669 77.2638 18.3621 76.9927 18.2468C76.7272 18.1334 76.4779 17.9765 76.2054 17.8656C75.9522 17.7625 75.6213 17.8695 75.372 17.7721C75.1174 17.6734 74.8924 17.5158 74.6424 17.423C74.3872 17.3281 74.2725 16.8547 74.0212 16.7657C73.7641 16.6747 73.4307 16.8124 73.1781 16.7272C72.9198 16.6401 72.6678 16.5446 72.414 16.4639C72.153 16.3806 71.9402 16.1519 71.685 16.0751C71.4241 15.9963 71.1189 16.077 70.8638 16.0039C70.6009 15.929 70.2913 16.0449 70.0355 15.9758C69.772 15.9046 69.4957 15.9168 69.2393 15.8521C68.9745 15.7848 68.8027 15.3793 68.5462 15.3185C68.2693 15.2038 68.2026 14.9565 68.0705 14.7278C67.9295 14.4837 68.0135 14.3325 68.0564 14.059C68.0975 13.7969 68.1109 13.7002 68.3385 13.5035C68.6719 13.2172 68.3924 12.893 68.7257 12.6066C68.9258 12.4343 69.2354 12.3882 69.4611 12.2588C69.6887 12.1281 69.988 12.1806 70.2342 12.0948C70.4804 12.0089 70.683 11.7777 70.9414 11.7386C71.1997 11.6995 71.4568 11.9641 71.7196 11.9724C71.9793 11.9807 72.3043 11.499 72.562 11.5547C72.8146 11.6092 72.8954 12.2203 73.1403 12.3222C73.5128 12.4766 73.6083 12.2466 73.9808 12.4016C74.3533 12.5567 74.3052 12.6733 74.6783 12.8283C75.0514 12.9833 75.0001 13.1108 75.3752 13.2659C75.7502 13.4209 75.7662 13.3805 76.14 13.5356C76.5138 13.6906 76.6856 13.2774 77.06 13.4324C77.4344 13.5875 77.3953 13.6842 77.7703 13.8399C78.1453 13.9955 78.0889 14.1294 78.464 14.2851C78.839 14.4408 78.8345 14.4517 79.2096 14.6074C79.5846 14.763 79.557 14.8309 79.9327 14.9866C80.3084 15.1423 80.47 14.7509 80.845 14.9059C81.22 15.0609 81.1873 15.1416 81.563 15.2973C81.9387 15.453 81.9169 15.5087 82.2932 15.665C82.6696 15.8214 82.5041 16.2211 82.8805 16.3768C83.1254 16.478 83.4735 16.3185 83.6915 16.4582C83.9133 16.601 84.1043 16.7778 84.2941 16.9553C84.4858 17.1347 84.7345 17.2698 84.889 17.48C85.0435 17.6901 85.2192 17.9105 85.3327 18.1456C85.4461 18.3807 85.3141 18.7061 85.382 18.9598C85.4493 19.2103 85.7385 19.4531 85.7577 19.7171C85.6801 20.1623 85.4993 20.1482 85.532 20.5864Z" fill="#FF5C5C"/>
<path d="M36.2047 30.4663C36.4727 30.5361 36.7804 30.3689 37.0016 30.5112C37.2305 30.6585 37.2068 31.0083 37.3754 31.2152C37.5453 31.4241 37.7395 31.5317 37.837 31.7828C37.9338 32.0314 38.4005 32.2101 38.4152 32.4817C38.43 32.7444 38.4825 33.1038 38.4114 33.3716C38.3037 33.7797 38.1152 33.7297 38.0081 34.1378C37.9011 34.5459 37.9985 34.5715 37.8908 34.9796C37.7831 35.3877 37.7639 35.3825 37.6568 35.7906C37.5497 36.1987 37.1426 36.0917 37.0356 36.4998C36.9285 36.9079 37.3568 37.02 37.2497 37.4275C37.1426 37.8349 37.0183 37.8022 36.9112 38.2097C36.8042 38.6171 36.8484 38.6287 36.7413 39.0361C36.6343 39.4435 36.506 39.4096 36.399 39.817C36.2919 40.2245 36.231 40.2085 36.1239 40.6159C36.0169 41.0234 36.1951 41.0701 36.088 41.4776C35.981 41.885 35.7047 41.8126 35.5976 42.2201C35.4905 42.6275 35.5643 42.6467 35.4572 43.0548C35.3501 43.4629 35.4296 43.4834 35.3226 43.8915C35.2155 44.2996 35.3982 44.3476 35.2912 44.7557C35.1841 45.1638 34.7123 45.0408 34.6052 45.4489C34.4981 45.857 34.5789 45.8781 34.4718 46.2868C34.3648 46.6955 34.4847 46.7263 34.3776 47.1344C34.2705 47.5425 34.2622 47.5399 34.1551 47.948C34.0481 48.3561 34.2821 48.4169 34.175 48.825C34.068 49.2331 33.7609 49.1524 33.6538 49.5598C33.5467 49.9673 33.7666 50.0249 33.6596 50.433C33.5525 50.8411 33.6371 50.8629 33.5301 51.271C33.423 51.6791 33.1845 51.6163 33.0775 52.0244C32.9704 52.4324 32.8441 52.3991 32.737 52.8079C32.63 53.2166 32.5851 53.2044 32.4774 53.6131C32.3697 54.0219 32.5146 54.059 32.4075 54.4677C32.3005 54.8765 32.3767 54.8957 32.2697 55.3038C32.1626 55.7119 31.9229 55.6491 31.8158 56.0572C31.7087 56.4652 32.0145 56.5453 31.9075 56.9534C31.8004 57.3615 32.0851 57.4358 31.978 57.8439C31.8709 58.252 31.3927 58.1264 31.2856 58.5351C31.1785 58.9439 31.0926 58.9208 30.9856 59.3295C30.8785 59.7383 30.9208 59.7491 30.8138 60.1572C30.7067 60.5653 30.9593 60.6313 30.8522 61.0387C30.7452 61.4462 30.7208 61.4398 30.6137 61.8466C30.5067 62.2534 30.4503 62.2387 30.3432 62.6455C30.2361 63.0523 29.9951 62.9888 29.8887 63.3956C29.7822 63.8025 30.0419 63.8704 29.9348 64.2772C29.8278 64.684 29.7419 64.6615 29.6354 65.0684C29.529 65.4752 29.8739 65.5661 29.7675 65.9736C29.6611 66.381 29.186 66.2567 29.079 66.6648C28.9719 67.0729 29.2245 67.1395 29.1174 67.5476C29.0104 67.9557 29.2912 68.0307 29.1835 68.4394C29.0758 68.8481 28.8879 68.7981 28.7808 69.2069C28.6738 69.6156 28.3725 69.5355 28.2654 69.9436C28.1583 70.3517 28.1936 70.3606 28.0865 70.7681C27.9795 71.1755 28.4257 71.2928 28.3186 71.7002C28.2116 72.1077 27.907 72.0282 27.8 72.4363C27.6929 72.8444 27.8442 72.8848 27.7371 73.2935C27.6301 73.7022 27.7884 73.7445 27.6814 74.1532C27.5743 74.5619 27.5685 74.56 27.4615 74.9687C27.3544 75.3775 26.7992 75.2314 26.6922 75.6401C26.5851 76.0489 26.6127 76.0559 26.5056 76.4646C26.3985 76.8734 26.8037 76.9803 26.6966 77.3891C26.5896 77.7978 26.3434 77.7337 26.2357 78.1425C26.128 78.5512 26.4191 78.6274 26.312 79.0361C26.2049 79.4449 26.3062 79.4718 26.1992 79.8805C26.0921 80.2892 25.6004 80.1611 25.4927 80.5705C25.385 80.9798 25.8222 81.0939 25.7145 81.5026C25.6068 81.9113 25.3414 81.8428 25.2343 82.2521C25.1272 82.6615 25.0529 82.6404 24.9458 83.0478C24.8388 83.4553 25.2055 83.5539 25.0984 83.9633C24.9913 84.3726 24.7311 84.3035 24.624 84.7122C24.5169 85.1209 24.24 85.0485 24.1329 85.4572C24.0258 85.866 24.5548 86.0063 24.447 86.4163C24.3393 86.8263 23.9438 86.7219 23.8361 87.1312C23.7284 87.5406 23.6604 87.5233 23.5527 87.9333C23.445 88.3433 23.9566 88.4778 23.8489 88.8878C23.7412 89.2979 23.6335 89.269 23.5258 89.679C23.4181 90.089 23.2411 90.0436 23.1334 90.4542C23.0257 90.8649 23.1238 90.8911 23.0161 91.303C22.9084 91.715 22.8943 91.7111 22.786 92.1224C22.7154 92.3908 22.6001 92.6753 22.4577 92.8976C22.3103 93.1276 22.0096 93.2435 21.8032 93.4127C21.5942 93.5837 21.3512 93.6772 21.0992 93.7753C20.8505 93.8726 20.6197 94.1648 20.3472 94.1801C20.0844 94.1949 19.8248 93.9265 19.5555 93.856C19.1054 93.7375 19.0753 93.8521 18.6259 93.7336C18.1765 93.6151 18.1829 93.5869 17.7322 93.4684C17.2815 93.3499 17.2354 93.5261 16.7847 93.4075C16.5154 93.3371 16.3013 93.0635 16.0788 92.9219C15.848 92.7752 15.616 92.6061 15.4461 92.3998C15.2743 92.191 15.289 91.8771 15.1903 91.6259C15.0922 91.3767 14.7345 91.1647 14.7191 90.8918C14.7043 90.6285 15.2249 90.4279 15.2961 90.1589C15.4025 89.7534 14.8793 89.6163 14.9858 89.2107C15.0922 88.8052 15.1736 88.8263 15.28 88.4208C15.3865 88.0153 15.3339 88.0006 15.4403 87.5944C15.5467 87.1882 15.8237 87.2613 15.9301 86.8558C16.0365 86.4502 15.7435 86.3727 15.8506 85.9665C15.9577 85.5604 16.2058 85.6276 16.3122 85.2228C16.4186 84.8179 16.6302 84.8717 16.7372 84.4655C16.8443 84.0594 16.4802 83.9646 16.5866 83.5597C16.693 83.1548 16.6488 83.1426 16.7552 82.7371C16.8616 82.3316 17.0129 82.37 17.1193 81.9632C17.2258 81.5564 17.045 81.5096 17.1514 81.1035C17.2578 80.6973 17.2828 80.7031 17.3892 80.2969C17.4957 79.8908 17.7322 79.9516 17.8393 79.5448C17.9463 79.138 18.1182 79.1835 18.2252 78.7767C18.3323 78.3699 17.9258 78.2629 18.0322 77.8561C18.1387 77.4493 18.1137 77.441 18.2214 77.0329C18.3291 76.6248 18.665 76.7696 18.3983 76.4422C18.0342 75.9944 18.0528 76.1417 17.4937 75.995C17.2328 75.9265 17.0071 75.7548 16.7552 75.6638C16.502 75.5716 16.1231 75.7593 15.8814 75.6446C15.6397 75.5299 15.5634 75.0841 15.3326 74.9476C15.1018 74.8112 14.8652 74.6965 14.6473 74.5389C14.4293 74.3813 14.2568 74.1827 14.0543 74.0052C13.8517 73.8278 13.6728 73.6445 13.4875 73.4492C13.3023 73.2538 13.0817 73.1032 12.915 72.8918C12.7483 72.6804 12.5022 72.5286 12.356 72.3024C12.2105 72.0776 12.0887 71.8335 11.9643 71.5945C11.8393 71.3562 11.5598 71.1787 11.4585 70.9315C11.3565 70.6829 11.327 70.3914 11.2488 70.1364C11.1706 69.8815 11.2636 69.5739 11.2097 69.3119C11.1559 69.0499 11.3527 68.7603 11.3225 68.4945C11.2924 68.2286 11.1193 67.989 11.1142 67.7206C11.1091 67.4522 11.0514 67.1908 11.0706 66.923C11.0898 66.6552 10.9719 66.3701 11.0161 66.1049C11.0597 65.8416 11.1924 65.5898 11.2604 65.3291C11.3687 64.9172 11.3463 64.9114 11.4546 64.4995C11.563 64.0875 11.5412 64.0818 11.6495 63.6698C11.7579 63.2579 11.7264 63.2489 11.8348 62.8364C11.9431 62.4238 11.8861 62.4091 11.9944 61.9971C12.1028 61.5852 12.1957 61.6089 12.3041 61.1963C12.4124 60.7838 12.2509 60.7415 12.3592 60.3289C12.4675 59.9164 12.9804 60.0509 13.0888 59.6383C13.1971 59.2257 13.1804 59.2225 13.2881 58.8106C13.3959 58.3987 12.9791 58.2898 13.0875 57.8778C13.1958 57.4659 13.4093 57.521 13.5177 57.1078C13.626 56.6946 13.7529 56.7286 13.8613 56.3166C13.9696 55.9047 14.0716 55.9303 14.1806 55.5177C14.2895 55.1052 14.0799 55.0494 14.1889 54.6362C14.2979 54.223 14.2665 54.2153 14.3754 53.8028C14.4844 53.3902 14.3645 53.3575 14.4735 52.9443C14.5825 52.5311 14.68 52.5554 14.789 52.141C14.8979 51.7265 14.7062 51.6765 14.8152 51.262C14.8832 51.0019 15.3505 50.8706 15.4416 50.6201C15.5333 50.3677 15.4852 50.0743 15.5993 49.8327C15.7134 49.5899 15.8282 49.3561 15.9641 49.1261C16.1 48.8961 15.9577 48.472 16.1141 48.2549C16.2705 48.0377 16.8757 48.1767 17.052 47.9749C17.2283 47.7731 17.4008 47.6059 17.595 47.4207C17.7893 47.2356 17.588 46.5956 17.7989 46.429C18.0085 46.2638 18.3098 46.1818 18.5349 46.0357C18.7618 45.889 19.2478 46.1933 19.485 46.069C19.7241 45.9434 19.8081 45.5142 20.0562 45.4117C20.3056 45.3092 20.6742 45.5732 20.9306 45.4944C21.1871 45.4156 21.2999 44.78 21.5628 44.7243C21.8256 44.6686 22.1385 44.8127 22.4058 44.7813C22.6731 44.7499 22.9501 44.7941 23.2193 44.7877C23.4886 44.7813 23.7566 44.814 24.0258 44.8332C24.2951 44.8524 24.5522 44.9306 24.8189 44.9742C25.083 45.0177 25.3048 45.2112 25.5658 45.2804C26.1209 45.4277 26.1056 45.3752 26.6389 45.1612C27.0364 45.0017 26.6287 44.9127 26.737 44.4988C26.8454 44.085 27.2903 44.2009 27.3993 43.7871C27.5083 43.3732 27.2582 43.3066 27.3672 42.8921C27.4762 42.4776 27.7102 42.5391 27.8192 42.1246C27.9282 41.7101 27.564 41.614 27.673 41.1995C27.782 40.785 28 40.8421 28.109 40.4276C28.218 40.0131 28.3276 40.0419 28.4366 39.6268C28.5456 39.2116 28.6546 39.2417 28.7635 38.8279C28.8725 38.414 28.4526 38.3038 28.5616 37.89C28.6706 37.4761 28.5648 37.4467 28.6738 37.0315C28.7828 36.6164 29.0104 36.6766 29.1193 36.2621C29.2283 35.8477 29.0264 35.7945 29.136 35.3793C29.2456 34.9642 29.5521 35.0443 29.6617 34.6292C29.7713 34.214 29.4905 34.141 29.5995 33.7259C29.7085 33.3107 30.1047 33.4139 30.2137 32.9981C30.3227 32.5823 30.1278 32.5304 30.2374 32.114C30.347 31.6976 30.2464 31.6713 30.356 31.2543C30.4265 30.9865 30.7638 30.8558 30.9067 30.6342C31.0548 30.4061 31.0305 30.0364 31.2382 29.868C31.4472 29.6982 31.8549 29.9256 32.1068 29.8282C32.3556 29.7315 32.5063 29.3625 32.7787 29.3465C33.0416 29.3317 33.2749 29.5188 33.5429 29.5893C33.9936 29.7078 34.0397 29.5335 34.4904 29.6521C34.9411 29.7706 35.0072 29.6367 35.4207 29.8526C35.8643 30.0838 35.756 30.3478 36.2073 30.4663H36.2047ZM19.4068 73.9982C19.794 73.8496 19.4337 73.3082 19.5395 72.9072C19.6452 72.5061 19.9151 72.5766 20.0209 72.1743C20.1267 71.772 20.0158 71.7425 20.1216 71.3402C20.2274 70.9379 19.819 70.8315 19.9248 70.4298C20.0305 70.0282 19.9453 70.0064 20.0504 69.6047C20.1556 69.203 20.3447 69.253 20.4498 68.8519C20.555 68.4509 20.4582 68.4253 20.5633 68.0242C20.6684 67.6232 20.6883 67.6277 20.7941 67.2267C20.8999 66.8256 21.3063 66.9313 21.4121 66.529C21.5179 66.1267 21.0896 66.0139 21.1954 65.6116C21.3012 65.2093 21.4256 65.2426 21.5313 64.8403C21.6371 64.438 21.5929 64.4271 21.6987 64.0254C21.8045 63.6237 21.9327 63.657 22.0385 63.2553C22.1442 62.8537 22.2051 62.869 22.3109 62.4661C22.4167 62.0631 22.2385 62.017 22.3443 61.6147C22.45 61.2124 22.7263 61.2848 22.8315 60.8831C22.9366 60.4814 22.8635 60.4615 22.9693 60.0592C23.0751 59.6569 22.9956 59.6358 23.1014 59.2328C23.2072 58.8298 23.0245 58.7824 23.1302 58.3801C23.236 57.9778 23.7072 58.1008 23.813 57.6978C23.9188 57.2949 23.8374 57.2757 23.9431 56.8746C24.0489 56.4736 23.929 56.4403 24.0348 56.0373C24.1406 55.6343 24.1489 55.6375 24.2541 55.2352C24.3592 54.8329 24.1259 54.772 24.2316 54.3697C24.3374 53.9674 24.6445 54.0468 24.7503 53.6432C24.8561 53.2396 24.6362 53.1826 24.7419 52.7803C24.8477 52.378 24.7631 52.3549 24.8695 51.9513C24.9759 51.5477 25.2138 51.6099 25.3202 51.2063C25.4266 50.8027 25.5523 50.836 25.6587 50.433C25.7651 50.0301 25.81 50.0409 25.9158 49.6373C26.0216 49.2337 25.878 49.1947 25.9844 48.7898C26.0908 48.3849 26.3735 48.226 26.1081 47.9019C25.7421 47.4553 25.5786 47.4938 25.0202 47.3471C24.7471 47.276 24.3913 47.5297 24.1137 47.4976C23.8342 47.4649 23.5604 47.7462 23.2809 47.752C23.0014 47.7577 22.6821 47.2926 22.4052 47.3375C22.1282 47.3823 21.8025 47.3676 21.5339 47.4502C21.2653 47.5329 20.9858 47.6872 20.7313 47.8064C20.478 47.9243 20.3453 48.2959 20.1088 48.449C19.8568 48.6123 19.6042 48.7725 19.3818 48.9692C19.1574 49.1671 18.9029 49.3433 18.7112 49.5707C18.5195 49.7981 18.1252 49.9173 17.9688 50.171C17.8124 50.4247 17.8995 50.836 17.7816 51.1108C17.6643 51.3831 17.4783 51.6496 17.4021 51.9398C17.2937 52.3517 17.6399 52.4421 17.5316 52.854C17.4232 53.2659 16.9488 53.1423 16.8411 53.5542C16.7334 53.9661 16.986 54.0334 16.8776 54.446C16.7693 54.8585 17.0507 54.9316 16.9424 55.3441C16.834 55.7567 16.6462 55.7074 16.5379 56.1206C16.4295 56.5338 16.1282 56.4544 16.0199 56.8669C15.9115 57.2795 15.9468 57.2891 15.8391 57.7017C15.7314 58.1142 16.1769 58.2302 16.0692 58.6421C15.9615 59.0541 15.6564 58.974 15.5486 59.3859C15.4409 59.7978 15.5922 59.8388 15.4839 60.252C15.3756 60.6653 15.5345 60.7063 15.4262 61.1182C15.3179 61.5301 15.3121 61.5295 15.2037 61.9427C15.0954 62.3559 14.5402 62.2111 14.4319 62.6243C14.3235 63.0375 14.3517 63.0446 14.2434 63.4572C14.135 63.8697 14.5408 63.9773 14.4319 64.3912C14.3229 64.805 14.0773 64.741 13.9683 65.1555C13.8594 65.57 14.1504 65.6462 14.0414 66.0607C13.9645 66.3509 14.0203 66.6277 13.9876 66.9224C13.9549 67.2196 13.4382 67.4932 13.4497 67.7904C13.4612 68.0877 13.9421 68.3311 13.9978 68.6245C14.0536 68.9179 13.8619 69.26 13.9607 69.5432C14.0581 69.8232 14.1107 70.1364 14.2498 70.4023C14.3799 70.6521 14.8441 70.6829 15.0063 70.9103C15.1698 71.139 15.1294 71.5112 15.3223 71.7137C15.5153 71.9161 15.5435 72.33 15.7628 72.5042C15.982 72.6785 16.5244 72.3895 16.7654 72.5324C17.0065 72.6753 17.0661 73.1621 17.3251 73.2704C17.5828 73.378 17.7611 73.4946 18.0335 73.5664C18.5688 74.0488 18.8682 74.207 19.4074 74.0007L19.4068 73.9982Z" fill="#0E5249"/>
<path d="M53.7996 63.0459C54.1675 63.3008 54.156 63.2541 54.4297 63.609C54.7035 63.9639 54.967 63.7615 55.2407 64.117C55.5145 64.4726 55.5203 64.4694 55.7946 64.8256C56.069 65.1817 55.6645 65.7141 56.1133 65.684C56.53 65.6558 56.4344 65.3938 56.5934 65.0081C56.7524 64.6225 56.8736 64.6724 57.032 64.2874C57.1903 63.9024 56.9557 63.805 57.1147 63.4194C57.2736 63.0337 57.0986 62.9632 57.2563 62.5795C57.414 62.1957 57.7724 62.3405 57.9314 61.9549C58.0904 61.5692 58.0699 61.5615 58.2282 61.1765C58.3866 60.7915 57.9923 60.6294 58.1507 60.2444C58.309 59.8593 58.6905 60.015 58.8495 59.6287C59.0084 59.2424 58.7924 59.154 58.9514 58.769C59.1104 58.384 59.0879 58.3737 59.2476 57.9874C59.4072 57.6011 59.1777 57.5069 59.3373 57.12C59.497 56.733 59.8053 56.8612 59.9643 56.4755C60.1233 56.0898 60.2278 56.1315 60.3868 55.7452C60.5458 55.3589 60.6881 55.4159 60.8477 55.0283C61.0074 54.6407 61.0196 54.5619 60.7644 54.2288C60.5112 53.8969 60.5112 54.4902 60.097 54.5453C59.6829 54.6004 59.629 54.1891 59.2155 54.2442C58.802 54.2993 58.811 54.3678 58.3968 54.4229C57.9827 54.478 58.0205 54.7547 57.607 54.8098C57.1935 54.8649 57.1473 54.519 56.7332 54.5741C56.3191 54.6292 56.3633 54.9495 55.9504 55.0046C55.5376 55.0597 55.5029 54.7996 55.0901 54.8547C54.6772 54.9098 54.724 55.2711 54.3099 55.3262C53.8957 55.3813 53.8675 55.1654 53.454 55.2205C53.0405 55.2756 52.9911 54.9091 52.577 54.9642C52.1628 55.0193 52.225 55.4883 51.8109 55.5434C51.3967 55.5985 51.3813 55.4838 50.9678 55.5389C50.5543 55.594 50.5018 55.2128 50.087 55.2679C49.6722 55.323 49.7376 55.8201 49.3221 55.8759C48.9067 55.9316 48.8862 55.5248 48.7131 55.9066C48.5471 56.2731 48.5932 56.2045 48.8388 56.5229C49.0856 56.8432 49.2997 56.6786 49.5465 56.9995C49.7933 57.3205 49.51 57.539 49.7574 57.8599C50.0049 58.1809 50.4434 57.8445 50.6922 58.1661C50.9409 58.4877 50.5736 58.7094 50.7229 59.0874C50.5729 59.3199 50.7274 59.5185 50.5902 59.7568C50.4518 59.9964 50.4261 60.2879 50.3011 60.5333C50.1748 60.7793 49.7818 60.894 49.669 61.1445C49.5561 61.3949 49.7478 61.7736 49.6472 62.0298C49.5465 62.2861 49.3843 62.5116 49.2965 62.773C49.2087 63.0343 49.0747 63.2759 48.9997 63.5411C48.9247 63.8063 48.9997 64.1023 48.9381 64.3707C48.8766 64.6391 48.69 64.8742 48.6413 65.1459C48.5926 65.4175 48.5535 65.6853 48.5182 65.9588C48.4829 66.2324 48.2631 66.4861 48.2413 66.7609C48.2195 67.0357 48.1393 67.3131 48.131 67.5893C48.1227 67.8654 48.156 68.1472 48.1605 68.4234C48.165 68.6995 48.0002 68.9916 48.0188 69.2671C48.0374 69.5426 48.0784 69.8289 48.1098 70.1031C48.1412 70.3773 48.499 70.6111 48.5439 70.8834C48.5887 71.1557 48.5118 71.4517 48.5695 71.7214C48.6272 71.9911 49.0554 72.1666 49.126 72.4331C49.1965 72.6996 49.0292 73.027 49.1131 73.2903C49.1971 73.5536 49.3683 73.781 49.4651 74.0398C49.5619 74.2986 49.7812 74.4966 49.8908 74.7503C50.0004 75.004 49.6376 75.4736 49.7594 75.7221C49.8812 75.9707 50.1267 76.1635 50.2607 76.4057C50.3941 76.6466 50.4742 76.9297 50.6204 77.1648C50.762 77.3936 51.1159 77.4781 51.3134 77.6357C51.5198 77.8004 51.8436 77.6562 52.0865 77.7389C52.3327 77.8228 52.5001 78.0201 52.7597 78.0162C53.0168 78.0124 53.1758 77.8106 53.4219 77.7164C53.6579 77.6267 53.997 77.7734 54.2015 77.5973L54.3028 77.7107C54.5099 77.5319 54.6375 77.2328 54.7618 77.0053C54.8901 76.7709 54.8497 76.4678 54.8868 76.2065C54.924 75.9451 55.1959 75.6363 55.1407 75.3743C55.0869 75.1206 54.5586 75.0443 54.415 74.8131C54.2695 74.5792 54.5304 74.1122 54.4015 73.8713C54.272 73.6285 53.9579 73.4857 53.8457 73.2358C53.7329 72.9847 53.8329 72.656 53.7374 72.3992C53.6418 72.1423 53.2463 71.9879 53.1687 71.7258C53.0911 71.4638 53.4168 71.1006 53.3566 70.8334C53.2963 70.5663 52.8847 70.3735 52.8424 70.1025C52.8001 69.8315 52.6949 69.5611 52.6699 69.2882C52.6449 69.0153 52.9142 68.7251 52.9071 68.4509C52.9001 68.1767 52.8251 67.9096 52.836 67.6354C52.8469 67.3612 53.0149 67.1088 53.0443 66.8359C53.0738 66.563 52.8206 66.2561 52.8674 65.9857C52.9142 65.7154 53.152 65.4867 53.2168 65.2195C53.2815 64.9524 53.1828 64.6436 53.2649 64.3816C53.3469 64.1196 53.7874 63.9934 53.8874 63.7371C53.9868 63.4821 53.6822 63.2938 53.7989 63.0446L53.7996 63.0459Z" fill="#DCFAC8"/>
<path d="M74.7243 59.8497C74.8942 60.0464 74.6948 60.1624 74.8512 60.368C74.4467 60.5698 74.5339 60.6659 74.089 60.746C73.6441 60.8261 73.6492 60.8619 73.203 60.942C72.7568 61.0221 72.8068 61.304 72.36 61.3841C71.9131 61.4641 71.4938 60.8241 71.3092 61.2386C71.1393 61.6192 71.6554 61.6339 71.9246 61.9523C72.1939 62.2707 72.0336 62.4046 72.3016 62.7217C72.5696 63.0388 72.944 62.7223 73.212 63.0395C73.4799 63.3566 73.1344 63.6493 73.403 63.9665C73.6716 64.2836 73.8441 64.1407 74.114 64.4591C74.3839 64.7775 74.2589 64.8826 74.5275 65.2003C74.7961 65.5181 75.0974 65.265 75.366 65.5828C75.6347 65.9005 75.5622 65.964 75.8328 66.2836C76.1033 66.6033 75.927 66.75 76.1969 67.0691C76.4668 67.3881 76.6187 67.26 76.8886 67.579C77.1585 67.898 76.956 68.0672 77.2246 68.3849C77.4945 68.7046 77.7086 68.5239 77.9785 68.8436C78.2484 69.1633 78.0933 69.2953 78.3638 69.6149C78.6343 69.9346 78.928 69.6886 79.1992 70.0096C79.4703 70.3305 79.1068 71.0013 79.521 70.9289C79.9326 70.8578 79.7024 70.476 79.8435 70.0839C79.9845 69.6918 79.9935 69.695 80.1345 69.303C80.2756 68.9109 80.4435 68.9705 80.5846 68.5784C80.7256 68.1863 80.6083 68.1453 80.7493 67.7545C80.8904 67.3638 80.6807 67.2862 80.8218 66.8935C80.9628 66.5008 80.8987 66.479 81.0404 66.087C81.1821 65.6949 81.1712 65.6917 81.3122 65.2996C81.4532 64.9076 81.6731 64.9857 81.8148 64.5924C81.9565 64.199 81.9828 64.2099 82.1245 63.8172C82.2662 63.4245 82.145 63.3809 82.2867 62.9876C82.4283 62.5942 82.1899 62.5084 82.3315 62.115C82.4732 61.7217 82.813 61.8447 82.9547 61.452C83.0964 61.0593 83.1143 61.065 83.256 60.6717C83.3977 60.2783 83.4919 60.311 83.6342 59.9164C83.7766 59.5217 84.0958 59.3327 83.8362 59.0028C83.5874 58.6863 83.3823 59.2789 82.9861 59.3507C82.5899 59.4224 82.5348 59.1111 82.1392 59.1822C81.7437 59.2533 81.7379 59.2258 81.3417 59.2975C80.9455 59.3693 80.9763 59.5467 80.5788 59.6185C80.1813 59.6902 80.2127 59.5941 79.8108 59.5538C79.6755 59.3167 79.5075 59.3129 79.3607 59.0822C79.2139 58.8516 79.2056 58.5236 79.0479 58.3007C78.8901 58.0777 78.4228 58.0854 78.2542 57.8695C78.0856 57.6536 78.2228 57.1892 78.0433 56.9822C77.8548 56.7644 77.5156 56.6786 77.3182 56.4717C77.1194 56.2634 76.7412 56.2462 76.5335 56.0495C76.3245 55.8515 76.3386 55.414 76.1213 55.2282C75.9026 55.0411 75.6751 54.8598 75.4487 54.6856C75.2212 54.51 74.8904 54.4767 74.6551 54.314C74.4198 54.1513 74.2499 53.8867 74.0069 53.7361C73.7639 53.5856 73.4421 53.5689 73.1908 53.4312C72.9395 53.2935 72.6901 53.1628 72.4324 53.0372C72.1747 52.9116 71.9298 52.7681 71.6656 52.6567C71.4015 52.5452 71.2477 52.1416 70.9778 52.0436C70.7079 51.9456 70.3514 52.0891 70.077 52.0051C69.8026 51.9212 69.5276 51.8418 69.2494 51.7719C68.9711 51.7021 68.6781 51.7104 68.3961 51.6547C68.114 51.599 67.887 51.1979 67.6024 51.1569C67.3177 51.1159 66.976 51.558 66.6901 51.5317C66.4042 51.5054 66.1343 51.3626 65.8464 51.3504C65.5605 51.3389 65.2765 51.2575 64.9886 51.2607C64.7245 51.2633 64.4597 51.2799 64.2283 51.3684C63.9873 51.4606 63.9308 51.8008 63.7404 51.9667C63.5487 52.1333 63.391 52.2492 63.2647 52.4709C63.1404 52.69 62.8346 52.8322 62.7884 53.0859C62.7442 53.33 62.716 53.6112 62.757 53.87C62.757 53.8726 62.9166 53.8476 62.9173 53.8502C62.9602 54.1218 62.7538 54.5139 62.8826 54.74C63.016 54.9738 63.4949 54.9546 63.6994 55.1244C63.9039 55.2942 63.9821 55.7349 64.236 55.8246C64.4822 55.9117 64.8226 55.9047 65.097 55.9034C65.3714 55.9021 65.6547 55.5882 65.9272 55.6049C66.201 55.6215 66.4702 55.7625 66.7408 55.7971C67.0113 55.8317 67.2523 56.0482 67.5203 56.1014C67.7883 56.1545 68.0736 56.1167 68.3377 56.1872C68.6019 56.2577 68.9314 56.1353 69.1904 56.2231C69.4494 56.3109 69.5994 56.6946 69.852 56.7997C70.1046 56.9047 70.5386 56.6293 70.7841 56.751C71.0297 56.8727 71.2361 57.1008 71.4727 57.2391C71.7092 57.3775 71.9977 57.4627 72.2247 57.6165C72.4516 57.7702 72.5222 58.154 72.7382 58.3231C72.953 58.4903 73.0549 58.7895 73.26 58.9721C73.4633 59.1534 73.9332 59.0624 74.1262 59.2584C74.3172 59.4525 74.5448 59.639 74.725 59.8465L74.7243 59.8497Z" fill="#DCFAC8"/>
<path d="M73.1112 77.3705C72.8984 77.5537 72.8933 77.9906 72.6721 78.1578C72.4483 78.327 72.2759 78.5922 72.0438 78.7447C71.8092 78.8984 71.5418 79.0297 71.2995 79.1662C71.0552 79.3033 70.7571 79.3667 70.5058 79.4859C70.2545 79.605 69.8634 79.4109 69.6044 79.5128C69.3454 79.6146 69.0813 79.6697 68.8152 79.7543C68.5492 79.8389 68.3979 80.3398 68.1267 80.4052C67.8555 80.4705 67.4779 80.017 67.2023 80.0637C66.9266 80.1105 66.883 80.4347 66.6041 80.4628C66.6298 80.0138 66.8163 80.1233 66.9792 79.7037C67.142 79.2841 66.6285 79.0842 66.7913 78.6639C66.9541 78.2437 66.992 78.2571 67.1548 77.8362C67.3177 77.4153 67.9164 77.5037 67.6581 77.1328C67.4189 76.7907 67.2702 76.8881 66.8573 76.9522C66.4445 77.0162 66.4958 77.341 66.0842 77.4051C65.6726 77.4692 65.6476 77.3135 65.2347 77.3775C64.8219 77.4416 64.861 77.6895 64.4488 77.7536C64.0365 77.8177 64.05 77.9041 63.6371 77.9682C63.2243 78.0323 63.1403 77.4826 62.7287 77.5467C62.3171 77.6107 62.378 78.0009 61.9664 78.0643C61.5548 78.1277 61.5177 77.8984 61.1048 77.9631C60.6919 78.0278 60.6753 77.9138 60.263 77.9778C59.8508 78.0419 59.8899 78.2962 59.4771 78.3603C59.0642 78.4243 59.0578 78.384 58.6443 78.448C58.2308 78.5121 58.2019 78.3231 57.7897 78.3872C57.3775 78.4513 57.4243 78.762 57.0108 78.8267C56.5973 78.8914 56.5383 78.516 56.1241 78.58C55.71 78.6441 55.4875 78.6185 55.3349 79.0086C55.1824 79.3988 55.7068 79.2546 55.9683 79.5794C56.2299 79.9042 56.0696 80.0317 56.3299 80.3552C56.5902 80.6787 56.6614 80.6217 56.9217 80.9446C57.1819 81.2675 57.3916 81.1003 57.6525 81.4238C57.9134 81.7473 57.8243 81.8216 58.0865 82.1471C58.3487 82.4725 58.3975 82.4315 58.659 82.7563C58.9206 83.0811 58.5141 83.4079 58.7751 83.7327C59.036 84.0575 59.1302 83.9838 59.3924 84.3092C59.6546 84.6347 59.9598 84.3887 60.222 84.7135C60.4842 85.0383 60.3701 85.1305 60.6323 85.456C60.8945 85.7814 60.6169 86.0024 60.8779 86.3266C61.1401 86.6527 61.1375 86.6546 61.4003 86.98C61.6632 87.3055 61.86 87.1479 62.1229 87.4746C62.3857 87.8013 62.4274 87.7693 62.6909 88.096C62.9544 88.4228 62.7934 88.9045 63.2108 88.8539C63.6128 88.8046 63.4756 88.4381 63.6217 88.0608C63.7679 87.6835 63.4736 87.5701 63.6198 87.1934C63.766 86.8167 63.7173 86.7975 63.8634 86.4201C64.0096 86.0428 64.1974 86.1139 64.3443 85.7359C64.4911 85.358 64.6494 85.4515 64.8552 85.1017C65.0039 85.1055 64.961 85.167 65.1097 85.167C65.3969 85.167 65.6771 84.8666 65.963 84.8525C66.2489 84.8384 66.5278 84.8051 66.8131 84.7756C67.0984 84.7461 67.3702 84.6725 67.6536 84.6283C67.9369 84.5841 68.2216 84.5898 68.5024 84.5315C68.7832 84.4732 69.1345 84.7096 69.4121 84.6379C69.6897 84.5661 69.95 84.406 70.2231 84.3201C70.4962 84.2343 70.793 84.1933 71.0616 84.0933C71.3303 83.9934 71.5566 83.7737 71.8201 83.6603C72.0836 83.5469 72.4682 83.6756 72.7253 83.5488C72.9824 83.4219 73.0061 82.8422 73.2568 82.7025C73.5074 82.5629 73.9087 82.6827 74.1524 82.5308C74.396 82.379 74.3928 81.8639 74.6281 81.6999C74.8633 81.5359 75.4422 81.8402 75.6692 81.664C75.8961 81.4879 75.8493 80.9754 76.0667 80.7877C76.2782 80.6051 76.7924 80.7511 76.9937 80.5596C77.195 80.368 77.07 79.8427 77.2617 79.6416C77.4534 79.4404 77.6374 79.2399 77.8194 79.0291C78.0015 78.8183 78.1951 78.6249 78.3656 78.4051C78.5362 78.1854 78.9311 78.129 79.0914 77.9009C79.2516 77.6729 79.3183 77.3763 79.4664 77.1405C79.6145 76.9048 79.4529 76.4915 79.5895 76.2487C79.726 76.0059 80.3928 76.0431 80.5172 75.7939C80.637 75.5537 80.4588 75.168 80.4889 74.9181C80.5204 74.6568 80.48 74.3922 80.4229 74.1423C80.3646 73.8893 80.2658 73.6452 80.1261 73.4267C79.9876 73.2108 79.7523 73.091 79.5433 72.9315C79.3433 72.7784 79.1298 72.7041 78.8727 72.6227L78.9189 72.4767C78.6561 72.3934 78.3644 72.1198 78.1041 72.1346C77.8355 72.15 77.647 72.6163 77.4034 72.724C77.1597 72.8316 76.7071 72.6721 76.5129 72.8591C76.3244 73.0404 76.0968 73.3146 75.9737 73.56C75.8519 73.8028 75.9513 74.1545 75.8141 74.3883C75.6769 74.6222 75.6698 74.9444 75.5173 75.1686C75.3647 75.3929 74.8576 75.3544 74.6909 75.5684C74.5242 75.7824 74.6614 76.243 74.4806 76.4454C74.2998 76.6479 73.9421 76.6818 73.7478 76.8721C73.5536 77.0624 73.3189 77.1924 73.1131 77.3699L73.1112 77.3705Z" fill="#DCFAC8"/>
</g>
<defs>
<clipPath id="clip0_2973_9093">
<rect width="83" height="87" fill="white" transform="translate(11 8)"/>
</clipPath>
</defs>
</svg>
