<svg width="104" height="104" viewBox="0 0 104 104" fill="none" xmlns="http://www.w3.org/2000/svg">
<g clip-path="url(#clip0_2973_9045)">
<path d="M91.5519 66.4737C91.5519 66.7883 91.9142 67.1771 91.8142 67.4536C91.7103 67.7426 91.4331 68.0178 91.2422 68.247C91.0494 68.4789 90.8104 68.7679 90.5507 68.9209C90.2949 69.072 89.9145 69.0621 89.6158 69.1179C89.3295 69.1711 88.9873 69.2729 88.6808 69.2224C88.3919 69.1751 88.2069 68.6503 87.9381 68.5899C87.653 68.5262 87.3589 68.5965 87.0947 68.5209C86.8142 68.4408 86.5051 68.4986 86.2461 68.4073C85.9708 68.3101 85.7916 68.004 85.5364 67.897C85.2689 67.784 84.8449 68.0448 84.5969 67.9233C84.3366 67.7958 84.1723 67.4839 83.9295 67.3512C83.6763 67.2126 83.3932 67.141 83.1536 67.0005C82.9056 66.8547 82.8075 66.4639 82.5699 66.32C82.3121 66.1644 82.0102 66.0961 81.7622 65.9516C81.5057 65.8018 81.0759 65.991 80.8175 65.857C80.5591 65.723 80.3617 65.4899 80.089 65.3749C79.8261 65.2633 79.6748 64.8055 79.3872 64.7149C79.119 64.6308 78.7483 64.8731 78.449 64.8094C78.1763 64.7516 77.8653 64.9395 77.5601 64.9007C77.2842 64.8659 77.0478 64.2308 76.7401 64.2137C76.4616 64.198 76.1532 64.5119 75.8441 64.5119C75.535 64.5119 75.2578 64.795 74.9786 64.8108C74.6709 64.8278 74.3449 64.4068 74.069 64.4416C73.7632 64.4804 73.5314 64.858 73.2587 64.9158C72.9587 64.9795 72.5977 64.7405 72.3289 64.8252C72.0413 64.9158 71.8284 65.1963 71.5661 65.3073C71.2934 65.4229 71.1174 65.7099 70.8596 65.8439C70.6019 65.9779 70.1877 65.8169 69.9318 65.966C69.6845 66.1105 69.3579 66.1342 69.1008 66.2892C68.8703 66.4284 68.6911 66.6576 68.4522 66.7988C68.221 66.9348 67.9678 67.0307 67.7237 67.1653C67.4893 67.2947 67.4737 67.8694 67.2237 67.9935C66.9848 68.1117 66.553 67.83 66.2966 67.941C66.0524 68.0467 65.9258 68.4782 65.6629 68.5748C65.4142 68.6654 65.0298 68.3626 64.7617 68.4428C64.5085 68.519 64.341 68.9498 64.0683 69.0148C63.8105 69.0766 63.5495 69.2171 63.2723 69.267C63.0119 69.3143 62.673 68.9117 62.3938 68.9478C62.1315 68.9813 61.8621 68.9124 61.5822 68.9354C61.3173 68.957 61.0557 68.959 60.7739 68.9695C60.5077 68.98 60.2454 69.0214 59.9636 69.0214C59.6818 69.0214 59.415 69.1527 59.15 69.1422C58.8696 69.1317 58.5728 69.4877 58.3086 69.466C58.0275 69.443 57.7859 69.0812 57.523 69.0477C57.2431 69.0115 57.0081 68.7994 56.7464 68.7521C56.4692 68.7022 56.1972 68.7298 55.9394 68.6687C55.6661 68.6037 55.3369 68.7955 55.083 68.7193C54.8142 68.6385 54.5941 68.429 54.3448 68.3377C54.0812 68.2411 53.8513 68.0881 53.6066 67.9824C53.3501 67.8714 53.1644 67.6408 52.9255 67.5226C52.6755 67.3985 52.2879 67.5627 52.0535 67.4333C51.81 67.2993 51.7821 66.7969 51.5516 66.6609C51.3133 66.5204 50.9653 66.5808 50.7361 66.4422C50.4784 66.2865 50.2122 66.1611 49.9635 66.016C49.7071 65.8662 49.3428 65.9345 49.0844 65.7999C48.826 65.6652 48.591 65.5129 48.3183 65.3973C48.0553 65.2856 47.7781 65.2455 47.4904 65.1549C47.2223 65.0708 46.9509 65.0439 46.6522 64.9809C46.3795 64.9231 46.1315 64.7195 45.8257 64.6814C45.5498 64.6466 45.2732 64.4843 44.9654 64.4673C44.6869 64.4515 44.3921 64.3976 44.0837 64.3976C43.7753 64.3976 43.4818 64.508 43.2027 64.5237C42.8949 64.5408 42.591 64.4561 42.3151 64.4909C42.0093 64.5296 41.7756 64.8758 41.5022 64.9336C41.2022 64.9973 40.9523 65.1116 40.6828 65.1963C40.3952 65.2869 39.9336 64.8718 39.6713 64.9828C39.3992 65.0984 39.3044 65.6048 39.046 65.7394C38.7876 65.8741 38.5331 66.0022 38.2773 66.1512C38.0299 66.2957 37.6832 66.2787 37.4267 66.4337C37.1962 66.5729 36.9963 66.7693 36.7567 66.9105C36.5256 67.0464 36.2327 67.0767 35.9886 67.2106C35.7542 67.34 35.6757 67.7893 35.4257 67.9134C35.1868 68.0316 34.803 67.8517 34.5466 67.9627C34.3024 68.0684 34.1245 68.36 33.8616 68.4559C33.6129 68.5465 33.4136 68.85 33.1461 68.9308C32.8929 69.0069 32.4962 68.5807 32.2235 68.6457C31.9657 68.7075 31.6898 68.649 31.4132 68.6989C31.1528 68.7462 30.9392 69.1074 30.66 69.1436C30.3977 69.177 30.1361 69.3222 29.8562 69.3452C29.5913 69.3669 29.3096 69.292 29.0278 69.3032C28.7616 69.3137 28.4869 69.0319 28.2045 69.0319C27.9221 69.0319 27.6604 69.0339 27.3955 69.0234C27.1144 69.0129 26.8138 69.4884 26.5495 69.4673C26.2684 69.4444 25.9898 69.3767 25.7269 69.3426C25.447 69.3064 25.2289 68.913 24.9672 68.8657C24.69 68.8158 24.4517 68.672 24.1939 68.6102C23.9206 68.5452 23.6505 68.5465 23.3973 68.4704C23.1285 68.3896 22.8181 68.4756 22.5688 68.3843C22.3052 68.2878 22.1001 68.0684 21.8559 67.9627C21.5995 67.8517 21.1683 68.1295 20.9294 68.0113C20.6794 67.8871 20.5418 67.5377 20.3074 67.409C20.0639 67.275 19.7263 67.3124 19.4958 67.1765C19.2575 67.0359 19.2257 66.5486 18.9959 66.41C18.7576 66.2662 18.5115 66.148 18.2817 66.0127C18.0447 65.8741 17.7668 65.8156 17.5292 65.6895C17.2916 65.5634 16.9922 65.5707 16.7436 65.4597C16.502 65.3519 16.3624 64.9618 16.1014 64.8712C15.8541 64.7851 15.46 65.1963 15.1873 65.128C14.9347 65.0649 14.762 64.6026 14.4822 64.5572C14.1738 64.5073 13.8511 64.529 13.594 64.3779C13.3303 64.2229 13.0174 64.0673 12.8252 63.8308C12.633 63.5944 12.3896 63.3113 12.2863 63.0197C12.1857 62.736 12.3967 62.361 12.3967 62.047L12.1162 62.0457C12.1162 61.7311 12.4116 61.4428 12.5116 61.1663C12.6155 60.8773 12.9551 60.7873 13.146 60.5574C13.3388 60.3256 13.4251 60.0688 13.6848 59.9157C13.9407 59.7647 14.1978 59.7857 14.4971 59.7305C14.7834 59.6773 15.0568 59.3056 15.3632 59.3562C15.6521 59.4035 15.9138 59.5631 16.1819 59.6228C16.467 59.6865 16.6618 60.0405 16.9254 60.1154C17.2058 60.1955 17.5259 60.0819 17.7856 60.1739C18.0609 60.2711 18.3103 60.3972 18.5648 60.5049C18.8323 60.6178 19.1946 60.5023 19.4426 60.6238C19.7029 60.7512 19.973 60.8609 20.2165 60.9942C20.4697 61.1328 20.621 61.4454 20.8606 61.5859C21.1086 61.7318 21.3495 61.8782 21.5871 62.0221C21.8449 62.1777 21.9481 62.5875 22.1961 62.732C22.4526 62.8818 22.8571 62.7616 23.1162 62.8956C23.3752 63.0296 23.5557 63.354 23.8284 63.4696C24.0914 63.5813 24.4244 63.5602 24.7121 63.6509C24.9802 63.7349 25.2601 63.8578 25.5587 63.9215C25.8314 63.9793 26.1729 63.687 26.4781 63.7257C26.754 63.7606 27.0033 64.2807 27.3111 64.2978C27.5896 64.3136 27.898 63.7895 28.2064 63.7895C28.5148 63.7895 28.8109 64.0541 29.0901 64.0384C29.3979 64.0213 29.6939 64.016 29.9699 63.9812C30.2757 63.9425 30.5613 63.865 30.834 63.8072C31.134 63.7435 31.3749 63.5261 31.6437 63.4414C31.9313 63.3507 32.2358 63.3566 32.4981 63.245C32.7702 63.1294 33.0565 63.0519 33.3143 62.9179C33.572 62.7839 33.8882 62.7471 34.144 62.598C34.3914 62.4536 34.4596 61.9905 34.716 61.8355C34.9465 61.6963 35.4322 61.9892 35.6711 61.848C35.9023 61.712 35.986 61.3108 36.2301 61.1768C36.4645 61.0474 36.5678 60.6343 36.8177 60.5108C37.0567 60.3926 37.3404 60.3229 37.5975 60.212C37.8416 60.1062 38.2955 60.5246 38.5584 60.428C38.8071 60.3374 38.9986 60.0865 39.2661 60.0057C39.5193 59.9295 39.7394 59.7082 40.0128 59.6432C40.2705 59.5814 40.59 59.8126 40.8666 59.7621C41.1269 59.7148 41.3737 59.5946 41.6528 59.5585C41.9151 59.525 42.1723 59.4343 42.4521 59.412C42.717 59.3903 42.9884 59.4599 43.2702 59.4488C43.5364 59.4383 43.8026 59.0646 44.0844 59.0646C44.3661 59.0646 44.6336 59.347 44.8985 59.3575C45.179 59.368 45.4556 59.2741 45.7199 59.2951C46.001 59.3181 46.264 59.4199 46.5269 59.454C46.8068 59.4901 47.0782 59.5033 47.3392 59.5506C47.6164 59.6005 47.9047 59.5545 48.1624 59.6163C48.4358 59.6813 48.739 59.6268 48.9929 59.7029C49.2616 59.7837 49.4623 60.0655 49.7116 60.1568C49.9752 60.2533 50.1576 60.5226 50.4024 60.6284C50.6589 60.7394 50.9231 60.7958 51.1621 60.9141C51.412 61.0382 51.6393 61.1801 51.8737 61.3094C52.1171 61.4434 52.4139 61.4638 52.6444 61.5997C52.8826 61.7403 53.0274 62.0306 53.2566 62.1692C53.5144 62.3248 53.7488 62.5087 53.9974 62.6539C54.2539 62.8036 54.6155 62.7583 54.8739 62.8923C55.1324 63.0263 55.4817 62.9442 55.7544 63.0591C56.0173 63.1708 56.1874 63.5386 56.4751 63.6292C56.7432 63.7133 57.0503 63.6936 57.349 63.7566C57.6217 63.8144 57.8697 64.1678 58.1755 64.2059C58.4514 64.2407 58.7871 63.7855 59.0949 63.8026C59.3734 63.8184 59.6545 63.8512 59.9629 63.8512C60.2713 63.8512 60.5668 64.0403 60.8459 64.0246C61.1537 64.0075 61.4692 64.1671 61.7452 64.1323C62.051 64.0935 62.3626 64.0771 62.6353 64.0193C62.9353 63.9556 63.0983 63.4157 63.3671 63.331C63.6547 63.2404 64.0709 63.5438 64.3338 63.4328C64.6065 63.3172 64.7474 62.9205 65.0052 62.7865C65.2629 62.6526 65.5999 62.6657 65.8551 62.5166C66.1024 62.3721 66.2635 62.0687 66.5199 61.9137C66.7504 61.7744 67.0867 61.8099 67.3257 61.6687C67.5568 61.5327 67.7139 61.2549 67.9581 61.1203C68.1924 60.9909 68.5482 61.094 68.7989 60.9699C69.0378 60.8517 69.0962 60.3151 69.3533 60.2041C69.5975 60.0983 69.9565 60.25 70.2195 60.1535C70.4681 60.0629 70.7623 60.1023 71.0304 60.0221C71.2836 59.946 71.5193 59.7942 71.792 59.7292C72.0498 59.6675 72.2517 59.2649 72.5289 59.215C72.7893 59.1677 73.1451 59.6878 73.4243 59.6524C73.6866 59.6189 73.9456 59.6038 74.2255 59.5808C74.4904 59.5591 74.7455 59.3805 75.0273 59.3693C75.2935 59.3588 75.5623 58.9233 75.8448 58.9233C76.1272 58.9233 76.4038 59.0856 76.6687 59.0954C76.9498 59.1059 77.1946 59.5493 77.4582 59.5709C77.7393 59.5939 78.0101 59.5269 78.2737 59.5611C78.5535 59.5972 78.8807 59.2655 79.1418 59.3128C79.419 59.3627 79.643 59.6491 79.9014 59.7108C80.1747 59.7758 80.4539 59.7844 80.7071 59.8606C80.9759 59.9414 81.2103 60.1003 81.4596 60.1909C81.7233 60.2875 81.9271 60.5003 82.1719 60.606C82.4284 60.717 82.6485 60.8674 82.8874 60.9856C83.1374 61.1098 83.4691 61.0507 83.7035 61.1794C83.947 61.3134 84.2794 61.2812 84.5099 61.4165C84.7482 61.557 84.732 62.1245 84.9612 62.2631C85.1994 62.4069 85.4786 62.4726 85.7085 62.6072C85.9455 62.7458 86.3116 62.6467 86.5493 62.7728C86.7869 62.8989 86.8765 63.3619 87.1258 63.4735C87.368 63.5819 87.7108 63.4906 87.9718 63.5813C88.2199 63.6673 88.4848 63.7586 88.7581 63.8269C89.0107 63.8899 89.3463 63.5616 89.6262 63.6069C89.9346 63.6568 90.2995 63.8164 90.5572 63.9674C90.8208 64.1224 91.1481 64.3556 91.3403 64.592C91.5324 64.8285 91.2701 65.3473 91.3734 65.639C91.474 65.9227 91.7233 66.1532 91.7233 66.4672C91.6805 66.544 91.5526 66.4698 91.5526 66.4698L91.5519 66.4737Z" fill="#408CFF"/>
<path d="M64.5903 80.6215C64.5949 80.2971 64.9792 80.0206 65.0182 79.7066C65.0578 79.3881 64.8052 79.036 64.8727 78.7247C64.9403 78.4134 64.9098 78.0732 64.9981 77.7652C65.0851 77.4611 65.3136 77.197 65.4142 76.891C65.5207 76.5672 65.3539 76.1416 65.461 75.8027C65.5662 75.4684 65.9116 75.2109 65.9739 74.8701C65.7097 75.0257 65.5233 75.3134 65.2591 75.4546C64.9948 75.5958 64.5767 75.4119 64.2981 75.5341C64.028 75.6523 63.7963 75.8487 63.5015 75.9452C63.2262 76.0352 62.9275 76.024 62.6204 76.0923C62.3399 76.1541 62.0958 76.4825 61.7803 76.5238C61.4965 76.5606 61.1894 76.5619 60.8719 76.5803C60.5856 76.5967 60.2805 76.3472 59.9623 76.3472C59.6533 76.3472 59.3565 76.5875 59.0774 76.5718C58.7696 76.5547 58.5105 76.2368 58.2346 76.202C57.9288 76.1633 57.5886 76.4647 57.3159 76.4069C57.0159 76.3432 56.8257 75.9327 56.5569 75.848C56.2693 75.7574 55.8252 76.1271 55.5622 76.0155C55.2895 75.8999 55.1889 75.4106 54.9311 75.2766C54.6733 75.1426 54.4545 74.9508 54.1987 74.8018C53.9514 74.6573 53.767 74.4018 53.5099 74.2468C53.2794 74.1075 52.9885 74.0596 52.7496 73.9184C52.5184 73.7824 52.0639 74.0392 51.8198 73.9052C51.5854 73.7759 51.4452 73.4645 51.1946 73.3404C50.9556 73.2222 50.6622 73.2222 50.405 73.1112C50.1609 73.0054 49.9557 72.7986 49.6928 72.7027C49.4441 72.612 49.1922 72.5161 48.9241 72.4354C48.6708 72.3592 48.3507 72.5444 48.0781 72.4794C47.8203 72.4176 47.5963 72.2134 47.3197 72.1635C47.0593 72.1162 46.8276 71.8311 46.5484 71.7957C46.2861 71.7622 45.9991 71.8869 45.7193 71.864C45.4544 71.8423 45.1966 71.4771 44.9148 71.4666C44.6486 71.4561 44.3642 71.6728 44.0818 71.6728C43.7994 71.6728 43.5254 71.6702 43.2605 71.6807C42.98 71.6912 42.7047 71.7136 42.4404 71.7352C42.1593 71.7582 41.9106 71.9953 41.647 72.0295C41.3672 72.0656 41.1263 72.2337 40.8653 72.281C40.5881 72.3309 40.2524 72.0301 39.9946 72.0919C39.7213 72.1569 39.4876 72.3467 39.2343 72.4229C38.9655 72.5037 38.7669 72.7539 38.5182 72.8452C38.2546 72.9417 37.9222 72.8281 37.6774 72.9339C37.4209 73.0449 37.2664 73.3542 37.0275 73.4724C36.7775 73.5966 36.5541 73.7404 36.3198 73.8698C36.0769 74.0038 35.6348 73.7699 35.4043 73.9059C35.166 74.0465 34.9647 74.2455 34.7355 74.384C34.4778 74.5397 34.196 74.631 33.9473 74.7755C33.6909 74.9246 33.6013 75.3692 33.3428 75.5032C33.0844 75.6372 32.7202 75.5413 32.4475 75.6569C32.1846 75.7679 32.0313 76.2204 31.7437 76.311C31.4755 76.3951 31.0814 76.0404 30.7828 76.1035C30.5101 76.1613 30.2978 76.6946 29.992 76.7327C29.716 76.7675 29.3752 76.2434 29.068 76.2605C28.7895 76.2762 28.511 76.5981 28.2026 76.5981C27.8942 76.5981 27.6013 76.5035 27.3222 76.4877C27.0144 76.4706 26.6976 76.6703 26.4216 76.6355C26.1158 76.5967 25.9152 76.049 25.6425 75.9912C25.3425 75.9275 24.9523 76.3005 24.6835 76.2158C24.3959 76.1252 24.1953 75.8119 23.9323 75.7009C23.6596 75.5853 23.4609 75.3475 23.2025 75.2136C22.9441 75.0796 22.689 74.9594 22.4338 74.8103C22.1864 74.6658 21.7508 74.8359 21.4937 74.6809C21.2554 74.5371 21.2047 74.0629 20.9567 73.9164C20.7178 73.7759 20.323 73.9026 20.0705 73.764C19.8276 73.6314 19.503 73.6695 19.2426 73.542C18.9946 73.4205 18.7901 73.2189 18.5226 73.1059C18.2687 72.9989 18.1168 72.6107 17.8422 72.5135C17.5837 72.4222 17.274 72.4616 16.9942 72.3815C16.7293 72.306 16.4449 72.2909 16.1592 72.2265C15.8904 72.1667 15.6619 71.8364 15.3723 71.7891C15.0659 71.7385 14.6809 71.6334 14.3945 71.6866C14.0952 71.7425 13.8887 72.1858 13.6329 72.3368C13.3732 72.4899 12.8882 72.4511 12.6954 72.6836C12.5045 72.9135 12.5727 73.37 12.4694 73.6589C12.3701 73.9355 12.5993 74.2389 12.5993 74.5535L12.0344 74.5548C12.0344 74.8687 12.6668 75.0691 12.7668 75.3528C12.87 75.6444 12.9272 75.8572 13.1187 76.093C13.3102 76.3288 13.1927 76.9665 13.4563 77.1215C13.7134 77.2726 14.1705 77.025 14.4783 77.0749C14.7581 77.1202 15.0828 76.9567 15.3347 77.0191C15.608 77.0874 15.8028 77.4374 16.0515 77.5241C16.3131 77.6154 16.4261 78.0351 16.6689 78.1435C16.9182 78.2551 17.2403 78.1717 17.4786 78.2985C17.7168 78.4252 17.8766 78.6781 18.1135 78.8167C18.3427 78.9513 18.5544 79.1181 18.792 79.2613C19.0225 79.4006 19.3173 79.44 19.5569 79.5812C19.788 79.7171 20.1302 79.6672 20.3737 79.8018C20.608 79.9312 20.9281 79.8905 21.1788 80.0146C21.4177 80.1329 21.5053 80.5933 21.7625 80.7043C22.0066 80.81 22.2929 80.8409 22.5559 80.9368C22.8045 81.0274 23.0597 81.1351 23.3272 81.2152C23.5804 81.2914 23.8882 81.189 24.1609 81.254C24.4186 81.3157 24.7036 81.2363 24.9802 81.2862C25.2406 81.3335 25.4315 81.9068 25.7107 81.9423C25.973 81.9758 26.282 81.698 26.5612 81.7203C26.8261 81.742 27.0962 81.8385 27.3773 81.8497C27.6435 81.8602 27.9201 81.6743 28.2019 81.6743C28.4837 81.6743 28.7616 81.9522 29.0265 81.9423C29.307 81.9318 29.5881 81.9364 29.8524 81.9147C30.1335 81.8917 30.3757 81.5581 30.6386 81.5239C30.9185 81.4878 31.1671 81.3611 31.4288 81.3138C31.706 81.2638 32.0002 81.3729 32.2579 81.3118C32.5313 81.2468 32.776 81.1233 33.0299 81.0471C33.2987 80.9663 33.5798 80.9591 33.8292 80.8678C34.0928 80.7713 34.3265 80.6235 34.5706 80.5177C34.8271 80.4067 35.216 80.592 35.4549 80.4737C35.7049 80.3496 35.6796 79.7027 35.914 79.5733C36.1574 79.4393 36.5061 79.5188 36.7366 79.3828C36.9749 79.2423 37.1041 78.9277 37.3339 78.7891C37.5917 78.6334 38.0306 78.8048 38.2786 78.6604C38.5351 78.5113 38.7591 78.3195 39.0175 78.1855C39.2759 78.0515 39.6369 78.1743 39.9096 78.0594C40.1725 77.9484 40.3712 77.7047 40.6588 77.6141C40.927 77.53 41.1471 77.2332 41.4458 77.1701C41.7184 77.1123 41.9885 76.868 42.2944 76.8299C42.5703 76.7951 42.9021 77.1846 43.2092 77.1675C43.4877 77.1517 43.7721 77.0105 44.0805 77.0105C44.3889 77.0105 44.6752 77.1524 44.9544 77.1681C45.2622 77.1852 45.5738 76.9613 45.8498 76.9961C46.1556 77.0348 46.4302 77.1878 46.7029 77.2456C47.0029 77.3094 47.345 77.1898 47.6138 77.2752C47.9015 77.3658 48.2384 77.3606 48.5014 77.4722C48.7741 77.5878 48.9377 77.9629 49.1955 78.0968C49.4532 78.2308 49.8045 78.2085 50.0596 78.3576C50.307 78.5021 50.357 78.9979 50.6141 79.1529C50.8446 79.2922 51.0615 79.4649 51.301 79.6055C51.5322 79.7414 51.9191 79.6094 52.1633 79.7434C52.3977 79.8728 52.4476 80.3838 52.6976 80.5072C52.9366 80.6254 53.4131 80.2373 53.6702 80.3483C53.9144 80.454 54.1377 80.5959 54.4007 80.6924C54.6493 80.7831 54.7831 81.2514 55.0506 81.3315C55.3038 81.4077 55.6115 81.3354 55.8842 81.4011C56.142 81.4628 56.4452 81.3276 56.7218 81.3775C56.9822 81.4248 57.21 81.7433 57.4892 81.7794C57.7515 81.8129 58.0567 81.4832 58.3365 81.5062C58.6014 81.5279 58.8572 81.7584 59.139 81.7689C59.4052 81.7794 59.6786 81.8247 59.9604 81.8247C60.2369 81.8247 60.5025 81.7105 60.7635 81.7006C61.0401 81.6901 61.2862 81.4294 61.5465 81.4083C61.8218 81.386 62.0867 81.4628 62.3451 81.43C62.6198 81.3952 62.9392 81.7275 63.1957 81.6816C63.4671 81.633 63.6619 81.2501 63.9144 81.1903C64.1826 81.1272 64.2735 81.0714 64.5228 80.9985C64.4631 80.8245 64.5851 80.8074 64.5877 80.6255L64.5903 80.6215Z" fill="#408CFF"/>
<path d="M85.2703 74.2501C85.0398 74.1108 84.5723 74.3702 84.3334 74.229C84.1022 74.0931 84.0866 73.5558 83.8425 73.4219C83.6081 73.2925 83.201 73.4783 82.9504 73.3542C82.7115 73.236 82.381 73.326 82.1239 73.215C81.8798 73.1092 81.7239 72.7828 81.461 72.6869C81.2123 72.5963 80.9779 72.4373 80.7104 72.3565C80.4572 72.2804 80.1956 72.1943 79.9229 72.1293C79.6651 72.0676 79.3762 72.1194 79.0996 72.0689C78.8392 72.0216 78.6113 71.6682 78.3322 71.6321C78.0698 71.5986 77.7673 71.8252 77.4874 71.8022C77.2225 71.7805 76.9563 71.5835 76.6746 71.5723C76.4084 71.5618 76.1279 71.6663 75.8461 71.6663C75.5676 71.6663 75.2981 71.753 75.0352 71.7635C74.7579 71.774 74.506 71.9999 74.2456 72.0203C73.9697 72.0426 73.71 71.8633 73.4509 71.8961C73.7002 71.8935 73.8613 72.1017 74.097 72.193C74.3261 72.2817 74.4729 72.3743 74.6547 72.5628C74.8183 72.7322 75.0864 72.813 75.1851 73.0711C75.2819 73.324 75.339 73.5887 75.4221 73.8415C75.5065 74.099 75.7591 74.3079 75.8247 74.566C75.8915 74.828 76.0629 75.0855 76.1052 75.3495C76.1474 75.6155 75.6929 75.9334 75.7045 76.2027C75.7162 76.4693 76.085 76.5724 76.0616 76.843C76.3675 76.8444 76.5077 77.0867 76.7843 77.1038C77.0888 77.1222 77.3472 77.3376 77.6205 77.3731C77.9225 77.4125 78.2841 76.9948 78.5542 77.0532C78.8503 77.1176 79.1327 77.2476 79.3989 77.333C79.6833 77.4236 79.8066 77.9116 80.067 78.022C80.3364 78.1369 80.7189 77.9766 80.974 78.11C81.2292 78.2433 81.3811 78.5625 81.6343 78.7103C81.8798 78.8534 82.3407 78.6347 82.5953 78.7878C82.8335 78.9316 82.9881 79.2245 83.2361 79.3703C83.475 79.5109 83.6036 79.8629 83.8568 80.0015C84.0996 80.1342 84.4385 80.0941 84.6989 80.2209C84.9469 80.3424 85.2307 80.389 85.4982 80.502C85.752 80.609 86.0098 80.7062 86.2844 80.8034C86.5428 80.8947 86.8266 80.9 87.1064 80.9801C87.3713 81.0556 87.6388 81.0983 87.9251 81.162C88.1939 81.2218 88.4179 81.5305 88.7075 81.5784C89.014 81.629 89.2892 81.4425 89.5756 81.3893C89.8749 81.3335 90.2508 81.4983 90.5073 81.3473C90.767 81.1942 90.8274 80.7949 91.0202 80.5631C91.2111 80.3332 91.3208 80.1053 91.4247 79.8163C91.524 79.5398 91.5695 79.2955 91.5695 78.9809L91.6747 78.9802C91.6747 78.6663 91.724 78.3438 91.6234 78.0601C91.5201 77.7684 91.4792 77.3829 91.2877 77.1478C91.0962 76.9127 90.6553 76.9251 90.3911 76.7701C90.1339 76.6191 89.8775 76.5363 89.5697 76.4864C89.2899 76.4411 89.049 76.2506 88.7971 76.1876C88.5238 76.1193 88.2679 76.0411 88.0199 75.9544C87.7576 75.8631 87.4408 75.9229 87.1979 75.8145C86.9486 75.7029 86.8233 75.3397 86.585 75.2129C86.3467 75.0861 86.1247 74.9436 85.8884 74.805C85.6592 74.6704 85.5098 74.3959 85.2722 74.252L85.2703 74.2501Z" fill="#408CFF"/>
<path d="M58.797 93.5109C58.649 93.3454 58.4639 93.1713 58.3756 92.9572C58.2906 92.7523 58.4029 92.5415 58.3737 92.3116C58.3373 92.0259 58.1854 91.7684 58.1711 91.4841C58.1568 91.1964 58.0997 90.9205 58.1081 90.6355C58.1159 90.3485 58.1458 90.072 58.1769 89.7882C58.2081 89.5045 58.1951 89.163 58.2503 88.8819C57.9465 88.8431 57.5816 88.9456 57.3095 88.8878C57.0115 88.8241 56.8154 88.4366 56.5473 88.3525C56.2609 88.2625 55.8272 88.6087 55.5649 88.499C55.2935 88.3847 55.2669 87.7489 55.0098 87.6163C54.7527 87.4836 54.4553 87.4494 54.2008 87.3017C53.9534 87.1585 53.708 87.0107 53.4522 86.8564C53.2198 86.7152 52.8685 86.769 52.6263 86.6258C52.3932 86.4879 52.1433 86.3723 51.8965 86.237C51.6602 86.107 51.381 86.0577 51.1278 85.9329C50.8869 85.814 50.7746 85.3924 50.5155 85.2814C50.2695 85.1757 50.0455 84.9537 49.7793 84.8571C49.5274 84.7658 49.1787 84.9156 48.9066 84.8348C48.6495 84.7586 48.3353 84.8834 48.0587 84.819C47.799 84.7579 47.5867 84.4184 47.3075 84.3691C47.0432 84.3225 46.7264 84.5845 46.4433 84.5497C46.1771 84.5169 45.9168 84.3842 45.6324 84.3626C45.3824 84.3422 45.1259 84.3297 44.8597 84.3199C44.6072 84.3107 44.3507 84.5281 44.0852 84.5281C43.8047 84.5281 43.5307 84.2286 43.2658 84.2384C42.9846 84.2489 42.7386 84.6023 42.4743 84.624C42.1932 84.6469 41.9062 84.4394 41.6426 84.4735C41.3628 84.5097 41.1316 84.7487 40.8706 84.796C40.5934 84.8459 40.2713 84.6003 40.0136 84.662C39.7402 84.7271 39.4253 84.6279 39.1721 84.7041C38.9033 84.7849 38.7079 85.083 38.4586 85.1743C38.195 85.2709 38.0294 85.5789 37.7846 85.6847C37.5282 85.7957 37.1438 85.6006 36.9055 85.7188C36.6556 85.8429 36.5569 86.2442 36.3225 86.3736C36.0797 86.5076 35.844 86.6331 35.6141 86.769C35.3758 86.9096 34.9597 86.7355 34.7298 86.8747C34.4721 87.0298 34.1669 87.0803 33.9189 87.2248C33.6624 87.3739 33.4073 87.4856 33.1488 87.6202C32.8904 87.7548 32.8275 88.2987 32.5548 88.4143C32.2918 88.5252 31.9022 88.2954 31.6146 88.386C31.3465 88.4701 31.0673 88.4596 30.768 88.5233C30.4953 88.5811 30.2817 89.0448 29.9759 89.0829C29.6999 89.1177 29.3831 88.8366 29.0753 88.8536C28.7968 88.8694 28.5137 89.0349 28.2053 89.0349C27.8969 89.0349 27.6145 88.8313 27.3359 88.8155C27.0282 88.7985 26.7464 88.8155 26.4704 88.7814C26.1653 88.7433 25.8653 88.8195 25.5926 88.7617C25.2927 88.698 24.9154 88.9449 24.6466 88.8602C24.3597 88.7696 24.2305 88.2481 23.9681 88.1364C23.6961 88.0208 23.4695 87.8507 23.2117 87.7167C22.954 87.5828 22.7274 87.4127 22.4722 87.2636C22.2249 87.1191 21.9911 86.949 21.7347 86.7946C21.4964 86.6501 21.2276 86.545 20.9796 86.3986C20.7406 86.258 20.2816 86.5024 20.0284 86.3638C19.7855 86.2311 19.7687 85.6354 19.509 85.5086C19.2609 85.3871 18.7857 85.7543 18.5182 85.6407C18.2643 85.5329 18.0052 85.46 17.7306 85.3628C17.4722 85.2715 17.3566 84.6975 17.0768 84.6174C16.8119 84.5412 16.5256 84.4591 16.2392 84.3954C15.9704 84.3356 15.6484 84.465 15.3588 84.4171C15.0524 84.3665 14.7764 84.6305 14.4894 84.6837C14.1901 84.7395 13.8993 84.7001 13.6434 84.8512C13.3837 85.0042 13.1097 85.1408 12.9169 85.3727C12.726 85.6026 12.8007 85.9572 12.6968 86.2462C12.5975 86.5227 12.2923 86.744 12.2923 87.0586H12.0203C12.0203 87.3726 12.4761 87.6438 12.576 87.9282C12.6793 88.2198 12.9312 88.3624 13.1227 88.5981C13.3143 88.8339 13.2058 89.4559 13.4694 89.6116C13.7265 89.7626 14.1739 89.5347 14.4823 89.5846C14.7621 89.63 15.0218 89.7304 15.2738 89.7935C15.5471 89.8618 15.7211 90.1968 15.9691 90.2835C16.2308 90.3748 16.4957 90.3905 16.7379 90.4989C16.9865 90.6105 17.417 90.3452 17.6553 90.472C17.8936 90.5987 18.0202 90.9402 18.2559 91.0788C18.4851 91.2135 18.576 91.5911 18.8136 91.7349C19.0441 91.8735 19.557 91.5333 19.7959 91.6732C20.0271 91.8092 20.1628 92.1146 20.4069 92.2486C20.6413 92.3773 20.8705 92.5185 21.1211 92.642C21.36 92.7602 21.436 93.2679 21.6925 93.3789C21.9366 93.484 22.2307 93.5247 22.4937 93.6212C22.7423 93.7119 23.1598 93.3047 23.428 93.3854C23.6812 93.4616 23.8889 93.7 24.1616 93.7651C24.4194 93.8268 24.6557 94.0252 24.9323 94.0757C25.1927 94.123 25.5024 93.8688 25.7816 93.9043C26.0439 93.9378 26.3075 93.9122 26.5867 93.9352C26.8516 93.9569 27.0976 94.3463 27.3794 94.3568C27.6456 94.3673 27.9222 94.5243 28.204 94.5243C28.4858 94.5243 28.7526 94.1598 29.0175 94.1499C29.298 94.1394 29.5876 94.4081 29.8518 94.3864C30.133 94.3634 30.4018 94.2531 30.6647 94.2189C30.9446 94.1828 31.1731 93.8859 31.4341 93.8386C31.7114 93.7887 32.0503 94.0856 32.308 94.0245C32.5814 93.9595 32.8138 93.7493 33.067 93.6731C33.3358 93.5923 33.6241 93.5838 33.8734 93.4932C34.137 93.3966 34.3091 93.0853 34.5539 92.9796C34.8103 92.8686 35.1265 92.9099 35.3655 92.7917C35.6154 92.6676 35.9115 92.6361 36.1459 92.5067C36.3894 92.3727 36.4036 91.8427 36.6341 91.7067C36.8731 91.5662 37.0997 91.421 37.3295 91.2831C37.5873 91.1281 38.0788 91.3921 38.3274 91.247C38.5839 91.0979 38.8423 90.9829 39.1007 90.8483C39.3591 90.7137 39.6377 90.6723 39.9104 90.5567C40.1733 90.445 40.3019 89.9721 40.5895 89.8815C40.8576 89.7968 41.2141 90.0398 41.5127 89.9761C41.7854 89.9176 42.0322 89.6917 42.338 89.6529C42.6139 89.6181 42.8814 89.2306 43.1892 89.2136C43.4677 89.1978 43.7774 89.4106 44.0858 89.4106C44.3637 89.4106 44.6416 89.2287 44.8948 89.2411C45.1727 89.2549 45.4415 89.3896 45.6934 89.4178C45.9693 89.4487 46.1687 89.894 46.4173 89.9406C46.6887 89.9912 46.9803 89.8454 47.225 89.913C47.4886 89.9859 47.7146 90.1258 47.9548 90.2165C48.1976 90.3064 48.547 90.1324 48.7748 90.2375C49.0066 90.3445 49.2988 90.359 49.5228 90.4798C49.7455 90.5994 49.8942 90.8733 50.1162 91.004C50.3318 91.1307 50.3273 91.6423 50.5493 91.7776C50.7902 91.9228 51.2992 91.6167 51.5505 91.7639C51.7927 91.9057 51.8933 92.3083 52.1498 92.4482C52.3952 92.5815 52.6867 92.6393 52.9497 92.7674C53.1996 92.8889 53.336 93.3047 53.6054 93.4176C53.8612 93.5247 54.2138 93.4281 54.4904 93.5247C54.752 93.616 55.0345 93.6843 55.3176 93.7644C55.5844 93.8393 55.9285 93.6127 56.2161 93.6751C56.4856 93.7342 56.7141 94.0311 57.0044 94.0777C57.2784 94.1217 57.5355 94.4146 57.8296 94.4462C58.1062 94.4757 58.412 94.4159 58.7074 94.4337C58.7054 94.4278 58.4178 94.3404 58.4159 94.3352C58.3503 94.1335 58.7983 93.7441 58.7963 93.5129L58.797 93.5109Z" fill="#408CFF"/>
<path d="M84.9586 87.2879C84.7223 87.1453 84.7937 86.4669 84.5476 86.3217C84.3113 86.1825 84.012 86.1293 83.762 85.992C83.5224 85.86 83.2783 85.703 83.0219 85.5763C82.7771 85.4554 82.494 85.3779 82.2297 85.2656C81.9791 85.1586 81.6227 85.2978 81.3519 85.2006C81.0955 85.1087 80.8169 85.083 80.5397 85.0023C80.2793 84.9267 80.0222 84.8367 79.7411 84.7724C79.4755 84.712 79.2639 84.3126 78.9782 84.264C78.7094 84.2187 78.4153 84.2154 78.127 84.1819C77.8277 84.1478 77.4862 84.4249 77.1596 84.4066C76.8551 84.3888 76.5538 84.2732 76.2305 84.2673C76.1474 84.5583 75.9851 84.8105 75.8838 85.0929C75.7818 85.3773 75.7163 85.6728 75.5974 85.948C75.4773 86.2245 75.2436 86.44 75.1072 86.7073C74.9709 86.9746 75.1462 87.4232 74.9936 87.6813C74.841 87.9394 74.6989 88.2238 74.53 88.4727C74.3612 88.7216 73.7152 88.6159 73.5328 88.8536C73.3503 89.0914 73.5665 89.4507 73.3711 89.6786C73.6451 89.6201 73.7762 89.6063 74.0827 89.5669C74.3593 89.5314 74.6443 89.3495 74.9534 89.3318C75.2326 89.316 75.5364 89.3245 75.8461 89.3245C75.95 89.3245 76.0461 89.779 76.15 89.7863C76.4447 89.7915 76.7402 89.4237 77.007 89.4434C77.3005 89.4658 77.5738 89.5728 77.8374 89.6116C78.1277 89.6543 78.4107 89.6759 78.6711 89.737C78.9548 89.804 79.2366 89.8565 79.4931 89.9426C79.7651 90.0339 79.9196 90.3971 80.1703 90.5074C80.4287 90.621 80.6559 90.7557 80.902 90.8857C81.1481 91.0158 81.4558 91.0177 81.6999 91.1603C81.9369 91.2982 82.246 91.3205 82.4914 91.4676C82.7297 91.6115 82.8355 91.9944 83.0835 92.1402C83.3231 92.2807 83.6835 92.217 83.9367 92.3549C84.1795 92.4876 84.299 92.8889 84.5593 93.0157C84.8073 93.1372 85.1846 93.0019 85.4527 93.1148C85.7066 93.2219 86.0585 93.0676 86.3331 93.1648C86.5915 93.2561 86.7694 93.6042 87.0493 93.6843C87.3142 93.7598 87.6109 93.7257 87.8966 93.7894C88.1654 93.8491 88.4478 93.8406 88.7367 93.8879C89.0432 93.9385 89.3113 94.0803 89.5983 94.0271C89.8976 93.9713 90.0632 93.6784 90.319 93.528C90.5787 93.3749 90.8865 93.3513 91.0793 93.1194C91.2702 92.8896 91.3332 92.615 91.4371 92.326C91.5364 92.0495 91.4565 91.7993 91.4565 91.4847C91.4565 91.4834 91.9798 91.4827 91.9798 91.4827C91.9798 91.1688 91.4286 90.9527 91.328 90.669C91.2247 90.3774 91.5104 89.8585 91.3189 89.6234C91.1274 89.3883 90.556 89.5978 90.2917 89.4434C90.0346 89.2924 89.8671 89.0966 89.5587 89.0467C89.2789 89.0014 89.0854 88.5975 88.8335 88.5351C88.5601 88.4668 88.3102 88.4169 88.0615 88.3308C87.7998 88.2402 87.5661 88.1364 87.3239 88.0281C87.0746 87.9171 86.8487 87.7942 86.6104 87.6675C86.3721 87.5407 85.8897 87.8586 85.6527 87.7207C85.4235 87.5867 85.195 87.4337 84.9573 87.2905L84.9586 87.2879Z" fill="#408CFF"/>
<path d="M63.4601 89.4119C63.4731 89.4099 63.4841 89.1801 63.4725 89.186C63.4335 89.1925 63.4406 89.4185 63.4601 89.4119Z" fill="#0D3EC7"/>
<path d="M77.9583 77.197C77.8999 76.8824 77.7856 76.5875 77.7129 76.2775C77.6402 75.9675 77.6661 75.6359 77.5791 75.3291C77.4921 75.0224 77.6661 74.629 77.5648 74.3262C77.4636 74.0235 77.4421 73.6773 77.3266 73.3805C77.2097 73.0843 76.5734 73.0074 76.4448 72.7158C76.3163 72.4242 76.4377 72.0196 76.2949 71.7339C76.1728 71.4876 76.241 71.1336 76.1092 70.8926C75.9774 70.6515 75.7319 70.4683 75.5911 70.2325C75.4502 69.9967 74.9671 69.9842 74.8165 69.755C74.6658 69.5258 74.6938 69.179 74.534 68.9557C74.3743 68.7324 74.2484 68.4861 74.0795 68.2694C73.9107 68.0526 73.9218 67.6822 73.7439 67.4727C73.566 67.2632 73.3738 67.057 73.1875 66.8553C72.9271 66.5716 72.8537 66.6406 72.5934 66.3562C72.333 66.0718 72.3018 66.1 72.0408 65.815C71.7798 65.5299 71.7636 65.545 71.5026 65.2606C71.1968 64.927 70.9747 65.1345 70.6689 64.8009C70.3631 64.4673 70.3436 64.4876 70.0391 64.1553C69.7333 63.821 70.0748 63.5005 69.769 63.1668C69.4632 62.8332 69.2457 63.0355 68.9393 62.7005C68.6328 62.3655 68.4815 62.5061 68.1738 62.1705C67.866 61.8349 68.2205 61.5032 67.9128 61.1676C67.6394 60.8687 67.5297 60.9712 67.2564 60.6724C66.983 60.3735 67.12 60.2428 66.846 59.9433C66.572 59.6438 66.3863 59.8179 66.1123 59.5184C65.8384 59.2189 65.6345 59.4107 65.3605 59.1118C65.0865 58.813 65.104 58.7972 64.8307 58.4991C64.556 58.1989 64.6859 58.0774 64.4113 57.7773C64.1366 57.4771 64.1937 57.4226 63.9185 57.1224C63.6432 56.8223 63.6906 56.7763 63.4146 56.4749C63.1387 56.1734 63.1672 56.1471 62.8913 55.845C62.7199 55.6565 62.4693 55.5357 62.2446 55.4713C62.0116 55.405 61.8109 55.6591 61.5778 55.7255C61.3525 55.7898 60.9078 55.5409 60.737 55.7294C60.452 56.0407 60.8604 56.423 60.5754 56.7343C60.2903 57.0456 60.1962 56.9563 59.9118 57.2669C59.6274 57.5776 59.6813 57.6282 59.3969 57.9388C59.1126 58.2495 59.1548 58.2909 58.8691 58.6028C58.5834 58.9148 58.2308 58.5831 57.9465 58.8944C57.6621 59.2058 57.9952 59.519 57.7101 59.8304C57.4251 60.1417 57.3056 60.0281 57.0213 60.3381C56.7356 60.65 56.4746 60.405 56.1889 60.717C55.9032 61.029 56.2545 61.3587 55.9681 61.6713C55.6818 61.984 55.2799 61.6083 54.9929 61.9216C54.706 62.2348 54.9274 62.4424 54.6404 62.7557C54.3391 63.0847 54.2748 63.0243 53.9736 63.3534C53.6723 63.6824 53.5035 63.5215 53.2029 63.8486C52.901 64.1776 52.9718 64.2439 52.6698 64.573C52.3679 64.902 52.5491 65.0728 52.2465 65.4025C51.944 65.7322 51.8472 65.6429 51.544 65.9739C51.2408 66.3049 51.3083 66.368 51.0064 66.699C50.8662 66.8527 50.9038 66.8875 50.7636 67.0418C50.5688 67.2546 50.2052 67.3197 50.0202 67.5403C49.8351 67.761 49.5644 67.9259 49.3891 68.1538C49.2138 68.3817 49.3235 68.8336 49.1573 69.0687C48.9911 69.3038 48.8463 69.5521 48.6905 69.7944C48.5346 70.0368 48.3619 70.2667 48.2158 70.5156C48.0698 70.7645 47.736 70.909 47.6003 71.1638C47.4646 71.4187 47.7542 71.8909 47.6295 72.1516C47.501 72.4189 47.2686 72.6265 47.151 72.899C47.0335 73.1716 46.5492 73.2938 46.444 73.5716C46.3388 73.8494 46.3816 74.1876 46.2882 74.4701C46.1947 74.7525 46.4414 75.136 46.3609 75.4217C46.2804 75.7075 45.648 75.8487 45.5798 76.1376C45.5116 76.4266 45.6532 76.7708 45.598 77.0631C45.5486 77.3218 45.8707 77.6423 45.8304 77.9024C45.7902 78.1625 45.1837 78.3451 45.1539 78.6071C45.124 78.8692 45.2545 79.1543 45.2344 79.4176C45.2143 79.681 45.5986 79.9641 45.5882 80.2281C45.5779 80.4921 45.2279 80.7443 45.2279 81.0077C45.2279 81.2855 45.1643 81.5699 45.1779 81.8444C45.1915 82.1223 45.6681 82.36 45.6954 82.6345C45.7226 82.911 45.4175 83.2211 45.4584 83.493C45.4993 83.7675 45.274 84.0972 45.3279 84.3671C45.3863 84.6633 45.6246 84.93 45.698 85.221C45.772 85.5139 45.9109 85.7937 45.9999 86.08C46.0895 86.3684 46.3635 86.5904 46.468 86.8715C46.5725 87.1526 46.7758 87.3864 46.8952 87.6616C47.0147 87.9368 46.979 88.2816 47.114 88.5495C47.2491 88.8175 47.1562 89.2188 47.3056 89.4789C47.4549 89.739 47.6607 89.9787 47.8243 90.2296C47.9815 90.4765 48.1464 90.7294 48.3165 90.9672C48.4866 91.2049 48.8469 91.3015 49.0287 91.5294C49.2105 91.7573 49.1748 92.1829 49.3689 92.4009C49.5631 92.619 50.015 92.5966 50.2201 92.8035C50.4247 93.0104 50.4909 93.3671 50.7058 93.5628C50.9207 93.7585 51.3843 93.656 51.6089 93.8406C51.8336 94.0251 51.8225 94.5151 52.0563 94.6872C52.29 94.8593 52.6848 94.7956 52.9276 94.9551C53.1704 95.1147 53.3386 95.3893 53.5892 95.5357C53.8398 95.6822 54.1164 95.7774 54.3742 95.9108C54.6319 96.0441 55.0059 95.9068 55.2708 96.0264C55.5357 96.1459 55.65 96.6102 55.9201 96.7153C56.1895 96.8198 56.5109 96.7751 56.7869 96.8657C57.0609 96.9557 57.2602 97.3163 57.5407 97.3918C57.8192 97.4667 58.1925 97.1436 58.4763 97.2046C58.7581 97.2651 59.0256 97.3609 59.3125 97.4063C59.5969 97.4516 59.8261 97.9678 60.115 97.998C60.4014 98.0282 60.7253 97.6795 61.0162 97.6946C61.3038 97.7097 61.5902 97.7386 61.8817 97.7386C62.1706 97.7386 62.4498 97.604 62.7348 97.5895C63.0231 97.5744 63.3439 97.9704 63.6276 97.9409C63.9146 97.9107 64.1223 97.2848 64.4041 97.2408C64.6885 97.1961 64.9657 97.2007 65.2449 97.1416C65.5267 97.0818 65.939 97.579 66.2156 97.5048C66.4935 97.4299 66.6895 97.0463 66.9616 96.9577C67.2356 96.8684 67.5687 96.9393 67.8362 96.8362C68.105 96.7324 68.4289 96.7331 68.6906 96.6162C68.9523 96.4993 69.2178 96.3502 69.4736 96.2188C69.7294 96.0874 69.9872 95.9278 70.2352 95.784C70.4832 95.6402 70.6949 95.409 70.9358 95.252C71.1767 95.095 71.3656 94.8474 71.598 94.678C71.8305 94.5085 72.0259 94.2839 72.2493 94.1026C72.4726 93.9214 72.7232 93.767 72.9375 93.5746C73.1517 93.3821 73.3244 93.1405 73.5283 92.9369C73.7322 92.7333 74.0192 92.6045 74.2127 92.3904C74.4061 92.1763 74.4847 91.8571 74.6665 91.6331C74.8483 91.4092 74.9574 91.1307 75.1281 90.8975C75.2989 90.6644 75.6612 90.5659 75.8196 90.3235C75.978 90.0812 76.291 89.9229 76.4364 89.6726C76.5896 89.408 76.4351 88.962 76.574 88.6888C76.713 88.4156 76.885 88.1601 77.0097 87.879C77.1344 87.5979 77.15 87.276 77.259 86.9884C77.3675 86.7027 77.3506 86.3795 77.4434 86.0866C77.5363 85.795 77.6382 85.5172 77.7155 85.219C77.7921 84.9228 78.131 84.6903 78.192 84.3882C78.2479 84.1136 78.4452 83.8542 78.4875 83.5737C78.5297 83.2966 78.2193 82.9688 78.2479 82.6871C78.2758 82.4073 78.1693 82.1255 78.1836 81.8425C78.1979 81.562 78.6167 81.2921 78.6167 81.0083C78.6167 80.6865 78.3862 80.3673 78.3719 80.0462C78.3576 79.725 78.244 79.4143 78.2148 79.0945C78.1855 78.7746 78.4394 78.4193 78.3946 78.1014C78.3498 77.7835 78.0193 77.5116 77.9589 77.1964L77.9583 77.197ZM73.5212 84.4433C73.4225 84.712 73.3576 85.0062 73.24 85.2669C73.1225 85.5277 72.8953 85.7431 72.7602 85.9953C72.6252 86.2475 72.2402 86.3441 72.0876 86.5858C71.935 86.8275 71.7045 86.991 71.5351 87.2209C71.3656 87.4507 71.6247 88.0248 71.439 88.2422C71.2533 88.4596 70.8507 88.4812 70.6501 88.6842C70.4488 88.8878 70.0956 88.9108 69.8814 89.098C69.6671 89.2851 69.5314 89.5531 69.3042 89.7245C69.0769 89.8959 69.0665 90.3964 68.8276 90.5508C68.5887 90.7051 68.2231 90.6677 67.9738 90.8049C67.7245 90.9422 67.4479 91.0296 67.1895 91.1484C66.9311 91.2673 66.5837 91.1484 66.3182 91.2489C66.0526 91.3494 65.8007 91.4427 65.528 91.5241C65.2553 91.6056 65.0177 91.7717 64.7398 91.8335C64.4619 91.8952 64.1983 91.9865 63.9172 92.0285C63.636 92.0706 63.362 92.1238 63.0783 92.1461C62.7946 92.1684 62.5186 92.4856 62.2336 92.4876C61.9629 92.4896 61.5681 92.4042 61.346 92.2715C61.1201 92.1362 61.237 91.6082 61.1039 91.379C60.9727 91.153 60.6286 90.9947 60.6286 90.7222C60.6286 90.4496 60.5422 90.0345 60.6734 89.8106C60.8071 89.5833 61.3486 89.7061 61.5752 89.5722C61.7966 89.4408 61.9616 89.2385 62.2317 89.2365C62.4946 89.2346 62.7193 89.4027 62.916 89.3817C63.1192 89.3594 63.2939 89.0822 63.549 89.0789C63.8256 89.0756 64.0236 88.7702 64.271 88.7203C64.534 88.6671 64.7424 88.6257 64.9859 88.5325C65.2293 88.4392 65.5196 88.4996 65.7565 88.3788C65.9864 88.2619 66.25 88.206 66.4863 88.0767C66.774 87.9184 67.0739 87.8067 67.3187 87.6366C67.5933 87.4455 67.8693 87.278 68.0907 87.0875C68.3549 86.8596 68.5685 86.6153 68.7594 86.413C69.0386 86.1175 69.0354 85.6998 69.162 85.5323C69.41 85.2052 69.7294 85.5375 69.9878 85.1027C70.1086 84.8998 69.7554 84.3875 69.8924 84.1123C70.0067 83.8824 70.2326 83.7025 70.3423 83.4312C70.4417 83.1856 70.4605 82.9183 70.5449 82.6451C70.6248 82.3876 70.6306 82.1328 70.6871 81.8563C70.7637 81.4806 71.2357 81.5817 71.2753 81.2185C71.3396 80.6287 70.839 80.3693 70.8715 80.123C70.902 79.8885 71.1851 79.6055 71.3318 79.3782C71.4708 79.1634 71.8909 79.2265 72.0941 79.082C72.3122 78.9263 72.4272 78.3865 72.6713 78.3865C72.9388 78.3865 73.0459 78.9756 73.2686 79.1089C73.4939 79.2436 73.8413 79.1753 73.9744 79.4025C74.1055 79.6265 74.0951 79.8892 74.0932 80.1611C74.0906 80.4507 73.8471 80.7154 73.825 81.0024C73.803 81.2895 73.8685 81.5706 73.827 81.8556C73.7854 82.1406 73.9776 82.4644 73.9166 82.7462C73.8556 83.028 73.6575 83.2723 73.5764 83.5488C73.4952 83.8253 73.6212 84.1734 73.5212 84.4433Z" fill="#0D3EC7"/>
<path d="M69.4696 25.0175C69.4696 25.4477 69.4176 25.4477 69.4176 25.8779C69.4176 26.3081 69.5715 26.3081 69.5715 26.7383C69.5715 27.1685 69.7624 27.1679 69.7624 27.5974C69.7624 28.0269 69.5533 28.0276 69.5533 28.4571C69.5533 28.8867 69.2956 28.8873 69.2956 29.3182C69.2956 29.749 69.704 29.7484 69.704 30.1779C69.704 30.6074 69.7877 30.6081 69.7877 31.0389C69.7877 31.4698 69.6494 31.4691 69.6494 31.8993C69.6494 32.3295 69.7747 32.3295 69.7747 32.7604C69.7747 33.1912 69.341 33.1899 69.341 33.6194C69.341 34.049 69.4033 34.049 69.4033 34.4785C69.4033 34.9081 69.6585 34.9094 69.6585 35.3402C69.6585 35.7711 69.2995 35.7704 69.2995 36.2006C69.2995 36.6308 69.5131 36.6315 69.5131 37.0623C69.5131 37.4932 69.7884 37.4938 69.7884 37.9247C69.7884 38.3555 69.6695 38.3555 69.6695 38.7857C69.6695 39.2159 69.4644 39.2172 69.4644 39.6487C69.4644 40.0802 69.7864 40.0809 69.7864 40.513C69.7864 40.9452 69.9754 41.1843 69.6734 41.4903C69.3715 41.7964 69.1352 41.6237 68.7093 41.6237C68.2834 41.6237 68.2834 41.5639 67.8574 41.5639C67.4315 41.5639 67.4309 41.1902 67.0049 41.1902C66.579 41.1902 66.5784 41.6361 66.1511 41.6361C65.7239 41.6361 65.7246 41.1074 65.2987 41.1074C64.8727 41.1074 64.8721 41.1436 64.4449 41.1436C64.0176 41.1436 64.0183 41.1718 63.5917 41.1718C63.1651 41.1718 63.1651 41.4614 62.7379 41.4614C62.3107 41.4614 62.312 41.3938 61.8861 41.3938C61.4602 41.3938 61.4602 41.5376 61.0342 41.5376C60.6083 41.5376 60.607 41.0779 60.1798 41.0779C59.7526 41.0779 59.7532 41.516 59.3267 41.516C58.9001 41.516 58.8994 41.516 58.4722 41.516C58.045 41.516 58.0444 41.357 57.6171 41.357C57.1899 41.357 57.1899 41.6808 56.7633 41.6808C56.3368 41.6808 56.3355 41.6946 55.9076 41.6946C55.4797 41.6946 55.4791 41.644 55.0506 41.644C54.622 41.644 54.7025 41.4917 54.411 41.1738C54.0968 40.8316 54.2292 40.9111 54.2292 40.4441C54.2292 39.9771 54.4656 39.9778 54.4656 39.5108C54.4656 39.0438 53.8936 39.0432 53.8936 38.5755C53.8936 38.1079 54.289 38.1072 54.289 37.639C54.289 37.1707 54.7006 36.8679 54.389 36.5218C54.1046 36.2065 53.7715 36.5756 53.3495 36.5756C52.9274 36.5756 52.9268 36.3924 52.5041 36.3924C52.0814 36.3924 52.0821 36.437 51.6594 36.437C51.2367 36.437 51.2374 36.5881 50.8154 36.5881C50.3933 36.5881 50.3933 36.4594 49.9713 36.4594C49.5493 36.4594 49.5493 37.019 49.1273 37.019C48.7052 37.019 48.7052 36.7293 48.2832 36.7293C47.8612 36.7293 47.8612 36.5507 47.4392 36.5507C47.0171 36.5507 47.0165 36.6315 46.5945 36.6315C46.1724 36.6315 46.1718 36.3884 45.7498 36.3884C45.3277 36.3884 45.3277 36.8206 44.9063 36.8206C44.485 36.8206 44.485 36.638 44.0636 36.638C43.6422 36.638 43.6429 36.8561 43.2215 36.8561C42.8001 36.8561 42.8008 36.5848 42.38 36.5848C41.9593 36.5848 41.9593 36.7405 41.5386 36.7405C41.1179 36.7405 41.1179 36.4922 40.6971 36.4922C40.2764 36.4922 40.2757 36.554 39.855 36.554C39.4343 36.554 39.4336 36.4627 39.0116 36.4627C38.5896 36.4627 38.5896 36.4101 38.1669 36.4101C37.7442 36.4101 37.7436 36.5323 37.3209 36.5323C36.8982 36.5323 36.8989 36.4134 36.4762 36.4134C36.0535 36.4134 36.0542 36.5579 35.6328 36.5579C35.2114 36.5579 35.2114 36.9671 34.7894 36.9671C34.3674 36.9671 34.368 36.6236 33.946 36.6236C33.524 36.6236 33.524 36.6019 33.102 36.6019C32.6799 36.6019 32.6793 36.6301 32.2566 36.6301C31.8339 36.6301 31.8333 36.5191 31.4106 36.5191C30.9879 36.5191 30.9879 36.9907 30.5659 36.9907C30.1439 36.9907 30.1439 36.5165 29.7212 36.5165C29.2985 36.5165 29.2985 36.9362 28.8765 36.9362C28.4545 36.9362 28.4532 36.6078 28.0305 36.6078C27.6078 36.6078 27.6072 36.8797 27.1845 36.8797C26.7618 36.8797 26.7618 36.751 26.3391 36.751C25.9165 36.751 25.9165 36.9303 25.4931 36.9303C25.0698 36.9303 25.0698 36.5664 24.6465 36.5664C24.2232 36.5664 24.2238 36.6518 23.8005 36.6518C23.3772 36.6518 23.3772 36.4068 22.9538 36.4068C22.5305 36.4068 22.5305 36.594 22.1072 36.594C21.6839 36.594 21.6839 36.659 21.2605 36.659C20.8372 36.659 20.8379 36.8482 20.4158 36.8482C19.9938 36.8482 19.9932 36.929 19.5711 36.929C19.1491 36.929 19.1472 36.707 18.7232 36.707C18.2992 36.707 18.2999 36.3838 17.8772 36.3838C17.4545 36.3838 17.4532 36.6242 17.0299 36.6242C16.6066 36.6242 16.6059 36.4049 16.1813 36.4049C15.7567 36.4049 15.758 36.6998 15.334 36.6998C14.91 36.6998 14.9094 36.9966 14.4848 36.9966C14.0601 36.9966 14.0595 36.9066 13.6342 36.9066C13.2089 36.9066 13.109 36.9802 12.8096 36.6748C12.5077 36.3668 12.5753 36.2669 12.5753 35.8335C12.5753 35.4 12.8642 35.3993 12.8642 34.9652C12.8642 34.5311 12.5876 34.5304 12.5876 34.0963C12.5876 33.6621 12.8668 33.6621 12.8668 33.228C12.8668 32.7939 12.8239 32.7932 12.8239 32.3591C12.8239 31.9249 12.6571 31.9249 12.6571 31.4908C12.6571 31.0567 12.9927 31.0567 12.9927 30.6219C12.9927 30.1871 12.6934 30.1884 12.6934 29.7549C12.6934 29.3215 12.5655 29.3215 12.5655 28.888C12.5655 28.4545 12.8687 28.4532 12.8687 28.0184C12.8687 27.5836 13.0057 27.5843 13.0057 27.1501C13.0057 26.716 13.0921 26.7153 13.0921 26.2805C13.0921 25.8458 13.0817 25.8451 13.0817 25.4096C13.0817 24.9742 12.9311 24.9749 12.9311 24.5401C12.9311 24.1053 12.7746 24.1046 12.7746 23.6685C12.7746 23.2324 12.8337 23.2324 12.8337 22.7956C12.8337 22.3589 12.2617 22.016 12.5636 21.7047C12.8596 21.3993 13.207 21.6758 13.6297 21.6758C14.0523 21.6758 14.053 22.1126 14.4757 22.1126C14.8983 22.1126 14.899 22.1632 15.3223 22.1632C15.7456 22.1632 15.7463 22.2177 16.1703 22.2177C16.5942 22.2177 16.5949 22.2302 17.0195 22.2302C17.4441 22.2302 17.4435 21.7993 17.8675 21.7993C18.2914 21.7993 18.2908 22.022 18.7148 22.022C19.1387 22.022 19.1387 21.9747 19.5627 21.9747C19.9867 21.9747 19.9873 21.8144 20.412 21.8144C20.8366 21.8144 20.8366 21.9707 21.2605 21.9707C21.6845 21.9707 21.6845 22.016 22.1085 22.016C22.5325 22.016 22.5331 21.7376 22.9571 21.7376C23.3811 21.7376 23.3817 22.1665 23.807 22.1665C24.2323 22.1665 24.2316 21.6141 24.6556 21.6141C25.0796 21.6141 25.0802 21.9202 25.5055 21.9202C25.9308 21.9202 25.9301 22.1586 26.3547 22.1586C26.7794 22.1586 26.7794 21.909 27.2046 21.909C27.6299 21.909 27.6286 22.2269 28.0526 22.2269C28.4765 22.2269 28.4765 21.9714 28.9005 21.9714C29.3245 21.9714 29.3258 21.9543 29.7511 21.9543C30.1763 21.9543 30.1757 21.7737 30.6003 21.7737C31.0249 21.7737 31.0256 21.6581 31.4509 21.6581C31.8761 21.6581 31.8768 21.8519 32.3021 21.8519C32.7273 21.8519 32.7273 21.9051 33.1519 21.9051C33.5766 21.9051 33.5779 21.9248 34.0038 21.9248C34.4297 21.9248 34.4304 21.7901 34.8569 21.7901C35.2835 21.7901 35.2731 22.0844 35.5809 21.7849C35.8769 21.4972 35.9497 21.5057 35.9497 21.0906C35.9497 20.6756 35.8386 20.6742 35.8386 20.2578C35.8386 19.8414 35.5263 19.8414 35.5263 19.425C35.5263 19.1341 35.9146 18.8976 35.9854 18.6297C36.0587 18.3525 35.9062 17.9893 36.0451 17.747C36.186 17.5007 36.5457 17.4251 36.7431 17.2255C36.9404 17.0258 36.9651 16.5733 37.2086 16.4314C37.4488 16.2909 37.826 16.4143 38.1 16.3408C38.3649 16.2692 38.6298 16.285 38.9175 16.285C39.4414 16.285 39.4414 16.4432 39.966 16.4432C40.4907 16.4432 40.4894 16.3684 40.8971 16.0347C41.2263 15.7654 41.2308 15.753 41.2308 15.3247C41.2308 14.8965 41.1769 14.8972 41.1769 14.4689C41.1769 14.0407 40.8322 14.0401 40.8322 13.6112C40.8322 13.1823 41.0347 13.1817 41.0347 12.7521C41.0347 12.3226 41.2191 12.2956 40.9153 11.9955C40.6043 11.6881 40.5796 11.7275 40.1446 11.7275C39.7096 11.7275 39.7109 12.0198 39.2765 12.0198C38.8422 12.0198 38.8422 12.0211 38.4078 12.0211C37.9734 12.0211 37.9728 12.1275 37.5378 12.1275C37.1028 12.1275 37.1034 11.6054 36.669 11.6054C36.2347 11.6054 36.2334 11.9508 35.7984 11.9508C35.3634 11.9508 35.3621 12.1643 34.9264 12.1643C34.4907 12.1643 34.4868 11.8346 34.0577 11.9121C33.885 12.0999 33.6811 12.2398 33.4629 12.3738C33.248 12.5058 33.0448 12.7166 32.7968 12.7863C32.5572 12.8533 32.2761 12.63 32.0157 12.63C31.7106 12.63 31.5093 12.448 31.234 12.358C30.9483 12.2641 30.7224 12.2326 30.4847 12.0572C30.2452 11.8806 29.6939 12.0021 29.5199 11.7584C29.3479 11.518 29.2187 11.162 29.1265 10.8731C29.0375 10.5946 29.3011 10.2314 29.3011 9.92269C29.3011 9.614 29.1421 9.28561 29.231 9.00713C29.3232 8.7188 29.5913 8.50798 29.7641 8.26759C29.9381 8.02524 30.2276 7.94314 30.4672 7.76713C30.7042 7.59242 30.8704 7.34153 31.1561 7.24827C31.4307 7.15829 31.7106 6.99803 32.0151 6.99803C32.2761 6.99803 32.4936 7.22922 32.7332 7.29621C32.9812 7.36583 33.1033 7.58651 33.3182 7.71852C33.5363 7.85251 33.8811 7.77304 34.0538 7.96088C34.4726 8.03772 34.4797 8.06071 34.905 8.06071C35.3303 8.06071 35.3302 8.15069 35.7555 8.15069C36.1808 8.15069 36.1808 7.75268 36.6061 7.75268C37.0313 7.75268 37.032 7.8906 37.4579 7.8906C37.8838 7.8906 37.8838 7.69882 38.3098 7.69882C38.7357 7.69882 38.7357 7.76056 39.161 7.76056C39.5862 7.76056 39.5869 8.22359 40.0128 8.22359C40.4387 8.22359 40.4394 7.81507 40.8653 7.81507C41.2912 7.81507 41.2912 7.70867 41.7171 7.70867C42.1431 7.70867 42.1437 8.27154 42.5696 8.27154C42.9955 8.27154 42.9955 8.15923 43.4221 8.15923C43.8487 8.15923 43.8487 7.66664 44.2746 7.66664C44.7005 7.66664 44.6999 7.65219 45.1252 7.65219C45.5504 7.65219 45.5504 7.65219 45.9757 7.65219C46.401 7.65219 46.4023 8.24329 46.8295 8.24329C47.2567 8.24329 47.2554 7.93329 47.682 7.93329C48.1086 7.93329 48.1086 7.85973 48.5351 7.85973C48.9617 7.85973 48.9623 7.65744 49.3896 7.65744C49.8168 7.65744 49.8161 8.20323 50.2427 8.20323C50.6693 8.20323 50.6699 7.7934 51.0978 7.7934C51.5257 7.7934 51.5263 7.74085 51.9542 7.74085C52.3821 7.74085 52.4288 8.2584 52.8502 8.18156C53.0229 7.99372 53.1969 7.63183 53.4163 7.49784C53.6319 7.36583 53.9371 7.54973 54.1857 7.48011C54.4266 7.41312 54.5948 7.35664 54.8551 7.35664C55.1596 7.35664 55.4414 7.15106 55.7161 7.2417C56.0011 7.33562 56.3004 7.40524 56.5374 7.57994C56.777 7.75662 56.9451 8.01605 57.1191 8.2584C57.2918 8.49813 57.6704 8.67874 57.7626 8.96641C57.8522 9.24423 57.9424 9.614 57.9424 9.92203C57.9424 10.2301 57.5606 10.5053 57.4717 10.7837C57.3795 11.0727 57.297 11.3525 57.1243 11.5929C56.9503 11.8359 56.5991 11.8458 56.3595 12.0224C56.1225 12.1978 56.0504 12.6694 55.7654 12.7633C55.4901 12.8539 55.1583 12.9248 54.8538 12.9248C54.5928 12.9248 54.2539 13.0634 54.013 12.9958C53.7644 12.9262 53.5592 12.6024 53.3443 12.471C53.1248 12.337 52.9872 12.0474 52.8151 11.8589C52.3821 11.7814 52.3697 11.9298 51.9302 11.9298C51.4906 11.9298 51.4913 11.8786 51.0523 11.8786C50.6134 11.8786 50.6128 11.9357 50.1739 11.9357C49.735 11.9357 49.7343 11.7472 49.2941 11.7472C48.8539 11.7472 48.8546 12.1058 48.4157 12.1058C47.9768 12.1058 47.9755 11.7144 47.5352 11.7144C47.095 11.7144 47.0944 11.9797 46.6535 11.9797C46.2127 11.9797 46.0082 11.497 45.6907 11.8063C45.3849 12.1032 45.953 12.3206 45.953 12.7488C45.953 13.1771 45.9841 13.1764 45.9841 13.6046C45.9841 14.0328 46.0406 14.0335 46.0406 14.4624C46.0406 14.8913 45.9945 14.8919 45.9945 15.3215C45.9945 15.751 45.4504 15.8994 45.7809 16.17C46.188 16.5037 46.2964 16.1155 46.8211 16.1155C47.3457 16.1155 47.345 16.4689 47.8696 16.4689C48.1572 16.4689 48.3735 16.4551 48.6384 16.5266C48.9124 16.6009 49.124 16.6672 49.3642 16.8078C49.6077 16.9503 50.0343 16.8367 50.2317 17.037C50.429 17.2373 50.6011 17.502 50.742 17.7483C50.8809 17.9913 51.1283 18.2455 51.2017 18.5226C51.2725 18.7906 51.2614 19.1347 51.2614 19.4257C51.2614 19.8408 51.2802 19.8408 51.2802 20.2559C51.2802 20.671 51.351 20.6723 51.351 21.0887C51.351 21.5051 50.7472 21.6673 51.0439 21.9563C51.3523 22.2564 51.5049 21.6528 51.9328 21.6528C52.3606 21.6528 52.36 21.6023 52.7878 21.6023C53.2157 21.6023 53.2157 21.9005 53.6436 21.9005C54.0715 21.9005 54.0721 21.8124 54.5 21.8124C54.9278 21.8124 54.9278 21.8676 55.3557 21.8676C55.7836 21.8676 55.7842 21.7862 56.2121 21.7862C56.64 21.7862 56.64 22.0725 57.0678 22.0725C57.4957 22.0725 57.4957 21.777 57.9242 21.777C58.3528 21.777 58.3515 21.756 58.7787 21.756C59.2059 21.756 59.2059 21.8223 59.6331 21.8223C60.0603 21.8223 60.0616 22.1835 60.4902 22.1835C60.9187 22.1835 60.918 21.9845 61.3459 21.9845C61.7738 21.9845 61.7744 22.1816 62.2029 22.1816C62.6314 22.1816 62.6321 22.11 63.0613 22.11C63.4904 22.11 63.4898 22.083 63.9183 22.083C64.3468 22.083 64.3475 21.861 64.7773 21.861C65.2071 21.861 65.2071 21.5996 65.6376 21.5996C66.068 21.5996 66.0674 22.0515 66.4979 22.0515C66.7725 22.0515 66.9842 22.1625 67.2367 22.2308C67.4984 22.3011 67.7438 22.2998 67.973 22.4331C68.2054 22.5691 68.5301 22.5802 68.7184 22.7707C68.9067 22.9612 68.9943 23.2449 69.1294 23.4794C69.2625 23.7112 69.5507 23.9043 69.6209 24.169C69.6884 24.4245 69.4702 24.7378 69.4702 25.0149L69.4696 25.0175Z" fill="#7A7671"/>
<path d="M69.8008 50.3372C69.3839 50.3372 69.3839 50.1651 68.9678 50.1651C68.5516 50.1651 68.5516 50.5717 68.1347 50.5717C67.7179 50.5717 67.7186 50.288 67.3024 50.288C66.8862 50.288 66.8862 50.3215 66.4694 50.3215C66.0525 50.3215 66.0525 50.309 65.6357 50.309C65.2189 50.309 65.2195 50.129 64.8027 50.129C64.3858 50.129 64.3859 50.5559 63.969 50.5559C63.5522 50.5559 63.5522 50.3188 63.1354 50.3188C62.7185 50.3188 62.7185 50.3641 62.3017 50.3641C61.8849 50.3641 61.8855 50.1336 61.47 50.1336C61.0544 50.1336 61.0538 50.4351 60.6383 50.4351C60.2227 50.4351 60.2208 50.6111 59.8039 50.6111C59.3871 50.6111 59.3871 50.3326 58.9709 50.3326C58.5548 50.3326 58.5534 50.439 58.1366 50.439C57.7198 50.439 57.7191 50.6026 57.301 50.6026C56.8829 50.6026 56.8842 50.3517 56.4667 50.3517C56.0492 50.3517 56.0486 50.7352 55.6304 50.7352C55.2123 50.7352 55.2117 50.7175 54.7929 50.7175C54.3741 50.7175 54.3741 50.1172 53.9553 50.1172C53.669 50.1172 53.4294 50.2288 53.1652 50.1579C52.8918 50.0837 52.6918 49.9491 52.4529 49.8092C52.2101 49.6673 51.9484 49.6056 51.751 49.4059C51.5537 49.2062 51.5095 48.9317 51.3693 48.6867C51.231 48.4444 51.0693 48.2552 50.9966 47.9787C50.9258 47.7114 50.52 47.4664 50.52 47.1768H50.8732C50.8732 46.8871 50.7648 46.5981 50.8356 46.3308C50.9089 46.0543 51.1647 45.8698 51.3037 45.6274C51.4439 45.3818 51.6114 45.2031 51.8088 45.0041C52.0062 44.8051 52.0367 44.3808 52.2795 44.239C52.5191 44.0991 52.8717 44.1871 53.145 44.1129C53.4093 44.0413 53.6703 43.7661 53.9566 43.7661C54.3734 43.7661 54.3734 44.2626 54.7896 44.2626C55.2058 44.2626 55.2058 43.7418 55.6226 43.7418C56.0395 43.7418 56.0388 44.1786 56.455 44.1786C56.8712 44.1786 56.8712 43.8344 57.288 43.8344C57.7049 43.8344 57.7049 43.6696 58.1217 43.6696C58.5385 43.6696 58.5379 43.9598 58.9547 43.9598C59.3715 43.9598 59.3715 44.0774 59.7884 44.0774C60.2052 44.0774 60.2052 44.2252 60.622 44.2252C61.0389 44.2252 61.0389 44.1779 61.4557 44.1779C61.8725 44.1779 61.8719 43.7306 62.2874 43.7306C62.7029 43.7306 62.7036 44.2061 63.1191 44.2061C63.5347 44.2061 63.5366 44.1017 63.9534 44.1017C64.3703 44.1017 64.3703 44.0098 64.7865 44.0098C65.2026 44.0098 65.2039 43.6866 65.6208 43.6866C66.0376 43.6866 66.0382 44.1254 66.4564 44.1254C66.8745 44.1254 66.8732 43.6288 67.2907 43.6288C67.7082 43.6288 67.7088 43.8469 68.127 43.8469C68.5451 43.8469 68.5457 44.1832 68.9645 44.1832C69.3833 44.1832 69.3833 43.8173 69.8021 43.8173C70.0884 43.8173 70.3468 44.0538 70.6111 44.1254C70.8844 44.1996 71.237 44.105 71.4759 44.2449C71.7187 44.3868 71.7259 44.8327 71.9226 45.0317C72.1193 45.2307 72.4472 45.3043 72.5874 45.5499C72.7257 45.7923 72.8381 46.0576 72.9108 46.3341C72.9816 46.6014 73.1062 46.8871 73.1062 47.1768H72.7355C72.7355 47.4664 72.7459 47.6891 72.6757 47.9564C72.6024 48.2329 72.8939 48.6604 72.7556 48.9028C72.6154 49.1484 72.4414 49.4492 72.2446 49.6483C72.0479 49.8473 71.6583 49.8624 71.4155 50.0042C71.1759 50.1441 70.8305 49.9523 70.5572 50.0266C70.2929 50.0982 70.0884 50.3372 69.8021 50.3372H69.8008Z" fill="#3D3A37"/>
</g>
<defs>
<clipPath id="clip0_2973_9045">
<rect width="80" height="91" fill="white" transform="translate(12 7)"/>
</clipPath>
</defs>
</svg>
