<svg width="24" height="24" viewBox="0 0 24 24" fill="none" xmlns="http://www.w3.org/2000/svg">
<path d="M21.75 7.5H18.6975C19.3578 8.64409 19.6221 9.97411 19.4494 11.2837C19.2766 12.5933 18.6765 13.8094 17.7422 14.7431C16.9434 15.5578 15.9038 16.3294 14.7563 17.0409C14.6844 17.0847 14.6 17.103 14.5165 17.0929C14.433 17.0829 14.3554 17.0451 14.2959 16.9856L11.0297 13.7194C10.9586 13.6483 10.874 13.5922 10.7809 13.5545C10.6878 13.5168 10.588 13.4981 10.4875 13.4997C10.387 13.5013 10.2879 13.523 10.196 13.5637C10.1041 13.6043 10.0213 13.663 9.95251 13.7363C9.82015 13.8847 9.75026 14.0786 9.75742 14.2774C9.76459 14.4762 9.84825 14.6645 9.99094 14.8031L12.7922 17.6044C12.834 17.6461 12.8654 17.6972 12.8838 17.7534C12.9021 17.8096 12.9069 17.8694 12.8978 17.9278C12.8886 17.9862 12.8658 18.0416 12.8312 18.0895C12.7965 18.1374 12.751 18.1765 12.6984 18.2034C8.97563 20.1366 4.96876 21.4256 4.38563 21.6075C4.10668 21.7375 3.79451 21.7785 3.49146 21.725C3.18841 21.6715 2.90914 21.5261 2.69154 21.3085C2.47394 21.0909 2.32853 20.8116 2.27503 20.5086C2.22154 20.2055 2.26255 19.8933 2.39251 19.6144C2.64844 18.7978 5.11126 11.1516 8.47313 7.11281C8.50654 7.07285 8.54791 7.04029 8.5946 7.0172C8.64129 6.99411 8.69228 6.981 8.74432 6.97871C8.79636 6.97641 8.8483 6.98499 8.89685 7.00388C8.94539 7.02277 8.98946 7.05157 9.02626 7.08844L12.9684 11.0316C13.0414 11.1044 13.1285 11.1615 13.2245 11.1992C13.3204 11.2369 13.4231 11.2543 13.5261 11.2506C13.6291 11.2468 13.7303 11.2218 13.8232 11.1772C13.9161 11.1326 13.9989 11.0693 14.0663 10.9913C14.1895 10.8425 14.2521 10.6528 14.2417 10.4599C14.2313 10.2671 14.1486 10.0852 14.01 9.95063L10.1325 6.07313C10.093 6.03375 10.0627 5.98605 10.044 5.93351C10.0252 5.88096 10.0184 5.82488 10.024 5.76937C10.0297 5.71386 10.0477 5.66031 10.0767 5.61263C10.1056 5.56495 10.1449 5.52434 10.1916 5.49375C11.1218 4.87973 12.2046 4.53695 13.3187 4.50383C14.4328 4.47072 15.534 4.74857 16.4991 5.30625V2.25C16.4988 2.1471 16.5198 2.04525 16.5606 1.9508C16.6014 1.85634 16.6612 1.77129 16.7363 1.70094C16.8114 1.63059 16.9002 1.57645 16.9971 1.54188C17.094 1.50731 17.197 1.49306 17.2997 1.5C17.493 1.51682 17.6727 1.60625 17.8026 1.7503C17.9326 1.89434 18.0031 2.08228 18 2.27625V4.93969L20.4694 2.46938C20.5391 2.39969 20.6218 2.34442 20.7128 2.30671C20.8039 2.26899 20.9015 2.24958 21 2.24958C21.0986 2.24958 21.1961 2.26899 21.2872 2.30671C21.3782 2.34442 21.4609 2.39969 21.5306 2.46938C21.6003 2.53906 21.6556 2.62178 21.6933 2.71283C21.731 2.80387 21.7504 2.90146 21.7504 3C21.7504 3.09855 21.731 3.19613 21.6933 3.28717C21.6556 3.37822 21.6003 3.46094 21.5306 3.53063L19.0603 6H21.7238C21.9177 5.9969 22.1057 6.06743 22.2497 6.19738C22.3938 6.32733 22.4832 6.50705 22.5 6.70031C22.5068 6.8029 22.4925 6.9058 22.4578 7.00261C22.4232 7.09942 22.369 7.18807 22.2987 7.26307C22.2284 7.33806 22.1434 7.39779 22.049 7.43855C21.9546 7.47931 21.8528 7.50023 21.75 7.5Z" fill="black"/>
</svg>
