<svg width="24" height="24" viewBox="0 0 24 24" fill="none" xmlns="http://www.w3.org/2000/svg">
<path d="M11.3152 15.5745C11.3634 15.6908 11.3761 15.8187 11.3516 15.9422C11.3271 16.0656 11.2665 16.1791 11.1776 16.2681L8.63229 18.8134C8.57319 18.8725 8.50301 18.9195 8.42576 18.9515C8.34852 18.9835 8.26571 19 8.18209 19C8.09847 19 8.01567 18.9835 7.93842 18.9515C7.86117 18.9195 7.79099 18.8725 7.7319 18.8134L5.18662 16.2681C5.09753 16.1791 5.03685 16.0657 5.01225 15.9422C4.98766 15.8187 5.00026 15.6907 5.04847 15.5743C5.09667 15.458 5.1783 15.3586 5.28304 15.2887C5.38777 15.2188 5.51089 15.1815 5.63682 15.1816H7.54577V5.63682C7.54577 5.46806 7.61281 5.30621 7.73215 5.18687C7.85148 5.06754 8.01333 5.0005 8.18209 5.0005C8.35085 5.0005 8.5127 5.06754 8.63204 5.18687C8.75137 5.30621 8.81841 5.46806 8.81841 5.63682V15.1816H10.7274C10.8532 15.1816 10.9762 15.219 11.0809 15.2889C11.1855 15.3588 11.267 15.4582 11.3152 15.5745ZM18.8134 7.7319L16.2681 5.18662C16.209 5.12746 16.1388 5.08053 16.0616 5.0485C15.9843 5.01648 15.9015 5 15.8179 5C15.7343 5 15.6515 5.01648 15.5742 5.0485C15.497 5.08053 15.4268 5.12746 15.3677 5.18662L12.8224 7.7319C12.7334 7.82089 12.6727 7.93431 12.6481 8.05781C12.6235 8.18131 12.6361 8.30933 12.6843 8.42567C12.7325 8.542 12.8141 8.64142 12.9189 8.71133C13.0236 8.78124 13.1467 8.81851 13.2726 8.81841H15.1816V18.3632C15.1816 18.5319 15.2486 18.6938 15.368 18.8131C15.4873 18.9325 15.6491 18.9995 15.8179 18.9995C15.9867 18.9995 16.1485 18.9325 16.2679 18.8131C16.3872 18.6938 16.4542 18.5319 16.4542 18.3632V8.81841H18.3632C18.4891 8.81851 18.6122 8.78124 18.717 8.71133C18.8217 8.64142 18.9033 8.542 18.9515 8.42567C18.9997 8.30933 19.0123 8.18131 18.9877 8.05781C18.9632 7.93431 18.9025 7.82089 18.8134 7.7319Z" fill="black"/>
</svg>
