<svg width="24" height="24" viewBox="0 0 24 24" fill="none" xmlns="http://www.w3.org/2000/svg">
<path d="M19.7165 12.4012L13.9575 18.1602C13.7772 18.3405 13.5326 18.4418 13.2776 18.4418C13.0226 18.4418 12.778 18.3405 12.5977 18.1602C12.4174 17.9799 12.3161 17.7353 12.3161 17.4803C12.3161 17.2253 12.4174 16.9807 12.5977 16.8004L16.7178 12.6819H4.95983C4.70527 12.6819 4.46113 12.5808 4.28113 12.4008C4.10113 12.2208 4 11.9767 4 11.7221C4 11.4675 4.10113 11.2234 4.28113 11.0434C4.46113 10.8634 4.70527 10.7623 4.95983 10.7623H16.7178L12.5993 6.64138C12.419 6.46107 12.3177 6.2165 12.3177 5.9615C12.3177 5.70649 12.419 5.46193 12.5993 5.28162C12.7796 5.1013 13.0242 5 13.2792 5C13.5342 5 13.7788 5.1013 13.9591 5.28162L19.7181 11.0406C19.8076 11.1299 19.8786 11.236 19.9269 11.3528C19.9753 11.4696 20.0001 11.5948 20 11.7212C19.9998 11.8477 19.9747 11.9728 19.9261 12.0895C19.8774 12.2062 19.8062 12.3121 19.7165 12.4012Z" fill="black"/>
</svg>
