<svg width="24" height="24" viewBox="0 0 24 24" fill="none" xmlns="http://www.w3.org/2000/svg">
<path d="M3.96935 8.03061C3.89962 7.96095 3.8443 7.87823 3.80656 7.78719C3.76882 7.69614 3.74939 7.59854 3.74939 7.49998C3.74939 7.40142 3.76882 7.30382 3.80656 7.21278C3.8443 7.12173 3.89962 7.03901 3.96935 6.96936L6.96935 3.96936C7.07425 3.86435 7.20794 3.79282 7.3535 3.76383C7.49906 3.73485 7.64996 3.7497 7.78707 3.80651C7.92419 3.86333 8.04137 3.95955 8.12377 4.08299C8.20617 4.20644 8.2501 4.35156 8.24998 4.49998V6.74998H19.5C19.6989 6.74998 19.8897 6.829 20.0303 6.96965C20.171 7.1103 20.25 7.30107 20.25 7.49998C20.25 7.69889 20.171 7.88966 20.0303 8.03031C19.8897 8.17096 19.6989 8.24998 19.5 8.24998H8.24998V10.5C8.2501 10.6484 8.20617 10.7935 8.12377 10.917C8.04137 11.0404 7.92419 11.1366 7.78707 11.1934C7.64996 11.2503 7.49906 11.2651 7.3535 11.2361C7.20794 11.2071 7.07425 11.1356 6.96935 11.0306L3.96935 8.03061ZM20.0306 15.9694L17.0306 12.9694C16.9257 12.8643 16.792 12.7928 16.6465 12.7638C16.5009 12.7348 16.35 12.7497 16.2129 12.8065C16.0758 12.8633 15.9586 12.9595 15.8762 13.083C15.7938 13.2064 15.7499 13.3516 15.75 13.5V15.75H4.49998C4.30107 15.75 4.1103 15.829 3.96965 15.9697C3.829 16.1103 3.74998 16.3011 3.74998 16.5C3.74998 16.6989 3.829 16.8897 3.96965 17.0303C4.1103 17.171 4.30107 17.25 4.49998 17.25H15.75V19.5C15.7499 19.6484 15.7938 19.7935 15.8762 19.917C15.9586 20.0404 16.0758 20.1366 16.2129 20.1934C16.35 20.2503 16.5009 20.2651 16.6465 20.2361C16.792 20.2071 16.9257 20.1356 17.0306 20.0306L20.0306 17.0306C20.1003 16.961 20.1557 16.8782 20.1934 16.7872C20.2311 16.6961 20.2506 16.5985 20.2506 16.5C20.2506 16.4014 20.2311 16.3038 20.1934 16.2128C20.1557 16.1217 20.1003 16.039 20.0306 15.9694Z" fill="black"/>
</svg>
