<svg width="24" height="24" viewBox="0 0 24 24" fill="none" xmlns="http://www.w3.org/2000/svg">
<path d="M20.2777 6.23931V10.0795C20.2777 10.3341 20.1765 10.5783 19.9965 10.7584C19.8165 10.9384 19.5723 11.0395 19.3176 11.0395H15.4775C15.2228 11.0395 14.9786 10.9384 14.7986 10.7584C14.6186 10.5783 14.5174 10.3341 14.5174 10.0795C14.5174 9.82488 14.6186 9.58069 14.7986 9.40064C14.9786 9.2206 15.2228 9.11945 15.4775 9.11945H16.8455L15.3254 7.72899C15.315 7.71939 15.3046 7.70979 15.295 7.69938C14.5902 6.995 13.7231 6.47463 12.7699 6.18406C11.8168 5.8935 10.8068 5.84164 9.82892 6.03306C8.85102 6.22448 7.93515 6.65331 7.1619 7.28181C6.38864 7.91031 5.78171 8.71922 5.39449 9.63737C5.00728 10.5555 4.85165 11.5548 4.94131 12.5472C5.03096 13.5396 5.36315 14.4948 5.90865 15.3287C6.45414 16.1626 7.19622 16.8496 8.06959 17.3293C8.94297 17.8091 9.92086 18.0668 10.9172 18.0799H10.9972C12.5492 18.0836 14.0432 17.4901 15.1694 16.4222C15.3546 16.2473 15.6016 16.153 15.8562 16.1602C16.1108 16.1674 16.3522 16.2755 16.5271 16.4606C16.7021 16.6457 16.7963 16.8928 16.7891 17.1474C16.7819 17.402 16.6738 17.6433 16.4887 17.8183C15.0061 19.2235 13.0399 20.0046 10.9972 20H10.8876C9.57801 19.9815 8.29294 19.6418 7.14528 19.0107C5.99761 18.3796 5.02244 17.4763 4.30541 16.3803C3.58837 15.2842 3.15139 14.0289 3.03284 12.7245C2.91429 11.4201 3.1178 10.1066 3.62549 8.89925C4.13318 7.6919 4.92953 6.62765 5.94461 5.79996C6.95969 4.97227 8.16246 4.40646 9.44729 4.1522C10.7321 3.89794 12.0597 3.96301 13.3136 4.3417C14.5674 4.7204 15.709 5.40113 16.6383 6.32412L18.3576 7.89699V6.23931C18.3576 5.98469 18.4587 5.7405 18.6388 5.56046C18.8188 5.38042 19.063 5.27927 19.3176 5.27927C19.5723 5.27927 19.8165 5.38042 19.9965 5.56046C20.1765 5.7405 20.2777 5.98469 20.2777 6.23931Z" fill="black"/>
</svg>
