<svg width="24" height="24" viewBox="0 0 24 24" fill="none" xmlns="http://www.w3.org/2000/svg">
<path d="M21.7501 13.5C21.7484 15.0908 21.1157 16.6159 19.9908 17.7407C18.866 18.8656 17.3409 19.4983 15.7501 19.5H7.5001C7.30119 19.5 7.11042 19.421 6.96977 19.2803C6.82912 19.1397 6.7501 18.9489 6.7501 18.75C6.7501 18.5511 6.82912 18.3603 6.96977 18.2197C7.11042 18.079 7.30119 18 7.5001 18H15.7501C16.9436 18 18.0882 17.5259 18.9321 16.682C19.776 15.8381 20.2501 14.6935 20.2501 13.5C20.2501 12.3065 19.776 11.1619 18.9321 10.318C18.0882 9.47411 16.9436 9 15.7501 9H4.81041L8.03073 12.2194C8.17146 12.3601 8.25052 12.551 8.25052 12.75C8.25052 12.949 8.17146 13.1399 8.03073 13.2806C7.89 13.4214 7.69912 13.5004 7.5001 13.5004C7.30108 13.5004 7.11021 13.4214 6.96948 13.2806L2.46948 8.78063C2.39974 8.71098 2.34442 8.62826 2.30668 8.53721C2.26894 8.44616 2.24951 8.34857 2.24951 8.25C2.24951 8.15144 2.26894 8.05385 2.30668 7.9628C2.34442 7.87175 2.39974 7.78903 2.46948 7.71938L6.96948 3.21938C7.11021 3.07865 7.30108 2.99959 7.5001 2.99959C7.69912 2.99959 7.89 3.07865 8.03073 3.21938C8.17146 3.36011 8.25052 3.55098 8.25052 3.75001C8.25052 3.94903 8.17146 4.1399 8.03073 4.28063L4.81041 7.5H15.7501C17.3409 7.50174 18.866 8.13444 19.9908 9.25928C21.1157 10.3841 21.7484 11.9092 21.7501 13.5Z" fill="black"/>
</svg>
