<svg width="24" height="24" viewBox="0 0 24 24" fill="none" xmlns="http://www.w3.org/2000/svg">
<path d="M22.5 8.25V14.25C22.5 14.4489 22.421 14.6397 22.2803 14.7803C22.1397 14.921 21.9489 15 21.75 15H15.75C15.5511 15 15.3603 14.921 15.2197 14.7803C15.079 14.6397 15 14.4489 15 14.25C15 14.0511 15.079 13.8603 15.2197 13.7197C15.3603 13.579 15.5511 13.5 15.75 13.5H19.9313L17.835 11.4178C16.6814 10.2637 15.2114 9.47753 13.6109 9.15889C12.0105 8.84024 10.3515 9.00339 8.84379 9.62769C7.33608 10.252 6.04737 11.3094 5.14068 12.6662C4.23398 14.023 3.75001 15.6181 3.75 17.25C3.75 17.4489 3.67098 17.6397 3.53033 17.7803C3.38968 17.921 3.19891 18 3 18C2.80109 18 2.61032 17.921 2.46967 17.7803C2.32902 17.6397 2.25 17.4489 2.25 17.25C2.24997 15.3216 2.82178 13.4365 3.89312 11.8331C4.96446 10.2297 6.48721 8.97999 8.26881 8.24202C10.0504 7.50405 12.0108 7.31097 13.9022 7.68719C15.7935 8.06341 17.5308 8.99203 18.8944 10.3556L21 12.4472V8.25C21 8.05109 21.079 7.86033 21.2197 7.71967C21.3603 7.57902 21.5511 7.5 21.75 7.5C21.9489 7.5 22.1397 7.57902 22.2803 7.71967C22.421 7.86033 22.5 8.05109 22.5 8.25Z" fill="black"/>
</svg>
