<svg width="24" height="24" viewBox="0 0 24 24" fill="none" xmlns="http://www.w3.org/2000/svg">
<path d="M20 10.08C20 10.3346 19.8989 10.5788 19.7188 10.7588C19.5388 10.9389 19.2946 11.04 19.04 11.04C18.7854 11.04 18.5412 10.9389 18.3612 10.7588C18.1811 10.5788 18.08 10.3346 18.08 10.08V7.28L13.3192 12.0408C13.1389 12.2211 12.8942 12.3225 12.6392 12.3225C12.3842 12.3225 12.1395 12.2211 11.9592 12.0408C11.7789 11.8605 11.6775 11.6158 11.6775 11.3608C11.6775 11.1058 11.7789 10.8611 11.9592 10.6808L16.72 5.92H13.92C13.6654 5.92 13.4212 5.81886 13.2412 5.63882C13.0611 5.45879 12.96 5.21461 12.96 4.96C12.96 4.70539 13.0611 4.46121 13.2412 4.28118C13.4212 4.10114 13.6654 4 13.92 4H19.04C19.2946 4 19.5388 4.10114 19.7188 4.28118C19.8989 4.46121 20 4.70539 20 4.96V10.08ZM16.48 12C16.2254 12 15.9812 12.1011 15.8012 12.2812C15.6211 12.4612 15.52 12.7054 15.52 12.96V18.08H5.92V8.48H11.04C11.2946 8.48 11.5388 8.37886 11.7188 8.19882C11.8989 8.01879 12 7.77461 12 7.52C12 7.26539 11.8989 7.02121 11.7188 6.84118C11.5388 6.66114 11.2946 6.56 11.04 6.56H5.6C5.17565 6.56 4.76869 6.72857 4.46863 7.02863C4.16857 7.32869 4 7.73565 4 8.16V18.4C4 18.8243 4.16857 19.2313 4.46863 19.5314C4.76869 19.8314 5.17565 20 5.6 20H15.84C16.2643 20 16.6713 19.8314 16.9714 19.5314C17.2714 19.2313 17.44 18.8243 17.44 18.4V12.96C17.44 12.7054 17.3389 12.4612 17.1588 12.2812C16.9788 12.1011 16.7346 12 16.48 12Z" fill="black"/>
</svg>
