<svg width="24" height="24" viewBox="0 0 24 24" fill="none" xmlns="http://www.w3.org/2000/svg">
<path d="M4.45406 10.5459C4.24272 10.3346 4.12399 10.0479 4.12399 9.74906C4.12399 9.45018 4.24272 9.16353 4.45406 8.95219C4.66541 8.74084 4.95205 8.62211 5.25094 8.62211C5.54982 8.62211 5.83647 8.74084 6.04781 8.95219L10.875 13.7812V3C10.875 2.70163 10.9935 2.41548 11.2045 2.2045C11.4155 1.99353 11.7016 1.875 12 1.875C12.2984 1.875 12.5845 1.99353 12.7955 2.2045C13.0065 2.41548 13.125 2.70163 13.125 3V13.7812L17.9541 8.95125C18.1654 8.73991 18.4521 8.62117 18.7509 8.62117C19.0498 8.62117 19.3365 8.73991 19.5478 8.95125C19.7592 9.16259 19.8779 9.44924 19.8779 9.74813C19.8779 10.047 19.7592 10.3337 19.5478 10.545L12.7978 17.295C12.6933 17.3999 12.5691 17.4831 12.4324 17.5399C12.2956 17.5967 12.149 17.6259 12.0009 17.6259C11.8529 17.6259 11.7063 17.5967 11.5695 17.5399C11.4328 17.4831 11.3086 17.3999 11.2041 17.295L4.45406 10.5459ZM20.25 19.125H3.75C3.45163 19.125 3.16548 19.2435 2.9545 19.4545C2.74353 19.6655 2.625 19.9516 2.625 20.25C2.625 20.5484 2.74353 20.8345 2.9545 21.0455C3.16548 21.2565 3.45163 21.375 3.75 21.375H20.25C20.5484 21.375 20.8345 21.2565 21.0455 21.0455C21.2565 20.8345 21.375 20.5484 21.375 20.25C21.375 19.9516 21.2565 19.6655 21.0455 19.4545C20.8345 19.2435 20.5484 19.125 20.25 19.125Z" fill="black"/>
</svg>
