<svg width="24" height="24" viewBox="0 0 24 24" fill="none" xmlns="http://www.w3.org/2000/svg">
<path d="M21.75 17.25C21.75 17.4489 21.671 17.6397 21.5303 17.7803C21.3897 17.921 21.1989 18 21 18C20.8011 18 20.6103 17.921 20.4697 17.7803C20.329 17.6397 20.25 17.4489 20.25 17.25C20.2498 15.6185 19.7658 14.0236 18.8593 12.6671C17.9528 11.3106 16.6644 10.2533 15.157 9.62895C13.6496 9.00461 11.991 8.84124 10.3908 9.15948C8.79057 9.47773 7.32065 10.2633 6.16687 11.4169L4.06875 13.5H8.25C8.44891 13.5 8.63968 13.579 8.78033 13.7197C8.92098 13.8603 9 14.0511 9 14.25C9 14.4489 8.92098 14.6397 8.78033 14.7803C8.63968 14.921 8.44891 15 8.25 15H2.25C2.05109 15 1.86032 14.921 1.71967 14.7803C1.57902 14.6397 1.5 14.4489 1.5 14.25V8.25C1.5 8.05109 1.57902 7.86033 1.71967 7.71967C1.86032 7.57902 2.05109 7.5 2.25 7.5C2.44891 7.5 2.63968 7.57902 2.78033 7.71967C2.92098 7.86033 3 8.05109 3 8.25V12.4472L5.1075 10.3538C6.47127 8.99069 8.20858 8.06259 10.0998 7.6868C11.991 7.31101 13.9511 7.5044 15.7324 8.24253C17.5137 8.98065 19.0361 10.2304 20.1073 11.8337C21.1784 13.437 21.75 15.3218 21.75 17.25Z" fill="black"/>
</svg>
