<svg width="24" height="24" viewBox="0 0 24 24" fill="none" xmlns="http://www.w3.org/2000/svg">
<path d="M12 2.25C10.0716 2.25 8.18657 2.82183 6.58319 3.89317C4.97982 4.96451 3.73013 6.48726 2.99218 8.26884C2.25422 10.0504 2.06114 12.0108 2.43735 13.9021C2.81355 15.7934 3.74215 17.5307 5.10571 18.8943C6.46928 20.2579 8.20656 21.1865 10.0979 21.5627C11.9892 21.9389 13.9496 21.7458 15.7312 21.0078C17.5127 20.2699 19.0355 19.0202 20.1068 17.4168C21.1782 15.8134 21.75 13.9284 21.75 12C21.7473 9.41498 20.7192 6.93661 18.8913 5.10872C17.0634 3.28084 14.585 2.25273 12 2.25ZM15.5306 13.2806L12.5306 16.2806C12.461 16.3504 12.3783 16.4057 12.2872 16.4434C12.1962 16.4812 12.0986 16.5006 12 16.5006C11.9014 16.5006 11.8038 16.4812 11.7128 16.4434C11.6218 16.4057 11.539 16.3504 11.4694 16.2806L8.46938 13.2806C8.32865 13.1399 8.24959 12.949 8.24959 12.75C8.24959 12.551 8.32865 12.3601 8.46938 12.2194C8.61011 12.0786 8.80098 11.9996 9 11.9996C9.19903 11.9996 9.3899 12.0786 9.53063 12.2194L11.25 13.9397V8.25C11.25 8.05109 11.329 7.86032 11.4697 7.71967C11.6103 7.57902 11.8011 7.5 12 7.5C12.1989 7.5 12.3897 7.57902 12.5303 7.71967C12.671 7.86032 12.75 8.05109 12.75 8.25V13.9397L14.4694 12.2194C14.6101 12.0786 14.801 11.9996 15 11.9996C15.199 11.9996 15.3899 12.0786 15.5306 12.2194C15.6714 12.3601 15.7504 12.551 15.7504 12.75C15.7504 12.949 15.6714 13.1399 15.5306 13.2806Z" fill="black"/>
</svg>
