<svg width="24" height="24" viewBox="0 0 24 24" fill="none" xmlns="http://www.w3.org/2000/svg">
<path d="M15.9694 12.2194L19.1897 9H8.25C7.05653 9 5.91193 9.47411 5.06802 10.318C4.22411 11.1619 3.75 12.3065 3.75 13.5C3.75 14.6935 4.22411 15.8381 5.06802 16.682C5.91193 17.5259 7.05653 18 8.25 18H16.5C16.6989 18 16.8897 18.079 17.0303 18.2197C17.171 18.3603 17.25 18.5511 17.25 18.75C17.25 18.9489 17.171 19.1397 17.0303 19.2803C16.8897 19.421 16.6989 19.5 16.5 19.5H8.25C6.6587 19.5 5.13258 18.8679 4.00736 17.7426C2.88214 16.6174 2.25 15.0913 2.25 13.5C2.25 11.9087 2.88214 10.3826 4.00736 9.25736C5.13258 8.13215 6.6587 7.50001 8.25 7.5H19.1897L15.9694 4.28063C15.8997 4.21095 15.8444 4.12822 15.8067 4.03718C15.769 3.94613 15.7496 3.84855 15.7496 3.75001C15.7496 3.65146 15.769 3.55388 15.8067 3.46283C15.8444 3.37179 15.8997 3.28906 15.9694 3.21938C16.0391 3.1497 16.1218 3.09442 16.2128 3.05671C16.3039 3.019 16.4015 2.99959 16.5 2.99959C16.5985 2.99959 16.6961 3.019 16.7872 3.05671C16.8782 3.09442 16.9609 3.1497 17.0306 3.21938L21.5306 7.71938C21.6004 7.78903 21.6557 7.87175 21.6934 7.9628C21.7312 8.05385 21.7506 8.15144 21.7506 8.25C21.7506 8.34857 21.7312 8.44616 21.6934 8.53721C21.6557 8.62826 21.6004 8.71098 21.5306 8.78063L17.0306 13.2806C16.8899 13.4214 16.699 13.5004 16.5 13.5004C16.301 13.5004 16.1101 13.4214 15.9694 13.2806C15.8286 13.1399 15.7496 12.949 15.7496 12.75C15.7496 12.551 15.8286 12.3601 15.9694 12.2194Z" fill="black"/>
</svg>
