<svg width="24" height="24" viewBox="0 0 24 24" fill="none" xmlns="http://www.w3.org/2000/svg">
<path d="M18.1604 13.9582L12.4009 19.7177C12.3118 19.8072 12.2058 19.8782 12.0891 19.9266C11.9724 19.9751 11.8473 20 11.721 20C11.5947 20 11.4696 19.9751 11.3529 19.9266C11.2362 19.8782 11.1303 19.8072 11.0411 19.7177L5.28164 13.9582C5.10131 13.7779 5 13.5333 5 13.2783C5 13.0233 5.10131 12.7787 5.28164 12.5984C5.46197 12.418 5.70655 12.3167 5.96157 12.3167C6.2166 12.3167 6.46118 12.418 6.64151 12.5984L10.7619 16.7188V4.95991C10.7619 4.70532 10.863 4.46117 11.0431 4.28115C11.2231 4.10113 11.4672 4 11.7218 4C11.9764 4 12.2205 4.10113 12.4006 4.28115C12.5806 4.46117 12.6817 4.70532 12.6817 4.95991V16.7188L16.8021 12.5976C16.9824 12.4172 17.227 12.3159 17.482 12.3159C17.7371 12.3159 17.9817 12.4172 18.162 12.5976C18.3423 12.7779 18.4436 13.0225 18.4436 13.2775C18.4436 13.5325 18.3423 13.7771 18.162 13.9574L18.1604 13.9582Z" fill="black"/>
</svg>
