<svg width="24" height="24" viewBox="0 0 24 24" fill="none" xmlns="http://www.w3.org/2000/svg">
<path d="M18.1604 10.0418L12.4009 4.28233C12.3118 4.19284 12.2058 4.12184 12.0891 4.07339C11.9724 4.02494 11.8473 4 11.721 4C11.5947 4 11.4696 4.02494 11.3529 4.07339C11.2362 4.12184 11.1303 4.19284 11.0411 4.28233L5.28164 10.0418C5.10131 10.2221 5 10.4667 5 10.7217C5 10.9767 5.10131 11.2213 5.28164 11.4016C5.46197 11.582 5.70655 11.6833 5.96157 11.6833C6.2166 11.6833 6.46118 11.582 6.64151 11.4016L10.7619 7.28124V19.0401C10.7619 19.2947 10.863 19.5388 11.0431 19.7188C11.2231 19.8989 11.4672 20 11.7218 20C11.9764 20 12.2205 19.8989 12.4006 19.7188C12.5806 19.5388 12.6817 19.2947 12.6817 19.0401V7.28124L16.8021 11.4024C16.9824 11.5828 17.227 11.6841 17.482 11.6841C17.7371 11.6841 17.9817 11.5828 18.162 11.4024C18.3423 11.2221 18.4436 10.9775 18.4436 10.7225C18.4436 10.4675 18.3423 10.2229 18.162 10.0426L18.1604 10.0418Z" fill="black"/>
</svg>
