<svg width="24" height="24" viewBox="0 0 24 24" fill="none" xmlns="http://www.w3.org/2000/svg">
<path d="M12 2.25C10.0716 2.25 8.18657 2.82183 6.58319 3.89317C4.97982 4.96451 3.73013 6.48726 2.99218 8.26884C2.25422 10.0504 2.06114 12.0108 2.43735 13.9021C2.81355 15.7934 3.74215 17.5307 5.10571 18.8943C6.46928 20.2579 8.20656 21.1865 10.0979 21.5627C11.9892 21.9389 13.9496 21.7458 15.7312 21.0078C17.5127 20.2699 19.0355 19.0202 20.1068 17.4168C21.1782 15.8134 21.75 13.9284 21.75 12C21.7473 9.41498 20.7192 6.93661 18.8913 5.10872C17.0634 3.28084 14.585 2.25273 12 2.25ZM15.75 15C15.75 15.1989 15.671 15.3897 15.5303 15.5303C15.3897 15.671 15.1989 15.75 15 15.75H10.5C10.3011 15.75 10.1103 15.671 9.96967 15.5303C9.82902 15.3897 9.75 15.1989 9.75 15C9.75 14.8011 9.82902 14.6103 9.96967 14.4697C10.1103 14.329 10.3011 14.25 10.5 14.25H13.1897L8.46938 9.53063C8.32865 9.38989 8.24959 9.19902 8.24959 9C8.24959 8.80098 8.32865 8.61011 8.46938 8.46937C8.61011 8.32864 8.80098 8.24958 9 8.24958C9.19903 8.24958 9.3899 8.32864 9.53063 8.46937L14.25 13.1897V10.5C14.25 10.3011 14.329 10.1103 14.4697 9.96967C14.6103 9.82902 14.8011 9.75 15 9.75C15.1989 9.75 15.3897 9.82902 15.5303 9.96967C15.671 10.1103 15.75 10.3011 15.75 10.5V15Z" fill="black"/>
</svg>
