<svg width="24" height="24" viewBox="0 0 24 24" fill="none" xmlns="http://www.w3.org/2000/svg">
<path d="M12 2.25C10.0716 2.25 8.18657 2.82183 6.58319 3.89317C4.97982 4.96451 3.73013 6.48726 2.99218 8.26884C2.25422 10.0504 2.06114 12.0108 2.43735 13.9021C2.81355 15.7934 3.74215 17.5307 5.10571 18.8943C6.46928 20.2579 8.20656 21.1865 10.0979 21.5627C11.9892 21.9389 13.9496 21.7458 15.7312 21.0078C17.5127 20.2699 19.0355 19.0202 20.1068 17.4168C21.1782 15.8134 21.75 13.9284 21.75 12C21.7473 9.41498 20.7192 6.93661 18.8913 5.10872C17.0634 3.28084 14.585 2.25273 12 2.25ZM15.5306 15.5306C15.461 15.6004 15.3783 15.6557 15.2872 15.6934C15.1962 15.7312 15.0986 15.7506 15 15.7506C14.9014 15.7506 14.8038 15.7312 14.7128 15.6934C14.6218 15.6557 14.539 15.6004 14.4694 15.5306L9.75 10.8103V13.5C9.75 13.6989 9.67099 13.8897 9.53033 14.0303C9.38968 14.171 9.19892 14.25 9 14.25C8.80109 14.25 8.61033 14.171 8.46967 14.0303C8.32902 13.8897 8.25 13.6989 8.25 13.5V9C8.25 8.80109 8.32902 8.61032 8.46967 8.46967C8.61033 8.32902 8.80109 8.25 9 8.25H13.5C13.6989 8.25 13.8897 8.32902 14.0303 8.46967C14.171 8.61032 14.25 8.80109 14.25 9C14.25 9.19891 14.171 9.38968 14.0303 9.53033C13.8897 9.67098 13.6989 9.75 13.5 9.75H10.8103L15.5306 14.4694C15.6004 14.539 15.6557 14.6217 15.6934 14.7128C15.7312 14.8038 15.7506 14.9014 15.7506 15C15.7506 15.0986 15.7312 15.1962 15.6934 15.2872C15.6557 15.3783 15.6004 15.461 15.5306 15.5306Z" fill="black"/>
</svg>
