<svg width="24" height="24" viewBox="0 0 24 24" fill="none" xmlns="http://www.w3.org/2000/svg">
<path d="M4.28351 11.5989L10.0425 5.83984C10.2228 5.65953 10.4674 5.55823 10.7224 5.55823C10.9774 5.55823 11.222 5.65953 11.4023 5.83984C11.5826 6.02016 11.6839 6.26472 11.6839 6.51973C11.6839 6.77473 11.5826 7.01929 11.4023 7.19961L7.28219 11.3181H19.0402C19.2947 11.3181 19.5389 11.4192 19.7189 11.5992C19.8989 11.7792 20 12.0234 20 12.2779C20 12.5325 19.8989 12.7766 19.7189 12.9566C19.5389 13.1366 19.2947 13.2378 19.0402 13.2378H7.28219L11.4007 17.3587C11.581 17.539 11.6823 17.7835 11.6823 18.0385C11.6823 18.2935 11.581 18.5381 11.4007 18.7184C11.2204 18.8987 10.9758 19 10.7208 19C10.4658 19 10.2212 18.8987 10.0409 18.7184L4.28191 12.9594C4.19241 12.8701 4.12144 12.764 4.07306 12.6472C4.02468 12.5304 3.99985 12.4052 4 12.2788C4.00015 12.1524 4.02527 12.0272 4.07392 11.9105C4.12258 11.7939 4.1938 11.6879 4.28351 11.5989Z" fill="black"/>
</svg>
