<svg width="24" height="24" viewBox="0 0 24 24" fill="none" xmlns="http://www.w3.org/2000/svg">
<path d="M21 6H3C2.60218 6 2.22064 6.15804 1.93934 6.43934C1.65804 6.72064 1.5 7.10218 1.5 7.5V14.25C1.5 14.6478 1.65804 15.0294 1.93934 15.3107C2.22064 15.592 2.60218 15.75 3 15.75H5.25V18.75C5.25 18.9489 5.32902 19.1397 5.46967 19.2803C5.61032 19.421 5.80109 19.5 6 19.5C6.19891 19.5 6.38968 19.421 6.53033 19.2803C6.67098 19.1397 6.75 18.9489 6.75 18.75V15.75H17.25V18.75C17.25 18.9489 17.329 19.1397 17.4697 19.2803C17.6103 19.421 17.8011 19.5 18 19.5C18.1989 19.5 18.3897 19.421 18.5303 19.2803C18.671 19.1397 18.75 18.9489 18.75 18.75V15.75H21C21.3978 15.75 21.7794 15.592 22.0607 15.3107C22.342 15.0294 22.5 14.6478 22.5 14.25V7.5C22.5 7.10218 22.342 6.72064 22.0607 6.43934C21.7794 6.15804 21.3978 6 21 6ZM3 8.625L8.625 14.25H3V8.625ZM21 14.25H15.375L8.625 7.5H15.375L21 13.125V14.25Z" fill="black"/>
</svg>
