<svg width="24" height="24" viewBox="0 0 24 24" fill="none" xmlns="http://www.w3.org/2000/svg">
<path d="M7.01409 5.67871C8.17565 4.75816 9.56973 4.17774 11.0414 4.00197C11.0849 3.99704 11.1289 4.00139 11.1707 4.01474C11.2124 4.02809 11.2508 4.05012 11.2833 4.0794C11.3159 4.10867 11.3419 4.14451 11.3596 4.18457C11.3773 4.22462 11.3863 4.26797 11.386 4.31176V11.3796H9.50016C9.34621 9.38474 8.45366 7.519 6.99705 6.14727C6.96447 6.11698 6.93878 6.08004 6.92175 6.03894C6.90472 5.99784 6.89675 5.95355 6.89836 5.90909C6.89998 5.86463 6.91115 5.82105 6.93112 5.78129C6.95109 5.74154 6.97939 5.70655 7.01409 5.67871ZM5.65101 7.04799C4.74762 8.2009 4.17736 9.57928 4.00215 11.0335C3.99698 11.0771 4.00116 11.1213 4.0144 11.1632C4.02764 11.2051 4.04964 11.2437 4.07894 11.2764C4.10823 11.3092 4.14416 11.3353 4.18433 11.3531C4.22451 11.3709 4.268 11.3799 4.31194 11.3796H8.25558C8.10275 9.70825 7.3376 8.1523 6.10718 7.01081C6.07566 6.98146 6.03837 6.95901 5.99768 6.94488C5.957 6.93075 5.91382 6.92526 5.87089 6.92876C5.82797 6.93226 5.78624 6.94467 5.74838 6.96519C5.71052 6.98572 5.67736 7.01392 5.65101 7.04799ZM16.9894 5.67871C15.8278 4.75816 14.4337 4.17774 12.9621 4.00197C12.9186 3.99704 12.8745 4.00139 12.8328 4.01474C12.7911 4.02809 12.7527 4.05012 12.7201 4.0794C12.6876 4.10867 12.6616 4.14451 12.6439 4.18457C12.6262 4.22462 12.6172 4.26797 12.6174 4.31176V11.3796H14.4994C14.6534 9.38474 15.5459 7.519 17.0025 6.14727C17.0353 6.11726 17.0613 6.08053 17.0787 6.03958C17.096 5.99864 17.1044 5.95443 17.1031 5.90998C17.1019 5.86553 17.0911 5.82186 17.0714 5.78196C17.0518 5.74205 17.0238 5.70684 16.9894 5.67871ZM19.999 11.0335C19.8244 9.57951 19.255 8.20116 18.3524 7.04799C18.3261 7.01429 18.2931 6.9864 18.2554 6.9661C18.2178 6.9458 18.1763 6.93351 18.1337 6.93002C18.091 6.92653 18.0481 6.9319 18.0077 6.94581C17.9672 6.95971 17.9301 6.98185 17.8986 7.01081C16.6673 8.15193 15.9013 9.70792 15.7479 11.3796H19.6907C19.7345 11.3797 19.7779 11.3705 19.8179 11.3526C19.8578 11.3347 19.8936 11.3086 19.9227 11.2759C19.9518 11.2431 19.9737 11.2046 19.9868 11.1628C20 11.1211 20.0041 11.077 19.999 11.0335ZM4.00447 12.965C4.17901 14.4189 4.74846 15.7973 5.65101 16.9505C5.67736 16.9842 5.7104 17.012 5.74805 17.0324C5.7857 17.0527 5.82716 17.0649 5.86979 17.0684C5.91243 17.0719 5.95533 17.0665 5.99578 17.0526C6.03624 17.0387 6.07337 17.0166 6.10485 16.9876C7.33613 15.8465 8.10213 14.2905 8.25558 12.6188H4.31271C4.26891 12.6187 4.22558 12.6279 4.1856 12.6458C4.14561 12.6637 4.10988 12.6899 4.08075 12.7226C4.05162 12.7553 4.02976 12.7938 4.01661 12.8356C4.00346 12.8774 3.99932 12.9215 4.00447 12.965ZM18.3524 16.9505C19.2558 15.7975 19.8261 14.4192 20.0013 12.965C20.0065 12.9214 20.0023 12.8771 19.9891 12.8352C19.9758 12.7933 19.9538 12.7548 19.9245 12.722C19.8952 12.6893 19.8593 12.6631 19.8191 12.6453C19.779 12.6275 19.7355 12.6185 19.6915 12.6188H15.7479C15.9007 14.2902 16.6659 15.8462 17.8963 16.9876C17.9278 17.017 17.9651 17.0394 18.0058 17.0536C18.0465 17.0677 18.0896 17.0732 18.1326 17.0697C18.1755 17.0662 18.2172 17.0538 18.2551 17.0333C18.2929 17.0127 18.3261 16.9845 18.3524 16.9505ZM7.01409 18.3197C8.17565 19.2403 9.56973 19.8207 11.0414 19.9965C11.0849 20.0014 11.1289 19.9971 11.1707 19.9837C11.2124 19.9704 11.2508 19.9483 11.2833 19.9191C11.3159 19.8898 11.3419 19.8539 11.3596 19.8139C11.3773 19.7738 11.3863 19.7305 11.386 19.6867V12.6188H9.50016C9.34621 14.6137 8.45366 16.4795 6.99705 17.8512C6.96447 17.8815 6.93878 17.9184 6.92175 17.9595C6.90472 18.0006 6.89675 18.0449 6.89836 18.0894C6.89998 18.1338 6.91115 18.1774 6.93112 18.2172C6.95109 18.2569 6.97939 18.2919 7.01409 18.3197ZM14.5033 12.6188H12.6213V19.6882C12.621 19.732 12.63 19.7754 12.6477 19.8154C12.6654 19.8555 12.6914 19.8913 12.724 19.9206C12.7566 19.9499 12.795 19.9719 12.8367 19.9853C12.8784 19.9986 12.9224 20.003 12.966 19.998C14.4376 19.8223 15.8317 19.2418 16.9932 18.3213C17.0279 18.2934 17.0562 18.2585 17.0762 18.2187C17.0962 18.179 17.1073 18.1354 17.109 18.0909C17.1106 18.0464 17.1026 18.0022 17.0856 17.9611C17.0685 17.92 17.0429 17.883 17.0103 17.8527C15.5519 16.4812 14.6579 14.6148 14.5033 12.6188Z" fill="black"/>
</svg>
