<svg width="24" height="24" viewBox="0 0 24 24" fill="none" xmlns="http://www.w3.org/2000/svg">
<path d="M22.7365 14.0074V13.9976C22.7348 13.9902 22.7325 13.983 22.7296 13.9759C22.6643 13.7978 22.5885 13.6238 22.5024 13.4548L18.4145 4.16384C18.3752 4.07435 18.3195 3.99298 18.2503 3.9239C17.9581 3.63161 17.6112 3.39976 17.2293 3.24157C16.8475 3.08338 16.4383 3.00197 16.0249 3.00197C15.6116 3.00197 15.2024 3.08338 14.8206 3.24157C14.4387 3.39976 14.0918 3.63161 13.7996 3.9239C13.6526 4.07107 13.5698 4.27049 13.5695 4.47852V6.93695H10.4227V4.47852C10.4228 4.37518 10.4025 4.27283 10.363 4.17733C10.3235 4.08183 10.2656 3.99504 10.1926 3.92193C9.90034 3.62965 9.55341 3.39779 9.17158 3.2396C8.78974 3.08142 8.38049 3 7.96719 3C7.55388 3 7.14463 3.08142 6.76279 3.2396C6.38096 3.39779 6.03403 3.62965 5.74181 3.92193C5.67264 3.99101 5.61694 4.07238 5.57759 4.16187L1.49364 13.4548C1.40761 13.6238 1.33176 13.7978 1.26648 13.9759C1.26374 13.9827 1.26144 13.9896 1.2596 13.9966C1.2596 13.9966 1.2596 14.0045 1.2596 14.0074C0.853451 15.1809 0.926114 16.4672 1.46184 17.5875C1.99756 18.7078 2.95318 19.5719 4.1216 19.9924C5.29002 20.413 6.57711 20.3562 7.70392 19.8343C8.83074 19.3124 9.7065 18.3675 10.1414 17.2044C10.3329 16.6819 10.4295 16.1294 10.4266 15.5729V8.51035H13.5734V15.5739C13.5705 16.1304 13.6671 16.6829 13.8586 17.2053C14.2935 18.3685 15.1693 19.3134 16.2961 19.8353C17.4229 20.3572 18.71 20.414 19.8784 19.9934C21.0468 19.5729 22.0024 18.7088 22.5382 17.5885C23.0739 16.4682 23.1465 15.1819 22.7404 14.0084L22.7365 14.0074ZM8.65948 16.6625C8.36898 17.4377 7.78474 18.0671 7.03336 18.4145C6.28199 18.7619 5.42399 18.7992 4.64529 18.5184C3.86659 18.2375 3.22991 17.6612 2.87319 16.9142C2.51648 16.1672 2.46847 15.3098 2.73957 14.5276L2.91756 14.1215C3.2447 13.4996 3.77056 13.0052 4.41133 12.7169C5.05211 12.4286 5.77094 12.363 6.45329 12.5307C7.13564 12.6983 7.74226 13.0895 8.17648 13.6419C8.6107 14.1943 8.84754 14.8762 8.84927 15.5788V15.5906C8.84921 15.9576 8.78498 16.3217 8.65948 16.6664V16.6625ZM19.3714 18.5476C18.8957 18.7218 18.385 18.7785 17.8827 18.713C17.3805 18.6475 16.9014 18.4617 16.4863 18.1714C16.0712 17.8811 15.7323 17.4949 15.4984 17.0456C15.2645 16.5963 15.1425 16.0972 15.1429 15.5906V15.5798C15.1455 14.8775 15.3829 14.1963 15.8175 13.6445C16.252 13.0928 16.8586 12.7022 17.5407 12.5351C18.2229 12.368 18.9413 12.4338 19.5817 12.7222C20.2221 13.0105 20.7476 13.5048 21.0746 14.1264L21.2526 14.5325C21.5324 15.3146 21.4916 16.1755 21.1392 16.9277C20.7868 17.6798 20.1514 18.2621 19.3714 18.5476Z" fill="black"/>
</svg>
