<svg width="24" height="24" viewBox="0 0 24 24" fill="none" xmlns="http://www.w3.org/2000/svg">
<path d="M11.9921 11.099C11.1748 9.51549 8.9579 6.55772 6.89421 5.10201C4.91734 3.7075 4.16136 3.94757 3.6711 4.17234C3.099 4.43285 2.99683 5.31145 2.99683 5.82738C2.99683 6.34332 3.27777 10.0672 3.46679 10.6853C4.07977 12.7388 6.25073 13.4335 8.25302 13.2087C8.35518 13.1934 8.45735 13.1781 8.56462 13.1679C8.46246 13.1832 8.35519 13.1985 8.25302 13.2087C5.32096 13.6429 2.71084 14.7105 6.13313 18.5162C9.8927 22.4087 11.2873 17.6836 12.0025 15.2829C12.7177 17.6786 13.5401 22.2351 17.8002 18.5162C21.0031 15.2829 18.6788 13.6431 15.7467 13.2087C15.6446 13.1985 15.5373 13.1832 15.4351 13.1679C15.5424 13.1832 15.6446 13.1934 15.7467 13.2087C17.7491 13.4335 19.9251 12.7388 20.533 10.6853C20.7169 10.0621 21.0029 6.34336 21.0029 5.82738C21.0029 5.31141 20.9008 4.43287 20.3287 4.17234C19.8332 3.94758 19.0823 3.7075 17.1056 5.10201C15.0265 6.56294 12.8095 9.5154 11.9924 11.099H11.9921Z" fill="black"/>
</svg>
