<svg width="24" height="24" viewBox="0 0 24 24" fill="none" xmlns="http://www.w3.org/2000/svg">
<path d="M21.7172 18.2391L18.6056 3.44537C18.5654 3.25191 18.4873 3.06831 18.3759 2.90511C18.2645 2.74191 18.1219 2.60233 17.9564 2.4944C17.7909 2.38646 17.6057 2.3123 17.4114 2.27616C17.2171 2.24002 17.0176 2.24262 16.8244 2.28381L12.4359 3.22693C12.0478 3.31193 11.7089 3.54675 11.4929 3.88032C11.277 4.21389 11.2015 4.61923 11.2828 5.00818L14.3944 19.8019C14.4637 20.1395 14.6471 20.4428 14.9138 20.661C15.1805 20.8792 15.5142 20.9989 15.8588 21.0001C15.9653 20.9999 16.0715 20.9886 16.1756 20.9663L20.5641 20.0232C20.9527 19.938 21.292 19.7027 21.5079 19.3686C21.7239 19.0344 21.7991 18.6285 21.7172 18.2391ZM12.75 4.70162C12.75 4.696 12.75 4.69318 12.75 4.69318L17.1375 3.75568L17.4497 5.24349L13.0622 6.18756L12.75 4.70162ZM13.6875 9.14349L13.3734 7.65287L17.7628 6.70974L18.0759 8.20037L13.6875 9.14349ZM20.25 18.5569L15.8625 19.4944L15.5503 18.0066L19.9378 17.0626L20.25 18.5485C20.25 18.5541 20.25 18.5569 20.25 18.5569ZM9.75 3.00006H5.25C4.85218 3.00006 4.47064 3.15809 4.18934 3.4394C3.90804 3.7207 3.75 4.10223 3.75 4.50006V19.5001C3.75 19.8979 3.90804 20.2794 4.18934 20.5607C4.47064 20.842 4.85218 21.0001 5.25 21.0001H9.75C10.1478 21.0001 10.5294 20.842 10.8107 20.5607C11.092 20.2794 11.25 19.8979 11.25 19.5001V4.50006C11.25 4.10223 11.092 3.7207 10.8107 3.4394C10.5294 3.15809 10.1478 3.00006 9.75 3.00006ZM5.25 4.50006H9.75V6.00006H5.25V4.50006ZM9.75 19.5001H5.25V18.0001H9.75V19.5001Z" fill="black"/>
</svg>
