<svg width="24" height="24" viewBox="0 0 24 24" fill="none" xmlns="http://www.w3.org/2000/svg">
<path d="M17.5556 3H7.44444C7.06135 3 6.69395 3.15172 6.42307 3.42177C6.15218 3.69183 6 4.05811 6 4.44003V20.2803C6.00006 20.4088 6.03462 20.535 6.10008 20.6457C6.16554 20.7564 6.25952 20.8476 6.37227 20.9098C6.48502 20.9721 6.61242 21.0031 6.74127 20.9998C6.87011 20.9964 6.9957 20.9587 7.105 20.8906L12.5 17.529L17.8959 20.8906C18.0052 20.9584 18.1307 20.9959 18.2594 20.9992C18.3881 21.0025 18.5153 20.9714 18.6279 20.9091C18.7406 20.8469 18.8344 20.7558 18.8998 20.6452C18.9653 20.5347 18.9998 20.4087 19 20.2803V4.44003C19 4.05811 18.8478 3.69183 18.5769 3.42177C18.306 3.15172 17.9386 3 17.5556 3Z" fill="black"/>
</svg>
