<svg width="24" height="24" viewBox="0 0 24 24" fill="none" xmlns="http://www.w3.org/2000/svg">
<path d="M21.75 15H21V11.2969C21.1528 11.3728 21.3084 11.4441 21.4688 11.5087C21.6523 11.5795 21.8564 11.5753 22.0369 11.497C22.2174 11.4187 22.3599 11.2726 22.4337 11.0902C22.5075 10.9078 22.5066 10.7037 22.4313 10.522C22.3561 10.3402 22.2124 10.1953 22.0312 10.1184C21.0599 9.72852 20.2279 9.05609 19.643 8.18814C19.058 7.32019 18.7469 6.29667 18.75 5.25C18.75 5.05109 18.671 4.86032 18.5303 4.71967C18.3897 4.57902 18.1989 4.5 18 4.5C17.8011 4.5 17.6103 4.57902 17.4697 4.71967C17.329 4.86032 17.25 5.05109 17.25 5.25C17.25 6.64239 16.6969 7.97774 15.7123 8.96231C14.7277 9.94688 13.3924 10.5 12 10.5C10.6076 10.5 9.27226 9.94688 8.28769 8.96231C7.30312 7.97774 6.75 6.64239 6.75 5.25C6.75 5.05109 6.67098 4.86032 6.53033 4.71967C6.38968 4.57902 6.19891 4.5 6 4.5C5.80109 4.5 5.61032 4.57902 5.46967 4.71967C5.32902 4.86032 5.25 5.05109 5.25 5.25C5.2531 6.29667 4.94203 7.32019 4.35705 8.18814C3.77207 9.05609 2.94009 9.72852 1.96875 10.1184C1.78762 10.1953 1.64393 10.3402 1.56865 10.522C1.49338 10.7037 1.49254 10.9078 1.56633 11.0902C1.64012 11.2726 1.78263 11.4187 1.96313 11.497C2.14362 11.5753 2.34766 11.5795 2.53125 11.5087C2.69156 11.4441 2.84719 11.3728 3 11.2969V15H2.30625C1.71469 15 1.5 15.4481 1.5 15.75C1.5 15.9489 1.57902 16.1397 1.71967 16.2803C1.86032 16.421 2.05109 16.5 2.25 16.5H5.25V18.75C5.25 18.9489 5.32902 19.1397 5.46967 19.2803C5.61032 19.421 5.80109 19.5 6 19.5C6.19891 19.5 6.38968 19.421 6.53033 19.2803C6.67098 19.1397 6.75 18.9489 6.75 18.75V16.5H17.25V18.75C17.25 18.9489 17.329 19.1397 17.4697 19.2803C17.6103 19.421 17.8011 19.5 18 19.5C18.1989 19.5 18.3897 19.421 18.5303 19.2803C18.671 19.1397 18.75 18.9489 18.75 18.75V16.5H21.75C21.9489 16.5 22.1397 16.421 22.2803 16.2803C22.421 16.1397 22.5 15.9489 22.5 15.75C22.5 15.5511 22.421 15.3603 22.2803 15.2197C22.1397 15.079 21.9489 15 21.75 15ZM6.75 14.25C6.75 14.4489 6.67098 14.6397 6.53033 14.7803C6.38968 14.921 6.19891 15 6 15C5.80109 15 5.61032 14.921 5.46967 14.7803C5.32902 14.6397 5.25 14.4489 5.25 14.25V10.0641C5.25 9.86515 5.32902 9.67438 5.46967 9.53373C5.61032 9.39308 5.80109 9.31406 6 9.31406C6.19891 9.31406 6.38968 9.39308 6.53033 9.53373C6.67098 9.67438 6.75 9.86515 6.75 10.0641V14.25ZM10.5 14.25C10.5 14.4489 10.421 14.6397 10.2803 14.7803C10.1397 14.921 9.94891 15 9.75 15C9.55109 15 9.36032 14.921 9.21967 14.7803C9.07902 14.6397 9 14.4489 9 14.25V12.3141C9 12.1152 9.07902 11.9244 9.21967 11.7837C9.36032 11.6431 9.55109 11.5641 9.75 11.5641C9.94891 11.5641 10.1397 11.6431 10.2803 11.7837C10.421 11.9244 10.5 12.1152 10.5 12.3141V14.25ZM15 14.25C15 14.4489 14.921 14.6397 14.7803 14.7803C14.6397 14.921 14.4489 15 14.25 15C14.0511 15 13.8603 14.921 13.7197 14.7803C13.579 14.6397 13.5 14.4489 13.5 14.25V12.3141C13.5 12.1152 13.579 11.9244 13.7197 11.7837C13.8603 11.6431 14.0511 11.5641 14.25 11.5641C14.4489 11.5641 14.6397 11.6431 14.7803 11.7837C14.921 11.9244 15 12.1152 15 12.3141V14.25ZM18.75 14.25C18.75 14.4489 18.671 14.6397 18.5303 14.7803C18.3897 14.921 18.1989 15 18 15C17.8011 15 17.6103 14.921 17.4697 14.7803C17.329 14.6397 17.25 14.4489 17.25 14.25V10.0641C17.25 9.86515 17.329 9.67438 17.4697 9.53373C17.6103 9.39308 17.8011 9.31406 18 9.31406C18.1989 9.31406 18.3897 9.39308 18.5303 9.53373C18.671 9.67438 18.75 9.86515 18.75 10.0641V14.25ZM18.75 9.54375V9.50062L18.7884 9.54844L18.75 9.54375Z" fill="black"/>
</svg>
