<svg width="24" height="24" viewBox="0 0 24 24" fill="none" xmlns="http://www.w3.org/2000/svg">
<path d="M15.5416 11.8873C15.5416 12.6187 15.3247 13.3337 14.9183 13.9418C14.512 14.5499 13.9345 15.0239 13.2588 15.3038C12.5831 15.5836 11.8395 15.6569 11.1222 15.5142C10.4049 15.3715 9.74599 15.0193 9.22883 14.5021C8.71166 13.985 8.35947 13.3261 8.21679 12.6088C8.0741 11.8914 8.14733 11.1479 8.42722 10.4722C8.7071 9.79649 9.18108 9.21896 9.78919 8.81263C10.3973 8.40629 11.1123 8.18941 11.8436 8.18941C12.8244 8.18941 13.765 8.57902 14.4585 9.27251C15.152 9.966 15.5416 10.9066 15.5416 11.8873ZM19.2395 11.8873C19.2417 10.0678 18.571 8.31178 17.3563 6.95709C17.292 6.88295 17.2137 6.82234 17.1257 6.7788C17.0378 6.73525 16.9421 6.70963 16.8442 6.70343C16.7463 6.69723 16.6481 6.71057 16.5554 6.74269C16.4627 6.7748 16.3773 6.82504 16.3042 6.89048C16.2311 6.95591 16.1718 7.03524 16.1296 7.12384C16.0875 7.21244 16.0634 7.30854 16.0587 7.40654C16.0541 7.50455 16.069 7.60249 16.1026 7.69468C16.1362 7.78687 16.1877 7.87145 16.2543 7.9435C17.2245 9.02825 17.7608 10.4325 17.7608 11.8878C17.7608 13.3431 17.2245 14.7473 16.2543 15.8321C16.1272 15.9788 16.0628 16.1695 16.0751 16.3633C16.0873 16.557 16.1753 16.7381 16.3199 16.8676C16.4645 16.9971 16.6543 17.0645 16.8482 17.0553C17.042 17.0461 17.2246 16.9611 17.3563 16.8185C18.5708 15.4633 19.2415 13.7071 19.2395 11.8873ZM7.43296 7.9435C7.49955 7.87145 7.55114 7.78687 7.58472 7.69468C7.6183 7.60249 7.63321 7.50455 7.62857 7.40654C7.62392 7.30854 7.59983 7.21244 7.55768 7.12384C7.51554 7.03524 7.45619 6.95591 7.38308 6.89048C7.30998 6.82504 7.22459 6.7748 7.13188 6.74269C7.03917 6.71057 6.941 6.69723 6.84308 6.70343C6.74516 6.70963 6.64946 6.73525 6.56154 6.7788C6.47362 6.82234 6.39525 6.88295 6.33098 6.95709C5.11695 8.3125 4.44564 10.0682 4.44564 11.8878C4.44564 13.7074 5.11695 15.4631 6.33098 16.8185C6.46273 16.9611 6.64524 17.0461 6.83914 17.0553C7.03303 17.0645 7.22277 16.9971 7.3674 16.8676C7.51203 16.7381 7.59997 16.557 7.61223 16.3633C7.6245 16.1695 7.56011 15.9788 7.43296 15.8321C6.46185 14.7478 5.92487 13.3434 5.92487 11.8878C5.92487 10.4322 6.46185 9.02779 7.43296 7.9435ZM22.0656 7.57371C21.5243 6.28826 20.7445 5.11695 19.7673 4.12171C19.7 4.0497 19.6189 3.99189 19.5289 3.95166C19.4389 3.91144 19.3417 3.88963 19.2432 3.8875C19.1446 3.88537 19.0466 3.90298 18.9549 3.93928C18.8632 3.97558 18.7797 4.02985 18.7094 4.09889C18.639 4.16792 18.5831 4.25034 18.545 4.34129C18.5069 4.43224 18.4874 4.52988 18.4876 4.62848C18.4878 4.72708 18.5078 4.82464 18.5462 4.91542C18.5847 5.00621 18.6409 5.08839 18.7116 5.15713C20.4743 6.95305 21.4619 9.36902 21.4619 11.8855C21.4619 14.4019 20.4743 16.8179 18.7116 18.6138C18.6434 18.6832 18.5895 18.7652 18.553 18.8554C18.5164 18.9455 18.4981 19.042 18.4988 19.1393C18.4996 19.2365 18.5195 19.3327 18.5575 19.4223C18.5954 19.5118 18.6506 19.593 18.7199 19.6613C18.7892 19.7295 18.8713 19.7834 18.9615 19.8199C19.0516 19.8564 19.1481 19.8748 19.2454 19.874C19.3426 19.8733 19.4388 19.8533 19.5283 19.8154C19.6179 19.7775 19.6991 19.7223 19.7673 19.6529C21.2985 18.0893 22.3335 16.1082 22.7424 13.9583C23.1513 11.8084 22.9158 9.58561 22.0656 7.56909V7.57371ZM2.98437 15.6296C2.24538 13.8827 2.04014 11.9561 2.39452 10.0928C2.7489 8.22938 3.64704 6.51264 4.9757 5.15897C5.11325 5.01897 5.18955 4.83006 5.18781 4.6338C5.18608 4.43755 5.10645 4.25001 4.96645 4.11247C4.82645 3.97492 4.63754 3.89861 4.44128 3.90035C4.24502 3.90208 4.05749 3.98171 3.91994 4.12171C1.88441 6.19395 0.743896 8.98258 0.743896 11.8873C0.743896 14.7921 1.88441 17.5807 3.91994 19.6529C3.98729 19.725 4.06836 19.7828 4.15838 19.823C4.2484 19.8632 4.34556 19.885 4.44413 19.8872C4.54271 19.8893 4.64071 19.8717 4.73238 19.8354C4.82406 19.7991 4.90754 19.7448 4.97794 19.6758C5.04833 19.6067 5.10421 19.5243 5.14229 19.4334C5.18037 19.3424 5.19987 19.2448 5.19966 19.1462C5.19946 19.0476 5.17953 18.95 5.14107 18.8592C5.10261 18.7685 5.04638 18.6863 4.9757 18.6175C4.12951 17.756 3.45386 16.7422 2.98437 15.6296Z" fill="black"/>
</svg>
