<svg width="24" height="24" viewBox="0 0 24 24" fill="none" xmlns="http://www.w3.org/2000/svg">
<path d="M22.4746 19.5H20.9999V9.00005C20.9999 8.60222 20.8419 8.22069 20.5606 7.93939C20.2793 7.65808 19.8978 7.50005 19.4999 7.50005H15.3749C15.2755 7.50005 15.1801 7.53956 15.1098 7.60988C15.0394 7.68021 14.9999 7.77559 14.9999 7.87505V19.5H13.4999V3.03849C13.5024 2.80484 13.4517 2.5737 13.3517 2.36255C13.2516 2.1514 13.1048 1.96577 12.9224 1.81973C12.6738 1.62589 12.3704 1.51532 12.0554 1.5037C11.7404 1.49209 11.4297 1.58004 11.1674 1.75505L3.66744 6.75005C3.46169 6.88732 3.29309 7.07333 3.17663 7.29153C3.06017 7.50973 2.99947 7.75334 2.99994 8.00067V19.5H1.52525C1.33144 19.4972 1.14373 19.5678 0.999889 19.6978C0.856047 19.8277 0.766742 20.0073 0.749939 20.2004C0.743127 20.3029 0.757482 20.4058 0.792111 20.5027C0.82674 20.5995 0.880903 20.6881 0.951238 20.7631C1.02157 20.8381 1.10658 20.8978 1.20097 20.9386C1.29536 20.9794 1.39712 21.0003 1.49994 21H22.4999C22.6028 21.0003 22.7045 20.9794 22.7989 20.9386C22.8933 20.8978 22.9783 20.8381 23.0486 20.7631C23.119 20.6881 23.1731 20.5995 23.2078 20.5027C23.2424 20.4058 23.2568 20.3029 23.2499 20.2004C23.2331 20.0073 23.1438 19.8277 23 19.6978C22.8561 19.5678 22.6684 19.4972 22.4746 19.5ZM7.12494 17.25C7.12516 17.3529 7.10425 17.4546 7.06349 17.549C7.02273 17.6434 6.963 17.7284 6.888 17.7987C6.81301 17.8691 6.72435 17.9232 6.62755 17.9579C6.53074 17.9925 6.42784 18.0069 6.32525 18C6.13198 17.9832 5.95227 17.8938 5.82232 17.7498C5.69237 17.6057 5.62184 17.4178 5.62494 17.2238V15.7754C5.6223 15.5816 5.69301 15.394 5.8229 15.2502C5.95278 15.1064 6.13223 15.0171 6.32525 15C6.42784 14.9932 6.53074 15.0076 6.62755 15.0422C6.72435 15.0768 6.81301 15.131 6.888 15.2013C6.963 15.2717 7.02273 15.3567 7.06349 15.4511C7.10425 15.5455 7.12516 15.6472 7.12494 15.75V17.25ZM7.12494 12C7.12516 12.1029 7.10425 12.2046 7.06349 12.299C7.02273 12.3934 6.963 12.4784 6.888 12.5487C6.81301 12.6191 6.72435 12.6732 6.62755 12.7079C6.53074 12.7425 6.42784 12.7569 6.32525 12.75C6.13207 12.733 5.95248 12.6435 5.82257 12.4995C5.69267 12.3555 5.62206 12.1677 5.62494 11.9738V10.5254C5.6223 10.3316 5.69301 10.144 5.8229 10.0002C5.95278 9.85643 6.13223 9.76706 6.32525 9.75005C6.42784 9.74324 6.53074 9.75759 6.62755 9.79222C6.72435 9.82685 6.81301 9.88101 6.888 9.95135C6.963 10.0217 7.02273 10.1067 7.06349 10.2011C7.10425 10.2955 7.12516 10.3972 7.12494 10.5V12ZM10.8749 17.25C10.8752 17.3529 10.8542 17.4546 10.8135 17.549C10.7727 17.6434 10.713 17.7284 10.638 17.7987C10.563 17.8691 10.4744 17.9232 10.3775 17.9579C10.2807 17.9925 10.1778 18.0069 10.0753 18C9.88231 17.9833 9.70287 17.8941 9.57296 17.7504C9.44306 17.6068 9.37232 17.4193 9.37494 17.2257V15.7754C9.37254 15.5818 9.44336 15.3944 9.57322 15.2508C9.70308 15.1072 9.88239 15.018 10.0753 15.001C10.1778 14.9942 10.2807 15.0085 10.3775 15.0432C10.4744 15.0778 10.563 15.132 10.638 15.2023C10.713 15.2726 10.7727 15.3576 10.8135 15.452C10.8542 15.5464 10.8752 15.6482 10.8749 15.751V17.25ZM10.8749 12C10.8752 12.1029 10.8542 12.2046 10.8135 12.299C10.7727 12.3934 10.713 12.4784 10.638 12.5487C10.563 12.6191 10.4744 12.6732 10.3775 12.7079C10.2807 12.7425 10.1778 12.7569 10.0753 12.75C9.88239 12.733 9.70308 12.6438 9.57322 12.5002C9.44336 12.3566 9.37254 12.1693 9.37494 11.9757V10.5254C9.37254 10.3318 9.44336 10.1444 9.57322 10.0008C9.70308 9.85723 9.88239 9.76799 10.0753 9.75099C10.1778 9.74417 10.2807 9.75853 10.3775 9.79316C10.4744 9.82779 10.563 9.88195 10.638 9.95228C10.713 10.0226 10.7727 10.1076 10.8135 10.202C10.8542 10.2964 10.8752 10.3982 10.8749 10.501V12Z" fill="black"/>
</svg>
