<svg width="24" height="24" viewBox="0 0 24 24" fill="none" xmlns="http://www.w3.org/2000/svg">
<path d="M18 6.82609H15.8909L14.8538 5.27087C14.7982 5.18759 14.723 5.11931 14.6347 5.07206C14.5465 5.02481 14.4479 5.00006 14.3478 5H9.47826C9.37815 5.00006 9.2796 5.02481 9.19134 5.07206C9.10309 5.11931 9.02784 5.18759 8.97228 5.27087L7.93446 6.82609H5.82609C5.34178 6.82609 4.87731 7.01848 4.53485 7.36094C4.19239 7.70339 4 8.16787 4 8.65217V17.1739C4 17.6582 4.19239 18.1227 4.53485 18.4652C4.87731 18.8076 5.34178 19 5.82609 19H18C18.4843 19 18.9488 18.8076 19.2912 18.4652C19.6337 18.1227 19.8261 17.6582 19.8261 17.1739V8.65217C19.8261 8.16787 19.6337 7.70339 19.2912 7.36094C18.9488 7.01848 18.4843 6.82609 18 6.82609ZM14.6522 12.6087C14.6522 13.1504 14.4915 13.68 14.1905 14.1305C13.8896 14.5809 13.4618 14.932 12.9613 15.1393C12.4608 15.3466 11.91 15.4009 11.3787 15.2952C10.8473 15.1895 10.3593 14.9286 9.97619 14.5456C9.59311 14.1625 9.33223 13.6744 9.22654 13.1431C9.12085 12.6117 9.1751 12.061 9.38242 11.5605C9.58973 11.06 9.94082 10.6322 10.3913 10.3312C10.8417 10.0302 11.3713 9.86957 11.913 9.86957C12.6395 9.86957 13.3362 10.1582 13.8499 10.6718C14.3636 11.1855 14.6522 11.8822 14.6522 12.6087Z" fill="black"/>
</svg>
