<svg width="24" height="24" viewBox="0 0 24 24" fill="none" xmlns="http://www.w3.org/2000/svg">
<path d="M22.5 10.5H19.8103L15.75 6.4397C15.6112 6.2998 15.446 6.18889 15.264 6.11341C15.082 6.03792 14.8867 5.99938 14.6897 6.00001H4.15125C3.90487 6.00046 3.66239 6.0616 3.44525 6.17802C3.22811 6.29444 3.04299 6.46256 2.90625 6.66751L0.125625 10.8338C0.0439236 10.9572 0.000244554 11.102 0 11.25L0 15.75C0 16.1478 0.158035 16.5294 0.43934 16.8107C0.720644 17.092 1.10218 17.25 1.5 17.25H3.09375C3.25898 17.8953 3.63428 18.4673 4.16048 18.8757C4.68669 19.2842 5.33387 19.5059 6 19.5059C6.66613 19.5059 7.31331 19.2842 7.83952 18.8757C8.36572 18.4673 8.74102 17.8953 8.90625 17.25H15.0938C15.259 17.8953 15.6343 18.4673 16.1605 18.8757C16.6867 19.2842 17.3339 19.5059 18 19.5059C18.6661 19.5059 19.3133 19.2842 19.8395 18.8757C20.3657 18.4673 20.741 17.8953 20.9062 17.25H22.5C22.8978 17.25 23.2794 17.092 23.5607 16.8107C23.842 16.5294 24 16.1478 24 15.75V12C24 11.6022 23.842 11.2207 23.5607 10.9393C23.2794 10.658 22.8978 10.5 22.5 10.5ZM4.15125 7.50001H14.6897L17.6897 10.5H2.15625L4.15125 7.50001ZM6 18C5.70333 18 5.41332 17.912 5.16665 17.7472C4.91997 17.5824 4.72771 17.3481 4.61418 17.074C4.50065 16.7999 4.47094 16.4983 4.52882 16.2074C4.5867 15.9164 4.72956 15.6491 4.93934 15.4393C5.14912 15.2296 5.41639 15.0867 5.70736 15.0288C5.99834 14.971 6.29994 15.0007 6.57403 15.1142C6.84811 15.2277 7.08238 15.42 7.2472 15.6667C7.41203 15.9133 7.5 16.2033 7.5 16.5C7.5 16.8978 7.34196 17.2794 7.06066 17.5607C6.77936 17.842 6.39782 18 6 18ZM18 18C17.7033 18 17.4133 17.912 17.1666 17.7472C16.92 17.5824 16.7277 17.3481 16.6142 17.074C16.5006 16.7999 16.4709 16.4983 16.5288 16.2074C16.5867 15.9164 16.7296 15.6491 16.9393 15.4393C17.1491 15.2296 17.4164 15.0867 17.7074 15.0288C17.9983 14.971 18.2999 15.0007 18.574 15.1142C18.8481 15.2277 19.0824 15.42 19.2472 15.6667C19.412 15.9133 19.5 16.2033 19.5 16.5C19.5 16.8978 19.342 17.2794 19.0607 17.5607C18.7794 17.842 18.3978 18 18 18Z" fill="black"/>
</svg>
