<svg width="24" height="24" viewBox="0 0 24 24" fill="none" xmlns="http://www.w3.org/2000/svg">
<path d="M16.6292 14.9249C16.7121 15.0075 16.7778 15.1056 16.8227 15.2136C16.8675 15.3216 16.8906 15.4374 16.8906 15.5544C16.8906 15.6713 16.8675 15.7872 16.8227 15.8952C16.7778 16.0032 16.7121 16.1013 16.6292 16.1839L13.0745 19.7386C12.9919 19.8215 12.8938 19.8872 12.7858 19.9321C12.6778 19.9769 12.5619 20 12.445 20C12.328 20 12.2122 19.9769 12.1042 19.9321C11.9962 19.8872 11.8981 19.8215 11.8155 19.7386L8.26074 16.1839C8.09379 16.0169 8 15.7905 8 15.5544C8 15.3183 8.09379 15.0918 8.26074 14.9249C8.42769 14.7579 8.65413 14.6642 8.89023 14.6642C9.12633 14.6642 9.35277 14.7579 9.51972 14.9249L12.4457 17.8494L15.3717 14.9227C15.4544 14.8402 15.5525 14.7748 15.6605 14.7303C15.7685 14.6858 15.8841 14.6629 16.0009 14.6631C16.1177 14.6633 16.2333 14.6866 16.3411 14.7315C16.4489 14.7764 16.5468 14.8421 16.6292 14.9249ZM9.51972 9.07437L12.4457 6.14836L15.3717 9.07511C15.5387 9.24206 15.7651 9.33585 16.0012 9.33585C16.2373 9.33585 16.4637 9.24206 16.6307 9.07511C16.7976 8.90816 16.8914 8.68172 16.8914 8.44562C16.8914 8.20952 16.7976 7.98308 16.6307 7.81613L13.0759 4.26138C12.9934 4.17853 12.8953 4.1128 12.7873 4.06794C12.6792 4.02309 12.5634 4 12.4465 4C12.3295 4 12.2137 4.02309 12.1057 4.06794C11.9976 4.1128 11.8995 4.17853 11.817 4.26138L8.26222 7.81613C8.09527 7.98308 8.00148 8.20952 8.00148 8.44562C8.00148 8.68172 8.09527 8.90816 8.26222 9.07511C8.42917 9.24206 8.65561 9.33585 8.89171 9.33585C9.12781 9.33585 9.35425 9.24206 9.5212 9.07511L9.51972 9.07437Z" fill="black"/>
</svg>
