<svg width="24" height="24" viewBox="0 0 24 24" fill="none" xmlns="http://www.w3.org/2000/svg">
<path d="M18.7315 15.6469C18.6467 15.732 18.546 15.7995 18.435 15.8456C18.3241 15.8916 18.2051 15.9154 18.085 15.9154C17.9648 15.9154 17.8459 15.8916 17.7349 15.8456C17.624 15.7995 17.5232 15.732 17.4384 15.6469L12.0004 10.2089L6.56094 15.6469C6.38946 15.8184 6.15689 15.9147 5.91438 15.9147C5.67187 15.9147 5.43929 15.8184 5.26782 15.6469C5.09634 15.4754 5 15.2428 5 15.0003C5 14.7578 5.09634 14.5252 5.26782 14.3538L11.3531 8.26847C11.4379 8.18338 11.5387 8.11586 11.6496 8.06979C11.7606 8.02372 11.8795 8 11.9997 8C12.1198 8 12.2388 8.02372 12.3497 8.06979C12.4607 8.11586 12.5614 8.18338 12.6462 8.26847L18.7315 14.3538C18.8166 14.4386 18.8841 14.5393 18.9302 14.6503C18.9763 14.7612 19 14.8802 19 15.0003C19 15.1205 18.9763 15.2394 18.9302 15.3504C18.8841 15.4613 18.8166 15.5621 18.7315 15.6469Z" fill="black"/>
</svg>
