<svg width="24" height="24" viewBox="0 0 24 24" fill="none" xmlns="http://www.w3.org/2000/svg">
<path d="M18.7307 9.5616L12.6458 15.6465C12.561 15.7316 12.4602 15.7991 12.3493 15.8452C12.2383 15.8913 12.1194 15.915 11.9992 15.915C11.8791 15.915 11.7602 15.8913 11.6492 15.8452C11.5383 15.7991 11.4375 15.7316 11.3527 15.6465L5.2678 9.5616C5.09633 9.39014 5 9.15757 5 8.91508C5 8.67259 5.09633 8.44003 5.2678 8.26856C5.43927 8.09709 5.67183 8.00076 5.91432 8.00076C6.15681 8.00076 6.38938 8.09709 6.56084 8.26856L12 13.7077L17.4392 8.2678C17.6106 8.09633 17.8432 8 18.0857 8C18.3282 8 18.5607 8.09633 18.7322 8.2678C18.9037 8.43927 19 8.67183 19 8.91432C19 9.15681 18.9037 9.38938 18.7322 9.56084L18.7307 9.5616Z" fill="black"/>
</svg>
