<svg width="24" height="24" viewBox="0 0 24 24" fill="none" xmlns="http://www.w3.org/2000/svg">
<path d="M15.6472 17.439C15.8187 17.6105 15.9151 17.8431 15.9151 18.0856C15.9151 18.3281 15.8187 18.5607 15.6472 18.7322C15.4758 18.9037 15.2432 19 15.0007 19C14.7581 19 14.5256 18.9037 14.3541 18.7322L8.26848 12.6466C8.18338 12.5618 8.11586 12.461 8.06979 12.3501C8.02372 12.2391 8 12.1201 8 12C8 11.8799 8.02372 11.7609 8.06979 11.6499C8.11586 11.539 8.18338 11.4382 8.26848 11.3534L14.3541 5.26783C14.5256 5.09634 14.7581 5 15.0007 5C15.2432 5 15.4758 5.09634 15.6472 5.26783C15.8187 5.43931 15.9151 5.6719 15.9151 5.91442C15.9151 6.15694 15.8187 6.38953 15.6472 6.56101L10.209 11.9992L15.6472 17.439Z" fill="black"/>
</svg>
