<svg width="24" height="24" viewBox="0 0 24 24" fill="none" xmlns="http://www.w3.org/2000/svg">
<path d="M15.6466 12.6466L9.56101 18.7322C9.38953 18.9037 9.15694 19 8.91442 19C8.6719 19 8.43931 18.9037 8.26783 18.7322C8.09634 18.5607 8 18.3281 8 18.0856C8 17.8431 8.09634 17.6105 8.26783 17.439L13.7076 12.0008L8.26935 6.56101C8.18444 6.4761 8.11708 6.3753 8.07113 6.26435C8.02517 6.15341 8.00152 6.0345 8.00152 5.91442C8.00152 5.79434 8.02517 5.67543 8.07113 5.56449C8.11708 5.45354 8.18444 5.35274 8.26935 5.26783C8.35426 5.18292 8.45507 5.11556 8.56601 5.06961C8.67695 5.02365 8.79586 5 8.91594 5C9.03603 5 9.15493 5.02365 9.26588 5.06961C9.37682 5.11556 9.47762 5.18292 9.56253 5.26783L15.6481 11.3534C15.7331 11.4383 15.8005 11.5392 15.8465 11.6502C15.8924 11.7612 15.916 11.8802 15.9158 12.0003C15.9157 12.1205 15.8918 12.2394 15.8456 12.3503C15.7994 12.4612 15.7318 12.5619 15.6466 12.6466Z" fill="black"/>
</svg>
