<svg width="24" height="24" viewBox="0 0 24 24" fill="none" xmlns="http://www.w3.org/2000/svg">
<path d="M16 8.33333V19C16 19.2652 15.8946 19.5196 15.7071 19.7071C15.5196 19.8946 15.2652 20 15 20C14.7348 20 14.4804 19.8946 14.2929 19.7071C14.1054 19.5196 14 19.2652 14 19V8.33333C14 8.06812 14.1054 7.81376 14.2929 7.62623C14.4804 7.43869 14.7348 7.33333 15 7.33333C15.2652 7.33333 15.5196 7.43869 15.7071 7.62623C15.8946 7.81376 16 8.06812 16 8.33333ZM18.3333 4C18.0681 4 17.8138 4.10536 17.6262 4.29289C17.4387 4.48043 17.3333 4.73478 17.3333 5V19C17.3333 19.2652 17.4387 19.5196 17.6262 19.7071C17.8138 19.8946 18.0681 20 18.3333 20C18.5985 20 18.8529 19.8946 19.0404 19.7071C19.228 19.5196 19.3333 19.2652 19.3333 19V5C19.3333 4.73478 19.228 4.48043 19.0404 4.29289C18.8529 4.10536 18.5985 4 18.3333 4ZM11.6667 10.6667C11.4014 10.6667 11.1471 10.772 10.9596 10.9596C10.772 11.1471 10.6667 11.4015 10.6667 11.6667V19C10.6667 19.2652 10.772 19.5196 10.9596 19.7071C11.1471 19.8946 11.4014 20 11.6667 20C11.9319 20 12.1862 19.8946 12.3738 19.7071C12.5613 19.5196 12.6667 19.2652 12.6667 19V11.6667C12.6667 11.4015 12.5613 11.1471 12.3738 10.9596C12.1862 10.772 11.9319 10.6667 11.6667 10.6667ZM8.33333 14C8.06812 14 7.81376 14.1054 7.62623 14.2929C7.43869 14.4804 7.33333 14.7348 7.33333 15V19C7.33333 19.2652 7.43869 19.5196 7.62623 19.7071C7.81376 19.8946 8.06812 20 8.33333 20C8.59855 20 8.8529 19.8946 9.04044 19.7071C9.22798 19.5196 9.33333 19.2652 9.33333 19V15C9.33333 14.7348 9.22798 14.4804 9.04044 14.2929C8.8529 14.1054 8.59855 14 8.33333 14ZM5 17.3333C4.73478 17.3333 4.48043 17.4387 4.29289 17.6262C4.10536 17.8138 4 18.0681 4 18.3333V19C4 19.2652 4.10536 19.5196 4.29289 19.7071C4.48043 19.8946 4.73478 20 5 20C5.26522 20 5.51957 19.8946 5.70711 19.7071C5.89464 19.5196 6 19.2652 6 19V18.3333C6 18.0681 5.89464 17.8138 5.70711 17.6262C5.51957 17.4387 5.26522 17.3333 5 17.3333Z" fill="black"/>
</svg>
