<svg width="24" height="24" viewBox="0 0 24 24" fill="none" xmlns="http://www.w3.org/2000/svg">
<path d="M21.75 8.33063V5.25C21.75 4.85218 21.592 4.47064 21.3107 4.18934C21.0294 3.90804 20.6478 3.75 20.25 3.75H3.75C3.35218 3.75 2.97064 3.90804 2.68934 4.18934C2.40804 4.47064 2.25 4.85218 2.25 5.25V17.25C2.25 17.6478 2.40804 18.0294 2.68934 18.3107C2.97064 18.592 3.35218 18.75 3.75 18.75H14.25V21C14.2499 21.1279 14.2825 21.2537 14.3448 21.3655C14.407 21.4772 14.4968 21.5712 14.6056 21.6384C14.7144 21.7057 14.8386 21.744 14.9663 21.7498C15.0941 21.7555 15.2212 21.7285 15.3356 21.6712L18 20.3381L20.6644 21.6712C20.7788 21.7285 20.9059 21.7555 21.0337 21.7498C21.1614 21.744 21.2856 21.7057 21.3944 21.6384C21.5032 21.5712 21.593 21.4772 21.6552 21.3655C21.7175 21.2537 21.7501 21.1279 21.75 21V15.6694C22.7115 14.69 23.2501 13.3724 23.2501 12C23.2501 10.6276 22.7115 9.30998 21.75 8.33063ZM12 13.5H6.75C6.55109 13.5 6.36032 13.421 6.21967 13.2803C6.07902 13.1397 6 12.9489 6 12.75C6 12.5511 6.07902 12.3603 6.21967 12.2197C6.36032 12.079 6.55109 12 6.75 12H12C12.1989 12 12.3897 12.079 12.5303 12.2197C12.671 12.3603 12.75 12.5511 12.75 12.75C12.75 12.9489 12.671 13.1397 12.5303 13.2803C12.3897 13.421 12.1989 13.5 12 13.5ZM12 10.5H6.75C6.55109 10.5 6.36032 10.421 6.21967 10.2803C6.07902 10.1397 6 9.94891 6 9.75C6 9.55109 6.07902 9.36032 6.21967 9.21967C6.36032 9.07902 6.55109 9 6.75 9H12C12.1989 9 12.3897 9.07902 12.5303 9.21967C12.671 9.36032 12.75 9.55109 12.75 9.75C12.75 9.94891 12.671 10.1397 12.5303 10.2803C12.3897 10.421 12.1989 10.5 12 10.5ZM20.25 19.7869L18.3356 18.8287C18.2314 18.7766 18.1165 18.7495 18 18.7495C17.8835 18.7495 17.7686 18.7766 17.6644 18.8287L15.75 19.7869V16.7428C16.4531 17.0767 17.2217 17.25 18 17.25C18.7783 17.25 19.5469 17.0767 20.25 16.7428V19.7869ZM18 15.75C17.2583 15.75 16.5333 15.5301 15.9166 15.118C15.2999 14.706 14.8193 14.1203 14.5355 13.4351C14.2516 12.7498 14.1774 11.9958 14.3221 11.2684C14.4668 10.541 14.8239 9.8728 15.3484 9.34835C15.8728 8.8239 16.541 8.46675 17.2684 8.32205C17.9958 8.17736 18.7498 8.25162 19.4351 8.53545C20.1203 8.81928 20.706 9.29993 21.118 9.91661C21.5301 10.5333 21.75 11.2583 21.75 12C21.75 12.9946 21.3549 13.9484 20.6517 14.6517C19.9484 15.3549 18.9946 15.75 18 15.75Z" fill="black"/>
</svg>
