<svg width="24" height="24" viewBox="0 0 24 24" fill="none" xmlns="http://www.w3.org/2000/svg">
<path d="M21.7826 18.9565C21.7826 19.2333 21.6727 19.4987 21.477 19.6944C21.2813 19.8901 21.0159 20 20.7391 20H4.04348C3.76673 20 3.50132 19.8901 3.30563 19.6944C3.10994 19.4987 3 19.2333 3 18.9565V5.04348C3 4.76673 3.10994 4.50132 3.30563 4.30563C3.50132 4.10994 3.76673 4 4.04348 4C4.32023 4 4.58564 4.10994 4.78133 4.30563C4.97702 4.50132 5.08696 4.76673 5.08696 5.04348V12.4826L8.92174 9.13043C9.10177 8.97292 9.33044 8.88205 9.56948 8.87303C9.80851 8.864 10.0434 8.93738 10.2348 9.08087L15.1235 12.747L20.0522 8.43478C20.1531 8.334 20.2737 8.255 20.4064 8.20265C20.5391 8.1503 20.6811 8.12572 20.8237 8.13042C20.9663 8.13512 21.1064 8.16901 21.2354 8.22999C21.3643 8.29097 21.4794 8.37775 21.5735 8.48496C21.6677 8.59217 21.7388 8.71755 21.7825 8.85333C21.8263 8.98911 21.8417 9.13243 21.8279 9.27441C21.8141 9.4164 21.7713 9.55404 21.7022 9.67884C21.6331 9.80364 21.5391 9.91295 21.4261 10L15.8609 14.8696C15.6808 15.0271 15.4522 15.118 15.2131 15.127C14.9741 15.136 14.7392 15.0626 14.5478 14.9191L9.65913 11.2557L5.08696 15.2565V17.913H20.7391C21.0159 17.913 21.2813 18.023 21.477 18.2187C21.6727 18.4144 21.7826 18.6798 21.7826 18.9565Z" fill="black"/>
</svg>
