<svg width="24" height="24" viewBox="0 0 24 24" fill="none" xmlns="http://www.w3.org/2000/svg">
<path d="M2.32026 10.8319C2.54173 8.97473 3.30133 7.22287 4.50557 5.79186C4.63882 5.63118 4.80413 5.50009 4.99094 5.40695C5.17775 5.31382 5.38194 5.2607 5.59045 5.251C5.79896 5.24129 6.0072 5.27521 6.20186 5.35058C6.39651 5.42596 6.57329 5.54113 6.72088 5.68874L9.31494 8.33811C9.56477 8.58736 9.71786 8.9173 9.74689 9.269C9.77591 9.62071 9.67897 9.97128 9.47338 10.2581C9.31765 10.479 9.20038 10.7247 9.12651 10.9847C9.10304 11.0614 9.0556 11.1286 8.99114 11.1763C8.92668 11.2241 8.8486 11.2499 8.76838 11.25H2.69338C2.64045 11.2501 2.58809 11.2389 2.53976 11.2174C2.49143 11.1958 2.44822 11.1642 2.41298 11.1247C2.37773 11.0852 2.35125 11.0387 2.33527 10.9882C2.31928 10.9377 2.31417 10.8844 2.32026 10.8319ZM12.8803 2.25561C12.6731 2.23754 12.4644 2.26276 12.2675 2.32965C12.0706 2.39654 11.8897 2.50365 11.7364 2.64418C11.5831 2.78471 11.4607 2.95558 11.3769 3.14595C11.2932 3.33631 11.2499 3.54201 11.2499 3.74999V7.5628C11.2474 7.91659 11.371 8.25971 11.5987 8.53053C11.8264 8.80134 12.1432 8.98208 12.4921 9.0403C13.1493 9.14871 13.7516 9.47271 14.2043 9.96123C14.657 10.4498 14.9342 11.075 14.9924 11.7385C15.0505 12.402 14.8862 13.0659 14.5253 13.6257C14.1645 14.1855 13.6276 14.6093 12.9993 14.8303C12.9262 14.8572 12.8631 14.9058 12.8185 14.9697C12.7739 15.0336 12.75 15.1096 12.7499 15.1875V21.3028C12.7496 21.3559 12.7605 21.4085 12.782 21.457C12.8035 21.5056 12.835 21.549 12.8746 21.5845C12.9141 21.6199 12.9607 21.6466 13.0113 21.6627C13.0619 21.6787 13.1153 21.6839 13.1681 21.6778C15.5079 21.3889 17.6647 20.2647 19.2416 18.512C20.8184 16.7593 21.7092 14.496 21.7499 12.1387C21.8203 7.04905 17.924 2.70749 12.8803 2.25561ZM10.9921 14.8275C10.5729 14.6779 10.1922 14.437 9.87763 14.1221C9.56305 13.8072 9.32249 13.4262 9.17338 13.0069C9.14782 12.9325 9.09984 12.8679 9.03604 12.8219C8.97225 12.7759 8.89578 12.7508 8.81713 12.75H2.69244C2.63944 12.7496 2.58696 12.7606 2.53848 12.782C2.49 12.8034 2.44661 12.8349 2.41117 12.8743C2.37574 12.9137 2.34906 12.9602 2.33291 13.0107C2.31675 13.0612 2.31148 13.1145 2.31744 13.1672C2.58005 15.3341 3.56153 17.3505 5.10502 18.894C6.6485 20.4375 8.66486 21.4189 10.8318 21.6815C10.8845 21.6875 10.9378 21.6822 10.9883 21.6661C11.0388 21.6499 11.0853 21.6233 11.1247 21.5878C11.1641 21.5524 11.1956 21.509 11.217 21.4605C11.2384 21.412 11.2493 21.3596 11.249 21.3065V15.1875C11.2492 15.1082 11.2245 15.0308 11.1784 14.9662C11.1323 14.9017 11.0672 14.8531 10.9921 14.8275Z" fill="black"/>
</svg>
