<svg width="24" height="24" viewBox="0 0 24 24" fill="none" xmlns="http://www.w3.org/2000/svg">
<path d="M13.7718 9.49491L7.26867 15.8793C7.1058 16.0393 6.8866 16.1289 6.65827 16.1289C6.42995 16.1289 6.21075 16.0393 6.04788 15.8793L3.26082 13.1435C3.17919 13.0633 3.11414 12.9679 3.0694 12.8627C3.02465 12.7574 3.00108 12.6444 3.00004 12.53C2.99793 12.2991 3.08769 12.0767 3.24957 11.9119C3.32973 11.8303 3.42519 11.7653 3.53048 11.7206C3.63578 11.6758 3.74886 11.6523 3.86326 11.6512C4.09432 11.6491 4.31674 11.7389 4.48161 11.9007L6.659 14.038L12.5517 8.25285C12.7165 8.09103 12.9388 8.00126 13.1698 8.0033C13.4008 8.00534 13.6215 8.09902 13.7834 8.26373C13.9453 8.42844 14.0351 8.65068 14.0331 8.88157C14.031 9.11246 13.9373 9.33309 13.7725 9.49491H13.7718ZM20.7503 8.26155C20.6701 8.17967 20.5745 8.11442 20.4691 8.06954C20.3636 8.02467 20.2503 8.00104 20.1357 8.00003C20.021 7.99902 19.9073 8.02064 19.8011 8.06365C19.6948 8.10666 19.5981 8.17022 19.5165 8.25067L13.6259 14.038L13.054 13.4765C12.8892 13.3146 12.6669 13.2249 12.4359 13.2269C12.2049 13.229 11.9842 13.3226 11.8223 13.4873C11.6604 13.6521 11.5706 13.8743 11.5727 14.1052C11.5747 14.3361 11.6684 14.5567 11.8332 14.7185L13.0155 15.8793C13.1784 16.0393 13.3976 16.1289 13.6259 16.1289C13.8542 16.1289 14.0734 16.0393 14.2363 15.8793L20.7394 9.49491C20.821 9.41478 20.886 9.31938 20.9307 9.21414C20.9754 9.1089 20.999 8.9959 21 8.88157C21.001 8.76725 20.9795 8.65384 20.9366 8.54783C20.8938 8.44182 20.8305 8.34528 20.7503 8.26373V8.26155Z" fill="black"/>
</svg>
