<svg width="24" height="24" viewBox="0 0 24 24" fill="none" xmlns="http://www.w3.org/2000/svg">
<path d="M12 4C10.4178 4 8.87103 4.46919 7.55544 5.34824C6.23985 6.22729 5.21447 7.47672 4.60897 8.93853C4.00347 10.4003 3.84504 12.0089 4.15372 13.5607C4.4624 15.1126 5.22433 16.538 6.34315 17.6569C7.46197 18.7757 8.88743 19.5376 10.4393 19.8463C11.9911 20.155 13.5997 19.9965 15.0615 19.391C16.5233 18.7855 17.7727 17.7602 18.6518 16.4446C19.5308 15.129 20 13.5822 20 12C19.9978 9.87895 19.1542 7.84542 17.6544 6.34562C16.1546 4.84581 14.121 4.00224 12 4ZM15.5123 10.5892L11.2046 14.8969C11.1475 14.9541 11.0796 14.9995 11.0049 15.0305C10.9302 15.0615 10.8501 15.0774 10.7692 15.0774C10.6884 15.0774 10.6083 15.0615 10.5336 15.0305C10.4589 14.9995 10.391 14.9541 10.3338 14.8969L8.48769 13.0508C8.37222 12.9353 8.30735 12.7787 8.30735 12.6154C8.30735 12.4521 8.37222 12.2955 8.48769 12.18C8.60317 12.0645 8.75978 11.9997 8.92308 11.9997C9.08638 11.9997 9.24299 12.0645 9.35846 12.18L10.7692 13.5915L14.6415 9.71846C14.6987 9.66128 14.7666 9.61593 14.8413 9.58499C14.916 9.55404 14.9961 9.53812 15.0769 9.53812C15.1578 9.53812 15.2378 9.55404 15.3126 9.58499C15.3873 9.61593 15.4551 9.66128 15.5123 9.71846C15.5695 9.77564 15.6148 9.84351 15.6458 9.91822C15.6767 9.99292 15.6927 10.073 15.6927 10.1538C15.6927 10.2347 15.6767 10.3148 15.6458 10.3895C15.6148 10.4642 15.5695 10.5321 15.5123 10.5892Z" fill="black"/>
</svg>
