<svg width="24" height="24" viewBox="0 0 24 24" fill="none" xmlns="http://www.w3.org/2000/svg">
<path d="M19.7277 7.57652L9.88447 17.4198C9.79874 17.5058 9.69687 17.574 9.5847 17.6206C9.47253 17.6672 9.35227 17.6912 9.23082 17.6912C9.10937 17.6912 8.98911 17.6672 8.87694 17.6206C8.76477 17.574 8.6629 17.5058 8.57717 17.4198L4.27075 13.1133C4.18491 13.0275 4.11682 12.9256 4.07037 12.8134C4.02391 12.7013 4 12.5811 4 12.4597C4 12.3383 4.02391 12.2181 4.07037 12.1059C4.11682 11.9938 4.18491 11.8919 4.27075 11.806C4.35659 11.7202 4.4585 11.6521 4.57065 11.6056C4.6828 11.5592 4.80301 11.5353 4.9244 11.5353C5.0458 11.5353 5.166 11.5592 5.27816 11.6056C5.39031 11.6521 5.49222 11.7202 5.57806 11.806L9.23159 15.4596L18.4219 6.27075C18.5953 6.09739 18.8304 6 19.0756 6C19.3208 6 19.5559 6.09739 19.7292 6.27075C19.9026 6.44411 20 6.67924 20 6.9244C20 7.16957 19.9026 7.4047 19.7292 7.57806L19.7277 7.57652Z" fill="black"/>
</svg>
