<svg width="24" height="24" viewBox="0 0 24 24" fill="none" xmlns="http://www.w3.org/2000/svg">
<path d="M11.25 7.5C11.25 8.24168 11.0301 8.96671 10.618 9.58339C10.206 10.2001 9.62029 10.6807 8.93506 10.9646C8.24984 11.2484 7.49584 11.3226 6.76841 11.1779C6.04098 11.0333 5.3728 10.6761 4.84835 10.1517C4.3239 9.6272 3.96675 8.95902 3.82206 8.23159C3.67736 7.50416 3.75162 6.75016 4.03545 6.06494C4.31928 5.37972 4.79993 4.79405 5.41661 4.38199C6.0333 3.96994 6.75832 3.75 7.5 3.75C8.49456 3.75 9.44839 4.14509 10.1517 4.84835C10.8549 5.55161 11.25 6.50544 11.25 7.5ZM16.5 11.25C17.2417 11.25 17.9667 11.0301 18.5834 10.618C19.2001 10.206 19.6807 9.62029 19.9646 8.93506C20.2484 8.24984 20.3226 7.49584 20.1779 6.76841C20.0333 6.04098 19.6761 5.3728 19.1517 4.84835C18.6272 4.3239 17.959 3.96675 17.2316 3.82206C16.5042 3.67736 15.7502 3.75162 15.0649 4.03545C14.3797 4.31928 13.794 4.79993 13.382 5.41661C12.9699 6.0333 12.75 6.75832 12.75 7.5C12.75 8.49456 13.1451 9.44839 13.8484 10.1517C14.5516 10.8549 15.5054 11.25 16.5 11.25ZM7.5 12.75C6.75832 12.75 6.0333 12.9699 5.41661 13.382C4.79993 13.794 4.31928 14.3797 4.03545 15.0649C3.75162 15.7502 3.67736 16.5042 3.82206 17.2316C3.96675 17.959 4.3239 18.6272 4.84835 19.1517C5.3728 19.6761 6.04098 20.0333 6.76841 20.1779C7.49584 20.3226 8.24984 20.2484 8.93506 19.9646C9.62029 19.6807 10.206 19.2001 10.618 18.5834C11.0301 17.9667 11.25 17.2417 11.25 16.5C11.25 15.5054 10.8549 14.5516 10.1517 13.8484C9.44839 13.1451 8.49456 12.75 7.5 12.75ZM19.5 15.75H17.25V13.5C17.25 13.3011 17.171 13.1103 17.0303 12.9697C16.8897 12.829 16.6989 12.75 16.5 12.75C16.3011 12.75 16.1103 12.829 15.9697 12.9697C15.829 13.1103 15.75 13.3011 15.75 13.5V15.75H13.5C13.3011 15.75 13.1103 15.829 12.9697 15.9697C12.829 16.1103 12.75 16.3011 12.75 16.5C12.75 16.6989 12.829 16.8897 12.9697 17.0303C13.1103 17.171 13.3011 17.25 13.5 17.25H15.75V19.5C15.75 19.6989 15.829 19.8897 15.9697 20.0303C16.1103 20.171 16.3011 20.25 16.5 20.25C16.6989 20.25 16.8897 20.171 17.0303 20.0303C17.171 19.8897 17.25 19.6989 17.25 19.5V17.25H19.5C19.6989 17.25 19.8897 17.171 20.0303 17.0303C20.171 16.8897 20.25 16.6989 20.25 16.5C20.25 16.3011 20.171 16.1103 20.0303 15.9697C19.8897 15.829 19.6989 15.75 19.5 15.75Z" fill="black"/>
</svg>
