<svg width="24" height="24" viewBox="0 0 24 24" fill="none" xmlns="http://www.w3.org/2000/svg">
<path d="M8.66068 3.56719C8.62359 3.42407 8.61508 3.27504 8.63563 3.12862C8.65618 2.98221 8.70539 2.84128 8.78044 2.7139C8.8555 2.58652 8.95493 2.47518 9.07304 2.38625C9.19115 2.29732 9.32564 2.23254 9.4688 2.19563C11.1291 1.76694 12.871 1.76694 14.5313 2.19563C14.6776 2.22949 14.8156 2.29228 14.9372 2.38031C15.0588 2.46833 15.1616 2.57981 15.2394 2.70816C15.3173 2.83652 15.3687 2.97917 15.3905 3.12769C15.4124 3.27622 15.4044 3.42762 15.3668 3.57297C15.3293 3.71833 15.263 3.8547 15.1719 3.97406C15.0809 4.09341 14.9668 4.19333 14.8366 4.26792C14.7063 4.34252 14.5624 4.39029 14.4133 4.40841C14.2643 4.42653 14.1132 4.41464 13.9688 4.37344C12.6774 4.04047 11.3227 4.04047 10.0313 4.37344C9.74264 4.44812 9.43613 4.40515 9.17913 4.25397C8.92213 4.1028 8.73566 3.85578 8.66068 3.56719ZM4.77568 4.90688C3.5747 6.13048 2.70378 7.63878 2.24443 9.29063C2.20498 9.43307 2.19398 9.58189 2.21207 9.72859C2.23016 9.87528 2.27698 10.017 2.34985 10.1456C2.42272 10.2742 2.52022 10.3871 2.63677 10.478C2.75332 10.5689 2.88665 10.636 3.02912 10.6753C3.12689 10.702 3.22777 10.7155 3.32912 10.7156C3.57511 10.7155 3.81429 10.6348 4.01003 10.4858C4.20577 10.3368 4.34727 10.1277 4.41287 9.89063C4.77012 8.60637 5.44752 7.43382 6.38162 6.48281C6.4851 6.37737 6.56679 6.25257 6.62204 6.11555C6.67729 5.97853 6.705 5.83197 6.70361 5.68424C6.70222 5.53651 6.67174 5.39049 6.61392 5.25454C6.5561 5.11859 6.47207 4.99535 6.36662 4.89188C6.26117 4.7884 6.13637 4.7067 5.99935 4.65146C5.86233 4.59621 5.71577 4.56849 5.56804 4.56988C5.42031 4.57127 5.2743 4.60175 5.13835 4.65957C5.00239 4.7174 4.87916 4.80143 4.77568 4.90688ZM4.41193 14.1075C4.3273 13.8256 4.13558 13.5881 3.87788 13.4459C3.62018 13.3038 3.31702 13.2683 3.03344 13.347C2.74985 13.4257 2.50842 13.6125 2.36092 13.8672C2.21342 14.1219 2.1716 14.4242 2.24443 14.7094C2.70311 16.362 3.57409 17.8711 4.77568 19.095C4.98863 19.2885 5.26765 19.3931 5.55536 19.3873C5.84306 19.3814 6.11757 19.2655 6.32243 19.0634C6.52729 18.8613 6.64691 18.5884 6.6567 18.3008C6.66649 18.0132 6.5657 17.7327 6.37506 17.5172C5.44273 16.565 4.76727 15.3919 4.41193 14.1075ZM13.9688 19.6266C12.6775 19.96 11.3226 19.96 10.0313 19.6266C9.88694 19.5854 9.73579 19.5735 9.58676 19.5916C9.43773 19.6097 9.29384 19.6575 9.16356 19.7321C9.03327 19.8067 8.91924 19.9066 8.82817 20.0259C8.7371 20.1453 8.67085 20.2817 8.6333 20.427C8.59576 20.5724 8.58769 20.7238 8.60957 20.8723C8.63144 21.0208 8.68283 21.1635 8.76069 21.2918C8.83855 21.4202 8.94132 21.5317 9.06293 21.6197C9.18454 21.7077 9.32255 21.7705 9.4688 21.8044C11.1291 22.2331 12.871 22.2331 14.5313 21.8044C14.6776 21.7705 14.8156 21.7077 14.9372 21.6197C15.0588 21.5317 15.1616 21.4202 15.2394 21.2918C15.3173 21.1635 15.3687 21.0208 15.3905 20.8723C15.4124 20.7238 15.4044 20.5724 15.3668 20.427C15.3293 20.2817 15.263 20.1453 15.1719 20.0259C15.0809 19.9066 14.9668 19.8067 14.8366 19.7321C14.7063 19.6575 14.5624 19.6097 14.4133 19.5916C14.2643 19.5735 14.1132 19.5854 13.9688 19.6266ZM20.9738 13.3247C20.6868 13.2464 20.3804 13.2851 20.1218 13.4321C19.8632 13.5792 19.6733 13.8227 19.5938 14.1094C19.2366 15.3936 18.5592 16.5662 17.6251 17.5172C17.4159 17.73 17.3 18.0172 17.3026 18.3156C17.3052 18.6139 17.4263 18.899 17.6391 19.1081C17.852 19.3172 18.1391 19.4332 18.4375 19.4306C18.7359 19.4279 19.0209 19.3069 19.2301 19.0941C20.4309 17.87 21.3018 16.3614 21.7613 14.7094C21.8007 14.5667 21.8115 14.4176 21.7932 14.2707C21.7749 14.1238 21.7277 13.982 21.6545 13.8534C21.5812 13.7248 21.4833 13.6118 21.3664 13.5211C21.2494 13.4304 21.1157 13.3636 20.9729 13.3247H20.9738ZM19.5891 9.8925C19.6737 10.1744 19.8655 10.4119 20.1232 10.5541C20.3809 10.6962 20.684 10.7317 20.9676 10.653C21.2512 10.5743 21.4926 10.3875 21.6401 10.1328C21.7876 9.87814 21.8294 9.57579 21.7566 9.29063C21.2979 7.63795 20.427 6.12889 19.2254 4.905C19.1238 4.79143 19.0003 4.69967 18.8622 4.63529C18.7241 4.5709 18.5744 4.53524 18.4221 4.53045C18.2698 4.52566 18.1182 4.55185 17.9763 4.60743C17.8345 4.66301 17.7054 4.74682 17.5969 4.85379C17.4884 4.96075 17.4028 5.08863 17.3452 5.22968C17.2876 5.37073 17.2593 5.522 17.2619 5.67433C17.2645 5.82666 17.2981 5.97687 17.3605 6.11584C17.4229 6.25482 17.5129 6.37966 17.6251 6.48281C18.5574 7.43497 19.2328 8.60815 19.5882 9.8925H19.5891Z" fill="black"/>
</svg>
