<svg width="24" height="24" viewBox="0 0 24 24" fill="none" xmlns="http://www.w3.org/2000/svg">
<path d="M18.75 2.99999H15.3506C14.9292 2.52817 14.4129 2.15066 13.8355 1.8922C13.2581 1.63373 12.6326 1.50012 12 1.50012C11.3674 1.50012 10.7419 1.63373 10.1645 1.8922C9.58709 2.15066 9.07079 2.52817 8.64937 2.99999H5.25C4.85218 2.99999 4.47064 3.15802 4.18934 3.43933C3.90804 3.72063 3.75 4.10216 3.75 4.49999V20.25C3.75 20.6478 3.90804 21.0293 4.18934 21.3106C4.47064 21.592 4.85218 21.75 5.25 21.75H18.75C19.1478 21.75 19.5294 21.592 19.8107 21.3106C20.092 21.0293 20.25 20.6478 20.25 20.25V4.49999C20.25 4.10216 20.092 3.72063 19.8107 3.43933C19.5294 3.15802 19.1478 2.99999 18.75 2.99999ZM12 2.99999C12.7956 2.99999 13.5587 3.31606 14.1213 3.87867C14.6839 4.44127 15 5.20434 15 5.99999H9C9 5.20434 9.31607 4.44127 9.87868 3.87867C10.4413 3.31606 11.2044 2.99999 12 2.99999ZM15 15H9C8.80109 15 8.61032 14.921 8.46967 14.7803C8.32902 14.6397 8.25 14.4489 8.25 14.25C8.25 14.0511 8.32902 13.8603 8.46967 13.7197C8.61032 13.579 8.80109 13.5 9 13.5H15C15.1989 13.5 15.3897 13.579 15.5303 13.7197C15.671 13.8603 15.75 14.0511 15.75 14.25C15.75 14.4489 15.671 14.6397 15.5303 14.7803C15.3897 14.921 15.1989 15 15 15ZM15 12H9C8.80109 12 8.61032 11.921 8.46967 11.7803C8.32902 11.6397 8.25 11.4489 8.25 11.25C8.25 11.0511 8.32902 10.8603 8.46967 10.7197C8.61032 10.579 8.80109 10.5 9 10.5H15C15.1989 10.5 15.3897 10.579 15.5303 10.7197C15.671 10.8603 15.75 11.0511 15.75 11.25C15.75 11.4489 15.671 11.6397 15.5303 11.7803C15.3897 11.921 15.1989 12 15 12Z" fill="black"/>
</svg>
