<svg width="24" height="24" viewBox="0 0 24 24" fill="none" xmlns="http://www.w3.org/2000/svg">
<path d="M13.6 8.16002V11.4568L16.3336 13.0968C16.4441 13.1604 16.5409 13.2454 16.6182 13.3468C16.6955 13.4482 16.7519 13.564 16.784 13.6874C16.8161 13.8109 16.8232 13.9394 16.8051 14.0657C16.7869 14.1919 16.7438 14.3132 16.6782 14.4226C16.6126 14.532 16.5259 14.6272 16.4231 14.7027C16.3203 14.7782 16.2035 14.8324 16.0795 14.8623C15.9555 14.8921 15.8269 14.897 15.701 14.8765C15.5751 14.8561 15.4546 14.8108 15.3464 14.7432L12.1464 12.8232C12.0042 12.738 11.8865 12.6173 11.8047 12.4731C11.723 12.3288 11.68 12.1658 11.68 12V8.16002C11.68 7.90541 11.7811 7.66123 11.9612 7.4812C12.1412 7.30116 12.3854 7.20002 12.64 7.20002C12.8946 7.20002 13.1388 7.30116 13.3188 7.4812C13.4988 7.66123 13.6 7.90541 13.6 8.16002ZM12.64 4.00003C11.5881 3.99732 10.5461 4.20339 9.57435 4.6063C8.60265 5.00921 7.72056 5.60094 6.9792 6.34722C6.604 6.72642 6.2592 7.09682 5.92 7.46722V6.88002C5.92 6.62541 5.81885 6.38123 5.63882 6.2012C5.45879 6.02117 5.21461 5.92002 4.96 5.92002C4.70539 5.92002 4.46121 6.02117 4.28118 6.2012C4.10114 6.38123 4 6.62541 4 6.88002V10.08C4 10.3346 4.10114 10.5788 4.28118 10.7588C4.46121 10.9389 4.70539 11.04 4.96 11.04H8.15999C8.4146 11.04 8.65878 10.9389 8.83881 10.7588C9.01885 10.5788 9.11999 10.3346 9.11999 10.08C9.11999 9.82541 9.01885 9.58123 8.83881 9.4012C8.65878 9.22116 8.4146 9.12002 8.15999 9.12002H7.0216C7.43999 8.64002 7.86959 8.17762 8.34079 7.70082C9.18572 6.85565 10.261 6.27823 11.4322 6.0407C12.6035 5.80318 13.8187 5.9161 14.9262 6.36534C16.0336 6.81459 16.9841 7.58023 17.6588 8.5666C18.3335 9.55298 18.7026 10.7163 18.72 11.9113C18.7373 13.1062 18.4021 14.2798 17.7562 15.2853C17.1103 16.2908 16.1824 17.0837 15.0885 17.5648C13.9946 18.046 12.7831 18.1941 11.6054 17.9906C10.4278 17.7871 9.33626 17.2411 8.46719 16.4208C8.28197 16.246 8.03487 16.1519 7.78028 16.1592C7.52568 16.1666 7.28443 16.2748 7.10959 16.46C6.93476 16.6452 6.84068 16.8923 6.84803 17.1469C6.85538 17.4015 6.96357 17.6428 7.14879 17.8176C8.09841 18.714 9.25303 19.3643 10.5118 19.7117C11.7706 20.0591 13.0953 20.0931 14.3703 19.8107C15.6452 19.5283 16.8317 18.9381 17.826 18.0916C18.8203 17.2451 19.5924 16.168 20.0746 14.9545C20.5569 13.741 20.7348 12.4278 20.5927 11.1297C20.4506 9.8316 19.993 8.588 19.2596 7.50749C18.5263 6.42699 17.5396 5.54242 16.3857 4.93102C15.2319 4.31963 13.9458 3.99999 12.64 4.00003Z" fill="black"/>
</svg>
