<svg width="24" height="24" viewBox="0 0 24 24" fill="none" xmlns="http://www.w3.org/2000/svg">
<path d="M12 4C10.4178 4 8.87103 4.46919 7.55544 5.34824C6.23985 6.22729 5.21447 7.47672 4.60897 8.93853C4.00347 10.4003 3.84504 12.0089 4.15372 13.5607C4.4624 15.1126 5.22433 16.538 6.34315 17.6569C7.46197 18.7757 8.88743 19.5376 10.4393 19.8463C11.9911 20.155 13.5997 19.9965 15.0615 19.391C16.5233 18.7855 17.7727 17.7602 18.6518 16.4446C19.5308 15.129 20 13.5822 20 12C19.9978 9.87895 19.1542 7.84542 17.6544 6.34562C16.1546 4.84581 14.121 4.00224 12 4ZM14.8969 14.0262C14.9541 14.0833 14.9995 14.1512 15.0304 14.2259C15.0613 14.3006 15.0773 14.3807 15.0773 14.4615C15.0773 14.5424 15.0613 14.6225 15.0304 14.6972C14.9995 14.7719 14.9541 14.8397 14.8969 14.8969C14.8397 14.9541 14.7719 14.9994 14.6972 15.0304C14.6225 15.0613 14.5424 15.0773 14.4615 15.0773C14.3807 15.0773 14.3006 15.0613 14.2259 15.0304C14.1512 14.9994 14.0833 14.9541 14.0262 14.8969L12 12.87L9.97385 14.8969C9.91667 14.9541 9.8488 14.9994 9.77409 15.0304C9.69939 15.0613 9.61932 15.0773 9.53846 15.0773C9.45761 15.0773 9.37754 15.0613 9.30283 15.0304C9.22813 14.9994 9.16025 14.9541 9.10308 14.8969C9.0459 14.8397 9.00055 14.7719 8.96961 14.6972C8.93866 14.6225 8.92274 14.5424 8.92274 14.4615C8.92274 14.3807 8.93866 14.3006 8.96961 14.2259C9.00055 14.1512 9.0459 14.0833 9.10308 14.0262L11.13 12L9.10308 9.97385C8.98761 9.85837 8.92274 9.70176 8.92274 9.53846C8.92274 9.37516 8.98761 9.21855 9.10308 9.10308C9.21855 8.9876 9.37516 8.92273 9.53846 8.92273C9.70176 8.92273 9.85838 8.9876 9.97385 9.10308L12 11.13L14.0262 9.10308C14.0833 9.0459 14.1512 9.00055 14.2259 8.9696C14.3006 8.93866 14.3807 8.92273 14.4615 8.92273C14.5424 8.92273 14.6225 8.93866 14.6972 8.9696C14.7719 9.00055 14.8397 9.0459 14.8969 9.10308C14.9541 9.16025 14.9995 9.22813 15.0304 9.30283C15.0613 9.37753 15.0773 9.4576 15.0773 9.53846C15.0773 9.61932 15.0613 9.69939 15.0304 9.77409C14.9995 9.84879 14.9541 9.91667 14.8969 9.97385L12.87 12L14.8969 14.0262Z" fill="black"/>
</svg>
