<svg width="24" height="24" viewBox="0 0 24 24" fill="none" xmlns="http://www.w3.org/2000/svg">
<path d="M10.4523 4.93406C10.2761 4.75837 10.0585 4.62988 9.81964 4.56045C9.58074 4.49101 9.3282 4.48287 9.08532 4.53677C8.84244 4.59067 8.61705 4.70488 8.42994 4.86885C8.24284 5.03283 8.10005 5.24129 8.01476 5.475L3.09382 19.0106C3.01298 19.2338 2.98687 19.4732 3.01768 19.7086C3.04848 19.944 3.13531 20.1685 3.27087 20.3634C3.40643 20.5583 3.58676 20.7178 3.79673 20.8286C4.0067 20.9394 4.24018 20.9981 4.47757 21C4.65235 20.9988 4.82559 20.9671 4.98945 20.9062L18.5241 15.9844C18.7579 15.8992 18.9665 15.7565 19.1305 15.5694C19.2946 15.3824 19.4089 15.157 19.4629 14.9141C19.5169 14.6712 19.5089 14.4186 19.4395 14.1797C19.3701 13.9407 19.2417 13.7231 19.066 13.5469L10.4523 4.93406ZM6.10695 15.1059L7.90694 10.1569L13.8432 16.0931L8.8932 17.8931L6.10695 15.1059ZM15.0001 6.75C15.0142 6.24297 15.1369 5.74488 15.3601 5.28937C15.8569 4.29656 16.7944 3.75 18.0001 3.75C18.6282 3.75 19.0313 3.53531 19.2798 3.07406C19.4106 2.81601 19.4856 2.53333 19.5001 2.24437C19.5008 2.04546 19.5805 1.85499 19.7217 1.71487C19.8629 1.57474 20.054 1.49644 20.2529 1.49719C20.4518 1.49793 20.6423 1.57767 20.7824 1.71885C20.9225 1.86003 21.0008 2.05109 21.0001 2.25C21.0001 3.45563 20.2013 5.25 18.0001 5.25C17.3719 5.25 16.9688 5.46469 16.7204 5.92594C16.5896 6.18399 16.5145 6.46667 16.5001 6.75562C16.4997 6.85412 16.4799 6.95157 16.4419 7.04242C16.4039 7.13328 16.3483 7.21575 16.2784 7.28513C16.2085 7.35451 16.1256 7.40945 16.0345 7.4468C15.9433 7.48415 15.8457 7.50318 15.7473 7.50281C15.6488 7.50244 15.5513 7.48268 15.4605 7.44465C15.3696 7.40661 15.2871 7.35106 15.2177 7.28115C15.1484 7.21125 15.0934 7.12836 15.0561 7.03723C15.0187 6.94609 14.9997 6.84849 15.0001 6.75ZM12.7501 3.75V1.5C12.7501 1.30109 12.8291 1.11032 12.9697 0.96967C13.1104 0.829018 13.3012 0.75 13.5001 0.75C13.699 0.75 13.8897 0.829018 14.0304 0.96967C14.1711 1.11032 14.2501 1.30109 14.2501 1.5V3.75C14.2501 3.94891 14.1711 4.13968 14.0304 4.28033C13.8897 4.42098 13.699 4.5 13.5001 4.5C13.3012 4.5 13.1104 4.42098 12.9697 4.28033C12.8291 4.13968 12.7501 3.94891 12.7501 3.75ZM22.2807 11.4694C22.3503 11.5391 22.4055 11.6218 22.4432 11.7128C22.4808 11.8038 22.5002 11.9014 22.5002 11.9999C22.5001 12.0984 22.4807 12.1959 22.4429 12.2869C22.4052 12.3779 22.3499 12.4605 22.2802 12.5302C22.2105 12.5998 22.1278 12.655 22.0368 12.6926C21.9458 12.7303 21.8482 12.7497 21.7497 12.7496C21.6512 12.7496 21.5537 12.7301 21.4627 12.6924C21.3717 12.6547 21.2891 12.5994 21.2194 12.5297L19.7194 11.0297C19.5787 10.889 19.4997 10.6981 19.4997 10.4991C19.4997 10.3 19.5787 10.1092 19.7194 9.96844C19.8602 9.82771 20.051 9.74865 20.2501 9.74865C20.4491 9.74865 20.64 9.82771 20.7807 9.96844L22.2807 11.4694ZM22.7373 7.46156L20.4873 8.21156C20.2985 8.27447 20.0926 8.25983 19.9146 8.17087C19.7367 8.0819 19.6014 7.92591 19.5385 7.73719C19.4756 7.54847 19.4902 7.34249 19.5792 7.16457C19.6682 6.98664 19.8242 6.85134 20.0129 6.78844L22.2629 6.03844C22.4516 5.97553 22.6576 5.99017 22.8355 6.07913C23.0134 6.1681 23.1487 6.32409 23.2116 6.51281C23.2745 6.70153 23.2599 6.90751 23.1709 7.08543C23.082 7.26336 22.926 7.39866 22.7373 7.46156Z" fill="black"/>
</svg>
