<svg width="24" height="24" viewBox="0 0 24 24" fill="none" xmlns="http://www.w3.org/2000/svg">
<path d="M19.5 9C19.5 8.7775 19.566 8.55999 19.6896 8.37498C19.8132 8.18998 19.9889 8.04578 20.1945 7.96064C20.4001 7.87549 20.6263 7.85321 20.8445 7.89662C21.0627 7.94002 21.2632 8.04717 21.4205 8.2045C21.5778 8.36184 21.685 8.56229 21.7284 8.78052C21.7718 8.99875 21.7495 9.22495 21.6644 9.43052C21.5792 9.63609 21.435 9.81179 21.25 9.9354C21.065 10.059 20.8475 10.125 20.625 10.125C20.3266 10.125 20.0405 10.0065 19.8295 9.7955C19.6185 9.58452 19.5 9.29837 19.5 9ZM18.375 6.75C18.5975 6.75 18.815 6.68402 19 6.5604C19.185 6.43679 19.3292 6.26109 19.4144 6.05552C19.4995 5.84995 19.5218 5.62375 19.4784 5.40552C19.435 5.18729 19.3278 4.98684 19.1705 4.8295C19.0132 4.67217 18.8127 4.56502 18.5945 4.52162C18.3763 4.47821 18.1501 4.50049 17.9445 4.58564C17.7389 4.67078 17.5632 4.81498 17.4396 4.99998C17.316 5.18499 17.25 5.4025 17.25 5.625C17.25 5.92337 17.3685 6.20952 17.5795 6.4205C17.7905 6.63147 18.0766 6.75 18.375 6.75ZM21.0619 12C20.8637 11.9837 20.6672 12.0467 20.5155 12.1752C20.3638 12.3037 20.2693 12.4872 20.2528 12.6853C20.1186 14.2532 19.5394 15.7502 18.5832 17.0001C17.6271 18.25 16.3339 19.2008 14.8557 19.7406C13.3775 20.2805 11.7759 20.3869 10.2393 20.0474C8.7027 19.7079 7.29503 18.9365 6.18194 17.8241C5.06884 16.7117 4.29661 15.3045 3.95613 13.7682C3.61564 12.2318 3.72105 10.6301 4.25996 9.15159C4.79887 7.67308 5.74886 6.37924 6.99815 5.42232C8.24744 4.4654 9.74405 3.88521 11.3119 3.75C11.4104 3.74187 11.5063 3.71443 11.5942 3.66923C11.6821 3.62403 11.7602 3.56197 11.8241 3.48658C11.888 3.41119 11.9364 3.32395 11.9666 3.22985C11.9968 3.13574 12.0081 3.03662 12 2.93812C11.9919 2.83963 11.9644 2.74371 11.9192 2.65582C11.8741 2.56794 11.812 2.48982 11.7366 2.42592C11.6612 2.36202 11.574 2.3136 11.4799 2.28341C11.3858 2.25323 11.2866 2.24187 11.1881 2.25C9.33567 2.40934 7.56723 3.09445 6.0909 4.22471C4.61456 5.35497 3.49175 6.88337 2.85455 8.63009C2.21735 10.3768 2.09227 12.2692 2.49404 14.0846C2.89581 15.9 3.8077 17.5628 5.12243 18.8776C6.43717 20.1923 8.10005 21.1042 9.91544 21.506C11.7308 21.9077 13.6232 21.7827 15.3699 21.1455C17.1166 20.5083 18.645 19.3855 19.7753 17.9091C20.9056 16.4328 21.5907 14.6644 21.75 12.8119C21.7585 12.7133 21.7474 12.6141 21.7173 12.5198C21.6873 12.4256 21.6389 12.3382 21.5749 12.2627C21.511 12.1873 21.4327 12.1252 21.3446 12.0801C21.2566 12.035 21.1605 12.0078 21.0619 12ZM12 5.25C13.335 5.25 14.6401 5.64588 15.7501 6.38758C16.8601 7.12928 17.7253 8.18349 18.2362 9.41689C18.7471 10.6503 18.8808 12.0075 18.6203 13.3169C18.3599 14.6262 17.717 15.829 16.773 16.773C15.829 17.717 14.6263 18.3598 13.3169 18.6203C12.0075 18.8808 10.6503 18.7471 9.4169 18.2362C8.1835 17.7253 7.1293 16.8601 6.3876 15.7501C5.6459 14.6401 5.25002 13.335 5.25002 12C5.252 10.2104 5.9638 8.49466 7.22924 7.22922C8.49468 5.96378 10.2104 5.25199 12 5.25ZM11.25 12C11.25 12.1989 11.329 12.3897 11.4697 12.5303C11.6103 12.671 11.8011 12.75 12 12.75H16.5C16.6989 12.75 16.8897 12.671 17.0303 12.5303C17.171 12.3897 17.25 12.1989 17.25 12C17.25 11.8011 17.171 11.6103 17.0303 11.4697C16.8897 11.329 16.6989 11.25 16.5 11.25H12.75V7.5C12.75 7.30109 12.671 7.11032 12.5303 6.96967C12.3897 6.82902 12.1989 6.75 12 6.75C11.8011 6.75 11.6103 6.82902 11.4697 6.96967C11.329 7.11032 11.25 7.30109 11.25 7.5V12ZM15 4.5C15.2225 4.5 15.44 4.43402 15.625 4.3104C15.81 4.18679 15.9542 4.01109 16.0394 3.80552C16.1245 3.59995 16.1468 3.37375 16.1034 3.15552C16.06 2.93729 15.9528 2.73684 15.7955 2.5795C15.6382 2.42217 15.4377 2.31502 15.2195 2.27162C15.0013 2.22821 14.7751 2.25049 14.5695 2.33564C14.3639 2.42078 14.1882 2.56498 14.0646 2.74998C13.941 2.93499 13.875 3.1525 13.875 3.375C13.875 3.67337 13.9935 3.95952 14.2045 4.1705C14.4155 4.38147 14.7016 4.5 15 4.5Z" fill="black"/>
</svg>
