<svg width="24" height="24" viewBox="0 0 24 24" fill="none" xmlns="http://www.w3.org/2000/svg">
<path d="M20.6647 17.1271L13.6688 4.97764C13.4939 4.67999 13.2444 4.43318 12.9448 4.2617C12.6452 4.09021 12.306 4 11.9608 4C11.6156 4 11.2764 4.09021 10.9768 4.2617C10.6772 4.43318 10.4276 4.67999 10.2528 4.97764L3.25686 17.1271C3.08865 17.415 3 17.7425 3 18.0759C3 18.4094 3.08865 18.7368 3.25686 19.0247C3.42944 19.3242 3.67859 19.5723 3.97874 19.7437C4.27889 19.9151 4.61923 20.0035 4.96484 19.9999H18.9567C19.302 20.0032 19.6421 19.9146 19.9419 19.7433C20.2417 19.5719 20.4906 19.3239 20.6631 19.0247C20.8315 18.7369 20.9205 18.4096 20.9207 18.0761C20.921 17.7427 20.8327 17.4152 20.6647 17.1271ZM11.3208 10.4C11.3208 10.2303 11.3882 10.0675 11.5082 9.94745C11.6282 9.82742 11.791 9.76 11.9608 9.76C12.1305 9.76 12.2933 9.82742 12.4133 9.94745C12.5333 10.0675 12.6008 10.2303 12.6008 10.4V13.6C12.6008 13.7697 12.5333 13.9325 12.4133 14.0525C12.2933 14.1725 12.1305 14.24 11.9608 14.24C11.791 14.24 11.6282 14.1725 11.5082 14.0525C11.3882 13.9325 11.3208 13.7697 11.3208 13.6V10.4ZM11.9608 17.4399C11.7709 17.4399 11.5853 17.3836 11.4274 17.2781C11.2696 17.1726 11.1465 17.0227 11.0739 16.8473C11.0012 16.6719 10.9822 16.4789 11.0192 16.2926C11.0563 16.1064 11.1477 15.9354 11.282 15.8011C11.4162 15.6669 11.5873 15.5754 11.7735 15.5384C11.9597 15.5013 12.1527 15.5204 12.3281 15.593C12.5036 15.6657 12.6535 15.7887 12.759 15.9466C12.8645 16.1045 12.9208 16.2901 12.9208 16.4799C12.9208 16.7345 12.8196 16.9787 12.6396 17.1587C12.4596 17.3388 12.2154 17.4399 11.9608 17.4399Z" fill="black"/>
</svg>
