<svg width="24" height="24" viewBox="0 0 24 24" fill="none" xmlns="http://www.w3.org/2000/svg">
<path d="M11.25 7.125V17.625C11.25 17.7245 11.2105 17.8198 11.1402 17.8902C11.0698 17.9605 10.9745 18 10.875 18H9V19.5H10.4747C10.6682 19.4976 10.8554 19.5685 10.9989 19.6983C11.1423 19.8282 11.2313 20.0075 11.2481 20.2003C11.2549 20.3029 11.2406 20.4058 11.206 20.5026C11.1713 20.5994 11.1172 20.6881 11.0468 20.7631C10.9765 20.8381 10.8915 20.8978 10.7971 20.9385C10.7027 20.9793 10.6009 21.0002 10.4981 21H6.02531C5.8315 21.0029 5.64379 20.9322 5.49995 20.8023C5.35611 20.6724 5.2668 20.4928 5.25 20.2997C5.24319 20.1971 5.25754 20.0942 5.29217 19.9974C5.3268 19.9006 5.38096 19.8119 5.4513 19.7369C5.52163 19.6619 5.60664 19.6022 5.70103 19.5615C5.79542 19.5207 5.89718 19.4998 6 19.5H7.5V18H3C2.40326 18 1.83097 17.7629 1.40901 17.341C0.987053 16.919 0.75 16.3467 0.75 15.75V9C0.75 8.40326 0.987053 7.83097 1.40901 7.40901C1.83097 6.98705 2.40326 6.75 3 6.75H10.875C10.9745 6.75 11.0698 6.78951 11.1402 6.85983C11.2105 6.93016 11.25 7.02554 11.25 7.125ZM23.25 4.5V19.5C23.25 19.8978 23.092 20.2794 22.8107 20.5607C22.5294 20.842 22.1478 21 21.75 21H14.25C13.8522 21 13.4706 20.842 13.1893 20.5607C12.908 20.2794 12.75 19.8978 12.75 19.5V4.5C12.75 4.10218 12.908 3.72064 13.1893 3.43934C13.4706 3.15804 13.8522 3 14.25 3H21.75C22.1478 3 22.5294 3.15804 22.8107 3.43934C23.092 3.72064 23.25 4.10218 23.25 4.5ZM19.1156 17.0222C19.1463 16.7892 19.1033 16.5524 18.9926 16.3451C18.8818 16.1378 18.709 15.9703 18.4982 15.8663C18.2874 15.7623 18.0494 15.7269 17.8175 15.7651C17.5856 15.8033 17.3714 15.9131 17.2052 16.0793C17.0389 16.2454 16.9288 16.4594 16.8904 16.6913C16.852 16.9231 16.8872 17.1612 16.991 17.3721C17.0948 17.5829 17.2621 17.756 17.4693 17.8669C17.6765 17.9779 17.9132 18.0211 18.1462 17.9906C18.3919 17.9585 18.6201 17.8461 18.7954 17.671C18.9707 17.4959 19.0832 17.2678 19.1156 17.0222ZM21 9.70031C20.9832 9.50721 20.8939 9.32763 20.75 9.1977C20.6062 9.06777 20.4185 8.99714 20.2247 9H15.7753C15.5818 8.99761 15.3946 9.06847 15.2511 9.19835C15.1077 9.32823 15.0187 9.50753 15.0019 9.70031C14.9951 9.8029 15.0094 9.9058 15.044 10.0026C15.0787 10.0994 15.1328 10.1881 15.2032 10.2631C15.2735 10.3381 15.3585 10.3978 15.4529 10.4385C15.5473 10.4793 15.6491 10.5002 15.7519 10.5H20.2519C20.3545 10.5 20.4561 10.4789 20.5503 10.438C20.6444 10.3971 20.7292 10.3373 20.7993 10.2624C20.8695 10.1874 20.9235 10.0988 20.958 10.0022C20.9925 9.90548 21.0068 9.80274 21 9.70031ZM21 6.70031C20.9832 6.50721 20.8939 6.32763 20.75 6.1977C20.6062 6.06778 20.4185 5.99714 20.2247 6H15.7753C15.5815 5.99714 15.3938 6.06778 15.25 6.1977C15.1061 6.32763 15.0168 6.50721 15 6.70031C14.9932 6.8029 15.0075 6.9058 15.0422 7.00261C15.0768 7.09941 15.131 7.18807 15.2013 7.26306C15.2716 7.33806 15.3566 7.39779 15.451 7.43855C15.5454 7.47931 15.6472 7.50023 15.75 7.5H20.25C20.3528 7.50023 20.4546 7.47931 20.549 7.43855C20.6434 7.39779 20.7284 7.33806 20.7987 7.26306C20.869 7.18807 20.9232 7.09941 20.9578 7.00261C20.9925 6.9058 21.0068 6.8029 21 6.70031Z" fill="black"/>
</svg>
