<svg width="24" height="24" viewBox="0 0 24 24" fill="none" xmlns="http://www.w3.org/2000/svg">
<path d="M17.3112 7.01033C17.3068 7.00187 17.2996 6.99525 17.2908 6.99164C16.2728 6.5246 15.1986 6.19157 14.0951 6.00088C14.085 5.99901 14.0747 6.00036 14.0654 6.00472C14.0562 6.00908 14.0486 6.01624 14.0437 6.02518C13.8974 6.29066 13.7647 6.56335 13.6459 6.84222C12.4563 6.66164 11.2462 6.66164 10.0566 6.84222C9.93701 6.56265 9.8021 6.28988 9.65247 6.02518C9.64734 6.01643 9.63969 6.00944 9.63053 6.00511C9.62137 6.00077 9.61111 5.9993 9.6011 6.00088C8.49739 6.19117 7.42312 6.52423 6.40534 6.99166C6.39662 6.99536 6.38927 7.00166 6.3843 7.00971C4.34892 10.0493 3.79136 13.0141 4.06488 15.9422C4.06565 15.9494 4.06785 15.9563 4.07136 15.9626C4.07487 15.969 4.07961 15.9745 4.08531 15.9789C5.27048 16.8565 6.59612 17.5263 8.00565 17.9598C8.01557 17.9628 8.02617 17.9627 8.03602 17.9595C8.04587 17.9562 8.05449 17.9501 8.06073 17.9418C8.36347 17.5299 8.63171 17.0937 8.86274 16.6377C8.86592 16.6314 8.86773 16.6245 8.86806 16.6175C8.86839 16.6105 8.86723 16.6035 8.86466 16.597C8.86209 16.5905 8.85817 16.5846 8.85314 16.5797C8.84812 16.5748 8.84212 16.571 8.83553 16.5686C8.41253 16.4067 8.00301 16.2116 7.61082 15.9851C7.6037 15.9809 7.59771 15.975 7.5934 15.968C7.58909 15.9609 7.58657 15.9529 7.58609 15.9447C7.5856 15.9364 7.58715 15.9282 7.5906 15.9207C7.59405 15.9131 7.5993 15.9066 7.60588 15.9016C7.68817 15.84 7.77052 15.7758 7.8491 15.711C7.85608 15.7053 7.86453 15.7016 7.87349 15.7004C7.88245 15.6992 7.89158 15.7005 7.89983 15.7042C10.4692 16.8768 13.2509 16.8768 15.7899 15.7042C15.7982 15.7003 15.8074 15.6988 15.8165 15.6999C15.8256 15.701 15.8342 15.7046 15.8413 15.7104C15.9199 15.7752 16.0022 15.84 16.0851 15.9016C16.0917 15.9066 16.097 15.9131 16.1005 15.9205C16.104 15.928 16.1056 15.9362 16.1052 15.9445C16.1048 15.9527 16.1023 15.9608 16.0981 15.9678C16.0938 15.9749 16.0879 15.9808 16.0808 15.9851C15.6895 16.2135 15.2796 16.4085 14.8555 16.568C14.8489 16.5705 14.8429 16.5743 14.8379 16.5793C14.8329 16.5843 14.8291 16.5903 14.8265 16.5968C14.824 16.6034 14.8229 16.6105 14.8233 16.6175C14.8237 16.6245 14.8256 16.6314 14.8288 16.6377C15.0637 17.0911 15.3315 17.5268 15.6302 17.9411C15.6362 17.9496 15.6448 17.9559 15.6547 17.9593C15.6646 17.9626 15.6753 17.9628 15.6853 17.9598C17.0973 17.5277 18.4253 16.8578 19.6119 15.9789C19.6177 15.9747 19.6225 15.9693 19.626 15.9631C19.6296 15.9569 19.6317 15.95 19.6324 15.9428C19.9598 12.5576 19.0841 9.6171 17.3112 7.01033ZM9.24646 14.1593C8.47288 14.1593 7.83548 13.4494 7.83548 12.5776C7.83548 11.7057 8.46052 10.9958 9.24646 10.9958C10.0385 10.9958 10.6698 11.7119 10.6574 12.5775C10.6574 13.4494 10.0323 14.1593 9.24646 14.1593ZM14.4633 14.1593C13.6897 14.1593 13.0523 13.4494 13.0523 12.5776C13.0523 11.7057 13.6773 10.9958 14.4633 10.9958C15.2554 10.9958 15.8866 11.7119 15.8742 12.5775C15.8742 13.4494 15.2554 14.1593 14.4633 14.1593Z" fill="black"/>
</svg>
