<svg width="24" height="24" viewBox="0 0 24 24" fill="none" xmlns="http://www.w3.org/2000/svg">
<path d="M18.1979 2.45896L5.79807 2.45587C5.40033 2.45601 5.01892 2.61411 4.73773 2.89541C4.45653 3.17671 4.29857 3.55817 4.29858 3.95592L4.30313 20.0433C4.30324 20.2404 4.34218 20.4355 4.41773 20.6175C4.49328 20.7995 4.60396 20.9648 4.74344 21.1041C4.88291 21.2433 5.04846 21.3537 5.23061 21.4289C5.41277 21.5041 5.60795 21.5427 5.80503 21.5424L18.2049 21.5455C18.402 21.5455 18.5973 21.5067 18.7794 21.4312C18.9615 21.3557 19.127 21.245 19.2663 21.1055C19.4056 20.966 19.5161 20.8004 19.5914 20.6181C19.6666 20.4359 19.7052 20.2406 19.705 20.0435L19.7004 3.95611C19.6997 3.55835 19.541 3.17717 19.2592 2.89641C18.9774 2.61565 18.5957 2.45829 18.1979 2.45896ZM12.7504 12.2071C12.7504 12.3832 12.6883 12.5538 12.5752 12.6888C12.462 12.8238 12.3049 12.9147 12.1314 12.9455C12.0881 12.9531 12.0442 12.957 12.0002 12.9572L8.04936 12.956C7.85937 12.9433 7.68131 12.8589 7.55131 12.7197C7.42131 12.5806 7.34909 12.3973 7.3493 12.2068C7.34951 12.0164 7.42214 11.8332 7.55246 11.6944C7.68277 11.5556 7.86101 11.4715 8.05103 11.4592L11.9994 11.457C12.098 11.4569 12.1956 11.4762 12.2867 11.5138C12.3778 11.5515 12.4606 11.6067 12.5304 11.6763C12.6001 11.746 12.6555 11.8287 12.6932 11.9198C12.731 12.0109 12.7504 12.1085 12.7504 12.2071ZM16.6961 9.20949C16.6961 9.38551 16.6341 9.55592 16.5211 9.69088C16.4081 9.82584 16.2513 9.91676 16.078 9.94772C16.0343 9.95551 15.9901 9.95918 15.9457 9.95867L8.04418 9.9573C7.84521 9.95717 7.65443 9.87799 7.51383 9.7372C7.37323 9.59641 7.29432 9.40553 7.29446 9.20655C7.29459 9.00758 7.37376 8.81681 7.51456 8.67621C7.65535 8.53561 7.84623 8.45669 8.0452 8.45683L15.9469 8.45912C16.0455 8.45887 16.1433 8.47807 16.2345 8.51564C16.3257 8.55321 16.4086 8.6084 16.4784 8.67806C16.5483 8.74772 16.6037 8.83047 16.6415 8.92158C16.6794 9.01268 16.6988 9.11036 16.6988 9.209L16.6961 9.20949ZM16.6954 6.20903C16.6953 6.38521 16.6333 6.55576 16.5201 6.69078C16.4069 6.82579 16.2498 6.91665 16.0764 6.94743C16.033 6.95501 15.9891 6.95892 15.9452 6.95914L8.04346 6.95684C7.9432 6.95969 7.84339 6.9424 7.74994 6.906C7.65648 6.8696 7.57128 6.81482 7.49936 6.74491C7.42745 6.675 7.37029 6.59137 7.33126 6.49898C7.29224 6.40659 7.27214 6.30731 7.27215 6.20702C7.27217 6.10672 7.29231 6.00745 7.33136 5.91507C7.37042 5.82269 7.42761 5.73909 7.49955 5.6692C7.57149 5.59931 7.65671 5.54457 7.75018 5.5082C7.84365 5.47183 7.94347 5.45457 8.04372 5.45746L15.9453 5.45883C16.044 5.45845 16.1418 5.47756 16.2331 5.51507C16.3244 5.55257 16.4074 5.60773 16.4773 5.67738C16.5473 5.74703 16.6028 5.82981 16.6407 5.92095C16.6786 6.0121 16.6981 6.10984 16.6981 6.20855L16.6954 6.20903Z" fill="black"/>
</svg>
