<svg width="24" height="24" viewBox="0 0 24 24" fill="none" xmlns="http://www.w3.org/2000/svg">
<path d="M21.75 20.25H19.5V3.75C19.5 3.35218 19.342 2.97064 19.0607 2.68934C18.7794 2.40804 18.3978 2.25 18 2.25H6C5.60218 2.25 5.22064 2.40804 4.93934 2.68934C4.65804 2.97064 4.5 3.35218 4.5 3.75V20.25H2.25C2.05109 20.25 1.86032 20.329 1.71967 20.4697C1.57902 20.6103 1.5 20.8011 1.5 21C1.5 21.1989 1.57902 21.3897 1.71967 21.5303C1.86032 21.671 2.05109 21.75 2.25 21.75H21.75C21.9489 21.75 22.1397 21.671 22.2803 21.5303C22.421 21.3897 22.5 21.1989 22.5 21C22.5 20.8011 22.421 20.6103 22.2803 20.4697C22.1397 20.329 21.9489 20.25 21.75 20.25ZM15.75 20.25H6V3.75H15.75V20.25ZM12 12.375C12 12.1525 12.066 11.935 12.1896 11.75C12.3132 11.565 12.4889 11.4208 12.6945 11.3356C12.9 11.2505 13.1262 11.2282 13.3445 11.2716C13.5627 11.315 13.7632 11.4222 13.9205 11.5795C14.0778 11.7368 14.185 11.9373 14.2284 12.1555C14.2718 12.3738 14.2495 12.6 14.1644 12.8055C14.0792 13.0111 13.935 13.1868 13.75 13.3104C13.565 13.434 13.3475 13.5 13.125 13.5C12.8266 13.5 12.5405 13.3815 12.3295 13.1705C12.1185 12.9595 12 12.6734 12 12.375Z" fill="black"/>
</svg>
