<svg width="24" height="24" viewBox="0 0 24 24" fill="none" xmlns="http://www.w3.org/2000/svg">
<path d="M10.125 5.625C10.125 5.92167 10.037 6.21168 9.87221 6.45836C9.70738 6.70503 9.47312 6.89729 9.19903 7.01082C8.92494 7.12435 8.62334 7.15406 8.33237 7.09618C8.04139 7.0383 7.77412 6.89544 7.56434 6.68566C7.35456 6.47588 7.2117 6.20861 7.15382 5.91764C7.09594 5.62666 7.12565 5.32506 7.23918 5.05098C7.35271 4.77689 7.54497 4.54262 7.79165 4.3778C8.03832 4.21297 8.32833 4.125 8.625 4.125C9.02283 4.125 9.40436 4.28304 9.68566 4.56434C9.96697 4.84565 10.125 5.22718 10.125 5.625ZM15.375 7.125C15.6717 7.125 15.9617 7.03703 16.2084 6.87221C16.455 6.70738 16.6473 6.47311 16.7608 6.19903C16.8744 5.92494 16.9041 5.62334 16.8462 5.33237C16.7883 5.04139 16.6454 4.77412 16.4357 4.56434C16.2259 4.35456 15.9586 4.2117 15.6676 4.15382C15.3767 4.09594 15.0751 4.12565 14.801 4.23918C14.5269 4.35271 14.2926 4.54497 14.1278 4.79165C13.963 5.03832 13.875 5.32833 13.875 5.625C13.875 6.02283 14.033 6.40436 14.3143 6.68566C14.5956 6.96697 14.9772 7.125 15.375 7.125ZM8.625 10.5C8.32833 10.5 8.03832 10.588 7.79165 10.7528C7.54497 10.9176 7.35271 11.1519 7.23918 11.426C7.12565 11.7001 7.09594 12.0017 7.15382 12.2926C7.2117 12.5836 7.35456 12.8509 7.56434 13.0607C7.77412 13.2704 8.04139 13.4133 8.33237 13.4712C8.62334 13.5291 8.92494 13.4994 9.19903 13.3858C9.47312 13.2723 9.70738 13.08 9.87221 12.8334C10.037 12.5867 10.125 12.2967 10.125 12C10.125 11.6022 9.96697 11.2206 9.68566 10.9393C9.40436 10.658 9.02283 10.5 8.625 10.5ZM15.375 10.5C15.0783 10.5 14.7883 10.588 14.5416 10.7528C14.295 10.9176 14.1027 11.1519 13.9892 11.426C13.8757 11.7001 13.8459 12.0017 13.9038 12.2926C13.9617 12.5836 14.1046 12.8509 14.3143 13.0607C14.5241 13.2704 14.7914 13.4133 15.0824 13.4712C15.3733 13.5291 15.6749 13.4994 15.949 13.3858C16.2231 13.2723 16.4574 13.08 16.6222 12.8334C16.787 12.5867 16.875 12.2967 16.875 12C16.875 11.6022 16.717 11.2206 16.4357 10.9393C16.1544 10.658 15.7728 10.5 15.375 10.5ZM8.625 16.875C8.32833 16.875 8.03832 16.963 7.79165 17.1278C7.54497 17.2926 7.35271 17.5269 7.23918 17.801C7.12565 18.0751 7.09594 18.3767 7.15382 18.6676C7.2117 18.9586 7.35456 19.2259 7.56434 19.4357C7.77412 19.6454 8.04139 19.7883 8.33237 19.8462C8.62334 19.9041 8.92494 19.8744 9.19903 19.7608C9.47312 19.6473 9.70738 19.455 9.87221 19.2084C10.037 18.9617 10.125 18.6717 10.125 18.375C10.125 17.9772 9.96697 17.5956 9.68566 17.3143C9.40436 17.033 9.02283 16.875 8.625 16.875ZM15.375 16.875C15.0783 16.875 14.7883 16.963 14.5416 17.1278C14.295 17.2926 14.1027 17.5269 13.9892 17.801C13.8757 18.0751 13.8459 18.3767 13.9038 18.6676C13.9617 18.9586 14.1046 19.2259 14.3143 19.4357C14.5241 19.6454 14.7914 19.7883 15.0824 19.8462C15.3733 19.9041 15.6749 19.8744 15.949 19.7608C16.2231 19.6473 16.4574 19.455 16.6222 19.2084C16.787 18.9617 16.875 18.6717 16.875 18.375C16.875 17.9772 16.717 17.5956 16.4357 17.3143C16.1544 17.033 15.7728 16.875 15.375 16.875Z" fill="black"/>
</svg>
