<svg width="24" height="24" viewBox="0 0 24 24" fill="none" xmlns="http://www.w3.org/2000/svg">
<path d="M20 13.92V18.4C20 18.8243 19.8314 19.2313 19.5314 19.5314C19.2313 19.8314 18.8243 20 18.4 20H5.6C5.17565 20 4.76869 19.8314 4.46863 19.5314C4.16857 19.2313 4 18.8243 4 18.4V13.92C4 13.6654 4.10114 13.4212 4.28118 13.2412C4.46121 13.0611 4.70539 12.96 4.96 12.96C5.21461 12.96 5.45879 13.0611 5.63882 13.2412C5.81886 13.4212 5.92 13.6654 5.92 13.92V18.08H18.08V13.92C18.08 13.6654 18.1811 13.4212 18.3612 13.2412C18.5412 13.0611 18.7854 12.96 19.04 12.96C19.2946 12.96 19.5388 13.0611 19.7188 13.2412C19.8989 13.4212 20 13.6654 20 13.92ZM11.3208 14.5992C11.41 14.6887 11.516 14.7597 11.6327 14.8082C11.7493 14.8566 11.8744 14.8816 12.0008 14.8816C12.1271 14.8816 12.2523 14.8566 12.3689 14.8082C12.4856 14.7597 12.5916 14.6887 12.6808 14.5992L15.8808 11.3992C16.0611 11.2189 16.1625 10.9742 16.1625 10.7192C16.1625 10.4642 16.0611 10.2195 15.8808 10.0392C15.7005 9.85885 15.4558 9.75753 15.2008 9.75753C14.9458 9.75753 14.7011 9.85885 14.5208 10.0392L12.96 11.6V4.96C12.96 4.70539 12.8589 4.46121 12.6788 4.28118C12.4988 4.10114 12.2546 4 12 4C11.7454 4 11.5012 4.10114 11.3212 4.28118C11.1411 4.46121 11.04 4.70539 11.04 4.96V11.6L9.4792 10.0408C9.29885 9.86045 9.05425 9.75913 8.7992 9.75913C8.54415 9.75913 8.29955 9.86045 8.1192 10.0408C7.93885 10.2211 7.83753 10.4658 7.83753 10.7208C7.83753 10.9758 7.93885 11.2205 8.1192 11.4008L11.3208 14.5992Z" fill="black"/>
</svg>
