<svg width="24" height="24" viewBox="0 0 24 24" fill="none" xmlns="http://www.w3.org/2000/svg">
<path d="M16.3125 4.47657C15.1545 3.13916 13.8511 1.93487 12.4266 0.885941C12.3005 0.797601 12.1502 0.750214 11.9963 0.750214C11.8423 0.750214 11.692 0.797601 11.5659 0.885941C10.144 1.9353 8.84317 3.13958 7.6875 4.47657C5.11031 7.43625 3.75 10.5563 3.75 13.5C3.75 15.688 4.61919 17.7865 6.16637 19.3336C7.71354 20.8808 9.81196 21.75 12 21.75C14.188 21.75 16.2865 20.8808 17.8336 19.3336C19.3808 17.7865 20.25 15.688 20.25 13.5C20.25 10.5563 18.8897 7.43625 16.3125 4.47657ZM17.2359 14.3756C17.0415 15.4619 16.5188 16.4625 15.7384 17.2428C14.958 18.023 13.9573 18.5454 12.8709 18.7397C12.8309 18.7461 12.7905 18.7496 12.75 18.75C12.5619 18.75 12.3806 18.6792 12.2422 18.5518C12.1038 18.4244 12.0183 18.2496 12.0028 18.0621C11.9872 17.8746 12.0426 17.6881 12.1581 17.5396C12.2736 17.3911 12.4407 17.2914 12.6262 17.2603C14.1797 16.9988 15.4978 15.6806 15.7612 14.1244C15.7946 13.9282 15.9045 13.7533 16.0667 13.6381C16.229 13.523 16.4304 13.477 16.6266 13.5103C16.8227 13.5436 16.9976 13.6535 17.1128 13.8158C17.228 13.9781 17.2739 14.1795 17.2406 14.3756H17.2359Z" fill="black"/>
</svg>
