<svg width="24" height="24" viewBox="0 0 24 24" fill="none" xmlns="http://www.w3.org/2000/svg">
<path d="M19.4861 11.7904L10.1539 21.7892C10.055 21.8947 9.92445 21.9653 9.78196 21.9901C9.63948 22.0149 9.49278 21.9928 9.364 21.9269C9.23523 21.8611 9.13136 21.7551 9.06808 21.6251C9.00479 21.495 8.98553 21.3479 9.01319 21.2059L10.2347 15.0959L5.4328 13.2928C5.32967 13.2542 5.23771 13.1907 5.16512 13.1079C5.09253 13.0251 5.04158 12.9256 5.01683 12.8183C4.99207 12.711 4.99427 12.5993 5.02324 12.493C5.05221 12.3868 5.10704 12.2894 5.18283 12.2096L14.515 2.2108C14.6139 2.10526 14.7444 2.03475 14.8869 2.00991C15.0294 1.98506 15.1761 2.00724 15.3049 2.07309C15.4337 2.13893 15.5375 2.24488 15.6008 2.37493C15.6641 2.50499 15.6834 2.6521 15.6557 2.79406L14.4308 8.9108L19.2328 10.7114C19.3351 10.7502 19.4263 10.8137 19.4984 10.8962C19.5704 10.9786 19.621 11.0776 19.6457 11.1842C19.6704 11.2909 19.6685 11.402 19.64 11.5077C19.6116 11.6134 19.5576 11.7106 19.4827 11.7904H19.4861Z" fill="black"/>
</svg>
