<svg width="24" height="24" viewBox="0 0 24 24" fill="none" xmlns="http://www.w3.org/2000/svg">
<path d="M20 11.6965V20.0443C20 20.5055 19.8168 20.9479 19.4906 21.274C19.1645 21.6002 18.7221 21.7834 18.2609 21.7834H5.73913C5.27788 21.7834 4.83553 21.6002 4.50938 21.274C4.18323 20.9479 4 20.5055 4 20.0443V11.6965C4 11.2352 4.18323 10.7929 4.50938 10.4667C4.83553 10.1406 5.27788 9.95734 5.73913 9.95734H7.82609C8.10283 9.95734 8.36825 10.0673 8.56394 10.263C8.75963 10.4587 8.86957 10.7241 8.86957 11.0008C8.86957 11.2776 8.75963 11.543 8.56394 11.7387C8.36825 11.9344 8.10283 12.0443 7.82609 12.0443H6.08696V19.6965H17.913V12.0443H16.1739C15.8972 12.0443 15.6318 11.9344 15.4361 11.7387C15.2404 11.543 15.1304 11.2776 15.1304 11.0008C15.1304 10.7241 15.2404 10.4587 15.4361 10.263C15.6318 10.0673 15.8972 9.95734 16.1739 9.95734H18.2609C18.7221 9.95734 19.1645 10.1406 19.4906 10.4667C19.8168 10.7929 20 11.2352 20 11.6965ZM9.26 8.26082L10.9565 6.56604V13.7834C10.9565 14.0602 11.0665 14.3256 11.2621 14.5213C11.4578 14.717 11.7233 14.8269 12 14.8269C12.2767 14.8269 12.5422 14.717 12.7379 14.5213C12.9335 14.3256 13.0435 14.0602 13.0435 13.7834V6.56604L14.74 8.26343C14.8371 8.36049 14.9523 8.43749 15.0791 8.49002C15.2059 8.54255 15.3419 8.56959 15.4791 8.56959C15.6164 8.56959 15.7523 8.54255 15.8791 8.49002C16.006 8.43749 16.1212 8.36049 16.2183 8.26343C16.3153 8.16637 16.3923 8.05114 16.4449 7.92432C16.4974 7.7975 16.5244 7.66157 16.5244 7.5243C16.5244 7.38703 16.4974 7.25111 16.4449 7.12429C16.3923 6.99747 16.3153 6.88223 16.2183 6.78517L12.74 3.30691C12.6431 3.20963 12.5279 3.13244 12.401 3.07978C12.2742 3.02711 12.1382 3 12.0009 3C11.8635 3 11.7275 3.02711 11.6007 3.07978C11.4739 3.13244 11.3587 3.20963 11.2617 3.30691L7.78348 6.78517C7.68641 6.88223 7.60942 6.99747 7.55689 7.12429C7.50436 7.25111 7.47732 7.38703 7.47732 7.5243C7.47732 7.80153 7.58745 8.0674 7.78348 8.26343C7.97951 8.45946 8.24538 8.56959 8.52261 8.56959C8.79984 8.56959 9.06571 8.45946 9.26174 8.26343L9.26 8.26082Z" fill="black"/>
</svg>
