<svg width="24" height="24" viewBox="0 0 24 24" fill="none" xmlns="http://www.w3.org/2000/svg">
<path d="M4.1251 11.25H19.8751C19.9746 11.25 20.0699 11.2105 20.1403 11.1402C20.2106 11.0698 20.2501 10.9745 20.2501 10.875V8.25C20.2502 8.15148 20.2308 8.05391 20.1932 7.96286C20.1556 7.87182 20.1004 7.78908 20.0307 7.71938L14.7807 2.46938C14.711 2.39975 14.6283 2.34454 14.5372 2.3069C14.4462 2.26926 14.3486 2.24992 14.2501 2.25H5.2501C4.85228 2.25 4.47074 2.40804 4.18944 2.68934C3.90814 2.97064 3.7501 3.35218 3.7501 3.75V10.875C3.7501 10.9745 3.78961 11.0698 3.85994 11.1402C3.93026 11.2105 4.02564 11.25 4.1251 11.25ZM14.2501 4.125L18.3751 8.25H14.2501V4.125ZM11.2501 13.5H9.7501C9.55119 13.5 9.36042 13.579 9.21977 13.7197C9.07912 13.8603 9.0001 14.0511 9.0001 14.25V19.4747C8.99749 19.6682 9.06827 19.8556 9.19819 19.9991C9.32812 20.1426 9.50755 20.2316 9.70041 20.2481C9.803 20.2549 9.9059 20.2406 10.0027 20.206C10.0995 20.1713 10.1882 20.1172 10.2632 20.0468C10.3382 19.9765 10.3979 19.8915 10.4387 19.7971C10.4794 19.7027 10.5003 19.6009 10.5001 19.4981V18.7481H11.1939C12.6226 18.7481 13.831 17.6306 13.8742 16.2028C13.8846 15.8517 13.8244 15.502 13.6972 15.1746C13.57 14.8471 13.3784 14.5485 13.1337 14.2965C12.889 14.0444 12.5962 13.8441 12.2727 13.7073C11.9491 13.5705 11.6014 13.5 11.2501 13.5ZM11.2173 17.25H10.5001V15H11.2501C11.407 15 11.5621 15.0329 11.7055 15.0965C11.849 15.16 11.9775 15.2529 12.0829 15.3691C12.1883 15.4852 12.2683 15.6222 12.3176 15.7711C12.367 15.92 12.3846 16.0776 12.3695 16.2338C12.3372 16.5157 12.2016 16.7757 11.9888 16.9634C11.7759 17.1511 11.5011 17.2532 11.2173 17.25ZM20.2501 18.8316C20.25 19.0265 20.174 19.2138 20.0382 19.3538C19.7774 19.634 19.4621 19.858 19.1116 20.0121C18.7612 20.1663 18.3829 20.2472 18.0001 20.25C16.3464 20.25 15.0001 18.7359 15.0001 16.875C15.0001 15.0141 16.3464 13.5 18.0001 13.5C18.5366 13.5016 19.0609 13.66 19.5085 13.9556C19.6712 14.057 19.7902 14.2155 19.8422 14.3999C19.8942 14.5844 19.8755 14.7817 19.7898 14.9531C19.7405 15.0461 19.6722 15.1277 19.5893 15.1926C19.5064 15.2574 19.4107 15.3041 19.3086 15.3296C19.2065 15.355 19.1001 15.3587 18.9965 15.3404C18.8928 15.322 18.7942 15.2821 18.707 15.2231C18.4997 15.0783 18.253 15.0005 18.0001 15C17.1732 15 16.5001 15.8438 16.5001 16.875C16.5001 17.9062 17.1732 18.75 18.0001 18.75C18.2707 18.7469 18.5333 18.6579 18.7501 18.4959V18C18.6473 18.0002 18.5455 17.9793 18.4511 17.9385C18.3567 17.8978 18.2717 17.8381 18.2014 17.7631C18.1311 17.6881 18.0769 17.5994 18.0423 17.5026C18.0076 17.4058 17.9933 17.3029 18.0001 17.2003C18.0167 17.0075 18.1056 16.828 18.2491 16.6981C18.3926 16.5682 18.58 16.4974 18.7735 16.5H19.5001C19.699 16.5 19.8898 16.579 20.0304 16.7197C20.1711 16.8603 20.2501 17.0511 20.2501 17.25V18.8316ZM7.5001 14.25V17.7572C7.5001 19.0903 6.45198 20.2191 5.11791 20.2491C4.79617 20.2564 4.47616 20.1999 4.17634 20.083C3.87653 19.966 3.60285 19.7908 3.37109 19.5675C3.13934 19.3442 2.95409 19.0772 2.82606 18.7819C2.69802 18.4867 2.62972 18.169 2.6251 17.8472C2.61931 17.6541 2.68671 17.4659 2.8138 17.3204C2.94089 17.1749 3.11827 17.0828 3.31041 17.0625C3.41597 17.0533 3.52227 17.0666 3.62231 17.1015C3.72236 17.1363 3.81389 17.192 3.89086 17.2648C3.96783 17.3376 4.0285 17.4259 4.06888 17.5239C4.10925 17.6218 4.12841 17.7272 4.1251 17.8331C4.11576 17.9801 4.14554 18.127 4.21141 18.2587C4.27728 18.3905 4.37689 18.5024 4.5001 18.5831C5.23604 19.035 6.0001 18.5128 6.0001 17.8144V14.2753C5.99702 14.0814 6.06758 13.8936 6.19755 13.7497C6.32752 13.6058 6.50723 13.5166 6.70041 13.5C6.803 13.4932 6.9059 13.5075 7.00271 13.5422C7.09952 13.5768 7.18817 13.631 7.26316 13.7013C7.33816 13.7716 7.39789 13.8566 7.43865 13.951C7.47941 14.0454 7.50033 14.1472 7.5001 14.25Z" fill="black"/>
</svg>
