<svg width="24" height="24" viewBox="0 0 24 24" fill="none" xmlns="http://www.w3.org/2000/svg">
<path d="M4.1251 11.25H19.8751C19.9746 11.25 20.0699 11.2105 20.1403 11.1402C20.2106 11.0698 20.2501 10.9745 20.2501 10.875V8.25C20.2502 8.15148 20.2308 8.05391 20.1932 7.96286C20.1556 7.87182 20.1003 7.78908 20.0307 7.71938L14.7807 2.46938C14.711 2.39975 14.6283 2.34454 14.5372 2.3069C14.4462 2.26926 14.3486 2.24992 14.2501 2.25H5.2501C4.85227 2.25 4.47074 2.40804 4.18944 2.68934C3.90813 2.97064 3.7501 3.35218 3.7501 3.75V10.875C3.7501 10.9745 3.78961 11.0698 3.85993 11.1402C3.93026 11.2105 4.02564 11.25 4.1251 11.25ZM14.2501 4.125L18.3751 8.25H14.2501V4.125ZM21.0001 14.2997C20.9833 14.4925 20.8943 14.6718 20.7508 14.8017C20.6074 14.9315 20.4202 15.0024 20.2267 15H18.0001V16.5H19.4748C19.6683 16.4974 19.8557 16.5682 19.9992 16.6981C20.1427 16.828 20.2317 17.0075 20.2482 17.2003C20.255 17.3029 20.2407 17.4058 20.2061 17.5026C20.1714 17.5994 20.1173 17.6881 20.0469 17.7631C19.9766 17.8381 19.8916 17.8978 19.7972 17.9385C19.7028 17.9793 19.601 18.0002 19.4982 18H18.0001V19.4747C18.0027 19.6682 17.9319 19.8556 17.802 19.9991C17.6721 20.1426 17.4926 20.2316 17.2998 20.2481C17.1972 20.2549 17.0943 20.2406 16.9975 20.206C16.9007 20.1713 16.812 20.1172 16.737 20.0468C16.662 19.9765 16.6023 19.8915 16.5615 19.7971C16.5208 19.7027 16.4999 19.6009 16.5001 19.4981V14.25C16.5001 14.0511 16.5791 13.8603 16.7198 13.7197C16.8604 13.579 17.0512 13.5 17.2501 13.5H20.2501C20.3529 13.4998 20.4547 13.5207 20.5491 13.5615C20.6435 13.6022 20.7285 13.6619 20.7988 13.7369C20.8691 13.8119 20.9233 13.9006 20.9579 13.9974C20.9926 14.0942 21.0069 14.1971 21.0001 14.2997ZM6.0001 13.5H4.5001C4.30118 13.5 4.11042 13.579 3.96977 13.7197C3.82911 13.8603 3.7501 14.0511 3.7501 14.25V19.4747C3.74701 19.6686 3.81757 19.8564 3.94754 20.0003C4.07752 20.1442 4.25722 20.2334 4.45041 20.25C4.553 20.2568 4.65589 20.2425 4.7527 20.2078C4.84951 20.1732 4.93817 20.119 5.01316 20.0487C5.08816 19.9784 5.14789 19.8934 5.18865 19.799C5.22941 19.7046 5.25032 19.6028 5.2501 19.5V18.75H5.94385C7.3726 18.75 8.58197 17.6325 8.62416 16.2047C8.63483 15.8534 8.57485 15.5035 8.44777 15.1759C8.3207 14.8482 8.12912 14.5494 7.88439 14.2971C7.63967 14.0449 7.34678 13.8444 7.0231 13.7074C6.69943 13.5705 6.35155 13.5 6.0001 13.5ZM5.96728 17.25H5.2501V15H6.0001C6.15745 14.9993 6.3132 15.0315 6.4573 15.0948C6.6014 15.158 6.73063 15.2507 6.83666 15.367C6.94268 15.4832 7.02313 15.6205 7.07281 15.7698C7.1225 15.9191 7.14031 16.0771 7.1251 16.2338C7.09236 16.5165 6.95579 16.777 6.74186 16.9648C6.52794 17.1526 6.2519 17.2542 5.96728 17.25ZM12.0001 13.5H10.5001C10.3012 13.5 10.1104 13.579 9.96977 13.7197C9.82911 13.8603 9.7501 14.0511 9.7501 14.25V19.5C9.7501 19.6989 9.82911 19.8897 9.96977 20.0303C10.1104 20.171 10.3012 20.25 10.5001 20.25H11.9363C13.7795 20.25 15.331 18.7987 15.3742 16.9566C15.385 16.5066 15.3058 16.059 15.1411 15.6402C14.9765 15.2213 14.7297 14.8396 14.4153 14.5175C14.1009 14.1954 13.7253 13.9395 13.3105 13.7648C12.8957 13.59 12.4502 13.5 12.0001 13.5ZM11.9542 18.75H11.2501V15H12.0001C12.2525 14.9998 12.5024 15.0506 12.7347 15.1493C12.967 15.248 13.177 15.3926 13.3521 15.5744C13.5272 15.7563 13.6638 15.9716 13.7536 16.2075C13.8435 16.4434 13.8848 16.695 13.8751 16.9472C13.8357 17.9616 12.9695 18.75 11.9542 18.75Z" fill="black"/>
</svg>
