<svg width="24" height="24" viewBox="0 0 24 24" fill="none" xmlns="http://www.w3.org/2000/svg">
<path d="M18.3585 8.48769L14.0508 4.18C13.9936 4.12287 13.9257 4.07757 13.851 4.04669C13.7763 4.0158 13.6962 3.99994 13.6154 4H6.23077C5.90435 4 5.5913 4.12967 5.36048 4.36048C5.12967 4.5913 5 4.90435 5 5.23077V18.7692C5 19.0957 5.12967 19.4087 5.36048 19.6395C5.5913 19.8703 5.90435 20 6.23077 20H17.3077C17.6341 20 17.9472 19.8703 18.178 19.6395C18.4088 19.4087 18.5385 19.0957 18.5385 18.7692V8.92308C18.5385 8.84224 18.5227 8.76218 18.4918 8.68748C18.4609 8.61277 18.4156 8.54488 18.3585 8.48769ZM13.6154 8.92308V5.53846L17 8.92308H13.6154Z" fill="black"/>
</svg>
