<svg width="24" height="24" viewBox="0 0 24 24" fill="none" xmlns="http://www.w3.org/2000/svg">
<path d="M4.125 11.25H19.8816C19.981 11.25 20.0764 11.2105 20.1467 11.1402C20.2171 11.0698 20.2566 10.9745 20.2566 10.875V8.25C20.2566 8.15148 20.2373 8.05391 20.1997 7.96286C20.162 7.87181 20.1068 7.78907 20.0372 7.71937L14.7872 2.46937C14.7173 2.39952 14.6342 2.34418 14.5428 2.30653C14.4515 2.26889 14.3535 2.24967 14.2547 2.25H5.25C4.85218 2.25 4.47064 2.40803 4.18934 2.68934C3.90804 2.97064 3.75 3.35217 3.75 3.75V10.875C3.75 10.9745 3.78951 11.0698 3.85984 11.1402C3.93016 11.2105 4.02554 11.25 4.125 11.25ZM14.25 4.125L18.375 8.25H14.25V4.125ZM4.875 13.5H3.375C3.17609 13.5 2.98532 13.579 2.84467 13.7197C2.70402 13.8603 2.625 14.0511 2.625 14.25V19.5C2.625 19.6989 2.70402 19.8897 2.84467 20.0303C2.98532 20.171 3.17609 20.25 3.375 20.25H4.81219C6.65625 20.25 8.20781 18.7987 8.25 16.9566C8.26088 16.5065 8.18162 16.0589 8.01689 15.6399C7.85216 15.221 7.60528 14.8393 7.29079 14.5172C6.9763 14.1951 6.60056 13.9392 6.18568 13.7645C5.7708 13.5898 5.32516 13.4999 4.875 13.5ZM4.82906 18.75H4.125V15H4.875C5.12742 14.9998 5.37728 15.0506 5.60961 15.1493C5.84193 15.248 6.05193 15.3926 6.22701 15.5744C6.4021 15.7563 6.53867 15.9716 6.62854 16.2075C6.71841 16.4433 6.75972 16.6949 6.75 16.9472C6.71156 17.9616 5.84531 18.75 4.83 18.75H4.82906ZM20.8294 18.3487C20.9494 18.4995 21.0088 18.6896 20.9962 18.8818C20.9835 19.0741 20.8996 19.2547 20.7609 19.3884C20.5008 19.6585 20.1894 19.8739 19.8448 20.0218C19.5003 20.1698 19.1296 20.2474 18.7547 20.25C17.1 20.25 15.7547 18.7359 15.7547 16.875C15.7547 15.0141 17.1009 13.5 18.7547 13.5C19.1296 13.5026 19.5003 13.5802 19.8448 13.7281C20.1894 13.8761 20.5008 14.0915 20.7609 14.3616C20.8996 14.4953 20.9835 14.6759 20.9962 14.8682C21.0088 15.0604 20.9494 15.2505 20.8294 15.4012C20.7616 15.4818 20.6776 15.5472 20.5828 15.5931C20.4881 15.6391 20.3847 15.6645 20.2795 15.6679C20.1743 15.6713 20.0695 15.6524 19.972 15.6126C19.8746 15.5728 19.7866 15.5129 19.7138 15.4369C19.5921 15.3028 19.4444 15.1949 19.2797 15.1197C19.115 15.0446 18.9366 15.0039 18.7556 15C17.9288 15 17.2556 15.8437 17.2556 16.875C17.2556 17.9062 17.9288 18.75 18.7556 18.75C18.9368 18.746 19.1152 18.7052 19.2801 18.6301C19.4449 18.555 19.5928 18.4472 19.7147 18.3131C19.7875 18.2371 19.8755 18.1772 19.973 18.1374C20.0704 18.0976 20.1752 18.0787 20.2804 18.0821C20.3857 18.0854 20.489 18.1109 20.5838 18.1569C20.6785 18.2028 20.7625 18.2682 20.8303 18.3487H20.8294ZM12 13.5C10.3453 13.5 9 15.0141 9 16.875C9 18.7359 10.3472 20.25 12 20.25C13.6528 20.25 15 18.7359 15 16.875C15 15.0141 13.6584 13.5 12 13.5ZM12 18.75C11.1722 18.75 10.5 17.9062 10.5 16.875C10.5 15.8437 11.1731 15 12 15C12.8269 15 13.5 15.8437 13.5 16.875C13.5 17.9062 12.8306 18.75 12 18.75Z" fill="black"/>
</svg>
