<svg width="24" height="24" viewBox="0 0 24 24" fill="none" xmlns="http://www.w3.org/2000/svg">
<path d="M4.12511 11.25H19.8751C19.9746 11.25 20.07 11.2105 20.1403 11.1402C20.2106 11.0698 20.2501 10.9745 20.2501 10.875V8.25C20.2502 8.15148 20.2309 8.05391 20.1932 7.96286C20.1556 7.87182 20.1004 7.78908 20.0307 7.71938L14.7807 2.46938C14.711 2.39975 14.6283 2.34454 14.5373 2.3069C14.4462 2.26926 14.3486 2.24992 14.2501 2.25H5.25011C4.85229 2.25 4.47076 2.40804 4.18945 2.68934C3.90815 2.97064 3.75011 3.35218 3.75011 3.75V10.875C3.75011 10.9745 3.78962 11.0698 3.85995 11.1402C3.93027 11.2105 4.02566 11.25 4.12511 11.25ZM14.2501 4.125L18.3751 8.25H14.2501V4.125ZM5.62511 13.5H4.12511C3.9262 13.5 3.73543 13.579 3.59478 13.7197C3.45413 13.8603 3.37511 14.0511 3.37511 14.25V19.4738C3.37179 19.6678 3.44224 19.8558 3.57224 19.9999C3.70223 20.144 3.88207 20.2334 4.07543 20.25C4.17802 20.2568 4.28091 20.2425 4.37772 20.2078C4.47453 20.1732 4.56318 20.119 4.63818 20.0487C4.71317 19.9784 4.7729 19.8934 4.81366 19.799C4.85442 19.7046 4.87534 19.6028 4.87511 19.5V18.75H5.56886C6.99761 18.75 8.20699 17.6325 8.24918 16.2047C8.25984 15.8534 8.19986 15.5035 8.07279 15.1759C7.94571 14.8482 7.75413 14.5494 7.50941 14.2971C7.26468 14.0449 6.9718 13.8444 6.64812 13.7074C6.32444 13.5705 5.97656 13.5 5.62511 13.5ZM5.5923 17.25H4.87511V15H5.62511C5.78246 14.9993 5.93822 15.0315 6.08232 15.0948C6.22641 15.158 6.35565 15.2507 6.46167 15.367C6.56769 15.4832 6.64815 15.6205 6.69783 15.7698C6.74751 15.9191 6.76533 16.0771 6.75011 16.2338C6.71738 16.5165 6.58081 16.777 6.36688 16.9648C6.15295 17.1526 5.87691 17.2542 5.5923 17.25ZM21.0001 18.8316C21.0001 19.0265 20.9241 19.2138 20.7882 19.3538C20.5272 19.6337 20.2118 19.8575 19.8614 20.0116C19.511 20.1657 19.1329 20.2468 18.7501 20.25C17.0964 20.25 15.7501 18.7359 15.7501 16.875C15.7501 15.0141 17.0964 13.5 18.7501 13.5C19.2866 13.5016 19.8109 13.66 20.2586 13.9556C20.4212 14.057 20.5402 14.2155 20.5922 14.3999C20.6442 14.5844 20.6255 14.7817 20.5398 14.9531C20.4905 15.0461 20.4222 15.1277 20.3393 15.1926C20.2564 15.2574 20.1607 15.3041 20.0586 15.3296C19.9565 15.355 19.8501 15.3587 19.7465 15.3404C19.6428 15.322 19.5442 15.2821 19.457 15.2231C19.2497 15.0783 19.003 15.0005 18.7501 15C17.9232 15 17.2501 15.8438 17.2501 16.875C17.2501 17.9062 17.9232 18.75 18.7501 18.75C19.0209 18.747 19.2836 18.6577 19.5001 18.495V18C19.3973 18.0002 19.2955 17.9793 19.2011 17.9385C19.1068 17.8978 19.0217 17.8381 18.9514 17.7631C18.8811 17.6881 18.8269 17.5994 18.7923 17.5026C18.7577 17.4058 18.7433 17.3029 18.7501 17.2003C18.7667 17.0075 18.8557 16.828 18.9991 16.6981C19.1426 16.5682 19.33 16.4974 19.5236 16.5H20.2501C20.449 16.5 20.6398 16.579 20.7804 16.7197C20.9211 16.8603 21.0001 17.0511 21.0001 17.25V18.8316ZM14.6251 14.25V19.4775C14.627 19.6148 14.5922 19.7501 14.5243 19.8694C14.4564 19.9888 14.3579 20.0878 14.2389 20.1562C14.0778 20.2455 13.8895 20.2724 13.7098 20.2318C13.5302 20.1912 13.3718 20.0859 13.2648 19.9359L10.8751 16.5938V19.4775C10.878 19.6712 10.8073 19.8588 10.6773 20.0025C10.5474 20.1462 10.3678 20.2353 10.1748 20.2519C10.0722 20.2587 9.96932 20.2443 9.87251 20.2097C9.7757 20.1751 9.68704 20.1209 9.61205 20.0506C9.53705 19.9802 9.47732 19.8952 9.43656 19.8008C9.3958 19.7065 9.37489 19.6047 9.37511 19.5019V14.2791C9.37259 14.1335 9.41108 13.9902 9.48619 13.8656C9.56129 13.7409 9.66997 13.6399 9.7998 13.5741C9.95924 13.4969 10.1408 13.4787 10.3124 13.5226C10.484 13.5666 10.6345 13.6698 10.7373 13.8141L13.1251 17.1562V14.2753C13.1225 14.0818 13.1933 13.8944 13.3232 13.7509C13.4531 13.6074 13.6326 13.5184 13.8254 13.5019C13.9279 13.4951 14.0306 13.5094 14.1273 13.5439C14.224 13.5784 14.3125 13.6324 14.3875 13.7025C14.4625 13.7727 14.5222 13.8574 14.5631 13.9516C14.604 14.0458 14.6251 14.1473 14.6251 14.25Z" fill="black"/>
</svg>
