<svg width="24" height="24" viewBox="0 0 24 24" fill="none" xmlns="http://www.w3.org/2000/svg">
<path d="M2 7.42857C2 7.12547 2.12041 6.83478 2.33474 6.62045C2.54906 6.40612 2.83975 6.28571 3.14286 6.28571H5.80952C6.11263 6.28571 6.40332 6.40612 6.61765 6.62045C6.83197 6.83478 6.95238 7.12547 6.95238 7.42857C6.95238 7.73168 6.83197 8.02237 6.61765 8.23669C6.40332 8.45102 6.11263 8.57143 5.80952 8.57143H3.14286C2.83975 8.57143 2.54906 8.45102 2.33474 8.23669C2.12041 8.02237 2 7.73168 2 7.42857ZM19.9048 15.4286H16.8571V14.2857C16.8571 13.9826 16.7367 13.6919 16.5224 13.4776C16.3081 13.2633 16.0174 13.1429 15.7143 13.1429C15.4112 13.1429 15.1205 13.2633 14.9062 13.4776C14.6918 13.6919 14.5714 13.9826 14.5714 14.2857V18.8571C14.5714 19.1602 14.6918 19.4509 14.9062 19.6653C15.1205 19.8796 15.4112 20 15.7143 20C16.0174 20 16.3081 19.8796 16.5224 19.6653C16.7367 19.4509 16.8571 19.1602 16.8571 18.8571V17.7143H19.9048C20.2079 17.7143 20.4986 17.5939 20.7129 17.3795C20.9272 17.1652 21.0476 16.8745 21.0476 16.5714C21.0476 16.2683 20.9272 15.9776 20.7129 15.7633C20.4986 15.549 20.2079 15.4286 19.9048 15.4286ZM11.9048 15.4286H3.14286C2.83975 15.4286 2.54906 15.549 2.33474 15.7633C2.12041 15.9776 2 16.2683 2 16.5714C2 16.8745 2.12041 17.1652 2.33474 17.3795C2.54906 17.5939 2.83975 17.7143 3.14286 17.7143H11.9048C12.2079 17.7143 12.4986 17.5939 12.7129 17.3795C12.9272 17.1652 13.0476 16.8745 13.0476 16.5714C13.0476 16.2683 12.9272 15.9776 12.7129 15.7633C12.4986 15.549 12.2079 15.4286 11.9048 15.4286ZM9.61905 10.8571C9.92215 10.8571 10.2128 10.7367 10.4272 10.5224C10.6415 10.3081 10.7619 10.0174 10.7619 9.71429V8.57143H19.9048C20.2079 8.57143 20.4986 8.45102 20.7129 8.23669C20.9272 8.02237 21.0476 7.73168 21.0476 7.42857C21.0476 7.12547 20.9272 6.83478 20.7129 6.62045C20.4986 6.40612 20.2079 6.28571 19.9048 6.28571H10.7619V5.14286C10.7619 4.83975 10.6415 4.54906 10.4272 4.33473C10.2128 4.12041 9.92215 4 9.61905 4C9.31594 4 9.02525 4.12041 8.81093 4.33473C8.5966 4.54906 8.47619 4.83975 8.47619 5.14286V9.71429C8.47619 10.0174 8.5966 10.3081 8.81093 10.5224C9.02525 10.7367 9.31594 10.8571 9.61905 10.8571Z" fill="black"/>
</svg>
