<svg width="24" height="24" viewBox="0 0 24 24" fill="none" xmlns="http://www.w3.org/2000/svg">
<g clip-path="url(#clip0_1017_7854)">
<path d="M15.7556 7.11937C15.7556 7.34187 15.6897 7.55938 15.5661 7.74439C15.4424 7.92939 15.2667 8.07359 15.0612 8.15874C14.8556 8.24388 14.6294 8.26616 14.4112 8.22275C14.1929 8.17935 13.9925 8.0722 13.8352 7.91487C13.6778 7.75753 13.5707 7.55708 13.5273 7.33885C13.4839 7.12062 13.5061 6.89442 13.5913 6.68885C13.6764 6.48328 13.8206 6.30758 14.0056 6.18397C14.1906 6.06035 14.4081 5.99437 14.6306 5.99437C14.929 5.99437 15.2152 6.1129 15.4261 6.32388C15.6371 6.53485 15.7556 6.821 15.7556 7.11937ZM19.4935 14.7131C17.5472 17.1853 14.445 18.5325 10.2675 18.7228L8.20502 23.5434C8.14728 23.6793 8.05074 23.795 7.9275 23.8762C7.80427 23.9575 7.6598 24.0005 7.51221 24H7.4644C7.30985 23.9903 7.16209 23.933 7.0414 23.836C6.92071 23.739 6.83301 23.607 6.79034 23.4581L5.4019 18.5972L0.543775 17.2059C0.394498 17.164 0.261885 17.0768 0.164188 16.9564C0.0664908 16.836 0.00851253 16.6883 -0.00176737 16.5336C-0.0120473 16.3789 0.0258766 16.2248 0.106785 16.0925C0.187693 15.9602 0.307607 15.8563 0.450025 15.795L5.27159 13.7325C5.45909 9.55406 6.81002 6.45187 9.28315 4.50656C13.3341 1.31906 19.1185 2.36625 20.2369 2.60812C20.5187 2.669 20.7769 2.80979 20.9808 3.01363C21.1846 3.21747 21.3254 3.47573 21.3863 3.7575C21.6338 4.875 22.6819 10.665 19.4935 14.7187V14.7131ZM19.9247 4.07343C18.9206 3.85593 13.7372 2.91187 10.215 5.68406C9.77097 6.03452 9.36753 6.43357 9.01221 6.87375C8.97623 7.36381 9.04769 7.85583 9.22161 8.31541C9.39552 8.77499 9.6677 9.19105 10.0191 9.53452C10.3705 9.87799 10.7927 10.1406 11.2561 10.3039C11.7196 10.4673 12.2131 10.5275 12.7022 10.4803C12.8122 10.4699 12.9231 10.4839 13.027 10.5212C13.1309 10.5586 13.2253 10.6185 13.3034 10.6966C13.3815 10.7747 13.4414 10.8691 13.4788 10.973C13.5162 11.077 13.5301 11.1879 13.5197 11.2978C13.4725 11.7871 13.5327 12.2808 13.6962 12.7444C13.8597 13.208 14.1224 13.6302 14.4661 13.9817C14.8098 14.3331 15.2261 14.6053 15.6859 14.779C16.1457 14.9528 16.6379 15.0241 17.1281 14.9878C17.567 14.633 17.9648 14.2302 18.3141 13.7869C21.0863 10.2647 20.1422 5.07937 19.9247 4.07531V4.07343Z" fill="black"/>
</g>
<defs>
<clipPath id="clip0_1017_7854">
<rect width="24" height="24" fill="white"/>
</clipPath>
</defs>
</svg>
