<svg width="24" height="24" viewBox="0 0 24 24" fill="none" xmlns="http://www.w3.org/2000/svg">
<path d="M21 4.49999V15.75C20.9994 15.8568 20.976 15.9622 20.9314 16.0592C20.8868 16.1562 20.8219 16.2426 20.7413 16.3125C19.3088 17.5528 17.9391 18 16.6331 18C14.8603 18 13.2047 17.1806 11.6644 16.4203C9.17531 15.1875 7.01156 14.1197 4.5 16.1034V20.25C4.5 20.4489 4.42098 20.6397 4.28033 20.7803C4.13968 20.921 3.94891 21 3.75 21C3.55109 21 3.36032 20.921 3.21967 20.7803C3.07902 20.6397 3 20.4489 3 20.25V4.49999C3.00072 4.39314 3.02426 4.28768 3.06905 4.19067C3.11383 4.09366 3.17883 4.00734 3.25969 3.93749C6.63469 1.01436 9.66375 2.51155 12.3337 3.83249C14.9062 5.10561 17.1366 6.20624 19.7587 3.93749C19.8671 3.84354 20.0002 3.78264 20.1421 3.762C20.2841 3.74137 20.4289 3.76187 20.5596 3.82107C20.6902 3.88028 20.8012 3.9757 20.8792 4.09603C20.9573 4.21637 20.9992 4.35656 21 4.49999Z" fill="black"/>
</svg>
