<svg width="24" height="24" viewBox="0 0 24 24" fill="none" xmlns="http://www.w3.org/2000/svg">
<path d="M19.6154 7.07692H12.2302L9.82962 5.27692C9.59042 5.09752 9.29957 5.00037 9.00058 5H4.38462C4.01739 5 3.66521 5.14588 3.40554 5.40554C3.14588 5.66521 3 6.01739 3 6.38462V18.1538C3 18.5211 3.14588 18.8733 3.40554 19.1329C3.66521 19.3926 4.01739 19.5385 4.38462 19.5385H19.6154C19.9826 19.5385 20.3348 19.3926 20.5945 19.1329C20.8541 18.8733 21 18.5211 21 18.1538V8.46154C21 8.09432 20.8541 7.74213 20.5945 7.48247C20.3348 7.2228 19.9826 7.07692 19.6154 7.07692ZM4.38462 6.38462H9.00058L10.8464 7.76923L8.99971 9.15385H4.38462V6.38462Z" fill="black"/>
</svg>
