<svg width="24" height="24" viewBox="0 0 24 24" fill="none" xmlns="http://www.w3.org/2000/svg">
<path d="M4.93963 9.31034C4.80031 9.17105 4.68979 9.00568 4.61438 8.82367C4.53898 8.64165 4.50017 8.44657 4.50017 8.24956C4.50017 8.05255 4.53898 7.85747 4.61438 7.67546C4.68979 7.49345 4.80031 7.32807 4.93963 7.18878L10.9396 1.18878C11.221 0.907443 11.6025 0.74939 12.0004 0.74939C12.3983 0.74939 12.7799 0.907443 13.0612 1.18878C13.3425 1.47012 13.5006 1.85169 13.5006 2.24956C13.5006 2.64743 13.3425 3.02901 13.0612 3.31034L7.06119 9.31034C6.9219 9.44967 6.75653 9.56019 6.57452 9.63559C6.39251 9.71099 6.19742 9.7498 6.00041 9.7498C5.8034 9.7498 5.60832 9.71099 5.42631 9.63559C5.2443 9.56019 5.07892 9.44967 4.93963 9.31034ZM22.8112 10.9388C22.6719 10.7995 22.5065 10.6889 22.3245 10.6135C22.1425 10.5381 21.9474 10.4993 21.7504 10.4993C21.5534 10.4993 21.3583 10.5381 21.1763 10.6135C20.9943 10.6889 20.8289 10.7995 20.6896 10.9388L14.6896 16.9388C14.4085 17.2201 14.2506 17.6014 14.2506 17.9991C14.2506 18.3967 14.4085 18.7781 14.6896 19.0594C14.8289 19.1987 14.9943 19.3092 15.1763 19.3847C15.3583 19.4601 15.5534 19.4989 15.7504 19.4989C15.9474 19.4989 16.1425 19.4601 16.3245 19.3847C16.5065 19.3092 16.6719 19.1987 16.8112 19.0594L22.8112 13.0594C23.0923 12.7781 23.2502 12.3967 23.2502 11.9991C23.2502 11.6014 23.0923 11.2201 22.8112 10.9388ZM19.2806 9.2194L14.7806 4.7194C14.6399 4.57886 14.4492 4.49991 14.2504 4.49991C14.0516 4.49991 13.8609 4.57886 13.7203 4.7194L8.47026 9.9694C8.32971 10.11 8.25076 10.3007 8.25076 10.4996C8.25076 10.6984 8.32971 10.8891 8.47026 11.0297L9.6562 12.2194L2.68963 19.1897C2.4202 19.4733 2.27221 19.8509 2.27722 20.2421C2.28223 20.6332 2.43984 21.0069 2.71644 21.2835C2.99304 21.5601 3.36675 21.7177 3.7579 21.7228C4.14904 21.7278 4.52666 21.5798 4.81026 21.3103L11.7806 14.3438L12.9703 15.5335C13.1109 15.674 13.3016 15.753 13.5004 15.753C13.6992 15.753 13.8899 15.674 14.0306 15.5335L19.2806 10.2835C19.3507 10.2138 19.4064 10.1309 19.4444 10.0396C19.4824 9.94825 19.5019 9.85033 19.5019 9.75144C19.5019 9.65254 19.4824 9.55462 19.4444 9.46331C19.4064 9.372 19.3507 9.28911 19.2806 9.2194Z" fill="black"/>
</svg>
