<svg width="24" height="24" viewBox="0 0 24 24" fill="none" xmlns="http://www.w3.org/2000/svg">
<path d="M16.5 19.4287C17.0174 19.2249 17.5188 18.9827 18 18.7041V22.5C18 22.6989 17.921 22.8897 17.7803 23.0303C17.6397 23.171 17.4489 23.25 17.25 23.25C17.0511 23.25 16.8603 23.171 16.7197 23.0303C16.579 22.8897 16.5 22.6989 16.5 22.5V19.4287ZM17.6025 11.1384L12.3525 8.33812C12.1773 8.24866 11.9741 8.23158 11.7864 8.29056C11.5988 8.34955 11.4418 8.47989 11.3494 8.65349C11.2569 8.82709 11.2364 9.03006 11.2921 9.21868C11.3479 9.40729 11.4755 9.56645 11.6475 9.66187L16.0313 12L17.625 11.1506L17.6025 11.1384ZM23.6025 8.33812L12.3525 2.33812C12.244 2.28034 12.1229 2.25012 12 2.25012C11.8771 2.25012 11.756 2.28034 11.6475 2.33812L0.39751 8.33812C0.277514 8.40207 0.17716 8.49744 0.107185 8.61403C0.0372091 8.73061 0.000244141 8.86402 0.000244141 9C0.000244141 9.13597 0.0372091 9.26938 0.107185 9.38597C0.17716 9.50255 0.277514 9.59792 0.39751 9.66187L3.00001 11.0503V15.5897C2.99923 15.9581 3.13481 16.3137 3.38064 16.5881C4.60876 17.9559 7.36032 20.25 12 20.25C13.5384 20.2627 15.0653 19.9841 16.5 19.4287V12.2503L16.0313 12L12 14.1497L4.10907 9.9375L2.34376 9L12 3.85031L21.6563 9L19.8956 9.9375H19.89L17.625 11.1506C17.739 11.2165 17.8337 11.3112 17.8996 11.4252C17.9654 11.5393 18 11.6686 18 11.8003V18.7041C18.978 18.1395 19.8618 17.4256 20.6194 16.5881C20.8652 16.3137 21.0008 15.9581 21 15.5897V11.0503L23.6025 9.66187C23.7225 9.59792 23.8229 9.50255 23.8928 9.38597C23.9628 9.26938 23.9998 9.13597 23.9998 9C23.9998 8.86402 23.9628 8.73061 23.8928 8.61403C23.8229 8.49744 23.7225 8.40207 23.6025 8.33812Z" fill="black"/>
</svg>
