<svg width="24" height="24" viewBox="0 0 24 24" fill="none" xmlns="http://www.w3.org/2000/svg">
<path d="M20.25 5.25V10.875C20.25 10.9745 20.2105 11.0698 20.1402 11.1402C20.0698 11.2105 19.9745 11.25 19.875 11.25H12.75V4.125C12.75 4.02554 12.7895 3.93016 12.8598 3.85984C12.9302 3.78951 13.0255 3.75 13.125 3.75H18.75C19.1478 3.75 19.5294 3.90804 19.8107 4.18934C20.092 4.47064 20.25 4.85218 20.25 5.25ZM10.875 3.75H5.25C4.85218 3.75 4.47064 3.90804 4.18934 4.18934C3.90804 4.47064 3.75 4.85218 3.75 5.25V10.875C3.75 10.9745 3.78951 11.0698 3.85984 11.1402C3.93016 11.2105 4.02554 11.25 4.125 11.25H11.25V4.125C11.25 4.02554 11.2105 3.93016 11.1402 3.85984C11.0698 3.78951 10.9745 3.75 10.875 3.75ZM19.875 12.75H12.75V19.875C12.75 19.9745 12.7895 20.0698 12.8598 20.1402C12.9302 20.2105 13.0255 20.25 13.125 20.25H18.75C19.1478 20.25 19.5294 20.092 19.8107 19.8107C20.092 19.5294 20.25 19.1478 20.25 18.75V13.125C20.25 13.0255 20.2105 12.9302 20.1402 12.8598C20.0698 12.7895 19.9745 12.75 19.875 12.75ZM3.75 13.125V18.75C3.75 19.1478 3.90804 19.5294 4.18934 19.8107C4.47064 20.092 4.85218 20.25 5.25 20.25H10.875C10.9745 20.25 11.0698 20.2105 11.1402 20.1402C11.2105 20.0698 11.25 19.9745 11.25 19.875V12.75H4.125C4.02554 12.75 3.93016 12.7895 3.85984 12.8598C3.78951 12.9302 3.75 13.0255 3.75 13.125Z" fill="black"/>
</svg>
