<svg width="24" height="24" viewBox="0 0 24 24" fill="none" xmlns="http://www.w3.org/2000/svg">
<path d="M21.1724 5.07469C20.0837 3.98922 18.6098 3.37867 17.0724 3.37639C15.5351 3.37411 14.0593 3.98028 12.9674 5.0625L11.9999 5.96063L11.0324 5.0625C9.94088 3.9737 8.46153 3.36311 6.91981 3.36504C5.37808 3.36698 3.90027 3.98128 2.81147 5.07281C1.72268 6.16434 1.11208 7.64369 1.11402 9.18542C1.11595 10.7271 1.73025 12.205 2.82179 13.2937L11.1983 21.7922C11.303 21.8985 11.4278 21.9829 11.5654 22.0405C11.703 22.0981 11.8507 22.1278 11.9999 22.1278C12.1491 22.1278 12.2968 22.0981 12.4344 22.0405C12.572 21.9829 12.6968 21.8985 12.8015 21.7922L21.1724 13.2994C21.7124 12.7596 22.1408 12.1187 22.433 11.4134C22.7253 10.708 22.8757 9.95196 22.8757 9.18844C22.8757 8.42492 22.7253 7.66888 22.433 6.96352C22.1408 6.25815 21.7124 5.61727 21.1724 5.0775V5.07469ZM19.5787 11.7112L11.9999 19.3969L4.41835 11.7047C3.75254 11.0361 3.37916 10.1307 3.38013 9.18715C3.38111 8.2436 3.75637 7.33897 4.42356 6.67178C5.09076 6.00458 5.99539 5.62932 6.93894 5.62835C7.88249 5.62737 8.7879 6.00075 9.45647 6.66656C9.46585 6.67594 9.47522 6.68531 9.48554 6.69375L11.233 8.32125C11.4413 8.51526 11.7153 8.62313 11.9999 8.62313C12.2845 8.62313 12.5585 8.51526 12.7668 8.32125L14.5143 6.69375C14.5246 6.68531 14.534 6.67594 14.5433 6.66656C14.8746 6.33612 15.2677 6.07416 15.7001 5.89564C16.1326 5.71711 16.596 5.62552 17.0639 5.62608C17.5318 5.62665 17.995 5.71936 18.427 5.89894C18.8591 6.07851 19.2515 6.34142 19.5819 6.67266C19.9124 7.0039 20.1743 7.39698 20.3529 7.82945C20.5314 8.26193 20.623 8.72534 20.6224 9.19321C20.6219 9.66109 20.5291 10.1243 20.3496 10.5563C20.17 10.9884 19.9071 11.3808 19.5758 11.7112H19.5787Z" fill="black"/>
</svg>
