<svg width="24" height="24" viewBox="0 0 24 24" fill="none" xmlns="http://www.w3.org/2000/svg">
<path d="M19.3613 11.3233V18.7199C19.3613 19.0594 19.2264 19.385 18.9864 19.6251C18.7463 19.8651 18.4207 20 18.0812 20H5.28011C4.9406 20 4.615 19.8651 4.37494 19.6251C4.13487 19.385 4 19.0594 4 18.7199V11.3233C3.99997 11.1461 4.03672 10.9709 4.10792 10.8086C4.17912 10.6464 4.28322 10.5007 4.41364 10.3808L10.8142 4.34187L10.823 4.33307C11.0586 4.11876 11.3657 4 11.6843 4C12.0028 4 12.3099 4.11876 12.5455 4.33307C12.5483 4.3362 12.5512 4.33914 12.5543 4.34187L18.9549 10.3808C19.084 10.5013 19.1867 10.6473 19.2567 10.8095C19.3266 10.9717 19.3623 11.1466 19.3613 11.3233Z" fill="black"/>
</svg>
