<svg width="24" height="24" viewBox="0 0 24 24" fill="none" xmlns="http://www.w3.org/2000/svg">
<path d="M15 5.25V14.25C15 14.4489 14.921 14.6397 14.7803 14.7803C14.6397 14.921 14.4489 15 14.25 15H10.5C10.3011 15 10.1103 14.921 9.96967 14.7803C9.82902 14.6397 9.75 14.4489 9.75 14.25V5.25C9.75 5.05109 9.82902 4.86032 9.96967 4.71967C10.1103 4.57902 10.3011 4.5 10.5 4.5H14.25C14.4489 4.5 14.6397 4.57902 14.7803 4.71967C14.921 4.86032 15 5.05109 15 5.25ZM21 4.5H17.25C17.0511 4.5 16.8603 4.57902 16.7197 4.71967C16.579 4.86032 16.5 5.05109 16.5 5.25V9.75C16.5 9.94891 16.579 10.1397 16.7197 10.2803C16.8603 10.421 17.0511 10.5 17.25 10.5H21C21.1989 10.5 21.3897 10.421 21.5303 10.2803C21.671 10.1397 21.75 9.94891 21.75 9.75V5.25C21.75 5.05109 21.671 4.86032 21.5303 4.71967C21.3897 4.57902 21.1989 4.5 21 4.5ZM21 12H17.25C17.0511 12 16.8603 12.079 16.7197 12.2197C16.579 12.3603 16.5 12.5511 16.5 12.75V16.5C16.5 16.8978 16.658 17.2794 16.9393 17.5607C17.2206 17.842 17.6022 18 18 18H20.25C20.6478 18 21.0294 17.842 21.3107 17.5607C21.592 17.2794 21.75 16.8978 21.75 16.5V12.75C21.75 12.5511 21.671 12.3603 21.5303 12.2197C21.3897 12.079 21.1989 12 21 12ZM7.5 4.5H3.75C3.55109 4.5 3.36032 4.57902 3.21967 4.71967C3.07902 4.86032 3 5.05109 3 5.25V9.75C3 9.94891 3.07902 10.1397 3.21967 10.2803C3.36032 10.421 3.55109 10.5 3.75 10.5H7.5C7.69891 10.5 7.88968 10.421 8.03033 10.2803C8.17098 10.1397 8.25 9.94891 8.25 9.75V5.25C8.25 5.05109 8.17098 4.86032 8.03033 4.71967C7.88968 4.57902 7.69891 4.5 7.5 4.5ZM7.5 12H3.75C3.55109 12 3.36032 12.079 3.21967 12.2197C3.07902 12.3603 3 12.5511 3 12.75V19.5C3 19.8978 3.15804 20.2794 3.43934 20.5607C3.72064 20.842 4.10218 21 4.5 21H6.75C7.14782 21 7.52936 20.842 7.81066 20.5607C8.09196 20.2794 8.25 19.8978 8.25 19.5V12.75C8.25 12.5511 8.17098 12.3603 8.03033 12.2197C7.88968 12.079 7.69891 12 7.5 12Z" fill="black"/>
</svg>
