<svg width="24" height="24" viewBox="0 0 24 24" fill="none" xmlns="http://www.w3.org/2000/svg">
<path d="M9.00052 13.7417L13.7399 9.00225C13.8226 8.91959 13.9207 8.85402 14.0287 8.80929C14.1367 8.76455 14.2525 8.74152 14.3694 8.74152C14.4863 8.74152 14.6021 8.76455 14.7101 8.80929C14.8181 8.85402 14.9162 8.91959 14.9989 9.00225C15.0815 9.08491 15.1471 9.18305 15.1918 9.29105C15.2366 9.39905 15.2596 9.51481 15.2596 9.63171C15.2596 9.74861 15.2366 9.86437 15.1918 9.97237C15.1471 10.0804 15.0815 10.1785 14.9989 10.2612L10.2594 15.0006C10.0925 15.1675 9.86607 15.2613 9.62997 15.2613C9.39388 15.2613 9.16746 15.1675 9.00052 15.0006C8.83358 14.8337 8.73979 14.6072 8.73979 14.3711C8.73979 14.135 8.83358 13.9086 9.00052 13.7417ZM18.7015 5.29957C17.8675 4.46737 16.7373 4 15.5591 4C14.3808 4 13.2507 4.46737 12.4166 5.29957L10.1861 7.52785C10.0192 7.69479 9.92539 7.92121 9.92539 8.1573C9.92539 8.2742 9.94841 8.38996 9.99315 8.49796C10.0379 8.60596 10.1035 8.7041 10.1861 8.78676C10.2688 8.86942 10.3669 8.93499 10.4749 8.97972C10.5829 9.02446 10.6987 9.04749 10.8156 9.04749C11.0517 9.04749 11.2781 8.9537 11.445 8.78676L13.6718 6.56071C14.1719 6.06057 14.8501 5.77955 15.5573 5.77948C16.2646 5.77942 16.9429 6.0603 17.443 6.56034C17.9431 7.06038 18.2241 7.73862 18.2242 8.44585C18.2243 9.15308 17.9434 9.83138 17.4434 10.3315L15.2136 12.5568C15.131 12.6395 15.0654 12.7376 15.0206 12.8456C14.9759 12.9536 14.9529 13.0694 14.9529 13.1863C14.9529 13.3032 14.9759 13.4189 15.0206 13.5269C15.0654 13.6349 15.131 13.7331 15.2136 13.8157C15.2963 13.8984 15.3944 13.964 15.5024 14.0087C15.6104 14.0534 15.7262 14.0765 15.8431 14.0765C15.96 14.0765 16.0757 14.0534 16.1837 14.0087C16.2917 13.964 16.3899 13.8984 16.4725 13.8157L18.7001 11.5897C19.5327 10.7551 20.0001 9.62419 19.9997 8.44528C19.9993 7.26637 19.5311 6.1358 18.6978 5.3018L18.7015 5.29957ZM12.5566 15.2139L10.3298 17.4414C10.0821 17.689 9.78815 17.8854 9.46461 18.0194C9.14106 18.1533 8.7943 18.2223 8.44411 18.2222C8.09393 18.2222 7.74718 18.1532 7.42366 18.0192C7.10014 17.8851 6.8062 17.6887 6.5586 17.441C6.05856 16.9409 5.77768 16.2626 5.77775 15.5554C5.77782 14.8481 6.05883 14.1699 6.55897 13.6698L8.78502 11.4431C8.86768 11.3604 8.93325 11.2623 8.97799 11.1543C9.02273 11.0463 9.04575 10.9305 9.04575 10.8136C9.04575 10.6967 9.02273 10.5809 8.97799 10.4729C8.93325 10.3649 8.86768 10.2668 8.78502 10.1841C8.70236 10.1015 8.60423 10.0359 8.49623 9.99118C8.38822 9.94644 8.27247 9.92342 8.15557 9.92342C8.03867 9.92342 7.92291 9.94644 7.81491 9.99118C7.70691 10.0359 7.60877 10.1015 7.52611 10.1841L5.30154 12.4132C4.88887 12.8259 4.56153 13.3158 4.33821 13.8551C4.11489 14.3943 3.99997 14.9722 4 15.5559C4.00007 16.7346 4.46838 17.865 5.30191 18.6985C6.13544 19.5319 7.26592 20.0001 8.44464 20C9.62336 19.9999 10.7538 19.5316 11.5872 18.6981L13.8133 16.4713C13.9802 16.3044 14.074 16.0779 14.074 15.8418C14.074 15.6058 13.9802 15.3793 13.8133 15.2124C13.6463 15.0454 13.4199 14.9517 13.1838 14.9517C12.9477 14.9517 12.7213 15.0454 12.5544 15.2124L12.5566 15.2139Z" fill="black"/>
</svg>
