<svg width="24" height="24" viewBox="0 0 24 24" fill="none" xmlns="http://www.w3.org/2000/svg">
<path fill-rule="evenodd" clip-rule="evenodd" d="M4.5 2C3.11929 2 2 3.11929 2 4.5V19.5C2 20.8807 3.11929 22 4.5 22H19.5C20.8807 22 22 20.8807 22 19.5V4.5C22 3.11929 20.8807 2 19.5 2H4.5ZM6.56082 6.79165C6.29806 7.03564 6.16668 7.34532 6.16668 7.7207C6.16668 8.09608 6.2943 8.40764 6.54956 8.65539C6.80482 8.90314 7.1389 9.02701 7.55182 9.02701H7.56308C7.991 9.02701 8.33635 8.90314 8.59911 8.65539C8.85437 8.41514 8.982 8.11485 8.982 7.75449C8.982 7.35658 8.85061 7.03377 8.58785 6.78602C8.33259 6.54577 7.99852 6.42566 7.5856 6.42566C7.16518 6.42566 6.82358 6.54765 6.56082 6.79165ZM6.31308 10.0518V17.5743H8.81308V10.0518H6.31308ZM12.6982 17.5743H10.1982C10.2132 15.307 10.2207 13.5465 10.2207 12.2928C10.2207 11.039 10.2132 10.292 10.1982 10.0518H12.6982V11.1216L12.687 11.1441H12.6982V11.1216C13.2388 10.2883 13.9933 9.8716 14.9617 9.8716C15.8251 9.8716 16.5195 10.1588 17.0451 10.7331C17.5706 11.3074 17.8333 12.1501 17.8333 13.2612V17.5743H15.3333V13.554C15.3333 12.4204 14.9129 11.8536 14.0721 11.8536C13.7493 11.8536 13.4809 11.9418 13.2669 12.1182C13.0529 12.2946 12.8934 12.5105 12.7883 12.7657C12.7282 12.9084 12.6982 13.1111 12.6982 13.3739V17.5743Z" fill="black"/>
</svg>
