<svg width="24" height="24" viewBox="0 0 24 24" fill="none" xmlns="http://www.w3.org/2000/svg">
<path d="M12.6689 16.7596C12.7584 16.8487 12.8294 16.9547 12.8778 17.0713C12.9263 17.188 12.9512 17.313 12.9512 17.4393C12.9512 17.5657 12.9263 17.6907 12.8778 17.8074C12.8294 17.924 12.7584 18.03 12.6689 18.1191L12.1939 18.5941C11.2938 19.4943 10.0729 20 8.79988 20C7.52687 20 6.306 19.4943 5.40585 18.5941C4.5057 17.694 4 16.4731 4 15.2001C4 13.9271 4.5057 12.7062 5.40585 11.8061L7.33478 9.87796C8.19967 9.01094 9.36334 8.50742 10.5874 8.47055C11.8115 8.43367 13.0034 8.86624 13.9189 9.67963C14.0134 9.76365 14.0905 9.86546 14.1456 9.97925C14.2008 10.093 14.233 10.2166 14.2405 10.3428C14.2479 10.4691 14.2304 10.5955 14.1889 10.715C14.1475 10.8345 14.0829 10.9446 13.9989 11.0392C13.9149 11.1337 13.8131 11.2107 13.6993 11.2659C13.5855 11.3211 13.4619 11.3533 13.3357 11.3607C13.2094 11.3681 13.083 11.3506 12.9635 11.3092C12.844 11.2677 12.7339 11.2032 12.6393 11.1191C12.0904 10.6316 11.3758 10.3722 10.6419 10.394C9.90797 10.4159 9.21013 10.7173 8.69111 11.2367L6.76378 13.1624C6.22378 13.7024 5.9204 14.4348 5.9204 15.1985C5.9204 15.9622 6.22378 16.6946 6.76378 17.2346C7.30379 17.7746 8.03619 18.078 8.79988 18.078C9.56356 18.078 10.296 17.7746 10.836 17.2346L11.311 16.7596C11.4001 16.6704 11.506 16.5996 11.6225 16.5513C11.739 16.503 11.8639 16.4781 11.99 16.4781C12.1161 16.4781 12.241 16.503 12.3575 16.5513C12.474 16.5996 12.5798 16.6704 12.6689 16.7596ZM18.5933 5.40351C17.6924 4.50474 16.4718 4 15.1993 4C13.9267 4 12.7061 4.50474 11.8052 5.40351L11.3302 5.87855C11.1499 6.05883 11.0486 6.30335 11.0486 6.55831C11.0486 6.81327 11.1499 7.05779 11.3302 7.23808C11.5105 7.41836 11.755 7.51964 12.01 7.51964C12.2649 7.51964 12.5094 7.41836 12.6897 7.23808L13.1648 6.76304C13.7048 6.22304 14.4372 5.91966 15.2009 5.91966C15.9645 5.91966 16.697 6.22304 17.237 6.76304C17.777 7.30305 18.0803 8.03545 18.0803 8.79914C18.0803 9.56282 17.777 10.2952 17.237 10.8352L15.3088 12.7642C14.7894 13.2833 14.0911 13.5843 13.357 13.6056C12.6229 13.6268 11.9084 13.3667 11.3598 12.8785C11.2653 12.7945 11.1551 12.7299 11.0357 12.6885C10.9162 12.647 10.7897 12.6295 10.6635 12.6369C10.5372 12.6444 10.4137 12.6766 10.2999 12.7318C10.1861 12.7869 10.0843 12.864 10.0003 12.9585C9.91624 13.053 9.85167 13.1632 9.81022 13.2826C9.76877 13.4021 9.75125 13.5286 9.75868 13.6548C9.76611 13.7811 9.79833 13.9046 9.8535 14.0184C9.90867 14.1322 9.98572 14.234 10.0802 14.318C10.9951 15.1312 12.1862 15.5641 13.4097 15.528C14.6332 15.4918 15.7967 14.9895 16.662 14.1237L18.5909 12.1956C19.4907 11.2949 19.9963 10.074 19.9968 8.80083C19.9972 7.5277 19.4925 6.30641 18.5933 5.40511V5.40351Z" fill="black"/>
</svg>
