<svg width="24" height="24" viewBox="0 0 24 24" fill="none" xmlns="http://www.w3.org/2000/svg">
<path d="M21.375 12C21.375 12.2984 21.2564 12.5846 21.0455 12.7955C20.8345 13.0065 20.5483 13.125 20.25 13.125H12C11.7016 13.125 11.4154 13.0065 11.2045 12.7955C10.9935 12.5846 10.875 12.2984 10.875 12C10.875 11.7017 10.9935 11.4155 11.2045 11.2045C11.4154 10.9936 11.7016 10.875 12 10.875H20.25C20.5483 10.875 20.8345 10.9936 21.0455 11.2045C21.2564 11.4155 21.375 11.7017 21.375 12ZM12 7.12504H20.25C20.5483 7.12504 20.8345 7.00652 21.0455 6.79554C21.2564 6.58456 21.375 6.29841 21.375 6.00004C21.375 5.70167 21.2564 5.41553 21.0455 5.20455C20.8345 4.99357 20.5483 4.87504 20.25 4.87504H12C11.7016 4.87504 11.4154 4.99357 11.2045 5.20455C10.9935 5.41553 10.875 5.70167 10.875 6.00004C10.875 6.29841 10.9935 6.58456 11.2045 6.79554C11.4154 7.00652 11.7016 7.12504 12 7.12504ZM20.25 16.875H12C11.7016 16.875 11.4154 16.9936 11.2045 17.2045C10.9935 17.4155 10.875 17.7017 10.875 18C10.875 18.2984 10.9935 18.5846 11.2045 18.7955C11.4154 19.0065 11.7016 19.125 12 19.125H20.25C20.5483 19.125 20.8345 19.0065 21.0455 18.7955C21.2564 18.5846 21.375 18.2984 21.375 18C21.375 17.7017 21.2564 17.4155 21.0455 17.2045C20.8345 16.9936 20.5483 16.875 20.25 16.875ZM7.45402 3.7041L5.24996 5.90629L4.5459 5.20129C4.33455 4.98995 4.04791 4.87122 3.74902 4.87122C3.45014 4.87122 3.16349 4.98995 2.95215 5.20129C2.7408 5.41264 2.62207 5.69928 2.62207 5.99817C2.62207 6.29705 2.7408 6.5837 2.95215 6.79504L4.45215 8.29504C4.55666 8.39992 4.68086 8.48314 4.8176 8.53992C4.95435 8.5967 5.10096 8.62593 5.24902 8.62593C5.39709 8.62593 5.5437 8.5967 5.68044 8.53992C5.81719 8.48314 5.94138 8.39992 6.0459 8.29504L9.0459 5.29504C9.25724 5.0837 9.37597 4.79705 9.37597 4.49817C9.37597 4.19928 9.25724 3.91264 9.0459 3.70129C8.83455 3.48995 8.54791 3.37122 8.24902 3.37122C7.95014 3.37122 7.66349 3.48995 7.45215 3.70129L7.45402 3.7041ZM7.45402 9.7041L5.24996 11.9063L4.5459 11.2013C4.33455 10.9899 4.04791 10.8712 3.74902 10.8712C3.45014 10.8712 3.16349 10.9899 2.95215 11.2013C2.7408 11.4126 2.62207 11.6993 2.62207 11.9982C2.62207 12.2971 2.7408 12.5837 2.95215 12.795L4.45215 14.295C4.55666 14.3999 4.68086 14.4831 4.8176 14.5399C4.95435 14.5967 5.10096 14.6259 5.24902 14.6259C5.39709 14.6259 5.5437 14.5967 5.68044 14.5399C5.81719 14.4831 5.94138 14.3999 6.0459 14.295L9.0459 11.295C9.25724 11.0837 9.37597 10.7971 9.37597 10.4982C9.37597 10.1993 9.25724 9.91264 9.0459 9.70129C8.83455 9.48995 8.54791 9.37122 8.24902 9.37122C7.95014 9.37122 7.66349 9.48995 7.45215 9.70129L7.45402 9.7041ZM7.45402 15.7041L5.24996 17.9063L4.5459 17.2013C4.44125 17.0966 4.31702 17.0136 4.18029 16.957C4.04356 16.9004 3.89702 16.8712 3.74902 16.8712C3.60103 16.8712 3.45448 16.9004 3.31776 16.957C3.18103 17.0136 3.05679 17.0966 2.95215 17.2013C2.8475 17.3059 2.76449 17.4302 2.70785 17.5669C2.65122 17.7036 2.62207 17.8502 2.62207 17.9982C2.62207 18.1462 2.65122 18.2927 2.70785 18.4294C2.76449 18.5662 2.8475 18.6904 2.95215 18.795L4.45215 20.295C4.55666 20.3999 4.68086 20.4831 4.8176 20.5399C4.95435 20.5967 5.10096 20.6259 5.24902 20.6259C5.39709 20.6259 5.5437 20.5967 5.68044 20.5399C5.81719 20.4831 5.94138 20.3999 6.0459 20.295L9.0459 17.295C9.25724 17.0837 9.37597 16.7971 9.37597 16.4982C9.37597 16.1993 9.25724 15.9126 9.0459 15.7013C8.83455 15.4899 8.54791 15.3712 8.24902 15.3712C7.95014 15.3712 7.66349 15.4899 7.45215 15.7013L7.45402 15.7041Z" fill="black"/>
</svg>
