<svg width="24" height="24" viewBox="0 0 24 24" fill="none" xmlns="http://www.w3.org/2000/svg">
<path d="M18 6.75H14.2687C13.9959 6.73407 9.24188 6.39938 4.71469 2.6025C4.49607 2.4189 4.22959 2.30149 3.94656 2.26408C3.66353 2.22667 3.37571 2.2708 3.11689 2.3913C2.85807 2.5118 2.63902 2.70366 2.48546 2.94433C2.3319 3.18501 2.25022 3.46451 2.25 3.75V18.75C2.25004 19.0356 2.3316 19.3152 2.48508 19.556C2.63857 19.7968 2.85761 19.9888 3.11646 20.1094C3.37532 20.2301 3.66322 20.2743 3.94633 20.2369C4.22945 20.1995 4.49601 20.0821 4.71469 19.8984C8.25563 16.9284 11.9334 16.0772 13.5 15.8391V18.8128C13.4997 19.06 13.5605 19.3034 13.6769 19.5214C13.7934 19.7395 13.9619 19.9253 14.1675 20.0625L15.1987 20.7497C15.3981 20.8827 15.6264 20.9661 15.8645 20.9927C16.1027 21.0194 16.3438 20.9886 16.5676 20.903C16.7914 20.8173 16.9914 20.6793 17.151 20.5004C17.3105 20.3216 17.4248 20.1071 17.4844 19.875L18.5878 15.7163C19.7285 15.5761 20.7724 15.0048 21.5053 14.1196C22.2382 13.2344 22.6046 12.1023 22.5295 10.9555C22.4543 9.80865 21.9432 8.73407 21.1009 7.95209C20.2587 7.17012 19.1492 6.74002 18 6.75ZM16.0312 19.4897V19.5L15 18.8128V15.75H17.025L16.0312 19.4897ZM18 14.25H15V8.25H18C18.7956 8.25 19.5587 8.56607 20.1213 9.12868C20.6839 9.69129 21 10.4544 21 11.25C21 12.0457 20.6839 12.8087 20.1213 13.3713C19.5587 13.9339 18.7956 14.25 18 14.25Z" fill="black"/>
</svg>
