<svg width="24" height="24" viewBox="0 0 24 24" fill="none" xmlns="http://www.w3.org/2000/svg">
<path d="M20.6756 8.12439L4.17 3.06189C3.9466 2.99673 3.7111 2.98445 3.48213 3.026C3.25316 3.06756 3.037 3.16182 2.85075 3.30133C2.66449 3.44084 2.51325 3.62177 2.40899 3.82981C2.30472 4.03786 2.25029 4.26731 2.25 4.50002V18C2.25 18.3978 2.40804 18.7794 2.68934 19.0607C2.97064 19.342 3.35218 19.5 3.75 19.5C3.89344 19.5001 4.03614 19.4796 4.17375 19.4391L12 17.0372V18C12 18.3978 12.158 18.7794 12.4393 19.0607C12.7206 19.342 13.1022 19.5 13.5 19.5H16.5C16.8978 19.5 17.2794 19.342 17.5607 19.0607C17.842 18.7794 18 18.3978 18 18V15.1969L20.6756 14.3766C20.9853 14.2835 21.2569 14.0935 21.4503 13.8344C21.6437 13.5753 21.7488 13.2609 21.75 12.9375V9.56252C21.7486 9.23934 21.6434 8.92515 21.45 8.66624C21.2566 8.40733 20.9851 8.21739 20.6756 8.12439ZM16.5 18H13.5V16.5769L16.5 15.6563V18ZM20.25 12.9375H20.2397L13.5 15.0075V7.49158L20.2397 9.56252H20.25V12.9375Z" fill="black"/>
</svg>
