<svg width="24" height="24" viewBox="0 0 24 24" fill="none" xmlns="http://www.w3.org/2000/svg">
<path d="M11 6.33333C11 6.06963 11.0782 5.81184 11.2247 5.59257C11.3712 5.37331 11.5795 5.20241 11.8231 5.10149C12.0667 5.00058 12.3348 4.97417 12.5935 5.02562C12.8521 5.07707 13.0897 5.20405 13.2761 5.39052C13.4626 5.57699 13.5896 5.81457 13.641 6.07321C13.6925 6.33185 13.6661 6.59994 13.5652 6.84358C13.4643 7.08721 13.2934 7.29545 13.0741 7.44196C12.8548 7.58847 12.597 7.66667 12.3333 7.66667C11.9797 7.66667 11.6406 7.52619 11.3905 7.27614C11.1405 7.02609 11 6.68696 11 6.33333ZM12.3333 10.6667C12.0696 10.6667 11.8118 10.7449 11.5926 10.8914C11.3733 11.0379 11.2024 11.2461 11.1015 11.4898C11.0006 11.7334 10.9742 12.0015 11.0256 12.2601C11.0771 12.5188 11.2041 12.7563 11.3905 12.9428C11.577 13.1293 11.8146 13.2563 12.0732 13.3077C12.3319 13.3592 12.5999 13.3328 12.8436 13.2318C13.0872 13.1309 13.2955 12.96 13.442 12.7408C13.5885 12.5215 13.6667 12.2637 13.6667 12C13.6667 11.6464 13.5262 11.3072 13.2761 11.0572C13.0261 10.8071 12.687 10.6667 12.3333 10.6667ZM12.3333 16.3333C12.0696 16.3333 11.8118 16.4115 11.5926 16.558C11.3733 16.7045 11.2024 16.9128 11.1015 17.1564C11.0006 17.4001 10.9742 17.6681 11.0256 17.9268C11.0771 18.1854 11.2041 18.423 11.3905 18.6095C11.577 18.7959 11.8146 18.9229 12.0732 18.9744C12.3319 19.0258 12.5999 18.9994 12.8436 18.8985C13.0872 18.7976 13.2955 18.6267 13.442 18.4074C13.5885 18.1882 13.6667 17.9304 13.6667 17.6667C13.6667 17.313 13.5262 16.9739 13.2761 16.7239C13.0261 16.4738 12.687 16.3333 12.3333 16.3333Z" fill="black"/>
</svg>
