<svg width="24" height="24" viewBox="0 0 24 24" fill="none" xmlns="http://www.w3.org/2000/svg">
<path d="M13.3333 12.3333C13.3333 12.597 13.2551 12.8548 13.1086 13.0741C12.9621 13.2934 12.7539 13.4643 12.5102 13.5652C12.2666 13.6661 11.9985 13.6925 11.7399 13.641C11.4812 13.5896 11.2437 13.4626 11.0572 13.2761C10.8707 13.0897 10.7437 12.8521 10.6923 12.5935C10.6408 12.3348 10.6672 12.0667 10.7682 11.8231C10.8691 11.5795 11.04 11.3712 11.2592 11.2247C11.4785 11.0782 11.7363 11 12 11C12.3536 11 12.6928 11.1405 12.9428 11.3905C13.1929 11.6406 13.3333 11.9797 13.3333 12.3333ZM6.33333 11C6.06963 11 5.81184 11.0782 5.59257 11.2247C5.37331 11.3712 5.20241 11.5795 5.10149 11.8231C5.00058 12.0667 4.97417 12.3348 5.02562 12.5935C5.07707 12.8521 5.20405 13.0897 5.39052 13.2761C5.57699 13.4626 5.81457 13.5896 6.07321 13.641C6.33185 13.6925 6.59994 13.6661 6.84358 13.5652C7.08721 13.4643 7.29545 13.2934 7.44196 13.0741C7.58847 12.8548 7.66667 12.597 7.66667 12.3333C7.66667 11.9797 7.52619 11.6406 7.27614 11.3905C7.02609 11.1405 6.68696 11 6.33333 11ZM17.6667 11C17.403 11 17.1452 11.0782 16.9259 11.2247C16.7066 11.3712 16.5357 11.5795 16.4348 11.8231C16.3339 12.0667 16.3075 12.3348 16.359 12.5935C16.4104 12.8521 16.5374 13.0897 16.7239 13.2761C16.9103 13.4626 17.1479 13.5896 17.4065 13.641C17.6652 13.6925 17.9333 13.6661 18.1769 13.5652C18.4205 13.4643 18.6288 13.2934 18.7753 13.0741C18.9218 12.8548 19 12.597 19 12.3333C19 11.9797 18.8595 11.6406 18.6095 11.3905C18.3594 11.1405 18.0203 11 17.6667 11Z" fill="black"/>
</svg>
