<svg width="24" height="24" viewBox="0 0 24 24" fill="none" xmlns="http://www.w3.org/2000/svg">
<path d="M2.625 10.5H21.375C21.4745 10.5 21.5698 10.5395 21.6402 10.6098C21.7105 10.6802 21.75 10.7755 21.75 10.875V14.625C21.75 14.7245 21.7105 14.8198 21.6402 14.8902C21.5698 14.9605 21.4745 15 21.375 15H2.625C2.52554 15 2.43016 14.9605 2.35984 14.8902C2.28951 14.8198 2.25 14.7245 2.25 14.625V10.875C2.25 10.7755 2.28951 10.6802 2.35984 10.6098C2.43016 10.5395 2.52554 10.5 2.625 10.5ZM2.25 18.75C2.25 19.1478 2.40804 19.5294 2.68934 19.8107C2.97064 20.092 3.35218 20.25 3.75 20.25H20.25C20.6478 20.25 21.0294 20.092 21.3107 19.8107C21.592 19.5294 21.75 19.1478 21.75 18.75V16.875C21.75 16.7755 21.7105 16.6802 21.6402 16.6098C21.5698 16.5395 21.4745 16.5 21.375 16.5H2.625C2.52554 16.5 2.43016 16.5395 2.35984 16.6098C2.28951 16.6802 2.25 16.7755 2.25 16.875V18.75ZM21.75 6.75V8.625C21.75 8.72446 21.7105 8.81984 21.6402 8.89017C21.5698 8.96049 21.4745 9 21.375 9H2.625C2.52554 9 2.43016 8.96049 2.35984 8.89017C2.28951 8.81984 2.25 8.72446 2.25 8.625V6.75C2.25 6.35218 2.40804 5.97064 2.68934 5.68934C2.97064 5.40804 3.35218 5.25 3.75 5.25H7.5V4.5C7.5 3.90326 7.73705 3.33097 8.15901 2.90901C8.58097 2.48705 9.15326 2.25 9.75 2.25H14.25C14.8467 2.25 15.419 2.48705 15.841 2.90901C16.2629 3.33097 16.5 3.90326 16.5 4.5V5.25H20.25C20.6478 5.25 21.0294 5.40804 21.3107 5.68934C21.592 5.97064 21.75 6.35218 21.75 6.75ZM15 4.5C15 4.30109 14.921 4.11032 14.7803 3.96967C14.6397 3.82902 14.4489 3.75 14.25 3.75H9.75C9.55109 3.75 9.36032 3.82902 9.21967 3.96967C9.07902 4.11032 9 4.30109 9 4.5V5.25H15V4.5Z" fill="black"/>
</svg>
