<svg width="24" height="24" viewBox="0 0 24 24" fill="none" xmlns="http://www.w3.org/2000/svg">
<g clip-path="url(#clip0_1017_7835)">
<path d="M12.7499 4.875C12.7499 4.35583 12.9039 3.84831 13.1923 3.41663C13.4808 2.98495 13.8907 2.6485 14.3704 2.44982C14.8501 2.25114 15.3779 2.19915 15.8871 2.30044C16.3963 2.40173 16.864 2.65173 17.2311 3.01885C17.5982 3.38596 17.8482 3.85369 17.9495 4.36289C18.0508 4.87209 17.9988 5.39989 17.8001 5.87955C17.6014 6.3592 17.265 6.76917 16.8333 7.05761C16.4016 7.34605 15.8941 7.5 15.3749 7.5C14.6787 7.5 14.0111 7.22344 13.5188 6.73116C13.0265 6.23887 12.7499 5.57119 12.7499 4.875ZM23.9062 19.125C23.8402 19.2393 23.7452 19.3342 23.6308 19.4C23.5164 19.4659 23.3866 19.5004 23.2546 19.5H0.749943C0.617764 19.4999 0.487946 19.465 0.37364 19.3986C0.259333 19.3322 0.164597 19.2368 0.0990286 19.122C0.0334596 19.0073 -0.000613433 18.8772 0.00026054 18.745C0.00113451 18.6129 0.0369245 18.4833 0.104005 18.3694L6.95713 6.73875C7.08959 6.51362 7.27855 6.32699 7.5053 6.19731C7.73205 6.06764 7.98873 5.99943 8.24994 5.99943C8.51115 5.99943 8.76783 6.06764 8.99458 6.19731C9.22133 6.32699 9.41029 6.51362 9.54276 6.73875L13.7465 13.875L16.199 9.73688C16.3305 9.51166 16.5189 9.325 16.7453 9.19565C16.9717 9.06631 17.2282 8.99883 17.489 9C17.7497 8.99867 18.0062 9.06586 18.2328 9.19486C18.4593 9.32385 18.648 9.51012 18.7799 9.735L23.8949 18.3675C23.9639 18.4814 24.0013 18.6116 24.0032 18.7447C24.0052 18.8779 23.9717 19.0091 23.9062 19.125ZM6.04026 11.25H10.4596L8.24994 7.5L6.04026 11.25Z" fill="black"/>
</g>
<defs>
<clipPath id="clip0_1017_7835">
<rect width="24" height="24" fill="white"/>
</clipPath>
</defs>
</svg>
