<svg width="24" height="24" viewBox="0 0 24 24" fill="none" xmlns="http://www.w3.org/2000/svg">
<path d="M20.3333 2H3.66667C3.22464 2 2.80072 2.17559 2.48816 2.48816C2.17559 2.80072 2 3.22464 2 3.66667V20.3333C2 20.7754 2.17559 21.1993 2.48816 21.5118C2.80072 21.8244 3.22464 22 3.66667 22H14.9885C15.2074 22.0004 15.4242 21.9574 15.6264 21.8735C15.8287 21.7897 16.0123 21.6666 16.1667 21.5115L21.5115 16.1667C21.6666 16.0123 21.7897 15.8287 21.8735 15.6264C21.9574 15.4242 22.0004 15.2074 22 14.9885V3.66667C22 3.22464 21.8244 2.80072 21.5118 2.48816C21.1993 2.17559 20.7754 2 20.3333 2ZM8.66667 7.83333H15.3333C15.5543 7.83333 15.7663 7.92113 15.9226 8.07741C16.0789 8.23369 16.1667 8.44565 16.1667 8.66667C16.1667 8.88768 16.0789 9.09964 15.9226 9.25592C15.7663 9.4122 15.5543 9.5 15.3333 9.5H8.66667C8.44565 9.5 8.23369 9.4122 8.07741 9.25592C7.92113 9.09964 7.83333 8.88768 7.83333 8.66667C7.83333 8.44565 7.92113 8.23369 8.07741 8.07741C8.23369 7.92113 8.44565 7.83333 8.66667 7.83333ZM12 16.1667H8.66667C8.44565 16.1667 8.23369 16.0789 8.07741 15.9226C7.92113 15.7663 7.83333 15.5543 7.83333 15.3333C7.83333 15.1123 7.92113 14.9004 8.07741 14.7441C8.23369 14.5878 8.44565 14.5 8.66667 14.5H12C12.221 14.5 12.433 14.5878 12.5893 14.7441C12.7455 14.9004 12.8333 15.1123 12.8333 15.3333C12.8333 15.5543 12.7455 15.7663 12.5893 15.9226C12.433 16.0789 12.221 16.1667 12 16.1667ZM8.66667 12.8333C8.44565 12.8333 8.23369 12.7455 8.07741 12.5893C7.92113 12.433 7.83333 12.221 7.83333 12C7.83333 11.779 7.92113 11.567 8.07741 11.4107C8.23369 11.2545 8.44565 11.1667 8.66667 11.1667H15.3333C15.5543 11.1667 15.7663 11.2545 15.9226 11.4107C16.0789 11.567 16.1667 11.779 16.1667 12C16.1667 12.221 16.0789 12.433 15.9226 12.5893C15.7663 12.7455 15.5543 12.8333 15.3333 12.8333H8.66667ZM15.3333 19.9885V15.3333H19.9896L15.3333 19.9885Z" fill="black"/>
</svg>
