<svg width="24" height="24" viewBox="0 0 24 24" fill="none" xmlns="http://www.w3.org/2000/svg">
<path d="M21 12V19.5C21 19.8978 20.842 20.2794 20.5607 20.5607C20.2794 20.842 19.8978 21 19.5 21H4.5C4.10218 21 3.72064 20.842 3.43934 20.5607C3.15804 20.2794 3 19.8978 3 19.5V4.5C3 4.10218 3.15804 3.72065 3.43934 3.43934C3.72064 3.15804 4.10218 3 4.5 3H12C12.1989 3 12.3897 3.07902 12.5303 3.21967C12.671 3.36032 12.75 3.55109 12.75 3.75C12.75 3.94891 12.671 4.13968 12.5303 4.28033C12.3897 4.42098 12.1989 4.5 12 4.5H4.5V19.5H19.5V12C19.5 11.8011 19.579 11.6103 19.7197 11.4697C19.8603 11.329 20.0511 11.25 20.25 11.25C20.4489 11.25 20.6397 11.329 20.7803 11.4697C20.921 11.6103 21 11.8011 21 12ZM21.5306 6.53063L12.5306 15.5306C12.4609 15.6003 12.3782 15.6555 12.2871 15.6931C12.1961 15.7307 12.0985 15.7501 12 15.75H9C8.80109 15.75 8.61032 15.671 8.46967 15.5303C8.32902 15.3897 8.25 15.1989 8.25 15V12C8.24992 11.9015 8.26926 11.8039 8.3069 11.7129C8.34454 11.6218 8.39975 11.5391 8.46937 11.4694L17.4694 2.46938C17.539 2.39965 17.6217 2.34433 17.7128 2.30658C17.8038 2.26884 17.9014 2.24941 18 2.24941C18.0986 2.24941 18.1962 2.26884 18.2872 2.30658C18.3783 2.34433 18.461 2.39965 18.5306 2.46938L21.5306 5.46938C21.6004 5.53903 21.6557 5.62175 21.6934 5.7128C21.7312 5.80385 21.7506 5.90144 21.7506 6C21.7506 6.09856 21.7312 6.19616 21.6934 6.28721C21.6557 6.37826 21.6004 6.46097 21.5306 6.53063ZM19.9369 6L18 4.06032L16.8103 5.25L18.75 7.18969L19.9369 6Z" fill="black"/>
</svg>
