<svg width="24" height="24" viewBox="0 0 24 24" fill="none" xmlns="http://www.w3.org/2000/svg">
<path d="M15.3343 19.6695C15.3343 19.8464 15.2641 20.016 15.139 20.141C15.014 20.2661 14.8444 20.3363 14.6675 20.3363H9.33329C9.15645 20.3363 8.98685 20.2661 8.8618 20.141C8.73676 20.016 8.66651 19.8464 8.66651 19.6695C8.66651 19.4927 8.73676 19.3231 8.8618 19.1981C8.98685 19.073 9.15645 19.0028 9.33329 19.0028H14.6675C14.8444 19.0028 15.014 19.073 15.139 19.1981C15.2641 19.3231 15.3343 19.4927 15.3343 19.6695ZM19.8193 15.6639C19.3559 14.8671 18.6682 12.6125 18.6682 9.66782C18.6682 7.8994 17.9657 6.20342 16.7153 4.95296C15.4648 3.7025 13.7688 3 12.0004 3C10.232 3 8.53602 3.7025 7.28556 4.95296C6.0351 6.20342 5.3326 7.8994 5.3326 9.66782C5.3326 12.6133 4.64415 14.8671 4.18157 15.6639C4.06344 15.8664 4.00081 16.0966 4.00001 16.3311C3.9992 16.5656 4.06025 16.7961 4.17698 16.9995C4.29371 17.2029 4.46201 17.3719 4.6649 17.4895C4.86779 17.607 5.0981 17.669 5.3326 17.6692H18.6682C18.9027 17.6689 19.1329 17.6068 19.3356 17.4891C19.5384 17.3715 19.7066 17.2025 19.8232 16.9991C19.9399 16.7958 20.0008 16.5653 20 16.3309C19.9992 16.0964 19.9374 15.8664 19.8193 15.6639Z" fill="black"/>
</svg>
