<svg width="24" height="24" viewBox="0 0 24 24" fill="none" xmlns="http://www.w3.org/2000/svg">
<path d="M12.3275 5H11.6725C11.4546 5 11.2657 5.15078 11.2174 5.36324L10.524 8.41421C10.2853 9.46484 9.46484 10.2853 8.41421 10.524L5.36324 11.2174C5.15078 11.2657 5 11.4546 5 11.6725V12.3275C5 12.5454 5.15078 12.7343 5.36324 12.7826L8.41421 13.476C9.46484 13.7147 10.2853 14.5352 10.524 15.5858L11.2174 18.6368C11.2657 18.8492 11.4546 19 11.6725 19H12.3275C12.5454 19 12.7343 18.8492 12.7826 18.6368L13.476 15.5858C13.7147 14.5352 14.5352 13.7147 15.5858 13.476L18.6368 12.7826C18.8492 12.7343 19 12.5454 19 12.3275V11.6725C19 11.4546 18.8492 11.2657 18.6368 11.2174L15.5858 10.524C14.5352 10.2853 13.7147 9.46484 13.476 8.41421L12.7826 5.36324C12.7343 5.15078 12.5454 5 12.3275 5Z" fill="black"/>
</svg>
