<svg width="24" height="24" viewBox="0 0 24 24" fill="none" xmlns="http://www.w3.org/2000/svg">
<path d="M21.1875 8.25C21.15 8.15625 21.1106 8.0625 21.0703 7.96875C20.4654 6.57378 19.4865 5.37328 18.2419 4.5H20.25C20.4489 4.5 20.6397 4.42098 20.7803 4.28033C20.921 4.13968 21 3.94891 21 3.75C21 3.55109 20.921 3.36032 20.7803 3.21967C20.6397 3.07902 20.4489 3 20.25 3H10.5C8.42634 3.00263 6.42951 3.78502 4.90601 5.1918C3.38252 6.59859 2.4438 8.52687 2.27625 10.5938C1.6284 10.7548 1.05277 11.1273 0.640489 11.6524C0.228203 12.1774 0.00281392 12.8249 0 13.4925C0 13.6914 0.0790176 13.8822 0.21967 14.0228C0.360322 14.1635 0.551088 14.2425 0.75 14.2425C0.948912 14.2425 1.13968 14.1635 1.28033 14.0228C1.42098 13.8822 1.5 13.6914 1.5 13.4925C1.50017 13.219 1.57512 12.9508 1.71673 12.7168C1.85834 12.4828 2.06122 12.292 2.30344 12.165C2.49012 13.8477 3.19176 15.4317 4.3125 16.7006L5.49 19.9969C5.5941 20.2884 5.78586 20.5406 6.03898 20.7189C6.29209 20.8972 6.59416 20.9927 6.90375 20.9925H8.09625C8.40568 20.9925 8.70754 20.8969 8.96047 20.7186C9.2134 20.5404 9.40502 20.2883 9.50906 19.9969L9.68906 19.4925H15.0609L15.2409 19.9969C15.345 20.2883 15.5366 20.5404 15.7895 20.7186C16.0425 20.8969 16.3443 20.9925 16.6537 20.9925H17.8463C18.1557 20.9925 18.4575 20.8969 18.7105 20.7186C18.9634 20.5404 19.155 20.2883 19.2591 19.9969L20.7787 15.7425H21C21.5967 15.7425 22.169 15.5054 22.591 15.0835C23.0129 14.6615 23.25 14.0892 23.25 13.4925V10.4925C23.2501 9.92816 23.0381 9.3844 22.6561 8.96904C22.274 8.55367 21.7499 8.29703 21.1875 8.25ZM14.25 6.7425H10.5C10.3011 6.7425 10.1103 6.66348 9.96967 6.52283C9.82902 6.38218 9.75 6.19141 9.75 5.9925C9.75 5.79359 9.82902 5.60282 9.96967 5.46217C10.1103 5.32152 10.3011 5.2425 10.5 5.2425H14.25C14.4489 5.2425 14.6397 5.32152 14.7803 5.46217C14.921 5.60282 15 5.79359 15 5.9925C15 6.19141 14.921 6.38218 14.7803 6.52283C14.6397 6.66348 14.4489 6.7425 14.25 6.7425ZM16.875 11.9925C16.6525 11.9925 16.435 11.9265 16.25 11.8029C16.065 11.6793 15.9208 11.5036 15.8356 11.298C15.7505 11.0925 15.7282 10.8663 15.7716 10.648C15.815 10.4298 15.9222 10.2293 16.0795 10.072C16.2368 9.91467 16.4373 9.80752 16.6555 9.76412C16.8738 9.72071 17.1 9.74299 17.3055 9.82814C17.5111 9.91328 17.6868 10.0575 17.8104 10.2425C17.934 10.4275 18 10.645 18 10.8675C18 11.1659 17.8815 11.452 17.6705 11.663C17.4595 11.874 17.1734 11.9925 16.875 11.9925Z" fill="black"/>
</svg>
