<svg width="24" height="24" viewBox="0 0 24 24" fill="none" xmlns="http://www.w3.org/2000/svg">
<path d="M12 4C10.4178 4 8.87103 4.46919 7.55544 5.34824C6.23985 6.22729 5.21447 7.47672 4.60897 8.93853C4.00347 10.4003 3.84504 12.0089 4.15372 13.5607C4.4624 15.1126 5.22433 16.538 6.34315 17.6569C7.46197 18.7757 8.88743 19.5376 10.4393 19.8463C11.9911 20.155 13.5997 19.9965 15.0615 19.391C16.5233 18.7855 17.7727 17.7602 18.6518 16.4446C19.5308 15.129 20 13.5822 20 12C19.9974 9.87908 19.1536 7.84579 17.6539 6.34607C16.1542 4.84635 14.1209 4.00265 12 4ZM15.0769 12.6154H12.6154V15.0769C12.6154 15.2401 12.5506 15.3967 12.4351 15.5121C12.3197 15.6275 12.1632 15.6923 12 15.6923C11.8368 15.6923 11.6803 15.6275 11.5649 15.5121C11.4495 15.3967 11.3846 15.2401 11.3846 15.0769V12.6154H8.92308C8.75987 12.6154 8.60334 12.5505 8.48794 12.4351C8.37253 12.3197 8.30769 12.1632 8.30769 12C8.30769 11.8368 8.37253 11.6803 8.48794 11.5649C8.60334 11.4494 8.75987 11.3846 8.92308 11.3846H11.3846V8.92308C11.3846 8.75987 11.4495 8.60334 11.5649 8.48793C11.6803 8.37253 11.8368 8.30769 12 8.30769C12.1632 8.30769 12.3197 8.37253 12.4351 8.48793C12.5506 8.60334 12.6154 8.75987 12.6154 8.92308V11.3846H15.0769C15.2401 11.3846 15.3967 11.4494 15.5121 11.5649C15.6275 11.6803 15.6923 11.8368 15.6923 12C15.6923 12.1632 15.6275 12.3197 15.5121 12.4351C15.3967 12.5505 15.2401 12.6154 15.0769 12.6154Z" fill="black"/>
</svg>
