<svg width="24" height="24" viewBox="0 0 24 24" fill="none" xmlns="http://www.w3.org/2000/svg">
<path d="M20 12C20 12.2546 19.8989 12.4988 19.7188 12.6788C19.5388 12.8589 19.2946 12.96 19.04 12.96H12.96V19.04C12.96 19.2946 12.8589 19.5388 12.6788 19.7188C12.4988 19.8989 12.2546 20 12 20C11.7454 20 11.5012 19.8989 11.3212 19.7188C11.1411 19.5388 11.04 19.2946 11.04 19.04V12.96H4.96C4.70539 12.96 4.46121 12.8589 4.28118 12.6788C4.10114 12.4988 4 12.2546 4 12C4 11.7454 4.10114 11.5012 4.28118 11.3212C4.46121 11.1411 4.70539 11.04 4.96 11.04H11.04V4.96C11.04 4.70539 11.1411 4.46121 11.3212 4.28118C11.5012 4.10114 11.7454 4 12 4C12.2546 4 12.4988 4.10114 12.6788 4.28118C12.8589 4.46121 12.96 4.70539 12.96 4.96V11.04H19.04C19.2946 11.04 19.5388 11.1411 19.7188 11.3212C19.8989 11.5012 20 11.7454 20 12Z" fill="black"/>
</svg>
