<svg width="24" height="24" viewBox="0 0 24 24" fill="none" xmlns="http://www.w3.org/2000/svg">
<path d="M21.5175 6.95719C21.4295 6.87438 21.3227 6.81409 21.2063 6.78144C21.0899 6.74879 20.9674 6.74476 20.8491 6.76969C20.7035 6.24617 20.4558 5.75658 20.1204 5.32904C19.785 4.90151 19.3684 4.54447 18.8946 4.27842C18.4208 4.01237 17.8991 3.84256 17.3594 3.77874C16.8198 3.71493 16.2728 3.75837 15.75 3.90656C15.421 3.1885 14.8927 2.58001 14.2279 2.15341C13.5632 1.72681 12.7899 1.50003 12 1.50003C11.2102 1.50003 10.4369 1.72681 9.77215 2.15341C9.10739 2.58001 8.57909 3.1885 8.25004 3.90656C7.72736 3.75818 7.18051 3.71451 6.64091 3.77807C6.1013 3.84164 5.57957 4.01118 5.10568 4.27696C4.63178 4.54274 4.21507 4.89952 3.87946 5.32682C3.54385 5.75412 3.29596 6.2435 3.15004 6.76688C3.02683 6.74159 2.89925 6.7477 2.77902 6.78463C2.65879 6.82157 2.54978 6.88815 2.46202 6.97824C2.37426 7.06834 2.31057 7.17905 2.2768 7.30021C2.24304 7.42136 2.24028 7.54907 2.26879 7.67156L5.13379 19.8441C5.21134 20.1732 5.39781 20.4664 5.66293 20.6762C5.92806 20.886 6.2563 21.0001 6.59441 21H17.4057C17.7438 21.0001 18.072 20.886 18.3371 20.6762C18.6023 20.4664 18.7887 20.1732 18.8663 19.8441L21.7303 7.67156C21.7602 7.54427 21.7563 7.41138 21.719 7.28607C21.6816 7.16076 21.6122 7.04738 21.5175 6.95719ZM6.59441 19.5L4.02285 8.5725L7.57129 9.58594L8.89316 19.5H6.59441ZM11.4432 6.915L8.20972 8.20875L4.59379 7.17563C4.69846 6.79696 4.88679 6.44662 5.14489 6.15044C5.403 5.85426 5.72429 5.61979 6.08508 5.46431C6.44587 5.30884 6.83696 5.23633 7.2295 5.25214C7.62205 5.26794 8.00604 5.37165 8.35316 5.55563C8.45525 5.60978 8.56848 5.63961 8.684 5.64278C8.79952 5.64596 8.91421 5.62239 9.01912 5.57393C9.12403 5.52547 9.21633 5.45342 9.2888 5.3634C9.36127 5.27339 9.41196 5.16784 9.43691 5.055C9.56673 4.47227 9.89132 3.95121 10.3571 3.57776C10.8229 3.20432 11.4021 3.00081 11.9991 3.00081C12.5961 3.00081 13.1753 3.20432 13.6411 3.57776C14.1069 3.95121 14.4315 4.47227 14.5613 5.055C14.5862 5.16784 14.6369 5.27339 14.7094 5.3634C14.7819 5.45342 14.8742 5.52547 14.9791 5.57393C15.084 5.62239 15.1987 5.64596 15.3142 5.64278C15.4297 5.63961 15.5429 5.60978 15.645 5.55563C15.9922 5.3713 16.3764 5.2673 16.7692 5.25132C17.1619 5.23533 17.5533 5.30776 17.9143 5.46326C18.2754 5.61876 18.5968 5.85336 18.8551 6.14973C19.1133 6.44611 19.3017 6.7967 19.4063 7.17563L15.7913 8.20688L12.5578 6.91313C12.1998 6.77054 11.8007 6.77122 11.4432 6.915ZM17.4057 19.5H15.1069L16.4288 9.58594L19.9772 8.5725L17.4057 19.5Z" fill="black"/>
</svg>
