<svg width="24" height="24" viewBox="0 0 24 24" fill="none" xmlns="http://www.w3.org/2000/svg">
<path d="M12.4494 2C11.5876 2 10.8889 2.69868 10.8889 3.56055V5.72774C10.8889 5.89272 10.6894 5.97534 10.5728 5.85868L8.38945 3.67538C7.78002 3.06595 6.79193 3.06595 6.1825 3.67538L5.24676 4.61112C4.63732 5.22055 4.63732 6.20864 5.24676 6.81808L6.77921 8.35054C6.89587 8.4672 6.81325 8.66667 6.64826 8.66667H3.56056C2.69869 8.66667 2 9.36535 2 10.2272V11.5506C2 12.4124 2.69868 13.1111 3.56056 13.1111H5.72776C5.89274 13.1111 5.97537 13.3106 5.85871 13.4272L3.67538 15.6106C3.06594 16.22 3.06594 17.2081 3.67538 17.8175L4.61111 18.7533C5.22055 19.3627 6.20864 19.3627 6.81807 18.7533L8.35053 17.2208C8.46719 17.1042 8.66666 17.1868 8.66666 17.3518V20.4394C8.66666 21.3013 9.36534 22 10.2272 22H11.5506C12.4124 22 13.1111 21.3013 13.1111 20.4394V18.2723C13.1111 18.1073 13.3106 18.0247 13.4272 18.1413L15.6105 20.3246C16.22 20.934 17.2081 20.934 17.8175 20.3246L18.7532 19.3889C19.3627 18.7794 19.3627 17.7914 18.7532 17.1819L17.2208 15.6495C17.1041 15.5328 17.1868 15.3333 17.3517 15.3333H20.4394C21.3013 15.3333 22 14.6347 22 13.7728V12.4494C22 11.5876 21.3013 10.8889 20.4394 10.8889H18.2722C18.1072 10.8889 18.0246 10.6894 18.1413 10.5728L20.3246 8.38942C20.9341 7.77999 20.9341 6.7919 20.3246 6.18247L19.3889 5.24673C18.7795 4.63729 17.7914 4.63729 17.1819 5.24673L15.6495 6.77919C15.5328 6.89585 15.3333 6.81322 15.3333 6.64824V3.56055C15.3333 2.69868 14.6347 2 13.7728 2H12.4494Z" fill="black"/>
</svg>
