<svg width="24" height="24" viewBox="0 0 24 24" fill="none" xmlns="http://www.w3.org/2000/svg">
<path d="M21 9.14286V15.5714C21 15.7419 20.9323 15.9054 20.8117 16.026C20.6912 16.1466 20.5276 16.2143 20.3571 16.2143H17.7857V18.7857C17.7857 18.9562 17.718 19.1197 17.5974 19.2403C17.4769 19.3608 17.3134 19.4286 17.1429 19.4286H6.85714C6.68665 19.4286 6.52313 19.3608 6.40257 19.2403C6.28202 19.1197 6.21429 18.9562 6.21429 18.7857V16.2143H3.64286C3.47236 16.2143 3.30885 16.1466 3.18829 16.026C3.06773 15.9054 3 15.7419 3 15.5714V9.14286C3 8.07973 3.91286 7.21429 5.03545 7.21429H6.21429V4.64286C6.21429 4.47236 6.28202 4.30885 6.40257 4.18829C6.52313 4.06773 6.68665 4 6.85714 4H17.1429C17.3134 4 17.4769 4.06773 17.5974 4.18829C17.718 4.30885 17.7857 4.47236 17.7857 4.64286V7.21429H18.9646C20.0871 7.21429 21 8.07973 21 9.14286ZM7.5 7.21429H16.5V5.28571H7.5V7.21429ZM16.5 14.2857H7.5V18.1429H16.5V14.2857ZM17.7857 10.75C17.7857 10.5593 17.7292 10.3728 17.6232 10.2143C17.5172 10.0557 17.3666 9.9321 17.1904 9.85912C17.0142 9.78613 16.8204 9.76704 16.6333 9.80424C16.4463 9.84145 16.2744 9.93329 16.1396 10.0681C16.0047 10.203 15.9129 10.3748 15.8757 10.5619C15.8385 10.7489 15.8576 10.9428 15.9305 11.119C16.0035 11.2952 16.1271 11.4458 16.2857 11.5518C16.4443 11.6577 16.6307 11.7143 16.8214 11.7143C17.0772 11.7143 17.3224 11.6127 17.5033 11.4319C17.6841 11.251 17.7857 11.0057 17.7857 10.75Z" fill="black"/>
</svg>
