<svg width="24" height="24" viewBox="0 0 24 24" fill="none" xmlns="http://www.w3.org/2000/svg">
<path d="M7.30621 8.05285C7.30621 5.26285 9.47019 3 12.1397 3C14.8092 3 16.9731 5.26071 16.9731 8.05285C16.9731 10.845 14.8092 13.1057 12.1397 13.1057C9.47019 13.1057 7.30621 10.8428 7.30621 8.05285Z" fill="black"/>
<path d="M3.80204 20.9999H20.1975C20.3091 21.0013 20.4198 20.9797 20.5227 20.9366C20.6256 20.8934 20.7185 20.8297 20.7955 20.7492C20.8699 20.6736 20.9264 20.5825 20.961 20.4824C20.9956 20.3823 21.0074 20.2758 20.9956 20.1707C20.9948 20.1657 20.9935 20.1565 20.9917 20.1435C20.9441 19.7992 20.5197 16.7334 18.6294 15.3707C18.006 14.9213 17.2567 14.6781 16.4872 14.6754C15.7177 14.6727 14.9667 14.9106 14.3402 15.3557C12.7376 16.32 11.1265 16.32 9.4228 15.3557C8.76457 14.8628 7.16417 14.2671 5.4132 15.3385C3.35892 16.5857 3.03626 19.8278 3.00184 20.1942C2.99436 20.2984 3.00972 20.403 3.04686 20.5007C3.08401 20.5984 3.14205 20.6868 3.21695 20.7599C3.29372 20.8365 3.38495 20.8971 3.48538 20.9383C3.58581 20.9795 3.69344 21.0004 3.80204 20.9999Z" fill="black"/>
</svg>
