<svg width="24" height="24" viewBox="0 0 24 24" fill="none" xmlns="http://www.w3.org/2000/svg">
<path d="M12 4C10.4178 4 8.87103 4.46919 7.55544 5.34824C6.23985 6.22729 5.21447 7.47672 4.60897 8.93853C4.00347 10.4003 3.84504 12.0089 4.15372 13.5607C4.4624 15.1126 5.22433 16.538 6.34315 17.6569C7.46197 18.7757 8.88743 19.5376 10.4393 19.8463C11.9911 20.155 13.5997 19.9965 15.0615 19.391C16.5233 18.7855 17.7727 17.7602 18.6518 16.4446C19.5308 15.129 20 13.5822 20 12C19.9978 9.87895 19.1542 7.84542 17.6544 6.34562C16.1546 4.84581 14.121 4.00224 12 4ZM12 16.9231C11.8174 16.9231 11.639 16.8689 11.4872 16.7675C11.3354 16.6661 11.2171 16.5219 11.1472 16.3532C11.0773 16.1846 11.059 15.999 11.0947 15.8199C11.1303 15.6409 11.2182 15.4764 11.3473 15.3473C11.4764 15.2182 11.6409 15.1303 11.8199 15.0947C11.999 15.059 12.1846 15.0773 12.3532 15.1472C12.5219 15.2171 12.6661 15.3354 12.7675 15.4872C12.8689 15.639 12.9231 15.8174 12.9231 16C12.9231 16.2448 12.8258 16.4796 12.6527 16.6527C12.4796 16.8258 12.2448 16.9231 12 16.9231ZM12.6154 13.1754V13.2308C12.6154 13.394 12.5506 13.5505 12.4351 13.6659C12.3197 13.7813 12.1632 13.8462 12 13.8462C11.8368 13.8462 11.6803 13.7813 11.5649 13.6659C11.4495 13.5505 11.3846 13.394 11.3846 13.2308V12.6154C11.3846 12.4522 11.4495 12.2956 11.5649 12.1802C11.6803 12.0648 11.8368 12 12 12C13.0177 12 13.8462 11.3077 13.8462 10.4615C13.8462 9.61538 13.0177 8.92308 12 8.92308C10.9823 8.92308 10.1538 9.61538 10.1538 10.4615V10.7692C10.1538 10.9324 10.089 11.089 9.97361 11.2044C9.8582 11.3198 9.70167 11.3846 9.53846 11.3846C9.37525 11.3846 9.21873 11.3198 9.10332 11.2044C8.98791 11.089 8.92308 10.9324 8.92308 10.7692V10.4615C8.92308 8.93461 10.3031 7.69231 12 7.69231C13.6969 7.69231 15.0769 8.93461 15.0769 10.4615C15.0769 11.7985 14.0185 12.9177 12.6154 13.1754Z" fill="black"/>
</svg>
