<svg width="24" height="24" viewBox="0 0 24 24" fill="none" xmlns="http://www.w3.org/2000/svg">
<path d="M3.00076 12.0008C3.00245 10.3891 3.64343 8.84397 4.78305 7.70436C5.92266 6.56474 7.46783 5.92376 9.07949 5.92207H16.9978L16.7163 5.64132C16.627 5.55204 16.5562 5.44605 16.5079 5.3294C16.4596 5.21275 16.4347 5.08773 16.4347 4.96147C16.4347 4.8352 16.4596 4.71018 16.5079 4.59353C16.5562 4.47688 16.627 4.37089 16.7163 4.28161C16.8056 4.19233 16.9116 4.12151 17.0282 4.07319C17.1449 4.02487 17.2699 4 17.3962 4C17.5224 4 17.6474 4.02487 17.7641 4.07319C17.8807 4.12151 17.9867 4.19233 18.076 4.28161L19.9956 6.20121C20.0851 6.29038 20.1561 6.39633 20.2045 6.513C20.253 6.62966 20.2779 6.75474 20.2779 6.88107C20.2779 7.00739 20.253 7.13247 20.2045 7.24913C20.1561 7.3658 20.0851 7.47176 19.9956 7.56092L18.076 9.48052C17.8957 9.66083 17.6512 9.76213 17.3962 9.76213C17.1412 9.76213 16.8966 9.66083 16.7163 9.48052C16.536 9.30021 16.4347 9.05566 16.4347 8.80067C16.4347 8.54567 16.536 8.30112 16.7163 8.12081L16.9978 7.84167H9.07949C7.97681 7.84294 6.91966 8.28154 6.13994 9.06125C5.36023 9.84096 4.92163 10.8981 4.92036 12.0008C4.92036 12.2554 4.81924 12.4995 4.63924 12.6795C4.45924 12.8595 4.21511 12.9606 3.96056 12.9606C3.706 12.9606 3.46187 12.8595 3.28188 12.6795C3.10188 12.4995 3.00076 12.2554 3.00076 12.0008ZM19.3174 11.041C19.0628 11.041 18.8187 11.1421 18.6387 11.3221C18.4587 11.5021 18.3576 11.7462 18.3576 12.0008C18.3563 13.1035 17.9177 14.1606 17.138 14.9403C16.3583 15.7201 15.3011 16.1587 14.1984 16.1599H6.28007L6.56162 15.8792C6.6509 15.7899 6.72172 15.6839 6.77004 15.5673C6.81835 15.4506 6.84322 15.3256 6.84322 15.1993C6.84322 15.0731 6.81835 14.948 6.77004 14.8314C6.72172 14.7147 6.6509 14.6088 6.56162 14.5195C6.47234 14.4302 6.36634 14.3594 6.24969 14.3111C6.13304 14.2627 6.00802 14.2379 5.88176 14.2379C5.7555 14.2379 5.63047 14.2627 5.51382 14.3111C5.39717 14.3594 5.29118 14.4302 5.2019 14.5195L3.2823 16.4391C3.19282 16.5282 3.12182 16.6342 3.07338 16.7509C3.02494 16.8675 3 16.9926 3 17.1189C3 17.2453 3.02494 17.3703 3.07338 17.487C3.12182 17.6037 3.19282 17.7096 3.2823 17.7988L5.2019 19.7184C5.29118 19.8077 5.39717 19.8785 5.51382 19.9268C5.63047 19.9751 5.7555 20 5.88176 20C6.00802 20 6.13304 19.9751 6.24969 19.9268C6.36634 19.8785 6.47234 19.8077 6.56162 19.7184C6.6509 19.6291 6.72172 19.5231 6.77004 19.4065C6.81835 19.2898 6.84322 19.1648 6.84322 19.0385C6.84322 18.9123 6.81835 18.7872 6.77004 18.6706C6.72172 18.5539 6.6509 18.448 6.56162 18.3587L6.28007 18.0795H14.1984C15.8101 18.0778 17.3553 17.4369 18.4949 16.2972C19.6345 15.1576 20.2755 13.6125 20.2772 12.0008C20.2772 11.7462 20.176 11.5021 19.996 11.3221C19.816 11.1421 19.5719 11.041 19.3174 11.041Z" fill="black"/>
</svg>
