<svg width="24" height="24" viewBox="0 0 24 24" fill="none" xmlns="http://www.w3.org/2000/svg">
<path d="M22.2806 11.0306L14.7806 18.5306C14.6757 18.6356 14.542 18.7071 14.3964 18.7361C14.2509 18.7651 14.1 18.7503 13.9629 18.6934C13.8257 18.6366 13.7086 18.5404 13.6262 18.417C13.5437 18.2935 13.4998 18.1484 13.4999 18V14.2715C8.14682 14.5753 4.47651 18.0469 3.44619 19.1465C3.28441 19.3193 3.07225 19.4367 2.83991 19.4819C2.60757 19.5271 2.36689 19.4979 2.15212 19.3984C1.93735 19.2989 1.75943 19.1342 1.64368 18.9277C1.52794 18.7213 1.48026 18.4835 1.50744 18.2484C1.85526 15.224 3.51182 12.315 6.17244 10.0575C8.38213 8.18248 11.0681 6.99279 13.4999 6.78467V2.99998C13.4998 2.85156 13.5437 2.70644 13.6262 2.58299C13.7086 2.45955 13.8257 2.36333 13.9629 2.30651C14.1 2.2497 14.2509 2.23485 14.3964 2.26383C14.542 2.29282 14.6757 2.36435 14.7806 2.46936L22.2806 9.96936C22.3503 10.039 22.4056 10.1217 22.4434 10.2128C22.4811 10.3038 22.5005 10.4014 22.5005 10.5C22.5005 10.5985 22.4811 10.6961 22.4434 10.7872C22.4056 10.8782 22.3503 10.961 22.2806 11.0306Z" fill="black"/>
</svg>
