<svg width="24" height="24" viewBox="0 0 24 24" fill="none" xmlns="http://www.w3.org/2000/svg">
<path d="M21.6966 4.06662C21.6966 4.06662 21.6966 4.07555 21.6966 4.08001L16.5001 21.2208C16.4215 21.4992 16.2596 21.7469 16.0361 21.9307C15.8127 22.1144 15.5384 22.2254 15.2501 22.2487C15.209 22.2523 15.168 22.2541 15.1269 22.2541C14.8567 22.2549 14.5919 22.1784 14.3638 22.0336C14.1357 21.8889 13.9537 21.6818 13.8394 21.437L10.651 14.7044C10.6195 14.6378 10.6094 14.5631 10.622 14.4905C10.6346 14.4179 10.6694 14.351 10.7215 14.299L15.834 9.18458C15.9623 9.04951 16.0328 8.86965 16.0304 8.68336C16.028 8.49706 15.953 8.31907 15.8213 8.18733C15.6896 8.05559 15.5116 7.98052 15.3253 7.97814C15.1391 7.97575 14.9593 8.04623 14.8242 8.17456L9.70366 13.2881C9.65162 13.3402 9.58473 13.3749 9.51216 13.3876C9.43959 13.4002 9.3649 13.3901 9.2983 13.3586L2.60185 10.1857C2.33886 10.0652 2.11753 9.86929 1.9659 9.62288C1.81427 9.37647 1.73915 9.0906 1.75006 8.80147C1.76461 8.5043 1.87217 8.21922 2.05755 7.98653C2.24293 7.75384 2.49674 7.58532 2.7831 7.50479L19.9207 2.30735H19.9341C20.1781 2.23878 20.4359 2.23638 20.6811 2.30038C20.9264 2.36439 21.1502 2.4925 21.3296 2.67157C21.509 2.85063 21.6375 3.07422 21.702 3.31937C21.7665 3.56453 21.7646 3.82243 21.6966 4.06662Z" fill="black"/>
</svg>
