<svg width="24" height="24" viewBox="0 0 24 24" fill="none" xmlns="http://www.w3.org/2000/svg">
<path d="M19.5 3.75H4.5C4.10218 3.75 3.72064 3.90804 3.43934 4.18934C3.15804 4.47064 3 4.85218 3 5.25V10.5C3 15.4425 5.3925 18.4378 7.39969 20.0803C9.56156 21.8484 11.7122 22.4494 11.8059 22.4738C11.9348 22.5088 12.0708 22.5088 12.1997 22.4738C12.2934 22.4494 14.4413 21.8484 16.6059 20.0803C18.6075 18.4378 21 15.4425 21 10.5V5.25C21 4.85218 20.842 4.47064 20.5607 4.18934C20.2794 3.90804 19.8978 3.75 19.5 3.75ZM12 20.9644C10.6736 20.5012 9.4387 19.8092 8.35125 18.9197C6.17156 17.1366 4.90969 14.8125 4.58438 12H12V5.25H19.5V10.5C19.5003 11.0012 19.4721 11.502 19.4156 12H12V20.9644Z" fill="black"/>
</svg>
