<svg width="24" height="24" viewBox="0 0 24 24" fill="none" xmlns="http://www.w3.org/2000/svg">
<path d="M12 2.25C10.0716 2.25 8.18657 2.82183 6.58319 3.89317C4.97982 4.96451 3.73013 6.48726 2.99218 8.26884C2.25422 10.0504 2.06114 12.0108 2.43735 13.9021C2.81355 15.7934 3.74215 17.5307 5.10571 18.8943C6.46928 20.2579 8.20656 21.1865 10.0979 21.5627C11.9892 21.9389 13.9496 21.7458 15.7312 21.0078C17.5127 20.2699 19.0355 19.0202 20.1068 17.4168C21.1782 15.8134 21.75 13.9284 21.75 12C21.7468 9.41513 20.7185 6.93705 18.8907 5.10927C17.063 3.28149 14.5849 2.25323 12 2.25ZM8.625 11.25C8.4025 11.25 8.18499 11.184 7.99999 11.0604C7.81498 10.9368 7.67079 10.7611 7.58564 10.5555C7.50049 10.35 7.47821 10.1238 7.52162 9.90552C7.56503 9.68729 7.67217 9.48684 7.82951 9.3295C7.98684 9.17217 8.1873 9.06502 8.40553 9.02162C8.62376 8.97821 8.84996 9.00049 9.05552 9.08564C9.26109 9.17078 9.43679 9.31498 9.56041 9.49998C9.68402 9.68499 9.75 9.9025 9.75 10.125C9.75 10.4234 9.63148 10.7095 9.4205 10.9205C9.20952 11.1315 8.92337 11.25 8.625 11.25ZM15.375 11.25C15.1525 11.25 14.935 11.184 14.75 11.0604C14.565 10.9368 14.4208 10.7611 14.3356 10.5555C14.2505 10.35 14.2282 10.1238 14.2716 9.90552C14.315 9.68729 14.4222 9.48684 14.5795 9.3295C14.7368 9.17217 14.9373 9.06502 15.1555 9.02162C15.3738 8.97821 15.6 9.00049 15.8055 9.08564C16.0111 9.17078 16.1868 9.31498 16.3104 9.49998C16.434 9.68499 16.5 9.9025 16.5 10.125C16.5 10.4234 16.3815 10.7095 16.1705 10.9205C15.9595 11.1315 15.6734 11.25 15.375 11.25Z" fill="black"/>
</svg>
