<svg width="24" height="24" viewBox="0 0 24 24" fill="none" xmlns="http://www.w3.org/2000/svg">
<path d="M12 2.25C10.0716 2.25 8.18657 2.82183 6.58319 3.89317C4.97982 4.96451 3.73013 6.48726 2.99218 8.26884C2.25422 10.0504 2.06114 12.0108 2.43735 13.9021C2.81355 15.7934 3.74215 17.5307 5.10571 18.8943C6.46928 20.2579 8.20656 21.1865 10.0979 21.5627C11.9892 21.9389 13.9496 21.7458 15.7312 21.0078C17.5127 20.2699 19.0355 19.0202 20.1068 17.4168C21.1782 15.8134 21.75 13.9284 21.75 12C21.7468 9.41513 20.7185 6.93705 18.8907 5.10927C17.063 3.28149 14.5849 2.25323 12 2.25ZM10.2806 11.4694C10.4214 11.6101 10.5004 11.801 10.5004 12C10.5004 12.199 10.4214 12.3899 10.2806 12.5306C10.1399 12.6714 9.94903 12.7504 9.75 12.7504C9.55098 12.7504 9.36011 12.6714 9.21938 12.5306L8.25 11.5603L7.28063 12.5306C7.1399 12.6714 6.94903 12.7504 6.75 12.7504C6.55098 12.7504 6.36011 12.6714 6.21938 12.5306C6.07865 12.3899 5.99959 12.199 5.99959 12C5.99959 11.801 6.07865 11.6101 6.21938 11.4694L7.18969 10.5L6.21938 9.53063C6.07865 9.38989 5.99959 9.19902 5.99959 9C5.99959 8.80098 6.07865 8.61011 6.21938 8.46937C6.36011 8.32864 6.55098 8.24958 6.75 8.24958C6.94903 8.24958 7.1399 8.32864 7.28063 8.46937L8.25 9.43969L9.21938 8.46937C9.36011 8.32864 9.55098 8.24958 9.75 8.24958C9.94903 8.24958 10.1399 8.32864 10.2806 8.46937C10.4214 8.61011 10.5004 8.80098 10.5004 9C10.5004 9.19902 10.4214 9.38989 10.2806 9.53063L9.31032 10.5L10.2806 11.4694ZM12 18C11.7775 18 11.56 17.934 11.375 17.8104C11.19 17.6868 11.0458 17.5111 10.9606 17.3055C10.8755 17.1 10.8532 16.8738 10.8966 16.6555C10.94 16.4373 11.0472 16.2368 11.2045 16.0795C11.3618 15.9222 11.5623 15.815 11.7805 15.7716C11.9988 15.7282 12.225 15.7505 12.4305 15.8356C12.6361 15.9208 12.8118 16.065 12.9354 16.25C13.059 16.435 13.125 16.6525 13.125 16.875C13.125 17.1734 13.0065 17.4595 12.7955 17.6705C12.5845 17.8815 12.2984 18 12 18ZM17.7806 11.4694C17.8503 11.5391 17.9056 11.6218 17.9433 11.7128C17.981 11.8039 18.0004 11.9015 18.0004 12C18.0004 12.0985 17.981 12.1961 17.9433 12.2872C17.9056 12.3782 17.8503 12.4609 17.7806 12.5306C17.7109 12.6003 17.6282 12.6556 17.5372 12.6933C17.4461 12.731 17.3486 12.7504 17.25 12.7504C17.1515 12.7504 17.0539 12.731 16.9628 12.6933C16.8718 12.6556 16.7891 12.6003 16.7194 12.5306L15.75 11.5603L14.7806 12.5306C14.6399 12.6714 14.449 12.7504 14.25 12.7504C14.051 12.7504 13.8601 12.6714 13.7194 12.5306C13.5786 12.3899 13.4996 12.199 13.4996 12C13.4996 11.801 13.5786 11.6101 13.7194 11.4694L14.6897 10.5L13.7194 9.53063C13.5786 9.38989 13.4996 9.19902 13.4996 9C13.4996 8.80098 13.5786 8.61011 13.7194 8.46937C13.8601 8.32864 14.051 8.24958 14.25 8.24958C14.449 8.24958 14.6399 8.32864 14.7806 8.46937L15.75 9.43969L16.7194 8.46937C16.7891 8.39969 16.8718 8.34442 16.9628 8.3067C17.0539 8.26899 17.1515 8.24958 17.25 8.24958C17.3486 8.24958 17.4461 8.26899 17.5372 8.3067C17.6282 8.34442 17.7109 8.39969 17.7806 8.46937C17.8503 8.53906 17.9056 8.62178 17.9433 8.71283C17.981 8.80387 18.0004 8.90145 18.0004 9C18.0004 9.09855 17.981 9.19613 17.9433 9.28717C17.9056 9.37822 17.8503 9.46094 17.7806 9.53063L16.8103 10.5L17.7806 11.4694Z" fill="black"/>
</svg>
