<svg width="24" height="24" viewBox="0 0 24 24" fill="none" xmlns="http://www.w3.org/2000/svg">
<path d="M12 1.87457C10.0716 1.87457 8.18657 2.4464 6.58319 3.51774C4.97982 4.58909 3.73013 6.11183 2.99218 7.89341C2.25422 9.67499 2.06114 11.6354 2.43735 13.5267C2.81355 15.418 3.74215 17.1553 5.10571 18.5189C6.46928 19.8824 8.20656 20.811 10.0979 21.1872C11.9892 21.5634 13.9496 21.3704 15.7312 20.6324C17.5127 19.8944 19.0355 18.6448 20.1068 17.0414C21.1782 15.438 21.75 13.5529 21.75 11.6246C21.7473 9.03955 20.7192 6.56118 18.8913 4.7333C17.0634 2.90541 14.585 1.8773 12 1.87457ZM8.625 8.62457C8.84751 8.62457 9.06502 8.69055 9.25002 8.81417C9.43503 8.93779 9.57922 9.11349 9.66437 9.31905C9.74952 9.52462 9.7718 9.75082 9.72839 9.96905C9.68498 10.1873 9.57783 10.3877 9.4205 10.5451C9.26317 10.7024 9.06271 10.8095 8.84448 10.853C8.62625 10.8964 8.40005 10.8741 8.19449 10.7889C7.98892 10.7038 7.81322 10.5596 7.6896 10.3746C7.56598 10.1896 7.5 9.97208 7.5 9.74957C7.5 9.4512 7.61853 9.16506 7.82951 8.95408C8.04049 8.7431 8.32664 8.62457 8.625 8.62457ZM16.3988 14.2496C15.4341 15.9174 13.8309 16.8746 12 16.8746C10.1691 16.8746 8.56594 15.9183 7.60125 14.2496C7.54699 14.1642 7.51055 14.0688 7.49413 13.9689C7.47772 13.8691 7.48166 13.767 7.50573 13.6688C7.52979 13.5705 7.57348 13.4782 7.63417 13.3972C7.69485 13.3163 7.77128 13.2485 7.85886 13.1979C7.94643 13.1473 8.04334 13.1149 8.14375 13.1027C8.24417 13.0905 8.34601 13.0987 8.44316 13.1269C8.5403 13.1551 8.63074 13.2026 8.70904 13.2667C8.78734 13.3307 8.85187 13.4099 8.89875 13.4996C9.59907 14.7099 10.6997 15.3746 12 15.3746C13.3003 15.3746 14.4009 14.7089 15.1013 13.4996C15.1481 13.4099 15.2127 13.3307 15.291 13.2667C15.3693 13.2026 15.4597 13.1551 15.5569 13.1269C15.654 13.0987 15.7558 13.0905 15.8563 13.1027C15.9567 13.1149 16.0536 13.1473 16.1412 13.1979C16.2287 13.2485 16.3052 13.3163 16.3658 13.3972C16.4265 13.4782 16.4702 13.5705 16.4943 13.6688C16.5183 13.767 16.5223 13.8691 16.5059 13.9689C16.4895 14.0688 16.453 14.1642 16.3988 14.2496ZM15.375 10.8746C15.1525 10.8746 14.935 10.8086 14.75 10.685C14.565 10.5614 14.4208 10.3857 14.3356 10.1801C14.2505 9.97452 14.2282 9.74832 14.2716 9.5301C14.315 9.31187 14.4222 9.11141 14.5795 8.95408C14.7368 8.79674 14.9373 8.6896 15.1555 8.64619C15.3738 8.60278 15.6 8.62506 15.8055 8.71021C16.0111 8.79536 16.1868 8.93955 16.3104 9.12456C16.434 9.30956 16.5 9.52707 16.5 9.74957C16.5 10.0479 16.3815 10.3341 16.1705 10.5451C15.9595 10.756 15.6734 10.8746 15.375 10.8746Z" fill="black"/>
</svg>
