<svg width="24" height="24" viewBox="0 0 24 24" fill="none" xmlns="http://www.w3.org/2000/svg">
<path d="M12 1.87457C10.0716 1.87457 8.18657 2.4464 6.58319 3.51774C4.97982 4.58909 3.73013 6.11183 2.99218 7.89341C2.25422 9.67499 2.06114 11.6354 2.43735 13.5267C2.81355 15.418 3.74215 17.1553 5.10571 18.5189C6.46928 19.8824 8.20656 20.811 10.0979 21.1872C11.9892 21.5634 13.9496 21.3704 15.7312 20.6324C17.5127 19.8944 19.0355 18.6448 20.1068 17.0414C21.1782 15.438 21.75 13.5529 21.75 11.6246C21.7468 9.0397 20.7185 6.56163 18.8907 4.73384C17.063 2.90606 14.5849 1.8778 12 1.87457ZM8.625 8.62457C8.84751 8.62457 9.06502 8.69055 9.25002 8.81417C9.43503 8.93779 9.57922 9.11349 9.66437 9.31905C9.74952 9.52462 9.7718 9.75082 9.72839 9.96905C9.68498 10.1873 9.57783 10.3877 9.4205 10.5451C9.26317 10.7024 9.06271 10.8095 8.84448 10.853C8.62625 10.8964 8.40005 10.8741 8.19449 10.7889C7.98892 10.7038 7.81322 10.5596 7.6896 10.3746C7.56598 10.1896 7.5 9.97208 7.5 9.74957C7.5 9.4512 7.61853 9.16506 7.82951 8.95408C8.04049 8.7431 8.32664 8.62457 8.625 8.62457ZM15.75 15.3746H8.25C8.05109 15.3746 7.86033 15.2956 7.71967 15.1549C7.57902 15.0143 7.5 14.8235 7.5 14.6246C7.5 14.4257 7.57902 14.2349 7.71967 14.0942C7.86033 13.9536 8.05109 13.8746 8.25 13.8746H15.75C15.9489 13.8746 16.1397 13.9536 16.2803 14.0942C16.421 14.2349 16.5 14.4257 16.5 14.6246C16.5 14.8235 16.421 15.0143 16.2803 15.1549C16.1397 15.2956 15.9489 15.3746 15.75 15.3746ZM15.375 10.8746C15.1525 10.8746 14.935 10.8086 14.75 10.685C14.565 10.5614 14.4208 10.3857 14.3356 10.1801C14.2505 9.97452 14.2282 9.74832 14.2716 9.5301C14.315 9.31187 14.4222 9.11141 14.5795 8.95408C14.7368 8.79674 14.9373 8.6896 15.1555 8.64619C15.3738 8.60278 15.6 8.62506 15.8055 8.71021C16.0111 8.79536 16.1868 8.93955 16.3104 9.12456C16.434 9.30956 16.5 9.52707 16.5 9.74957C16.5 10.0479 16.3815 10.3341 16.1705 10.5451C15.9595 10.756 15.6734 10.8746 15.375 10.8746Z" fill="black"/>
</svg>
