<svg width="24" height="24" viewBox="0 0 24 24" fill="none" xmlns="http://www.w3.org/2000/svg">
<path d="M22.0874 16.5H20.6474C21.4206 15.0139 21.7979 13.3536 21.7428 11.6792C21.6877 10.0049 21.2021 8.37301 20.3329 6.94093C19.4637 5.50884 18.2401 4.32488 16.7802 3.50322C15.3203 2.68155 13.6733 2.24991 11.9981 2.24991C10.3228 2.24991 8.67585 2.68155 7.21595 3.50322C5.75605 4.32488 4.53248 5.50884 3.66325 6.94093C2.79402 8.37301 2.30844 10.0049 2.25334 11.6792C2.19825 13.3536 2.57549 15.0139 3.3487 16.5H1.91244C1.61299 16.4964 1.32393 16.6097 1.10681 16.816C0.889688 17.0223 0.761648 17.3051 0.749945 17.6044C0.747204 17.7538 0.774279 17.9023 0.829587 18.0412C0.884896 18.1801 0.967328 18.3066 1.07207 18.4132C1.17681 18.5199 1.30176 18.6046 1.43961 18.6624C1.57746 18.7203 1.72546 18.75 1.87494 18.75H7.49994C7.69886 18.75 7.88962 18.829 8.03027 18.9697C8.17093 19.1103 8.24994 19.3011 8.24994 19.5C8.24994 19.6989 8.17093 19.8897 8.03027 20.0303C7.88962 20.171 7.69886 20.25 7.49994 20.25H6.76495C6.59128 20.2497 6.42262 20.3081 6.28643 20.4159C6.15024 20.5236 6.05455 20.6743 6.01495 20.8434C5.99158 20.9529 5.99301 21.0662 6.01912 21.175C6.04523 21.2838 6.09536 21.3854 6.16584 21.4723C6.23632 21.5593 6.32535 21.6293 6.42642 21.6774C6.52749 21.7254 6.63804 21.7502 6.74994 21.75H18.7246C18.9181 21.7524 19.1054 21.6815 19.2488 21.5517C19.3923 21.4218 19.4813 21.2425 19.4981 21.0497C19.5049 20.9471 19.4905 20.8442 19.4559 20.7474C19.4213 20.6506 19.3671 20.5619 19.2968 20.4869C19.2264 20.4119 19.1414 20.3522 19.047 20.3114C18.9526 20.2707 18.8509 20.2498 18.7481 20.25H13.4999C13.301 20.25 13.1103 20.171 12.9696 20.0303C12.829 19.8897 12.7499 19.6989 12.7499 19.5C12.7499 19.3011 12.829 19.1103 12.9696 18.9697C13.1103 18.829 13.301 18.75 13.4999 18.75H14.2303C14.4155 18.7491 14.5944 18.682 14.7345 18.5608C14.8746 18.4396 14.9668 18.2723 14.9943 18.0891C15.0069 17.9838 14.997 17.8771 14.9654 17.776C14.9337 17.6748 14.881 17.5816 14.8107 17.5023C14.7403 17.423 14.654 17.3595 14.5573 17.316C14.4607 17.2725 14.3559 17.25 14.2499 17.25H12.7499C11.3503 17.25 9.88213 16.7081 8.71869 15.7641C7.44838 14.7328 6.74994 13.395 6.74994 12C6.74979 11.7174 6.77205 11.4353 6.81651 11.1562C6.84473 10.9615 6.94644 10.785 7.10075 10.663C7.25505 10.541 7.45023 10.4826 7.64619 10.5C7.74747 10.5113 7.84538 10.5432 7.93393 10.5936C8.02249 10.6441 8.09983 10.712 8.16124 10.7934C8.22266 10.8747 8.26685 10.9677 8.29113 11.0667C8.31541 11.1657 8.31926 11.2685 8.30244 11.3691C8.26776 11.5776 8.2502 11.7886 8.24994 12C8.24994 14.0775 10.7118 15.75 12.7499 15.75H14.1974C15.4631 15.75 16.5281 16.7859 16.499 18.0516C16.4971 18.1403 16.4899 18.2289 16.4774 18.3169C16.469 18.3708 16.4724 18.4258 16.4874 18.4783C16.5024 18.5307 16.5287 18.5792 16.5644 18.6205C16.6001 18.6617 16.6444 18.6947 16.6941 18.717C16.7439 18.7394 16.7979 18.7507 16.8524 18.75H22.1249C22.2744 18.75 22.4224 18.7203 22.5603 18.6624C22.6981 18.6046 22.8231 18.5199 22.9278 18.4132C23.0326 18.3066 23.115 18.1801 23.1703 18.0412C23.2256 17.9023 23.2527 17.7538 23.2499 17.6044C23.2382 17.3051 23.1102 17.0223 22.8931 16.816C22.676 16.6097 22.3869 16.4964 22.0874 16.5ZM11.9906 8.77125C11.9632 8.97947 11.8782 9.17589 11.745 9.33826C11.6118 9.50064 11.4358 9.62249 11.2369 9.69003C11.0381 9.75757 10.8243 9.76811 10.6198 9.72044C10.4152 9.67276 10.2281 9.5688 10.0796 9.4203C9.93115 9.2718 9.82718 9.08469 9.77951 8.88016C9.73184 8.67564 9.74237 8.46185 9.80991 8.26299C9.87745 8.06414 9.9993 7.88816 10.1617 7.75498C10.3241 7.62179 10.5205 7.53671 10.7287 7.50937C10.8997 7.48692 11.0736 7.50409 11.2369 7.55957C11.4003 7.61504 11.5487 7.70733 11.6706 7.82931C11.7926 7.95128 11.8849 8.09966 11.9404 8.26299C11.9958 8.42632 12.013 8.60022 11.9906 8.77125ZM16.4906 13.2712C16.4632 13.4795 16.3782 13.6759 16.245 13.8383C16.1118 14.0006 15.9358 14.1225 15.7369 14.19C15.5381 14.2576 15.3243 14.2681 15.1198 14.2204C14.9152 14.1728 14.7281 14.0688 14.5796 13.9203C14.4311 13.7718 14.3272 13.5847 14.2795 13.3802C14.2318 13.1756 14.2424 12.9618 14.3099 12.763C14.3775 12.5641 14.4993 12.3882 14.6617 12.255C14.8241 12.1218 15.0205 12.0367 15.2287 12.0094C15.3997 11.9869 15.5736 12.0041 15.7369 12.0596C15.9003 12.115 16.0487 12.2073 16.1706 12.3293C16.2926 12.4513 16.3849 12.5997 16.4404 12.763C16.4959 12.9263 16.513 13.1002 16.4906 13.2712Z" fill="black"/>
</svg>
