<svg width="24" height="24" viewBox="0 0 24 24" fill="none" xmlns="http://www.w3.org/2000/svg">
<path d="M12 1.87457C10.0716 1.87457 8.18657 2.4464 6.58319 3.51774C4.97982 4.58909 3.73013 6.11183 2.99218 7.89341C2.25422 9.67499 2.06114 11.6354 2.43735 13.5267C2.81355 15.418 3.74215 17.1553 5.10571 18.5189C6.46928 19.8824 8.20656 20.811 10.0979 21.1872C11.9892 21.5634 13.9496 21.3704 15.7312 20.6324C17.5127 19.8944 19.0355 18.6448 20.1068 17.0414C21.1782 15.438 21.75 13.5529 21.75 11.6246C21.7473 9.03955 20.7192 6.56118 18.8913 4.7333C17.0634 2.90541 14.585 1.8773 12 1.87457ZM15.375 8.62457C15.5975 8.62457 15.815 8.69055 16 8.81417C16.185 8.93779 16.3292 9.11349 16.4144 9.31905C16.4995 9.52462 16.5218 9.75082 16.4784 9.96905C16.435 10.1873 16.3278 10.3877 16.1705 10.5451C16.0132 10.7024 15.8127 10.8095 15.5945 10.853C15.3763 10.8964 15.1501 10.8741 14.9445 10.7889C14.7389 10.7038 14.5632 10.5596 14.4396 10.3746C14.316 10.1896 14.25 9.97208 14.25 9.74957C14.25 9.4512 14.3685 9.16506 14.5795 8.95408C14.7905 8.7431 15.0766 8.62457 15.375 8.62457ZM8.625 8.62457C8.84751 8.62457 9.06502 8.69055 9.25002 8.81417C9.43503 8.93779 9.57922 9.11349 9.66437 9.31905C9.74952 9.52462 9.7718 9.75082 9.72839 9.96905C9.68498 10.1873 9.57783 10.3877 9.4205 10.5451C9.26317 10.7024 9.06271 10.8095 8.84448 10.853C8.62625 10.8964 8.40005 10.8741 8.19449 10.7889C7.98892 10.7038 7.81322 10.5596 7.6896 10.3746C7.56598 10.1896 7.5 9.97208 7.5 9.74957C7.5 9.4512 7.61853 9.16506 7.82951 8.95408C8.04049 8.7431 8.32664 8.62457 8.625 8.62457ZM17.0306 15.9052C16.961 15.9749 16.8783 16.0302 16.7872 16.068C16.6962 16.1057 16.5986 16.1252 16.5 16.1252C16.4014 16.1252 16.3038 16.1057 16.2128 16.068C16.1218 16.0302 16.039 15.9749 15.9694 15.9052L15 14.9349L14.0306 15.9052C13.961 15.9749 13.8783 16.0302 13.7872 16.068C13.6962 16.1057 13.5986 16.1252 13.5 16.1252C13.4014 16.1252 13.3038 16.1057 13.2128 16.068C13.1218 16.0302 13.039 15.9749 12.9694 15.9052L12 14.9349L11.0306 15.9052C10.961 15.9749 10.8783 16.0302 10.7872 16.068C10.6962 16.1057 10.5986 16.1252 10.5 16.1252C10.4014 16.1252 10.3038 16.1057 10.2128 16.068C10.1218 16.0302 10.039 15.9749 9.96938 15.9052L9 14.9349L8.03063 15.9052C7.8899 16.0459 7.69903 16.125 7.5 16.125C7.30098 16.125 7.11011 16.0459 6.96938 15.9052C6.82865 15.7645 6.74959 15.5736 6.74959 15.3746C6.74959 15.1755 6.82865 14.9847 6.96938 14.8439L8.46938 13.3439C8.53903 13.2742 8.62175 13.2189 8.7128 13.1812C8.80385 13.1434 8.90144 13.124 9 13.124C9.09857 13.124 9.19616 13.1434 9.28721 13.1812C9.37826 13.2189 9.46097 13.2742 9.53063 13.3439L10.5 14.3143L11.4694 13.3439C11.539 13.2742 11.6218 13.2189 11.7128 13.1812C11.8038 13.1434 11.9014 13.124 12 13.124C12.0986 13.124 12.1962 13.1434 12.2872 13.1812C12.3783 13.2189 12.461 13.2742 12.5306 13.3439L13.5 14.3143L14.4694 13.3439C14.539 13.2742 14.6218 13.2189 14.7128 13.1812C14.8038 13.1434 14.9014 13.124 15 13.124C15.0986 13.124 15.1962 13.1434 15.2872 13.1812C15.3783 13.2189 15.461 13.2742 15.5306 13.3439L17.0306 14.8439C17.1004 14.9136 17.1557 14.9963 17.1934 15.0874C17.2312 15.1784 17.2506 15.276 17.2506 15.3746C17.2506 15.4731 17.2312 15.5707 17.1934 15.6618C17.1557 15.7528 17.1004 15.8355 17.0306 15.9052Z" fill="black"/>
</svg>
