<svg width="24" height="24" viewBox="0 0 24 24" fill="none" xmlns="http://www.w3.org/2000/svg">
<path d="M20 5.6V13.92C20 14.3443 19.8314 14.7513 19.5314 15.0514C19.2313 15.3514 18.8243 15.52 18.4 15.52H10.7936C10.9565 15.7067 11.0408 15.9492 11.029 16.1967C11.0172 16.4442 10.9101 16.6776 10.7302 16.848C10.5503 17.0183 10.3115 17.1126 10.0638 17.111C9.81598 17.1093 9.57844 17.0119 9.4008 16.8392L7.8008 15.2392C7.7113 15.15 7.64029 15.044 7.59184 14.9273C7.54338 14.8107 7.51844 14.6855 7.51844 14.5592C7.51844 14.4329 7.54338 14.3077 7.59184 14.1911C7.64029 14.0744 7.7113 13.9684 7.8008 13.8792L9.4008 12.2792C9.57752 12.1013 9.81682 11.9996 10.0675 11.9959C10.3182 11.9922 10.5605 12.0867 10.7424 12.2592C10.9243 12.4318 11.0316 12.6686 11.0411 12.9192C11.0507 13.1697 10.9619 13.4141 10.7936 13.6H18.08V5.92H9.76C9.76 6.17461 9.65886 6.41879 9.47882 6.59882C9.29879 6.77886 9.05461 6.88 8.8 6.88C8.54539 6.88 8.30121 6.77886 8.12118 6.59882C7.94114 6.41879 7.84 6.17461 7.84 5.92V5.6C7.84 5.17565 8.00857 4.76869 8.30863 4.46863C8.60869 4.16857 9.01565 4 9.44 4H18.4C18.8243 4 19.2313 4.16857 19.5314 4.46863C19.8314 4.76869 20 5.17565 20 5.6ZM15.2 17.12C14.9454 17.12 14.7012 17.2211 14.5212 17.4012C14.3411 17.5812 14.24 17.8254 14.24 18.08H5.92V10.4H13.2064C13.0435 10.5867 12.9592 10.8292 12.971 11.0767C12.9828 11.3242 13.0899 11.5576 13.2698 11.728C13.4497 11.8983 13.6885 11.9926 13.9362 11.991C14.184 11.9893 14.4216 11.8919 14.5992 11.7192L16.1992 10.1192C16.2887 10.03 16.3597 9.92404 16.4082 9.80735C16.4566 9.69066 16.4816 9.56555 16.4816 9.4392C16.4816 9.31285 16.4566 9.18774 16.4082 9.07105C16.3597 8.95436 16.2887 8.84839 16.1992 8.7592L14.5992 7.1592C14.4225 6.98132 14.1832 6.87965 13.9325 6.87591C13.6818 6.87218 13.4395 6.96668 13.2576 7.13922C13.0757 7.31175 12.9684 7.54862 12.9589 7.79918C12.9493 8.04974 13.0381 8.2941 13.2064 8.48H5.6C5.17565 8.48 4.76869 8.64857 4.46863 8.94863C4.16857 9.24869 4 9.65565 4 10.08V18.4C4 18.8243 4.16857 19.2313 4.46863 19.5314C4.76869 19.8314 5.17565 20 5.6 20H14.56C14.9843 20 15.3913 19.8314 15.6914 19.5314C15.9914 19.2313 16.16 18.8243 16.16 18.4V18.08C16.16 17.8254 16.0589 17.5812 15.8788 17.4012C15.6988 17.2211 15.4546 17.12 15.2 17.12Z" fill="black"/>
</svg>
