<svg width="24" height="24" viewBox="0 0 24 24" fill="none" xmlns="http://www.w3.org/2000/svg">
<path d="M11.3791 3.49293C11.5067 2.83569 12.4933 2.83569 12.6209 3.49293L13.2353 6.6566C13.3266 7.12675 13.9276 7.31313 14.2909 6.984L16.7361 4.76925C17.2441 4.30915 18.0423 4.86269 17.7408 5.46602L16.2898 8.3702C16.0741 8.80178 16.4455 9.28974 16.9422 9.22734L20.2842 8.80748C20.9784 8.72025 21.2833 9.61589 20.6679 9.93486L17.7056 11.4703C17.2654 11.6984 17.2654 12.3016 17.7056 12.5297L20.6679 14.0651C21.2833 14.3841 20.9784 15.2797 20.2842 15.1925L16.9422 14.7727C16.4455 14.7103 16.0741 15.1982 16.2898 15.6298L17.7408 18.534C18.0423 19.1373 17.2441 19.6909 16.7361 19.2307L14.291 17.016C13.9276 16.6869 13.3266 16.8733 13.2353 17.3434L12.6209 20.5071C12.4933 21.1643 11.5067 21.1643 11.3791 20.5071L10.7647 17.3434C10.6734 16.8733 10.0724 16.6869 9.70905 17.016L7.26386 19.2307C6.75589 19.6909 5.95772 19.1373 6.25917 18.534L7.71024 15.6298C7.92588 15.1982 7.55447 14.7103 7.05783 14.7727L3.71584 15.1925C3.02155 15.2797 2.71668 14.3841 3.33208 14.0651L6.29436 12.5297C6.73457 12.3016 6.73457 11.6984 6.29436 11.4703L3.33208 9.93486C2.71668 9.61589 3.02155 8.72025 3.71583 8.80748L7.05783 9.22734C7.55447 9.28974 7.92588 8.80178 7.71024 8.3702L6.25917 5.46602C5.95772 4.86269 6.75589 4.30915 7.26386 4.76925L9.70905 6.984C10.0724 7.31313 10.6734 7.12675 10.7647 6.6566L11.3791 3.49293Z" fill="black"/>
</svg>
