<svg width="24" height="24" viewBox="0 0 24 24" fill="none" xmlns="http://www.w3.org/2000/svg">
<g clip-path="url(#clip0_4987_596)">
<path d="M24.0001 15.75C24.0001 15.9489 23.9211 16.1397 23.7804 16.2803C23.6398 16.421 23.449 16.5 23.2501 16.5H0.750102C0.632356 16.5 0.51627 16.4722 0.411239 16.419C0.306208 16.3658 0.215183 16.2886 0.145533 16.1937C0.0758825 16.0987 0.0295631 15.9887 0.0103238 15.8726C-0.00891542 15.7564 -0.000533957 15.6373 0.0347898 15.525L2.12166 8.56875C2.21312 8.25825 2.40322 7.98598 2.66321 7.79314C2.9232 7.60031 3.23892 7.49741 3.5626 7.5H11.447C11.7699 7.49843 12.0845 7.6018 12.3436 7.79456C12.6026 7.98732 12.792 8.25902 12.8832 8.56875L14.8126 15H16.247L14.1367 7.98281C14.1199 7.92683 14.1164 7.86769 14.1265 7.81011C14.1366 7.75254 14.16 7.69813 14.1949 7.65122C14.2298 7.60431 14.2752 7.56621 14.3274 7.53996C14.3796 7.5137 14.4373 7.50002 14.4957 7.5H15.9423C16.2648 7.50009 16.5786 7.60411 16.8373 7.79662C17.096 7.98913 17.2858 8.25989 17.3785 8.56875L19.3126 15H20.747L18.6367 7.98281C18.6199 7.92683 18.6164 7.86769 18.6265 7.81011C18.6366 7.75254 18.66 7.69813 18.6949 7.65122C18.7298 7.60431 18.7752 7.56621 18.8274 7.53996C18.8796 7.5137 18.9373 7.50002 18.9957 7.5H20.4423C20.7648 7.50009 21.0786 7.60411 21.3373 7.79662C21.596 7.98913 21.7858 8.25989 21.8785 8.56875L23.9654 15.5231C23.9884 15.5966 24.0001 15.6731 24.0001 15.75Z" fill="black"/>
</g>
<defs>
<clipPath id="clip0_4987_596">
<rect width="24" height="24" fill="white"/>
</clipPath>
</defs>
</svg>
