<svg width="24" height="24" viewBox="0 0 24 24" fill="none" xmlns="http://www.w3.org/2000/svg">
<path d="M20.25 6H13.8103L17.0306 2.78063C17.1714 2.6399 17.2504 2.44903 17.2504 2.25001C17.2504 2.05098 17.1714 1.86011 17.0306 1.71938C16.8899 1.57865 16.699 1.49959 16.5 1.49959C16.301 1.49959 16.1101 1.57865 15.9694 1.71938L12 5.68969L8.03063 1.71938C7.96094 1.6497 7.87822 1.59442 7.78717 1.55671C7.69613 1.519 7.59855 1.49959 7.5 1.49959C7.40145 1.49959 7.30387 1.519 7.21283 1.55671C7.12178 1.59442 7.03906 1.6497 6.96937 1.71938C6.82864 1.86011 6.74958 2.05098 6.74958 2.25001C6.74958 2.44903 6.82864 2.6399 6.96937 2.78063L10.1897 6H3.75C3.35218 6 2.97064 6.15804 2.68934 6.43935C2.40804 6.72065 2.25 7.10218 2.25 7.5V18.75C2.25 19.1478 2.40804 19.5294 2.68934 19.8107C2.97064 20.092 3.35218 20.25 3.75 20.25H20.25C20.6478 20.25 21.0294 20.092 21.3107 19.8107C21.592 19.5294 21.75 19.1478 21.75 18.75V7.5C21.75 7.10218 21.592 6.72065 21.3107 6.43935C21.0294 6.15804 20.6478 6.00001 20.25 6ZM20.25 18.75H15V7.5H20.25V18.75ZM18.75 10.875C18.75 11.0975 18.684 11.315 18.5604 11.5C18.4368 11.685 18.2611 11.8292 18.0555 11.9144C17.85 11.9995 17.6238 12.0218 17.4055 11.9784C17.1873 11.935 16.9868 11.8278 16.8295 11.6705C16.6722 11.5132 16.565 11.3127 16.5216 11.0945C16.4782 10.8763 16.5005 10.6501 16.5856 10.4445C16.6708 10.2389 16.815 10.0632 17 9.9396C17.185 9.81598 17.4025 9.75 17.625 9.75C17.9234 9.75 18.2095 9.86853 18.4205 10.0795C18.6315 10.2905 18.75 10.5766 18.75 10.875ZM18.75 15.375C18.75 15.5975 18.684 15.815 18.5604 16C18.4368 16.185 18.2611 16.3292 18.0555 16.4144C17.85 16.4995 17.6238 16.5218 17.4055 16.4784C17.1873 16.435 16.9868 16.3278 16.8295 16.1705C16.6722 16.0132 16.565 15.8127 16.5216 15.5945C16.4782 15.3763 16.5005 15.1501 16.5856 14.9445C16.6708 14.7389 16.815 14.5632 17 14.4396C17.185 14.316 17.4025 14.25 17.625 14.25C17.9234 14.25 18.2095 14.3685 18.4205 14.5795C18.6315 14.7905 18.75 15.0766 18.75 15.375Z" fill="black"/>
</svg>
