<svg width="24" height="24" viewBox="0 0 24 24" fill="none" xmlns="http://www.w3.org/2000/svg">
<path d="M3 6C3 5.80109 3.07902 5.61032 3.21967 5.46967C3.36032 5.32902 3.55109 5.25 3.75 5.25H20.25C20.4489 5.25 20.6397 5.32902 20.7803 5.46967C20.921 5.61032 21 5.80109 21 6C21 6.19891 20.921 6.38968 20.7803 6.53033C20.6397 6.67098 20.4489 6.75 20.25 6.75H3.75C3.55109 6.75 3.36032 6.67098 3.21967 6.53033C3.07902 6.38968 3 6.19891 3 6ZM6 9C5.80109 9 5.61032 9.07902 5.46967 9.21967C5.32902 9.36032 5.25 9.55109 5.25 9.75C5.25 9.94891 5.32902 10.1397 5.46967 10.2803C5.61032 10.421 5.80109 10.5 6 10.5H18C18.1989 10.5 18.3897 10.421 18.5303 10.2803C18.671 10.1397 18.75 9.94891 18.75 9.75C18.75 9.55109 18.671 9.36032 18.5303 9.21967C18.3897 9.07902 18.1989 9 18 9H6ZM20.25 12.75H3.75C3.55109 12.75 3.36032 12.829 3.21967 12.9697C3.07902 13.1103 3 13.3011 3 13.5C3 13.6989 3.07902 13.8897 3.21967 14.0303C3.36032 14.171 3.55109 14.25 3.75 14.25H20.25C20.4489 14.25 20.6397 14.171 20.7803 14.0303C20.921 13.8897 21 13.6989 21 13.5C21 13.3011 20.921 13.1103 20.7803 12.9697C20.6397 12.829 20.4489 12.75 20.25 12.75ZM18 16.5H6C5.80109 16.5 5.61032 16.579 5.46967 16.7197C5.32902 16.8603 5.25 17.0511 5.25 17.25C5.25 17.4489 5.32902 17.6397 5.46967 17.7803C5.61032 17.921 5.80109 18 6 18H18C18.1989 18 18.3897 17.921 18.5303 17.7803C18.671 17.6397 18.75 17.4489 18.75 17.25C18.75 17.0511 18.671 16.8603 18.5303 16.7197C18.3897 16.579 18.1989 16.5 18 16.5Z" fill="black"/>
</svg>
