<svg width="24" height="24" viewBox="0 0 24 24" fill="none" xmlns="http://www.w3.org/2000/svg">
<path d="M18.75 21C18.75 21.1989 18.671 21.3897 18.5303 21.5303C18.3897 21.671 18.1989 21.75 18 21.75H6C5.80109 21.75 5.61032 21.671 5.46967 21.5303C5.32902 21.3897 5.25 21.1989 5.25 21C5.25 20.8011 5.32902 20.6103 5.46967 20.4697C5.61032 20.329 5.80109 20.25 6 20.25H18C18.1989 20.25 18.3897 20.329 18.5303 20.4697C18.671 20.6103 18.75 20.8011 18.75 21ZM12 18.75C13.5908 18.7483 15.1159 18.1156 16.2407 16.9907C17.3656 15.8659 17.9983 14.3408 18 12.75V5.25C18 5.05109 17.921 4.86032 17.7803 4.71967C17.6397 4.57902 17.4489 4.5 17.25 4.5C17.0511 4.5 16.8603 4.57902 16.7197 4.71967C16.579 4.86032 16.5 5.05109 16.5 5.25V12.75C16.5 13.9435 16.0259 15.0881 15.182 15.932C14.3381 16.7759 13.1935 17.25 12 17.25C10.8065 17.25 9.66193 16.7759 8.81802 15.932C7.97411 15.0881 7.5 13.9435 7.5 12.75V5.25C7.5 5.05109 7.42098 4.86032 7.28033 4.71967C7.13968 4.57902 6.94891 4.5 6.75 4.5C6.55109 4.5 6.36032 4.57902 6.21967 4.71967C6.07902 4.86032 6 5.05109 6 5.25V12.75C6.00174 14.3408 6.63444 15.8659 7.75928 16.9907C8.88412 18.1156 10.4092 18.7483 12 18.75Z" fill="black"/>
</svg>
