<svg width="24" height="24" viewBox="0 0 24 24" fill="none" xmlns="http://www.w3.org/2000/svg">
<path d="M21 12C21 12.1989 20.921 12.3897 20.7803 12.5303C20.6397 12.671 20.4489 12.75 20.25 12.75H16.4934C17.355 13.4166 18 14.3625 18 15.75C18 17.0006 17.3438 18.1594 16.1484 19.0116C15.0309 19.8103 13.5572 20.25 12 20.25C10.4428 20.25 8.96906 19.8103 7.85156 19.0116C6.65625 18.1594 6 17.0006 6 15.75C6 15.5511 6.07902 15.3603 6.21967 15.2197C6.36032 15.079 6.55109 15 6.75 15C6.94891 15 7.13968 15.079 7.28033 15.2197C7.42098 15.3603 7.5 15.5511 7.5 15.75C7.5 17.3766 9.5625 18.75 12 18.75C14.4375 18.75 16.5 17.3766 16.5 15.75C16.5 14.3578 15.5119 13.5394 12.8653 12.75H3.75C3.55109 12.75 3.36032 12.671 3.21967 12.5303C3.07902 12.3897 3 12.1989 3 12C3 11.8011 3.07902 11.6103 3.21967 11.4697C3.36032 11.329 3.55109 11.25 3.75 11.25H20.25C20.4489 11.25 20.6397 11.329 20.7803 11.4697C20.921 11.6103 21 11.8011 21 12ZM7.15594 9.75C7.2745 9.75011 7.3914 9.72211 7.49705 9.66829C7.6027 9.61447 7.69408 9.53638 7.76371 9.44041C7.83333 9.34443 7.87921 9.23333 7.89757 9.11619C7.91594 8.99906 7.90628 8.87924 7.86938 8.76656C7.8157 8.59971 7.78942 8.42526 7.79156 8.25C7.79156 6.54 9.60094 5.25 12 5.25C13.7662 5.25 15.2025 5.94562 15.8438 7.11094C15.945 7.27413 16.1051 7.39223 16.2909 7.44091C16.4767 7.48958 16.6741 7.46512 16.8424 7.37255C17.0107 7.27999 17.1371 7.12638 17.1955 6.9434C17.2539 6.76042 17.2398 6.562 17.1562 6.38906C16.2497 4.73625 14.3222 3.75 12 3.75C8.74594 3.75 6.29156 5.68406 6.29156 8.25C6.28997 8.58377 6.34123 8.91569 6.44344 9.23344C6.49263 9.38363 6.58801 9.51444 6.71596 9.60721C6.84391 9.69997 6.9979 9.74995 7.15594 9.75Z" fill="black"/>
</svg>
