<svg width="24" height="24" viewBox="0 0 24 24" fill="none" xmlns="http://www.w3.org/2000/svg">
<path d="M16.7325 10.8469C17.3249 10.2766 17.7334 9.54234 17.9055 8.73828C18.0775 7.93421 18.0054 7.09707 17.6983 6.3343C17.3912 5.57154 16.8631 4.91797 16.1818 4.45749C15.5006 3.99701 14.6973 3.75064 13.875 3.75H7.5C7.30109 3.75 7.11032 3.82902 6.96967 3.96967C6.82902 4.11032 6.75 4.30109 6.75 4.5V18.75C6.75 18.9489 6.82902 19.1397 6.96967 19.2803C7.11032 19.421 7.30109 19.5 7.5 19.5H15C16.0401 19.5 17.0481 19.1397 17.8526 18.4803C18.657 17.821 19.2082 16.9033 19.4124 15.8834C19.6166 14.8636 19.4612 13.8044 18.9726 12.8862C18.484 11.968 17.6925 11.2473 16.7325 10.8469ZM8.25 5.25H13.875C14.5712 5.25 15.2389 5.52656 15.7312 6.01884C16.2234 6.51113 16.5 7.17881 16.5 7.875C16.5 8.57119 16.2234 9.23887 15.7312 9.73116C15.2389 10.2234 14.5712 10.5 13.875 10.5H8.25V5.25ZM15 18H8.25V12H15C15.7956 12 16.5587 12.3161 17.1213 12.8787C17.6839 13.4413 18 14.2044 18 15C18 15.7956 17.6839 16.5587 17.1213 17.1213C16.5587 17.6839 15.7956 18 15 18Z" fill="black"/>
</svg>
