<svg width="24" height="24" viewBox="0 0 24 24" fill="none" xmlns="http://www.w3.org/2000/svg">
<path d="M12 3.75C10.22 3.75 8.47991 4.27784 6.99987 5.26677C5.51983 6.25571 4.36628 7.66131 3.68509 9.30585C3.0039 10.9504 2.82567 12.76 3.17294 14.5058C3.5202 16.2516 4.37737 17.8553 5.63604 19.114C6.89472 20.3726 8.49836 21.2298 10.2442 21.5771C11.99 21.9243 13.7996 21.7461 15.4442 21.0649C17.0887 20.3837 18.4943 19.2302 19.4832 17.7501C20.4722 16.2701 21 14.53 21 12.75C20.9973 10.3639 20.0482 8.07629 18.361 6.38905C16.6737 4.70182 14.3861 3.75273 12 3.75ZM16.2806 9.53063L12.5306 13.2806C12.4609 13.3503 12.3782 13.4056 12.2872 13.4433C12.1961 13.481 12.0986 13.5004 12 13.5004C11.9015 13.5004 11.8039 13.481 11.7128 13.4433C11.6218 13.4056 11.5391 13.3503 11.4694 13.2806C11.3997 13.2109 11.3444 13.1282 11.3067 13.0372C11.269 12.9461 11.2496 12.8485 11.2496 12.75C11.2496 12.6515 11.269 12.5539 11.3067 12.4628C11.3444 12.3718 11.3997 12.2891 11.4694 12.2194L15.2194 8.46938C15.2891 8.39969 15.3718 8.34442 15.4628 8.30671C15.5539 8.26899 15.6515 8.24958 15.75 8.24958C15.8486 8.24958 15.9461 8.26899 16.0372 8.30671C16.1282 8.34442 16.2109 8.39969 16.2806 8.46938C16.3503 8.53906 16.4056 8.62178 16.4433 8.71283C16.481 8.80387 16.5004 8.90145 16.5004 9C16.5004 9.09855 16.481 9.19613 16.4433 9.28717C16.4056 9.37822 16.3503 9.46094 16.2806 9.53063ZM9 1.5C9 1.30109 9.07902 1.11032 9.21967 0.96967C9.36033 0.829018 9.55109 0.75 9.75 0.75H14.25C14.4489 0.75 14.6397 0.829018 14.7803 0.96967C14.921 1.11032 15 1.30109 15 1.5C15 1.69891 14.921 1.88968 14.7803 2.03033C14.6397 2.17098 14.4489 2.25 14.25 2.25H9.75C9.55109 2.25 9.36033 2.17098 9.21967 2.03033C9.07902 1.88968 9 1.69891 9 1.5Z" fill="black"/>
</svg>
