<svg width="24" height="24" viewBox="0 0 24 24" fill="none" xmlns="http://www.w3.org/2000/svg">
<path d="M12 17.6138C12 17.6138 12 17.6138 11.9944 17.6138C11.754 17.7739 11.5035 17.9183 11.2444 18.046V21.75C11.2444 21.9489 11.3234 22.1397 11.4641 22.2803C11.6047 22.421 11.7955 22.5 11.9944 22.5C12.1933 22.5 12.3841 22.421 12.5247 22.2803C12.6654 22.1397 12.7444 21.9489 12.7444 21.75V18.046C12.4853 17.9183 12.2348 17.7739 11.9944 17.6138H12Z" fill="black"/>
<path d="M18.5719 5.86875C18.0294 4.57335 17.1161 3.46719 15.9468 2.68923C14.7775 1.91127 13.4044 1.49622 12 1.49622C10.5956 1.49622 9.2225 1.91127 8.05324 2.68923C6.88397 3.46719 5.9707 4.57335 5.42815 5.86875C4.26069 6.40963 3.27133 7.27167 2.57572 8.3541C1.88011 9.43652 1.50701 10.6946 1.50003 11.9812C1.48971 15.6206 4.44003 18.6562 8.07565 18.75C9.17546 18.7787 10.2655 18.5369 11.25 18.0459V14.7131L7.1644 12.6712C6.98637 12.5822 6.851 12.4261 6.78806 12.2373C6.72512 12.0485 6.73976 11.8424 6.82878 11.6644C6.91779 11.4863 7.07388 11.351 7.2627 11.288C7.45153 11.2251 7.65763 11.2397 7.83565 11.3287L11.25 13.0369V8.25C11.25 8.05109 11.329 7.86032 11.4697 7.71967C11.6103 7.57902 11.8011 7.5 12 7.5C12.1989 7.5 12.3897 7.57902 12.5304 7.71967C12.671 7.86032 12.75 8.05109 12.75 8.25V10.7869L16.1644 9.07875C16.2526 9.03467 16.3485 9.00839 16.4468 9.00141C16.5451 8.99442 16.6439 9.00686 16.7373 9.03803C16.8308 9.0692 16.9173 9.11847 16.9917 9.18304C17.0662 9.24762 17.1272 9.32622 17.1713 9.41437C17.2154 9.50252 17.2416 9.59849 17.2486 9.6968C17.2556 9.7951 17.2432 9.89382 17.212 9.98732C17.1808 10.0808 17.1316 10.1673 17.067 10.2417C17.0024 10.3162 16.9238 10.3772 16.8357 10.4212L12.75 12.4631V18.0459C13.6817 18.5106 14.7089 18.7516 15.75 18.75H15.9244C19.56 18.6562 22.5103 15.6225 22.5 11.9831C22.4937 10.6961 22.1209 9.43746 21.4253 8.35461C20.7296 7.27176 19.7399 6.40949 18.5719 5.86875Z" fill="black"/>
</svg>
