<svg width="24" height="24" viewBox="0 0 24 24" fill="none" xmlns="http://www.w3.org/2000/svg">
<path d="M19.9992 13.9203V18.4001C19.9992 18.8244 19.8307 19.2313 19.5306 19.5314C19.2306 19.8314 18.8236 20 18.3993 20H5.59992C5.1756 20 4.76865 19.8314 4.46861 19.5314C4.16856 19.2313 4 18.8244 4 18.4001V13.9203C4 13.6657 4.10114 13.4215 4.28116 13.2415C4.46119 13.0615 4.70536 12.9603 4.95995 12.9603C5.21455 12.9603 5.45872 13.0615 5.63875 13.2415C5.81877 13.4215 5.91991 13.6657 5.91991 13.9203V18.0801H18.0793V13.9203C18.0793 13.6657 18.1805 13.4215 18.3605 13.2415C18.5405 13.0615 18.7847 12.9603 19.0393 12.9603C19.2939 12.9603 19.5381 13.0615 19.7181 13.2415C19.8981 13.4215 19.9992 13.6657 19.9992 13.9203ZM9.47894 8.83973L11.0397 7.2806V13.9203C11.0397 14.1749 11.1408 14.4191 11.3208 14.5991C11.5009 14.7791 11.745 14.8802 11.9996 14.8802C12.2542 14.8802 12.4984 14.7791 12.6784 14.5991C12.8584 14.4191 12.9596 14.1749 12.9596 13.9203V7.2806L14.5203 8.84213C14.7006 9.02247 14.9452 9.12378 15.2003 9.12378C15.4553 9.12378 15.6999 9.02247 15.8802 8.84213C16.0606 8.66179 16.1619 8.4172 16.1619 8.16216C16.1619 7.90712 16.0606 7.66253 15.8802 7.48219L12.6804 4.28234C12.5912 4.19285 12.4852 4.12184 12.3685 4.07339C12.2519 4.02494 12.1268 4 12.0004 4C11.8741 4 11.749 4.02494 11.6323 4.07339C11.5156 4.12184 11.4096 4.19285 11.3205 4.28234L8.1206 7.48219C8.03131 7.57149 7.96048 7.67749 7.91215 7.79416C7.86383 7.91083 7.83895 8.03588 7.83895 8.16216C7.83895 8.4172 7.94027 8.66179 8.1206 8.84213C8.30094 9.02247 8.54554 9.12378 8.80057 9.12378C9.05561 9.12378 9.3002 9.02247 9.48054 8.84213L9.47894 8.83973Z" fill="black"/>
</svg>
