<svg width="24" height="24" viewBox="0 0 24 24" fill="none" xmlns="http://www.w3.org/2000/svg">
<path d="M6.01126 13.8562C6.0138 13.907 6.00599 13.9578 5.98828 14.0055C5.97058 14.0532 5.94336 14.0968 5.90828 14.1336C5.8732 14.1704 5.831 14.1998 5.78423 14.2198C5.73747 14.2398 5.68712 14.2501 5.63626 14.25H1.50001C1.33073 14.2502 1.16634 14.1932 1.03358 14.0882C0.900815 13.9832 0.807483 13.8363 0.76876 13.6716C0.744649 13.5588 0.74576 13.442 0.772015 13.3297C0.79827 13.2174 0.84902 13.1123 0.920635 13.0219C1.58233 12.1443 2.46028 11.4534 3.46876 11.0166C3.026 10.6129 2.68642 10.109 2.47846 9.54706C2.27049 8.98514 2.2002 8.38158 2.27346 7.78691C2.34672 7.19225 2.56141 6.62379 2.89955 6.12916C3.23768 5.63453 3.68941 5.22812 4.21691 4.94397C4.74441 4.65983 5.33232 4.50621 5.93139 4.496C6.53047 4.48578 7.12327 4.61927 7.66015 4.88527C8.19703 5.15127 8.66235 5.54204 9.01715 6.02486C9.37195 6.50768 9.60589 7.06848 9.69938 7.6603C9.71146 7.73989 9.6972 7.82124 9.65879 7.89198C9.62037 7.96272 9.5599 8.01897 9.48657 8.05218C8.44631 8.53309 7.56532 9.30153 6.94755 10.2668C6.32977 11.2321 6.00099 12.3539 6.00001 13.5C6.00001 13.62 6.00001 13.7381 6.01126 13.8562ZM23.0738 13.0209C22.4136 12.1444 21.5376 11.4539 20.5313 11.0166C20.974 10.6129 21.3136 10.109 21.5216 9.54706C21.7295 8.98514 21.7998 8.38158 21.7266 7.78691C21.6533 7.19225 21.4386 6.62379 21.1005 6.12916C20.7623 5.63453 20.3106 5.22812 19.7831 4.94397C19.2556 4.65983 18.6677 4.50621 18.0686 4.496C17.4696 4.48578 16.8768 4.61927 16.3399 4.88527C15.803 5.15127 15.3377 5.54204 14.9829 6.02486C14.6281 6.50768 14.3941 7.06848 14.3006 7.6603C14.2886 7.73989 14.3028 7.82124 14.3412 7.89198C14.3796 7.96272 14.4401 8.01897 14.5134 8.05218C15.5537 8.53309 16.4347 9.30153 17.0525 10.2668C17.6702 11.2321 17.999 12.3539 18 13.5C18 13.62 18 13.7381 17.9888 13.8562C17.9862 13.907 17.994 13.9578 18.0117 14.0055C18.0294 14.0532 18.0567 14.0968 18.0917 14.1336C18.1268 14.1704 18.169 14.1998 18.2158 14.2198C18.2626 14.2398 18.3129 14.2501 18.3638 14.25H22.5C22.6693 14.2502 22.8337 14.1932 22.9664 14.0882C23.0992 13.9832 23.1925 13.8363 23.2313 13.6716C23.2555 13.5586 23.2544 13.4416 23.228 13.3291C23.2015 13.2166 23.1505 13.1113 23.0784 13.0209H23.0738ZM14.73 17.0691C15.4768 16.4971 16.0256 15.7056 16.2992 14.8057C16.5729 13.9058 16.5577 12.9427 16.2558 12.0519C15.9538 11.1611 15.3804 10.3873 14.6159 9.83921C13.8515 9.29115 12.9345 8.99641 11.9939 8.99641C11.0533 8.99641 10.1364 9.29115 9.37191 9.83921C8.60747 10.3873 8.03399 11.1611 7.73206 12.0519C7.43012 12.9427 7.41493 13.9058 7.6886 14.8057C7.96227 15.7056 8.51106 16.4971 9.25782 17.0691C7.9327 17.6432 6.8262 18.6265 6.10032 19.875C6.03449 19.989 5.99983 20.1184 5.99984 20.25C5.99985 20.3817 6.03452 20.511 6.10036 20.6251C6.16621 20.7391 6.26091 20.8338 6.37495 20.8996C6.48899 20.9654 6.61834 21 6.75001 21H17.25C17.3817 21 17.511 20.9654 17.6251 20.8996C17.7391 20.8338 17.8338 20.7391 17.8997 20.6251C17.9655 20.511 18.0002 20.3817 18.0002 20.25C18.0002 20.1184 17.9655 19.989 17.8997 19.875C17.1723 18.6257 16.0637 17.6423 14.7366 17.0691H14.73Z" fill="black"/>
</svg>
