<svg width="24" height="24" viewBox="0 0 24 24" fill="none" xmlns="http://www.w3.org/2000/svg">
<path d="M22.5 17.25H21.75V5.42812L22.6566 5.23312C22.755 5.21467 22.8487 5.1767 22.9321 5.12146C23.0156 5.06623 23.0872 4.99483 23.1427 4.91149C23.1981 4.82816 23.2364 4.73456 23.2551 4.63621C23.2738 4.53787 23.2726 4.43678 23.2517 4.33889C23.2307 4.241 23.1904 4.1483 23.133 4.06625C23.0756 3.98421 23.0024 3.91447 22.9177 3.86116C22.833 3.80785 22.7384 3.77204 22.6396 3.75585C22.5408 3.73966 22.4398 3.7434 22.3425 3.76687L1.3425 8.26687C1.16159 8.30591 1.00149 8.41046 0.89302 8.56042C0.784545 8.71038 0.735349 8.89515 0.754894 9.0792C0.774438 9.26324 0.861343 9.43356 0.998893 9.55739C1.13644 9.68122 1.31492 9.74982 1.5 9.74999C1.55326 9.7499 1.60636 9.74424 1.65844 9.73312L2.25 9.60656V17.25H1.5C1.30109 17.25 1.11032 17.329 0.96967 17.4697C0.829018 17.6103 0.75 17.8011 0.75 18C0.75 18.1989 0.829018 18.3897 0.96967 18.5303C1.11032 18.671 1.30109 18.75 1.5 18.75H22.5C22.6989 18.75 22.8897 18.671 23.0303 18.5303C23.171 18.3897 23.25 18.1989 23.25 18C23.25 17.8011 23.171 17.6103 23.0303 17.4697C22.8897 17.329 22.6989 17.25 22.5 17.25ZM17.25 17.25H6.75V15.75H17.25V17.25ZM17.25 14.25H6.75V12.75H17.25V14.25Z" fill="black"/>
</svg>
