<svg width="24" height="24" viewBox="0 0 24 24" fill="none" xmlns="http://www.w3.org/2000/svg">
<path d="M22.0622 10.9425L13.0575 1.93686C12.7765 1.65748 12.3963 1.50067 12 1.50067C11.6038 1.50067 11.2236 1.65748 10.9425 1.93686L1.94254 10.9425C1.66316 11.2235 1.50635 11.6037 1.50635 12C1.50635 12.3963 1.66316 12.7764 1.94254 13.0575L10.9472 22.0631C11.2283 22.3425 11.6084 22.4993 12.0047 22.4993C12.401 22.4993 12.7812 22.3425 13.0622 22.0631L22.0669 13.0575C22.3463 12.7764 22.5031 12.3963 22.5031 12C22.5031 11.6037 22.3463 11.2235 22.0669 10.9425H22.0622ZM11.25 7.49999C11.25 7.30107 11.3291 7.11031 11.4697 6.96966C11.6104 6.829 11.8011 6.74999 12 6.74999C12.1989 6.74999 12.3897 6.829 12.5304 6.96966C12.671 7.11031 12.75 7.30107 12.75 7.49999V12.75C12.75 12.9489 12.671 13.1397 12.5304 13.2803C12.3897 13.421 12.1989 13.5 12 13.5C11.8011 13.5 11.6104 13.421 11.4697 13.2803C11.3291 13.1397 11.25 12.9489 11.25 12.75V7.49999ZM12 17.25C11.7775 17.25 11.56 17.184 11.375 17.0604C11.19 16.9368 11.0458 16.7611 10.9607 16.5555C10.8755 16.3499 10.8532 16.1237 10.8967 15.9055C10.9401 15.6873 11.0472 15.4868 11.2045 15.3295C11.3619 15.1722 11.5623 15.065 11.7806 15.0216C11.9988 14.9782 12.225 15.0005 12.4306 15.0856C12.6361 15.1708 12.8118 15.315 12.9354 15.5C13.0591 15.685 13.125 15.9025 13.125 16.125C13.125 16.4234 13.0065 16.7095 12.7955 16.9205C12.5846 17.1315 12.2984 17.25 12 17.25Z" fill="black"/>
</svg>
