<svg width="24" height="24" viewBox="0 0 24 24" fill="none" xmlns="http://www.w3.org/2000/svg">
<path d="M11.2499 9.75H2.24994C2.14712 9.75022 2.04536 9.72931 1.95097 9.68855C1.85658 9.64779 1.77157 9.58806 1.70124 9.51306C1.6309 9.43807 1.57674 9.34941 1.54211 9.2526C1.50748 9.1558 1.49313 9.0529 1.49994 8.95031C1.51653 8.75712 1.60577 8.57742 1.74966 8.44744C1.89355 8.31747 2.08138 8.24691 2.27525 8.25H10.4999C10.6028 8.25022 10.7045 8.22931 10.7989 8.18855C10.8933 8.14779 10.9783 8.08806 11.0486 8.01306C11.119 7.93807 11.1731 7.84941 11.2078 7.7526C11.2424 7.6558 11.2568 7.5529 11.2499 7.45031C11.2333 7.25712 11.1441 7.07742 11.0002 6.94744C10.8563 6.81747 10.6685 6.74691 10.4746 6.75H8.65213C8.59795 6.75057 8.5443 6.7394 8.49485 6.71725C8.44541 6.6951 8.40135 6.6625 8.36571 6.6217C8.33008 6.58089 8.3037 6.53285 8.28841 6.48087C8.27312 6.4289 8.26927 6.37423 8.27713 6.32062C8.3594 5.75169 8.6034 5.21837 8.9801 4.78414C9.35679 4.34991 9.85031 4.03305 10.4019 3.87126C10.9535 3.70948 11.54 3.70958 12.0916 3.87156C12.6431 4.03354 13.1365 4.35058 13.5131 4.78495C13.8896 5.21931 14.1334 5.75272 14.2155 6.32168C14.2976 6.89064 14.2145 7.47121 13.976 7.99428C13.7376 8.51736 13.3539 8.96092 12.8706 9.27218C12.3873 9.58344 11.8248 9.74929 11.2499 9.75ZM22.4924 9.53531C22.4396 8.79723 22.1159 8.1047 21.5835 7.5908C21.0511 7.07691 20.3475 6.77792 19.608 6.75129C18.8686 6.72466 18.1453 6.97227 17.5773 7.44653C17.0093 7.9208 16.6366 8.58825 16.5309 9.32062C16.523 9.37423 16.5269 9.4289 16.5422 9.48087C16.5575 9.53285 16.5838 9.58089 16.6195 9.6217C16.6551 9.6625 16.6992 9.6951 16.7486 9.71725C16.798 9.7394 16.8517 9.75057 16.9059 9.75H18.7284C18.9219 9.74739 19.1093 9.81817 19.2528 9.94809C19.3963 10.078 19.4852 10.2575 19.5018 10.4503C19.5086 10.5529 19.4943 10.6558 19.4596 10.7526C19.425 10.8494 19.3708 10.9381 19.3005 11.0131C19.2302 11.0881 19.1452 11.1478 19.0508 11.1885C18.9564 11.2293 18.8546 11.2502 18.7518 11.25H3.02525C2.83138 11.2469 2.64355 11.3175 2.49966 11.4474C2.35577 11.5774 2.26653 11.7571 2.24994 11.9503C2.24313 12.0529 2.25748 12.1558 2.29211 12.2526C2.32674 12.3494 2.3809 12.4381 2.45124 12.5131C2.52157 12.5881 2.60658 12.6478 2.70097 12.6885C2.79536 12.7293 2.89712 12.7502 2.99994 12.75H19.4999C19.912 12.75 20.3197 12.6652 20.6975 12.5007C21.0753 12.3362 21.4152 12.0957 21.696 11.7941C21.9767 11.4925 22.1924 11.1362 22.3294 10.7476C22.4664 10.359 22.5219 9.94632 22.4924 9.53531ZM14.2499 14.25H3.77525C3.58138 14.2469 3.39355 14.3175 3.24966 14.4474C3.10577 14.5774 3.01653 14.7571 2.99994 14.9503C2.99313 15.0529 3.00748 15.1558 3.04211 15.2526C3.07674 15.3494 3.1309 15.4381 3.20124 15.5131C3.27157 15.5881 3.35658 15.6478 3.45097 15.6885C3.54536 15.7293 3.64712 15.7502 3.74994 15.75H13.4746C13.6682 15.7474 13.8555 15.8182 13.999 15.9481C14.1425 16.078 14.2315 16.2574 14.2481 16.4503C14.2549 16.5529 14.2405 16.6558 14.2059 16.7526C14.1713 16.8494 14.1171 16.9381 14.0468 17.0131C13.9764 17.0881 13.8914 17.1478 13.797 17.1885C13.7026 17.2293 13.6009 17.2502 13.4981 17.25H11.6521C11.598 17.2494 11.5443 17.2606 11.4949 17.2827C11.4454 17.3049 11.4014 17.3375 11.3657 17.3783C11.3301 17.4191 11.3037 17.4671 11.2884 17.5191C11.2731 17.5711 11.2693 17.6258 11.2771 17.6794C11.3594 18.2483 11.6034 18.7816 11.9801 19.2159C12.3568 19.6501 12.8503 19.9669 13.4019 20.1287C13.9535 20.2905 14.54 20.2904 15.0916 20.1284C15.6431 19.9664 16.1365 19.6494 16.5131 19.215C16.8896 18.7807 17.1334 18.2473 17.2155 17.6783C17.2976 17.1094 17.2145 16.5288 16.976 16.0057C16.7376 15.4826 16.3539 15.0391 15.8706 14.7278C15.3873 14.4166 14.8248 14.2507 14.2499 14.25Z" fill="black"/>
</svg>
