<svg width="24" height="24" viewBox="0 0 24 24" fill="none" xmlns="http://www.w3.org/2000/svg">
<path d="M21.75 9C21.7511 10.1226 21.4723 11.2277 20.9387 12.2153C20.4051 13.203 19.6335 14.042 18.694 14.6563C17.7544 15.2706 16.6765 15.6409 15.5577 15.7337C14.439 15.8264 13.3148 15.6387 12.2869 15.1875L7.40627 20.8331C7.39502 20.8462 7.3819 20.8603 7.36971 20.8725C6.80703 21.4352 6.04389 21.7513 5.24815 21.7513C4.4524 21.7513 3.68926 21.4352 3.12658 20.8725C2.56391 20.3098 2.2478 19.5467 2.2478 18.7509C2.2478 17.9552 2.56391 17.192 3.12658 16.6294C3.13971 16.6172 3.15283 16.6041 3.1669 16.5928L8.81252 11.7131C8.30671 10.5561 8.13527 9.28042 8.31766 8.03087C8.50004 6.78133 9.02896 5.60791 9.8444 4.64371C10.6598 3.67951 11.7292 2.96313 12.9311 2.57582C14.133 2.18852 15.4194 2.14579 16.6444 2.4525C16.7707 2.48415 16.8865 2.54812 16.9806 2.63813C17.0746 2.72813 17.1437 2.84107 17.1808 2.96583C17.218 3.0906 17.2221 3.22289 17.1926 3.34969C17.1632 3.4765 17.1012 3.59346 17.0128 3.68906L13.5 7.5L14.0306 9.97031L16.5 10.5L20.311 6.9825C20.4066 6.89413 20.5235 6.83218 20.6503 6.80272C20.7771 6.77327 20.9094 6.77732 21.0342 6.8145C21.1589 6.85167 21.2719 6.92068 21.3619 7.01474C21.4519 7.10879 21.5159 7.22466 21.5475 7.35093C21.6821 7.89029 21.7501 8.4441 21.75 9Z" fill="black"/>
</svg>
