<svg width="24" height="24" viewBox="0 0 24 24" fill="none" xmlns="http://www.w3.org/2000/svg">
<path d="M19.2097 18.5171L14.3323 10.8571L19.1074 5.60475C19.2749 5.41587 19.3613 5.16857 19.3477 4.91646C19.3342 4.66434 19.2218 4.42773 19.0349 4.25793C18.8481 4.08812 18.6018 3.99881 18.3496 4.00935C18.0973 4.01989 17.8594 4.12943 17.6873 4.31423L13.2681 9.17884L10.2545 4.44456C10.1679 4.30839 10.0483 4.19627 9.90689 4.11856C9.76545 4.04085 9.6067 4.00007 9.44532 4H5.60736C5.43549 4.00008 5.26678 4.04633 5.11889 4.13391C4.971 4.22149 4.84936 4.34719 4.76666 4.49786C4.68397 4.64854 4.64327 4.81867 4.64882 4.99045C4.65436 5.16224 4.70595 5.32939 4.79819 5.47441L9.6756 13.1343L4.89734 18.3867C4.81083 18.4797 4.74362 18.5889 4.69961 18.708C4.6556 18.8271 4.63567 18.9537 4.64097 19.0806C4.64627 19.2074 4.6767 19.332 4.73049 19.447C4.78428 19.562 4.86036 19.6652 4.95432 19.7506C5.04829 19.836 5.15827 19.9019 5.27789 19.9444C5.3975 19.987 5.52438 20.0054 5.65117 19.9986C5.77796 19.9918 5.90213 19.9599 6.01649 19.9047C6.13085 19.8495 6.23312 19.7722 6.31738 19.6773L10.7398 14.8126L13.7534 19.5469C13.84 19.6831 13.9596 19.7952 14.101 19.8729C14.2425 19.9506 14.4012 19.9914 14.5626 19.9915H18.4006C18.5724 19.9914 18.7411 19.9452 18.889 19.8576C19.0369 19.77 19.1586 19.6443 19.2413 19.4936C19.3239 19.3429 19.3646 19.1728 19.3591 19.001C19.3536 18.8292 19.302 18.6621 19.2097 18.5171ZM15.0895 18.0725L7.35523 5.91898H8.9184L16.6527 18.0725H15.0895Z" fill="black"/>
</svg>
